<?xml version="1.0" encoding="UTF-8"?><svg xmlns="http://www.w3.org/2000/svg" viewBox="0 0 910 280"><defs><style>.h,.i{fill:none;}.j{fill:#dbf0e9;}.k,.l{fill:#43b489;}.l{isolation:isolate;opacity:.15;}.i{opacity:.3;stroke:#43b489;stroke-linecap:round;stroke-width:2.36px;}</style></defs><g id="a"><g><path class="k" d="M2.35,232.85v-2.57H14.96c.03-.88,.36-1.62,1-2.23,.64-.61,1.4-.91,2.3-.91s1.69,.32,2.33,.97c.65,.65,.97,1.42,.97,2.33s-.32,1.69-.97,2.33c-.65,.65-1.42,.97-2.33,.97h-.04c-.56,3.67-1.94,6.51-4.15,8.54-2.21,2.02-5.36,3.36-9.47,4l-.66-2.57c3.51-.62,6.19-1.81,8.05-3.58,1.86-1.77,2.98-4.19,3.34-7.27H2.35Zm16.92-1.41c.28-.28,.42-.62,.42-1.01s-.14-.73-.42-1.01c-.28-.28-.62-.42-1.01-.42s-.73,.14-1.01,.42c-.28,.28-.42,.62-.42,1.01s.14,.73,.42,1.01c.28,.28,.62,.42,1.01,.42s.73-.14,1.01-.42Z"/><path class="k" d="M23.79,230.27h16.59v15.62h-2.95v-1.45h-10.69v1.45h-2.95v-15.62Zm13.64,11.66v-9.15h-10.69v9.15h10.69Z"/><path class="k" d="M47.78,233.33v14.28h-2.77v-9.28c-.54,.92-1.06,1.67-1.56,2.24l-.84-3.37c.94-1.31,1.7-2.67,2.29-4.09,.62-1.51,1.11-3.22,1.47-5.13l2.66,.48c-.29,1.78-.71,3.4-1.25,4.86Zm15.25,2.4h-5.21v8.8h4.71v2.44h-13.22v-2.44h5.57v-8.8h-5.94v-2.53h5.94v-4.99h2.95v4.99h5.21v2.53Z"/><path class="k" d="M64.78,231.53h2.22v-3.45h2.6v3.45h1.98v2.38h-1.78c.73,1.6,1.39,3.04,1.96,4.33v-1.43h5.17v-1.23h-4.64v-2.05h4.64v-1.12h-5.06v-2.24h2.64c-.18-.35-.51-.96-1.01-1.83l2.44-.66c.56,.92,1,1.75,1.34,2.49h2.33c.48-.87,.89-1.69,1.23-2.49l2.51,.57c-.32,.7-.64,1.34-.95,1.91h2.11v2.18h-4.8v1.19h4.53v2.05h-4.53v1.23h5.04v2.33h-1.41l1.43,1.45c-.79,.81-1.58,1.52-2.35,2.13,.89,.92,1.82,1.69,2.77,2.31l-1.56,2.22c-1.25-.92-2.37-2.09-3.37-3.5-.13-.19-.32-.48-.55-.86v1.12c0,.7,0,1.17-.02,1.39-.03,.38-.08,.7-.15,.95-.09,.28-.19,.49-.31,.64-.1,.13-.29,.24-.57,.33-.29,.1-.58,.16-.86,.18-.41,.03-.81,.04-1.21,.04-.34,0-1.08-.04-2.22-.11l-.13-2.16c-.9,.66-1.8,1.27-2.71,1.83l-1.41-2.22c1.22-.69,2.32-1.38,3.3-2.07-.66-.88-1.31-1.68-1.96-2.4l1.72-1.28h-1.28l-1.34,1.69c-.21-.56-.53-1.39-.97-2.51v9.28h-2.6v-7.41c-.44,1.31-.93,2.38-1.47,3.23l-1.25-2.75c1.26-2.13,2.13-4.38,2.62-6.78h-2.11v-2.38Zm12.14,10.41v-2.79h-3.34c.57,.65,1.17,1.37,1.8,2.18,.03-.03,.15-.13,.36-.3,.21-.17,.37-.3,.47-.41l.7,1.32Zm-2.49,3.21c.78,.04,1.34,.07,1.69,.07s.57-.04,.66-.13,.13-.37,.13-.86v-1.17c-.76,.72-1.59,1.42-2.49,2.09Zm5.28-6.01c.35,.63,.73,1.23,1.14,1.78,.7-.53,1.39-1.12,2.05-1.78h-3.19Z"/><path class="k" d="M97.56,243.85c1.58-.37,2.81-1.06,3.67-2.09,.87-1.03,1.3-2.31,1.3-3.85,0-1.38-.41-2.53-1.24-3.44-.83-.92-1.94-1.48-3.33-1.68-.59,4.25-1.47,7.38-2.64,9.38s-2.56,3-4.16,3c-1.11,0-2.13-.59-3.04-1.77-.91-1.18-1.36-2.62-1.36-4.32,0-2.65,.92-4.81,2.75-6.46s4.28-2.47,7.33-2.47c2.54,0,4.61,.72,6.21,2.17,1.61,1.44,2.41,3.31,2.41,5.6s-.62,4.06-1.87,5.54-2.98,2.44-5.19,2.88l-.84-2.49Zm-2.55-11c-1.69,.29-3.01,.99-3.98,2.08-.97,1.09-1.45,2.43-1.45,4.02,0,.97,.18,1.77,.54,2.41,.36,.64,.73,.96,1.11,.96s.78-.29,1.2-.86,.86-1.6,1.33-3.08c.47-1.48,.89-3.32,1.25-5.52Z"/><path class="k" d="M107.5,232.69h3.74v-3.74h2.77v3.74h5.87v-3.74h2.86v3.74h3.81v2.57h-3.81v.51c0,3.53-.77,6.13-2.31,7.78-1.54,1.65-4.14,2.68-7.79,3.09l-.57-2.51c3.02-.37,5.08-1.14,6.17-2.33,1.09-1.19,1.64-3.2,1.64-6.03v-.51h-5.87v4.4h-2.77v-4.4h-3.74v-2.57Z"/><path class="k" d="M138.95,228.23v3.52h6.82v3.01c0,3.46-1,6.19-3.01,8.18s-5.09,3.25-9.24,3.76l-.53-2.57c3.4-.42,5.89-1.38,7.47-2.86s2.37-3.56,2.37-6.23v-.81h-10.56v4.33h-2.86v-6.82h6.6v-3.52h2.95Z"/><path class="k" d="M149.27,231.94l1.5-2.31c2.16,1.23,4.22,2.55,6.2,3.96l-1.58,2.31c-2.02-1.44-4.06-2.76-6.12-3.96Zm.4,11.46c4.02-.4,7.14-1.52,9.37-3.37,2.23-1.85,3.78-4.59,4.64-8.23l2.71,.75c-.88,4.15-2.67,7.34-5.36,9.58-2.69,2.24-6.35,3.56-10.99,3.97l-.37-2.71Z"/><path class="k" d="M170.6,229.04h2.99v6.03c3.42,.91,6.68,2.05,9.79,3.43l-1.01,2.49c-2.89-1.26-5.82-2.3-8.78-3.12v8.91h-2.99v-17.73Zm11.02,4.16l-2.49,1.19c-.59-1.13-1.27-2.4-2.05-3.81l2.49-1.25c.66,1.2,1.34,2.49,2.05,3.87Zm3.89-.79l-2.53,1.21c-.62-1.22-1.31-2.52-2.09-3.89l2.53-1.28c.94,1.73,1.64,3.05,2.09,3.96Z"/><path class="k" d="M3.73,262.4v-1.22H14.17v1.22c-.73,1.92-1.88,3.77-3.44,5.54,1.67,1.62,3.4,3.37,5.2,5.24l-.95,.92c-1.64-1.73-3.35-3.46-5.13-5.2-2.16,2.2-4.6,3.86-7.31,4.99l-.54-1.15c2.4-1.02,4.58-2.48,6.53-4.39,1.96-1.91,3.32-3.89,4.1-5.94H3.73Z"/><path class="k" d="M22.32,266l.63-1.06c1.66,.92,3.34,1.97,5.06,3.15,.79-1.44,1.28-3.2,1.46-5.27h-6.7c-.72,1.96-1.91,3.72-3.58,5.29l-.85-.85c2.21-2.14,3.49-4.65,3.85-7.54l1.26,.09c-.07,.64-.18,1.25-.32,1.84h7.7v1.17c-.31,3.48-1.39,6.16-3.22,8.05s-4.52,3.04-8.05,3.46l-.27-1.24c3.71-.41,6.39-1.73,8.05-3.96-1.66-1.12-3.33-2.15-5.02-3.11Z"/><path class="k" d="M33.83,265.83l.43-1.13c1.91,.64,3.59,1.26,5.04,1.87l-.47,1.13c-1.48-.61-3.14-1.24-5-1.87Zm.83,7.24c3.5-.43,6.19-1.43,8.05-2.99,1.86-1.56,3.14-3.88,3.83-6.97l1.24,.32c-.71,3.36-2.09,5.9-4.13,7.62-2.05,1.72-4.97,2.8-8.78,3.25l-.22-1.24Zm.7-11.21l.43-1.17c1.72,.58,3.41,1.21,5.08,1.89l-.47,1.17c-1.69-.7-3.37-1.33-5.04-1.89Zm8.75-2.3l.99-.52c.49,.8,1,1.7,1.51,2.68l-.99,.5c-.43-.83-.94-1.72-1.51-2.66Zm2.43-.29l1.01-.54c.48,.8,1,1.72,1.55,2.75l-1.01,.5c-.53-1-1.04-1.9-1.55-2.72Z"/><path class="k" d="M50.78,262.58h8.86v-2.88h1.35v2.88h4.09v1.21h-4.09v7.85c0,.98-.14,1.61-.41,1.88-.28,.27-.9,.41-1.87,.41s-1.97-.08-3.04-.23l.11-1.24c1.08,.17,2.02,.25,2.83,.25,.46,0,.74-.06,.86-.19,.12-.13,.18-.42,.18-.87v-6.28c-2.52,2.68-5.24,4.85-8.15,6.52l-.67-1.04c1.51-.86,3.02-1.91,4.52-3.13,1.5-1.22,2.86-2.53,4.09-3.91h-8.64v-1.21Z"/><path class="k" d="M68.63,274.31v-13.77h1.44v12.38c1.96-.22,3.75-.89,5.38-2.03,1.63-1.14,2.86-2.58,3.67-4.32l1.17,.58c-.85,1.91-2.18,3.5-3.98,4.76-1.8,1.27-3.88,2.07-6.25,2.4h-1.44Z"/><path class="k" d="M81.6,270.39c1.24-1.55,2.44-3.09,3.6-4.63,.97-1.31,1.61-2.11,1.93-2.41,.31-.3,.69-.45,1.13-.45,.49,0,.92,.14,1.28,.43,.36,.29,1.14,1.07,2.34,2.34,2.53,2.68,4.52,4.75,5.98,6.21l-1.01,1.01c-1.74-1.75-3.73-3.83-5.96-6.23-.97-1.03-1.6-1.68-1.88-1.93-.28-.26-.53-.39-.75-.39-.14,0-.33,.13-.57,.4s-.69,.85-1.38,1.75c-.92,1.26-2.14,2.83-3.64,4.72l-1.08-.81Zm10.01-9.31l1.17-.61c.66,1.08,1.27,2.15,1.84,3.22l-1.17,.58c-.43-.82-1.04-1.88-1.84-3.19Zm2.66-.77l1.17-.61c.67,1.09,1.3,2.18,1.89,3.28l-1.19,.58c-.5-.94-1.13-2.02-1.87-3.24Z"/><path class="k" d="M102.58,260.72h1.39v3.29c0,1.69-.06,3.08-.18,4.16-.12,1.08-.35,2.02-.68,2.83-.33,.8-.75,1.45-1.26,1.94-.51,.49-1.19,.95-2.04,1.39l-.77-1.06c.97-.49,1.69-1.02,2.15-1.59,.46-.57,.81-1.44,1.04-2.62,.23-1.18,.35-2.86,.35-5.04v-3.29Zm4.45,13.37v-13.37h1.39v11.92c2.74-.8,4.42-2.98,5.06-6.53l1.3,.27c-.68,4.13-2.8,6.7-6.35,7.72h-1.39Z"/><path class="k" d="M125.4,272.93c1.39-.25,2.51-.88,3.35-1.9s1.26-2.24,1.26-3.68-.47-2.55-1.42-3.44c-.95-.89-2.19-1.35-3.73-1.39-.46,3.52-1.12,6.16-2.01,7.93-.88,1.77-1.91,2.66-3.07,2.66-.78,0-1.5-.46-2.16-1.39-.66-.92-.99-2.04-.99-3.35,0-2.1,.74-3.81,2.22-5.12,1.48-1.31,3.42-1.97,5.82-1.97,1.97,0,3.58,.57,4.83,1.7s1.88,2.59,1.88,4.36-.51,3.26-1.54,4.5c-1.03,1.24-2.38,2-4.08,2.29l-.38-1.21Zm-1.93-10.33c-1.67,.22-3,.84-4,1.86-1,1.03-1.49,2.31-1.49,3.84,0,.98,.2,1.81,.6,2.47,.4,.66,.81,.99,1.23,.99,.2,0,.42-.08,.64-.25s.47-.47,.75-.91c.28-.44,.54-.99,.8-1.66,.26-.67,.52-1.54,.77-2.64,.26-1.09,.49-2.33,.69-3.71Z"/><path class="k" d="M134.96,274.31v-13.77h1.44v12.38c1.96-.22,3.75-.89,5.38-2.03,1.63-1.14,2.86-2.58,3.67-4.32l1.17,.58c-.85,1.91-2.18,3.5-3.98,4.76-1.8,1.27-3.88,2.07-6.25,2.4h-1.44Z"/><path class="k" d="M148.31,261.71h12.24v12.11h-1.39v-1.08h-10.85v-1.22h10.85v-8.59h-10.85v-1.22Z"/><path class="k" d="M163.78,268.03v-1.37h14.15v1.37h-14.15Z"/><path class="k" d="M180.3,265.67h14.76v1.19h-6.03c-.04,2.17-.5,3.85-1.4,5.05s-2.37,2.09-4.41,2.69l-.41-1.19c1.74-.55,2.98-1.33,3.71-2.32,.73-1,1.1-2.41,1.12-4.23h-7.33v-1.19Zm2.16-3.37v-1.21h9.23v1.21h-9.23Zm9.16-2.93l.99-.52c.49,.8,1,1.7,1.51,2.68l-.99,.5c-.43-.83-.94-1.72-1.51-2.66Zm2.43-.29l1.01-.54c.48,.8,1,1.72,1.55,2.75l-1.01,.5c-.53-1-1.04-1.9-1.55-2.72Z"/><path class="k" d="M197.38,269.02c1.97-.43,3.84-1.16,5.62-2.18,1.78-1.02,3.3-2.24,4.56-3.65l.94,.86c-1.15,1.3-2.52,2.44-4.1,3.42v6.88h-1.33v-6.1c-1.73,.91-3.53,1.57-5.4,1.96l-.29-1.19Z"/><path class="k" d="M211.21,262.02l.74-1.1c1.64,.97,3.25,2.05,4.82,3.24l-.77,1.1c-1.57-1.18-3.17-2.26-4.79-3.24Zm.2,10.55c3.28-.3,5.92-1.3,7.93-3,2.01-1.7,3.32-4.02,3.93-6.98l1.3,.32c-.64,3.22-2.06,5.77-4.28,7.65-2.22,1.88-5.12,2.98-8.69,3.29l-.18-1.3Z"/><path class="k" d="M237.15,259.82l.99-.52c.49,.8,1,1.7,1.51,2.68l-.99,.49v.92c-.31,3.3-1.38,5.84-3.21,7.63-1.83,1.79-4.52,2.89-8.06,3.29l-.23-1.24c3.17-.34,5.58-1.3,7.23-2.89,1.65-1.59,2.61-3.86,2.89-6.8h-6.57c-.71,1.86-1.88,3.55-3.51,5.08l-.9-.85c2.21-2.14,3.49-4.65,3.85-7.54l1.31,.09c-.08,.76-.2,1.43-.36,2.02h7.4c-.42-.78-.87-1.57-1.35-2.36Zm2.25-.63l1.01-.52c.54,.89,1.06,1.8,1.55,2.74l-1.01,.5c-.53-1-1.04-1.9-1.55-2.72Z"/><path class="k" d="M248.65,259.39l1.37,.31c-.3,1-.54,1.73-.72,2.21,2.27-.1,4.49-.25,6.66-.47l.05,1.17c-2.51,.25-4.91,.42-7.22,.5-.35,.77-.77,1.59-1.26,2.47l.02,.02c1-.67,1.88-1.01,2.66-1.01,.65,0,1.18,.17,1.58,.5,.41,.34,.72,.9,.94,1.69,1.34-.47,2.84-.83,4.48-1.1l.14,1.21c-1.54,.25-2.99,.62-4.37,1.12,.11,.86,.16,1.92,.16,3.17h-1.39c0-1.18-.03-2.06-.09-2.65-1.12,.5-1.99,1.04-2.62,1.6-.63,.56-.95,1.07-.95,1.53,0,1.13,1.36,1.69,4.09,1.69,1.32,0,2.7-.13,4.14-.38l.14,1.21c-1.33,.24-2.76,.36-4.28,.36-3.71,0-5.56-.93-5.56-2.79,0-.74,.42-1.52,1.27-2.32,.85-.8,2.04-1.53,3.57-2.18-.13-.59-.32-1-.57-1.22-.25-.23-.56-.34-.95-.34-.59,0-1.34,.34-2.27,1.01-.92,.67-1.84,1.6-2.75,2.79l-1.06-.65c1.5-1.97,2.65-3.86,3.46-5.69-1.22,.04-2.48,.05-3.78,.05v-1.17c1.48,0,2.9-.02,4.27-.05,.29-.76,.56-1.62,.83-2.59Z"/><path class="k" d="M259.3,268.59h7.51v-2.75h-6.62v-1.19h6.62v-2.59c-1.9,.18-3.89,.27-5.98,.27l-.05-1.21c4.81,0,9.09-.49,12.83-1.46l.31,1.19c-1.7,.44-3.61,.8-5.71,1.06v2.74h6.08v1.19h-6.08v2.75h6.97v1.21h-6.97v2.92c0,.43-.02,.83-.07,1.19-.04,.25-.13,.47-.29,.65-.17,.18-.37,.29-.61,.32-.34,.05-.71,.07-1.12,.07-.56,0-1.55-.03-2.97-.09l-.05-1.21c1.32,.06,2.23,.09,2.74,.09,.44,0,.72-.05,.83-.16,.1-.1,.14-.38,.14-.86v-2.92h-7.51v-1.21Z"/><path class="k" d="M278.26,270.32h-1.17v-6.75h2.84v-1.48h-3.29v-1.12h3.29v-1.67h1.37v1.67h3.04v1.12h-3.04v1.48h2.72v6.75h-2.72v1.53h3.11v1.12h-3.11v2.32h-1.37v-2.32h-3.29v-1.12h3.29v-1.53h-1.67Zm0-3.94h1.67v-1.75h-1.67v1.75Zm0,2.9h1.67v-1.89h-1.67v1.89Zm3.04-2.9h1.6v-1.75h-1.6v1.75Zm0,1.01v1.89h1.6v-1.89h-1.6Zm8.05,6.08h3.56v1.19h-9v-1.19h4.09v-3.17h-3.24v-1.12h3.24v-2.07h1.35v2.07h3.24v1.12h-3.24v3.17Zm-4.01-11.48l1.06-.63c.65,1.04,1.47,2.01,2.47,2.9,.89-.84,1.61-1.87,2.16-3.08h-6.19v-1.17h7.52v1.17c-.64,1.51-1.49,2.8-2.57,3.85,.96,.73,2.03,1.36,3.22,1.89l-.56,1.08c-1.32-.56-2.53-1.28-3.64-2.14-1.07,.82-2.39,1.53-3.98,2.14l-.43-1.1c1.37-.5,2.53-1.12,3.49-1.84-1-.9-1.85-1.93-2.56-3.08Z"/><path class="k" d="M297.47,260.47c-.59,2.17-.88,4.46-.88,6.88s.29,4.71,.88,6.88l-1.37,.18c-.6-2.29-.9-4.64-.9-7.06s.3-4.76,.9-7.06l1.37,.18Zm11.18,12.51c-1.48,.36-2.85,.54-4.12,.54-1.46,0-2.64-.27-3.53-.81-.89-.54-1.33-1.26-1.33-2.16,0-.54,.23-1.15,.7-1.84,.47-.68,1.1-1.33,1.91-1.94l.92,.88c-1.39,1.12-2.09,2.08-2.09,2.88,0,.49,.3,.9,.9,1.22,.6,.32,1.44,.49,2.52,.49,1.15,0,2.45-.17,3.91-.5l.22,1.24Zm-8.01-10.49c2.45,0,4.96-.18,7.54-.54l.09,1.26c-2.69,.36-5.23,.54-7.63,.54v-1.26Z"/></g><g><path class="k" d="M393.13,232.69v-2.55h17.51v2.55c-1.44,3.27-4.19,6.07-8.25,8.4,.73,1.06,1.6,2.38,2.6,3.96l-2.33,1.47c-2.02-3.23-4.16-6.18-6.4-8.87l2.2-1.67c.89,1.06,1.65,2,2.27,2.84,3.3-1.98,5.51-4.03,6.62-6.14h-14.21Z"/><path class="k" d="M411.88,237.69c2.98-.65,5.81-1.7,8.49-3.17s5.01-3.23,6.97-5.3l2.07,1.96c-1.7,1.82-3.78,3.47-6.23,4.95v10.36h-3.01v-8.76c-2.57,1.22-5.13,2.08-7.68,2.6l-.62-2.64Z"/><path class="k" d="M432.33,246.55l-.53-2.55c3.77-.41,6.57-1.43,8.4-3.06s2.93-4.03,3.3-7.22h-6.86c-.88,1.98-2.3,3.93-4.27,5.85l-1.94-1.72c2.61-2.7,4.17-5.74,4.66-9.13l2.79,.15c-.1,.97-.23,1.75-.4,2.35h8.98v2.49c-.45,3.96-1.79,6.95-3.99,8.96s-5.59,3.3-10.15,3.86Z"/><path class="k" d="M453.78,246.77l-.92-2.38c2.46-.76,4.21-1.86,5.22-3.3,1.02-1.44,1.54-3.55,1.55-6.34h-5.5c-.66,1.47-1.64,2.99-2.93,4.58l-2.16-1.47c1.11-1.39,1.98-2.81,2.58-4.25,.61-1.44,1.04-3.07,1.29-4.88l2.73,.15c-.15,1.29-.34,2.39-.59,3.3h12.78v2.57h-5.28c-.01,3.34-.72,5.97-2.12,7.89s-3.62,3.29-6.65,4.12Zm12.54-16.19l-2.07,.99c-.47-.97-1.03-2.03-1.67-3.19l2.07-1.03c.6,1.13,1.16,2.21,1.67,3.23Zm3.39-.26l-2.11,1.01c-.79-1.53-1.36-2.61-1.72-3.26l2.11-1.06c.67,1.23,1.25,2.33,1.72,3.3Z"/><path class="k" d="M469.39,237.69c2.98-.65,5.81-1.7,8.49-3.17s5.01-3.23,6.97-5.3l2.07,1.96c-1.7,1.82-3.78,3.47-6.23,4.95v10.36h-3.01v-8.76c-2.57,1.22-5.13,2.08-7.68,2.6l-.62-2.64Z"/><path class="k" d="M490.13,231.94l1.5-2.31c2.16,1.23,4.22,2.55,6.2,3.96l-1.58,2.31c-2.02-1.44-4.06-2.76-6.12-3.96Zm.4,11.46c4.02-.4,7.14-1.52,9.37-3.37,2.23-1.85,3.78-4.59,4.64-8.23l2.71,.75c-.88,4.15-2.67,7.34-5.36,9.58-2.69,2.24-6.35,3.56-10.99,3.97l-.37-2.71Z"/><path class="k" d="M370.62,269.04l-.59-1.22c1.67-1.19,2.97-2.45,3.91-3.8,.48-.68,.89-1.39,1.22-2.12h-4.64v-1.15h5.13c.23-.58,.43-1.16,.59-1.75l1.42,.14c-.19,.64-.37,1.17-.52,1.6h9v1.15h-9.47c-.29,.65-.65,1.33-1.1,2.05h9.29v9c0,.44-.02,.79-.05,1.03-.04,.23-.14,.42-.32,.58-.18,.16-.39,.25-.63,.29-.25,.04-.64,.05-1.15,.05-.29,0-1.14-.03-2.56-.09l-.02-1.15c1.34,.06,2.14,.09,2.38,.09,.49,0,.77-.02,.83-.07,.07-.06,.11-.22,.11-.47v-1.73h-8.46v3.47h-1.42v-8.41c-.84,.88-1.82,1.71-2.93,2.5Zm4.36-1.85h8.46v-2.12h-8.46v2.12Zm0,1.04v2.18h8.46v-2.18h-8.46Z"/><path class="k" d="M389.64,259.71l1.35,.02c-.13,1.8-.22,3.48-.27,5.04h.04c.53-1.27,1.22-2.24,2.08-2.91,.86-.67,1.8-1,2.83-1,1.36,0,2.41,.49,3.18,1.46s1.14,2.39,1.14,4.25c0,2.51-.71,4.42-2.14,5.72-1.43,1.31-3.63,2.06-6.61,2.25l-.11-1.26c2.59-.19,4.48-.83,5.67-1.9,1.19-1.07,1.78-2.68,1.78-4.81,0-1.46-.26-2.56-.79-3.29-.53-.73-1.28-1.1-2.25-1.1-1.19,0-2.27,.67-3.25,2.01-.98,1.34-1.53,3.08-1.67,5.23l-1.31,.04c0-3.38,.11-6.63,.32-9.74Z"/><path class="k" d="M419,263.96l-.49,1.08c-1.15-.54-2.05-.99-2.68-1.35v1.01h-4.18v2.25h6.53v1.15h-6.53v4.61c0,.43,0,.72-.02,.86-.02,.23-.06,.43-.11,.61-.06,.19-.13,.32-.2,.4-.07,.07-.2,.14-.38,.22-.16,.06-.35,.1-.58,.13-.13,.01-.4,.02-.81,.02-.26,0-1.03-.03-2.29-.09l-.05-1.21c1.22,.06,1.96,.09,2.2,.09,.42,0,.67-.04,.74-.13,.08-.11,.13-.41,.13-.9v-4.61h-6.86v-1.15h6.86v-2.25h-4.5v-1.01c-.64,.36-1.53,.81-2.68,1.35l-.49-1.08c2.68-1.28,5.12-2.79,7.34-4.52h1.69c2.22,1.73,4.67,3.23,7.34,4.52Zm-16.02,9.36c1.79-1.28,3.13-2.77,4.01-4.46l1.1,.61c-.94,1.88-2.38,3.52-4.32,4.9l-.79-1.04Zm12.67-9.74c-1.8-1.01-3.41-2.08-4.84-3.22-1.43,1.14-3.04,2.21-4.84,3.22h9.68Zm-2.11,6.08l.94-.85c1.58,1.5,2.99,3.11,4.21,4.84l-1.04,.77c-1.15-1.66-2.52-3.25-4.1-4.77Z"/><path class="k" d="M422.73,260.92c3.01,0,6.12-.14,9.32-.41l.23,1.48c-1.04,.83-3.13,2.3-6.25,4.43l.02,.04c1.12-.32,2.14-.49,3.06-.49,1.57,0,2.75,.37,3.54,1.11,.79,.74,1.18,1.69,1.18,2.85,0,1.39-.59,2.51-1.78,3.36s-2.81,1.27-4.86,1.27c-1.34,0-2.38-.24-3.12-.71-.74-.47-1.11-1.12-1.11-1.95,0-.64,.31-1.18,.92-1.64s1.42-.68,2.41-.68,1.78,.22,2.34,.65c.56,.43,.85,1.02,.85,1.76,0,.41-.07,.82-.2,1.22,1.02-.23,1.8-.62,2.35-1.18,.55-.56,.82-1.23,.82-2.03,0-1.94-1.35-2.92-4.05-2.92-1,0-2.03,.19-3.1,.56-1.07,.37-2.41,1.02-4,1.94l-.61-1.1c3.72-2.29,7-4.52,9.83-6.7l-.02-.04c-2.81,.29-5.39,.43-7.76,.43v-1.26Zm5.2,12.47c.17-.46,.25-.89,.25-1.31,0-.96-.63-1.44-1.89-1.44-.62,0-1.12,.12-1.48,.36-.37,.24-.55,.53-.55,.88,0,1.02,1,1.53,3.01,1.53,.3,0,.52,0,.67-.02Z"/><path class="k" d="M439.29,273.23c2.17-.77,3.69-1.82,4.55-3.14,.86-1.33,1.3-3.3,1.31-5.93h-5.38c-.54,1.37-1.4,2.74-2.57,4.1l-1.01-.72c.97-1.15,1.71-2.32,2.22-3.5,.51-1.18,.85-2.54,1.04-4.06l1.31,.09c-.1,.95-.28,1.9-.56,2.86h11.29v1.22h-4.95c-.01,2.88-.54,5.1-1.58,6.67s-2.78,2.75-5.22,3.55l-.45-1.15Zm8.14-13.86l.97-.52c.58,.94,1.09,1.83,1.53,2.68l-1.01,.5c-.5-.97-1-1.86-1.49-2.66Zm2.43-.29l1.01-.54c.48,.8,1,1.72,1.55,2.75l-1.03,.5c-.6-1.14-1.11-2.04-1.53-2.72Z"/><path class="k" d="M452.38,267.8c2.46-.55,4.81-1.48,7.04-2.77s4.13-2.84,5.71-4.63l.99,.9c-1.44,1.63-3.15,3.08-5.13,4.34v8.64h-1.4v-7.81c-2.22,1.22-4.52,2.09-6.91,2.59l-.29-1.26Z"/><path class="k" d="M469.24,262.02l.74-1.1c1.64,.97,3.25,2.05,4.82,3.24l-.77,1.1c-1.57-1.18-3.17-2.26-4.79-3.24Zm.2,10.55c3.28-.3,5.92-1.3,7.93-3,2.01-1.7,3.32-4.02,3.93-6.98l1.3,.32c-.64,3.22-2.06,5.77-4.28,7.65-2.22,1.88-5.12,2.98-8.69,3.29l-.18-1.3Z"/><path class="k" d="M486.22,274.31v-13.77h1.44v12.38c1.96-.22,3.75-.89,5.38-2.03,1.63-1.14,2.86-2.58,3.67-4.32l1.17,.58c-.85,1.91-2.18,3.5-3.98,4.76-1.8,1.27-3.88,2.07-6.25,2.4h-1.44Z"/><path class="k" d="M499.07,262.02l.74-1.1c1.64,.97,3.25,2.05,4.82,3.24l-.77,1.1c-1.57-1.18-3.17-2.26-4.79-3.24Zm.2,10.55c3.28-.3,5.92-1.3,7.93-3,2.01-1.7,3.32-4.02,3.93-6.98l1.3,.32c-.64,3.22-2.06,5.77-4.28,7.65s-5.12,2.98-8.69,3.29l-.18-1.3Z"/><path class="k" d="M514.62,265.83l.43-1.13c1.91,.64,3.59,1.26,5.04,1.87l-.47,1.13c-1.48-.61-3.14-1.24-5-1.87Zm.83,7.24c3.5-.43,6.19-1.43,8.05-2.99,1.86-1.56,3.14-3.88,3.83-6.97l1.24,.32c-.71,3.36-2.09,5.9-4.13,7.62-2.05,1.72-4.97,2.8-8.78,3.25l-.22-1.24Zm.7-11.21l.43-1.17c1.72,.58,3.41,1.21,5.08,1.89l-.47,1.17c-1.69-.7-3.37-1.33-5.04-1.89Zm8.75-2.3l.99-.52c.49,.8,1,1.7,1.51,2.68l-.99,.5c-.43-.83-.94-1.72-1.51-2.66Zm2.43-.29l1.01-.54c.48,.8,1,1.72,1.55,2.75l-1.01,.5c-.53-1-1.04-1.9-1.55-2.72Z"/></g><g><path class="k" d="M699.12,243.78c3.67-1.01,6.45-2.65,8.36-4.91,1.91-2.26,3.11-5.4,3.61-9.42l3.08,.31c-.59,4.69-2,8.36-4.22,10.99-2.23,2.63-5.51,4.54-9.83,5.73l-.99-2.71Z"/><path class="k" d="M716.92,237.69c2.98-.65,5.81-1.7,8.49-3.17,2.68-1.47,5.01-3.23,6.97-5.3l2.07,1.96c-1.7,1.82-3.78,3.47-6.23,4.95v10.36h-3.01v-8.76c-2.57,1.22-5.13,2.08-7.68,2.6l-.62-2.64Z"/><path class="k" d="M738.17,232.85v-2.57h11.79c-.24-.46-.55-1.05-.95-1.78l2.07-1.03c.6,1.13,1.16,2.21,1.67,3.23l-1.17,.55v1.61c-.84,2.13-2.08,4.16-3.72,6.09,2.05,1.89,4.02,3.77,5.9,5.63l-1.96,1.96c-1.26-1.28-3.21-3.15-5.85-5.61-2.6,2.45-5.52,4.28-8.78,5.48l-1.17-2.4c2.82-1.08,5.36-2.67,7.63-4.75,2.27-2.08,3.84-4.22,4.71-6.4h-10.19Zm17.97-2.42l-2.11,1.01c-.79-1.53-1.36-2.61-1.72-3.26l2.11-1.06c.67,1.23,1.25,2.33,1.72,3.3Z"/><path class="k" d="M757.51,236.23l1.91-1.87c1.16,1.19,2.16,2.28,3.01,3.28,.25-1.17,.41-2.62,.48-4.33h-5.48v-2.44h3.37v-2.95h2.88v2.95h3.48v.68h5.68v-3.48h2.86v3.48h1.65v2.44h-1.65v9.99c0,.72,0,1.19-.02,1.41-.03,.4-.09,.71-.18,.95-.12,.31-.24,.52-.35,.64-.15,.15-.37,.26-.66,.35-.35,.1-.67,.16-.97,.18-.23,.01-.7,.02-1.41,.02-.59,0-1.7-.04-3.34-.11l-.13-2.44c1.5,.07,2.49,.11,2.97,.11,.6,0,.96-.04,1.08-.13,.1-.09,.15-.38,.15-.88v-10.08h-5.94v-.68h-1.17c-.09,2.74-.48,5.07-1.19,6.97,.91,1.19,1.88,2.54,2.9,4.05l-2.11,1.67c-.85-1.28-1.56-2.29-2.13-3.06-1.07,1.63-2.55,3.11-4.44,4.44l-1.54-2.38c1.44-1.04,2.55-2.09,3.34-3.15,.28-.35,.55-.78,.81-1.3-1.25-1.57-2.54-3.01-3.87-4.33Zm9.02-.07l2.44-1.1c.98,1.98,1.9,4.12,2.75,6.42l-2.46,.9c-.73-2.04-1.64-4.11-2.73-6.23Z"/><path class="k" d="M798.91,236.3h-8.29v.92h6.71v2.35c0,.67,0,1.12-.02,1.34-.03,.43-.07,.73-.11,.92-.06,.22-.15,.43-.26,.62-.09,.13-.23,.24-.44,.33-.22,.1-.43,.16-.62,.18-.15,.01-.45,.02-.9,.02-.16,0-.62-.01-1.39-.04,1.66,.82,3.59,1.54,5.79,2.16l-1.1,2.33c-3.18-1.16-5.73-2.42-7.66-3.78v4.07h-2.95v-4.07c-1.92,1.36-4.47,2.62-7.66,3.78l-1.1-2.33c3.93-1.13,6.85-2.47,8.76-4.03v-1.72h-3.98v3.56h-2.73v-5.7h6.71v-.92h-8.29v-2.2h5.28c-.32-.92-.65-1.8-.99-2.62h-.57c-.67,.91-1.44,1.73-2.31,2.46l-1.83-1.76c.79-.69,1.44-1.39,1.96-2.11,.56-.76,1-1.53,1.34-2.31l2.57,.48c-.09,.28-.22,.6-.4,.97h5.1v1.28c.88-.91,1.53-1.83,1.96-2.75l2.55,.51c-.06,.16-.2,.48-.42,.97h5.28v2.27h-3.41c.29,.72,.55,1.39,.77,2l-2.11,.62h4.75v2.2Zm-9.39-3.45l-1.08-1.36h-1.94c.22,.56,.47,1.22,.75,2l-2.11,.62h2.53v-1.25h1.85Zm4.16,1.25c-.32-.92-.65-1.8-.99-2.62h-.59c-.53,.6-1.02,1.09-1.47,1.47v1.14h3.06Zm-3.06,6.97c.47,.38,1.11,.81,1.94,1.3l-.18-1.54c1.03,.07,1.6,.11,1.72,.11,.25,0,.4-.04,.44-.11s.07-.29,.07-.66v-.81h-3.98v1.72Z"/><path class="k" d="M805.52,229.41c-.73,2.7-1.1,5.53-1.1,8.49s.37,5.79,1.1,8.49l-2.93,.33c-.73-2.8-1.1-5.74-1.1-8.82s.37-6.02,1.1-8.82l2.93,.33Zm12.94,15.69c-1.75,.44-3.46,.66-5.15,.66-1.94,0-3.45-.37-4.53-1.1-1.09-.73-1.63-1.76-1.63-3.08,0-.7,.26-1.49,.79-2.34,.53-.86,1.25-1.64,2.16-2.34l2,1.65c-1.35,1.2-2.02,2.19-2.02,2.95,0,1.03,1.08,1.54,3.23,1.54,1.45,0,3.04-.19,4.75-.57l.4,2.64Zm-10.08-13.57c2.95,0,6.1-.22,9.46-.66l.15,2.64c-3.43,.44-6.64,.66-9.61,.66v-2.64Z"/><path class="k" d="M825.95,241.32c-.84-.65-1.66-1.24-2.46-1.78-.51,.65-1.03,1.22-1.56,1.74l-1.47-2c1.25-1.32,2.29-2.85,3.12-4.58,.57-1.17,1.02-2.36,1.34-3.56h-3.89v-2.38h19.1v2.38h-5.74v5.68c1.51-.7,3.04-1.58,4.6-2.62l1.25,2.24c-1.97,1.29-3.92,2.35-5.85,3.17v4.53c0,.37,.03,.58,.09,.64,.09,.09,.26,.14,.51,.15,.41,.03,.72,.04,.92,.04,.22,0,.55-.01,.99-.04,.38-.04,.62-.23,.7-.55,.1-.37,.18-1.44,.24-3.23l2.51,.22c-.04,1.03-.09,1.8-.13,2.33-.06,.7-.12,1.22-.18,1.56-.09,.48-.18,.84-.26,1.06-.09,.22-.23,.4-.44,.55-.23,.16-.45,.26-.66,.31-.28,.06-.58,.1-.9,.11-.57,.06-1.22,.09-1.96,.09-.63,0-1.28-.02-1.94-.07-1.08-.07-1.75-.23-1.98-.46-.26-.26-.4-.89-.4-1.89v-13.82h-3.96c-.18,.81-.43,1.66-.77,2.55h3.87v2.16c-.26,2.67-1.1,5.02-2.51,7.04-1.39,2-3.26,3.55-5.59,4.66l-1.69-2.05c2.17-1.03,3.87-2.42,5.1-4.18Zm1.21-2.18c.43-1.01,.73-2.11,.92-3.3h-2.27s-.01,.06-.04,.1c-.03,.04-.04,.06-.04,.08-.09,.19-.37,.69-.86,1.5,.78,.51,1.54,1.06,2.29,1.63Z"/><path class="k" d="M860.77,232.52v11.57c0,.69,0,1.15-.02,1.39-.02,.34-.07,.66-.18,.97-.1,.32-.21,.54-.31,.64-.13,.13-.34,.24-.62,.33-.32,.1-.62,.16-.88,.18-.21,.01-.64,.02-1.3,.02s-1.62-.03-2.79-.09l-.15-2.31c1.39,.07,2.21,.11,2.44,.11,.48,0,.78-.05,.88-.15,.09-.09,.13-.37,.13-.86v-1.36h-11.57c-.06,.23-.1,.4-.13,.51-.4,1.61-1.05,3.05-1.96,4.31l-2.35-1.87c.81-1.17,1.36-2.45,1.67-3.83,.32-1.42,.48-3.36,.48-5.81v-.02c-.53,.44-.92,.76-1.19,.97l-.95-2.75c1.16-.97,2.23-2.09,3.21-3.37,.97-1.26,1.71-2.5,2.22-3.72l2.79,.37c-.1,.35-.24,.7-.4,1.06h6.93v2.18c-.4,.47-.88,.98-1.45,1.54h5.48Zm-9.94,6.27h-3.94c-.01,.51-.07,1.17-.15,1.98h4.09v-1.98Zm0-2.09v-1.91h-3.92v1.91h3.92Zm.9-4.18c.12-.1,.29-.25,.51-.45,.22-.2,.39-.35,.51-.45,.32-.29,.56-.51,.7-.64h-4.8c-.28,.47-.63,.98-1.06,1.54h4.14Zm1.83,4.18h4.42v-1.91h-4.42v1.91Zm0,2.09v1.98h4.42v-1.98h-4.42Z"/><path class="k" d="M867.81,228.14l2.71,.33c-.35,1.64-.55,2.57-.59,2.79,.98-.1,2.08-.23,3.3-.4l.18,2.49c-1.47,.21-2.84,.36-4.11,.46-.87,3.31-2.05,6.81-3.54,10.49l-2.62-.79c1.39-3.46,2.49-6.64,3.3-9.55-1.14,.03-2.02,.04-2.64,.04v-2.49c1.13,0,2.23-.02,3.3-.07,.25-1.01,.49-2.12,.73-3.32Zm9.92,12.19c1.22,.73,2.67,1.84,4.36,3.32l-1.72,2.02c-.89-.82-1.78-1.57-2.66-2.24-.16,1.23-.61,2.12-1.33,2.67-.73,.55-1.8,.82-3.22,.82-1.53,0-2.72-.36-3.6-1.08-.87-.72-1.31-1.7-1.31-2.95s.43-2.16,1.3-2.88,2.07-1.08,3.61-1.08c.63,0,1.2,.06,1.72,.18-.06-1.72-.03-3.05,.09-4l2.82,.02c-.12,.92-.13,2.52-.04,4.77v.42Zm-2.79,1.43c-.65-.26-1.28-.4-1.91-.4s-1.07,.14-1.41,.43c-.34,.29-.51,.66-.51,1.11,0,.51,.17,.91,.51,1.19,.34,.28,.81,.42,1.41,.42,.76,0,1.28-.15,1.54-.46,.26-.31,.4-.94,.4-1.89,0-.03,0-.09-.01-.18,0-.09-.01-.16-.01-.22Zm.33-8.69l.84-2.49c2.26,.57,4.44,1.28,6.56,2.13l-.95,2.46c-2.01-.82-4.16-1.52-6.45-2.11Z"/><path class="k" d="M886.27,228.89h3.01c0,.84-.05,2.69-.15,5.57-.1,2.88-.15,4.69-.15,5.43,0,1.54,.26,2.66,.78,3.36s1.32,1.04,2.39,1.04c1.28,0,2.47-.5,3.57-1.51s2.15-2.64,3.14-4.9l2.6,1.14c-2.16,5.31-5.26,7.96-9.31,7.96-2.05,0-3.59-.54-4.62-1.62-1.03-1.08-1.54-2.91-1.54-5.49,0-1.08,.04-2.86,.13-5.32,.1-2.9,.15-4.8,.15-5.68Z"/><path class="k" d="M710.3,274.56c.77-2.2,1.22-4.7,1.37-7.51l1.24,.09c-.06,1.02-.15,2.01-.27,2.97,.23,.5,.41,.85,.54,1.04,.28,.42,.61,.8,1.01,1.13v-6.5h-3.67v-1.17h3.51v-2.54h-3.04v-1.15h3.04v-1.82h1.35v1.82h2.65v1.15h-2.65v2.54h2.83v1.17h-2.65v2.7h2.56v1.15h-2.56v3.4l.22,.05c.67,.2,1.37,.34,2.09,.4,.79,.07,1.78,.11,2.95,.11h5.38l-.05,1.19h-5.33c-1.19,0-2.23-.05-3.13-.14-.84-.1-1.6-.24-2.27-.43-.67-.21-1.24-.49-1.71-.86-.44-.36-.85-.8-1.21-1.33-.01-.02-.03-.06-.06-.11-.03-.05-.06-.08-.08-.11-.19,1.01-.48,2.09-.86,3.24l-1.19-.49Zm8.15-9.34c.78-.34,1.42-.91,1.93-1.71,.4-.64,.65-1.36,.76-2.18h-2.74v-1.15h7.7c0,1.63-.05,2.78-.14,3.46-.11,.78-.28,1.31-.5,1.58-.24,.29-.6,.43-1.08,.43s-1.22-.03-2.21-.09l-.07-1.1c.82,.06,1.42,.09,1.8,.09,.22,0,.39-.08,.52-.23,.12-.13,.22-.44,.29-.92,.05-.34,.08-1.03,.11-2.07h-2.45c-.11,1.09-.42,2.05-.94,2.86-.62,.96-1.42,1.64-2.39,2.03l-.58-1.01Zm1.53,6.86h-1.26v-5.49h6.97v5.49h-5.71Zm0-1.12h4.39v-3.29h-4.39v3.29Z"/><path class="k" d="M730.97,264.36v10.82h-1.31v-8.73c-.1,.17-.17,.3-.22,.4-.46,.78-.89,1.42-1.31,1.93l-.72-1.22c1.78-2.27,3.02-5.02,3.73-8.24l1.31,.2c-.36,1.79-.85,3.41-1.48,4.86Zm1.6,10.12v-1.19h8.69c-.22-.17-.45-.4-.7-.68-.38-.44-.72-1-1.01-1.66-.3-.7-.57-1.52-.81-2.47-.17-.66-.32-1.48-.45-2.45h-3.91v4.57c1.32-.3,2.65-.68,3.98-1.13l.18,1.21c-2.16,.72-4.4,1.27-6.73,1.64l-.13-1.17c.3-.05,.75-.13,1.35-.25v-10.28c3.56,0,6.75-.38,9.56-1.13l.32,1.17c-1.16,.31-2.37,.56-3.62,.74,.02,1.19,.1,2.32,.22,3.4v.04l.02,.04h3.96v1.17h-3.8c.14,.89,.28,1.58,.4,2.07,.24,.92,.5,1.7,.77,2.34s.56,1.13,.85,1.48c.26,.32,.52,.49,.77,.49,.34,0,.61-1.02,.83-3.06l1.15,.34c-.28,2.76-.86,4.14-1.75,4.14-.36,0-.71-.09-1.04-.27v.92h-9.11Zm5.6-9.61c-.11-1.19-.17-2.29-.18-3.31-1.15,.12-2.35,.19-3.6,.22v3.1h3.78Z"/><path class="k" d="M746.01,266.41l-.54-1.08c3.47-1.28,6.11-2.68,7.94-4.18h-7.45v-1.15h15.05v1.15h-5.85c-.2,.19-.53,.48-.99,.86v4.48h-1.37v-3.47c-1.88,1.28-4.15,2.41-6.79,3.38Zm8.23,7.04h7v1.13h-15.52v-1.13h2.88v-4.16h1.39v4.16h2.84v-5.13h-6.59v-1.13h14.47v1.12h-6.48v1.94h5.6v1.08h-5.6v2.12Zm1.06-11.41c2.22,.97,4.29,2.07,6.21,3.29l-.56,1.08c-2-1.26-4.08-2.38-6.23-3.35l.58-1.03Z"/><path class="k" d="M764.02,260.87c2.53-.1,4.68-.22,6.44-.36l.11,1.17c-.28,1.69-.55,3.24-.81,4.64,1.46,.02,2.89,.22,4.27,.59,.13-1.38,.2-2.99,.2-4.84h1.31c0,2.12-.08,3.87-.23,5.24,1.07,.37,2.07,.83,3.01,1.37l-.59,1.12c-.92-.53-1.79-.94-2.59-1.22-.3,1.69-.78,2.98-1.43,3.85s-1.6,1.64-2.83,2.29l-.68-1.03c1.09-.61,1.92-1.31,2.47-2.09,.56-.78,.96-1.93,1.21-3.44-1.46-.42-2.9-.63-4.32-.63h-.04c-.38,1.76-.78,3.12-1.2,4.07-.41,.95-.82,1.57-1.22,1.85-.4,.29-.9,.43-1.49,.43-.7,0-1.35-.38-1.97-1.15-.62-.77-.93-1.62-.93-2.56s.5-1.77,1.51-2.49c1.01-.73,2.39-1.16,4.14-1.3,.26-1.31,.53-2.83,.81-4.57-.96,.08-2.68,.18-5.15,.29v-1.22Zm4.09,6.73c-1.27,.14-2.28,.46-3.01,.95-.74,.49-1.11,1.03-1.11,1.62s.19,1.17,.56,1.67c.37,.5,.74,.76,1.1,.76,.43,0,.84-.35,1.23-1.06,.39-.71,.8-2.02,1.23-3.94Z"/><path class="k" d="M790.03,272.17c-1.24,1.22-2.77,1.84-4.61,1.84-1.46,0-2.58-.28-3.34-.85-.76-.56-1.14-1.36-1.14-2.39,0-.65,.27-1.29,.8-1.93,.53-.64,1.45-1.36,2.75-2.16l-.25-.25c-.78-.78-1.31-1.4-1.6-1.87-.29-.47-.43-.94-.43-1.4,0-.8,.32-1.45,.97-1.93,.65-.48,1.55-.72,2.7-.72s2.08,.23,2.73,.68c.64,.46,.96,1.09,.96,1.89,0,.66-.22,1.27-.67,1.83s-1.26,1.2-2.44,1.93l3.46,3.46c.49-.83,.83-1.85,1.03-3.08l1.39,.02c-.26,1.58-.76,2.92-1.49,4l2.59,2.59h-1.73l-1.66-1.66Zm-4.7-4.64c-1.07,.66-1.83,1.24-2.28,1.74-.45,.5-.67,.98-.67,1.45,0,.67,.27,1.2,.8,1.58s1.3,.57,2.29,.57c1.49,0,2.71-.52,3.67-1.55l-3.82-3.78Zm.54-5.89c-.7,0-1.24,.14-1.65,.42s-.6,.64-.6,1.09c0,.36,.11,.71,.33,1.04,.22,.33,.77,.93,1.65,1.81,1.07-.68,1.77-1.21,2.11-1.59,.33-.38,.5-.79,.5-1.25s-.2-.82-.61-1.1c-.41-.28-.98-.41-1.73-.41Z"/><path class="k" d="M796.29,272.91c5.96-1.67,9.35-5.78,10.15-12.35l1.44,.14c-.88,7.16-4.58,11.66-11.12,13.48l-.47-1.28Z"/><path class="k" d="M810.38,267.8c2.46-.55,4.81-1.48,7.04-2.77,2.23-1.3,4.13-2.84,5.71-4.63l.99,.9c-1.44,1.63-3.15,3.08-5.13,4.34v8.64h-1.4v-7.81c-2.22,1.22-4.52,2.09-6.91,2.59l-.29-1.26Z"/><path class="k" d="M827.46,262.58v-1.22h10.44v1.22c-.7,1.84-1.79,3.62-3.28,5.36,1.9,1.84,3.7,3.64,5.4,5.42l-.95,.92c-2.04-2.12-3.81-3.91-5.31-5.36-2.22,2.33-4.66,4.04-7.31,5.15l-.54-1.15c2.29-.97,4.41-2.43,6.36-4.38s3.31-3.93,4.09-5.95h-8.91Zm9.76-3.2l.99-.52c.49,.8,1,1.7,1.51,2.68l-.99,.5c-.43-.83-.94-1.72-1.51-2.66Zm2.43-.29l1.01-.54c.48,.8,1,1.72,1.55,2.75l-1.01,.5c-.53-1-1.04-1.9-1.55-2.72Z"/><path class="k" d="M844.37,262.4v-1.22h12.65v1.22c-.24,3.19-1.25,5.73-3.04,7.61-1.79,1.88-4.39,3.16-7.81,3.82l-.32-1.22c3.08-.62,5.44-1.78,7.06-3.47,1.62-1.69,2.53-3.94,2.74-6.73h-11.27Z"/><path class="k" d="M861.1,268.01v-7.38h1.37v7.38h-1.37Zm8.3-7.38h1.42v5.42c0,2.65-.61,4.63-1.83,5.93s-3.27,2.14-6.15,2.51l-.23-1.22c2.58-.38,4.36-1.1,5.33-2.14s1.46-2.74,1.46-5.08v-5.42Z"/><path class="k" d="M874.53,268.03v-1.37h14.15v1.37h-14.15Z"/></g></g><g id="b"><circle id="c" class="j" cx="800" cy="100" r="100"/><circle id="d" class="j" cx="100" cy="100" r="100"/><circle id="e" class="j" cx="450" cy="100" r="100"/><path id="f" class="i" d="M715.15,48.72c16.84,22.3,11.42,100.38,29.66,101.38s19.16-101.38,36.94-101.38,17.19,101.38,34.21,101.38,17.05-101.38,33.87-101.38,12.31,71.7,33.2,101.38"/><path id="g" class="k" d="M751.01,122.95h29.25v-6.04h-22.89v-14.82h21.18v-6.04h-21.18v-14.05h22.89v-6.04h-29.25v46.99Zm40-46.99v46.99h6.36v-46.99h-6.36Zm50.94,0v33.51l-28.62-33.51h-2.86v46.99h6.3v-33.33l28.17,33.33h3.31v-46.99h-6.3Z"/><g><path class="k" d="M412,92.12c-2.71-.01-5.4,.58-7.85,1.74l1.53-12.51h20.08v-7.22h-26.19l-2.85,25.64,5,3.33c2.4-2.48,5.72-3.86,9.17-3.82,5.98,0,10.28,4.17,10.28,9.73s-4.31,9.94-10.77,9.94c-4.7-.23-9.21-1.95-12.85-4.93l-3.54,6.25c4.72,3.84,10.59,5.97,16.68,6.04,11.05,0,18.55-7.36,18.55-17.37s-7.57-16.81-17.23-16.81Z"/><path class="k" d="M461.68,98.37v-.21c4.86-2.22,7.85-6.46,7.85-11.39,0-7.78-6.59-13.55-16.4-13.55s-16.54,5.77-16.54,13.55c0,4.93,2.99,9.1,7.78,11.39v.14c-5.78,1.89-9.75,7.2-9.93,13.27,0,8.48,7.57,14.73,18.69,14.73s18.55-6.25,18.55-14.73c-.17-6.09-4.2-11.39-10.01-13.2Zm-17.64-10.84c0-4.38,3.61-7.64,9.03-7.64s8.89,3.27,8.89,7.64-3.27,7.64-8.89,7.64-9.03-3.4-9.03-7.64Zm9.1,31.75c-6.39,0-10.77-3.68-10.77-8.75,0-4.79,4.1-8.48,10.7-8.48s10.7,3.68,10.7,8.48c0,5.07-4.38,8.75-10.63,8.75Z"/><path class="k" d="M506.44,114.84c-.56-.73-1.38-1.23-2.28-1.39,.8-.24,1.51-.71,2.04-1.37,.53-.69,.8-1.54,.77-2.4,.01-.78-.21-1.54-.62-2.19-.45-.67-1.09-1.2-1.84-1.51-.91-.38-1.9-.57-2.89-.54h-6.78v16.44h7.09c1,.02,1.98-.17,2.9-.57,.76-.33,1.41-.87,1.87-1.57,.44-.69,.66-1.5,.65-2.32,.01-.94-.31-1.86-.89-2.59Zm-8.31-6.74h3.01c.65-.04,1.29,.15,1.81,.54,.44,.39,.67,.95,.64,1.53,.03,.58-.2,1.14-.64,1.52-.52,.38-1.17,.57-1.81,.53h-3.01v-4.12Zm5.19,10.53c-.54,.41-1.2,.61-1.87,.57h-3.32v-4.43h3.25c.69-.04,1.37,.18,1.91,.6,.48,.42,.74,1.03,.71,1.66,.04,.61-.21,1.2-.67,1.6Z"/><path class="k" d="M488.26,110.65c-.48-.63-1.11-1.14-1.84-1.47-.76-.37-1.59-.56-2.43-.55-1.07-.01-2.12,.27-3.04,.82-.93,.57-1.67,1.38-2.16,2.36-.54,1.09-.81,2.29-.79,3.51-.02,1.23,.25,2.44,.79,3.54,.48,.98,1.23,1.81,2.16,2.39,.9,.56,1.95,.86,3.01,.85,.89,.02,1.77-.18,2.57-.59,.7-.36,1.29-.89,1.72-1.55v1.93h3.34v-17.43h-3.34v6.19Zm-.45,6.77c-.29,.55-.73,1.01-1.27,1.32-.52,.3-1.12,.46-1.72,.46-.59,0-1.18-.16-1.68-.47-.54-.33-.98-.8-1.27-1.35-.33-.63-.5-1.34-.48-2.06-.02-.71,.15-1.41,.48-2.04,.29-.54,.73-.99,1.26-1.31,.52-.3,1.1-.45,1.7-.45,.6,0,1.2,.16,1.72,.46,.54,.31,.98,.77,1.27,1.32,.33,.64,.49,1.35,.47,2.06,.02,.72-.14,1.42-.47,2.06Z"/></g><path class="h" d="M98.53,58.18h0c8.39,0,15.19,6.8,15.19,15.19v30.37c0,8.39-6.8,15.19-15.19,15.19h0c-8.39,0-15.19-6.8-15.19-15.19v-30.37c0-8.39,6.8-15.19,15.19-15.19Z"/><path class="k" d="M98.53,118.92c-8.37,0-15.19-6.81-15.19-15.19v-30.37c0-8.37,6.81-15.19,15.19-15.19s15.19,6.81,15.19,15.19v30.37c0,8.37-6.81,15.19-15.19,15.19Zm0-56.03c-5.78,0-10.48,4.7-10.48,10.48v30.37c0,5.78,4.7,10.48,10.48,10.48s10.48-4.7,10.48-10.48v-30.37c0-5.78-4.7-10.48-10.48-10.48Z"/><path class="k" d="M124.18,89.03c-1.27-.04-2.37,1.01-2.4,2.31-.03,1.33-.25,12.99-.25,13.47-.04,1.74-.29,3.48-.74,5.09-.44,1.42-1.01,2.81-1.71,4.18-.57,1.15-1.26,2.25-2.08,3.28-1.77,2.28-3.9,4.21-6.33,5.74-3.29,2.04-7.07,3.2-10.93,3.35h-.32c-.32,0-.62,0-.91,0-.34,0-.7,0-1.09,0h-.34c-3.85-.16-7.62-1.32-10.89-3.34-2.44-1.54-4.57-3.47-6.36-5.77-.8-1.01-1.5-2.1-2.08-3.29-.68-1.32-1.24-2.72-1.67-4.07-.47-1.68-.72-3.41-.76-5.11,0-.53-.22-12.19-.25-13.52-.03-1.3-1.09-2.34-2.4-2.31-1.3,.02-2.33,1.1-2.31,2.4,.1,5.17,.25,13.02,.25,13.48,.04,2.14,.35,4.27,.95,6.4,.52,1.68,1.19,3.33,1.98,4.85,.72,1.46,1.6,2.84,2.59,4.09,2.11,2.71,4.65,5.02,7.57,6.86,3.76,2.33,8.06,3.7,12.47,4v8.74h-9.79c-1.3,0-2.36,1.05-2.36,2.36s1.05,2.36,2.36,2.36h24.3c1.3,0,2.36-1.05,2.36-2.36s-1.05-2.36-2.36-2.36h-9.79v-8.76c4.34-.33,8.57-1.69,12.3-4,2.91-1.83,5.45-4.13,7.54-6.83,1.01-1.27,1.89-2.66,2.58-4.08,.8-1.57,1.47-3.21,2.02-4.96,.57-2.06,.89-4.19,.93-6.37,0-.42,.15-8.26,.25-13.43,.03-1.3-1.01-2.38-2.31-2.4Z"/><path class="l" d="M153.3,120.21c-.22,0-.44-.06-.64-.19-.55-.35-.7-1.08-.35-1.63,24.98-38.62-5.55-64.67-6.87-65.75-.5-.42-.57-1.16-.15-1.66,.42-.5,1.16-.57,1.66-.16,.34,.28,33.48,28.44,7.34,68.85-.23,.35-.6,.54-.99,.54Z"/><path class="l" d="M140.75,105.19c-.23,0-.46-.06-.66-.2-.54-.36-.68-1.1-.32-1.64,7.69-11.39,6.27-24.91-3.64-34.45-.47-.45-.48-1.2-.03-1.67,.45-.47,1.2-.48,1.67-.03,10.77,10.37,12.32,25.08,3.95,37.47-.23,.34-.6,.52-.98,.52Z"/><path class="l" d="M45.59,120.21c-.39,0-.76-.19-.99-.54-26.14-40.41,7-68.57,7.34-68.85,.5-.42,1.24-.35,1.66,.16,.42,.5,.35,1.24-.15,1.66-1.31,1.09-31.85,27.13-6.87,65.75,.35,.55,.2,1.28-.35,1.63-.2,.13-.42,.19-.64,.19Z"/><path class="l" d="M58.13,105.19c-.38,0-.75-.18-.98-.52-8.37-12.39-6.82-27.09,3.95-37.47,.47-.45,1.22-.44,1.67,.03,.45,.47,.44,1.22-.03,1.67-9.9,9.54-11.33,23.06-3.64,34.45,.36,.54,.22,1.27-.32,1.64-.2,.14-.43,.2-.66,.2Z"/></g></svg>