<?xml version="1.0" encoding="UTF-8"?><svg xmlns="http://www.w3.org/2000/svg" viewBox="0 0 1200 200"><defs><style>.i{fill:#f9fdfb;}.j{fill:#fafafa;}.k{fill:#dbf0e9;}.l{fill:#43b489;}</style></defs><g id="a"><g><circle class="k" cx="1100" cy="85" r="75"/><circle class="k" cx="850" cy="85" r="75"/><circle class="k" cx="600" cy="85" r="75"/><circle class="k" cx="350" cy="85" r="75"/><circle class="k" cx="100" cy="85" r="75"/></g></g><g id="b"><path class="l" d="M1150.89,72.06c-.06,0-.11-.02-.16-.02h-101.45c-.05,0-.1,.01-.16,.02-2.64,.09-4.75,2.24-4.75,4.89v14.73c0,2.37,1.68,4.35,3.92,4.81,.32,.07,.65,.1,.99,.1h101.45c.34,0,.67-.03,.99-.1,2.24-.46,3.92-2.44,3.92-4.81v-14.73c0-2.66-2.11-4.8-4.75-4.89Z"/><path class="i" d="M1100.82,76.95h-19.64c-1.36,0-2.45,1.1-2.45,2.45s1.1,2.45,2.45,2.45h19.64c1.36,0,2.45-1.1,2.45-2.45s-1.1-2.45-2.45-2.45Z"/><path class="i" d="M1073.82,79.41c0-1.36-1.1-2.45-2.45-2.45h-19.64c-1.36,0-2.45,1.1-2.45,2.45s1.1,2.45,2.45,2.45h19.64c1.36,0,2.45-1.1,2.45-2.45Z"/><path class="i" d="M1067.33,86.94c-.27-.11-.57-.17-.88-.17-.18,0-.36,.02-.53,.06-1.1,.24-1.93,1.22-1.93,2.4h0s0,.02,0,.03c.01,1.32,1.06,2.38,2.37,2.42,.03,0,.05,0,.08,0,.15,0,.3-.02,.44-.04,1.14-.21,2.01-1.21,2.01-2.41,0-1.04-.66-1.93-1.58-2.29Z"/><path class="i" d="M1090.13,88.73c-.19-.92-.89-1.64-1.79-1.87-.2-.05-.4-.09-.61-.09-.28,0-.55,.06-.8,.14-.96,.33-1.66,1.24-1.66,2.31,0,1.23,.91,2.24,2.09,2.42,.12,.02,.24,.04,.36,.04,.06,0,.11-.01,.16-.02,1.11-.07,2.02-.88,2.24-1.94,.03-.16,.05-.33,.05-.49s-.02-.33-.05-.49Z"/><path class="i" d="M1118.02,80.38c-.26-.1-.54-.16-.84-.16-.24,0-.47,.05-.69,.11-1.02,.3-1.76,1.23-1.76,2.34,0,1.36,1.1,2.45,2.45,2.45h0s.05,0,.08,0c1.32-.04,2.38-1.12,2.38-2.45,0-1.06-.68-1.95-1.62-2.3Z"/><path class="i" d="M1137.51,80.34c-.22-.07-.45-.11-.69-.11-.3,0-.57,.06-.84,.16-.94,.34-1.62,1.24-1.62,2.3,0,1.33,1.06,2.4,2.38,2.45,.03,0,.05,0,.08,0h0c1.36,0,2.45-1.1,2.45-2.45,0-1.11-.75-2.04-1.76-2.34Z"/><path class="i" d="M1060.56,86.87c-.21-.06-.42-.1-.65-.1-.25,0-.49,.05-.71,.12-1,.31-1.74,1.23-1.74,2.34,0,1.26,.95,2.28,2.17,2.43,.09,.01,.19,.03,.29,.03,.08,0,.15-.02,.23-.02,1.24-.12,2.22-1.16,2.22-2.43,0-1.13-.77-2.07-1.8-2.36Z"/><path class="i" d="M1073.68,86.88c-.22-.06-.44-.11-.68-.11s-.46,.04-.68,.11c-1.02,.3-1.78,1.23-1.78,2.35,0,1.27,.96,2.3,2.2,2.43,.09,0,.17,.03,.26,.03s.17-.02,.26-.03c1.23-.13,2.2-1.16,2.2-2.43,0-1.12-.75-2.05-1.78-2.35Z"/><path class="i" d="M1095.07,86.92c-.25-.09-.52-.14-.8-.14-.21,0-.42,.04-.61,.09-.9,.23-1.6,.96-1.79,1.87-.03,.16-.05,.33-.05,.49s.02,.33,.05,.49c.22,1.07,1.13,1.87,2.24,1.94,.05,0,.11,.02,.16,.02,.12,0,.24-.02,.36-.04,1.18-.18,2.09-1.19,2.09-2.42,0-1.07-.7-1.98-1.66-2.31Z"/><path class="i" d="M1126.13,82.19c-.18-.89-.84-1.59-1.7-1.84-.23-.07-.46-.12-.71-.12-.31,0-.61,.06-.88,.17-.92,.36-1.57,1.24-1.57,2.28,0,1.32,1.04,2.39,2.35,2.44,.04,0,.07,.01,.1,.01h0c1.19,0,2.18-.84,2.4-1.96,.03-.16,.05-.33,.05-.49s-.02-.33-.05-.49Z"/><path class="i" d="M1145.82,82.68c0-1.03-.64-1.91-1.54-2.27-.28-.11-.59-.18-.91-.18-.23,0-.45,.04-.66,.1-.96,.27-1.67,1.09-1.77,2.11,0,.08-.02,.16-.02,.25,0,.1,.02,.2,.03,.3,.15,1.21,1.17,2.15,2.42,2.15h0c.05,0,.1-.01,.16-.02,1.28-.08,2.3-1.14,2.3-2.44Z"/><path class="i" d="M1101.42,86.86c-.19-.05-.4-.08-.61-.08-.26,0-.52,.05-.75,.13-.98,.32-1.7,1.23-1.7,2.32,0,1.24,.92,2.25,2.12,2.42,.11,.02,.22,.03,.34,.03,.06,0,.12-.01,.18-.02,1.27-.09,2.27-1.14,2.27-2.44,0-1.15-.79-2.1-1.85-2.37Z"/><path class="i" d="M1131.16,80.4c-.28-.11-.57-.17-.88-.17-.25,0-.48,.05-.71,.12-.85,.26-1.52,.96-1.7,1.84-.03,.16-.05,.33-.05,.49s.02,.33,.05,.49c.23,1.12,1.22,1.96,2.4,1.96h0s.07,0,.1-.01c1.31-.06,2.35-1.12,2.35-2.44,0-1.04-.65-1.93-1.57-2.28Z"/><path class="l" d="M800.62,32.81l3.31-3.51c.58-.62,.56-1.59-.06-2.17-.62-.58-1.59-.55-2.17,.06l-3.19,3.38-3.19-3.38c-.58-.62-1.55-.65-2.17-.06-.62,.58-.64,1.55-.06,2.17l3.31,3.51-3.31,3.51c-.58,.62-.56,1.59,.06,2.17,.3,.28,.68,.42,1.05,.42,.41,0,.81-.16,1.11-.48l3.19-3.38,3.19,3.38c.3,.32,.71,.48,1.11,.48,.38,0,.76-.14,1.05-.42,.62-.58,.64-1.55,.06-2.17l-3.31-3.51Z"/><path id="c" class="l" d="M779.83,37.31l4.87-5.33c1.75-1.53,2.84-3.68,3.05-6,.07-3.23-2.49-5.91-5.72-5.98-.17,0-.35,0-.52,.01-1.88,.24-3.61,1.15-4.88,2.55-1.2,1.32,.12,2.9,1.7,2.16,.29-.15,1.41-1.84,3.05-1.84,1.72-.11,3.21,1.2,3.31,2.92,0,.05,0,.1,0,.15-.35,1.95-1.39,3.7-2.95,4.93,0,0-4.62,5.51-5.5,6.43-.72,.61-.81,1.68-.2,2.4,.16,.19,.35,.34,.57,.44h11.37c2.51-.11,2.01-2.96,0-2.84h-8.17Z"/><path class="l" d="M885.84,91.05c.02-.06,.06-.11,.07-.18v-.05c.47-2.92,.7-5.88,.71-8.84,.28-11.14-3.74-21.96-11.24-30.22-6.74-7.23-16.15-11.4-26.03-11.54h-.11c-8.92,.29-17.39,4.01-23.65,10.38-7.01,6.92-12.09,17.36-12.07,31.13,0,3.03,.23,6.06,.68,9.07,0,.04,.03,.06,.04,.1-2.68,2.01-5.17,5.34-3.71,10.43l3.62,10.65c2.77,7.41,10.7,6.05,13.68,5.23,1.32,1.31,3.13,2.09,5.07,2.09,.8,0,1.59-.14,2.35-.4h0c3.74-1.33,5.7-5.42,4.39-9.16l-7.9-23.18c-1.26-3.68-5.2-5.66-8.89-4.55h-.26l.02,.07h-.02l.23,.68,.21,.67h0l-.44-1.34c-.86,.3-1.63,.76-2.3,1.32,.45-12.13,4.47-21.2,9.84-27.29,4.73-5.74,11.66-9.24,19.09-9.63,8.32,.23,16.11,4.16,21.23,10.73,5.76,7.53,8.97,16.67,9.22,26.1-.64-.52-1.37-.95-2.19-1.24l-.05-.02c-3.75-1.3-7.84,.69-9.14,4.43v.04l-8.01,23.2c-1.26,3.76,.73,7.84,4.47,9.16h.03l-.03,.08c2.66,.89,5.48,.15,7.37-1.69,2.99,.82,10.91,2.15,13.66-5.24l3.69-10.65c1.44-5.04-.99-8.34-3.64-10.36Z"/><path class="l" d="M550.62,32.81l3.31-3.51c.58-.62,.56-1.59-.06-2.17-.61-.58-1.59-.56-2.17,.06l-3.19,3.38-3.19-3.38c-.58-.62-1.55-.65-2.17-.06-.62,.58-.64,1.55-.06,2.17l3.31,3.51-3.31,3.51c-.58,.62-.56,1.59,.06,2.17,.3,.28,.68,.42,1.05,.42,.41,0,.81-.16,1.11-.48l3.19-3.38,3.19,3.38c.3,.32,.71,.48,1.11,.48,.38,0,.76-.14,1.05-.42,.62-.58,.64-1.55,.06-2.17l-3.31-3.51Z"/><path id="d" class="l" d="M529.83,37.31l4.87-5.33c1.75-1.53,2.84-3.68,3.05-6,.07-3.23-2.49-5.91-5.72-5.98-.17,0-.35,0-.52,.01-1.88,.24-3.61,1.15-4.88,2.55-1.2,1.32,.12,2.9,1.7,2.16,.29-.15,1.41-1.84,3.05-1.84,1.72-.11,3.21,1.2,3.31,2.92,0,.05,0,.1,0,.15-.35,1.95-1.39,3.7-2.95,4.93,0,0-4.62,5.51-5.5,6.43-.72,.61-.81,1.68-.2,2.4,.16,.19,.35,.34,.57,.44h11.37c2.51-.11,2.01-2.96,0-2.84h-8.17Z"/><path class="l" d="M640.78,41.25c.28-1.68,.47-2.79-.54-3.58-.94-.74-2.02-.35-3,.06-.15,.03-.3,.07-.45,.14-.65,.32-1.93,.95-3.44,1.69-3.28,1.6-7.36,3.59-8.81,4.37-.9,.45-1.55,1.51-1.34,2.56-.01,.29-.07,.57-.15,.84l-10.35,10.76-23.16,23.16s-.01,.02-.02,.03c-1.1,.89-2.25,.69-2.84,.49-.86-.29-1.33-.82-1.4-.96,.22-1.15,.75-2.19,1.54-3.02,1.23-1.23,1.8-2.44,1.69-3.6-.06-.62-.33-1.51-1.34-2.21l-.23-.13c-1.52-.74-3.26-.75-4.79-.04-2.42,.87-4.83,3.98-6.3,6.65-.54,1.01-1.06,2.08-1.55,3.11-1.2,2.51-2.45,5.12-4.22,6.89-.83,.83-2.36,1.23-4.28,1.74-3.25,.85-7.69,2.02-12,6.33l-.11,.12c-1.86,2.28-2.75,5.15-2.52,8.01,.17,4.88,2.54,9.35,7.68,14.5,3.61,3.61,7.72,6.19,11.56,7.26,1.38,.39,2.71,.58,3.97,.58,3.02,0,5.67-1.09,7.81-3.23,3.71-3.71,4.35-7.41,4.87-10.39,.35-2.02,.63-3.61,1.76-4.74,.82-.82,2.19-1.41,3.78-2.08,2.14-.91,4.56-1.94,6.59-3.97,1.94-1.94,2.41-4.09,1.33-6.04l-.12-.25-.2-.2c-1.5-1.5-3.56-.52-5.38,.35-1.9,.9-3.3,1.49-3.98,.8-.58-.58-1.8-1.8,1.44-5.03,.13-.13,.22-.29,.3-.45l35.83-37.67c1.08-.49,2.24-.74,3.48-.72,.73,0,1.12-.3,1.45-.63l.24-.31c1.67-2.77,3.74-5.26,6.11-7.35,1.09-.88,1.02-2.1,.97-2.76-.01-.16-.03-.39-.01-.46l.12-.61Z"/><path class="l" d="M381.65,83.23c1.13,0,2.05-.92,2.05-2.05s-.92-2.05-2.05-2.05h-8.63v-4.06h8.63c1.13,0,2.05-.92,2.05-2.05s-.92-2.05-2.05-2.05h-8.63v-3.61c0-2.71-2.2-4.91-4.91-4.91h-3.59v-8.61c0-1.13-.92-2.05-2.05-2.05s-2.05,.92-2.05,2.05v8.61h-4.06v-8.61c0-1.13-.92-2.05-2.05-2.05s-2.05,.92-2.05,2.05v8.61h-4.05v-8.61c0-1.13-.92-2.05-2.05-2.05s-2.05,.92-2.05,2.05v8.61h-4.06v-8.61c0-1.13-.92-2.05-2.05-2.05s-2.05,.92-2.05,2.05v8.61h-3.63c-2.71,0-4.91,2.2-4.91,4.91v3.61h-8.58c-1.13,0-2.05,.92-2.05,2.05s.92,2.05,2.05,2.05h8.58v4.06h-8.58c-1.13,0-2.05,.92-2.05,2.05s.92,2.05,2.05,2.05h8.58v4.05h-8.58c-1.13,0-2.05,.92-2.05,2.05s.92,2.05,2.05,2.05h8.58v4.06h-8.58c-1.13,0-2.05,.92-2.05,2.05s.92,2.05,2.05,2.05h8.58v3.62c0,2.71,2.2,4.91,4.91,4.91h3.63v8.61c0,1.13,.92,2.04,2.05,2.04s2.05-.92,2.05-2.04v-8.61h4.06v8.61c0,1.13,.92,2.04,2.05,2.04s2.05-.92,2.05-2.04v-8.61h4.05v8.61c0,1.13,.92,2.04,2.05,2.04s2.05-.92,2.05-2.04v-8.61h4.06v8.61c0,1.13,.92,2.04,2.05,2.04s2.05-.92,2.05-2.04v-8.61h3.59c2.71,0,4.91-2.2,4.91-4.91v-3.62h8.63c1.13,0,2.05-.92,2.05-2.05s-.92-2.05-2.05-2.05h-8.63v-4.06h8.63c1.13,0,2.05-.92,2.05-2.05s-.92-2.05-2.05-2.05h-8.63v-4.05h8.63Z"/><rect id="e" class="j" x="335.21" y="70.49" width="30.08" height="30.08" rx="4.91" ry="4.91"/><rect id="f" class="l" x="340.12" y="75.4" width="20.26" height="20.26" rx="3.27" ry="3.27"/><path class="l" d="M35.94,30.37v-.08c1.93-.78,3.2-2.63,3.24-4.7,0-3.21-2.72-5.58-6.75-5.58s-6.82,2.38-6.82,5.58c.04,2.06,1.3,3.91,3.2,4.7v.06c-2.38,.78-4.02,2.97-4.09,5.47,0,3.49,3.12,6.07,7.7,6.07s7.65-2.58,7.65-6.07c-.07-2.51-1.73-4.69-4.12-5.44Zm-7.25-4.18c-.01-.09-.02-.19-.02-.28,.08-1.84,1.63-3.26,3.47-3.18,.09,0,.17,.01,.26,.02,1.79-.22,3.43,1.06,3.64,2.85,.01,.1,.02,.2,.02,.3-.04,1.8-1.54,3.23-3.34,3.18-.11,0-.22-.01-.33-.02-1.81,.23-3.47-1.06-3.7-2.87Zm3.99,12.83c-.09,0-.17-.01-.26-.02-2.63,0-4.44-1.52-4.44-3.61,0-1.98,1.69-3.49,4.41-3.49s4.41,1.52,4.41,3.49c-.14,2.14-1.98,3.77-4.12,3.63Z"/><path class="l" d="M51.55,34.13l3.31-3.51c.58-.62,.55-1.59-.06-2.17-.62-.58-1.59-.56-2.17,.06l-3.19,3.38-3.19-3.38c-.58-.62-1.55-.65-2.17-.06-.62,.58-.64,1.55-.06,2.17l3.31,3.51-3.31,3.51c-.58,.62-.55,1.59,.06,2.17,.3,.28,.68,.42,1.05,.42,.41,0,.81-.16,1.12-.48l3.19-3.38,3.19,3.38c.3,.32,.71,.48,1.12,.48,.38,0,.76-.14,1.05-.42,.62-.58,.64-1.55,.06-2.17l-3.31-3.51Z"/><circle id="g" class="l" cx="99.52" cy="86.33" r="25.02"/><path class="l" d="M82.21,49.62c-.78-1.11-2.31-1.38-3.42-.6-1.11,.78-1.38,2.31-.6,3.42l3.54,5.05c.48,.68,1.24,1.04,2.01,1.04,.49,0,.98-.14,1.41-.45,1.11-.78,1.38-2.31,.6-3.42l-3.54-5.05Z"/><path class="l" d="M73.14,66.09l-5.05-3.54c-1.11-.78-2.64-.51-3.42,.6-.78,1.11-.51,2.64,.6,3.42l5.05,3.54c.43,.3,.92,.45,1.41,.45,.77,0,1.53-.36,2.01-1.04,.78-1.11,.51-2.64-.6-3.42Z"/><path class="l" d="M67.22,82.16h-6.55c-1.36,0-2.45,1.1-2.45,2.45s1.1,2.45,2.45,2.45h6.55c1.36,0,2.45-1.1,2.45-2.45s-1.1-2.45-2.45-2.45Z"/><path class="l" d="M121.21,50.52c-1.11-.78-2.64-.51-3.42,.6l-3.54,5.05c-.78,1.11-.51,2.64,.6,3.42,.43,.3,.92,.45,1.41,.45,.77,0,1.53-.36,2.01-1.04l3.54-5.05c.78-1.11,.51-2.64-.6-3.42Z"/><path class="l" d="M135.33,64.64c-.78-1.11-2.31-1.38-3.42-.6l-5.05,3.54c-1.11,.78-1.38,2.31-.6,3.42,.48,.68,1.24,1.04,2.01,1.04,.49,0,.98-.14,1.41-.45l5.05-3.54c1.11-.78,1.38-2.31,.6-3.42Z"/><path class="l" d="M139.33,83.66h-6.55c-1.36,0-2.45,1.1-2.45,2.45s1.1,2.45,2.45,2.45h6.55c1.36,0,2.45-1.1,2.45-2.45s-1.1-2.45-2.45-2.45Z"/><path class="l" d="M99.73,44.07c-1.36,0-2.45,1.1-2.45,2.45v6.55c0,1.36,1.1,2.45,2.45,2.45s2.45-1.1,2.45-2.45v-6.55c0-1.36-1.1-2.45-2.45-2.45Z"/><path class="i" d="M99.73,82.45c-1.36,0-2.45-1.1-2.45-2.45v-6.55c0-1.36,1.1-2.45,2.45-2.45s2.45,1.1,2.45,2.45v6.55c0,1.36-1.1,2.45-2.45,2.45Z"/></g><g id="h"><g><path class="l" d="M79.67,157.44c-1.39,1.06-3.31,1.6-5.75,1.6s-4.36-.53-5.75-1.6c-1.39-1.06-2.09-2.49-2.09-4.28,0-1.08,.38-2.09,1.15-3.01,.77-.92,1.83-1.64,3.19-2.14v-.06c-1.16-.49-2.05-1.15-2.69-2-.63-.85-.95-1.81-.95-2.87,0-1.51,.63-2.73,1.9-3.65,1.27-.92,3.01-1.39,5.24-1.39s3.97,.46,5.24,1.39,1.9,2.14,1.9,3.65c0,2.09-1.21,3.62-3.64,4.59v.06c2.89,.95,4.34,2.76,4.34,5.43,0,1.79-.7,3.22-2.09,4.28Zm-9.37-1.78c.88,.64,2.08,.97,3.61,.97s2.72-.32,3.56-.97c.84-.64,1.26-1.53,1.26-2.65,0-1.98-1.65-3.29-4.96-3.92-1.57,.35-2.76,.88-3.57,1.57s-1.22,1.47-1.22,2.35c0,1.12,.44,2,1.32,2.65Zm3.61-15.22c-1.36,0-2.4,.25-3.11,.76-.71,.5-1.06,1.22-1.06,2.16,0,.78,.35,1.47,1.06,2.06,.71,.59,1.75,1.02,3.11,1.3,1.38-.3,2.44-.75,3.18-1.36,.74-.61,1.11-1.27,1.11-2,0-.9-.37-1.6-1.11-2.13-.74-.52-1.8-.78-3.18-.78Z"/><path class="l" d="M100.64,155.93v1.99h10.36v2.35h-23.74v-2.35h10.36v-1.99h-6.66v-1.23c-1.19,.63-2.46,1.19-3.81,1.65l-.95-2.38c2.09-.69,3.85-1.46,5.26-2.32,.35-.21,.71-.45,1.06-.73h-5.6v-2.32h4.17v-8.15h-3.89v-2.35h3.89v-2.38h2.97v2.38h10.14v-2.38h2.97v2.38h3.89v2.35h-3.89v8.15h4.17v2.32h-5.6c.35,.28,.71,.52,1.06,.73,1.42,.86,3.17,1.63,5.26,2.32l-.95,2.38c-1.34-.47-2.61-1.02-3.81-1.65v1.23h-6.66Zm4.96-2.27c-1.21-.82-2.27-1.74-3.16-2.74h-6.58c-1.01,1.1-2.06,2.02-3.16,2.74h4.93v-2.04h3.02v2.04h4.96Zm-11.54-11.79h10.14v-1.43h-10.14v1.43Zm0,1.93v1.43h10.14v-1.43h-10.14Zm0,3.36v1.43h10.14v-1.43h-10.14Z"/><path class="l" d="M128.11,156.79c2.09-.41,3.73-1.34,4.93-2.79,1.19-1.45,1.79-3.22,1.79-5.33,0-1.96-.63-3.58-1.9-4.86-1.27-1.28-2.94-2-5.01-2.17-.73,5.47-1.81,9.53-3.23,12.17-1.43,2.64-3.1,3.96-5.03,3.96-1.33,0-2.53-.73-3.63-2.2-1.09-1.47-1.64-3.25-1.64-5.36,0-3.32,1.16-6.02,3.49-8.09,2.32-2.07,5.39-3.11,9.2-3.11,3.14,0,5.71,.9,7.71,2.69,2.01,1.79,3.01,4.12,3.01,6.97s-.8,5.12-2.39,7.03c-1.6,1.9-3.76,3.11-6.48,3.61l-.81-2.52Zm-3.14-15.04c-2.37,.37-4.25,1.3-5.63,2.79s-2.07,3.33-2.07,5.53c0,1.38,.27,2.53,.8,3.44,.53,.92,1.08,1.37,1.64,1.37,.39,0,.81-.25,1.26-.74,.45-.49,.91-1.24,1.39-2.24,.48-1,.94-2.38,1.4-4.13,.46-1.75,.86-3.76,1.22-6.02Z"/><path class="l" d="M15.89,174.43v5.82h8.68v2.41H15.89v7.17h9.24v2.52H12.81v-20.44h12.32v2.52H15.89Z"/><path class="l" d="M30.74,171.91l5.68,17.36h.06l5.68-17.36h3.19l-7.28,20.44h-3.36l-7.28-20.44h3.3Z"/><path class="l" d="M48.66,174.49c1.83-1.9,4.27-2.86,7.34-2.86s5.51,.95,7.34,2.86c1.83,1.9,2.74,4.45,2.74,7.64s-.91,5.74-2.74,7.64c-1.83,1.9-4.27,2.86-7.34,2.86s-5.51-.95-7.34-2.86-2.74-4.45-2.74-7.64,.91-5.74,2.74-7.64Zm2.3,13.48c1.27,1.43,2.95,2.14,5.04,2.14s3.77-.71,5.04-2.14,1.9-3.37,1.9-5.84-.63-4.41-1.9-5.84c-1.27-1.43-2.95-2.14-5.04-2.14s-3.77,.71-5.04,2.14c-1.27,1.43-1.9,3.37-1.9,5.84s.63,4.41,1.9,5.84Z"/><path class="l" d="M67.99,175.22v-2.6h21.98v2.6c-1.7,4.24-5.28,7.9-10.75,10.98,1.14,1.59,2.33,3.38,3.58,5.38l-2.32,1.48c-2.56-4.09-5.34-7.89-8.34-11.4l2.18-1.71c1.12,1.33,2.19,2.65,3.22,3.98,4.67-2.71,7.72-5.61,9.16-8.71h-18.7Z"/><path class="l" d="M91.36,182.5c3.79-.82,7.41-2.21,10.85-4.16,3.44-1.95,6.41-4.29,8.89-7.01l2.1,1.93c-2.22,2.46-4.86,4.64-7.92,6.52v13.36h-3.02v-11.65c-3.25,1.68-6.66,2.89-10.25,3.64l-.64-2.63Z"/><path class="l" d="M116.79,193.05l-.53-2.58c4.85-.52,8.51-1.92,10.98-4.2,2.46-2.28,3.91-5.57,4.34-9.88h-9.49c-1.12,2.73-2.93,5.28-5.43,7.67l-1.93-1.76c3.36-3.36,5.35-7.25,5.96-11.68l2.8,.2c-.11,1.1-.29,2.12-.53,3.05h11.59v2.52c-.54,5.1-2.23,8.98-5.05,11.65-2.83,2.67-7.06,4.34-12.7,5.01Z"/><path class="l" d="M139.37,175.33v-2.58h16.1v-.28c0-1.08,.38-2.01,1.15-2.77,.77-.76,1.69-1.15,2.77-1.15s2.01,.38,2.77,1.15c.77,.77,1.15,1.69,1.15,2.77s-.38,2.01-1.15,2.77c-.77,.77-1.69,1.15-2.77,1.15h-.11c-.62,4.67-2.32,8.33-5.11,11-2.79,2.67-6.78,4.46-11.97,5.38l-.7-2.58c4.65-.88,8.19-2.54,10.64-4.98s3.86-5.74,4.26-9.88h-17.02Zm21.31-1.57c.35-.35,.53-.78,.53-1.29s-.18-.93-.53-1.29-.78-.53-1.29-.53-.93,.18-1.29,.53c-.35,.35-.53,.78-.53,1.29s.18,.93,.53,1.29c.35,.35,.78,.53,1.29,.53s.93-.18,1.29-.53Z"/><path class="l" d="M167.65,183.25v-11.62h2.94v11.62h-2.94Zm12.82-11.62h3v8.74c0,4.14-.99,7.23-2.98,9.27-1.99,2.03-5.32,3.31-10.01,3.84l-.53-2.55c4.05-.56,6.82-1.59,8.3-3.09,1.48-1.5,2.23-3.99,2.23-7.46v-8.74Z"/></g><g><path class="l" d="M250.9,159.45l-.53-2.58c4.85-.52,8.51-1.92,10.98-4.2,2.46-2.28,3.91-5.57,4.34-9.88h-9.49c-1.12,2.73-2.93,5.28-5.43,7.67l-1.93-1.76c3.36-3.36,5.35-7.25,5.96-11.68l2.8,.2c-.11,1.1-.29,2.12-.53,3.05h11.59v2.52c-.54,5.1-2.23,8.98-5.05,11.65-2.83,2.67-7.06,4.34-12.7,5.01Z"/><path class="l" d="M273.38,147.78v-2.52h21.11v2.52c-.77,3.55-2.38,6.27-4.86,8.16-2.47,1.9-6.07,3.16-10.79,3.79l-.53-2.49c4.01-.58,7.08-1.63,9.21-3.15s3.49-3.63,4.09-6.31h-18.23Zm2.3-6.8v-2.52h16.8v2.52h-16.8Z"/><path class="l" d="M298.85,141.45v-2.58h16.66v2.58c-1.08,2.86-2.77,5.6-5.07,8.23,2.91,2.73,5.53,5.27,7.84,7.64l-2.04,1.93c-2.67-2.72-5.24-5.25-7.7-7.59-3.4,3.3-7.14,5.76-11.23,7.36l-1.18-2.44c3.66-1.47,6.98-3.62,9.95-6.44s5.04-5.72,6.17-8.71h-13.41Z"/><path class="l" d="M330.97,158.75c-3.21,.56-6.38,1.02-9.52,1.37l-.22-2.46c1.12-.11,1.92-.21,2.41-.28v-9.21h-2.13v-2.46h25.12v2.46h-12.91v12.99h-2.74v-2.41Zm-4.37-14.14h-2.97v-7.81h20.86v7.81h-17.89Zm4.37,3.56h-4.73v1.51h4.73v-1.51Zm-4.73,5.1h4.73v-1.51h-4.73v1.51Zm4.73,2.97v-.92h-4.73v1.71c.78-.11,2.36-.37,4.73-.78Zm-4.37-16.21h14.95v-1.04h-14.95v1.04Zm0,1.65v1.01h14.95v-1.01h-14.95Zm8.01,10v-2.46h10.7v2.46c-.71,1.87-1.72,3.48-3.02,4.84,1.25,.75,2.73,1.38,4.45,1.9l-.95,2.32c-2.03-.58-3.89-1.41-5.57-2.49-1.44,.99-3.16,1.82-5.18,2.49l-1.01-2.32c1.57-.5,2.9-1.11,4-1.82-1.14-.99-2.17-2.19-3.08-3.61l1.71-1.32h-2.04Zm5.49,3.3c1.06-1.04,1.88-2.15,2.44-3.3h-5.26c.84,1.31,1.78,2.41,2.83,3.3Z"/><path class="l" d="M362.55,137.95h10.7v2.49h-24.42v-2.49h10.7v-2.24h3.02v2.24Zm10.02,10.86v7.73c0,.52-.02,1.05-.06,1.57-.04,.39-.09,.76-.17,1.09-.07,.32-.19,.55-.34,.7-.13,.13-.35,.26-.67,.39-.24,.09-.55,.16-.92,.2-.45,.04-.9,.06-1.34,.06s-1.61-.05-3.44-.14l-.11-1.93h-8.12v1.09h-2.74v-7.2h12.77v5.6c.3,.02,.62,.03,.95,.03,.65,0,1.04-.06,1.15-.17,.11-.11,.17-.49,.17-1.12v-5.52h-17.3v9.41h-2.88v-11.79h23.07Zm-16.97-1.18h-2.94v-6.05h16.74v6.05h-13.8Zm0-2.07h10.86v-1.85h-10.86v1.85Zm1.79,10.78h7.28v-1.79h-7.28v1.79Z"/><path class="l" d="M378.66,159.65v1.09h-2.94v-11.82h10.84v11.82h-2.88v-1.09h-5.01Zm5.01-2.27v-6.1h-5.01v6.1h5.01Zm-1.37-10.3h-3.02v-10.22h16.74v10.22h-13.72Zm10.7-2.27v-5.54h-10.7v5.54h10.7Zm-1.37,14.84v1.09h-2.88v-11.82h10.84v11.82h-2.94v-1.09h-5.01Zm5.01-2.27v-6.1h-5.01v6.1h5.01Z"/><path class="l" d="M418.62,140.3h8.71v2.18h-3.44v2.27h.84v11.59h-4.48c2.56,.78,4.84,1.66,6.86,2.63l-1.29,2.21c-2.31-1.16-5.24-2.3-8.76-3.42l.62-1.43h-5.94l.64,1.2c-.95,.62-2.26,1.24-3.92,1.88-1.66,.63-3.37,1.16-5.12,1.57l-1.01-2.3c2.84-.69,5.24-1.47,7.2-2.35h-4.84v-9.3c-.34,.45-.7,.87-1.09,1.26l-1.46-2.83c.8-.93,1.41-2.07,1.82-3.42,.39-1.29,.59-2.86,.59-4.73,3.66-.07,6.97-.44,9.94-1.09l.67,2.27c-2.41,.5-5.06,.84-7.95,1.01,0,.09,0,.22-.01,.39,0,.17-.02,.3-.04,.39h7.98v2.18h-2.69v2.27h3.92l-1.96-.73c.58-.78,.99-1.68,1.23-2.69,.26-1.08,.39-2.42,.39-4,3.68-.09,6.98-.46,9.91-1.09l.67,2.27c-2.26,.49-4.89,.81-7.9,.98-.04,.37-.07,.64-.08,.81Zm-11.84,2.18c-.15,.6-.27,1.04-.36,1.32-.07,.22-.21,.54-.39,.95h3.61v-2.27h-2.86Zm.92,5.63h14v-1.18h-14v1.18Zm0,1.85v1.18h14v-1.18h-14Zm0,3.02v1.18h14v-1.18h-14Zm10.56-10.5c-.21,.84-.52,1.6-.95,2.27h3.78v-2.27h-2.83Z"/><path class="l" d="M442.6,156.79c2.09-.41,3.73-1.34,4.93-2.79,1.19-1.45,1.79-3.22,1.79-5.33,0-1.96-.63-3.58-1.9-4.86-1.27-1.28-2.94-2-5.01-2.17-.73,5.47-1.81,9.53-3.23,12.17-1.43,2.64-3.1,3.96-5.03,3.96-1.33,0-2.53-.73-3.63-2.2-1.09-1.47-1.64-3.25-1.64-5.36,0-3.32,1.16-6.02,3.49-8.09,2.32-2.07,5.39-3.11,9.2-3.11,3.14,0,5.71,.9,7.71,2.69,2.01,1.79,3.01,4.12,3.01,6.97s-.8,5.12-2.39,7.03c-1.6,1.9-3.76,3.11-6.48,3.61l-.81-2.52Zm-3.14-15.04c-2.37,.37-4.25,1.3-5.63,2.79s-2.07,3.33-2.07,5.53c0,1.38,.27,2.53,.8,3.44,.53,.92,1.08,1.37,1.64,1.37,.39,0,.81-.25,1.26-.74,.45-.49,.91-1.24,1.39-2.24,.48-1,.94-2.38,1.4-4.13,.46-1.75,.86-3.76,1.22-6.02Z"/><path class="l" d="M278.32,173.31h19.32v19.18h-2.94v-1.68h-16.38v-2.6h16.38v-12.32h-16.38v-2.58Z"/><path class="l" d="M302.76,174.35l1.57-2.35c2.5,1.46,5.07,3.15,7.7,5.07l-1.65,2.3c-2.46-1.79-5-3.46-7.62-5.01Zm.42,15.48c5.1-.49,9.14-1.98,12.12-4.48,2.99-2.5,4.99-6.06,6.02-10.67l2.72,.76c-1.05,5.15-3.29,9.17-6.72,12.04-3.43,2.88-8.03,4.56-13.78,5.07l-.36-2.72Z"/><path class="l" d="M330.38,172.67l2.86,.17c-.65,7-2.78,13.49-6.38,19.46l-2.69-1.34c3.49-5.69,5.56-11.79,6.22-18.28Zm7.92-.9l2.27-1.18c1.12,1.98,1.95,3.5,2.49,4.56l-2.27,1.09c-.86-1.62-1.69-3.12-2.49-4.48Zm9.49,19.99l-3,.62c-1.25-5.11-2.64-9.71-4.17-13.78l2.77-.84c1.59,4.05,3.05,8.72,4.4,14Zm-5.35-21l2.32-1.2c.95,1.68,1.8,3.23,2.55,4.65l-2.32,1.12c-.78-1.49-1.63-3.01-2.55-4.56Z"/><path class="l" d="M350.46,183.73v-2.91h22.12v2.91h-22.12Z"/><path class="l" d="M382.98,180.87l1.32-2.21c2.65,1.49,5.1,3,7.36,4.51,1.08-2.04,1.76-4.5,2.04-7.39h-9.74c-1.12,2.88-2.99,5.54-5.6,8.01l-1.79-1.76c3.4-3.4,5.39-7.29,5.99-11.68l2.63,.2c-.09,1.01-.24,1.93-.45,2.77h11.87v2.46c-.54,5.38-2.23,9.47-5.07,12.29-2.84,2.82-7.07,4.57-12.68,5.26l-.62-2.58c5.51-.62,9.5-2.43,11.98-5.43-2.41-1.6-4.83-3.09-7.25-4.45Z"/><path class="l" d="M400.82,183.73v-2.91h22.12v2.91h-22.12Z"/></g><g><path class="l" d="M511.16,167.34c1.44,.78,2.7,1.18,3.78,1.18,1.55,0,2.71-.44,3.47-1.33,.76-.89,1.15-2.31,1.15-4.27v-12.6h3.22v13.16c0,2.69-.62,4.62-1.88,5.8-1.25,1.18-3.24,1.76-5.96,1.76-1.61,0-3.1-.37-4.48-1.12l.7-2.58Z"/><path class="l" d="M526.75,150.31h12.04v2.52h-8.96v6.1h8.4v2.41h-8.4v9.41h-3.08v-20.44Z"/><path class="l" d="M544.82,152.83v5.82h8.68v2.41h-8.68v7.17h9.24v2.52h-12.32v-20.44h12.32v2.52h-9.24Z"/><path class="l" d="M556.75,150.31h15.12v2.58h-6.02v17.86h-3.08v-17.86h-6.02v-2.58Z"/><path class="l" d="M582.9,159.39c2.15-.9,4.03-1.85,5.66-2.86l1.12,2.07v-8.65h3.95c.11-.34,.31-1.1,.59-2.3l3,.22c-.21,.9-.38,1.59-.53,2.07h5.21v8.51l1.09-1.96c2.17,.88,4.08,1.84,5.74,2.88l-1.37,2.35c-1.68-1.06-3.5-2.02-5.46-2.86v2.41h-4.59v1.51h10.42v2.46h-9.16c2.45,1.83,5.8,3.45,10.05,4.87l-1.09,2.46c-4.24-1.55-7.64-3.35-10.22-5.4v5.74h-3.02v-5.74c-2.58,2.05-5.98,3.85-10.22,5.4l-1.09-2.46c4.26-1.42,7.61-3.04,10.05-4.87h-9.16v-2.46h10.42v-1.51h-4.59v-2.46c-1.7,1.08-3.58,2.05-5.63,2.91l-1.15-2.35Zm4.76-4.26c-1.14-1.1-2.67-2.35-4.59-3.75l1.74-2.07c1.83,1.34,3.37,2.6,4.62,3.78l-1.76,2.04Zm4.9-.7h6.44v-2.13h-6.44v2.13Zm0,2.27v2.24h6.44v-2.24h-6.44Zm11.34-1.62l-1.82-1.99c1.72-1.31,3.25-2.57,4.59-3.78l1.82,1.99c-1.27,1.23-2.8,2.49-4.59,3.78Z"/><path class="l" d="M611.05,160.59v-2.41h8.85c.43-.49,.81-.98,1.15-1.48h-8.48v-7.84h9.88v6.83l1.62,.28v-7.11h9.88v7.84h-9.74c-.24,.52-.52,1.02-.84,1.48h12.1v2.41h-6.16c1.81,1.33,4.01,2.41,6.61,3.25l-.62,2.55c-.73-.26-1.35-.49-1.88-.7v7.06h-2.74v-1.09h-4v1.09h-2.6v-9.46h4.7c-1.27-.8-2.41-1.7-3.42-2.69h-4.03c-.37,.37-.87,.8-1.48,1.29-.49,.39-1.15,.86-1.99,1.4h4.59v9.46h-2.6v-1.09h-4v1.09h-2.74v-7.06c-.52,.21-1.15,.44-1.88,.7l-.62-2.55c2.58-.84,4.78-1.92,6.61-3.25h-6.16Zm4.31-5.96h4.4v-3.56h-4.4v3.56Zm4.48,14.9v-3.98h-4v3.98h4Zm10.84,0v-3.98h-4v3.98h4Zm-3.92-14.9h4.4v-3.56h-4.4v3.56Z"/><path class="l" d="M641.37,149.19h10.45v2.49c0,4.16,.9,7.92,2.69,11.28,1.79,3.36,4.23,5.89,7.31,7.59l-1.54,2.24c-2.13-1.08-4.03-2.7-5.71-4.84-1.72-2.18-3.06-4.7-4.03-7.56-.02-.09-.06-.23-.11-.41-.06-.18-.1-.31-.14-.41-.02,.06-.05,.14-.1,.24s-.08,.18-.1,.24c-1.16,2.78-2.76,5.31-4.82,7.59-2,2.22-4.24,3.94-6.72,5.15l-1.54-2.24c2.3-1.21,4.34-2.78,6.13-4.7,1.83-1.98,3.23-4.1,4.2-6.36,.97-2.28,1.46-4.52,1.46-6.72v-.95h-7.42v-2.63Z"/><path class="l" d="M672.48,147.91h3.02c0,1.53-.03,2.97-.08,4.31h11.37c0,1.75-.02,3.79-.06,6.1-.02,1.31-.08,2.87-.2,4.7-.08,1.19-.18,2.36-.31,3.5-.11,.95-.28,1.76-.5,2.44-.24,.71-.47,1.25-.67,1.62-.22,.39-.52,.7-.9,.92-.35,.22-.73,.36-1.12,.42-.49,.07-.93,.11-1.34,.11-1.23,0-3.11-.11-5.63-.34l-.03-2.74c2.2,.22,3.84,.34,4.93,.34,.52,0,.93-.15,1.23-.45,.32-.32,.6-.95,.84-1.9,.24-.93,.42-2.41,.53-4.42,.09-1.77,.16-4.34,.2-7.7h-8.51c-.15,1.75-.35,3.31-.59,4.68-.56,3.01-1.45,5.51-2.66,7.5-1.18,1.96-2.9,3.82-5.18,5.57l-2.02-2.21c1.51-1.16,2.72-2.31,3.61-3.47,.93-1.18,1.72-2.63,2.35-4.37,.63-1.74,1.08-3.75,1.34-6.05,.02-.19,.04-.47,.07-.84,.03-.37,.05-.64,.07-.81h-7.28v-2.6h7.42c.06-1.33,.08-2.76,.08-4.31Z"/></g><g><path class="l" d="M802.25,158.19c.88,0,1.32-1.94,1.32-5.82,0-.41-.02-1.03-.06-1.85-1.12,1.2-2.44,2.22-3.95,3.08l-1.01-2.38c1.74-1.04,3.29-2.36,4.65-3.95-.21-1.34-.47-2.58-.78-3.72-.84,.65-1.76,1.28-2.77,1.88l-1.09-2.38c1.12-.67,2.12-1.35,3-2.04-.43-1.12-.96-2.22-1.6-3.3l2.49-1.23c.45,.78,.88,1.63,1.29,2.55,.95-.99,1.82-2.01,2.6-3.05l1.99,1.4c-1.03,1.46-2.24,2.86-3.64,4.2,1.03,3.19,1.54,6.79,1.54,10.81,0,2.15-.13,3.85-.39,5.12-.24,1.19-.62,2.03-1.12,2.49-.49,.45-1.12,.67-1.9,.67s-1.82-.16-3.05-.48l-.06-2.46c1.16,.32,2.01,.48,2.55,.48Zm17.39-5.29l2.44-.73c1.12,2.8,2.06,5.54,2.83,8.23l-2.55,.73c-.15-.56-.39-1.4-.73-2.52-5.32,.91-10.29,1.46-14.9,1.65l-.17-2.55c2.35-.07,4.78-.24,7.28-.5v-6.36h-3.89v1.65h-2.74v-12.63h6.64v-3.78h2.97v3.78h6.78v10.98h-6.78v6.05c.9-.11,2.26-.3,4.09-.56-.45-1.34-.87-2.49-1.26-3.44Zm-5.8-10.56h-3.89v6.1h3.89v-6.1Zm2.97,0v6.1h4.03v-6.1h-4.03Z"/><path class="l" d="M844.97,143.07l2.97,.62c-1.03,5.1-2.51,9.66-4.45,13.69h8.01v2.6h-24.42v-2.6h13.22c2.05-4.18,3.61-8.95,4.68-14.31Zm-17.33-3.86h10.14v-3.3h3.02v3.3h10.14v2.52h-23.3v-2.52Zm3.42,4.7l2.88-.7c1.14,4.01,2.12,8.06,2.94,12.15l-2.88,.53c-.82-4.09-1.8-8.08-2.94-11.98Z"/><path class="l" d="M856.16,137.33h3c0,2-.07,4.37-.2,7.11-.13,2.71-.2,5-.2,6.89,0,2.09,.36,3.63,1.08,4.61,.72,.98,1.82,1.47,3.32,1.47,3.58,0,6.63-2.79,9.13-8.37l2.55,1.23c-2.78,6.59-6.67,9.88-11.68,9.88-2.39,0-4.22-.66-5.5-1.99-1.28-1.33-1.92-3.6-1.92-6.83,0-1.77,.06-4.03,.2-6.78,.15-3.14,.22-5.54,.22-7.22Z"/><path class="l" d="M883.73,136.05l2.8,.28c-.19,.97-.49,2.39-.9,4.26,3.02-.24,5.67-.53,7.95-.87l.25,2.52c-2.73,.37-5.66,.68-8.79,.92-1.36,5.56-3.13,11.25-5.32,17.05l-2.72-.81c2.13-5.62,3.83-10.98,5.1-16.07-1.59,.07-3.15,.13-4.68,.17v-2.52c1.94-.04,3.71-.1,5.29-.2,.15-.65,.49-2.23,1.01-4.73Zm2.66,19.21c0-1.72,1.14-3.51,3.42-5.38l2.13,1.51c-1.79,1.59-2.69,2.78-2.69,3.58,0,1.21,1.47,1.82,4.42,1.82,1.46,0,3.22-.23,5.29-.7l.34,2.52c-1.98,.47-3.85,.7-5.63,.7-2.65,0-4.53-.35-5.63-1.05s-1.65-1.7-1.65-3.01Zm1.65-9.52c3.47-.65,6.94-.98,10.39-.98v2.52c-3.32,0-6.69,.33-10.11,.98l-.28-2.52Z"/><path class="l" d="M739.68,186.67c2.26-2.91,4.05-5.28,5.38-7.11,1.57-2.17,2.61-3.49,3.12-3.98,.51-.48,1.2-.73,2.06-.73s1.6,.21,2.16,.63c.56,.42,1.77,1.64,3.64,3.65,2.43,2.63,5.54,5.88,9.35,9.74l-2.18,2.18c-2.91-2.93-5.99-6.2-9.24-9.8-1.31-1.42-2.18-2.33-2.62-2.73-.44-.4-.81-.6-1.11-.6-.22,0-.5,.19-.83,.57s-.87,1.1-1.64,2.14c-.15,.21-.26,.36-.34,.48-1.36,1.9-3.17,4.32-5.43,7.25l-2.32-1.71Z"/><path class="l" d="M767.02,177.85l2.44-.64c.63,2.09,1.26,4.37,1.88,6.83l-2.44,.62c-.58-2.28-1.2-4.54-1.88-6.8Zm15.23-1.23l2.63,.14c-.34,3.47-1.02,6.29-2.06,8.47-1.04,2.17-2.51,3.88-4.41,5.11-1.9,1.23-4.42,2.15-7.56,2.74l-.59-2.35c3.98-.78,6.86-2.23,8.67-4.33,1.8-2.1,2.91-5.36,3.32-9.79Zm-9.55,.06l2.49-.64c.63,2.18,1.27,4.55,1.9,7.08l-2.49,.62c-.43-1.75-1.06-4.11-1.9-7.06Z"/><path class="l" d="M791.7,171.07h3v7.81c4.41,1.19,8.63,2.7,12.68,4.51l-1.04,2.52c-3.79-1.72-7.67-3.13-11.65-4.23v11.79h-3v-22.4Zm8.21,1.74l2.52-1.26c.88,1.51,1.78,3.17,2.72,4.98l-2.49,1.2c-.77-1.49-1.68-3.14-2.74-4.93Zm4.31-1.15l2.52-1.29c1.01,1.66,1.94,3.34,2.8,5.04l-2.52,1.23c-.86-1.64-1.79-3.3-2.8-4.98Z"/><path class="l" d="M813.91,175.05v-2.58h20.02v2.58c-.49,4.98-2.13,8.9-4.93,11.76-2.8,2.86-6.89,4.75-12.26,5.68l-.7-2.58c4.65-.88,8.19-2.54,10.64-4.98,2.44-2.45,3.86-5.74,4.26-9.88h-17.02Z"/><path class="l" d="M839.09,178.3h10.67v-3.39h2.72v3.39h4.65v2.35h-4.65v8.79c0,1.59-.2,2.57-.59,2.95-.39,.38-1.37,.57-2.94,.57-1.05,0-2.3-.09-3.75-.28l.17-2.38c1.27,.17,2.37,.25,3.3,.25,.49,0,.79-.06,.91-.18s.18-.42,.18-.91v-5.96c-3,2.82-6.13,5.16-9.38,7.03l-1.32-2.04c3.56-1.98,6.95-4.59,10.16-7.84h-10.14v-2.35Z"/><path class="l" d="M860.55,174.35l1.57-2.35c2.5,1.46,5.07,3.15,7.7,5.07l-1.65,2.3c-2.46-1.79-5-3.46-7.62-5.01Zm.42,15.48c5.1-.49,9.14-1.98,12.12-4.48,2.99-2.5,4.99-6.06,6.02-10.67l2.72,.76c-1.05,5.15-3.29,9.17-6.72,12.04-3.43,2.88-8.03,4.56-13.78,5.07l-.36-2.72Z"/><path class="l" d="M885.57,174.99v-2.58h21.73v2.58c-.58,1.72-1.49,3.34-2.74,4.86-1.25,1.52-2.72,2.81-4.42,3.88l-1.74-2.3c2.63-1.66,4.54-3.81,5.71-6.44h-18.54Zm1.57,15.62c1.68-.9,2.94-1.83,3.77-2.8s1.42-2.23,1.78-3.77c.35-1.54,.53-3.67,.53-6.4h2.94c0,3.06-.23,5.51-.7,7.34-.47,1.83-1.23,3.34-2.3,4.52s-2.61,2.31-4.65,3.37l-1.37-2.27Z"/><path class="l" d="M911.63,174.35l1.57-2.35c2.5,1.46,5.07,3.15,7.7,5.07l-1.65,2.3c-2.46-1.79-5-3.46-7.62-5.01Zm.42,15.48c5.1-.49,9.14-1.98,12.12-4.48,2.99-2.5,4.99-6.06,6.02-10.67l2.72,.76c-1.05,5.15-3.29,9.17-6.72,12.04-3.43,2.88-8.03,4.56-13.78,5.07l-.36-2.72Z"/><path class="l" d="M936.69,175.33v-2.58h16.1v-.28c0-1.08,.38-2.01,1.15-2.77,.77-.76,1.69-1.15,2.77-1.15s2.01,.38,2.77,1.15c.77,.77,1.15,1.69,1.15,2.77s-.38,2.01-1.15,2.77c-.77,.77-1.69,1.15-2.77,1.15h-.11c-.62,4.67-2.32,8.33-5.11,11-2.79,2.67-6.78,4.46-11.97,5.38l-.7-2.58c4.65-.88,8.2-2.54,10.64-4.98s3.86-5.74,4.26-9.88h-17.02Zm21.31-1.57c.36-.35,.53-.78,.53-1.29s-.18-.93-.53-1.29c-.35-.35-.78-.53-1.29-.53s-.93,.18-1.29,.53-.53,.78-.53,1.29,.18,.93,.53,1.29,.78,.53,1.29,.53,.93-.18,1.29-.53Z"/></g><g><path class="l" d="M1061.39,160.41v-2.49h6.41c-.34-.62-.7-1.23-1.09-1.85h-2.38v-5.26h18.54v5.26h-2.35c-.32,.6-.7,1.21-1.15,1.85h6.44v2.49h-24.42Zm.28-10.58v-2.27h23.86v2.27h-23.86Zm7.5-11.98v-2.21h2.74v2.21h3.36v-2.21h2.74v2.21h6.13v8.76h-21.11v-8.76h6.13Zm-3.25,3.61h3.25v-1.23h-3.25v1.23Zm3.25,3.25v-1.37h-3.25v1.37h3.25Zm10.67,8.09h-12.49v1.43h12.49v-1.43Zm-3.81,5.12c.43-.54,.86-1.16,1.29-1.85h-7.34c.49,.82,.83,1.44,1.04,1.85h5.01Zm-4.12-17.7v1.23h3.36v-1.23h-3.36Zm3.36,4.48v-1.37h-3.36v1.37h3.36Zm2.74-4.48v1.23h3.25v-1.23h-3.25Zm0,4.48h3.25v-1.37h-3.25v1.37Z"/><path class="l" d="M1108.88,139.88h-17.98v3.56h-2.8v-5.82h10.28v-2.32h3.02v2.32h10.28v5.82h-2.8v-3.56Zm-16.74,19.82v1.09h-2.88v-10.56h21.28v10.56h-2.88v-1.09h-15.51Zm1.93-10.36h-2.97v-5.35h17.58v5.35h-14.62Zm-2.13-6.3v-2.13h15.9v2.13h-15.9Zm.2,10.89h6.38v-1.51h-6.38v1.51Zm0,2.07v1.57h6.38v-1.57h-6.38Zm1.93-8.51h11.65v-1.43h-11.65v1.43Zm7.2,6.44h6.38v-1.51h-6.38v1.51Zm0,2.07v1.57h6.38v-1.57h-6.38Z"/><path class="l" d="M1120.39,136.33l2.72,.34c-.26,1.29-.54,2.58-.84,3.86,1.59-.15,3.1-.33,4.54-.53l.2,2.52c-1.92,.26-3.72,.46-5.4,.59-1.18,4.35-2.74,8.84-4.7,13.47l-2.66-.81c1.83-4.35,3.31-8.51,4.45-12.49-1.23,.06-2.48,.08-3.75,.08v-2.52c1.68,0,3.16-.04,4.45-.11,.37-1.49,.71-2.96,1.01-4.4Zm11.84,15.71c1.49,.88,3.36,2.29,5.6,4.23l-1.71,2.04c-1.44-1.27-2.72-2.31-3.86-3.14-.13,1.7-.63,2.93-1.51,3.7-.88,.76-2.23,1.15-4.06,1.15s-3.34-.44-4.41-1.32c-1.07-.88-1.61-2.07-1.61-3.58s.54-2.59,1.61-3.46c1.07-.87,2.54-1.3,4.41-1.3,.88,0,1.75,.12,2.6,.36-.11-2.43-.07-4.33,.11-5.71l2.88,.06c-.17,1.31-.2,3.41-.08,6.3,0,.04,0,.13,.01,.28,0,.15,.01,.28,.01,.39Zm-2.83,1.46c-.95-.41-1.9-.62-2.86-.62s-1.66,.2-2.17,.6c-.51,.4-.77,.95-.77,1.64,0,.77,.25,1.35,.76,1.76,.5,.41,1.23,.62,2.18,.62,1.12,0,1.88-.21,2.27-.64,.39-.43,.59-1.29,.59-2.58v-.78Zm1.09-13.78c2.8,.67,5.52,1.56,8.15,2.66l-.95,2.52c-2.65-1.12-5.33-2.01-8.04-2.66l.84-2.52Z"/><path class="l" d="M1024.05,179.47h23.24v2.52h-9.18c-.08,3.29-.85,5.86-2.32,7.71-1.47,1.86-3.83,3.21-7.06,4.05l-.87-2.52c2.58-.75,4.42-1.83,5.54-3.26,1.12-1.43,1.69-3.42,1.71-5.98h-11.06v-2.52Zm3.36-4.62v-2.52h14v2.52h-14Zm13.86-4.82l2.07-1.06c.78,1.34,1.53,2.73,2.24,4.14l-2.07,1.04c-.67-1.31-1.42-2.68-2.24-4.12Zm3.98-.42l2.13-1.06c.88,1.51,1.64,2.92,2.3,4.23l-2.13,1.04c-.56-1.06-1.33-2.46-2.3-4.2Z"/><path class="l" d="M1051.78,177.77c2.88,.99,5.53,2.01,7.98,3.05l-1.01,2.38c-2.41-1.03-5.03-2.03-7.87-3.02l.9-2.41Zm18.59-2.27l2.66,.7c-1.12,5.28-3.29,9.26-6.5,11.94s-7.83,4.36-13.86,5.05l-.45-2.58c5.41-.67,9.52-2.18,12.32-4.52,2.8-2.34,4.74-5.88,5.82-10.6Zm-16.13-3.86c2.67,.91,5.36,1.94,8.06,3.08l-1.01,2.44c-2.45-1.03-5.11-2.05-7.98-3.08l.92-2.44Zm12.49-1.32l2.07-1.06c.79,1.34,1.53,2.73,2.24,4.14l-2.07,1.04c-.67-1.31-1.42-2.68-2.24-4.12Zm3.98-.42l2.13-1.06c.88,1.51,1.64,2.92,2.29,4.23l-2.13,1.04c-.56-1.06-1.33-2.46-2.3-4.2Z"/><path class="l" d="M1082.65,180.87l1.32-2.21c2.65,1.49,5.1,3,7.36,4.51,1.08-2.04,1.76-4.5,2.04-7.39h-9.74c-1.12,2.88-2.99,5.54-5.6,8.01l-1.79-1.76c3.4-3.4,5.39-7.29,5.99-11.68l2.63,.2c-.09,1.01-.24,1.93-.45,2.77h11.87v2.46c-.54,5.38-2.23,9.47-5.07,12.29-2.84,2.82-7.07,4.57-12.68,5.26l-.62-2.58c5.51-.62,9.5-2.43,11.98-5.43-2.41-1.6-4.83-3.09-7.25-4.45Z"/><path class="l" d="M1103,171.77h2.91v5.18c0,2.71-.09,4.91-.28,6.59s-.54,3.17-1.05,4.44c-.51,1.27-1.18,2.29-1.99,3.07s-1.9,1.54-3.26,2.28l-1.74-2.24c1.53-.82,2.65-1.66,3.35-2.52,.7-.86,1.22-2.17,1.55-3.92,.34-1.75,.5-4.32,.5-7.7v-5.18Zm16.8,8.23l2.72,.62c-.56,3.29-1.62,5.91-3.16,7.88-1.55,1.97-3.67,3.44-6.36,4.41h-2.94v-21.14h2.94v17.95c3.56-1.36,5.83-4.6,6.8-9.72Z"/><path class="l" d="M1127.47,194.26c-.45,0-1.34-.05-2.69-.14l-.11-2.38c1.31,.09,2.1,.14,2.38,.14,.26,0,.4-.07,.42-.2,.04-.19,.06-.61,.06-1.26v-4.65c-.95,.24-1.9,.47-2.86,.67l-.2-2.6c1.1-.21,2.12-.43,3.05-.67v-6.24h-3.02v-2.49h3.02v-4.59h2.88v4.59h3.02v2.49h-3.02v5.43c.63-.21,1.55-.53,2.74-.98l.39,2.44c-.97,.39-2.02,.77-3.14,1.12v5.35c0,.78,0,1.31-.03,1.57-.04,.47-.08,.82-.14,1.06-.09,.37-.19,.62-.28,.73-.13,.17-.31,.3-.53,.39-.22,.09-.49,.16-.81,.2-.19,.02-.57,.03-1.15,.03Zm15.79-21.95h6.19v2.55h-12.43v6.52c0,2.54-.28,4.91-.84,7.11-.58,2.28-1.37,4.22-2.38,5.82l-2.16-2.07c.88-1.55,1.53-3.34,1.96-5.38,.41-1.98,.62-4.54,.62-7.7v-6.86h6.1v-3.08h2.94v3.08Zm.64,11.54l2.58-.81c1.23,3.29,2.35,6.83,3.36,10.64l-2.66,.78c-.07-.24-.15-.5-.22-.77-.08-.27-.15-.57-.24-.9-.08-.33-.15-.58-.21-.77-3.83,.8-7.37,1.33-10.64,1.57l-.22-2.55c.78-.07,1.38-.13,1.79-.17,1.27-4.83,2.39-9.84,3.36-15.01l2.83,.39c-.93,4.93-1.98,9.68-3.14,14.25,1.36-.17,3.14-.46,5.32-.87-.71-2.33-1.34-4.27-1.9-5.8Z"/><path class="l" d="M1176.73,182.05v2.41h-7.98c.76,1.48,1.72,2.78,2.86,3.92,.9-1.03,1.74-2.24,2.55-3.64l2.3,1.32c-.78,1.4-1.73,2.73-2.83,4,.91,.65,2.04,1.29,3.39,1.9l-1.29,2.44c-2.2-.92-4.17-2.26-5.91-4.03l.25,1.99c-3.1,.9-6.36,1.53-9.77,1.9l-.31-2.38c1.01-.11,1.72-.21,2.13-.28v-7.14h-1.82l-.03,.31c-.13,2.18-.21,3.44-.22,3.78-.07,.88-.18,1.75-.31,2.6-.11,.69-.22,1.24-.34,1.65-.11,.37-.28,.67-.5,.9-.22,.22-.43,.36-.62,.42-.19,.06-.46,.08-.81,.08-.99,0-2.62-.07-4.9-.2l-.03-2.55c1.64,.13,2.83,.2,3.56,.2,.35,0,.57-.11,.64-.34,.19-.45,.37-2.39,.56-5.82h-2.44c-.02,.21-.05,.51-.1,.92-.05,.41-.09,.73-.13,.95l-2.8-.2c.37-3.15,.65-6.57,.84-10.25h4.79v-3.78h-5.29v-2.46h8.09v8.62h-4.87c-.06,.99-.16,2.25-.31,3.78h5.04v-1.04h1.99v-11.59h13.8v2.41h-10.92v1.57h10.22v2.13h-10.22v1.65h10.22v2.13h-10.22v1.71h11.73Zm-7.2,8.04c-1.62-1.7-2.86-3.58-3.7-5.63h-.84v6.66c1.27-.22,2.78-.57,4.54-1.04Z"/></g></g></svg>