<?xml version="1.0" encoding="UTF-8"?>
<svg id="_レイヤー_1" data-name="レイヤー 1" xmlns="http://www.w3.org/2000/svg" xmlns:xlink="http://www.w3.org/1999/xlink" viewBox="0 0 240 100">
  <defs>
    <style>
      .cls-1 {
        fill: url(#_新規グラデーションスウォッチ_2-18);
      }

      .cls-1, .cls-2, .cls-3, .cls-4, .cls-5, .cls-6, .cls-7, .cls-8, .cls-9, .cls-10, .cls-11, .cls-12, .cls-13, .cls-14, .cls-15, .cls-16, .cls-17, .cls-18, .cls-19, .cls-20, .cls-21, .cls-22 {
        stroke-width: 0px;
      }

      .cls-2 {
        fill: url(#_新規グラデーションスウォッチ_2-12);
      }

      .cls-3 {
        fill: url(#_新規グラデーションスウォッチ_2-11);
      }

      .cls-4 {
        fill: url(#_新規グラデーションスウォッチ_2-10);
      }

      .cls-5 {
        fill: url(#_新規グラデーションスウォッチ_2-16);
      }

      .cls-6 {
        fill: url(#_新規グラデーションスウォッチ_2-13);
      }

      .cls-7 {
        fill: url(#_新規グラデーションスウォッチ_2-14);
      }

      .cls-8 {
        fill: url(#_新規グラデーションスウォッチ_2-17);
      }

      .cls-9 {
        fill: url(#_新規グラデーションスウォッチ_2-19);
      }

      .cls-10 {
        fill: url(#_新規グラデーションスウォッチ_2-20);
      }

      .cls-11 {
        fill: url(#_新規グラデーションスウォッチ_2-22);
      }

      .cls-12 {
        fill: url(#_新規グラデーションスウォッチ_2-21);
      }

      .cls-13 {
        fill: url(#_新規グラデーションスウォッチ_2-15);
      }

      .cls-14 {
        fill: url(#_新規グラデーションスウォッチ_2);
      }

      .cls-15 {
        fill: url(#_新規グラデーションスウォッチ_2-7);
      }

      .cls-16 {
        fill: url(#_新規グラデーションスウォッチ_2-5);
      }

      .cls-17 {
        fill: url(#_新規グラデーションスウォッチ_2-6);
      }

      .cls-18 {
        fill: url(#_新規グラデーションスウォッチ_2-4);
      }

      .cls-19 {
        fill: url(#_新規グラデーションスウォッチ_2-8);
      }

      .cls-20 {
        fill: url(#_新規グラデーションスウォッチ_2-2);
      }

      .cls-21 {
        fill: url(#_新規グラデーションスウォッチ_2-9);
      }

      .cls-22 {
        fill: url(#_新規グラデーションスウォッチ_2-3);
      }

      .cls-23 {
        opacity: .79;
      }
    </style>
    <linearGradient id="_新規グラデーションスウォッチ_2" data-name="新規グラデーションスウォッチ 2" x1="37.93" y1="-32.07" x2="202.07" y2="132.07" gradientUnits="userSpaceOnUse">
      <stop offset="0" stop-color="#7debd7"/>
      <stop offset="1" stop-color="#63aeb9"/>
    </linearGradient>
    <linearGradient id="_新規グラデーションスウォッチ_2-2" data-name="新規グラデーションスウォッチ 2" x1="53.66" y1="21.8" x2="79.49" y2="47.63" xlink:href="#_新規グラデーションスウォッチ_2"/>
    <linearGradient id="_新規グラデーションスウォッチ_2-3" data-name="新規グラデーションスウォッチ 2" x1="81.72" y1="22.83" x2="112.71" y2="53.83" xlink:href="#_新規グラデーションスウォッチ_2"/>
    <linearGradient id="_新規グラデーションスウォッチ_2-4" data-name="新規グラデーションスウォッチ 2" x1="114.3" y1="22.83" x2="145.29" y2="53.83" xlink:href="#_新規グラデーションスウォッチ_2"/>
    <linearGradient id="_新規グラデーションスウォッチ_2-5" data-name="新規グラデーションスウォッチ 2" x1="153.8" y1="37.41" x2="168.67" y2="52.28" xlink:href="#_新規グラデーションスウォッチ_2"/>
    <linearGradient id="_新規グラデーションスウォッチ_2-6" data-name="新規グラデーションスウォッチ 2" x1="168.43" y1="33.16" x2="188.29" y2="53.02" xlink:href="#_新規グラデーションスウォッチ_2"/>
    <linearGradient id="_新規グラデーションスウォッチ_2-7" data-name="新規グラデーションスウォッチ 2" x1="32.65" y1="74.57" x2="42.34" y2="84.26" xlink:href="#_新規グラデーションスウォッチ_2"/>
    <linearGradient id="_新規グラデーションスウォッチ_2-8" data-name="新規グラデーションスウォッチ 2" x1="43.76" y1="77.6" x2="51.56" y2="85.4" xlink:href="#_新規グラデーションスウォッチ_2"/>
    <linearGradient id="_新規グラデーションスウォッチ_2-9" data-name="新規グラデーションスウォッチ 2" x1="53.57" y1="77.54" x2="61.83" y2="85.8" xlink:href="#_新規グラデーションスウォッチ_2"/>
    <linearGradient id="_新規グラデーションスウォッチ_2-10" data-name="新規グラデーションスウォッチ 2" x1="64.26" y1="77.96" x2="71.74" y2="85.44" xlink:href="#_新規グラデーションスウォッチ_2"/>
    <linearGradient id="_新規グラデーションスウォッチ_2-11" data-name="新規グラデーションスウォッチ 2" x1="74.71" y1="76.16" x2="85.75" y2="87.21" xlink:href="#_新規グラデーションスウォッチ_2"/>
    <linearGradient id="_新規グラデーションスウォッチ_2-12" data-name="新規グラデーションスウォッチ 2" x1="87.19" y1="75.67" x2="94.57" y2="83.05" xlink:href="#_新規グラデーションスウォッチ_2"/>
    <linearGradient id="_新規グラデーションスウォッチ_2-13" data-name="新規グラデーションスウォッチ 2" x1="95.09" y1="78.05" x2="101.5" y2="84.46" xlink:href="#_新規グラデーションスウォッチ_2"/>
    <linearGradient id="_新規グラデーションスウォッチ_2-14" data-name="新規グラデーションスウォッチ 2" x1="106.48" y1="74.51" x2="117.56" y2="85.59" xlink:href="#_新規グラデーションスウォッチ_2"/>
    <linearGradient id="_新規グラデーションスウォッチ_2-15" data-name="新規グラデーションスウォッチ 2" x1="119.18" y1="77.96" x2="126.66" y2="85.44" xlink:href="#_新規グラデーションスウォッチ_2"/>
    <linearGradient id="_新規グラデーションスウォッチ_2-16" data-name="新規グラデーションスウォッチ 2" x1="128.25" y1="77.54" x2="136.51" y2="85.8" xlink:href="#_新規グラデーションスウォッチ_2"/>
    <linearGradient id="_新規グラデーションスウォッチ_2-17" data-name="新規グラデーションスウォッチ 2" x1="138.73" y1="78.56" x2="146.97" y2="86.81" xlink:href="#_新規グラデーションスウォッチ_2"/>
    <linearGradient id="_新規グラデーションスウォッチ_2-18" data-name="新規グラデーションスウォッチ 2" x1="149.46" y1="78.11" x2="156.06" y2="84.71" xlink:href="#_新規グラデーションスウォッチ_2"/>
    <linearGradient id="_新規グラデーションスウォッチ_2-19" data-name="新規グラデーションスウォッチ 2" x1="162.18" y1="76.38" x2="168.24" y2="82.44" xlink:href="#_新規グラデーションスウォッチ_2"/>
    <linearGradient id="_新規グラデーションスウォッチ_2-20" data-name="新規グラデーションスウォッチ 2" x1="173.77" y1="76.99" x2="183.32" y2="86.54" xlink:href="#_新規グラデーションスウォッチ_2"/>
    <linearGradient id="_新規グラデーションスウォッチ_2-21" data-name="新規グラデーションスウォッチ 2" x1="184.28" y1="74.57" x2="193.97" y2="84.26" xlink:href="#_新規グラデーションスウォッチ_2"/>
    <linearGradient id="_新規グラデーションスウォッチ_2-22" data-name="新規グラデーションスウォッチ 2" x1="197.7" y1="75.15" x2="206.23" y2="83.68" xlink:href="#_新規グラデーションスウォッチ_2"/>
  </defs>
  <g class="cls-23">
    <path class="cls-14" d="M230,2c4.41,0,8,3.59,8,8v80c0,4.41-3.59,8-8,8H10c-4.41,0-8-3.59-8-8V10C2,5.59,5.59,2,10,2h220M230,0H10C4.48,0,0,4.48,0,10v80c0,5.52,4.48,10,10,10h220c5.52,0,10-4.48,10-10V10c0-5.52-4.48-10-10-10h0Z"/>
  </g>
  <g>
    <path class="cls-20" d="M62.96,56.36V22.04l-8.7,7.56v-8.4l8.7-7.56h7.8v42.72h-7.8Z"/>
    <path class="cls-22" d="M84.2,56.36v-7.02l15.96-18.54c1.56-1.86,2.22-3.18,2.22-5.16,0-3.18-1.86-5.34-5.16-5.34-2.58,0-5.22,1.32-5.22,5.46h-7.8c0-7.8,5.7-12.48,13.02-12.48s12.96,4.74,12.96,12.42c0,4.14-1.62,6.36-4.56,9.78l-11.94,13.86h16.5v7.02h-25.98Z"/>
    <path class="cls-18" d="M116.78,56.36v-7.02l15.96-18.54c1.56-1.86,2.22-3.18,2.22-5.16,0-3.18-1.86-5.34-5.16-5.34-2.58,0-5.22,1.32-5.22,5.46h-7.8c0-7.8,5.7-12.48,13.02-12.48s12.96,4.74,12.96,12.42c0,4.14-1.62,6.36-4.56,9.78l-11.94,13.86h16.5v7.02h-25.98Z"/>
    <path class="cls-16" d="M161.53,55.82v-1.94c-1.37,1.66-2.84,2.16-4.82,2.16-1.84,0-3.46-.61-4.46-1.62-1.76-1.8-2.05-4.72-2.05-7.74s.29-5.9,2.05-7.7c1.01-1.01,2.59-1.62,4.43-1.62,1.94,0,3.46.47,4.79,2.05v-9.21h3.67v25.63h-3.6ZM157.68,40.63c-3.35,0-3.82,2.81-3.82,6.05s.47,6.08,3.82,6.08,3.78-2.84,3.78-6.08-.47-6.05-3.78-6.05Z"/>
    <path class="cls-17" d="M181.76,55.82h-10.37v-25.63h9.97c4.75,0,7.74,2.7,7.74,7.02,0,2.77-1.73,4.75-3.46,5.44,1.98.79,3.85,2.7,3.85,5.94,0,4.72-3.2,7.23-7.74,7.23ZM181.04,33.68h-5.76v7.34h5.76c2.48,0,4.18-1.3,4.18-3.67s-1.69-3.67-4.18-3.67ZM181.4,44.51h-6.12v7.81h6.12c2.7,0,4.21-1.66,4.21-3.92s-1.51-3.89-4.21-3.89Z"/>
  </g>
  <g>
    <path class="cls-15" d="M42.35,84.2c-.9,1.12-2.04,1.62-3.64,1.62h-4.5v-12.82h4.5c1.6,0,2.74.5,3.64,1.62.94,1.15.97,2.74.97,4.79s-.04,3.64-.97,4.79ZM40.7,75.62c-.54-.63-1.28-.88-2.2-.88h-2.34v9.36h2.34c.92,0,1.66-.25,2.2-.88.63-.7.68-1.89.68-3.8s-.05-3.1-.68-3.8Z"/>
    <path class="cls-19" d="M48.85,87.64c-.18.5-.4.86-.67,1.13-.5.5-1.17.67-1.87.67h-.74v-1.66h.47c.77,0,1.04-.23,1.31-.97l.5-1.42-3.19-8.7h1.95l2.18,6.43,2.12-6.43h1.96l-4.03,10.95Z"/>
    <path class="cls-21" d="M59.97,85.82v-5.56c0-1.42-.81-2.04-1.84-2.04s-1.89.63-1.89,2.04v5.56h-1.84v-9.13h1.8v.92c.63-.68,1.51-1.03,2.43-1.03s1.71.31,2.25.83c.7.68.92,1.55.92,2.57v5.83h-1.84Z"/>
    <path class="cls-4" d="M69.55,85.82v-.83c-.67.67-1.3.94-2.43.94s-1.89-.27-2.45-.83c-.47-.49-.72-1.19-.72-1.96,0-1.53,1.06-2.63,3.17-2.63h2.39v-.65c0-1.17-.56-1.71-2-1.71-.97,0-1.48.25-2,.9l-1.19-1.13c.85-1.01,1.73-1.33,3.26-1.33,2.52,0,3.76,1.08,3.76,3.13v6.1h-1.8ZM69.51,81.79h-2.11c-1.12,0-1.67.47-1.67,1.31s.52,1.3,1.73,1.3c.65,0,1.17-.07,1.66-.52.29-.27.4-.7.4-1.35v-.74Z"/>
    <path class="cls-3" d="M85.3,85.82v-5.56c0-1.42-.81-2.04-1.84-2.04s-1.89.63-1.89,1.95v5.65h-1.84v-5.56c0-1.42-.81-2.04-1.84-2.04s-1.89.63-1.89,2.04v5.56h-1.84v-9.13h1.8v.92c.61-.67,1.51-1.03,2.43-1.03,1.13,0,2.02.45,2.59,1.33.74-.9,1.66-1.33,2.86-1.33.94,0,1.76.31,2.3.83.7.68.97,1.55.97,2.57v5.83h-1.84Z"/>
    <path class="cls-2" d="M89.91,74.89v-1.94h1.94v1.94h-1.94ZM89.96,85.82v-9.13h1.84v9.13h-1.84Z"/>
    <path class="cls-6" d="M98.31,85.93c-2.05,0-4.07-1.26-4.07-4.68s2.02-4.66,4.07-4.66c1.26,0,2.14.36,3.01,1.28l-1.26,1.22c-.58-.63-1.03-.86-1.75-.86s-1.3.29-1.69.81c-.4.5-.54,1.15-.54,2.21s.14,1.73.54,2.23c.4.52.99.81,1.69.81s1.17-.23,1.75-.86l1.26,1.21c-.86.92-1.75,1.3-3.01,1.3Z"/>
    <path class="cls-7" d="M115.05,85.82l-2.7-5.4h-2.43v5.4h-1.94v-12.82h4.97c2.43,0,3.98,1.57,3.98,3.74,0,1.84-1.12,3.01-2.56,3.4l2.95,5.67h-2.27ZM112.8,74.75h-2.88v4.02h2.88c1.3,0,2.18-.74,2.18-2s-.88-2.02-2.18-2.02Z"/>
    <path class="cls-13" d="M124.47,85.82v-.83c-.67.67-1.3.94-2.43.94s-1.89-.27-2.45-.83c-.47-.49-.72-1.19-.72-1.96,0-1.53,1.06-2.63,3.17-2.63h2.39v-.65c0-1.17-.56-1.71-2-1.71-.97,0-1.48.25-2,.9l-1.19-1.13c.85-1.01,1.73-1.33,3.26-1.33,2.52,0,3.76,1.08,3.76,3.13v6.1h-1.8ZM124.43,81.79h-2.11c-1.12,0-1.67.47-1.67,1.31s.52,1.3,1.73,1.3c.65,0,1.17-.07,1.66-.52.29-.27.4-.7.4-1.35v-.74Z"/>
    <path class="cls-5" d="M134.65,85.82v-5.56c0-1.42-.81-2.04-1.84-2.04s-1.89.63-1.89,2.04v5.56h-1.84v-9.13h1.8v.92c.63-.68,1.51-1.03,2.43-1.03s1.71.31,2.25.83c.7.68.92,1.55.92,2.57v5.83h-1.84Z"/>
    <path class="cls-8" d="M142.38,89.62c-1.39,0-2.27-.32-3.22-1.21l1.17-1.17c.58.54,1.08.81,1.98.81,1.55,0,2.14-1.1,2.14-2.32v-1.17c-.67.79-1.42,1.04-2.36,1.04s-1.67-.31-2.18-.81c-.88-.88-1.03-2.16-1.03-3.71s.14-2.83,1.03-3.71c.5-.5,1.28-.79,2.2-.79.97,0,1.71.25,2.39,1.08v-.97h1.78v9.08c0,2.23-1.48,3.85-3.91,3.85ZM142.59,78.23c-1.66,0-1.87,1.42-1.87,2.86s.22,2.86,1.87,2.86,1.85-1.42,1.85-2.86-.2-2.86-1.85-2.86Z"/>
    <path class="cls-1" d="M150.55,81.79c0,1.58.81,2.56,2.32,2.56,1.03,0,1.57-.29,2.21-.94l1.17,1.1c-.94.94-1.82,1.42-3.42,1.42-2.29,0-4.11-1.21-4.11-4.68,0-2.97,1.53-4.66,3.87-4.66s3.87,1.76,3.87,4.43v.77h-5.92ZM154.4,79.27c-.31-.68-.94-1.15-1.8-1.15s-1.51.47-1.82,1.15c-.18.4-.22.68-.23,1.24h4.11c-.04-.56-.07-.85-.25-1.24Z"/>
    <path class="cls-9" d="M163.52,87.16h-1.76l5.13-15.48h1.76l-5.13,15.48Z"/>
    <path class="cls-10" d="M181.96,85.82l-.88-2.58h-5.06l-.88,2.58h-2.07l4.7-12.82h1.57l4.7,12.82h-2.07ZM178.59,75.9l-2,5.69h3.94l-1.94-5.69Z"/>
    <path class="cls-12" d="M193.98,84.2c-.9,1.12-2.04,1.62-3.64,1.62h-4.5v-12.82h4.5c1.6,0,2.74.5,3.64,1.62.94,1.15.97,2.74.97,4.79s-.04,3.64-.97,4.79ZM192.33,75.62c-.54-.63-1.28-.88-2.2-.88h-2.34v9.36h2.34c.92,0,1.66-.25,2.2-.88.63-.7.68-1.89.68-3.8s-.05-3.1-.68-3.8Z"/>
    <path class="cls-11" d="M201.97,85.93c-1.4,0-2.48-.47-3.31-1.3-1.24-1.26-1.3-2.54-1.3-5.22s.05-3.96,1.3-5.22c.83-.83,1.91-1.3,3.31-1.3,2.36,0,4.12,1.4,4.57,3.94h-1.98c-.29-1.31-1.17-2.21-2.59-2.21-.77,0-1.42.29-1.89.79-.65.68-.77,1.46-.77,4s.13,3.31.77,4c.47.5,1.12.79,1.89.79,1.42,0,2.32-.9,2.63-2.21h1.94c-.45,2.54-2.23,3.94-4.57,3.94Z"/>
  </g>
</svg>