<?xml version="1.0" encoding="UTF-8"?>
<svg xmlns="http://www.w3.org/2000/svg" width="500" height="100" viewBox="0 0 500 100">
  <defs>
    <style>
      .cls-1 {
        fill: #50bc82;
      }
    </style>
  </defs>
  <g id="iD44_mk2" data-name="iD44 mk2">
    <g>
      <path class="cls-1" d="M288.25,68.42h5.02v-1.56h1.03v1.56h2.15v.92h-2.15v4.28c0,.64-.08,1.04-.25,1.2-.16,.16-.57,.24-1.21,.24-.47,0-1.03-.03-1.68-.1l.06-.94c.61,.07,1.11,.1,1.52,.1,.23,0,.37-.03,.43-.09,.06-.06,.09-.21,.09-.44v-3.19c-1.43,1.43-2.94,2.6-4.55,3.51l-.47-.84c1.71-.96,3.29-2.2,4.76-3.73h-4.76v-.92Z"/>
      <path class="cls-1" d="M298.02,68.38l.49-.93c1.13,.55,2.15,1.1,3.08,1.65l-.53,.93c-1.11-.65-2.13-1.2-3.04-1.65Zm6.87,0l1,.22c-.68,3.88-3.18,6.01-7.5,6.39l-.15-1.02c1.94-.19,3.45-.73,4.52-1.64,1.08-.91,1.79-2.22,2.12-3.95Z"/>
      <path class="cls-1" d="M307.1,70.06h7.8v.2c0,3.09-2.07,4.77-6.22,5.03l-.16-.95c1.51-.09,2.71-.4,3.62-.92s1.45-1.32,1.62-2.41h-6.67v-.96Zm.75-1.62v-.95h6.4v.95h-6.4Z"/>
      <path class="cls-1" d="M316.4,70.97c1.42-.2,2.81-.63,4.16-1.29,1.35-.66,2.46-1.44,3.33-2.35l.65,.74c-.77,.8-1.75,1.53-2.94,2.18v5.07h-1.12v-4.52c-1.3,.57-2.61,.95-3.92,1.14l-.16-.97Z"/>
      <path class="cls-1" d="M326.14,68.38l.49-.93c1.13,.55,2.15,1.1,3.08,1.65l-.53,.93c-1.11-.65-2.13-1.2-3.04-1.65Zm6.87,0l1,.22c-.68,3.88-3.18,6.01-7.5,6.39l-.15-1.02c1.94-.19,3.45-.73,4.52-1.64,1.08-.91,1.79-2.22,2.12-3.95Z"/>
      <path class="cls-1" d="M340.11,74.19c.77-.09,1.36-.39,1.77-.9,.42-.51,.62-1.19,.62-2.04,0-.77-.25-1.41-.74-1.93-.49-.52-1.13-.8-1.9-.86-.15,1.28-.34,2.36-.54,3.23-.21,.87-.45,1.54-.71,1.99-.26,.45-.52,.77-.79,.95-.26,.18-.56,.27-.88,.27-.51,0-.98-.3-1.41-.9-.43-.6-.64-1.33-.64-2.2,0-1.27,.43-2.31,1.3-3.11,.87-.8,2-1.19,3.4-1.19,1.13,0,2.06,.35,2.79,1.06,.74,.71,1.1,1.6,1.1,2.69s-.29,2.04-.86,2.73c-.58,.69-1.35,1.08-2.33,1.17l-.2-.95Zm-1.28-5.69c-.89,.14-1.6,.5-2.13,1.09-.53,.59-.79,1.32-.79,2.2,0,.57,.12,1.06,.36,1.47,.24,.42,.47,.62,.7,.62,.11,0,.22-.04,.33-.13s.24-.26,.38-.51c.14-.25,.28-.57,.41-.96,.13-.39,.26-.91,.39-1.56s.25-1.4,.35-2.23Z"/>
      <path class="cls-1" d="M256.37,86.35c2.51,.09,5.02,.35,7.53,.8l-.11,1.06c-2.54-.45-5.03-.71-7.47-.8l.05-1.06Zm.45-5.97c2.33,.09,4.59,.29,6.76,.6l-.12,1.04c-2.29-.33-4.52-.53-6.69-.6l.05-1.04Zm.43,2.85c1.95,.08,3.87,.29,5.78,.62l-.14,1.06c-1.93-.33-3.84-.54-5.72-.62l.08-1.06Z"/>
      <path class="cls-1" d="M265.47,82.52l.95-.21c.24,.82,.48,1.71,.72,2.66l-.97,.21c-.21-.88-.45-1.77-.7-2.66Zm5.52-.45l1,.05c-.04,2.04-.45,3.51-1.21,4.42s-2.07,1.47-3.9,1.68l-.2-.92c.83-.11,1.5-.28,2.03-.49,.52-.21,.96-.53,1.3-.94,.35-.41,.59-.92,.74-1.52s.23-1.37,.25-2.29Zm-3.35,.18l.97-.21c.22,.77,.46,1.68,.72,2.75l-.97,.21c-.21-.87-.45-1.79-.72-2.75Z"/>
      <path class="cls-1" d="M280.14,81.94h-3.63c-.39,1.09-1.06,2.08-1.99,2.96l-.74-.65c.59-.57,1.07-1.22,1.44-1.96,.37-.74,.6-1.51,.69-2.32l1.02,.07c-.03,.31-.08,.63-.15,.94h4.48v.2c0,2.27-.53,3.96-1.58,5.06-1.06,1.1-2.75,1.75-5.07,1.94l-.15-.95c1.95-.19,3.36-.68,4.23-1.49,.87-.8,1.36-2.08,1.45-3.82Z"/>
      <path class="cls-1" d="M283.43,81.56v-.97h6.3v.97c-.47,1.09-1.15,2.12-2.05,3.11,1.01,.92,1.97,1.85,2.89,2.79l-.73,.71c-.96-.98-1.92-1.91-2.87-2.79-1.17,1.09-2.48,1.99-3.94,2.7l-.47-.86c1.41-.72,2.63-1.56,3.66-2.54,1.03-.97,1.81-2.01,2.35-3.12h-5.14Z"/>
      <path class="cls-1" d="M295.83,84.99v-1.5h1.5v1.5h-1.5Z"/>
      <path class="cls-1" d="M302.98,80.79h7.1v6.9h-7.1v-.95h6.05v-5h-6.05v-.95Z"/>
      <path class="cls-1" d="M311.83,83.06h7.8v.2c0,3.09-2.07,4.77-6.22,5.03l-.16-.95c1.51-.09,2.71-.4,3.62-.92,.91-.52,1.45-1.32,1.62-2.41h-6.67v-.96Zm.75-1.62v-.95h6.4v.95h-6.4Z"/>
      <path class="cls-1" d="M322.2,83.47l.99,.34c-.49,1.2-1.04,2.38-1.65,3.53l-.96-.43c.59-1.14,1.13-2.29,1.62-3.44Zm2.32-.98h-3.65v-.95h3.65v-1.6h1.1v1.6h3.45v.95h-3.45v4.5c0,.59-.08,.96-.22,1.11-.15,.16-.51,.24-1.08,.24-.47,0-1-.04-1.61-.13l.11-.94c.51,.07,.94,.11,1.27,.11,.21,0,.34-.02,.38-.07,.04-.05,.06-.2,.06-.46v-4.36Zm2.23,1.33l.96-.4c.6,1.2,1.15,2.39,1.65,3.57l-.98,.4c-.53-1.25-1.07-2.44-1.63-3.57Zm.22-3.95l.74-.38c.28,.48,.55,.97,.8,1.48l-.74,.37c-.24-.47-.51-.96-.8-1.47Zm1.42-.15l.76-.38c.31,.54,.59,1.04,.82,1.51l-.76,.37c-.2-.38-.47-.88-.82-1.5Z"/>
      <path class="cls-1" d="M331.42,80.34h1.13v6.81c1.35-.11,2.44-.48,3.27-1.12,.83-.64,1.48-1.59,1.93-2.86l.97,.39c-.58,1.6-1.45,2.77-2.6,3.52s-2.65,1.11-4.5,1.11h-.2v-7.85Z"/>
      <path class="cls-1" d="M340.06,84.76v-1.05h8.2v1.05h-8.2Z"/>
      <path class="cls-1" d="M349.97,82.69c.9,.16,1.99,.37,3.28,.63l-.19,.97c-1.21-.25-2.31-.46-3.28-.63l.19-.97Zm6.87-1.11l1,.17c-.37,2.11-1.14,3.66-2.3,4.65-1.16,.99-2.89,1.59-5.2,1.79l-.15-1c2.11-.18,3.67-.69,4.66-1.52,.99-.84,1.66-2.2,1.99-4.08Zm-6.42-1.34c.95,.15,2.08,.36,3.4,.63l-.19,.97c-1.32-.27-2.45-.48-3.4-.63l.19-.97Z"/>
      <path class="cls-1" d="M359.65,82.16h5.95v5.76h-5.95v-.89h4.88v-1.72h-4.46v-.88h4.46v-1.39h-4.88v-.88Z"/>
      <path class="cls-1" d="M367.73,81.38l.49-.93c1.13,.55,2.15,1.1,3.08,1.65l-.53,.93c-1.11-.65-2.13-1.2-3.04-1.65Zm6.87,0l1,.22c-.68,3.88-3.18,6.01-7.5,6.39l-.15-1.02c1.94-.19,3.45-.73,4.52-1.64,1.08-.91,1.79-2.22,2.12-3.95Z"/>
    </g>
    <g>
      <path class="cls-1" d="M23.84,67.79h7.1v6.9h-7.1v-.95h6.05v-5h-6.05v-.95Z"/>
      <path class="cls-1" d="M32.86,68.38l.49-.93c1.13,.55,2.15,1.1,3.08,1.65l-.53,.93c-1.11-.65-2.13-1.2-3.04-1.65Zm6.87,0l1,.22c-.68,3.88-3.18,6.01-7.5,6.39l-.15-1.02c1.94-.19,3.45-.73,4.52-1.64,1.08-.91,1.79-2.22,2.12-3.95Z"/>
      <path class="cls-1" d="M42.3,67.44h1.07v2.92c1.62-.27,3.21-.65,4.76-1.14-.43-.28-.65-.67-.65-1.18,0-.39,.14-.72,.41-.99s.6-.41,.99-.41,.72,.14,.99,.41c.27,.27,.41,.6,.41,.99,0,.31-.09,.59-.28,.84-.19,.25-.43,.41-.72,.5l.14,.46c-2,.69-4.02,1.19-6.05,1.52v1.4c0,.57,.09,.95,.27,1.13,.18,.18,.56,.27,1.13,.27,1.67,0,3.17-.05,4.5-.14l.03,.97c-1.6,.1-3.13,.15-4.6,.15-.92,0-1.55-.17-1.89-.5-.34-.34-.51-.97-.51-1.89v-5.3Zm7.04,1.06c.13-.13,.19-.28,.19-.46s-.06-.33-.19-.46-.28-.19-.46-.19-.33,.06-.46,.19c-.13,.13-.19,.28-.19,.46s.06,.33,.19,.46c.13,.13,.28,.19,.46,.19s.33-.06,.46-.19Z"/>
      <path class="cls-1" d="M52.22,69.24h4.68l-.31,4.71h1.56v.89h-6.76v-.89h4.1l.26-3.82h-3.53v-.89Z"/>
      <path class="cls-1" d="M59.35,71.76v-1.05h8.2v1.05h-8.2Z"/>
      <path class="cls-1" d="M71.04,66.93l1,.07c-.03,.27-.07,.56-.14,.89h4.64v.4c0,2.27-.53,3.96-1.58,5.06-1.06,1.1-2.74,1.75-5.06,1.94l-.15-.95c1.17-.11,2.13-.33,2.88-.64s1.35-.76,1.79-1.33c-1.15-.58-2.17-1.07-3.06-1.46l.48-.92c1.11,.49,2.15,.98,3.1,1.47,.29-.69,.46-1.57,.5-2.62h-3.79c-.4,1.15-1.06,2.15-1.97,3.01l-.71-.65c.57-.55,1.04-1.19,1.4-1.94,.36-.74,.59-1.52,.68-2.33Z"/>
      <path class="cls-1" d="M78.11,71.76v-1.05h8.2v1.05h-8.2Z"/>
      <path class="cls-1" d="M92.93,74.19c.77-.09,1.36-.39,1.77-.9,.42-.51,.62-1.19,.62-2.04,0-.77-.25-1.41-.74-1.93-.49-.52-1.13-.8-1.9-.86-.15,1.28-.33,2.36-.54,3.23-.21,.87-.45,1.54-.71,1.99-.26,.45-.52,.77-.79,.95-.26,.18-.56,.27-.88,.27-.51,0-.98-.3-1.41-.9-.43-.6-.64-1.33-.64-2.2,0-1.27,.43-2.31,1.3-3.11,.87-.8,2-1.19,3.4-1.19,1.13,0,2.06,.35,2.79,1.06,.74,.71,1.1,1.6,1.1,2.69s-.29,2.04-.86,2.73c-.58,.69-1.35,1.08-2.33,1.17l-.2-.95Zm-1.28-5.69c-.89,.14-1.6,.5-2.13,1.09-.53,.59-.79,1.32-.79,2.2,0,.57,.12,1.06,.35,1.47,.24,.42,.47,.62,.69,.62,.11,0,.22-.04,.33-.13s.24-.26,.38-.51c.14-.25,.28-.57,.41-.96s.26-.91,.4-1.56,.25-1.4,.35-2.23Z"/>
      <path class="cls-1" d="M22.7,81.42h5.02v-1.56h1.03v1.56h2.15v.92h-2.15v4.28c0,.64-.08,1.04-.24,1.2-.16,.16-.56,.24-1.21,.24-.47,0-1.03-.03-1.68-.1l.06-.94c.61,.07,1.11,.1,1.52,.1,.23,0,.37-.03,.43-.09,.06-.06,.09-.21,.09-.44v-3.19c-1.43,1.43-2.94,2.6-4.55,3.51l-.47-.84c1.71-.96,3.29-2.2,4.76-3.73h-4.76v-.92Z"/>
      <path class="cls-1" d="M31.65,84.76v-1.05h8.2v1.05h-8.2Z"/>
      <path class="cls-1" d="M41.15,83.29h8.5v.95h-3.35c0,1.17-.28,2.09-.82,2.76-.54,.67-1.41,1.15-2.6,1.43l-.31-.95c.97-.25,1.65-.62,2.04-1.12,.39-.49,.59-1.2,.6-2.13h-4.05v-.95Zm1.15-1.75v-.95h5.2v.95h-5.2Zm5.1-1.67l.74-.38c.28,.48,.55,.97,.8,1.48l-.74,.37c-.24-.47-.51-.96-.8-1.47Zm1.42-.15l.76-.38c.31,.54,.59,1.04,.82,1.51l-.76,.37c-.2-.38-.47-.88-.82-1.5Z"/>
      <path class="cls-1" d="M51.2,84.75c1.13-.16,2.24-.5,3.31-1.01,1.07-.51,1.97-1.13,2.68-1.85l.61,.7c-.65,.65-1.42,1.21-2.32,1.7v4.02h-1.07v-3.5c-.98,.42-2,.71-3.05,.86l-.16-.92Z"/>
      <path class="cls-1" d="M59.57,81.42h5.02v-1.56h1.03v1.56h2.15v.92h-2.15v4.28c0,.64-.08,1.04-.24,1.2-.16,.16-.56,.24-1.21,.24-.47,0-1.03-.03-1.68-.1l.06-.94c.61,.07,1.11,.1,1.52,.1,.23,0,.37-.03,.43-.09,.06-.06,.09-.21,.09-.44v-3.19c-1.43,1.43-2.94,2.6-4.55,3.51l-.47-.84c1.71-.96,3.29-2.2,4.76-3.73h-4.76v-.92Z"/>
      <path class="cls-1" d="M71.69,79.72l.99,.23c-.15,.41-.26,.72-.35,.94h4.26v.85h-4.6c-.11,.26-.26,.61-.46,1.06h.02c.44-.17,.84-.26,1.19-.26,.84,0,1.4,.41,1.69,1.24,.65-.14,1.39-.26,2.2-.36l.09,.87c-.85,.11-1.55,.22-2.09,.35,.07,.5,.11,1.08,.11,1.75h-1.05c0-.59-.02-1.09-.06-1.48-1.36,.42-2.04,.91-2.04,1.48,0,.16,.03,.3,.09,.41,.06,.11,.17,.22,.34,.32,.17,.1,.42,.17,.75,.22,.34,.05,.76,.08,1.27,.08,.67,0,1.49-.08,2.47-.23l.09,.9c-.8,.13-1.65,.2-2.56,.2-1.24,0-2.13-.15-2.68-.44s-.82-.75-.82-1.36c0-1.05,.97-1.87,2.91-2.46-.09-.24-.21-.41-.35-.5-.14-.09-.33-.14-.55-.14-.35,0-.76,.19-1.25,.56-.49,.37-.97,.9-1.46,1.59l-.83-.54c.79-1.09,1.44-2.18,1.93-3.27h-1.84v-.85h2.19c.16-.43,.3-.82,.41-1.17Z"/>
      <path class="cls-1" d="M86.68,79.99v3.17h.65v.88h-2.28c.16,.45,.36,.88,.59,1.31,.34-.33,.67-.72,.99-1.16l.7,.6c-.39,.53-.79,.99-1.2,1.36,.43,.61,.91,1.14,1.43,1.58l-.69,.77c-.53-.49-1.01-1.1-1.44-1.84-.15-.27-.28-.51-.38-.72v1.18c0,.29,0,.49,0,.58-.01,.18-.03,.31-.05,.4-.03,.13-.07,.22-.12,.28-.04,.05-.12,.11-.23,.16-.09,.04-.2,.07-.33,.08-.16,.01-.32,.02-.48,.02-.17,0-.52-.02-1.03-.05l-.04-.85c.47,.03,.76,.05,.89,.05,.17,0,.28-.03,.32-.09,.04-.06,.06-.23,.06-.5v-.72c-.65,.69-1.42,1.34-2.3,1.93l-.55-.67c-1.04,.32-2.01,.58-2.92,.77l-.11-.89c.49-.1,1.02-.23,1.6-.38v-2.82h-1.47v-.88h1.47v-.98h-.87v-.36c-.21,.19-.44,.38-.67,.55l-.21-1.02c.61-.47,1.21-1.1,1.81-1.91h.97c.53,.61,1.07,1.08,1.6,1.41l-.35,.88s-.06-.05-.11-.08c-.05-.03-.08-.06-.11-.07v.6h-1.06v.98h1.18v-.38h3.68v-.74h-3.23v-.83h3.23v-.73h-3.36v-.87h4.43Zm-8.32,4.99l.77-.21c.14,.47,.3,1.1,.47,1.9l-.77,.21c-.18-.81-.34-1.44-.47-1.9Zm1.01-3.26h2.12c-.43-.35-.82-.75-1.16-1.18-.29,.42-.61,.81-.96,1.18Zm4.66,3.56v-1.24h-2.05v.38h-1.23v2.53c.49-.14,.94-.28,1.36-.43l.06,.41c.68-.5,1.3-1.05,1.86-1.65Zm-2.24-.68l.83-.41c.28,.45,.53,.92,.76,1.4l-.79,.49c-.18-.37-.37-.74-.57-1.09-.11,.52-.24,1.04-.39,1.55l-.75-.2c.15-.5,.3-1.05,.43-1.64l.62,.13s-.04-.07-.07-.12-.06-.09-.07-.12Z"/>
      <path class="cls-1" d="M88.21,83.49v-.85h2.46c-.25-.49-.49-.94-.73-1.35h-1.43v-.87h3.7v-.93h1.1v.93h3.7v.87h-1.47c-.2,.49-.42,.94-.67,1.35h2.44v.85h-9.1Zm1.2,.57h6.7v4.63h-1.1v-.4h-4.5v.4h-1.1v-4.63Zm1.1,1.7h4.5v-.82h-4.5v.82Zm0,.83v.85h4.5v-.85h-4.5Zm3.17-3.95c.28-.41,.52-.86,.73-1.35h-3.27c.26,.48,.49,.93,.68,1.35h1.86Z"/>
    </g>
    <g>
      <path class="cls-1" d="M153.87,70.06h7.8v.2c0,3.09-2.07,4.77-6.22,5.03l-.16-.95c1.51-.09,2.71-.4,3.62-.92,.91-.52,1.45-1.32,1.62-2.41h-6.67v-.96Zm.75-1.62v-.95h6.4v.95h-6.4Z"/>
      <path class="cls-1" d="M163.17,70.97c1.42-.2,2.81-.63,4.16-1.29,1.35-.66,2.46-1.44,3.33-2.35l.65,.74c-.77,.8-1.75,1.53-2.94,2.18v5.07h-1.12v-4.52c-1.3,.57-2.61,.95-3.92,1.14l-.16-.97Z"/>
      <path class="cls-1" d="M179.41,66.49c.3,.51,.59,1.05,.86,1.6,0,2.25-.54,3.95-1.6,5.09-1.06,1.15-2.69,1.83-4.9,2.06l-.19-.97c1.84-.19,3.2-.72,4.08-1.57s1.37-2.14,1.48-3.86h-6.43v-1h6.49c-.24-.44-.42-.76-.54-.97l.74-.38Zm.68,.23l.76-.38c.31,.54,.59,1.04,.82,1.51l-.76,.37c-.2-.38-.47-.88-.82-1.5Z"/>
      <path class="cls-1" d="M183.12,68.56v-.97h6.3v.97c-.47,1.09-1.15,2.12-2.05,3.11,1.01,.92,1.97,1.85,2.89,2.79l-.73,.71c-.96-.98-1.92-1.91-2.87-2.79-1.17,1.09-2.48,1.99-3.94,2.7l-.47-.86c1.41-.72,2.63-1.56,3.66-2.54,1.03-.97,1.81-2.01,2.35-3.12h-5.14Z"/>
      <path class="cls-1" d="M192.47,67.14h1.1v2.86c1.81,.43,3.65,1,5.52,1.69l-.34,1c-1.75-.65-3.48-1.19-5.18-1.61v4.26h-1.1v-8.2Z"/>
      <path class="cls-1" d="M201.01,71.79v-4.45h1.1v4.45h-1.1Zm6.24-4.45v2.65c0,1.7-.4,2.97-1.2,3.82-.8,.85-2.08,1.37-3.84,1.58l-.23-.99c1.55-.21,2.63-.63,3.24-1.27,.61-.64,.91-1.68,.91-3.11v-2.68h1.12Z"/>
      <path class="cls-1" d="M209.22,71.76v-1.05h8.2v1.05h-8.2Z"/>
      <path class="cls-1" d="M220.94,67.23l1.07,.2c-.51,2.23-1.14,4.36-1.9,6.38,1.69-.13,3.24-.31,4.65-.52-.49-1.01-.88-1.83-1.19-2.44l.96-.45c.75,1.48,1.45,2.93,2.08,4.34l-.99,.42c-.04-.09-.11-.25-.21-.46-.1-.22-.18-.39-.23-.51-2.58,.39-5,.62-7.26,.7l-.03-.95c.21,0,.56-.02,1.03-.05,.8-2.11,1.47-4.33,2.02-6.66Z"/>
      <path class="cls-1" d="M229.33,67.25c-.32,1.23-.48,2.56-.48,3.99s.16,2.76,.48,3.99l-1.03,.12c-.33-1.27-.5-2.64-.5-4.11s.17-2.84,.5-4.11l1.03,.12Zm.97,5.74c0-.29,.11-.63,.33-1.01s.53-.74,.92-1.09l.75,.62c-.3,.27-.53,.54-.7,.81-.17,.27-.25,.5-.25,.67,0,.65,.65,.97,1.95,.97,.69,0,1.42-.09,2.19-.27l.15,.92c-.79,.21-1.57,.31-2.34,.31-.93,0-1.66-.17-2.19-.53-.54-.35-.81-.82-.81-1.4Zm.8-4.1v-.93h4.27v.93h-4.27Z"/>
      <path class="cls-1" d="M157.73,81.42h5.02v-1.56h1.03v1.56h2.15v.92h-2.15v4.28c0,.64-.08,1.04-.24,1.2-.16,.16-.56,.24-1.21,.24-.47,0-1.03-.03-1.68-.1l.06-.94c.61,.07,1.11,.1,1.52,.1,.23,0,.37-.03,.43-.09,.06-.06,.09-.21,.09-.44v-3.19c-1.43,1.43-2.94,2.6-4.55,3.51l-.47-.84c1.71-.96,3.29-2.2,4.76-3.73h-4.76v-.92Z"/>
      <path class="cls-1" d="M166.68,84.76v-1.05h8.2v1.05h-8.2Z"/>
      <path class="cls-1" d="M176.17,83.29h8.5v.95h-3.35c0,1.17-.28,2.09-.82,2.76-.54,.67-1.41,1.15-2.6,1.43l-.31-.95c.97-.25,1.65-.62,2.04-1.12,.39-.49,.59-1.2,.6-2.13h-4.05v-.95Zm1.15-1.75v-.95h5.2v.95h-5.2Zm5.1-1.67l.74-.38c.28,.48,.55,.97,.8,1.48l-.74,.37c-.24-.47-.51-.96-.8-1.47Zm1.42-.15l.76-.38c.31,.54,.59,1.04,.82,1.51l-.76,.37c-.2-.38-.47-.88-.82-1.5Z"/>
      <path class="cls-1" d="M186.23,84.75c1.13-.16,2.24-.5,3.31-1.01,1.07-.51,1.97-1.13,2.68-1.85l.61,.7c-.65,.65-1.42,1.21-2.32,1.7v4.02h-1.07v-3.5c-.98,.42-2,.71-3.05,.86l-.16-.92Z"/>
      <path class="cls-1" d="M194.6,81.42h5.02v-1.56h1.03v1.56h2.15v.92h-2.15v4.28c0,.64-.08,1.04-.24,1.2-.16,.16-.56,.24-1.21,.24-.47,0-1.03-.03-1.68-.1l.06-.94c.61,.07,1.11,.1,1.52,.1,.23,0,.37-.03,.43-.09,.06-.06,.09-.21,.09-.44v-3.19c-1.43,1.43-2.94,2.6-4.55,3.51l-.47-.84c1.71-.96,3.29-2.2,4.76-3.73h-4.76v-.92Z"/>
      <path class="cls-1" d="M206.71,79.72l.99,.23c-.15,.41-.26,.72-.35,.94h4.26v.85h-4.6c-.11,.26-.26,.61-.46,1.06h.02c.44-.17,.84-.26,1.19-.26,.84,0,1.4,.41,1.69,1.24,.65-.14,1.39-.26,2.2-.36l.09,.87c-.85,.11-1.55,.22-2.09,.35,.07,.5,.11,1.08,.11,1.75h-1.05c0-.59-.02-1.09-.06-1.48-1.36,.42-2.04,.91-2.04,1.48,0,.16,.03,.3,.09,.41,.06,.11,.17,.22,.34,.32,.17,.1,.42,.17,.75,.22,.34,.05,.76,.08,1.27,.08,.67,0,1.49-.08,2.47-.23l.09,.9c-.8,.13-1.65,.2-2.56,.2-1.24,0-2.13-.15-2.68-.44s-.82-.75-.82-1.36c0-1.05,.97-1.87,2.91-2.46-.09-.24-.21-.41-.35-.5-.14-.09-.33-.14-.55-.14-.35,0-.76,.19-1.25,.56-.49,.37-.97,.9-1.46,1.59l-.83-.54c.79-1.09,1.44-2.18,1.93-3.27h-1.84v-.85h2.19c.16-.43,.3-.82,.41-1.17Z"/>
      <path class="cls-1" d="M213.2,83.46h2.25v3.13c.17,.3,.38,.52,.61,.65,.23,.14,.6,.25,1.12,.32,.47,.07,1.2,.1,2.17,.1h2.83l-.06,.9h-2.82c-1.1,0-1.96-.06-2.58-.18-.63-.12-1.1-.31-1.41-.56-.08-.07-.17-.16-.28-.29-.39,.39-.89,.79-1.48,1.2l-.48-.88c.52-.35,.97-.7,1.35-1.06v-2.43h-1.22v-.9Zm2.56-1.68l-.7,.62c-.51-.58-1.08-1.18-1.7-1.8l.73-.62c.6,.61,1.16,1.21,1.67,1.8Zm6.08,4.98l-.81,.58c-.6-.89-1.2-1.66-1.79-2.31-.12,.23-.25,.43-.38,.61-.53,.71-1.26,1.26-2.19,1.65l-.61-.8c1.34-.52,2.15-1.3,2.43-2.35h-2.54v-.88h2.65v-1.17h-2.45v-.87h1.47c-.22-.44-.45-.86-.69-1.27l.91-.27c.29,.46,.57,.97,.83,1.54h.88c.32-.55,.59-1.07,.8-1.56l.95,.24c-.19,.43-.41,.87-.66,1.32h1.16v.87h-2.15v1.17h2.33v.88h-2.31c.83,.85,1.56,1.73,2.17,2.62Z"/>
      <path class="cls-1" d="M224.99,82.49v6.25h-1.05v-4.38c-.23,.39-.46,.72-.69,1l-.38-1.2c.91-1.26,1.52-2.75,1.85-4.46l.99,.18c-.16,.95-.4,1.82-.72,2.61Zm.7-.17v-.9h6.7v.9h-6.7Zm1.45,6.02v.4h-1.05v-3h5.83v3h-1.08v-.4h-3.7Zm-.95-4.6v-.85h5.63v.85h-5.63Zm0,1.42v-.84h5.63v.84h-5.63Zm.13-4.3v-.87h5.54v.87h-5.54Zm4.52,6.63v-.9h-3.7v.9h3.7Z"/>
    </g>
    <g>
      <path class="cls-1" d="M408.08,68.59v.95h-2.4c0,1.77-.33,3.11-.98,4s-1.68,1.48-3.11,1.75l-.3-.92c1.19-.23,2.03-.7,2.54-1.42,.51-.72,.76-1.86,.77-3.41h-2.96c-.32,.82-.79,1.59-1.42,2.31l-.83-.54c1-1.19,1.6-2.62,1.79-4.28l1.02,.07c-.05,.5-.13,1-.26,1.49h6.14Zm-2.4-1.72l.74-.38c.28,.48,.55,.97,.8,1.48l-.74,.37c-.24-.47-.51-.96-.8-1.47Zm1.42-.15l.76-.38c.31,.54,.59,1.04,.82,1.51l-.76,.37c-.2-.38-.47-.88-.82-1.5Z"/>
      <path class="cls-1" d="M408.94,71.76v-1.05h8.2v1.05h-8.2Z"/>
      <path class="cls-1" d="M420.66,67.23l1.07,.2c-.51,2.23-1.14,4.36-1.9,6.38,1.69-.13,3.24-.31,4.65-.52-.49-1.01-.88-1.83-1.19-2.44l.96-.45c.75,1.48,1.45,2.93,2.08,4.34l-.99,.42c-.04-.09-.11-.25-.21-.46-.1-.22-.18-.39-.23-.51-2.58,.39-5,.62-7.26,.7l-.03-.95c.21,0,.56-.02,1.03-.05,.8-2.11,1.47-4.33,2.02-6.66Z"/>
      <path class="cls-1" d="M427.26,68.42h5.02v-1.56h1.03v1.56h2.15v.92h-2.15v4.28c0,.64-.08,1.04-.24,1.2-.16,.16-.57,.24-1.21,.24-.47,0-1.03-.03-1.68-.1l.06-.94c.61,.07,1.11,.1,1.52,.1,.23,0,.37-.03,.43-.09,.06-.06,.09-.21,.09-.44v-3.19c-1.43,1.43-2.94,2.6-4.55,3.51l-.47-.84c1.71-.96,3.29-2.2,4.76-3.73h-4.76v-.92Z"/>
      <path class="cls-1" d="M436.22,71.76v-1.05h8.2v1.05h-8.2Z"/>
      <path class="cls-1" d="M445.71,70.29h8.5v.95h-3.35c0,1.17-.28,2.09-.82,2.76-.54,.67-1.41,1.15-2.61,1.43l-.31-.95c.97-.25,1.65-.62,2.04-1.12,.39-.49,.59-1.2,.6-2.13h-4.05v-.95Zm1.15-1.75v-.95h5.2v.95h-5.2Zm5.1-1.67l.74-.38c.28,.48,.55,.97,.8,1.48l-.74,.37c-.24-.47-.51-.96-.8-1.47Zm1.42-.15l.76-.38c.31,.54,.59,1.04,.82,1.51l-.76,.37c-.2-.38-.47-.88-.82-1.5Z"/>
      <path class="cls-1" d="M455.76,71.75c1.13-.16,2.24-.5,3.31-1.01,1.07-.51,1.97-1.13,2.68-1.85l.61,.7c-.65,.65-1.42,1.21-2.32,1.7v4.02h-1.07v-3.5c-.98,.42-2,.71-3.05,.86l-.16-.92Z"/>
      <path class="cls-1" d="M464.13,68.42h5.02v-1.56h1.03v1.56h2.15v.92h-2.15v4.28c0,.64-.08,1.04-.25,1.2-.16,.16-.56,.24-1.21,.24-.47,0-1.03-.03-1.68-.1l.06-.94c.61,.07,1.11,.1,1.52,.1,.23,0,.37-.03,.43-.09s.09-.21,.09-.44v-3.19c-1.43,1.43-2.94,2.6-4.55,3.51l-.47-.84c1.71-.96,3.29-2.2,4.76-3.73h-4.76v-.92Z"/>
      <path class="cls-1" d="M478.43,74.19c.77-.09,1.36-.39,1.77-.9,.42-.51,.62-1.19,.62-2.04,0-.77-.25-1.41-.74-1.93-.49-.52-1.13-.8-1.9-.86-.15,1.28-.34,2.36-.54,3.23-.21,.87-.45,1.54-.71,1.99-.26,.45-.52,.77-.79,.95-.26,.18-.56,.27-.88,.27-.51,0-.98-.3-1.41-.9-.43-.6-.64-1.33-.64-2.2,0-1.27,.43-2.31,1.3-3.11,.87-.8,2-1.19,3.4-1.19,1.13,0,2.06,.35,2.79,1.06,.74,.71,1.1,1.6,1.1,2.69s-.29,2.04-.86,2.73c-.58,.69-1.35,1.08-2.33,1.17l-.2-.95Zm-1.28-5.69c-.89,.14-1.6,.5-2.13,1.09-.53,.59-.79,1.32-.79,2.2,0,.57,.12,1.06,.36,1.47,.24,.42,.47,.62,.7,.62,.11,0,.22-.04,.33-.13s.24-.26,.38-.51c.14-.25,.28-.57,.41-.96,.13-.39,.26-.91,.39-1.56s.25-1.4,.35-2.23Z"/>
      <path class="cls-1" d="M439.67,79.99v3.17h.65v.88h-2.28c.16,.45,.36,.88,.59,1.31,.34-.33,.67-.72,.99-1.16l.7,.6c-.39,.53-.79,.99-1.2,1.36,.43,.61,.91,1.14,1.43,1.58l-.69,.77c-.53-.49-1.01-1.1-1.44-1.84-.15-.27-.28-.51-.38-.72v1.18c0,.29,0,.49,0,.58-.01,.18-.03,.31-.05,.4-.03,.13-.07,.22-.12,.28-.04,.05-.12,.11-.23,.16-.09,.04-.2,.07-.33,.08-.16,.01-.32,.02-.48,.02-.17,0-.52-.02-1.03-.05l-.04-.85c.47,.03,.76,.05,.89,.05,.17,0,.28-.03,.32-.09,.04-.06,.06-.23,.06-.5v-.72c-.65,.69-1.42,1.34-2.3,1.93l-.55-.67c-1.04,.32-2.01,.58-2.92,.77l-.11-.89c.49-.1,1.02-.23,1.6-.38v-2.82h-1.47v-.88h1.47v-.98h-.87v-.36c-.21,.19-.44,.38-.67,.55l-.21-1.02c.61-.47,1.21-1.1,1.81-1.91h.97c.53,.61,1.07,1.08,1.6,1.41l-.35,.88s-.06-.05-.11-.08c-.05-.03-.08-.06-.11-.07v.6h-1.06v.98h1.18v-.38h3.68v-.74h-3.23v-.83h3.23v-.73h-3.36v-.87h4.43Zm-8.32,4.99l.77-.21c.14,.47,.3,1.1,.47,1.9l-.77,.21c-.18-.81-.34-1.44-.47-1.9Zm1.01-3.26h2.12c-.43-.35-.82-.75-1.16-1.18-.29,.42-.61,.81-.96,1.18Zm4.66,3.56v-1.24h-2.05v.38h-1.23v2.53c.49-.14,.94-.28,1.36-.43l.06,.41c.68-.5,1.3-1.05,1.86-1.65Zm-2.24-.68l.83-.41c.28,.45,.53,.92,.76,1.4l-.79,.49c-.18-.37-.37-.74-.57-1.09-.11,.52-.24,1.04-.39,1.55l-.75-.2c.15-.5,.3-1.05,.43-1.64l.62,.13s-.04-.07-.07-.12-.06-.09-.07-.12Z"/>
      <path class="cls-1" d="M441.2,83.49v-.85h2.46c-.25-.49-.49-.94-.73-1.35h-1.43v-.87h3.7v-.93h1.1v.93h3.7v.87h-1.47c-.2,.49-.42,.94-.67,1.35h2.44v.85h-9.1Zm1.2,.57h6.7v4.63h-1.1v-.4h-4.5v.4h-1.1v-4.63Zm1.1,1.7h4.5v-.82h-4.5v.82Zm0,.83v.85h4.5v-.85h-4.5Zm3.17-3.95c.28-.41,.52-.86,.73-1.35h-3.27c.26,.48,.49,.93,.68,1.35h1.86Z"/>
    </g>
    <g id="Waving_Person" data-name="Waving Person" transform="translate(18.477 18.309)">
      <g id="Waving_Person-2" data-name="Waving Person-2" transform="translate(-17.727 -18.309)">
        <path class="cls-1" d="M423,51.42c-.41,0-.75-.34-.75-.75v-3.89c.02-1.1,.18-2.19,.46-3.25,.26-.88,.59-1.72,.99-2.54,.35-.73,.79-1.44,1.29-2.09,1.03-1.38,2.29-2.57,3.74-3.53,1.97-1.27,4.24-1.99,6.58-2.09h5.82c1.34-.04,2.69-.42,3.87-1.11,.36-.21,.82-.08,1.02,.27,.21,.36,.08,.82-.27,1.02-1.4,.81-2.99,1.26-4.6,1.31h-5.81c-2.04,.09-4.05,.73-5.79,1.85-1.3,.85-2.43,1.92-3.37,3.17-.45,.58-.83,1.19-1.13,1.83-.36,.74-.66,1.51-.89,2.29-.25,.92-.38,1.89-.4,2.86v3.88c0,.41-.34,.75-.75,.75Z"/>
        <g id="Ellipse_270" data-name="Ellipse 270" transform="translate(3.692)">
          <circle class="cls-1" cx="435.25" cy="22.61" r="8.55"/>
          <path class="cls-1" d="M435.25,31.16c-4.72,0-8.55-3.84-8.55-8.55s3.84-8.55,8.55-8.55,8.55,3.84,8.55,8.55-3.84,8.55-8.55,8.55Zm0-15.6c-3.89,0-7.05,3.16-7.05,7.05s3.16,7.05,7.05,7.05,7.05-3.16,7.05-7.05-3.16-7.05-7.05-7.05Z"/>
        </g>
        <path class="cls-1" d="M444.68,40.74c-.39,0-.72-.3-.75-.69-.03-.41,.28-.77,.69-.81,8.07-.64,12.73-15.22,12.77-15.36l.05-.14c.31-.62,.35-1.35,.09-1.99-.25-.65-.77-1.17-1.42-1.41-.69-.29-1.29-.31-1.84-.08-1.17,.49-1.78,1.96-1.79,1.97-.44,1.01-4.28,9.73-7.02,11.42-.35,.22-.81,.11-1.03-.25s-.11-.81,.25-1.03c1.98-1.22,5.31-8.15,6.42-10.72,.03-.06,.83-2.04,2.58-2.77,.93-.39,1.94-.37,2.98,.07,1.02,.39,1.85,1.22,2.25,2.26,.4,1.03,.35,2.19-.14,3.19-.59,1.87-5.37,15.66-14.06,16.35-.02,0-.04,0-.06,0Z"/>
      </g>
    </g>
    <path class="cls-1" d="M315.77,40.48c3.74,0,6.78-3.04,6.78-6.78v-12.56c0-3.74-3.04-6.78-6.78-6.78s-6.78,3.04-6.78,6.78v12.56c0,3.74,3.04,6.78,6.78,6.78Z"/>
    <path class="cls-1" d="M325.61,28.58s-.1,5.37-.1,5.57c-.01,.74-.12,1.47-.31,2.17-.18,.59-.42,1.18-.72,1.76-.24,.49-.54,.96-.88,1.39-.75,.96-1.65,1.78-2.68,2.42-1.39,.86-2.99,1.35-4.62,1.42h-.15c-.17,0-.33,0-.48,0-.11,0-.22,0-.35,0h-.14c-1.63-.07-3.23-.56-4.62-1.42-1.03-.65-1.93-1.46-2.69-2.43-.34-.43-.64-.9-.89-1.4-.29-.56-.52-1.15-.71-1.73-.2-.71-.31-1.45-.32-2.17,0-.21-.1-5.59-.1-5.59l-1.5,.03s.1,5.34,.1,5.58c.02,.87,.15,1.73,.38,2.58,.21,.68,.48,1.35,.8,1.98,.29,.59,.64,1.14,1.05,1.65,.86,1.1,1.89,2.04,3.07,2.78,1.58,.98,3.4,1.54,5.26,1.63v3.97s.01,.06,.02,.09h-4.29c-.41,0-.75,.34-.75,.75s.34,.75,.75,.75h10.05c.41,0,.75-.34,.75-.75s-.34-.75-.75-.75h-4.29s.02-.06,.02-.09v-3.98c1.84-.1,3.63-.66,5.19-1.63,1.18-.74,2.21-1.68,3.06-2.77,.41-.52,.76-1.07,1.05-1.65,.33-.64,.6-1.31,.82-2.01,.23-.83,.36-1.7,.38-2.58,0-.22,.1-5.56,.1-5.56l-1.5-.03Z"/>
    <path class="cls-1" d="M88.58,45.79h-3.32c0-3.56-.03-25.24,0-27.38,.07-.86-.22-1.72-.81-2.35-.58-.63-1.41-1-2.27-1h0c-.42,0-23.12,0-34.03,0h-4.88c-.9-.04-1.78,.29-2.42,.92-.64,.63-1,1.5-.97,2.38v27.43h-3.46c0,.24,.03,.47,.08,.69-.02,.07-.05,.15-.05,.23,0,1.27,1.04,2.31,2.31,2.31h.6c.11,.01,.21,.03,.32,.03h45.65c.11,0,.21-.02,.32-.03h.6c1.27,0,2.31-1.04,2.31-2.31,0-.08-.03-.15-.05-.22,.05-.22,.08-.46,.08-.69ZM41.03,18.34c-.01-.58,.21-1.14,.63-1.54,.41-.4,.98-.62,1.59-.59h4.91c10.05,0,33.6,0,34.02,0h0c.54,0,1.06,.23,1.43,.63,.37,.4,.55,.93,.5,1.51-.03,2.19,0,23.87,0,27.44H41.03V18.34Z"/>
    <g>
      <path class="cls-1" d="M215.59,51.77c-.17-.57-.39-1.14-.65-1.66-.23-.49-.52-.96-.85-1.39-.69-.92-1.53-1.71-2.49-2.35-1.31-.85-2.83-1.33-4.41-1.39h-1.35c-1.56,.07-3.07,.55-4.39,1.4-.96,.63-1.8,1.42-2.49,2.34-.33,.43-.62,.91-.84,1.39-.27,.53-.49,1.1-.66,1.69-.19,.7-.29,1.42-.31,2.16v2.08c0,.39,.32,.71,.71,.71s.71-.32,.71-.71v-2.06c.01-.61,.1-1.22,.25-1.79,.15-.5,.34-.98,.58-1.46,.19-.41,.43-.79,.7-1.15,.59-.79,1.31-1.46,2.13-2,1.1-.71,2.37-1.11,3.65-1.17h1.29c1.31,.05,2.58,.46,3.67,1.16,.83,.54,1.54,1.22,2.14,2.01,.27,.36,.51,.74,.71,1.16,.23,.47,.42,.95,.57,1.43,.16,.59,.25,1.2,.26,1.8v2.08c0,.39,.32,.71,.71,.71s.71-.32,.71-.71v-2.09c-.02-.73-.12-1.45-.31-2.17Z"/>
      <path class="cls-1" d="M191.04,40.83c-.23-.49-.52-.96-.85-1.39-.69-.92-1.53-1.71-2.49-2.35-1.31-.85-2.83-1.33-4.41-1.39h-1.49c-1.56,.07-3.07,.55-4.39,1.4-.96,.63-1.8,1.42-2.49,2.34-.33,.43-.62,.91-.84,1.39-.27,.54-.49,1.1-.66,1.69-.19,.7-.29,1.42-.31,2.16v2.08c0,.39,.32,.71,.71,.71s.71-.32,.71-.71v-2.06c.01-.61,.1-1.22,.25-1.79,.15-.5,.34-.98,.58-1.46,.19-.41,.43-.79,.7-1.15,.59-.79,1.31-1.46,2.13-2,1.1-.71,2.37-1.11,3.65-1.17h1.43c1.31,.05,2.58,.46,3.67,1.16,.82,.54,1.54,1.22,2.14,2.02,.27,.36,.51,.74,.71,1.16,.23,.46,.42,.95,.57,1.43,.16,.59,.25,1.2,.26,1.8v2.08c0,.39,.32,.71,.71,.71s.71-.32,.71-.71v-2.09c-.02-.73-.12-1.45-.31-2.17-.17-.57-.39-1.14-.65-1.66Z"/>
      <path class="cls-1" d="M202.33,25.59c.27,.36,.51,.74,.7,1.15,.23,.46,.42,.95,.57,1.43,.16,.59,.25,1.2,.26,1.8v2.53c0,.13,.04,.24,.1,.35-1.86,.89-3.13,2.65-3.13,4.67,0,2.92,2.63,5.29,5.87,5.29s5.87-2.37,5.87-5.29c0-2.62-2.12-4.79-4.89-5.21-.32-.05-.65-.08-.98-.08-.31,0-.6,.03-.9,.07-.18,.03-.36,.06-.53,.1v-2.44c-.02-.73-.12-1.45-.31-2.17-.17-.57-.39-1.14-.65-1.66-.23-.49-.52-.96-.85-1.39-.69-.92-1.52-1.71-2.49-2.35-1.31-.85-2.83-1.33-4.41-1.39h-.83s-.08-.02-.13-.01c-1.67,.1-3.3,.62-4.75,1.49-1,.66-1.89,1.47-2.68,2.46-.04,.07-.08,.14-.12,.2-1.06-1.39-2.84-2.31-4.85-2.31-3.24,0-5.87,2.37-5.87,5.29s2.63,5.29,5.87,5.29,5.87-2.37,5.87-5.29c0-.5-.08-.99-.23-1.45,.14-.33,.29-.64,.46-.9,.65-.82,1.43-1.53,2.29-2.09,1.21-.73,2.58-1.16,3.99-1.27,0,0,.02,0,.03,0h.9c1.31,.05,2.58,.46,3.67,1.16,.82,.54,1.54,1.22,2.14,2.01Z"/>
      <path class="cls-1" d="M191.48,14.52c.22,2.33,1.93,4.22,4.18,4.68,.34,.07,.7,.11,1.06,.11s.69-.04,1.02-.1c2.4-.47,4.22-2.57,4.26-5.1,0-.03,0-.06,0-.08h0c0-2.92-2.37-5.29-5.29-5.29s-5.08,2.19-5.25,4.96c0,.11-.03,.22-.03,.33,0,.17,.03,.33,.05,.5Z"/>
    </g>
  </g>
  <g id="_イヤー_1" data-name="レイヤー 1"/>
  <g id="iD22_表" data-name="iD22 表"/>
</svg>