<?xml version="1.0" encoding="UTF-8"?>
<svg xmlns="http://www.w3.org/2000/svg" width="500" height="100" viewBox="0 0 500 100">
  <defs>
    <style>
      .cls-1 {
        fill: #50bc82;
      }
    </style>
  </defs>
  <g id="iD44_mk2" data-name="iD44 mk2">
    <g>
      <path class="cls-1" d="M12.74,47.84V23.47h-.08l-7.63,6.9-1.62-3.66,9.34-8.53h4.47v29.64h-4.47Z"/>
      <path class="cls-1" d="M34.47,17.79c3.03,0,5.38,.75,7.05,2.25,1.67,1.5,2.5,3.59,2.5,6.27s-.86,5.32-2.58,7.84-5.06,5.83-10.01,9.95v.08h12.59v3.66H25.33v-3.66c5.52-4.39,9.25-7.82,11.17-10.29,1.92-2.48,2.88-4.87,2.88-7.17,0-3.46-1.84-5.2-5.52-5.2-2.46,0-5.04,.89-7.72,2.68l-1.22-3.57c2.79-1.89,5.97-2.84,9.54-2.84Z"/>
      <path class="cls-1" d="M58.43,48.25c-3.44,0-6.09-1-7.96-3s-2.8-5-2.8-8.97c0-5.44,1.37-9.8,4.12-13.08,2.75-3.28,6.56-5.08,11.43-5.4l.81,3.65c-3,.27-5.41,1.08-7.21,2.44-1.8,1.35-3.17,3.37-4.12,6.05l.08,.08c1.87-1.52,4.09-2.27,6.66-2.27,3.06,0,5.45,.87,7.17,2.62s2.58,4.19,2.58,7.33-.97,5.79-2.92,7.7c-1.95,1.91-4.56,2.86-7.84,2.86Zm0-3.66c2.03,0,3.59-.58,4.67-1.75,1.08-1.16,1.62-2.88,1.62-5.16,0-2.08-.56-3.7-1.67-4.85-1.11-1.15-2.65-1.73-4.63-1.73s-3.4,.59-4.53,1.77c-1.12,1.18-1.69,2.78-1.69,4.81,0,2.25,.54,3.96,1.62,5.14,1.08,1.18,2.61,1.77,4.59,1.77Z"/>
      <path class="cls-1" d="M78.87,37.92v11.08h-1.79l-.04-1.08h-.03c-.58,.82-1.36,1.23-2.35,1.23-.92,0-1.66-.35-2.22-1.04-.57-.69-.85-1.68-.85-2.95s.27-2.29,.82-2.97,1.3-1.02,2.25-1.02,1.68,.38,2.26,1.14h.03v-4.39h1.92Zm-5.43,7.24c0,.8,.16,1.41,.49,1.84,.33,.43,.76,.64,1.28,.64s.94-.21,1.26-.63c.32-.42,.48-1.01,.48-1.78v-.15c0-.75-.16-1.34-.48-1.76-.32-.43-.74-.64-1.26-.64-.56,0-1,.21-1.31,.62-.31,.41-.47,1.03-.47,1.86Z"/>
      <path class="cls-1" d="M88.62,45.9c0,1.08-.35,1.9-1.06,2.44-.71,.54-1.82,.81-3.32,.81-1.09,0-2.13-.07-3.1-.22v-10.63c.93-.15,1.91-.22,2.95-.22,2.76,0,4.13,.9,4.13,2.7,0,.61-.2,1.13-.61,1.57-.4,.44-.94,.72-1.61,.85v.03c.81,.11,1.44,.41,1.91,.89,.47,.49,.7,1.08,.7,1.78Zm-5.45-3.34h.55c.92,0,1.58-.13,1.99-.38,.41-.25,.61-.62,.61-1.11s-.16-.82-.49-1.05c-.33-.23-.87-.34-1.63-.34-.36,0-.7,.03-1.02,.09v2.79Zm0,1.54v3.35c.34,.06,.71,.09,1.11,.09,.82,0,1.42-.15,1.79-.45,.38-.3,.57-.76,.57-1.38,0-.55-.22-.96-.65-1.22-.43-.26-1.16-.39-2.17-.39h-.65Z"/>
      <path class="cls-1" d="M8.02,60.74c0,1.56-.4,2.74-1.21,3.54s-1.96,1.2-3.47,1.2c-.84,0-1.62-.06-2.34-.18v-8.86c.73-.12,1.51-.18,2.34-.18,1.5,0,2.66,.39,3.46,1.16,.81,.78,1.21,1.88,1.21,3.33Zm-1.29,0c0-1.12-.29-1.96-.86-2.53-.57-.57-1.42-.86-2.52-.86-.37,0-.7,.03-.98,.09v6.84c.29,.06,.62,.09,.98,.09,1.15,0,2-.3,2.55-.89,.55-.59,.83-1.51,.83-2.74Z"/>
      <path class="cls-1" d="M11.88,63.88h.02l1.82-4.92h1.3l-3.69,9.11h-1.3l1.18-2.71-2.34-6.4h1.35l1.65,4.92Z"/>
      <path class="cls-1" d="M17.47,58.96l.02,.92h.02c.26-.33,.58-.58,.95-.77s.75-.28,1.16-.28c1.39,0,2.09,.94,2.09,2.83v3.69h-1.21v-3.57c0-.75-.1-1.26-.29-1.53-.19-.28-.54-.41-1.03-.41-.42,0-.8,.21-1.14,.62-.34,.41-.52,.9-.52,1.45v3.45h-1.23v-6.4h1.17Z"/>
      <path class="cls-1" d="M23.12,63.63c0-.71,.3-1.29,.9-1.72s1.47-.65,2.6-.65h.62v-.06c0-.52-.1-.88-.31-1.08-.21-.2-.58-.31-1.1-.31-.78,0-1.5,.18-2.15,.55l-.18-.98c.69-.37,1.47-.55,2.34-.55,.93,0,1.6,.19,2.02,.56s.63,.97,.63,1.78v2.46c0,.58,.06,1.16,.18,1.72h-1.17c-.07-.36-.1-.69-.11-.98h-.02c-.23,.34-.55,.62-.95,.81-.41,.2-.86,.29-1.37,.29-.58,0-1.05-.16-1.39-.49s-.52-.78-.52-1.35Zm4.12-1.45h-.62c-.74,0-1.31,.13-1.7,.38-.4,.25-.6,.59-.6,1.01,0,.3,.09,.54,.28,.72s.43,.26,.73,.26c.52,0,.96-.18,1.34-.54,.38-.36,.57-.79,.57-1.31v-.53Z"/>
      <path class="cls-1" d="M31.48,58.96l.02,.86h.02c.47-.66,1-.98,1.61-.98,.78,0,1.35,.37,1.71,1.11h.02c.48-.74,1.1-1.11,1.83-1.11,.67,0,1.17,.19,1.49,.58,.32,.39,.48,1.01,.48,1.88v4.06h-1.21v-3.69c0-.72-.08-1.21-.23-1.46-.16-.25-.44-.38-.84-.38-.34,0-.64,.18-.9,.55s-.39,.8-.39,1.3v3.69h-1.21v-3.69c0-.72-.08-1.21-.23-1.46-.16-.25-.44-.38-.84-.38-.34,0-.64,.18-.9,.55s-.39,.8-.39,1.3v3.69h-1.23v-6.4h1.17Z"/>
      <path class="cls-1" d="M40.82,57.48v-1.35h1.3v1.35h-1.3Zm0,7.88v-6.4h1.3v6.4h-1.3Z"/>
      <path class="cls-1" d="M48.87,60.28c-.53-.29-1.09-.43-1.66-.43-.63,0-1.13,.2-1.49,.6-.36,.4-.54,.97-.54,1.71s.19,1.29,.57,1.71c.38,.42,.87,.63,1.46,.63s1.13-.14,1.66-.43l.31,.98c-.66,.29-1.33,.43-2.03,.43-.97,0-1.75-.3-2.36-.9s-.9-1.41-.9-2.42,.29-1.86,.86-2.44c.57-.59,1.37-.88,2.4-.88,.7,0,1.37,.14,2.03,.43l-.31,1.01Z"/>
      <path class="cls-1" d="M55.95,61.67v3.69h-1.35v-8.92c.77-.12,1.59-.18,2.46-.18,1.18,0,2.07,.22,2.67,.65,.6,.43,.9,1.04,.9,1.81,0,.62-.16,1.16-.48,1.6-.32,.44-.75,.75-1.3,.91v.02c.35,.21,.68,.7,.98,1.46l1.05,2.65h-1.4l-1.02-2.65c-.17-.44-.36-.73-.57-.86-.21-.13-.6-.19-1.19-.19h-.74Zm0-1.06h.74c1.74,0,2.61-.59,2.61-1.77,0-.5-.19-.88-.56-1.13-.37-.25-.97-.38-1.8-.38-.37,0-.7,.03-.98,.09v3.19Z"/>
      <path class="cls-1" d="M61.97,63.63c0-.71,.3-1.29,.9-1.72s1.47-.65,2.6-.65h.62v-.06c0-.52-.1-.88-.31-1.08-.21-.2-.58-.31-1.1-.31-.78,0-1.5,.18-2.15,.55l-.18-.98c.69-.37,1.47-.55,2.34-.55,.93,0,1.6,.19,2.02,.56s.63,.97,.63,1.78v2.46c0,.58,.06,1.16,.18,1.72h-1.17c-.07-.36-.1-.69-.11-.98h-.02c-.23,.34-.55,.62-.95,.81-.41,.2-.86,.29-1.37,.29-.58,0-1.05-.16-1.39-.49s-.52-.78-.52-1.35Zm4.12-1.45h-.62c-.74,0-1.31,.13-1.7,.38-.4,.25-.6,.59-.6,1.01,0,.3,.09,.54,.28,.72s.43,.26,.73,.26c.52,0,.96-.18,1.34-.54,.38-.36,.57-.79,.57-1.31v-.53Z"/>
      <path class="cls-1" d="M70.33,58.96l.02,.92h.02c.26-.33,.58-.58,.95-.77s.75-.28,1.16-.28c1.39,0,2.09,.94,2.09,2.83v3.69h-1.21v-3.57c0-.75-.1-1.26-.29-1.53-.19-.28-.54-.41-1.03-.41-.42,0-.8,.21-1.14,.62-.34,.41-.52,.9-.52,1.45v3.45h-1.23v-6.4h1.17Z"/>
      <path class="cls-1" d="M75.91,62.04c0-1.04,.22-1.84,.66-2.38,.44-.54,1.06-.82,1.86-.82,.88,0,1.56,.35,2.04,1.05h.02l.02-.92h1.17v5.78c0,2.3-1.05,3.45-3.14,3.45-.72,0-1.4-.12-2.03-.37l.25-.98c.62,.25,1.22,.37,1.78,.37,.66,0,1.15-.18,1.45-.55,.3-.36,.46-.98,.46-1.85v-.55h-.02c-.46,.66-1.13,.98-2.01,.98-.72,0-1.32-.29-1.8-.87-.48-.58-.72-1.36-.72-2.33Zm1.21,0c0,.69,.15,1.23,.46,1.62,.3,.39,.69,.59,1.17,.59,.52,0,.93-.19,1.25-.57s.47-.91,.47-1.58v-.12c0-.68-.16-1.21-.48-1.59-.32-.38-.73-.57-1.24-.57s-.91,.19-1.19,.56-.43,.92-.43,1.66Z"/>
      <path class="cls-1" d="M84.29,62.65c.02,.57,.22,1.03,.6,1.37,.37,.34,.84,.5,1.41,.5,.62,0,1.23-.16,1.85-.47l.31,.94c-.71,.33-1.47,.49-2.28,.49-.92,0-1.67-.3-2.26-.9-.59-.6-.88-1.41-.88-2.42s.27-1.85,.82-2.44c.55-.59,1.28-.89,2.2-.89s1.62,.28,2.13,.84c.51,.56,.76,1.37,.76,2.42,0,.12,0,.31-.02,.55h-4.63Zm0-.96h3.46c0-.61-.16-1.08-.46-1.4-.3-.33-.71-.49-1.24-.49s-.95,.17-1.26,.5c-.32,.33-.48,.8-.5,1.4Z"/>
      <path class="cls-1" d="M27.92,78.37c0,2.25,.88,4.14,2.65,5.68h-1.23c-.87-.72-1.54-1.57-2.01-2.55s-.7-2.02-.7-3.13,.23-2.15,.7-3.13,1.14-1.83,2.01-2.55h1.23c-1.76,1.54-2.65,3.44-2.65,5.69Z"/>
      <path class="cls-1" d="M39.88,78.18c0,1.56-.4,2.74-1.21,3.54s-1.96,1.2-3.47,1.2c-.84,0-1.62-.06-2.34-.18v-8.86c.73-.12,1.51-.18,2.34-.18,1.5,0,2.66,.39,3.46,1.16,.81,.78,1.21,1.88,1.21,3.33Zm-1.29,0c0-1.12-.29-1.96-.86-2.53-.57-.57-1.42-.86-2.52-.86-.37,0-.7,.03-.98,.09v6.84c.29,.06,.62,.09,.98,.09,1.15,0,2-.3,2.55-.89,.55-.59,.83-1.51,.83-2.74Z"/>
      <path class="cls-1" d="M40.73,82.8l3.2-8.98h1.48l3.2,8.98h-1.45l-.78-2.39h-3.47l-.77,2.39h-1.4Zm2.51-3.45h2.81l-1.39-4.31h-.02l-1.39,4.31Z"/>
      <path class="cls-1" d="M54.13,74.8c-.99,0-1.79,.32-2.39,.96-.6,.64-.9,1.49-.9,2.55s.31,1.92,.92,2.55,1.41,.95,2.38,.95c.8,0,1.55-.23,2.28-.68l.43,1.01c-.82,.52-1.76,.78-2.83,.78-1.37,0-2.47-.42-3.3-1.25-.83-.83-1.25-1.95-1.25-3.37s.41-2.53,1.23-3.37c.82-.83,1.93-1.25,3.32-1.25,1.07,0,2.01,.26,2.83,.78l-.43,1.01c-.72-.45-1.48-.68-2.28-.68Z"/>
      <path class="cls-1" d="M61.54,78.37c0-2.25-.88-4.14-2.65-5.69h1.23c.87,.72,1.54,1.57,2.01,2.55,.47,.98,.7,2.02,.7,3.13s-.23,2.15-.7,3.13c-.47,.98-1.14,1.83-2.01,2.55h-1.23c1.76-1.54,2.65-3.44,2.65-5.68Z"/>
    </g>
    <g>
      <path class="cls-1" d="M188.01,47.84V23.47h-.08l-7.63,6.9-1.62-3.66,9.34-8.53h4.47v29.64h-4.47Z"/>
      <path class="cls-1" d="M209.74,17.79c3.03,0,5.38,.75,7.05,2.25,1.67,1.5,2.5,3.59,2.5,6.27s-.86,5.32-2.58,7.84-5.06,5.83-10.01,9.95v.08h12.59v3.66h-18.68v-3.66c5.52-4.39,9.25-7.82,11.17-10.29,1.92-2.48,2.88-4.87,2.88-7.17,0-3.46-1.84-5.2-5.52-5.2-2.46,0-5.04,.89-7.72,2.68l-1.22-3.57c2.79-1.89,5.97-2.84,9.54-2.84Z"/>
      <path class="cls-1" d="M239.3,37.77h4.75v3.57h-4.75v6.5h-4.39v-6.5h-13.6v-3.57l13.6-19.57h4.39v19.57Zm-4.39,0v-13.12h-.08l-9.06,13.04v.08h9.14Z"/>
      <path class="cls-1" d="M254.14,37.92v11.08h-1.79l-.04-1.08h-.03c-.58,.82-1.36,1.23-2.35,1.23-.92,0-1.66-.35-2.22-1.04s-.85-1.68-.85-2.95,.27-2.29,.82-2.97c.55-.68,1.3-1.02,2.25-1.02s1.68,.38,2.26,1.14h.03v-4.39h1.92Zm-5.43,7.24c0,.8,.17,1.41,.49,1.84,.33,.43,.76,.64,1.28,.64s.94-.21,1.26-.63c.32-.42,.48-1.01,.48-1.78v-.15c0-.75-.16-1.34-.48-1.76-.32-.43-.74-.64-1.26-.64-.56,0-1,.21-1.31,.62-.31,.41-.46,1.03-.46,1.86Z"/>
      <path class="cls-1" d="M263.89,45.9c0,1.08-.35,1.9-1.06,2.44-.71,.54-1.82,.81-3.32,.81-1.09,0-2.13-.07-3.1-.22v-10.63c.92-.15,1.91-.22,2.95-.22,2.76,0,4.13,.9,4.13,2.7,0,.61-.2,1.13-.61,1.57-.4,.44-.94,.72-1.61,.85v.03c.81,.11,1.44,.41,1.91,.89s.7,1.08,.7,1.78Zm-5.45-3.34h.55c.92,0,1.58-.13,1.99-.38,.41-.25,.61-.62,.61-1.11s-.17-.82-.49-1.05c-.33-.23-.87-.34-1.63-.34-.36,0-.7,.03-1.02,.09v2.79Zm0,1.54v3.35c.34,.06,.71,.09,1.11,.09,.82,0,1.42-.15,1.79-.45,.38-.3,.57-.76,.57-1.38,0-.55-.22-.96-.65-1.22-.43-.26-1.16-.39-2.17-.39h-.65Z"/>
      <path class="cls-1" d="M183.29,60.74c0,1.56-.4,2.74-1.21,3.54s-1.96,1.2-3.47,1.2c-.84,0-1.62-.06-2.34-.18v-8.86c.73-.12,1.51-.18,2.34-.18,1.5,0,2.66,.39,3.46,1.16,.81,.78,1.21,1.88,1.21,3.33Zm-1.29,0c0-1.12-.29-1.96-.86-2.53-.57-.57-1.42-.86-2.52-.86-.37,0-.7,.03-.98,.09v6.84c.29,.06,.62,.09,.98,.09,1.15,0,2-.3,2.55-.89,.55-.59,.83-1.51,.83-2.74Z"/>
      <path class="cls-1" d="M187.14,63.88h.02l1.82-4.92h1.3l-3.69,9.11h-1.3l1.18-2.71-2.34-6.4h1.35l1.65,4.92Z"/>
      <path class="cls-1" d="M192.74,58.96l.02,.92h.02c.26-.33,.58-.58,.95-.77s.75-.28,1.16-.28c1.39,0,2.09,.94,2.09,2.83v3.69h-1.21v-3.57c0-.75-.1-1.26-.29-1.53-.19-.28-.54-.41-1.03-.41-.42,0-.8,.21-1.14,.62-.34,.41-.52,.9-.52,1.45v3.45h-1.23v-6.4h1.17Z"/>
      <path class="cls-1" d="M198.39,63.63c0-.71,.3-1.29,.9-1.72s1.47-.65,2.6-.65h.62v-.06c0-.52-.1-.88-.31-1.08-.21-.2-.58-.31-1.1-.31-.78,0-1.5,.18-2.15,.55l-.18-.98c.69-.37,1.47-.55,2.34-.55,.93,0,1.6,.19,2.02,.56s.63,.97,.63,1.78v2.46c0,.58,.06,1.16,.18,1.72h-1.17c-.07-.36-.1-.69-.11-.98h-.02c-.23,.34-.55,.62-.95,.81-.41,.2-.86,.29-1.37,.29-.58,0-1.05-.16-1.39-.49s-.52-.78-.52-1.35Zm4.12-1.45h-.62c-.74,0-1.31,.13-1.7,.38-.4,.25-.6,.59-.6,1.01,0,.3,.09,.54,.28,.72s.43,.26,.73,.26c.52,0,.96-.18,1.34-.54,.38-.36,.57-.79,.57-1.31v-.53Z"/>
      <path class="cls-1" d="M206.75,58.96l.02,.86h.02c.47-.66,1-.98,1.61-.98,.78,0,1.35,.37,1.71,1.11h.02c.48-.74,1.1-1.11,1.83-1.11,.67,0,1.17,.19,1.49,.58,.32,.39,.48,1.01,.48,1.88v4.06h-1.21v-3.69c0-.72-.08-1.21-.23-1.46-.16-.25-.44-.38-.84-.38-.34,0-.64,.18-.9,.55s-.39,.8-.39,1.3v3.69h-1.21v-3.69c0-.72-.08-1.21-.23-1.46-.16-.25-.44-.38-.84-.38-.34,0-.64,.18-.9,.55s-.39,.8-.39,1.3v3.69h-1.23v-6.4h1.17Z"/>
      <path class="cls-1" d="M216.09,57.48v-1.35h1.3v1.35h-1.3Zm0,7.88v-6.4h1.3v6.4h-1.3Z"/>
      <path class="cls-1" d="M224.13,60.28c-.53-.29-1.09-.43-1.66-.43-.63,0-1.13,.2-1.49,.6-.36,.4-.54,.97-.54,1.71s.19,1.29,.57,1.71c.38,.42,.87,.63,1.46,.63s1.13-.14,1.66-.43l.31,.98c-.66,.29-1.33,.43-2.03,.43-.97,0-1.75-.3-2.36-.9s-.9-1.41-.9-2.42,.29-1.86,.86-2.44c.57-.59,1.37-.88,2.4-.88,.7,0,1.37,.14,2.03,.43l-.31,1.01Z"/>
      <path class="cls-1" d="M231.22,61.67v3.69h-1.35v-8.92c.77-.12,1.59-.18,2.46-.18,1.18,0,2.07,.22,2.67,.65,.6,.43,.9,1.04,.9,1.81,0,.62-.16,1.16-.48,1.6-.32,.44-.75,.75-1.3,.91v.02c.35,.21,.68,.7,.98,1.46l1.05,2.65h-1.4l-1.02-2.65c-.17-.44-.36-.73-.57-.86-.21-.13-.6-.19-1.19-.19h-.74Zm0-1.06h.74c1.74,0,2.61-.59,2.61-1.77,0-.5-.19-.88-.56-1.13-.37-.25-.97-.38-1.8-.38-.37,0-.7,.03-.98,.09v3.19Z"/>
      <path class="cls-1" d="M237.24,63.63c0-.71,.3-1.29,.9-1.72,.6-.43,1.47-.65,2.6-.65h.62v-.06c0-.52-.1-.88-.31-1.08-.21-.2-.58-.31-1.1-.31-.78,0-1.5,.18-2.15,.55l-.18-.98c.69-.37,1.47-.55,2.34-.55,.93,0,1.6,.19,2.02,.56,.42,.37,.63,.97,.63,1.78v2.46c0,.58,.06,1.16,.18,1.72h-1.17c-.07-.36-.1-.69-.11-.98h-.02c-.23,.34-.55,.62-.95,.81-.41,.2-.86,.29-1.37,.29-.58,0-1.05-.16-1.39-.49-.34-.33-.52-.78-.52-1.35Zm4.12-1.45h-.62c-.74,0-1.31,.13-1.71,.38-.4,.25-.6,.59-.6,1.01,0,.3,.09,.54,.28,.72s.43,.26,.73,.26c.52,0,.96-.18,1.34-.54,.38-.36,.57-.79,.57-1.31v-.53Z"/>
      <path class="cls-1" d="M245.59,58.96l.03,.92h.02c.26-.33,.58-.58,.95-.77s.75-.28,1.16-.28c1.39,0,2.09,.94,2.09,2.83v3.69h-1.21v-3.57c0-.75-.1-1.26-.29-1.53-.19-.28-.54-.41-1.03-.41-.42,0-.8,.21-1.14,.62s-.52,.9-.52,1.45v3.45h-1.23v-6.4h1.17Z"/>
      <path class="cls-1" d="M251.18,62.04c0-1.04,.22-1.84,.67-2.38,.44-.54,1.06-.82,1.86-.82,.88,0,1.56,.35,2.04,1.05h.03l.02-.92h1.17v5.78c0,2.3-1.05,3.45-3.14,3.45-.72,0-1.4-.12-2.03-.37l.25-.98c.62,.25,1.22,.37,1.79,.37,.66,0,1.15-.18,1.45-.55,.3-.36,.46-.98,.46-1.85v-.55h-.02c-.46,.66-1.13,.98-2.01,.98-.72,0-1.32-.29-1.8-.87-.48-.58-.72-1.36-.72-2.33Zm1.21,0c0,.69,.15,1.23,.46,1.62,.3,.39,.69,.59,1.17,.59,.52,0,.93-.19,1.25-.57,.32-.38,.47-.91,.47-1.58v-.12c0-.68-.16-1.21-.48-1.59-.32-.38-.73-.57-1.24-.57s-.91,.19-1.19,.56-.43,.92-.43,1.66Z"/>
      <path class="cls-1" d="M259.56,62.65c.02,.57,.22,1.03,.6,1.37,.37,.34,.84,.5,1.41,.5,.62,0,1.23-.16,1.85-.47l.31,.94c-.71,.33-1.47,.49-2.28,.49-.92,0-1.67-.3-2.26-.9-.59-.6-.88-1.41-.88-2.42s.27-1.85,.82-2.44c.55-.59,1.28-.89,2.2-.89s1.62,.28,2.13,.84c.51,.56,.76,1.37,.76,2.42,0,.12,0,.31-.02,.55h-4.63Zm0-.96h3.46c0-.61-.16-1.08-.46-1.4s-.71-.49-1.24-.49-.95,.17-1.26,.5c-.32,.33-.48,.8-.5,1.4Z"/>
      <path class="cls-1" d="M168.69,78.37c0,2.25,.88,4.14,2.65,5.68h-1.23c-.87-.72-1.54-1.57-2.01-2.55s-.7-2.02-.7-3.13,.23-2.15,.7-3.13,1.14-1.83,2.01-2.55h1.23c-1.76,1.54-2.65,3.44-2.65,5.69Z"/>
      <path class="cls-1" d="M174.99,73.82v3.67h4.18v-3.67h1.35v8.98h-1.35v-4.26h-4.18v4.26h-1.35v-8.98h1.35Z"/>
      <path class="cls-1" d="M183.24,80.09c.02,.57,.22,1.03,.6,1.37,.37,.34,.84,.5,1.41,.5,.62,0,1.23-.16,1.85-.47l.31,.94c-.71,.33-1.47,.49-2.28,.49-.92,0-1.67-.3-2.26-.9-.59-.6-.88-1.41-.88-2.42s.27-1.85,.82-2.44c.55-.59,1.28-.89,2.2-.89s1.62,.28,2.13,.84c.51,.56,.76,1.37,.76,2.42,0,.12,0,.31-.02,.55h-4.63Zm0-.96h3.46c0-.61-.16-1.08-.46-1.4-.3-.33-.71-.49-1.24-.49s-.95,.17-1.26,.5c-.32,.33-.48,.8-.5,1.4Z"/>
      <path class="cls-1" d="M188.99,81.08c0-.71,.3-1.29,.9-1.72s1.47-.65,2.6-.65h.62v-.06c0-.52-.1-.88-.31-1.08-.21-.2-.58-.31-1.1-.31-.78,0-1.5,.18-2.15,.55l-.18-.98c.69-.37,1.47-.55,2.34-.55,.93,0,1.6,.19,2.02,.56s.63,.97,.63,1.78v2.46c0,.58,.06,1.16,.18,1.72h-1.17c-.07-.36-.1-.69-.11-.98h-.02c-.23,.34-.55,.62-.95,.81-.41,.2-.86,.29-1.37,.29-.58,0-1.05-.16-1.39-.49s-.52-.78-.52-1.35Zm4.12-1.45h-.62c-.74,0-1.31,.13-1.7,.38-.4,.25-.6,.59-.6,1.01,0,.3,.09,.54,.28,.72s.43,.26,.73,.26c.52,0,.96-.18,1.34-.54,.38-.36,.57-.79,.57-1.31v-.53Z"/>
      <path class="cls-1" d="M201.59,73.57v9.23h-1.17l-.02-.92h-.02c-.47,.7-1.13,1.05-1.98,1.05-.78,0-1.4-.29-1.88-.86-.47-.57-.71-1.39-.71-2.47s.23-1.92,.68-2.48c.46-.56,1.09-.84,1.9-.84s1.47,.33,1.94,.98h.02v-3.69h1.23Zm-4.58,6.03c0,.75,.15,1.33,.46,1.73,.31,.4,.72,.6,1.22,.6s.88-.2,1.19-.6c.31-.4,.47-.96,.47-1.67v-.12c0-.71-.16-1.26-.47-1.67-.31-.41-.71-.61-1.19-.61-.53,0-.95,.2-1.24,.58-.3,.39-.44,.97-.44,1.75Z"/>
      <path class="cls-1" d="M204.64,77.32c.48-.7,1.14-1.05,1.98-1.05s1.45,.28,1.9,.84c.46,.56,.68,1.39,.68,2.48s-.24,1.9-.71,2.47c-.47,.57-1.1,.86-1.88,.86-.82,0-1.47-.31-1.94-.92h-.02v3.51h-1.23v-9.11h1.17l.02,.92h.02Zm3.36,2.28c0-.78-.15-1.36-.44-1.75-.3-.39-.71-.58-1.24-.58-.48,0-.88,.2-1.19,.61-.31,.41-.47,.96-.47,1.67v.12c0,.71,.16,1.27,.47,1.67,.31,.4,.71,.6,1.19,.6,.51,0,.92-.2,1.22-.6,.31-.4,.46-.98,.46-1.73Z"/>
      <path class="cls-1" d="M211.9,77.26h.02c.57-.66,1.26-.98,2.07-.98,1.39,0,2.09,.94,2.09,2.83v3.69h-1.21v-3.57c0-.75-.1-1.26-.29-1.53-.19-.28-.54-.41-1.03-.41-.44,0-.83,.21-1.16,.65-.33,.43-.5,.9-.5,1.42v3.45h-1.23v-9.23h1.23v3.69Z"/>
      <path class="cls-1" d="M218.21,77.17c.56-.6,1.31-.9,2.23-.9s1.67,.3,2.23,.9c.56,.6,.84,1.41,.84,2.42s-.28,1.83-.84,2.42-1.31,.9-2.23,.9-1.67-.3-2.23-.9-.84-1.41-.84-2.42,.28-1.83,.84-2.42Zm.9,4.15c.33,.41,.77,.62,1.33,.62s1-.21,1.33-.62,.49-.98,.49-1.72-.16-1.31-.49-1.72-.77-.62-1.33-.62-1,.21-1.33,.62-.49,.98-.49,1.72,.16,1.31,.49,1.72Z"/>
      <path class="cls-1" d="M226.03,76.4l.02,.92h.02c.26-.33,.58-.58,.95-.77s.75-.28,1.16-.28c1.39,0,2.09,.94,2.09,2.83v3.69h-1.21v-3.57c0-.75-.1-1.26-.29-1.53-.19-.28-.54-.41-1.03-.41-.42,0-.8,.21-1.14,.62-.34,.41-.52,.9-.52,1.45v3.45h-1.23v-6.4h1.17Z"/>
      <path class="cls-1" d="M232.81,80.09c.02,.57,.22,1.03,.6,1.37,.37,.34,.84,.5,1.41,.5,.62,0,1.23-.16,1.85-.47l.31,.94c-.71,.33-1.47,.49-2.28,.49-.92,0-1.67-.3-2.26-.9-.59-.6-.88-1.41-.88-2.42s.27-1.85,.82-2.44c.55-.59,1.28-.89,2.2-.89s1.62,.28,2.13,.84c.51,.56,.76,1.37,.76,2.42,0,.12,0,.31-.03,.55h-4.63Zm0-.96h3.46c0-.61-.16-1.08-.46-1.4-.3-.33-.71-.49-1.24-.49s-.95,.17-1.26,.5c-.32,.33-.48,.8-.5,1.4Z"/>
      <path class="cls-1" d="M249.66,78.18c0,1.56-.4,2.74-1.21,3.54s-1.96,1.2-3.47,1.2c-.84,0-1.62-.06-2.34-.18v-8.86c.73-.12,1.51-.18,2.34-.18,1.5,0,2.66,.39,3.46,1.16,.81,.78,1.21,1.88,1.21,3.33Zm-1.29,0c0-1.12-.29-1.96-.86-2.53s-1.42-.86-2.52-.86c-.37,0-.7,.03-.99,.09v6.84c.29,.06,.62,.09,.99,.09,1.15,0,2-.3,2.55-.89,.55-.59,.83-1.51,.83-2.74Z"/>
      <path class="cls-1" d="M250.51,82.8l3.2-8.98h1.48l3.2,8.98h-1.45l-.78-2.39h-3.47l-.78,2.39h-1.4Zm2.51-3.45h2.81l-1.39-4.31h-.02l-1.39,4.31Z"/>
      <path class="cls-1" d="M263.91,74.8c-.99,0-1.79,.32-2.39,.96-.6,.64-.9,1.49-.9,2.55s.31,1.92,.92,2.55,1.41,.95,2.38,.95c.79,0,1.55-.23,2.28-.68l.43,1.01c-.82,.52-1.76,.78-2.83,.78-1.37,0-2.47-.42-3.3-1.25-.83-.83-1.25-1.95-1.25-3.37s.41-2.53,1.23-3.37c.82-.83,1.93-1.25,3.32-1.25,1.07,0,2.01,.26,2.83,.78l-.43,1.01c-.72-.45-1.48-.68-2.28-.68Z"/>
      <path class="cls-1" d="M271.31,78.37c0-2.25-.88-4.14-2.65-5.69h1.23c.87,.72,1.54,1.57,2.01,2.55s.7,2.02,.7,3.13-.23,2.15-.7,3.13-1.14,1.83-2.01,2.55h-1.23c1.76-1.54,2.65-3.44,2.65-5.68Z"/>
    </g>
    <g>
      <path class="cls-1" d="M365.67,47.84V23.47h-.08l-7.63,6.9-1.62-3.66,9.34-8.53h4.47v29.64h-4.47Z"/>
      <path class="cls-1" d="M387.19,47.84V23.47h-.08l-7.63,6.9-1.62-3.66,9.34-8.53h4.47v29.64h-4.47Z"/>
      <path class="cls-1" d="M408.92,17.79c3.03,0,5.38,.75,7.05,2.25,1.67,1.5,2.5,3.59,2.5,6.27s-.86,5.32-2.58,7.84c-1.72,2.52-5.06,5.83-10.01,9.95v.08h12.59v3.66h-18.68v-3.66c5.52-4.39,9.25-7.82,11.17-10.29,1.92-2.48,2.88-4.87,2.88-7.17,0-3.46-1.84-5.2-5.52-5.2-2.46,0-5.04,.89-7.72,2.68l-1.22-3.57c2.79-1.89,5.97-2.84,9.54-2.84Z"/>
      <path class="cls-1" d="M429.77,37.92v11.08h-1.79l-.04-1.08h-.03c-.58,.82-1.36,1.23-2.35,1.23-.92,0-1.66-.35-2.22-1.04s-.85-1.68-.85-2.95,.27-2.29,.82-2.97c.55-.68,1.3-1.02,2.25-1.02s1.68,.38,2.26,1.14h.03v-4.39h1.92Zm-5.43,7.24c0,.8,.17,1.41,.49,1.84,.33,.43,.76,.64,1.28,.64s.94-.21,1.26-.63c.32-.42,.48-1.01,.48-1.78v-.15c0-.75-.16-1.34-.48-1.76-.32-.43-.74-.64-1.26-.64-.56,0-1,.21-1.31,.62-.31,.41-.46,1.03-.46,1.86Z"/>
      <path class="cls-1" d="M439.51,45.9c0,1.08-.35,1.9-1.06,2.44-.71,.54-1.82,.81-3.32,.81-1.09,0-2.13-.07-3.1-.22v-10.63c.92-.15,1.91-.22,2.95-.22,2.76,0,4.13,.9,4.13,2.7,0,.61-.2,1.13-.61,1.57-.4,.44-.94,.72-1.61,.85v.03c.81,.11,1.44,.41,1.91,.89s.7,1.08,.7,1.78Zm-5.45-3.34h.55c.92,0,1.58-.13,1.99-.38,.41-.25,.61-.62,.61-1.11s-.17-.82-.49-1.05c-.33-.23-.87-.34-1.63-.34-.36,0-.7,.03-1.02,.09v2.79Zm0,1.54v3.35c.34,.06,.71,.09,1.11,.09,.82,0,1.42-.15,1.79-.45,.38-.3,.57-.76,.57-1.38,0-.55-.22-.96-.65-1.22-.43-.26-1.16-.39-2.17-.39h-.65Z"/>
      <path class="cls-1" d="M375.65,56.37h6.65v1.13h-2.65v7.85h-1.35v-7.85h-2.65v-1.13Z"/>
      <path class="cls-1" d="M385.36,56.37v3.67h4.18v-3.67h1.35v8.98h-1.35v-4.26h-4.18v4.26h-1.35v-8.98h1.35Z"/>
      <path class="cls-1" d="M399.93,60.74c0,1.56-.4,2.74-1.21,3.54s-1.96,1.2-3.47,1.2c-.84,0-1.62-.06-2.34-.18v-8.86c.73-.12,1.51-.18,2.34-.18,1.5,0,2.66,.39,3.46,1.16,.81,.78,1.21,1.88,1.21,3.33Zm-1.29,0c0-1.12-.29-1.96-.86-2.53s-1.42-.86-2.52-.86c-.37,0-.7,.03-.99,.09v6.84c.29,.06,.62,.09,.99,.09,1.15,0,2-.3,2.55-.89,.55-.59,.83-1.51,.83-2.74Z"/>
      <path class="cls-1" d="M405.46,58.22v3.05h3.01v1.03h-3.01v3.05h-1.11v-3.05h-3.02v-1.03h3.02v-3.05h1.11Z"/>
      <path class="cls-1" d="M410.43,65.36v-8.98h1.33l4.21,6.71h.02v-6.71h1.33v8.98h-1.33l-4.21-6.71h-.02v6.71h-1.33Z"/>
      <path class="cls-1" d="M379.83,78.37c0,2.25,.88,4.14,2.65,5.68h-1.23c-.87-.72-1.54-1.57-2.01-2.55s-.7-2.02-.7-3.13,.23-2.15,.7-3.13,1.14-1.83,2.01-2.55h1.23c-1.76,1.54-2.65,3.44-2.65,5.69Z"/>
      <path class="cls-1" d="M384.16,82.8l3.2-8.98h1.48l3.2,8.98h-1.45l-.78-2.39h-3.47l-.78,2.39h-1.4Zm2.51-3.45h2.81l-1.39-4.31h-.02l-1.39,4.31Z"/>
      <path class="cls-1" d="M400.46,78.18c0,1.56-.4,2.74-1.21,3.54s-1.96,1.2-3.47,1.2c-.84,0-1.62-.06-2.34-.18v-8.86c.73-.12,1.51-.18,2.34-.18,1.5,0,2.66,.39,3.46,1.16,.81,.78,1.21,1.88,1.21,3.33Zm-1.29,0c0-1.12-.29-1.96-.86-2.53s-1.42-.86-2.52-.86c-.37,0-.7,.03-.99,.09v6.84c.29,.06,.62,.09,.99,.09,1.15,0,2-.3,2.55-.89,.55-.59,.83-1.51,.83-2.74Z"/>
      <path class="cls-1" d="M406.04,74.8c-.99,0-1.79,.32-2.39,.96-.6,.64-.9,1.49-.9,2.55s.31,1.92,.92,2.55,1.41,.95,2.38,.95c.79,0,1.55-.23,2.28-.68l.43,1.01c-.82,.52-1.76,.78-2.83,.78-1.37,0-2.47-.42-3.3-1.25-.83-.83-1.25-1.95-1.25-3.37s.41-2.53,1.23-3.37c.82-.83,1.93-1.25,3.32-1.25,1.07,0,2.01,.26,2.83,.78l-.43,1.01c-.72-.45-1.48-.68-2.28-.68Z"/>
      <path class="cls-1" d="M413.45,78.37c0-2.25-.88-4.14-2.65-5.69h1.23c.87,.72,1.54,1.57,2.01,2.55s.7,2.02,.7,3.13-.23,2.15-.7,3.13-1.14,1.83-2.01,2.55h-1.23c1.76-1.54,2.65-3.44,2.65-5.68Z"/>
    </g>
  </g>
  <g id="_イヤー_1" data-name="レイヤー 1"/>
  <g id="iD22_表" data-name="iD22 表"/>
</svg>