<svg id="レイヤー_1" data-name="レイヤー 1" xmlns="http://www.w3.org/2000/svg" viewBox="0 0 500 100"><defs><style>.cls-1{fill:#50bc82;}</style></defs><path class="cls-1" d="M10.06,50.84V31H10L3.79,36.65l-1.31-3,7.58-6.93h3.63V50.84Z"/><path class="cls-1" d="M27.72,26.42a8.28,8.28,0,0,1,5.73,1.83,6.52,6.52,0,0,1,2,5.1,11.13,11.13,0,0,1-2.09,6.37q-2.1,3.08-8.14,8.08v.07H35.47v3H20.29v-3Q27,42.53,29.37,39.5a9.6,9.6,0,0,0,2.34-5.82c0-2.81-1.49-4.22-4.49-4.22A11.38,11.38,0,0,0,21,31.63l-1-2.9A13.5,13.5,0,0,1,27.72,26.42Z"/><path class="cls-1" d="M42,29.36c1.49-2,3.71-2.94,6.68-2.94s5.2,1,6.69,2.94,2.22,5.1,2.22,9.44-.74,7.48-2.22,9.43-3.72,2.94-6.69,2.94-5.19-1-6.68-2.94-2.23-5.1-2.23-9.43S40.51,31.32,42,29.36ZM44.7,46.11a4.74,4.74,0,0,0,7.95,0c.87-1.45,1.3-3.88,1.3-7.31s-.43-5.87-1.3-7.31a4.73,4.73,0,0,0-7.95,0c-.87,1.44-1.31,3.87-1.31,7.31S43.83,44.66,44.7,46.11Z"/><path class="cls-1" d="M65.45,42.78v9H64l0-.87h0a2.34,2.34,0,0,1-3.71.15,3.71,3.71,0,0,1-.69-2.4,3.8,3.8,0,0,1,.66-2.41A2.24,2.24,0,0,1,62,45.42a2.21,2.21,0,0,1,1.84.93h0V42.78ZM61,48.66a2.41,2.41,0,0,0,.4,1.5,1.24,1.24,0,0,0,1,.52,1.22,1.22,0,0,0,1-.51,2.34,2.34,0,0,0,.39-1.45V48.6a2.36,2.36,0,0,0-.39-1.43,1.21,1.21,0,0,0-1-.52,1.25,1.25,0,0,0-1.06.5A2.46,2.46,0,0,0,61,48.66Z"/><path class="cls-1" d="M73.37,49.26a2.35,2.35,0,0,1-.86,2,4.47,4.47,0,0,1-2.7.66,16.79,16.79,0,0,1-2.52-.18V43.08a15.2,15.2,0,0,1,2.4-.18c2.24,0,3.36.74,3.36,2.2a1.86,1.86,0,0,1-.49,1.28,2.41,2.41,0,0,1-1.31.69v0a2.54,2.54,0,0,1,1.55.73A2,2,0,0,1,73.37,49.26Zm-4.43-2.71h.45a3.25,3.25,0,0,0,1.61-.3,1,1,0,0,0,.5-.91,1,1,0,0,0-.4-.85,2.37,2.37,0,0,0-1.33-.28,5.46,5.46,0,0,0-.83.07Zm0,1.25v2.72a5.11,5.11,0,0,0,.9.08,2.37,2.37,0,0,0,1.46-.37,1.33,1.33,0,0,0,.46-1.12,1.07,1.07,0,0,0-.52-1,3.66,3.66,0,0,0-1.77-.32Z"/><path class="cls-1" d="M7.05,61.33a3.86,3.86,0,0,1-1,2.87,3.82,3.82,0,0,1-2.82,1A11.35,11.35,0,0,1,1.35,65v-7.2a11.52,11.52,0,0,1,1.9-.15,3.92,3.92,0,0,1,2.82.94A3.56,3.56,0,0,1,7.05,61.33Zm-1,0a2.76,2.76,0,0,0-.7-2.06,2.79,2.79,0,0,0-2-.69,3.91,3.91,0,0,0-.8.07v5.56a4.76,4.76,0,0,0,.8.07,2.69,2.69,0,0,0,2.08-.73A3.15,3.15,0,0,0,6,61.33Z"/><path class="cls-1" d="M10.18,63.88h0l1.48-4h1.06l-3,7.4H8.68l1-2.2-1.91-5.2h1.1Z"/><path class="cls-1" d="M14.73,59.88l0,.75h0a2.43,2.43,0,0,1,.77-.63,2.09,2.09,0,0,1,.94-.22c1.14,0,1.71.76,1.71,2.3v3h-1v-2.9A2.31,2.31,0,0,0,17,60.93a1,1,0,0,0-.84-.33,1.16,1.16,0,0,0-.92.5,1.74,1.74,0,0,0-.42,1.18v2.8h-1v-5.2Z"/><path class="cls-1" d="M19.33,63.68a1.64,1.64,0,0,1,.73-1.4,3.59,3.59,0,0,1,2.11-.52h.5v0a1.2,1.2,0,0,0-.25-.88,1.26,1.26,0,0,0-.9-.25,3.54,3.54,0,0,0-1.75.45l-.15-.8a4,4,0,0,1,1.9-.45,2.47,2.47,0,0,1,1.65.45,1.9,1.9,0,0,1,.5,1.45v2a6.61,6.61,0,0,0,.16,1.4h-.95a4.08,4.08,0,0,1-.09-.8h0a1.94,1.94,0,0,1-.78.66,2.51,2.51,0,0,1-1.11.24,1.57,1.57,0,0,1-1.13-.4A1.43,1.43,0,0,1,19.33,63.68Zm3.34-1.18h-.5a2.54,2.54,0,0,0-1.38.31.93.93,0,0,0-.48.82.76.76,0,0,0,.22.58.84.84,0,0,0,.59.22A1.53,1.53,0,0,0,22.21,64a1.39,1.39,0,0,0,.46-1.06Z"/><path class="cls-1" d="M26.11,59.88l0,.7h0a1.6,1.6,0,0,1,1.31-.8,1.45,1.45,0,0,1,1.39.9h0a1.72,1.72,0,0,1,1.48-.9,1.46,1.46,0,0,1,1.21.47A2.38,2.38,0,0,1,32,61.78v3.3H31v-3a2.46,2.46,0,0,0-.19-1.19.72.72,0,0,0-.68-.31.9.9,0,0,0-.73.44,1.8,1.8,0,0,0-.32,1.06v3h-1v-3a2.62,2.62,0,0,0-.18-1.19.74.74,0,0,0-.69-.31.9.9,0,0,0-.73.44,1.79,1.79,0,0,0-.31,1.06v3h-1v-5.2Z"/><path class="cls-1" d="M33.7,58.68v-1.1h1.06v1.1Zm0,6.4v-5.2h1.06v5.2Z"/><path class="cls-1" d="M40.24,61a2.72,2.72,0,0,0-1.35-.35,1.55,1.55,0,0,0-1.21.49,2.35,2.35,0,0,0,0,2.78,1.52,1.52,0,0,0,1.18.51A2.83,2.83,0,0,0,40.24,64l.25.8a4.11,4.11,0,0,1-1.65.35,2.63,2.63,0,0,1-1.91-.73,2.67,2.67,0,0,1-.74-2,2.76,2.76,0,0,1,.7-2,2.6,2.6,0,0,1,2-.71,4,4,0,0,1,1.65.35Z"/><path class="cls-1" d="M46,62.08v3H44.9V57.83a12.79,12.79,0,0,1,2-.15,3.67,3.67,0,0,1,2.18.53,1.72,1.72,0,0,1,.73,1.47,2.25,2.25,0,0,1-.39,1.3,2,2,0,0,1-1.07.74v0a2.32,2.32,0,0,1,.8,1.19L50,65.08H48.86L48,62.93a1.39,1.39,0,0,0-.47-.7,2.12,2.12,0,0,0-1-.15Zm0-.86h.6q2.13,0,2.13-1.44a1,1,0,0,0-.46-.92,2.72,2.72,0,0,0-1.46-.3,3.94,3.94,0,0,0-.81.07Z"/><path class="cls-1" d="M50.9,63.68a1.64,1.64,0,0,1,.73-1.4,3.59,3.59,0,0,1,2.11-.52h.5v0a1.2,1.2,0,0,0-.25-.88,1.26,1.26,0,0,0-.9-.25,3.54,3.54,0,0,0-1.75.45l-.15-.8a4,4,0,0,1,1.9-.45,2.42,2.42,0,0,1,1.64.45,1.87,1.87,0,0,1,.51,1.45v2a6,6,0,0,0,.16,1.4h-1a6.52,6.52,0,0,1-.09-.8h0a1.85,1.85,0,0,1-.77.66,2.52,2.52,0,0,1-1.12.24,1.61,1.61,0,0,1-1.13-.4A1.46,1.46,0,0,1,50.9,63.68Zm3.34-1.18h-.5a2.54,2.54,0,0,0-1.38.31.93.93,0,0,0-.48.82.76.76,0,0,0,.22.58.84.84,0,0,0,.59.22A1.53,1.53,0,0,0,53.78,64a1.39,1.39,0,0,0,.46-1.06Z"/><path class="cls-1" d="M57.68,59.88l0,.75h0a2.33,2.33,0,0,1,.77-.63,2.09,2.09,0,0,1,.94-.22c1.14,0,1.7.76,1.7,2.3v3h-1v-2.9a2.33,2.33,0,0,0-.23-1.25,1,1,0,0,0-.84-.33,1.19,1.19,0,0,0-.93.5,1.8,1.8,0,0,0-.42,1.18v2.8h-1v-5.2Z"/><path class="cls-1" d="M62.22,62.38a3,3,0,0,1,.54-1.94,1.85,1.85,0,0,1,1.51-.66,1.89,1.89,0,0,1,1.66.85h0l0-.75h1v4.7c0,1.86-.85,2.8-2.55,2.8a4.56,4.56,0,0,1-1.65-.3l.2-.8a4,4,0,0,0,1.45.3,1.43,1.43,0,0,0,1.18-.45,2.36,2.36,0,0,0,.37-1.5v-.45h0a1.86,1.86,0,0,1-1.63.8,1.83,1.83,0,0,1-1.46-.71A2.91,2.91,0,0,1,62.22,62.38Zm1,0a2.16,2.16,0,0,0,.37,1.32,1.16,1.16,0,0,0,.95.48,1.27,1.27,0,0,0,1-.47,1.94,1.94,0,0,0,.38-1.28v-.1A1.91,1.91,0,0,0,65.53,61a1.24,1.24,0,0,0-1-.46,1.17,1.17,0,0,0-1,.45A2.2,2.2,0,0,0,63.2,62.38Z"/><path class="cls-1" d="M69,62.88A1.55,1.55,0,0,0,69.52,64a1.64,1.64,0,0,0,1.14.41,3.34,3.34,0,0,0,1.5-.38l.25.76a4.46,4.46,0,0,1-1.85.4,2.46,2.46,0,0,1-1.83-.74,2.67,2.67,0,0,1-.72-2,2.82,2.82,0,0,1,.67-2,2.31,2.31,0,0,1,1.78-.72,2.2,2.2,0,0,1,1.73.68,2.79,2.79,0,0,1,.62,2,4.23,4.23,0,0,1,0,.45Zm0-.78h2.81A1.63,1.63,0,0,0,71.47,61a1.28,1.28,0,0,0-1-.4,1.35,1.35,0,0,0-1,.4A1.68,1.68,0,0,0,69,62.1Z"/><path class="cls-1" d="M24.05,75.89A6.21,6.21,0,0,0,26,80.52H25a6.13,6.13,0,0,1-1.48-2.08,6.51,6.51,0,0,1,0-5.1A6,6,0,0,1,25,71.27h1A6.19,6.19,0,0,0,24.05,75.89Z"/><path class="cls-1" d="M26.74,79.25l2.6-7.3h1.2l2.6,7.3H32l-.63-1.94H28.51l-.63,1.94Zm2-2.8h2.28L29.93,73h0Z"/><path class="cls-1" d="M40,75.5a3.43,3.43,0,0,1-3.8,3.85,11.35,11.35,0,0,1-1.9-.15V72a11.52,11.52,0,0,1,1.9-.15,3.92,3.92,0,0,1,2.82.94A3.58,3.58,0,0,1,40,75.5Zm-1,0a2.45,2.45,0,0,0-2.75-2.75,3.91,3.91,0,0,0-.8.07v5.56a3.91,3.91,0,0,0,.8.07,2.69,2.69,0,0,0,2.08-.73A3.15,3.15,0,0,0,38.93,75.5Z"/><path class="cls-1" d="M44.52,72.75a2.55,2.55,0,0,0-1.94.78,2.9,2.9,0,0,0-.74,2.07,2.83,2.83,0,0,0,.75,2.07,2.57,2.57,0,0,0,1.93.78,3.38,3.38,0,0,0,1.85-.55l.35.82a4.2,4.2,0,0,1-2.3.63,3.62,3.62,0,0,1-2.68-1,3.66,3.66,0,0,1-1-2.73,3.77,3.77,0,0,1,1-2.74,3.65,3.65,0,0,1,2.7-1,4.2,4.2,0,0,1,2.3.63l-.35.82A3.38,3.38,0,0,0,44.52,72.75Z"/><path class="cls-1" d="M47.76,71.27h1a5.87,5.87,0,0,1,1.48,2.07,6.51,6.51,0,0,1,0,5.1,6,6,0,0,1-1.48,2.08h-1a6.46,6.46,0,0,0,0-9.25Z"/><path class="cls-1" d="M126.18,50.84V31h-.07l-6.2,5.61-1.32-3,7.59-6.93h3.63V50.84Z"/><path class="cls-1" d="M143.84,26.42a8.24,8.24,0,0,1,5.72,1.83,6.53,6.53,0,0,1,2,5.1,11.2,11.2,0,0,1-2.09,6.37q-2.1,3.08-8.14,8.08v.07h10.23v3H136.41v-3q6.74-5.34,9.08-8.37a9.6,9.6,0,0,0,2.34-5.82q0-4.21-4.49-4.22a11.38,11.38,0,0,0-6.27,2.17l-1-2.9A13.48,13.48,0,0,1,143.84,26.42Z"/><path class="cls-1" d="M165,51.17a8.39,8.39,0,0,1-6.47-2.44q-2.28-2.44-2.28-7.29,0-6.64,3.35-10.63a12.63,12.63,0,0,1,9.29-4.39l.66,3a11.26,11.26,0,0,0-5.86,2,10.21,10.21,0,0,0-3.35,4.92l.07.06a8.32,8.32,0,0,1,5.41-1.84,7.77,7.77,0,0,1,5.82,2.12,8.13,8.13,0,0,1,2.1,6,8.32,8.32,0,0,1-2.38,6.25A8.65,8.65,0,0,1,165,51.17Zm0-3a4.92,4.92,0,0,0,3.79-1.42,5.93,5.93,0,0,0,1.32-4.19,5.44,5.44,0,0,0-1.35-3.94A5,5,0,0,0,165,37.24a4.83,4.83,0,0,0-3.68,1.44,5.41,5.41,0,0,0-1.37,3.91,5.93,5.93,0,0,0,1.32,4.17A4.8,4.8,0,0,0,165,48.2Z"/><path class="cls-1" d="M181.57,42.78v9h-1.45l0-.87h0a2.35,2.35,0,0,1-3.72.15,3.71,3.71,0,0,1-.69-2.4,3.74,3.74,0,0,1,.67-2.41,2.22,2.22,0,0,1,1.83-.83,2.19,2.19,0,0,1,1.83.93h0V42.78Zm-4.42,5.88a2.48,2.48,0,0,0,.4,1.5,1.26,1.26,0,0,0,1,.52,1.23,1.23,0,0,0,1-.51,2.34,2.34,0,0,0,.39-1.45V48.6a2.36,2.36,0,0,0-.39-1.43,1.21,1.21,0,0,0-1-.52,1.26,1.26,0,0,0-1.06.5A2.53,2.53,0,0,0,177.15,48.66Z"/><path class="cls-1" d="M189.49,49.26a2.33,2.33,0,0,1-.87,2,4.43,4.43,0,0,1-2.7.66,17,17,0,0,1-2.52-.18V43.08a15.38,15.38,0,0,1,2.4-.18c2.24,0,3.36.74,3.36,2.2a1.81,1.81,0,0,1-.49,1.28,2.38,2.38,0,0,1-1.31.69v0a2.54,2.54,0,0,1,1.56.73A2,2,0,0,1,189.49,49.26Zm-4.43-2.71h.44a3.27,3.27,0,0,0,1.62-.3,1,1,0,0,0,.5-.91,1,1,0,0,0-.41-.85,2.33,2.33,0,0,0-1.32-.28,5.35,5.35,0,0,0-.83.07Zm0,1.25v2.72a5.11,5.11,0,0,0,.9.08,2.39,2.39,0,0,0,1.46-.37,1.33,1.33,0,0,0,.46-1.12,1.07,1.07,0,0,0-.53-1,3.61,3.61,0,0,0-1.76-.32Z"/><path class="cls-1" d="M123.17,61.33a3.9,3.9,0,0,1-1,2.87,3.82,3.82,0,0,1-2.82,1,11.35,11.35,0,0,1-1.9-.15v-7.2a11.44,11.44,0,0,1,1.9-.15,3.92,3.92,0,0,1,2.82.94A3.6,3.6,0,0,1,123.17,61.33Zm-1,0a2.76,2.76,0,0,0-.7-2.06,2.81,2.81,0,0,0-2-.69,3.84,3.84,0,0,0-.8.07v5.56a4.67,4.67,0,0,0,.8.07,2.7,2.7,0,0,0,2.08-.73A3.15,3.15,0,0,0,122.12,61.33Z"/><path class="cls-1" d="M126.3,63.88h0l1.48-4h1.06l-3,7.4H124.8l1-2.2-1.9-5.2H125Z"/><path class="cls-1" d="M130.85,59.88l0,.75h0a2.23,2.23,0,0,1,.77-.63,2.06,2.06,0,0,1,.94-.22c1.13,0,1.7.76,1.7,2.3v3h-1v-2.9a2.43,2.43,0,0,0-.23-1.25,1,1,0,0,0-.84-.33,1.19,1.19,0,0,0-.93.5,1.8,1.8,0,0,0-.42,1.18v2.8h-1v-5.2Z"/><path class="cls-1" d="M135.44,63.68a1.65,1.65,0,0,1,.74-1.4,3.59,3.59,0,0,1,2.11-.52h.5v0a1.2,1.2,0,0,0-.25-.88,1.26,1.26,0,0,0-.9-.25,3.51,3.51,0,0,0-1.75.45l-.15-.8a4,4,0,0,1,1.9-.45,2.45,2.45,0,0,1,1.64.45,1.87,1.87,0,0,1,.51,1.45v2a6.59,6.59,0,0,0,.15,1.4H139a6.52,6.52,0,0,1-.09-.8h0a1.91,1.91,0,0,1-.77.66,2.56,2.56,0,0,1-1.12.24,1.61,1.61,0,0,1-1.13-.4A1.46,1.46,0,0,1,135.44,63.68Zm3.35-1.18h-.5a2.52,2.52,0,0,0-1.38.31.92.92,0,0,0-.49.82.77.77,0,0,0,.23.58.82.82,0,0,0,.59.22,1.54,1.54,0,0,0,1.09-.44,1.39,1.39,0,0,0,.46-1.06Z"/><path class="cls-1" d="M142.23,59.88l0,.7h0a1.6,1.6,0,0,1,1.31-.8,1.46,1.46,0,0,1,1.39.9h0a1.74,1.74,0,0,1,1.49-.9,1.46,1.46,0,0,1,1.21.47,2.38,2.38,0,0,1,.39,1.53v3.3h-1v-3a2.46,2.46,0,0,0-.19-1.19.73.73,0,0,0-.68-.31.89.89,0,0,0-.73.44,1.8,1.8,0,0,0-.32,1.06v3h-1v-3a2.46,2.46,0,0,0-.19-1.19.73.73,0,0,0-.68-.31.89.89,0,0,0-.73.44,1.8,1.8,0,0,0-.32,1.06v3h-1v-5.2Z"/><path class="cls-1" d="M149.82,58.68v-1.1h1.06v1.1Zm0,6.4v-5.2h1.06v5.2Z"/><path class="cls-1" d="M156.36,61A2.72,2.72,0,0,0,155,60.6a1.53,1.53,0,0,0-1.21.49,2.35,2.35,0,0,0,0,2.78,1.52,1.52,0,0,0,1.18.51,2.83,2.83,0,0,0,1.35-.35l.25.8a4.11,4.11,0,0,1-1.65.35,2.61,2.61,0,0,1-1.91-.73,2.67,2.67,0,0,1-.74-2,2.71,2.71,0,0,1,.7-2,2.6,2.6,0,0,1,2-.71,4,4,0,0,1,1.65.35Z"/><path class="cls-1" d="M162.12,62.08v3H161V57.83a12.7,12.7,0,0,1,2-.15,3.64,3.64,0,0,1,2.17.53,1.7,1.7,0,0,1,.73,1.47,2.17,2.17,0,0,1-.39,1.3,2,2,0,0,1-1.06.74v0a2.39,2.39,0,0,1,.8,1.19l.85,2.15H165l-.83-2.15a1.38,1.38,0,0,0-.46-.7,2.15,2.15,0,0,0-1-.15Zm0-.86h.6c1.41,0,2.12-.48,2.12-1.44a1,1,0,0,0-.45-.92,2.78,2.78,0,0,0-1.47-.3,3.84,3.84,0,0,0-.8.07Z"/><path class="cls-1" d="M167,63.68a1.65,1.65,0,0,1,.74-1.4,3.59,3.59,0,0,1,2.11-.52h.5v0a1.2,1.2,0,0,0-.25-.88,1.26,1.26,0,0,0-.9-.25,3.51,3.51,0,0,0-1.75.45l-.15-.8a4,4,0,0,1,1.9-.45,2.45,2.45,0,0,1,1.64.45,1.87,1.87,0,0,1,.51,1.45v2a6.59,6.59,0,0,0,.15,1.4h-.95a6.52,6.52,0,0,1-.09-.8h0a1.91,1.91,0,0,1-.77.66,2.56,2.56,0,0,1-1.12.24,1.61,1.61,0,0,1-1.13-.4A1.46,1.46,0,0,1,167,63.68Zm3.35-1.18h-.5a2.52,2.52,0,0,0-1.38.31.92.92,0,0,0-.49.82.77.77,0,0,0,.23.58.82.82,0,0,0,.59.22A1.54,1.54,0,0,0,169.9,64a1.39,1.39,0,0,0,.46-1.06Z"/><path class="cls-1" d="M173.8,59.88l0,.75h0a2.23,2.23,0,0,1,.77-.63,2.06,2.06,0,0,1,.94-.22c1.13,0,1.7.76,1.7,2.3v3h-1v-2.9a2.43,2.43,0,0,0-.23-1.25,1,1,0,0,0-.84-.33,1.19,1.19,0,0,0-.93.5,1.8,1.8,0,0,0-.42,1.18v2.8h-1v-5.2Z"/><path class="cls-1" d="M178.34,62.38a3,3,0,0,1,.54-1.94,1.84,1.84,0,0,1,1.51-.66,1.9,1.9,0,0,1,1.66.85h0l0-.75H183v4.7c0,1.86-.85,2.8-2.55,2.8a4.48,4.48,0,0,1-1.65-.3l.2-.8a4,4,0,0,0,1.45.3,1.45,1.45,0,0,0,1.18-.45,2.36,2.36,0,0,0,.37-1.5v-.45h0a1.87,1.87,0,0,1-1.63.8,1.82,1.82,0,0,1-1.46-.71A2.91,2.91,0,0,1,178.34,62.38Zm1,0a2.09,2.09,0,0,0,.37,1.32,1.15,1.15,0,0,0,.95.48,1.27,1.27,0,0,0,1-.47,2,2,0,0,0,.38-1.28v-.1a1.91,1.91,0,0,0-.39-1.29,1.26,1.26,0,0,0-1-.46,1.16,1.16,0,0,0-1,.45A2.2,2.2,0,0,0,179.32,62.38Z"/><path class="cls-1" d="M185.15,62.88a1.51,1.51,0,0,0,.49,1.11,1.64,1.64,0,0,0,1.14.41,3.34,3.34,0,0,0,1.5-.38l.25.76a4.49,4.49,0,0,1-1.85.4,2.43,2.43,0,0,1-1.83-.74,2.67,2.67,0,0,1-.72-2,2.78,2.78,0,0,1,.67-2,2.29,2.29,0,0,1,1.78-.72,2.2,2.2,0,0,1,1.73.68,2.84,2.84,0,0,1,.62,2c0,.1,0,.25,0,.45Zm0-.78H188a1.68,1.68,0,0,0-.37-1.14,1.3,1.3,0,0,0-1-.4,1.32,1.32,0,0,0-1,.4A1.63,1.63,0,0,0,185.15,62.1Z"/><path class="cls-1" d="M140.17,75.89a6.21,6.21,0,0,0,2,4.63h-1a6.13,6.13,0,0,1-1.48-2.08,6.51,6.51,0,0,1,0-5.1,6,6,0,0,1,1.48-2.07h1A6.19,6.19,0,0,0,140.17,75.89Z"/><path class="cls-1" d="M149.06,75.5a3.88,3.88,0,0,1-1,2.87,3.82,3.82,0,0,1-2.82,1,11.35,11.35,0,0,1-1.9-.15V72a11.44,11.44,0,0,1,1.9-.15,3.92,3.92,0,0,1,2.82.94A3.61,3.61,0,0,1,149.06,75.5Zm-1.05,0a2.78,2.78,0,0,0-.7-2.06,2.81,2.81,0,0,0-2.05-.69,3.84,3.84,0,0,0-.8.07v5.56a3.84,3.84,0,0,0,.8.07,2.66,2.66,0,0,0,2.07-.73A3.11,3.11,0,0,0,148,75.5Z"/><path class="cls-1" d="M149.75,79.25l2.6-7.3h1.2l2.6,7.3H155l-.63-1.94h-2.82l-.63,1.94Zm2-2.8h2.28L152.94,73h0Z"/><path class="cls-1" d="M160.64,72.75a2.53,2.53,0,0,0-1.94.78A2.9,2.9,0,0,0,158,75.6a2.83,2.83,0,0,0,.75,2.07,2.55,2.55,0,0,0,1.93.78,3.41,3.41,0,0,0,1.85-.55l.35.82a4.22,4.22,0,0,1-2.3.63,3.64,3.64,0,0,1-2.69-1,4.22,4.22,0,0,1,0-5.47,3.65,3.65,0,0,1,2.7-1,4.22,4.22,0,0,1,2.3.63l-.35.82A3.41,3.41,0,0,0,160.64,72.75Z"/><path class="cls-1" d="M163.88,71.27h1a6,6,0,0,1,1.48,2.07,6.51,6.51,0,0,1,0,5.1,6.13,6.13,0,0,1-1.48,2.08h-1a6.46,6.46,0,0,0,0-9.25Z"/><path class="cls-1" d="M233.55,29.36q2.22-2.94,6.68-2.94t6.68,2.94c1.49,2,2.23,5.1,2.23,9.44s-.74,7.48-2.23,9.43-3.71,2.94-6.68,2.94-5.2-1-6.68-2.94-2.23-5.1-2.23-9.43S232.06,31.32,233.55,29.36Zm2.7,16.75a4.75,4.75,0,0,0,8,0c.86-1.45,1.3-3.88,1.3-7.31s-.44-5.87-1.3-7.31a4.73,4.73,0,0,0-8,0c-.87,1.44-1.3,3.87-1.3,7.31S235.38,44.66,236.25,46.11Z"/><path class="cls-1" d="M253.66,50.84v-5H258v5Z"/><path class="cls-1" d="M264.7,29.36q2.22-2.94,6.68-2.94t6.68,2.94c1.49,2,2.23,5.1,2.23,9.44s-.74,7.48-2.23,9.43-3.71,2.94-6.68,2.94-5.2-1-6.68-2.94-2.23-5.1-2.23-9.43S263.21,31.32,264.7,29.36Zm2.7,16.75a4.75,4.75,0,0,0,8,0c.87-1.45,1.3-3.88,1.3-7.31s-.43-5.87-1.3-7.31a4.73,4.73,0,0,0-8,0c-.87,1.44-1.3,3.87-1.3,7.31S266.53,44.66,267.4,46.11Z"/><path class="cls-1" d="M285.49,29.36q2.22-2.94,6.68-2.94t6.68,2.94c1.49,2,2.23,5.1,2.23,9.44s-.74,7.48-2.23,9.43-3.71,2.94-6.68,2.94-5.2-1-6.68-2.94-2.23-5.1-2.23-9.43S284,31.32,285.49,29.36Zm2.7,16.75a4.75,4.75,0,0,0,8,0c.86-1.45,1.3-3.88,1.3-7.31s-.44-5.87-1.3-7.31a4.73,4.73,0,0,0-8,0c-.87,1.44-1.3,3.87-1.3,7.31S287.32,44.66,288.19,46.11Z"/><path class="cls-1" d="M312.63,50.84V31h-.07l-6.2,5.61-1.32-3,7.59-6.93h3.63V50.84Z"/><path class="cls-1" d="M324.34,43.52a2.43,2.43,0,0,1,3.24,0,2.92,2.92,0,0,1,0,3.52,2.4,2.4,0,0,1-3.24,0,3,3,0,0,1,0-3.52Zm1.62,3c.51,0,.77-.42.77-1.28S326.47,44,326,44s-.76.42-.76,1.27S325.45,46.56,326,46.56ZM330.42,43h1.48l-4.8,8.76h-1.48Zm-.48,4.74a2.13,2.13,0,0,1,1.62-.62,2.1,2.1,0,0,1,1.62.62,2.5,2.5,0,0,1,.58,1.77,2.48,2.48,0,0,1-.58,1.76,2.1,2.1,0,0,1-1.62.61,2.13,2.13,0,0,1-1.62-.61,2.52,2.52,0,0,1-.57-1.76A2.55,2.55,0,0,1,329.94,47.76Zm1.62,3c.51,0,.76-.42.76-1.27s-.25-1.29-.76-1.29-.75.43-.75,1.29S331.06,50.8,331.56,50.8Z"/><path class="cls-1" d="M263,57.78h5.41v.92h-2.16v6.38h-1.1V58.7H263Z"/><path class="cls-1" d="M270.87,57.78v3h3.39v-3h1.11v7.3h-1.11V61.62h-3.39v3.46h-1.11v-7.3Z"/><path class="cls-1" d="M282.71,61.33a3.86,3.86,0,0,1-1,2.87,3.81,3.81,0,0,1-2.81,1A11.38,11.38,0,0,1,277,65v-7.2a11.56,11.56,0,0,1,1.91-.15,3.91,3.91,0,0,1,2.81.94A3.57,3.57,0,0,1,282.71,61.33Zm-1,0a2.45,2.45,0,0,0-2.75-2.75,3.94,3.94,0,0,0-.81.07v5.56a4.79,4.79,0,0,0,.81.07,2.68,2.68,0,0,0,2.07-.73A3.15,3.15,0,0,0,281.66,61.33Z"/><path class="cls-1" d="M287.2,59.28v2.48h2.44v.84H287.2v2.48h-.91V62.6h-2.45v-.84h2.45V59.28Z"/><path class="cls-1" d="M291.23,65.08v-7.3h1.08l3.42,5.45h0V57.78h1.08v7.3h-1.08l-3.42-5.45h0v5.45Z"/><path class="cls-1" d="M299,61.18v-1.5h1.3v1.5Zm0,3.9v-1.5h1.3v1.5Z"/><path class="cls-1" d="M269.17,75.89a6.21,6.21,0,0,0,1.95,4.63h-1a6.13,6.13,0,0,1-1.48-2.08,6.51,6.51,0,0,1,0-5.1,6,6,0,0,1,1.48-2.07h1A6.19,6.19,0,0,0,269.17,75.89Z"/><path class="cls-1" d="M271.86,79.25l2.6-7.3h1.2l2.6,7.3h-1.18l-.63-1.94h-2.82L273,79.25Zm2-2.8h2.28L275.05,73h0Z"/><path class="cls-1" d="M285.1,75.5a3.88,3.88,0,0,1-1,2.87,3.82,3.82,0,0,1-2.82,1,11.35,11.35,0,0,1-1.9-.15V72a11.44,11.44,0,0,1,1.9-.15,3.92,3.92,0,0,1,2.82.94A3.61,3.61,0,0,1,285.1,75.5Zm-1.05,0a2.78,2.78,0,0,0-.7-2.06,2.81,2.81,0,0,0-2.05-.69,3.84,3.84,0,0,0-.8.07v5.56a3.84,3.84,0,0,0,.8.07,2.71,2.71,0,0,0,2.08-.73A3.15,3.15,0,0,0,284.05,75.5Z"/><path class="cls-1" d="M289.64,72.75a2.52,2.52,0,0,0-1.94.78A2.9,2.9,0,0,0,287,75.6a2.83,2.83,0,0,0,.75,2.07,2.55,2.55,0,0,0,1.93.78,3.41,3.41,0,0,0,1.85-.55l.35.82a4.22,4.22,0,0,1-2.3.63,3.64,3.64,0,0,1-2.69-1,4.22,4.22,0,0,1,0-5.47,3.65,3.65,0,0,1,2.7-1,4.22,4.22,0,0,1,2.3.63l-.35.82A3.41,3.41,0,0,0,289.64,72.75Z"/><path class="cls-1" d="M292.88,71.27h1a6,6,0,0,1,1.48,2.07,6.51,6.51,0,0,1,0,5.1,6.13,6.13,0,0,1-1.48,2.08h-1a6.46,6.46,0,0,0,0-9.25Z"/><path class="cls-1" d="M378.59,29.36c1.49-2,3.71-2.94,6.68-2.94s5.2,1,6.69,2.94,2.22,5.1,2.22,9.44-.74,7.48-2.22,9.43-3.72,2.94-6.69,2.94-5.19-1-6.68-2.94-2.23-5.1-2.23-9.43S377.11,31.32,378.59,29.36Zm2.71,16.75a4.74,4.74,0,0,0,7.95,0c.87-1.45,1.3-3.88,1.3-7.31s-.43-5.87-1.3-7.31a4.73,4.73,0,0,0-7.95,0c-.87,1.44-1.31,3.87-1.31,7.31S380.43,44.66,381.3,46.11Z"/><path class="cls-1" d="M398.7,50.84v-5H403v5Z"/><path class="cls-1" d="M409.74,29.36a7.87,7.87,0,0,1,6.68-2.94q4.45,0,6.69,2.94c1.48,2,2.22,5.1,2.22,9.44s-.74,7.48-2.22,9.43-3.72,2.94-6.69,2.94a7.87,7.87,0,0,1-6.68-2.94c-1.48-1.95-2.23-5.1-2.23-9.43S408.26,31.32,409.74,29.36Zm2.71,16.75a4.74,4.74,0,0,0,7.95,0c.87-1.45,1.31-3.88,1.31-7.31s-.44-5.87-1.31-7.31a4.73,4.73,0,0,0-7.95,0c-.87,1.44-1.31,3.87-1.31,7.31S411.58,44.66,412.45,46.11Z"/><path class="cls-1" d="M430.53,29.36c1.49-2,3.71-2.94,6.68-2.94s5.2,1,6.69,2.94,2.22,5.1,2.22,9.44-.74,7.48-2.22,9.43-3.72,2.94-6.69,2.94-5.19-1-6.68-2.94-2.23-5.1-2.23-9.43S429.05,31.32,430.53,29.36Zm2.71,16.75a4.74,4.74,0,0,0,7.95,0c.87-1.45,1.3-3.88,1.3-7.31s-.43-5.87-1.3-7.31a4.73,4.73,0,0,0-7.95,0c-.87,1.44-1.31,3.87-1.31,7.31S432.37,44.66,433.24,46.11Z"/><path class="cls-1" d="M451.32,29.36c1.49-2,3.71-2.94,6.68-2.94s5.2,1,6.69,2.94,2.22,5.1,2.22,9.44-.74,7.48-2.22,9.43S461,51.17,458,51.17s-5.19-1-6.68-2.94-2.23-5.1-2.23-9.43S449.84,31.32,451.32,29.36ZM454,46.11a4.74,4.74,0,0,0,8,0c.87-1.45,1.3-3.88,1.3-7.31s-.43-5.87-1.3-7.31a4.73,4.73,0,0,0-8,0c-.87,1.44-1.31,3.87-1.31,7.31S453.16,44.66,454,46.11Z"/><path class="cls-1" d="M485.72,29.72H475.66l-.33,6.6h.06a8.25,8.25,0,0,1,4.06-1,7.16,7.16,0,0,1,5.35,2,7.46,7.46,0,0,1,1.91,5.48q0,4.16-2.34,6.28t-6.9,2.13a13.47,13.47,0,0,1-6.27-1.48l.83-3a12.16,12.16,0,0,0,5.44,1.48q5.61,0,5.61-5.44,0-4.59-4.29-4.59a5.51,5.51,0,0,0-4,1.45H471.7l.66-12.87h13.36Z"/><path class="cls-1" d="M490.17,43.52a2.44,2.44,0,0,1,3.25,0,3,3,0,0,1,0,3.52,2.41,2.41,0,0,1-3.25,0,3,3,0,0,1,0-3.52Zm1.62,3c.51,0,.77-.42.77-1.28S492.3,44,491.79,44s-.75.42-.75,1.27S491.29,46.56,491.79,46.56ZM496.26,43h1.47l-4.8,8.76h-1.47Zm-.48,4.74a2.1,2.1,0,0,1,1.62-.62,2.13,2.13,0,0,1,1.62.62,2.55,2.55,0,0,1,.57,1.77,2.52,2.52,0,0,1-.57,1.76,2.13,2.13,0,0,1-1.62.61,2.1,2.1,0,0,1-1.62-.61,2.48,2.48,0,0,1-.58-1.76A2.5,2.5,0,0,1,495.78,47.76Zm1.62,3c.5,0,.75-.42.75-1.27s-.25-1.29-.75-1.29-.76.43-.76,1.29S496.89,50.8,497.4,50.8Z"/><path class="cls-1" d="M418.41,57.78h5.4v.92h-2.15v6.38h-1.1V58.7h-2.15Z"/><path class="cls-1" d="M426.3,57.78v3h3.41v-3h1.09v7.3h-1.09V61.62H426.3v3.46h-1.09v-7.3Z"/><path class="cls-1" d="M438.14,61.33a3.43,3.43,0,0,1-3.8,3.85,11.35,11.35,0,0,1-1.9-.15v-7.2a11.52,11.52,0,0,1,1.9-.15,3.92,3.92,0,0,1,2.82.94A3.56,3.56,0,0,1,438.14,61.33Zm-1.05,0a2.76,2.76,0,0,0-.7-2.06,2.79,2.79,0,0,0-2.05-.69,3.91,3.91,0,0,0-.8.07v5.56a4.76,4.76,0,0,0,.8.07,2.69,2.69,0,0,0,2.08-.73A3.15,3.15,0,0,0,437.09,61.33Z"/><path class="cls-1" d="M442.63,59.28v2.48h2.45v.84h-2.45v2.48h-.9V62.6h-2.44v-.84h2.44V59.28Z"/><path class="cls-1" d="M446.67,65.08v-7.3h1.08l3.42,5.45h0V57.78h1.08v7.3h-1.08l-3.42-5.45h0v5.45Z"/><path class="cls-1" d="M454.41,61.18v-1.5h1.3v1.5Zm0,3.9v-1.5h1.3v1.5Z"/><path class="cls-1" d="M424.61,75.89a6.21,6.21,0,0,0,1.95,4.63h-1a6.13,6.13,0,0,1-1.48-2.08,6.51,6.51,0,0,1,0-5.1,6,6,0,0,1,1.48-2.07h1A6.19,6.19,0,0,0,424.61,75.89Z"/><path class="cls-1" d="M433.5,75.5a3.88,3.88,0,0,1-1,2.87,3.82,3.82,0,0,1-2.82,1,11.35,11.35,0,0,1-1.9-.15V72a11.44,11.44,0,0,1,1.9-.15,3.88,3.88,0,0,1,2.81.94A3.58,3.58,0,0,1,433.5,75.5Zm-1.05,0a2.78,2.78,0,0,0-.7-2.06,2.81,2.81,0,0,0-2.05-.69,3.84,3.84,0,0,0-.8.07v5.56a3.84,3.84,0,0,0,.8.07,2.68,2.68,0,0,0,2.07-.73A3.15,3.15,0,0,0,432.45,75.5Z"/><path class="cls-1" d="M434.19,79.25l2.6-7.3H438l2.6,7.3h-1.18l-.63-1.94H436l-.63,1.94Zm2-2.8h2.28L437.38,73h0Z"/><path class="cls-1" d="M445.08,72.75a2.55,2.55,0,0,0-1.95.78,2.89,2.89,0,0,0-.73,2.07,2.83,2.83,0,0,0,.75,2.07,2.55,2.55,0,0,0,1.93.78,3.41,3.41,0,0,0,1.85-.55l.35.82a4.22,4.22,0,0,1-2.3.63,3.64,3.64,0,0,1-2.69-1,4.22,4.22,0,0,1,0-5.47,3.65,3.65,0,0,1,2.7-1,4.22,4.22,0,0,1,2.3.63l-.35.82A3.41,3.41,0,0,0,445.08,72.75Z"/><path class="cls-1" d="M448.32,71.55h1a6.19,6.19,0,0,1,1.48,2.07,6.51,6.51,0,0,1,0,5.1,6.13,6.13,0,0,1-1.48,2.08h-1a6.46,6.46,0,0,0,0-9.25Z"/></svg>