<?xml version="1.0" encoding="UTF-8"?>
<svg id="Layer_1" data-name="Layer 1" xmlns="http://www.w3.org/2000/svg" viewBox="0 0 623.62 297.64">
  <defs>
    <style>
      .cls-1 {
        fill: #009600;
      }

      .cls-1, .cls-2, .cls-3, .cls-4, .cls-5 {
        stroke-width: 0px;
      }

      .cls-2 {
        fill: #000;
      }

      .cls-3 {
        fill: #0096ff;
      }

      .cls-6 {
        fill: none;
        stroke: #000;
        stroke-miterlimit: 10;
        stroke-width: 2.83px;
      }

      .cls-4 {
        fill: #c80000;
      }

      .cls-5 {
        fill: #fff;
      }
    </style>
  </defs>
  <rect class="cls-2" x="28.35" y="18.43" width="73.95" height="24.65" rx="4.23" ry="4.23"/>
  <g>
    <path class="cls-5" d="M48.32,34.75c-1.34.17-2.74.26-4.18.26-.99,0-1.66-.18-2.02-.53-.36-.35-.54-1.03-.54-2.03v-2.35l-2.08.31-.22-1.55,2.3-.34v-2.07h1.69v1.81l5.17-.78.23,1.55c-.28.61-.65,1.22-1.12,1.82-.47.6-.99,1.12-1.55,1.58l-1.14-1.17c.7-.58,1.3-1.22,1.78-1.92l-3.37.52v2.24c0,.24,0,.42.01.56s.03.26.07.38.08.2.13.25c.04.05.12.09.24.13.12.04.23.06.36.07.12,0,.29,0,.52,0,1.25,0,2.46-.09,3.65-.26l.09,1.51Z"/>
    <path class="cls-5" d="M51.47,29.08l1.37-.32c.28.97.53,1.9.75,2.79l-1.41.33c-.22-.94-.45-1.87-.71-2.8ZM58.49,28.64c-.01,1.5-.21,2.69-.58,3.6-.37.9-.95,1.58-1.72,2.03s-1.83.74-3.16.87l-.29-1.37c1.11-.13,1.96-.37,2.56-.71.6-.34,1.03-.86,1.3-1.56s.41-1.67.42-2.93l1.47.07ZM53.69,28.82l1.41-.32c.29,1.04.54,1.99.75,2.85l-1.41.32c-.28-1.11-.53-2.06-.75-2.85Z"/>
    <path class="cls-5" d="M62.99,26.56h1.77v2.88c1.89.46,3.76,1.03,5.61,1.7l-.54,1.6c-1.76-.63-3.45-1.15-5.07-1.56v4.09h-1.77v-8.7Z"/>
    <path class="cls-5" d="M73.04,30.73v-1.98h1.98v1.98h-1.98ZM73.04,34.66v-1.98h1.98v1.98h-1.98Z"/>
    <path class="cls-5" d="M77.97,27.86c.5-.61,1.26-.92,2.28-.92s1.78.31,2.28.92c.5.61.75,1.61.75,3s-.25,2.38-.75,3c-.5.61-1.26.92-2.28.92s-1.78-.31-2.28-.92c-.5-.61-.75-1.61-.75-3s.25-2.38.75-3ZM79.32,32.85c.2.38.51.57.92.57s.72-.19.92-.57.3-1.05.3-1.99-.1-1.61-.3-1.99c-.2-.38-.51-.57-.92-.57s-.73.19-.92.57c-.2.38-.3,1.05-.3,1.99s.1,1.61.3,1.99Z"/>
    <path class="cls-5" d="M87.19,27.05h1.85v7.62h-1.85v-5.67h-.01l-2,1.46v-1.95l2.01-1.46Z"/>
  </g>
  <rect class="cls-1" x="192.76" y="18.43" width="73.95" height="24.65" rx="4.23" ry="4.23"/>
  <g>
    <path class="cls-5" d="M206.73,27.57l1.57-.67c.59,1.24,1.16,2.47,1.7,3.7l-1.62.63c-.65-1.48-1.2-2.7-1.65-3.66ZM215.25,26.92c-.03,1.86-.27,3.35-.73,4.47-.46,1.12-1.16,1.96-2.12,2.53s-2.26.94-3.91,1.11l-.31-1.55c.83-.1,1.53-.25,2.1-.44s1.07-.44,1.5-.76c.43-.32.77-.72,1.02-1.23.25-.5.44-1.09.56-1.77.12-.68.19-1.5.21-2.46l1.68.09Z"/>
    <path class="cls-5" d="M218.03,28.25l.8-1.51c1.02.46,2.1,1,3.26,1.62l-.84,1.51c-1.16-.62-2.23-1.16-3.21-1.62ZM224.94,27.76l1.6.35c-.37,2.1-1.21,3.71-2.52,4.83-1.31,1.12-3.15,1.78-5.51,1.99l-.26-1.64c2-.2,3.53-.74,4.58-1.6,1.05-.87,1.75-2.18,2.12-3.93Z"/>
    <path class="cls-5" d="M234.57,29.13h-3.09c-.45,1.03-1.12,1.98-2.01,2.84l-1.19-1.02c.59-.59,1.08-1.28,1.47-2.06.39-.78.63-1.57.73-2.35l1.64.09c-.04.34-.09.67-.16.99h3.22c-.18-.36-.37-.71-.55-1.04l.98-.49c.29.54.55,1.05.79,1.53v.18c0,2.48-.55,4.31-1.67,5.47-1.11,1.16-2.9,1.84-5.38,2.04l-.26-1.51c1.85-.19,3.19-.62,4.01-1.31.82-.68,1.31-1.8,1.46-3.35ZM238.01,27.49l-1,.48c-.38-.72-.65-1.24-.81-1.54l1-.5c.32.58.59,1.11.81,1.57Z"/>
    <path class="cls-5" d="M239.81,27.86c.5-.61,1.26-.92,2.28-.92s1.78.31,2.28.92c.5.61.75,1.61.75,3s-.25,2.38-.75,3c-.5.61-1.26.92-2.28.92s-1.78-.31-2.28-.92c-.5-.61-.75-1.61-.75-3s.25-2.38.75-3ZM241.17,32.85c.2.38.51.57.92.57s.72-.19.92-.57.3-1.05.3-1.99-.1-1.61-.3-1.99c-.2-.38-.51-.57-.92-.57s-.73.19-.92.57c-.2.38-.3,1.05-.3,1.99s.1,1.61.3,1.99Z"/>
    <path class="cls-5" d="M249.03,27.05h1.85v7.62h-1.85v-5.67h-.01l-2,1.46v-1.95l2.01-1.46Z"/>
  </g>
  <rect class="cls-1" x="192.76" y="52.44" width="73.95" height="24.65" rx="4.23" ry="4.23"/>
  <g>
    <path class="cls-5" d="M206.73,61.58l1.57-.67c.59,1.24,1.16,2.47,1.7,3.7l-1.62.63c-.65-1.48-1.2-2.7-1.65-3.66ZM215.25,60.94c-.03,1.86-.27,3.35-.73,4.47-.46,1.12-1.16,1.96-2.12,2.53s-2.26.94-3.91,1.11l-.31-1.55c.83-.1,1.53-.25,2.1-.44s1.07-.44,1.5-.76c.43-.32.77-.72,1.02-1.23.25-.5.44-1.09.56-1.77.12-.68.19-1.5.21-2.46l1.68.09Z"/>
    <path class="cls-5" d="M218.03,62.26l.8-1.51c1.02.46,2.1,1,3.26,1.62l-.84,1.51c-1.16-.62-2.23-1.16-3.21-1.62ZM224.94,61.77l1.6.35c-.37,2.1-1.21,3.71-2.52,4.83-1.31,1.12-3.15,1.78-5.51,1.99l-.26-1.64c2-.2,3.53-.74,4.58-1.6,1.05-.87,1.75-2.18,2.12-3.93Z"/>
    <path class="cls-5" d="M234.57,63.15h-3.09c-.45,1.03-1.12,1.98-2.01,2.84l-1.19-1.02c.59-.59,1.08-1.28,1.47-2.06.39-.78.63-1.57.73-2.35l1.64.09c-.04.34-.09.67-.16.99h3.22c-.18-.36-.37-.71-.55-1.04l.98-.49c.29.54.55,1.05.79,1.53v.18c0,2.48-.55,4.31-1.67,5.47-1.11,1.16-2.9,1.84-5.38,2.04l-.26-1.51c1.85-.19,3.19-.62,4.01-1.31.82-.68,1.31-1.8,1.46-3.35ZM238.01,61.51l-1,.48c-.38-.72-.65-1.24-.81-1.54l1-.5c.32.58.59,1.11.81,1.57Z"/>
    <path class="cls-5" d="M239.81,61.87c.5-.61,1.26-.92,2.28-.92s1.78.31,2.28.92c.5.61.75,1.61.75,3s-.25,2.38-.75,3c-.5.61-1.26.92-2.28.92s-1.78-.31-2.28-.92c-.5-.61-.75-1.61-.75-3s.25-2.38.75-3ZM241.17,66.86c.2.38.51.57.92.57s.72-.19.92-.57.3-1.05.3-1.99-.1-1.61-.3-1.99c-.2-.38-.51-.57-.92-.57s-.73.19-.92.57c-.2.38-.3,1.05-.3,1.99s.1,1.61.3,1.99Z"/>
    <path class="cls-5" d="M249.15,67.23v.02h2.88v1.43h-5.22v-1.43c1.37-1.05,2.27-1.83,2.71-2.35s.65-1.02.65-1.51c0-.64-.35-.96-1.06-.96-.57,0-1.28.19-2.14.58v-1.62c.75-.29,1.55-.44,2.4-.44s1.49.2,1.95.6.68.95.68,1.66c0,.61-.19,1.2-.58,1.76s-1.14,1.31-2.27,2.25Z"/>
  </g>
  <rect class="cls-1" x="192.76" y="86.46" width="73.95" height="24.65" rx="4.23" ry="4.23"/>
  <g>
    <path class="cls-5" d="M206.73,95.6l1.57-.67c.59,1.24,1.16,2.47,1.7,3.7l-1.62.63c-.65-1.48-1.2-2.7-1.65-3.66ZM215.25,94.95c-.03,1.86-.27,3.35-.73,4.47-.46,1.12-1.16,1.96-2.12,2.53s-2.26.94-3.91,1.11l-.31-1.55c.83-.1,1.53-.25,2.1-.44.57-.19,1.07-.44,1.5-.76.43-.32.77-.72,1.02-1.23.25-.5.44-1.09.56-1.77.12-.68.19-1.5.21-2.46l1.68.09Z"/>
    <path class="cls-5" d="M218.03,96.28l.8-1.51c1.02.46,2.1,1,3.26,1.62l-.84,1.51c-1.16-.62-2.23-1.16-3.21-1.62ZM224.94,95.79l1.6.35c-.37,2.1-1.21,3.71-2.52,4.83-1.31,1.12-3.15,1.78-5.51,1.99l-.26-1.64c2-.2,3.53-.74,4.58-1.6,1.05-.87,1.75-2.18,2.12-3.93Z"/>
    <path class="cls-5" d="M234.57,97.16h-3.09c-.45,1.03-1.12,1.98-2.01,2.84l-1.19-1.02c.59-.59,1.08-1.28,1.47-2.06.39-.78.63-1.57.73-2.35l1.64.09c-.04.34-.09.67-.16.99h3.22c-.18-.36-.37-.71-.55-1.04l.98-.49c.29.54.55,1.05.79,1.53v.18c0,2.48-.55,4.31-1.67,5.47-1.11,1.16-2.9,1.84-5.38,2.04l-.26-1.51c1.85-.19,3.19-.62,4.01-1.31.82-.68,1.31-1.8,1.46-3.35ZM238.01,95.53l-1,.48c-.38-.72-.65-1.24-.81-1.54l1-.5c.32.58.59,1.11.81,1.57Z"/>
    <path class="cls-5" d="M239.81,95.89c.5-.61,1.26-.92,2.28-.92s1.78.31,2.28.92c.5.61.75,1.61.75,3s-.25,2.38-.75,3c-.5.61-1.26.92-2.28.92s-1.78-.31-2.28-.92c-.5-.61-.75-1.61-.75-3s.25-2.38.75-3ZM241.17,100.88c.2.38.51.57.92.57s.72-.19.92-.57c.2-.38.3-1.05.3-1.99s-.1-1.61-.3-1.99c-.2-.38-.51-.57-.92-.57s-.73.19-.92.57c-.2.38-.3,1.05-.3,1.99s.1,1.61.3,1.99Z"/>
    <path class="cls-5" d="M249.97,98.21c.61,0,1.09.19,1.46.56.37.38.55.88.55,1.52,0,.81-.25,1.43-.74,1.86-.49.43-1.2.65-2.13.65-.79,0-1.55-.12-2.26-.37v-1.53c.77.33,1.48.49,2.12.49.4,0,.72-.09.94-.28.22-.19.33-.45.33-.78s-.13-.58-.4-.72-.77-.21-1.5-.21h-.52v-1.19l1.93-1.67v-.02h-2.95v-1.43h5.08v1.43l-2.04,1.68v.02h.14Z"/>
  </g>
  <rect class="cls-1" x="192.76" y="120.47" width="73.95" height="24.65" rx="4.23" ry="4.23"/>
  <g>
    <path class="cls-5" d="M206.73,129.61l1.57-.67c.59,1.24,1.16,2.47,1.7,3.7l-1.62.63c-.65-1.48-1.2-2.7-1.65-3.66ZM215.25,128.97c-.03,1.86-.27,3.36-.73,4.47-.46,1.12-1.16,1.96-2.12,2.53s-2.26.94-3.91,1.11l-.31-1.55c.83-.1,1.53-.25,2.1-.44s1.07-.44,1.5-.76c.43-.32.77-.72,1.02-1.23.25-.5.44-1.09.56-1.77.12-.68.19-1.5.21-2.46l1.68.09Z"/>
    <path class="cls-5" d="M218.03,130.29l.8-1.51c1.02.46,2.1,1,3.26,1.62l-.84,1.51c-1.16-.62-2.23-1.16-3.21-1.62ZM224.94,129.8l1.6.35c-.37,2.1-1.21,3.71-2.52,4.83-1.31,1.12-3.15,1.78-5.51,1.99l-.26-1.64c2-.2,3.53-.74,4.58-1.6s1.75-2.18,2.12-3.93Z"/>
    <path class="cls-5" d="M234.57,131.18h-3.09c-.45,1.03-1.12,1.98-2.01,2.84l-1.19-1.02c.59-.59,1.08-1.28,1.47-2.06.39-.78.63-1.57.73-2.35l1.64.09c-.04.34-.09.67-.16.99h3.22c-.18-.36-.37-.71-.55-1.04l.98-.49c.29.54.55,1.05.79,1.53v.18c0,2.48-.55,4.31-1.67,5.47-1.11,1.16-2.9,1.84-5.38,2.04l-.26-1.51c1.85-.19,3.19-.62,4.01-1.31.82-.68,1.31-1.8,1.46-3.35ZM238.01,129.54l-1,.48c-.38-.72-.65-1.24-.81-1.54l1-.5c.32.58.59,1.11.81,1.57Z"/>
    <path class="cls-5" d="M239.81,129.91c.5-.61,1.26-.92,2.28-.92s1.78.31,2.28.92c.5.61.75,1.61.75,3s-.25,2.38-.75,3c-.5.61-1.26.92-2.28.92s-1.78-.31-2.28-.92c-.5-.61-.75-1.61-.75-3s.25-2.38.75-3ZM241.17,134.89c.2.38.51.57.92.57s.72-.19.92-.57.3-1.05.3-1.99-.1-1.61-.3-1.99-.51-.57-.92-.57-.73.19-.92.57-.3,1.05-.3,1.99.1,1.61.3,1.99Z"/>
    <path class="cls-5" d="M251.21,133.86h1.11v1.39h-1.11v1.46h-1.69v-1.46h-3.39v-1.39l3.39-4.77h1.69v4.77ZM249.52,133.86v-2.62h-.02l-1.81,2.6v.02h1.83Z"/>
  </g>
  <rect class="cls-1" x="192.76" y="154.49" width="73.95" height="24.65" rx="4.23" ry="4.23"/>
  <g>
    <path class="cls-5" d="M206.73,163.63l1.57-.67c.59,1.24,1.16,2.47,1.7,3.7l-1.62.63c-.65-1.48-1.2-2.7-1.65-3.66ZM215.25,162.98c-.03,1.86-.27,3.36-.73,4.47-.46,1.12-1.16,1.96-2.12,2.53s-2.26.94-3.91,1.11l-.31-1.55c.83-.1,1.53-.25,2.1-.44s1.07-.44,1.5-.76c.43-.32.77-.72,1.02-1.23.25-.5.44-1.09.56-1.77.12-.68.19-1.5.21-2.46l1.68.09Z"/>
    <path class="cls-5" d="M218.03,164.31l.8-1.51c1.02.46,2.1,1,3.26,1.62l-.84,1.51c-1.16-.62-2.23-1.16-3.21-1.62ZM224.94,163.82l1.6.35c-.37,2.1-1.21,3.71-2.52,4.83-1.31,1.12-3.15,1.78-5.51,1.99l-.26-1.64c2-.2,3.53-.74,4.58-1.6s1.75-2.18,2.12-3.93Z"/>
    <path class="cls-5" d="M234.57,165.2h-3.09c-.45,1.03-1.12,1.98-2.01,2.84l-1.19-1.02c.59-.59,1.08-1.28,1.47-2.06.39-.78.63-1.57.73-2.35l1.64.09c-.04.34-.09.67-.16.99h3.22c-.18-.36-.37-.71-.55-1.04l.98-.49c.29.54.55,1.05.79,1.53v.18c0,2.48-.55,4.31-1.67,5.47-1.11,1.16-2.9,1.84-5.38,2.04l-.26-1.51c1.85-.19,3.19-.62,4.01-1.31.82-.68,1.31-1.8,1.46-3.35ZM238.01,163.56l-1,.48c-.38-.72-.65-1.24-.81-1.54l1-.5c.32.58.59,1.11.81,1.57Z"/>
    <path class="cls-5" d="M239.81,163.92c.5-.61,1.26-.92,2.28-.92s1.78.31,2.28.92c.5.61.75,1.61.75,3s-.25,2.38-.75,3c-.5.61-1.26.92-2.28.92s-1.78-.31-2.28-.92c-.5-.61-.75-1.61-.75-3s.25-2.38.75-3ZM241.17,168.91c.2.38.51.57.92.57s.72-.19.92-.57.3-1.05.3-1.99-.1-1.61-.3-1.99-.51-.57-.92-.57-.73.19-.92.57-.3,1.05-.3,1.99.1,1.61.3,1.99Z"/>
    <path class="cls-5" d="M249.67,165.75c.78,0,1.38.21,1.8.62s.63,1,.63,1.77c0,1.79-1.06,2.69-3.19,2.69-.7,0-1.36-.1-1.98-.29v-1.5c.73.26,1.37.39,1.91.39,1.02,0,1.53-.43,1.53-1.28,0-.7-.35-1.04-1.04-1.04-.31,0-.61.13-.91.4h-1.51l.21-4.38h4.64v1.43h-3.05l-.07,1.42h.03c.32-.14.65-.21,1-.21Z"/>
  </g>
  <rect class="cls-1" x="192.76" y="188.5" width="73.95" height="24.65" rx="4.23" ry="4.23"/>
  <g>
    <path class="cls-5" d="M206.73,197.65l1.57-.67c.59,1.24,1.16,2.47,1.7,3.7l-1.62.63c-.65-1.48-1.2-2.7-1.65-3.66ZM215.25,197c-.03,1.86-.27,3.36-.73,4.47-.46,1.12-1.16,1.96-2.12,2.53s-2.26.94-3.91,1.11l-.31-1.55c.83-.1,1.53-.25,2.1-.44s1.07-.44,1.5-.76c.43-.32.77-.72,1.02-1.23.25-.5.44-1.09.56-1.77.12-.68.19-1.5.21-2.46l1.68.09Z"/>
    <path class="cls-5" d="M218.03,198.32l.8-1.51c1.02.46,2.1,1,3.26,1.62l-.84,1.51c-1.16-.62-2.23-1.16-3.21-1.62ZM224.94,197.83l1.6.35c-.37,2.1-1.21,3.71-2.52,4.83-1.31,1.12-3.15,1.78-5.51,1.99l-.26-1.64c2-.2,3.53-.74,4.58-1.6s1.75-2.18,2.12-3.93Z"/>
    <path class="cls-5" d="M234.57,199.21h-3.09c-.45,1.03-1.12,1.98-2.01,2.84l-1.19-1.02c.59-.59,1.08-1.28,1.47-2.06.39-.78.63-1.57.73-2.35l1.64.09c-.04.34-.09.67-.16.99h3.22c-.18-.36-.37-.71-.55-1.04l.98-.49c.29.54.55,1.05.79,1.53v.18c0,2.48-.55,4.31-1.67,5.47-1.11,1.16-2.9,1.84-5.38,2.04l-.26-1.51c1.85-.19,3.19-.62,4.01-1.31.82-.68,1.31-1.8,1.46-3.35ZM238.01,197.57l-1,.48c-.38-.72-.65-1.24-.81-1.54l1-.5c.32.58.59,1.11.81,1.57Z"/>
    <path class="cls-5" d="M239.81,197.94c.5-.61,1.26-.92,2.28-.92s1.78.31,2.28.92c.5.61.75,1.61.75,3s-.25,2.38-.75,3c-.5.61-1.26.92-2.28.92s-1.78-.31-2.28-.92c-.5-.61-.75-1.61-.75-3s.25-2.38.75-3ZM241.17,202.93c.2.38.51.57.92.57s.72-.19.92-.57.3-1.05.3-1.99-.1-1.61-.3-1.99-.51-.57-.92-.57-.73.19-.92.57-.3,1.05-.3,1.99.1,1.61.3,1.99Z"/>
    <path class="cls-5" d="M251.52,197.23v1.38c-.51-.2-1.04-.3-1.58-.3-.49,0-.88.15-1.18.45s-.49.74-.56,1.32h.02c.4-.29.92-.45,1.55-.45.82,0,1.45.22,1.9.65.45.43.67,1.05.67,1.86,0,.85-.26,1.51-.78,1.99-.52.48-1.24.72-2.15.72s-1.66-.29-2.18-.86c-.51-.57-.77-1.43-.77-2.58,0-1.46.3-2.56.89-3.29s1.43-1.1,2.53-1.1c.54,0,1.09.07,1.64.21ZM249.41,203.56c.39,0,.69-.12.91-.36.21-.24.32-.59.32-1.04s-.11-.76-.33-1c-.22-.23-.52-.35-.9-.35s-.67.12-.9.36-.33.57-.33.99c0,.44.11.78.34,1.03.23.25.52.37.89.37Z"/>
  </g>
  <rect class="cls-1" x="192.76" y="256.54" width="73.95" height="24.65" rx="4.23" ry="4.23"/>
  <g>
    <path class="cls-5" d="M203.07,265.68l1.57-.67c.59,1.24,1.16,2.47,1.7,3.71l-1.62.63c-.65-1.48-1.2-2.7-1.65-3.66ZM211.6,265.03c-.03,1.86-.27,3.35-.73,4.47-.46,1.12-1.16,1.96-2.12,2.53s-2.26.94-3.91,1.11l-.31-1.55c.83-.1,1.53-.25,2.1-.44s1.07-.44,1.5-.76c.43-.32.77-.72,1.02-1.23.25-.5.44-1.09.56-1.77s.19-1.5.21-2.46l1.68.09Z"/>
    <path class="cls-5" d="M214.38,266.36l.8-1.51c1.02.46,2.1,1,3.26,1.62l-.84,1.51c-1.16-.62-2.23-1.16-3.21-1.62ZM221.29,265.87l1.6.35c-.37,2.1-1.21,3.71-2.52,4.83-1.31,1.12-3.15,1.78-5.51,1.99l-.26-1.64c2-.2,3.53-.74,4.58-1.6,1.05-.87,1.75-2.17,2.12-3.93Z"/>
    <path class="cls-5" d="M230.91,267.24h-3.09c-.45,1.03-1.12,1.98-2.01,2.84l-1.19-1.02c.59-.59,1.08-1.28,1.47-2.06.39-.78.63-1.57.73-2.35l1.64.09c-.04.34-.09.67-.16.99h3.22c-.18-.36-.37-.71-.55-1.04l.98-.49c.29.54.55,1.05.79,1.53v.18c0,2.48-.55,4.31-1.67,5.47-1.11,1.16-2.9,1.84-5.38,2.04l-.26-1.51c1.85-.19,3.19-.62,4.01-1.31.82-.68,1.31-1.8,1.46-3.35ZM234.36,265.6l-1,.48c-.38-.72-.65-1.24-.81-1.54l1-.5c.32.58.59,1.11.81,1.57Z"/>
    <path class="cls-5" d="M238.07,265.16h1.85v7.62h-1.85v-5.67h-.01l-2,1.46v-1.95l2.01-1.46Z"/>
    <path class="cls-5" d="M245.5,271.32v.02h2.88v1.43h-5.22v-1.43c1.37-1.05,2.27-1.83,2.71-2.35.43-.52.65-1.02.65-1.51,0-.64-.35-.96-1.06-.96-.57,0-1.28.19-2.14.58v-1.62c.75-.29,1.55-.44,2.4-.44s1.49.2,1.95.6c.46.4.68.95.68,1.66,0,.61-.19,1.2-.58,1.76s-1.14,1.31-2.27,2.25Z"/>
    <path class="cls-5" d="M250.77,265.97c.5-.61,1.26-.92,2.28-.92s1.78.31,2.28.92c.5.61.75,1.61.75,3s-.25,2.38-.75,3c-.5.61-1.26.92-2.28.92s-1.78-.31-2.28-.92c-.5-.61-.75-1.61-.75-3s.25-2.38.75-3ZM252.12,270.96c.2.38.51.57.92.57s.72-.19.92-.57.3-1.05.3-1.99-.1-1.61-.3-1.99c-.2-.38-.51-.57-.92-.57s-.73.19-.92.57c-.2.38-.3,1.05-.3,1.99s.1,1.61.3,1.99Z"/>
  </g>
  <g>
    <line class="cls-6" x1="116.42" y1="30.72" x2="179.13" y2="30.72"/>
    <path class="cls-2" d="M116.58,33.92c-1.77,0-3.2-1.43-3.2-3.2s1.43-3.2,3.2-3.2,3.2,1.43,3.2,3.2-1.43,3.2-3.2,3.2Z"/>
    <path class="cls-2" d="M178.97,33.92c1.77,0,3.2-1.43,3.2-3.2s-1.43-3.2-3.2-3.2-3.2,1.43-3.2,3.2,1.43,3.2,3.2,3.2Z"/>
  </g>
  <g>
    <polyline class="cls-6" points="147.4 30.72 147.4 63.89 179.13 63.89"/>
    <path class="cls-2" d="M178.97,67.08c1.77,0,3.2-1.43,3.2-3.2s-1.43-3.2-3.2-3.2-3.2,1.43-3.2,3.2,1.43,3.2,3.2,3.2Z"/>
  </g>
  <g>
    <polyline class="cls-6" points="147.4 65.3 147.4 98.47 179.13 98.47"/>
    <path class="cls-2" d="M178.97,101.67c1.77,0,3.2-1.43,3.2-3.2s-1.43-3.2-3.2-3.2-3.2,1.43-3.2,3.2,1.43,3.2,3.2,3.2Z"/>
  </g>
  <g>
    <polyline class="cls-6" points="147.4 99.32 147.4 132.48 179.13 132.48"/>
    <path class="cls-2" d="M178.97,135.68c1.77,0,3.2-1.43,3.2-3.2s-1.43-3.2-3.2-3.2-3.2,1.43-3.2,3.2,1.43,3.2,3.2,3.2Z"/>
  </g>
  <g>
    <polyline class="cls-6" points="147.4 133.33 147.4 166.5 179.13 166.5"/>
    <path class="cls-2" d="M178.97,169.7c1.77,0,3.2-1.43,3.2-3.2s-1.43-3.2-3.2-3.2-3.2,1.43-3.2,3.2,1.43,3.2,3.2,3.2Z"/>
  </g>
  <g>
    <polyline class="cls-6" points="147.4 167.92 147.4 201.08 179.13 201.08"/>
    <path class="cls-2" d="M178.97,204.28c1.77,0,3.2-1.43,3.2-3.2s-1.43-3.2-3.2-3.2-3.2,1.43-3.2,3.2,1.43,3.2,3.2,3.2Z"/>
  </g>
  <g>
    <polyline class="cls-6" points="147.4 200.52 147.4 267.7 179.13 267.7"/>
    <path class="cls-2" d="M178.97,270.89c1.77,0,3.2-1.43,3.2-3.2s-1.43-3.2-3.2-3.2-3.2,1.43-3.2,3.2,1.43,3.2,3.2,3.2Z"/>
  </g>
  <circle class="cls-1" cx="229.96" cy="223.57" r="2.83"/>
  <circle class="cls-1" cx="229.96" cy="234.91" r="2.83"/>
  <circle class="cls-1" cx="229.96" cy="246.25" r="2.83"/>
  <rect class="cls-4" x="354.33" y="18.43" width="73.95" height="24.65" rx="4.23" ry="4.23"/>
  <g>
    <path class="cls-5" d="M374.3,34.75c-1.34.17-2.74.26-4.18.26-.99,0-1.66-.18-2.02-.53-.36-.35-.54-1.03-.54-2.03v-2.35l-2.08.31-.22-1.55,2.3-.34v-2.07h1.69v1.81l5.17-.78.23,1.55c-.28.61-.65,1.22-1.12,1.82-.47.6-.99,1.12-1.55,1.58l-1.14-1.17c.7-.58,1.3-1.22,1.78-1.92l-3.37.52v2.24c0,.24,0,.42.01.56s.03.26.07.38.08.2.13.25c.04.05.12.09.24.13.12.04.23.06.36.07.12,0,.29,0,.52,0,1.25,0,2.46-.09,3.65-.26l.09,1.51Z"/>
    <path class="cls-5" d="M377.45,29.08l1.37-.32c.28.97.53,1.9.75,2.79l-1.41.33c-.22-.94-.45-1.87-.71-2.8ZM384.48,28.64c-.01,1.5-.21,2.69-.58,3.6-.37.9-.95,1.58-1.72,2.03s-1.83.74-3.16.87l-.29-1.37c1.11-.13,1.96-.37,2.56-.71.6-.34,1.03-.86,1.3-1.56s.41-1.67.42-2.93l1.47.07ZM379.68,28.82l1.41-.32c.29,1.04.54,1.99.75,2.85l-1.41.32c-.28-1.11-.53-2.06-.75-2.85Z"/>
    <path class="cls-5" d="M388.97,26.56h1.77v2.88c1.89.46,3.76,1.03,5.61,1.7l-.54,1.6c-1.76-.63-3.45-1.15-5.07-1.56v4.09h-1.77v-8.7Z"/>
    <path class="cls-5" d="M399.02,30.73v-1.98h1.98v1.98h-1.98ZM399.02,34.66v-1.98h1.98v1.98h-1.98Z"/>
    <path class="cls-5" d="M403.95,27.86c.5-.61,1.26-.92,2.28-.92s1.78.31,2.28.92c.5.61.75,1.61.75,3s-.25,2.38-.75,3c-.5.61-1.26.92-2.28.92s-1.78-.31-2.28-.92c-.5-.61-.75-1.61-.75-3s.25-2.38.75-3ZM405.31,32.85c.2.38.51.57.92.57s.72-.19.92-.57.3-1.05.3-1.99-.1-1.61-.3-1.99c-.2-.38-.51-.57-.92-.57s-.73.19-.92.57c-.2.38-.3,1.05-.3,1.99s.1,1.61.3,1.99Z"/>
    <path class="cls-5" d="M413.3,33.21v.02h2.88v1.43h-5.22v-1.43c1.37-1.05,2.27-1.83,2.71-2.35s.65-1.02.65-1.51c0-.64-.35-.96-1.06-.96-.57,0-1.28.19-2.14.58v-1.62c.75-.29,1.55-.44,2.4-.44s1.49.2,1.95.6.68.95.68,1.66c0,.61-.19,1.2-.58,1.76s-1.14,1.31-2.27,2.25Z"/>
  </g>
  <rect class="cls-1" x="518.74" y="18.43" width="73.95" height="24.65" rx="4.23" ry="4.23"/>
  <g>
    <path class="cls-5" d="M532.71,27.57l1.57-.67c.59,1.24,1.16,2.47,1.7,3.7l-1.62.63c-.65-1.48-1.2-2.7-1.65-3.66ZM541.24,26.92c-.03,1.86-.27,3.35-.73,4.47-.46,1.12-1.16,1.96-2.12,2.53s-2.26.94-3.91,1.11l-.31-1.55c.83-.1,1.53-.25,2.1-.44s1.07-.44,1.5-.76c.43-.32.77-.72,1.02-1.23.25-.5.44-1.09.56-1.77.12-.68.19-1.5.21-2.46l1.68.09Z"/>
    <path class="cls-5" d="M544.01,28.25l.8-1.51c1.02.46,2.1,1,3.26,1.62l-.84,1.51c-1.16-.62-2.23-1.16-3.21-1.62ZM550.93,27.76l1.6.35c-.37,2.1-1.21,3.71-2.52,4.83-1.31,1.12-3.15,1.78-5.51,1.99l-.26-1.64c2-.2,3.53-.74,4.58-1.6,1.05-.87,1.75-2.18,2.12-3.93Z"/>
    <path class="cls-5" d="M560.55,29.13h-3.09c-.45,1.03-1.12,1.98-2.01,2.84l-1.19-1.02c.59-.59,1.08-1.28,1.47-2.06.39-.78.63-1.57.73-2.35l1.64.09c-.04.34-.09.67-.16.99h3.22c-.18-.36-.37-.71-.55-1.04l.98-.49c.29.54.55,1.05.79,1.53v.18c0,2.48-.55,4.31-1.67,5.47-1.11,1.16-2.9,1.84-5.38,2.04l-.26-1.51c1.85-.19,3.19-.62,4.01-1.31.82-.68,1.31-1.8,1.46-3.35ZM563.99,27.49l-1,.48c-.38-.72-.65-1.24-.81-1.54l1-.5c.32.58.59,1.11.81,1.57Z"/>
    <path class="cls-5" d="M565.79,27.86c.5-.61,1.26-.92,2.28-.92s1.78.31,2.28.92c.5.61.75,1.61.75,3s-.25,2.38-.75,3c-.5.61-1.26.92-2.28.92s-1.78-.31-2.28-.92c-.5-.61-.75-1.61-.75-3s.25-2.38.75-3ZM567.15,32.85c.2.38.51.57.92.57s.72-.19.92-.57.3-1.05.3-1.99-.1-1.61-.3-1.99c-.2-.38-.51-.57-.92-.57s-.73.19-.92.57c-.2.38-.3,1.05-.3,1.99s.1,1.61.3,1.99Z"/>
    <path class="cls-5" d="M575.01,27.05h1.85v7.62h-1.85v-5.67h-.01l-2,1.46v-1.95l2.01-1.46Z"/>
  </g>
  <rect class="cls-3" x="518.74" y="52.44" width="73.95" height="24.65" rx="4.23" ry="4.23"/>
  <g>
    <path class="cls-5" d="M532.71,61.58l1.57-.67c.59,1.24,1.16,2.47,1.7,3.7l-1.62.63c-.65-1.48-1.2-2.7-1.65-3.66ZM541.24,60.94c-.03,1.86-.27,3.35-.73,4.47-.46,1.12-1.16,1.96-2.12,2.53s-2.26.94-3.91,1.11l-.31-1.55c.83-.1,1.53-.25,2.1-.44s1.07-.44,1.5-.76c.43-.32.77-.72,1.02-1.23.25-.5.44-1.09.56-1.77.12-.68.19-1.5.21-2.46l1.68.09Z"/>
    <path class="cls-5" d="M544.01,62.26l.8-1.51c1.02.46,2.1,1,3.26,1.62l-.84,1.51c-1.16-.62-2.23-1.16-3.21-1.62ZM550.93,61.77l1.6.35c-.37,2.1-1.21,3.71-2.52,4.83-1.31,1.12-3.15,1.78-5.51,1.99l-.26-1.64c2-.2,3.53-.74,4.58-1.6,1.05-.87,1.75-2.18,2.12-3.93Z"/>
    <path class="cls-5" d="M560.55,63.15h-3.09c-.45,1.03-1.12,1.98-2.01,2.84l-1.19-1.02c.59-.59,1.08-1.28,1.47-2.06.39-.78.63-1.57.73-2.35l1.64.09c-.04.34-.09.67-.16.99h3.22c-.18-.36-.37-.71-.55-1.04l.98-.49c.29.54.55,1.05.79,1.53v.18c0,2.48-.55,4.31-1.67,5.47-1.11,1.16-2.9,1.84-5.38,2.04l-.26-1.51c1.85-.19,3.19-.62,4.01-1.31.82-.68,1.31-1.8,1.46-3.35ZM563.99,61.51l-1,.48c-.38-.72-.65-1.24-.81-1.54l1-.5c.32.58.59,1.11.81,1.57Z"/>
    <path class="cls-5" d="M567.83,67.23v.02h2.88v1.43h-5.22v-1.43c1.37-1.05,2.27-1.83,2.71-2.35s.65-1.02.65-1.51c0-.64-.35-.96-1.06-.96-.57,0-1.28.19-2.14.58v-1.62c.75-.29,1.55-.44,2.4-.44s1.49.2,1.95.6.68.95.68,1.66c0,.61-.19,1.2-.58,1.76s-1.14,1.31-2.27,2.25Z"/>
    <path class="cls-5" d="M575.95,64.19c.61,0,1.09.19,1.46.56.37.38.55.88.55,1.52,0,.81-.25,1.43-.74,1.86-.49.43-1.2.65-2.13.65-.79,0-1.55-.12-2.26-.37v-1.53c.77.33,1.48.49,2.12.49.4,0,.72-.09.94-.28.22-.19.33-.45.33-.78s-.13-.58-.4-.72-.77-.21-1.5-.21h-.52v-1.19l1.93-1.67v-.02h-2.95v-1.43h5.08v1.43l-2.04,1.68v.02h.14Z"/>
  </g>
  <rect class="cls-1" x="518.74" y="86.46" width="73.95" height="24.65" rx="4.23" ry="4.23"/>
  <g>
    <path class="cls-5" d="M532.71,95.6l1.57-.67c.59,1.24,1.16,2.47,1.7,3.7l-1.62.63c-.65-1.48-1.2-2.7-1.65-3.66ZM541.24,94.95c-.03,1.86-.27,3.35-.73,4.47-.46,1.12-1.16,1.96-2.12,2.53s-2.26.94-3.91,1.11l-.31-1.55c.83-.1,1.53-.25,2.1-.44.57-.19,1.07-.44,1.5-.76.43-.32.77-.72,1.02-1.23.25-.5.44-1.09.56-1.77.12-.68.19-1.5.21-2.46l1.68.09Z"/>
    <path class="cls-5" d="M544.01,96.28l.8-1.51c1.02.46,2.1,1,3.26,1.62l-.84,1.51c-1.16-.62-2.23-1.16-3.21-1.62ZM550.93,95.79l1.6.35c-.37,2.1-1.21,3.71-2.52,4.83-1.31,1.12-3.15,1.78-5.51,1.99l-.26-1.64c2-.2,3.53-.74,4.58-1.6,1.05-.87,1.75-2.18,2.12-3.93Z"/>
    <path class="cls-5" d="M560.55,97.16h-3.09c-.45,1.03-1.12,1.98-2.01,2.84l-1.19-1.02c.59-.59,1.08-1.28,1.47-2.06.39-.78.63-1.57.73-2.35l1.64.09c-.04.34-.09.67-.16.99h3.22c-.18-.36-.37-.71-.55-1.04l.98-.49c.29.54.55,1.05.79,1.53v.18c0,2.48-.55,4.31-1.67,5.47-1.11,1.16-2.9,1.84-5.38,2.04l-.26-1.51c1.85-.19,3.19-.62,4.01-1.31.82-.68,1.31-1.8,1.46-3.35ZM563.99,95.53l-1,.48c-.38-.72-.65-1.24-.81-1.54l1-.5c.32.58.59,1.11.81,1.57Z"/>
    <path class="cls-5" d="M565.79,95.89c.5-.61,1.26-.92,2.28-.92s1.78.31,2.28.92c.5.61.75,1.61.75,3s-.25,2.38-.75,3c-.5.61-1.26.92-2.28.92s-1.78-.31-2.28-.92c-.5-.61-.75-1.61-.75-3s.25-2.38.75-3ZM567.15,100.88c.2.38.51.57.92.57s.72-.19.92-.57c.2-.38.3-1.05.3-1.99s-.1-1.61-.3-1.99c-.2-.38-.51-.57-.92-.57s-.73.19-.92.57c-.2.38-.3,1.05-.3,1.99s.1,1.61.3,1.99Z"/>
    <path class="cls-5" d="M575.95,98.21c.61,0,1.09.19,1.46.56.37.38.55.88.55,1.52,0,.81-.25,1.43-.74,1.86-.49.43-1.2.65-2.13.65-.79,0-1.55-.12-2.26-.37v-1.53c.77.33,1.48.49,2.12.49.4,0,.72-.09.94-.28.22-.19.33-.45.33-.78s-.13-.58-.4-.72-.77-.21-1.5-.21h-.52v-1.19l1.93-1.67v-.02h-2.95v-1.43h5.08v1.43l-2.04,1.68v.02h.14Z"/>
  </g>
  <rect class="cls-3" x="518.74" y="120.47" width="73.95" height="24.65" rx="4.23" ry="4.23"/>
  <g>
    <path class="cls-5" d="M532.71,129.61l1.57-.67c.59,1.24,1.16,2.47,1.7,3.7l-1.62.63c-.65-1.48-1.2-2.7-1.65-3.66ZM541.24,128.97c-.03,1.86-.27,3.36-.73,4.47-.46,1.12-1.16,1.96-2.12,2.53s-2.26.94-3.91,1.11l-.31-1.55c.83-.1,1.53-.25,2.1-.44s1.07-.44,1.5-.76c.43-.32.77-.72,1.02-1.23.25-.5.44-1.09.56-1.77.12-.68.19-1.5.21-2.46l1.68.09Z"/>
    <path class="cls-5" d="M544.01,130.29l.8-1.51c1.02.46,2.1,1,3.26,1.62l-.84,1.51c-1.16-.62-2.23-1.16-3.21-1.62ZM550.93,129.8l1.6.35c-.37,2.1-1.21,3.71-2.52,4.83-1.31,1.12-3.15,1.78-5.51,1.99l-.26-1.64c2-.2,3.53-.74,4.58-1.6s1.75-2.18,2.12-3.93Z"/>
    <path class="cls-5" d="M560.55,131.18h-3.09c-.45,1.03-1.12,1.98-2.01,2.84l-1.19-1.02c.59-.59,1.08-1.28,1.47-2.06.39-.78.63-1.57.73-2.35l1.64.09c-.04.34-.09.67-.16.99h3.22c-.18-.36-.37-.71-.55-1.04l.98-.49c.29.54.55,1.05.79,1.53v.18c0,2.48-.55,4.31-1.67,5.47-1.11,1.16-2.9,1.84-5.38,2.04l-.26-1.51c1.85-.19,3.19-.62,4.01-1.31.82-.68,1.31-1.8,1.46-3.35ZM563.99,129.54l-1,.48c-.38-.72-.65-1.24-.81-1.54l1-.5c.32.58.59,1.11.81,1.57Z"/>
    <path class="cls-5" d="M568.35,131.73c.78,0,1.38.21,1.8.62s.63,1,.63,1.77c0,1.79-1.06,2.69-3.19,2.69-.7,0-1.36-.1-1.98-.29v-1.5c.73.26,1.37.39,1.91.39,1.02,0,1.53-.43,1.53-1.28,0-.7-.35-1.04-1.04-1.04-.31,0-.61.13-.91.4h-1.51l.21-4.38h4.64v1.43h-3.05l-.07,1.42h.03c.32-.14.65-.21,1-.21Z"/>
    <path class="cls-5" d="M573.32,129.54c.49-.37,1.18-.55,2.06-.55s1.56.18,2.06.55c.49.37.74.83.74,1.4,0,.66-.43,1.21-1.29,1.65v.02c1.02.42,1.52,1.09,1.52,2.01,0,.67-.27,1.2-.8,1.6s-1.27.59-2.23.59-1.7-.2-2.23-.59-.8-.93-.8-1.6c0-.77.48-1.37,1.45-1.82v-.02c-.81-.45-1.22-1.07-1.22-1.85,0-.57.25-1.04.74-1.4ZM575.2,133.35c-.42.17-.71.34-.88.53-.17.19-.25.41-.25.66,0,.3.12.55.37.74.24.2.56.29.94.29s.69-.1.93-.29c.24-.19.36-.44.36-.74,0-.28-.1-.5-.29-.67-.19-.17-.59-.34-1.18-.52ZM575.45,132.14c.38-.14.65-.29.81-.46.16-.17.24-.36.24-.57,0-.26-.1-.47-.3-.63-.2-.16-.48-.25-.82-.25s-.61.08-.81.25c-.2.16-.3.37-.3.63,0,.22.09.42.27.58.18.17.48.32.91.45Z"/>
  </g>
  <rect class="cls-3" x="518.74" y="154.49" width="73.95" height="24.65" rx="4.23" ry="4.23"/>
  <g>
    <path class="cls-5" d="M532.71,163.63l1.57-.67c.59,1.24,1.16,2.47,1.7,3.7l-1.62.63c-.65-1.48-1.2-2.7-1.65-3.66ZM541.24,162.98c-.03,1.86-.27,3.36-.73,4.47-.46,1.12-1.16,1.96-2.12,2.53s-2.26.94-3.91,1.11l-.31-1.55c.83-.1,1.53-.25,2.1-.44s1.07-.44,1.5-.76c.43-.32.77-.72,1.02-1.23.25-.5.44-1.09.56-1.77.12-.68.19-1.5.21-2.46l1.68.09Z"/>
    <path class="cls-5" d="M544.01,164.31l.8-1.51c1.02.46,2.1,1,3.26,1.62l-.84,1.51c-1.16-.62-2.23-1.16-3.21-1.62ZM550.93,163.82l1.6.35c-.37,2.1-1.21,3.71-2.52,4.83-1.31,1.12-3.15,1.78-5.51,1.99l-.26-1.64c2-.2,3.53-.74,4.58-1.6s1.75-2.18,2.12-3.93Z"/>
    <path class="cls-5" d="M560.55,165.2h-3.09c-.45,1.03-1.12,1.98-2.01,2.84l-1.19-1.02c.59-.59,1.08-1.28,1.47-2.06.39-.78.63-1.57.73-2.35l1.64.09c-.04.34-.09.67-.16.99h3.22c-.18-.36-.37-.71-.55-1.04l.98-.49c.29.54.55,1.05.79,1.53v.18c0,2.48-.55,4.31-1.67,5.47-1.11,1.16-2.9,1.84-5.38,2.04l-.26-1.51c1.85-.19,3.19-.62,4.01-1.31.82-.68,1.31-1.8,1.46-3.35ZM563.99,163.56l-1,.48c-.38-.72-.65-1.24-.81-1.54l1-.5c.32.58.59,1.11.81,1.57Z"/>
    <path class="cls-5" d="M567.71,163.11h1.85v7.62h-1.85v-5.67h-.01l-2,1.46v-1.95l2.01-1.46Z"/>
    <path class="cls-5" d="M575.65,165.75c.78,0,1.38.21,1.8.62s.63,1,.63,1.77c0,1.79-1.06,2.69-3.19,2.69-.7,0-1.36-.1-1.98-.29v-1.5c.73.26,1.37.39,1.91.39,1.02,0,1.53-.43,1.53-1.28,0-.7-.35-1.04-1.04-1.04-.31,0-.61.13-.91.4h-1.51l.21-4.38h4.64v1.43h-3.05l-.07,1.42h.03c.32-.14.65-.21,1-.21Z"/>
  </g>
  <rect class="cls-1" x="518.74" y="188.5" width="73.95" height="24.65" rx="4.23" ry="4.23"/>
  <g>
    <path class="cls-5" d="M532.71,197.65l1.57-.67c.59,1.24,1.16,2.47,1.7,3.7l-1.62.63c-.65-1.48-1.2-2.7-1.65-3.66ZM541.24,197c-.03,1.86-.27,3.36-.73,4.47-.46,1.12-1.16,1.96-2.12,2.53s-2.26.94-3.91,1.11l-.31-1.55c.83-.1,1.53-.25,2.1-.44s1.07-.44,1.5-.76c.43-.32.77-.72,1.02-1.23.25-.5.44-1.09.56-1.77.12-.68.19-1.5.21-2.46l1.68.09Z"/>
    <path class="cls-5" d="M544.01,198.32l.8-1.51c1.02.46,2.1,1,3.26,1.62l-.84,1.51c-1.16-.62-2.23-1.16-3.21-1.62ZM550.93,197.83l1.6.35c-.37,2.1-1.21,3.71-2.52,4.83-1.31,1.12-3.15,1.78-5.51,1.99l-.26-1.64c2-.2,3.53-.74,4.58-1.6s1.75-2.18,2.12-3.93Z"/>
    <path class="cls-5" d="M560.55,199.21h-3.09c-.45,1.03-1.12,1.98-2.01,2.84l-1.19-1.02c.59-.59,1.08-1.28,1.47-2.06.39-.78.63-1.57.73-2.35l1.64.09c-.04.34-.09.67-.16.99h3.22c-.18-.36-.37-.71-.55-1.04l.98-.49c.29.54.55,1.05.79,1.53v.18c0,2.48-.55,4.31-1.67,5.47-1.11,1.16-2.9,1.84-5.38,2.04l-.26-1.51c1.85-.19,3.19-.62,4.01-1.31.82-.68,1.31-1.8,1.46-3.35ZM563.99,197.57l-1,.48c-.38-.72-.65-1.24-.81-1.54l1-.5c.32.58.59,1.11.81,1.57Z"/>
    <path class="cls-5" d="M565.79,197.94c.5-.61,1.26-.92,2.28-.92s1.78.31,2.28.92c.5.61.75,1.61.75,3s-.25,2.38-.75,3c-.5.61-1.26.92-2.28.92s-1.78-.31-2.28-.92c-.5-.61-.75-1.61-.75-3s.25-2.38.75-3ZM567.15,202.93c.2.38.51.57.92.57s.72-.19.92-.57.3-1.05.3-1.99-.1-1.61-.3-1.99-.51-.57-.92-.57-.73.19-.92.57-.3,1.05-.3,1.99.1,1.61.3,1.99Z"/>
    <path class="cls-5" d="M577.51,197.23v1.38c-.51-.2-1.04-.3-1.58-.3-.49,0-.88.15-1.18.45s-.49.74-.56,1.32h.02c.4-.29.92-.45,1.55-.45.82,0,1.45.22,1.9.65.45.43.67,1.05.67,1.86,0,.85-.26,1.51-.78,1.99-.52.48-1.24.72-2.15.72s-1.66-.29-2.18-.86c-.51-.57-.77-1.43-.77-2.58,0-1.46.3-2.56.89-3.29s1.43-1.1,2.53-1.1c.54,0,1.09.07,1.64.21ZM575.4,203.56c.39,0,.69-.12.91-.36.21-.24.32-.59.32-1.04s-.11-.76-.33-1c-.22-.23-.52-.35-.9-.35s-.67.12-.9.36-.33.57-.33.99c0,.44.11.78.34,1.03.23.25.52.37.89.37Z"/>
  </g>
  <rect class="cls-1" x="518.74" y="256.54" width="73.95" height="24.65" rx="4.23" ry="4.23"/>
  <g>
    <path class="cls-5" d="M529.06,265.68l1.57-.67c.59,1.24,1.16,2.47,1.7,3.71l-1.62.63c-.65-1.48-1.2-2.7-1.65-3.66ZM537.58,265.03c-.03,1.86-.27,3.35-.73,4.47-.46,1.12-1.16,1.96-2.12,2.53s-2.26.94-3.91,1.11l-.31-1.55c.83-.1,1.53-.25,2.1-.44s1.07-.44,1.5-.76c.43-.32.77-.72,1.02-1.23.25-.5.44-1.09.56-1.77s.19-1.5.21-2.46l1.68.09Z"/>
    <path class="cls-5" d="M540.36,266.36l.8-1.51c1.02.46,2.1,1,3.26,1.62l-.84,1.51c-1.16-.62-2.23-1.16-3.21-1.62ZM547.28,265.87l1.6.35c-.37,2.1-1.21,3.71-2.52,4.83-1.31,1.12-3.15,1.78-5.51,1.99l-.26-1.64c2-.2,3.53-.74,4.58-1.6,1.05-.87,1.75-2.17,2.12-3.93Z"/>
    <path class="cls-5" d="M556.9,267.24h-3.09c-.45,1.03-1.12,1.98-2.01,2.84l-1.19-1.02c.59-.59,1.08-1.28,1.47-2.06.39-.78.63-1.57.73-2.35l1.64.09c-.04.34-.09.67-.16.99h3.22c-.18-.36-.37-.71-.55-1.04l.98-.49c.29.54.55,1.05.79,1.53v.18c0,2.48-.55,4.31-1.67,5.47-1.11,1.16-2.9,1.84-5.38,2.04l-.26-1.51c1.85-.19,3.19-.62,4.01-1.31.82-.68,1.31-1.8,1.46-3.35ZM560.34,265.6l-1,.48c-.38-.72-.65-1.24-.81-1.54l1-.5c.32.58.59,1.11.81,1.57Z"/>
    <path class="cls-5" d="M564.06,265.16h1.85v7.62h-1.85v-5.67h-.01l-2,1.46v-1.95l2.01-1.46Z"/>
    <path class="cls-5" d="M571.49,271.32v.02h2.88v1.43h-5.22v-1.43c1.37-1.05,2.27-1.83,2.71-2.35.43-.52.65-1.02.65-1.51,0-.64-.35-.96-1.06-.96-.57,0-1.28.19-2.14.58v-1.62c.75-.29,1.55-.44,2.4-.44s1.49.2,1.95.6c.46.4.68.95.68,1.66,0,.61-.19,1.2-.58,1.76s-1.14,1.31-2.27,2.25Z"/>
    <path class="cls-5" d="M576.75,265.97c.5-.61,1.26-.92,2.28-.92s1.78.31,2.28.92c.5.61.75,1.61.75,3s-.25,2.38-.75,3c-.5.61-1.26.92-2.28.92s-1.78-.31-2.28-.92c-.5-.61-.75-1.61-.75-3s.25-2.38.75-3ZM578.11,270.96c.2.38.51.57.92.57s.72-.19.92-.57.3-1.05.3-1.99-.1-1.61-.3-1.99c-.2-.38-.51-.57-.92-.57s-.73.19-.92.57c-.2.38-.3,1.05-.3,1.99s.1,1.61.3,1.99Z"/>
  </g>
  <g>
    <line class="cls-6" x1="442.41" y1="30.72" x2="505.11" y2="30.72"/>
    <path class="cls-2" d="M442.57,33.92c-1.77,0-3.2-1.43-3.2-3.2s1.43-3.2,3.2-3.2,3.2,1.43,3.2,3.2-1.43,3.2-3.2,3.2Z"/>
    <path class="cls-2" d="M504.95,33.92c1.77,0,3.2-1.43,3.2-3.2s-1.43-3.2-3.2-3.2-3.2,1.43-3.2,3.2,1.43,3.2,3.2,3.2Z"/>
  </g>
  <g>
    <polyline class="cls-6" points="473.39 30.72 473.39 63.89 505.11 63.89"/>
    <path class="cls-2" d="M504.95,67.08c1.77,0,3.2-1.43,3.2-3.2s-1.43-3.2-3.2-3.2-3.2,1.43-3.2,3.2,1.43,3.2,3.2,3.2Z"/>
  </g>
  <g>
    <polyline class="cls-6" points="473.39 65.3 473.39 98.47 505.11 98.47"/>
    <path class="cls-2" d="M504.95,101.67c1.77,0,3.2-1.43,3.2-3.2s-1.43-3.2-3.2-3.2-3.2,1.43-3.2,3.2,1.43,3.2,3.2,3.2Z"/>
  </g>
  <g>
    <polyline class="cls-6" points="473.39 99.32 473.39 132.48 505.11 132.48"/>
    <path class="cls-2" d="M504.95,135.68c1.77,0,3.2-1.43,3.2-3.2s-1.43-3.2-3.2-3.2-3.2,1.43-3.2,3.2,1.43,3.2,3.2,3.2Z"/>
  </g>
  <g>
    <polyline class="cls-6" points="473.39 133.33 473.39 166.5 505.11 166.5"/>
    <path class="cls-2" d="M504.95,169.7c1.77,0,3.2-1.43,3.2-3.2s-1.43-3.2-3.2-3.2-3.2,1.43-3.2,3.2,1.43,3.2,3.2,3.2Z"/>
  </g>
  <g>
    <polyline class="cls-6" points="473.39 167.92 473.39 201.08 505.11 201.08"/>
    <path class="cls-2" d="M504.95,204.28c1.77,0,3.2-1.43,3.2-3.2s-1.43-3.2-3.2-3.2-3.2,1.43-3.2,3.2,1.43,3.2,3.2,3.2Z"/>
  </g>
  <g>
    <polyline class="cls-6" points="473.39 200.52 473.39 267.7 505.11 267.7"/>
    <path class="cls-2" d="M504.95,270.89c1.77,0,3.2-1.43,3.2-3.2s-1.43-3.2-3.2-3.2-3.2,1.43-3.2,3.2,1.43,3.2,3.2,3.2Z"/>
  </g>
  <circle class="cls-1" cx="555.95" cy="223.57" r="2.83"/>
  <circle class="cls-1" cx="555.95" cy="234.91" r="2.83"/>
  <circle class="cls-1" cx="555.95" cy="246.25" r="2.83"/>
</svg>