<?xml version="1.0" encoding="UTF-8"?> <svg xmlns="http://www.w3.org/2000/svg" xmlns:xlink="http://www.w3.org/1999/xlink" width="57.885" height="39.105" viewBox="0 0 57.885 39.105"><defs><radialGradient id="radial-gradient" cx="0.899" cy="-1.962" r="1.351" gradientTransform="matrix(1, -0.003, 0.008, 2.912, 0.014, 3.317)" gradientUnits="objectBoundingBox"><stop offset="0" stop-color="#a37ed6"></stop><stop offset="0.377" stop-color="#b1a7f5"></stop><stop offset="0.67" stop-color="#86d0ed"></stop><stop offset="1" stop-color="#76fac7"></stop></radialGradient></defs><g id="Group_14666" data-name="Group 14666" transform="translate(-1512.915 -4866.016)"><g id="np_subwoofer_330016_FFFFFF" transform="translate(1528.357 4866.016)"><path id="Path_14614" data-name="Path 14614" d="M40.67,50.16a6,6,0,1,0,5.991,6A5.993,5.993,0,0,0,40.67,50.16Zm0,7.5a1.5,1.5,0,1,1,1.5-1.5A1.5,1.5,0,0,1,40.67,57.656Z" transform="translate(-27.199 -30.544)" fill="#fff"></path><path id="Path_14615" data-name="Path 14615" d="M39.506,0H18.538a2.994,2.994,0,0,0-2.991,2.993V36.1a3,3,0,0,0,2.991,3H39.506a3,3,0,0,0,2.988-3V2.994A2.994,2.994,0,0,0,39.506,0ZM29.017,6.08A2.219,2.219,0,1,1,26.805,8.3,2.216,2.216,0,0,1,29.017,6.08Zm0,28.525A8.992,8.992,0,1,1,38,25.614a8.987,8.987,0,0,1-8.986,8.991Z" transform="translate(-15.547)" fill="#fff"></path></g><path id="np_speaker_4983194_FFFFFF" d="M2.766,9.569A5.58,5.58,0,0,1,1.12,13.541a.656.656,0,0,1-.928-.927A4.279,4.279,0,0,0,1.453,9.569,4.279,4.279,0,0,0,.192,6.524.655.655,0,1,1,1.119,5.6,5.573,5.573,0,0,1,2.766,9.569Zm.745-6.675a.655.655,0,0,0-.927.927,8.138,8.138,0,0,1,0,11.5.656.656,0,0,0,.928.927,9.451,9.451,0,0,0,0-13.35ZM6.116.192a.655.655,0,0,0-.927.927,11.872,11.872,0,0,1,3.5,8.45,11.872,11.872,0,0,1-3.5,8.45.656.656,0,0,0,.464,1.119.648.648,0,0,0,.463-.192A13.17,13.17,0,0,0,10,9.569,13.172,13.172,0,0,0,6.116.192Z" transform="translate(1522.916 4895.563) rotate(180)" fill-rule="evenodd" fill="url(#radial-gradient)"></path><path id="np_speaker_4983194_FFFFFF-2" data-name="np_speaker_4983194_FFFFFF" d="M2.766,9.569A5.58,5.58,0,0,0,1.12,5.6a.656.656,0,0,0-.928.927A4.279,4.279,0,0,1,1.453,9.569,4.279,4.279,0,0,1,.192,12.614a.655.655,0,0,0,.927.927A5.573,5.573,0,0,0,2.766,9.569Zm.745,6.675a.655.655,0,1,1-.927-.927,8.138,8.138,0,0,0,0-11.5.656.656,0,0,1,.928-.927,9.451,9.451,0,0,1,0,13.349Zm2.605,2.7a.655.655,0,1,1-.927-.927,11.872,11.872,0,0,0,3.5-8.45,11.871,11.871,0,0,0-3.5-8.45A.656.656,0,0,1,5.653,0a.648.648,0,0,1,.463.192A13.17,13.17,0,0,1,10,9.569a13.171,13.171,0,0,1-3.885,9.377Z" transform="translate(1560.799 4876.425)" fill-rule="evenodd" fill="url(#radial-gradient)"></path></g></svg> 