<?xml version="1.0" encoding="UTF-8"?> <svg xmlns="http://www.w3.org/2000/svg" xmlns:xlink="http://www.w3.org/1999/xlink" width="40.403" height="38.002" viewBox="0 0 40.403 38.002"><defs><radialGradient id="radial-gradient" cx="0.899" cy="-1.962" r="1.351" gradientTransform="matrix(1, -0.003, 0.008, 2.912, 0.014, 3.317)" gradientUnits="objectBoundingBox"><stop offset="0" stop-color="#a37ed6"></stop><stop offset="0.377" stop-color="#b1a7f5"></stop><stop offset="0.67" stop-color="#86d0ed"></stop><stop offset="1" stop-color="#76fac7"></stop></radialGradient></defs><g id="Group_14667" data-name="Group 14667" transform="translate(-1200.383 -4839.749)"><g id="Speaker" transform="translate(1225.654 4840.979) rotate(90)"><path id="Path_2147" data-name="Path 2147" d="M0,8.2s3.042,1.5,3.45,1.721a1.532,1.532,0,0,0,1.028.207.807.807,0,0,0,.745-.761c-.02-1.042.041-8.027,0-8.494S4.658-.4,3.45.238,0,2,0,2Z" transform="translate(3.054 0)" fill="#fff" stroke="#fff" stroke-width="1.4"></path><path id="Path_2148" data-name="Path 2148" d="M3,6.064s-.222.024-1.653,0A1.288,1.288,0,0,1,0,4.681V1.072A1.25,1.25,0,0,1,1.349,0C2.625,0,3,0,3,0" transform="translate(0 2.056)" fill="#fff" stroke="#fff" stroke-width="1.4"></path></g><path id="np_speaker_4983194_FFFFFF" d="M1.234,4.268A2.489,2.489,0,0,1,.5,6.04a.293.293,0,0,1-.414-.413A1.909,1.909,0,0,0,.648,4.268,1.909,1.909,0,0,0,.086,2.91.292.292,0,1,1,.5,2.5a2.486,2.486,0,0,1,.735,1.772Zm.677-2.977A.292.292,0,0,0,1.5,1.7a3.63,3.63,0,0,1,0,5.128.293.293,0,0,0,.414.413,4.216,4.216,0,0,0,0-5.955ZM3.417.086A.292.292,0,0,0,3,.5,5.3,5.3,0,0,1,4.565,4.268,5.3,5.3,0,0,1,3,8.037a.292.292,0,0,0,.207.5.289.289,0,0,0,.206-.086A5.875,5.875,0,0,0,5.15,4.268,5.875,5.875,0,0,0,3.417.086Z" transform="translate(1224.781 4851.63) rotate(90)" fill-rule="evenodd" fill="url(#radial-gradient)"></path><g id="Speaker-2" data-name="Speaker" transform="matrix(0.719, -0.695, 0.695, 0.719, 1200, 4870.904)"><path id="Path_2147-2" data-name="Path 2147" d="M0,8.138s3.041,1.488,3.45,1.708a1.543,1.543,0,0,0,1.028.205A.8.8,0,0,0,5.225,9.3c-.021-1.034.041-7.967,0-8.43S4.657-.4,3.45.237,0,1.986,0,1.986Z" transform="translate(3.039 0)" fill="#fff" stroke="#fff" stroke-width="1.4"></path><path id="Path_2148-2" data-name="Path 2148" d="M3,6.14s-.223.024-1.654,0A1.3,1.3,0,0,1,0,4.74V1.086A1.254,1.254,0,0,1,1.35,0C2.625,0,3,0,3,0" transform="translate(0 1.979)" fill="#fff" stroke="#fff" stroke-width="1.4"></path></g><path id="np_speaker_4983194_FFFFFF-2" data-name="np_speaker_4983194_FFFFFF" d="M1.234,4.268A2.489,2.489,0,0,1,.5,6.04a.293.293,0,0,1-.414-.413A1.909,1.909,0,0,0,.648,4.268,1.909,1.909,0,0,0,.086,2.91.292.292,0,1,1,.5,2.5a2.486,2.486,0,0,1,.735,1.772Zm.677-2.977A.292.292,0,1,0,1.5,1.7a3.63,3.63,0,0,1,0,5.128.293.293,0,0,0,.414.413,4.216,4.216,0,0,0,0-5.955ZM3.417.086A.292.292,0,1,0,3,.5,5.3,5.3,0,0,1,4.566,4.268,5.3,5.3,0,0,1,3,8.037a.292.292,0,0,0,.207.5.289.289,0,0,0,.206-.086A5.874,5.874,0,0,0,5.15,4.268,5.875,5.875,0,0,0,3.417.086Z" transform="translate(1208.188 4864.52) rotate(-44)" fill-rule="evenodd" fill="url(#radial-gradient)"></path><g id="Speaker-3" data-name="Speaker" transform="matrix(-0.719, -0.695, 0.695, -0.719, 1234.168, 4878.146)" opacity="0.99"><path id="Path_2147-3" data-name="Path 2147" d="M0,1.931S3.043.443,3.451.222A1.543,1.543,0,0,1,4.48.017a.8.8,0,0,1,.745.756c-.021,1.034.041,7.967,0,8.43s-.568,1.267-1.774.629S0,8.082,0,8.082Z" transform="translate(3.039 0)" fill="#fff" stroke="#fff" stroke-width="1.4"></path><path id="Path_2148-3" data-name="Path 2148" d="M3,.011s-.223-.024-1.654,0A1.3,1.3,0,0,0,0,1.411V5.065A1.254,1.254,0,0,0,1.35,6.148c1.276.005,1.654,0,1.654,0" transform="translate(0 1.939)" fill="#fff" stroke="#fff" stroke-width="1.4"></path></g><path id="np_speaker_4983194_FFFFFF-3" data-name="np_speaker_4983194_FFFFFF" d="M1.234,4.268A2.489,2.489,0,0,0,.5,2.5a.293.293,0,0,0-.414.413A1.909,1.909,0,0,1,.648,4.268,1.909,1.909,0,0,1,.086,5.627.292.292,0,1,0,.5,6.04a2.486,2.486,0,0,0,.735-1.772Zm.677,2.977A.292.292,0,1,1,1.5,6.832,3.63,3.63,0,0,0,1.5,1.7a.293.293,0,0,1,.414-.413,4.216,4.216,0,0,1,0,5.955ZM3.417,8.451A.292.292,0,1,1,3,8.037,5.3,5.3,0,0,0,4.565,4.268,5.3,5.3,0,0,0,3,.5.292.292,0,0,1,3.211,0a.289.289,0,0,1,.206.086A5.875,5.875,0,0,1,5.15,4.268,5.875,5.875,0,0,1,3.417,8.451Z" transform="matrix(-0.719, -0.695, 0.695, -0.719, 1227.045, 4870.66)" fill-rule="evenodd" fill="url(#radial-gradient)"></path><path id="Path_14671" data-name="Path 14671" d="M-.792-1.435,4.193,3.783" transform="translate(1203.76 4871.479)" fill="none" stroke="#141414" stroke-width="0.5"></path><path id="Path_14673" data-name="Path 14673" d="M0,0,5.055,5.055" transform="translate(1216.985 4843.574) rotate(-45)" fill="none" stroke="#141414" stroke-width="0.5"></path><path id="Path_14672" data-name="Path 14672" d="M4.193-1.435-.792,3.783" transform="translate(1234.005 4871.479)" fill="none" stroke="#141414" stroke-width="0.5"></path></g></svg> 