<?xml version="1.0" encoding="UTF-8"?> <svg xmlns="http://www.w3.org/2000/svg" xmlns:xlink="http://www.w3.org/1999/xlink" id="Group_14647" data-name="Group 14647" width="49.386" height="31.293" viewBox="0 0 49.386 31.293"><defs><radialGradient id="radial-gradient" cx="0.899" cy="-1.962" r="1.351" gradientTransform="matrix(1, -0.003, 0.008, 2.912, 0.014, 3.317)" gradientUnits="objectBoundingBox"><stop offset="0" stop-color="#a37ed6"></stop><stop offset="0.377" stop-color="#b1a7f5"></stop><stop offset="0.67" stop-color="#86d0ed"></stop><stop offset="1" stop-color="#76fac7"></stop></radialGradient></defs><rect id="Rectangle_5661" data-name="Rectangle 5661" width="1.725" height="46.631" rx="0.862" transform="translate(46.631 14.234) rotate(90)" fill="url(#radial-gradient)"></rect><g id="Group_10150" data-name="Group 10150"><g id="Group_10066" data-name="Group 10066"><g id="Group_10065" data-name="Group 10065"><path id="Oscillator_Retrologue_2_" data-name="Oscillator (Retrologue 2)" d="M-7.7,7.583C-5.558,12.143-2.5,21.3.586,21.355c5.621-3.221,7.129-24.7,11.082-24.7,5.927,0,6.287,18.658,11.727,21.993s5.8-9.336,10.461-9.466" transform="translate(11.205 6.553)" fill="none" stroke="#fff" stroke-linecap="round" stroke-width="2"></path><g id="Ellipse_4" data-name="Ellipse 4" transform="translate(20.507)" fill="#fff" stroke="#fff" stroke-width="2"><ellipse cx="3.212" cy="3.212" rx="3.212" ry="3.212" stroke="none"></ellipse><ellipse cx="3.212" cy="3.212" rx="2.212" ry="2.212" fill="none"></ellipse></g><g id="Ellipse_5" data-name="Ellipse 5" transform="translate(33.463 21.658)" fill="#fff" stroke="#fff" stroke-width="2"><ellipse cx="3.212" cy="3.212" rx="3.212" ry="3.212" stroke="none"></ellipse><ellipse cx="3.212" cy="3.212" rx="2.212" ry="2.212" fill="none"></ellipse></g><g id="Ellipse_6" data-name="Ellipse 6" transform="translate(42.962 11.276)" fill="#fff" stroke="#fff" stroke-width="2"><ellipse cx="3.212" cy="3.212" rx="3.212" ry="3.212" stroke="none"></ellipse><ellipse cx="3.212" cy="3.212" rx="2.212" ry="2.212" fill="none"></ellipse></g><g id="Ellipse_6-2" data-name="Ellipse 6" transform="translate(8.541 24.869)" fill="#fff" stroke="#fff" stroke-width="2"><ellipse cx="3.212" cy="3.212" rx="3.212" ry="3.212" stroke="none"></ellipse><ellipse cx="3.212" cy="3.212" rx="2.212" ry="2.212" fill="none"></ellipse></g><g id="Ellipse_6-3" data-name="Ellipse 6" transform="translate(0 11.276)" fill="#fff" stroke="#fff" stroke-width="2"><ellipse cx="3.212" cy="3.212" rx="3.212" ry="3.212" stroke="none"></ellipse><ellipse cx="3.212" cy="3.212" rx="2.212" ry="2.212" fill="none"></ellipse></g></g></g></g></svg> 