<?xml version="1.0" encoding="UTF-8"?> <svg xmlns="http://www.w3.org/2000/svg" xmlns:xlink="http://www.w3.org/1999/xlink" width="72" height="72" viewBox="0 0 72 72"><defs><radialGradient id="radial-gradient" cx="0.5" cy="-1.198" r="1.444" gradientTransform="translate(0 0.967) scale(1 1.807)" gradientUnits="objectBoundingBox"><stop offset="0" stop-color="#a37ed6"></stop><stop offset="0.377" stop-color="#b1a7f5"></stop><stop offset="0.67" stop-color="#86d0ed"></stop><stop offset="1" stop-color="#76fac7"></stop></radialGradient></defs><g id="Group_15482" data-name="Group 15482" transform="translate(21280 7361)"><circle id="Ellipse_1085" data-name="Ellipse 1085" cx="36" cy="36" r="36" transform="translate(-21280 -7361)" fill="#1c1c1c"></circle><circle id="Ellipse_991" data-name="Ellipse 991" cx="36" cy="36" r="36" transform="translate(-21280 -7361)" opacity="0.3" fill="url(#radial-gradient)"></circle><g id="Rectangle_7881" data-name="Rectangle 7881" transform="translate(-21266 -7329.98)" fill="#fff" stroke="#fff" stroke-width="1"><rect width="43.491" height="10.612" rx="3" stroke="none"></rect><rect x="0.5" y="0.5" width="42.491" height="9.612" rx="2.5" fill="none"></rect></g><path id="Rectangle_8129" data-name="Rectangle 8129" d="M0,0H21.394a3,3,0,0,1,3,3V7.612a3,3,0,0,1-3,3H0a0,0,0,0,1,0,0V0A0,0,0,0,1,0,0Z" transform="translate(-21246.902 -7329.98)" fill="#0c0c0c" opacity="0.047"></path><g id="Ellipse_948" data-name="Ellipse 948" transform="translate(-21231.381 -7326.327)" fill="none" stroke="#0c0c0c" stroke-width="1"><circle cx="1.566" cy="1.566" r="1.566" stroke="none"></circle><circle cx="1.566" cy="1.566" r="1.066" fill="none"></circle></g><line id="Line_377" data-name="Line 377" y1="10.702" transform="translate(-21246.902 -7330)" fill="none" stroke="#0c0c0c" stroke-width="0.5"></line><g id="Ellipse_957" data-name="Ellipse 957" transform="translate(-21260.316 -7324.075)" fill="#fff" stroke="#0c0c0c" stroke-width="1"><circle cx="0.282" cy="0.282" r="0.282" stroke="none"></circle><circle cx="0.282" cy="0.282" r="0.218" fill="none"></circle></g><g id="Ellipse_958" data-name="Ellipse 958" transform="translate(-21258.625 -7324.075)" fill="#fff" stroke="#0c0c0c" stroke-width="1"><circle cx="0.282" cy="0.282" r="0.282" stroke="none"></circle><circle cx="0.282" cy="0.282" r="0.218" fill="none"></circle></g><g id="Ellipse_959" data-name="Ellipse 959" transform="translate(-21256.932 -7324.075)" fill="#fff" stroke="#0c0c0c" stroke-width="1"><circle cx="0.282" cy="0.282" r="0.282" stroke="none"></circle><circle cx="0.282" cy="0.282" r="0.218" fill="none"></circle></g><g id="Ellipse_960" data-name="Ellipse 960" transform="translate(-21255.238 -7324.075)" fill="#fff" stroke="#0c0c0c" stroke-width="1"><circle cx="0.282" cy="0.282" r="0.282" stroke="none"></circle><circle cx="0.282" cy="0.282" r="0.218" fill="none"></circle></g><g id="Ellipse_961" data-name="Ellipse 961" transform="translate(-21234.924 -7324.639)" fill="#fff" stroke="#0c0c0c" stroke-width="1"><circle cx="0.282" cy="0.282" r="0.282" stroke="none"></circle><circle cx="0.282" cy="0.282" r="0.218" fill="none"></circle></g><g id="Ellipse_962" data-name="Ellipse 962" transform="translate(-21233.795 -7324.639)" fill="#fff" stroke="#0c0c0c" stroke-width="1"><circle cx="0.282" cy="0.282" r="0.282" stroke="none"></circle><circle cx="0.282" cy="0.282" r="0.218" fill="none"></circle></g></g></svg> 