<?xml version="1.0" encoding="UTF-8"?> <svg xmlns="http://www.w3.org/2000/svg" xmlns:xlink="http://www.w3.org/1999/xlink" width="72" height="72" viewBox="0 0 72 72"><defs><radialGradient id="radial-gradient" cx="0.73" cy="-1.442" r="1.486" gradientTransform="translate(0 1.228) scale(1 2.025)" gradientUnits="objectBoundingBox"><stop offset="0" stop-color="#a37ed6"></stop><stop offset="0.377" stop-color="#b1a7f5"></stop><stop offset="0.67" stop-color="#86d0ed"></stop><stop offset="1" stop-color="#76fac7"></stop></radialGradient></defs><g id="Group_15479" data-name="Group 15479" transform="translate(20541 7362)"><g id="Group_15477" data-name="Group 15477"><circle id="Ellipse_1086" data-name="Ellipse 1086" cx="36" cy="36" r="36" transform="translate(-20541 -7362)" fill="#1c1c1c"></circle><circle id="Ellipse_994" data-name="Ellipse 994" cx="36" cy="36" r="36" transform="translate(-20541 -7362)" opacity="0.3" fill="url(#radial-gradient)"></circle><g id="Speaker" transform="translate(-20516.428 -7341.43)"><g id="Speaker-2" data-name="Speaker" transform="translate(0 0)"><path id="Path_2147" data-name="Path 2147" d="M15101.341-2141.916s8.091,4.56,9.178,5.236a3.664,3.664,0,0,0,2.737.629,2.332,2.332,0,0,0,1.981-2.316c-.053-3.169.109-24.417,0-25.837s-1.509-3.885-4.72-1.929-9.178,5.363-9.178,5.363Z" transform="translate(-15092.42 2166.859)" fill="#fff"></path><path id="Path_2148" data-name="Path 2148" d="M15099.065-2140.927s-.594.073-4.4,0-3.587-4.3-3.587-4.3v-11.207a3.494,3.494,0,0,1,3.587-3.323c3.394-.016,4.4,0,4.4,0" transform="translate(-15091.077 2165.818)" fill="#fff"></path></g></g></g></g></svg> 