<?xml version="1.0" encoding="UTF-8"?> <svg xmlns="http://www.w3.org/2000/svg" xmlns:xlink="http://www.w3.org/1999/xlink" width="63.88" height="63.877" viewBox="0 0 63.88 63.877"><defs><radialGradient id="radial-gradient" cx="0.757" cy="-0.575" r="3.228" gradientTransform="translate(0 -0.255) scale(1 0.583)" gradientUnits="objectBoundingBox"><stop offset="0" stop-color="#a37ed6"></stop><stop offset="0.222" stop-color="#b1a7f5"></stop><stop offset="0.601" stop-color="#86d0ed"></stop><stop offset="1" stop-color="#76fac7"></stop></radialGradient></defs><g id="Group_15470" data-name="Group 15470" transform="translate(14372 17371)"><ellipse id="Ellipse_1079" data-name="Ellipse 1079" cx="31.94" cy="31.938" rx="31.94" ry="31.938" transform="translate(-14372 -17371)" opacity="0.733" fill="url(#radial-gradient)"></ellipse><g id="np_soundwave_371265_FFFFFF" transform="translate(-14356 -17352)"><path id="Path_14654" data-name="Path 14654" d="M6.852,27.022A1.06,1.06,0,0,1,5.8,25.967V11.954a1.055,1.055,0,0,1,2.11,0V25.967a1.02,1.02,0,0,1-1.056,1.055Z" transform="translate(-5.797 -10.899)" fill="#fff"></path><path id="Path_14655" data-name="Path 14655" d="M17.152,40.221A1.06,1.06,0,0,1,16.1,39.166V25.153a1.055,1.055,0,1,1,2.11,0V39.166a1.062,1.062,0,0,1-1.056,1.055Z" transform="translate(-12.594 -19.608)" fill="#fff"></path><path id="Path_14656" data-name="Path 14656" d="M27.453,47.554A1.06,1.06,0,0,1,26.4,46.5V32.453a1.055,1.055,0,1,1,2.11,0V46.466a1.068,1.068,0,0,1-1.055,1.088Z" transform="translate(-19.391 -24.425)" fill="#fff"></path><path id="Path_14657" data-name="Path 14657" d="M37.652,49.455A1.06,1.06,0,0,1,36.6,48.4V34.352a1.055,1.055,0,0,1,2.11,0V48.365a1.05,1.05,0,0,1-1.056,1.089Z" transform="translate(-26.121 -25.678)" fill="#fff"></path><path id="Path_14658" data-name="Path 14658" d="M47.953,44.622A1.06,1.06,0,0,1,46.9,43.567V29.555a1.055,1.055,0,0,1,2.11,0V43.568a1.06,1.06,0,0,1-1.055,1.054Z" transform="translate(-32.918 -22.513)" fill="#fff"></path><path id="Path_14659" data-name="Path 14659" d="M58.254,40.221A1.06,1.06,0,0,1,57.2,39.166V25.153a1.055,1.055,0,1,1,2.11,0V39.166A1.061,1.061,0,0,1,58.254,40.221Z" transform="translate(-39.716 -19.608)" fill="#fff"></path><path id="Path_14660" data-name="Path 14660" d="M68.453,40.221A1.06,1.06,0,0,1,67.4,39.166V25.153a1.055,1.055,0,1,1,2.11,0V39.166A1.06,1.06,0,0,1,68.453,40.221Z" transform="translate(-46.446 -19.608)" fill="#fff"></path><path id="Path_14661" data-name="Path 14661" d="M78.754,47.054A1.06,1.06,0,0,1,77.7,46V31.953a1.055,1.055,0,0,1,2.11,0V45.966a1.068,1.068,0,0,1-1.055,1.088Z" transform="translate(-53.243 -24.095)" fill="#fff"></path><path id="Path_14662" data-name="Path 14662" d="M89.055,55.823A1.06,1.06,0,0,1,88,54.768V40.755a1.055,1.055,0,1,1,2.11,0V54.768A1.06,1.06,0,0,1,89.055,55.823Z" transform="translate(-60.04 -29.904)" fill="#fff"></path></g></g></svg> 