<?xml version="1.0" encoding="UTF-8"?> <svg xmlns="http://www.w3.org/2000/svg" xmlns:xlink="http://www.w3.org/1999/xlink" width="63.88" height="63.877" viewBox="0 0 63.88 63.877"><defs><radialGradient id="radial-gradient" cx="0.757" cy="-0.575" r="3.228" gradientTransform="translate(0 -0.255) scale(1 0.583)" gradientUnits="objectBoundingBox"><stop offset="0" stop-color="#a37ed6"></stop><stop offset="0.222" stop-color="#b1a7f5"></stop><stop offset="0.601" stop-color="#86d0ed"></stop><stop offset="1" stop-color="#76fac7"></stop></radialGradient></defs><g id="Group_15471" data-name="Group 15471" transform="translate(13894 17371)"><ellipse id="Ellipse_1080" data-name="Ellipse 1080" cx="31.94" cy="31.938" rx="31.94" ry="31.938" transform="translate(-13894 -17371)" opacity="0.733" fill="url(#radial-gradient)"></ellipse><g id="Group_15293" data-name="Group 15293" transform="translate(-13881 -17344)"><path id="Path_15089" data-name="Path 15089" d="M2.662,0H35.923a2.662,2.662,0,0,1,2.662,2.662V6.753a2.662,2.662,0,0,1-2.662,2.662H2.662A2.662,2.662,0,0,1,0,6.753V2.662A2.662,2.662,0,0,1,2.662,0Z" fill="#fff"></path><path id="Path_15090" data-name="Path 15090" d="M0,0H18.98a2.662,2.662,0,0,1,2.662,2.662V6.753A2.662,2.662,0,0,1,18.98,9.414H0Z" transform="translate(16.943)" opacity="0.047"></path><g id="Ellipse_1060" data-name="Ellipse 1060" transform="translate(30.713 3.242)" fill="none" stroke="#1c1c1c" stroke-width="1"><circle cx="1.389" cy="1.389" r="1.389" stroke="none"></circle><circle cx="1.389" cy="1.389" r="0.889" fill="none"></circle></g><path id="Path_15091" data-name="Path 15091" d="M0,9.426V.041" transform="translate(16.943 -0.022)" fill="none" stroke="#1c1c1c" stroke-width="0.5"></path><g id="Ellipse_1061" data-name="Ellipse 1061" transform="translate(5.042 5.239)" fill="#fff" stroke="#1c1c1c" stroke-width="1"><circle cx="0.25" cy="0.25" r="0.25" stroke="none"></circle><circle cx="0.25" cy="0.25" r="0.25" fill="none"></circle></g><g id="Ellipse_1062" data-name="Ellipse 1062" transform="translate(6.544 5.239)" fill="#fff" stroke="#1c1c1c" stroke-width="1"><circle cx="0.25" cy="0.25" r="0.25" stroke="none"></circle><circle cx="0.25" cy="0.25" r="0.25" fill="none"></circle></g><g id="Ellipse_1063" data-name="Ellipse 1063" transform="translate(8.046 5.239)" fill="#fff" stroke="#1c1c1c" stroke-width="1"><circle cx="0.25" cy="0.25" r="0.25" stroke="none"></circle><circle cx="0.25" cy="0.25" r="0.25" fill="none"></circle></g><g id="Ellipse_1064" data-name="Ellipse 1064" transform="translate(9.548 5.239)" fill="#fff" stroke="#1c1c1c" stroke-width="1"><circle cx="0.25" cy="0.25" r="0.25" stroke="none"></circle><circle cx="0.25" cy="0.25" r="0.25" fill="none"></circle></g><g id="Ellipse_1065" data-name="Ellipse 1065" transform="translate(27.571 4.739)" fill="#fff" stroke="#1c1c1c" stroke-width="1"><circle cx="0.25" cy="0.25" r="0.25" stroke="none"></circle><circle cx="0.25" cy="0.25" r="0.25" fill="none"></circle></g><g id="Ellipse_1066" data-name="Ellipse 1066" transform="translate(28.572 4.739)" fill="#fff" stroke="#1c1c1c" stroke-width="1"><circle cx="0.25" cy="0.25" r="0.25" stroke="none"></circle><circle cx="0.25" cy="0.25" r="0.25" fill="none"></circle></g></g></g></svg> 