<?xml version="1.0" encoding="UTF-8"?>
<svg id="_レイヤー_1" data-name="レイヤー_1" xmlns="http://www.w3.org/2000/svg" version="1.1" viewBox="0 0 364.3 46.3">
  <!-- Generator: Adobe Illustrator 29.8.2, SVG Export Plug-In . SVG Version: 2.1.1 Build 3)  -->
  <defs>
    <style>
      .st0 {
        fill: #fff;
      }
    </style>
  </defs>
  <g id="Group_14795">
    <path id="Path_14960" class="st0" d="M18.8,0L6.3,12.5l6.2,6.2,12.5-12.5L18.8,0Z"/>
    <path id="Path_14961" class="st0" d="M18.8,27.6l-12.5,12.5,6.2,6.2,12.5-12.5-6.2-6.2Z"/>
    <path id="Path_14962" class="st0" d="M31.3,18.8H0v8.8h31.3v-8.8Z"/>
    <path id="Path_14963" class="st0" d="M54.6,13.2c-3.1,0-5,1.5-5,3.6,0,2.3,2.4,3.3,4.7,3.8l2.6.6c4.1,1,8.1,3.2,8.1,8,0,4.9-3.9,8.2-10.5,8.2s-10.5-3.1-10.7-8.6h4.9c.2,2.9,2.6,4.3,5.8,4.3s5.5-1.6,5.5-3.9c0-2.1-2-3.1-5-3.8l-3.1-.8c-4.5-1.2-7.4-3.5-7.4-7.4,0-4.9,4.3-8.1,10.1-8.1s9.9,3.3,10,8h-4.8c-.3-2.3-2.2-3.7-5.2-3.7Z"/>
    <path id="Path_14964" class="st0" d="M66.7,26.7c0-6.4,3.9-10.7,9.9-10.7s9.9,4.3,9.9,10.7-3.9,10.7-9.9,10.7-9.9-4.3-9.9-10.7ZM81.6,26.7c0-3.8-1.6-6.8-5-6.8s-5,3-5,6.8,1.6,6.8,5,6.8c3.3,0,4.9-3,4.9-6.8h0Z"/>
    <path id="Path_14965" class="st0" d="M101.8,16.3h4.9v20.7h-4.7v-3.7h-.2c-1,2.5-3.5,4.1-6.2,3.9-4.1,0-6.9-2.8-6.9-7.8v-13.2h4.9v12.4c0,2.6,1.6,4.3,3.9,4.3,2.4,0,4.4-1.9,4.4-4.4,0-.1,0-.2,0-.3v-12h0Z"/>
    <path id="Path_14966" class="st0" d="M114.3,37h-4.9v-20.7h4.7v3.5h.2c.9-2.3,3.1-3.8,6.2-3.8s7.1,2.8,7.1,7.8v13.2h-4.9v-12.4c0-2.8-1.5-4.4-4-4.4s-4.4,1.7-4.4,4.7v12.1h0Z"/>
    <path id="Path_14967" class="st0" d="M129.8,26.7c0-6.9,3.8-10.6,8.5-10.6,2.5-.1,4.9,1.4,5.9,3.7h.2v-10.3h4.9v27.6h-4.8v-3.3h-.3c-1.1,2.3-3.4,3.7-5.9,3.6-4.9,0-8.5-3.9-8.5-10.7ZM144.6,26.6c0-4-1.7-6.6-4.9-6.6s-4.9,2.8-4.9,6.6,1.7,6.7,4.9,6.7,4.9-2.7,4.9-6.7Z"/>
    <path id="Path_14968" class="st0" d="M157.5,37h-5V9.4h5v27.6Z"/>
    <path id="Path_14969" class="st0" d="M160.7,37V9.4h9.5c8.2,0,13.2,5.2,13.2,13.8s-5,13.8-13.4,13.8h-9.4ZM169.8,32.7c5.8,0,8.7-3.2,8.7-9.5s-2.9-9.5-8.5-9.5h-4.3v19h4.1Z"/>
    <path id="Path_14970" class="st0" d="M196,9.4h10.4c6.4,0,9.8,3.6,9.8,8.8s-1.7,6.5-5,7.8l6,10.9h-5.6l-5.5-10.1h-5.1v10.1h-5V9.4h0ZM205.7,22.7c3.7,0,5.4-1.6,5.4-4.5s-1.7-4.6-5.5-4.6h-4.6v9.2h4.7Z"/>
    <path id="Path_14971" class="st0" d="M217.5,26.8c0-6.4,3.9-10.7,9.9-10.7s9.6,3.2,9.6,10.5v1.5h-14.6c0,3.5,2.1,5.6,5.3,5.6s3.8-.9,4.4-2.7l4.6.5c-.9,3.6-4.2,6-9.1,6-6.3,0-10.1-4.2-10.1-10.6ZM232.2,24.7c.1-2.6-1.8-4.7-4.4-4.9-.1,0-.2,0-.4,0-2.7,0-5,2.1-5.1,4.9h9.8Z"/>
    <path id="Path_14972" class="st0" d="M249.6,20.1h-4.3v16.9h-4.9v-16.9h-3.1v-3.8h3.1v-2c0-4.2,2.9-6.2,6.5-6.2,1.3,0,2.5.2,3.7.6l-1,3.8c-.6-.2-1.2-.3-1.8-.3-1.8,0-2.5.9-2.5,2.5v1.6h4.3v3.8h0Z"/>
    <path id="Path_14973" class="st0" d="M249.8,26.8c0-6.4,3.9-10.7,9.9-10.7s9.6,3.2,9.6,10.5v1.5h-14.6c0,3.5,2.1,5.6,5.3,5.6s3.8-.9,4.4-2.7l4.6.5c-.9,3.6-4.2,6-9.1,6-6.3,0-10.1-4.2-10.1-10.6ZM264.5,24.7c.1-2.6-1.8-4.7-4.4-4.9-.1,0-.2,0-.4,0-2.7,0-5,2.1-5.1,4.9h9.8Z"/>
    <path id="Path_14974" class="st0" d="M271.4,16.3h4.8v3.4h.2c.7-2.3,2.8-3.8,5.2-3.7.6,0,1.2,0,1.8.1v4.5c-.7-.2-1.5-.3-2.3-.3-2.5-.1-4.6,1.7-4.7,4.2,0,.1,0,.2,0,.3v12.2h-4.9v-20.7h0Z"/>
    <path id="Path_14975" class="st0" d="M283.1,26.8c0-6.4,3.9-10.7,9.9-10.7s9.6,3.2,9.6,10.5v1.5h-14.6c0,3.5,2.1,5.6,5.3,5.6s3.8-.9,4.4-2.7l4.6.5c-.9,3.6-4.2,6-9.1,6-6.3,0-10.1-4.2-10.1-10.6ZM297.8,24.7c.1-2.6-1.8-4.7-4.4-4.9-.1,0-.2,0-.4,0-2.7,0-5,2.1-5.1,4.9h9.8Z"/>
    <path id="Path_14976" class="st0" d="M309.3,37h-4.9v-20.7h4.7v3.5h.2c.9-2.3,3.1-3.8,6.2-3.8s7.2,2.8,7.2,7.8v13.2h-4.9v-12.4c0-2.8-1.5-4.4-4.1-4.4s-4.4,1.7-4.4,4.7v12.1h0Z"/>
    <path id="Path_14977" class="st0" d="M324.8,26.7c0-6.3,3.9-10.7,10-10.7s8.6,2.9,9,7.4h-4.7c-.3-2.1-2.1-3.6-4.2-3.5-3,0-5.1,2.5-5.1,6.7s2,6.8,5.1,6.8c2.1,0,3.9-1.4,4.2-3.5h4.7c-.4,4.4-3.7,7.5-8.9,7.5-6.2,0-10-4.4-10-10.7Z"/>
    <path id="Path_14978" class="st0" d="M344.9,26.8c0-6.4,3.9-10.7,9.9-10.7s9.6,3.2,9.6,10.5v1.5h-14.6c0,3.5,2.1,5.6,5.3,5.6s3.8-.9,4.4-2.7l4.6.5c-.9,3.6-4.2,6-9.1,6-6.3,0-10.1-4.2-10.1-10.6ZM359.6,24.7c.1-2.6-1.8-4.7-4.4-4.9-.1,0-.2,0-.4,0-2.7,0-5,2.1-5.1,4.9h9.8Z"/>
  </g>
</svg>