<?xml version="1.0" encoding="UTF-8"?> <svg xmlns="http://www.w3.org/2000/svg" xmlns:xlink="http://www.w3.org/1999/xlink" width="63.88" height="63.877" viewBox="0 0 63.88 63.877"><defs><radialGradient id="radial-gradient" cx="0.757" cy="-0.575" r="3.228" gradientTransform="translate(0 -0.255) scale(1 0.583)" gradientUnits="objectBoundingBox"><stop offset="0" stop-color="#a37ed6"></stop><stop offset="0.222" stop-color="#b1a7f5"></stop><stop offset="0.601" stop-color="#86d0ed"></stop><stop offset="1" stop-color="#76fac7"></stop></radialGradient></defs><g id="Group_15467" data-name="Group 15467" transform="translate(14376 17713)"><path id="Path_17978" data-name="Path 17978" d="M31.94,0A31.938,31.938,0,1,1,0,31.938,31.939,31.939,0,0,1,31.94,0Z" transform="translate(-14376 -17713)" opacity="0.733" fill="url(#radial-gradient)"></path><g id="Group_15466" data-name="Group 15466" transform="translate(0.275 -0.207)"><g id="Headphones" transform="translate(-14358.275 -17694.793)"><g id="Headphones-2" data-name="Headphones" transform="translate(0 0)"><path id="Path_2247" data-name="Path 2247" d="M36.415,26.562l-2.853,8.277a4.859,4.859,0,0,0,1.269.092,2.183,2.183,0,0,0,2.071-1.5l1.269-3.662a2.275,2.275,0,0,0-.657-2.439,4.51,4.51,0,0,0-1.1-.749m-.362-1.026c.657.23,3.747,1.466,2.893,4.464l-1.282,3.695c-1.1,2.959-4.6,1.887-5.089,1.709H32.51l3.412-9.934.125.039Z" transform="translate(-11.401 -8.791)" fill="#fff"></path><path id="Path_2248" data-name="Path 2248" d="M28.537,34.412v-.493h0v.493l.158-.467a1.525,1.525,0,0,1-1.019-1.44,1.611,1.611,0,0,1,.079-.493l2.774-8.054a1.506,1.506,0,0,1,1.427-1.019,1.65,1.65,0,0,1,.5.079l.158-.46-.348.348h0a.519.519,0,0,0,.191.118,1.506,1.506,0,0,1,.934,1.926l-2.768,8.054a1.519,1.519,0,0,1-1.433,1.019,1.644,1.644,0,0,1-.493-.079h-.158v.493l-.164.467a2.525,2.525,0,0,0,3.182-1.552l2.768-8.08A2.492,2.492,0,0,0,32.771,22.1l-.158.467.348-.348h0a.388.388,0,0,0-.191-.118A2.492,2.492,0,0,0,29.6,23.65h0L26.822,31.7h0a2.525,2.525,0,0,0,1.552,3.182h.164v-.467l-.164.467Z" transform="translate(-9.408 -7.582)" fill="#fff"></path><path id="Path_2249" data-name="Path 2249" d="M3.09,26.562a4.49,4.49,0,0,0-1.1.749,2.281,2.281,0,0,0-.657,2.439L2.6,33.432a2.2,2.2,0,0,0,2.071,1.5,5.115,5.115,0,0,0,1.269-.092L3.09,26.562m.335-1.032.125-.039L6.962,35.4H6.9c-.506.178-3.984,1.249-5.089-1.709L.552,29.994C-.3,27,2.768,25.76,3.425,25.529Z" transform="translate(-0.403 -8.791)" fill="#fff"></path><path id="Path_2250" data-name="Path 2250" d="M6.271,22.576v.493h.164a1.44,1.44,0,0,1,.493-.085,1.519,1.519,0,0,1,1.433.98L11.129,32a1.44,1.44,0,0,1,.085.493,1.512,1.512,0,0,1-1.026,1.433.519.519,0,0,0-.191.118h0l.348.348-.158-.467a1.44,1.44,0,0,1-.493.085A1.512,1.512,0,0,1,8.263,32.99L5.5,24.969a1.44,1.44,0,0,1-.085-.493,1.506,1.506,0,0,1,1.026-1.433l-.164-.467h0l-.151-.467a2.5,2.5,0,0,0-1.69,2.367,2.525,2.525,0,0,0,.131.8l2.768,8.054A2.5,2.5,0,0,0,9.7,35.021a2.524,2.524,0,0,0,.815-.138.493.493,0,0,0,.184-.118h0l-.348-.348.164.467A2.5,2.5,0,0,0,12.037,31.7L9.3,23.66A2.5,2.5,0,0,0,6.12,22.109l.158.467v-.493l-.312.364Z" transform="translate(-1.783 -7.586)" fill="#fff"></path><path id="Path_2251" data-name="Path 2251" d="M3.42,17.493a21.078,21.078,0,0,1-.224-3A13.769,13.769,0,0,1,7.088,4.4,11.091,11.091,0,0,1,14.6,1.109h0a11.617,11.617,0,0,1,8.356,3.662,14.01,14.01,0,0,1,3.629,9.809,18.915,18.915,0,0,1-.23,2.913.493.493,0,0,0,.414.559.48.48,0,0,0,.559-.408,20,20,0,0,0,.243-3.064,15.036,15.036,0,0,0-3.9-10.486,12.59,12.59,0,0,0-9.033-4H14.6A12.058,12.058,0,0,0,6.4,3.693a14.763,14.763,0,0,0-4.188,10.8,21.17,21.17,0,0,0,.237,3.143.493.493,0,0,0,.973-.145Z" transform="translate(-1.022 -0.09)" fill="#fff"></path><path id="Path_2251-2" data-name="Path 2251" d="M3.343,17.493a22.474,22.474,0,0,1-.209-3A14.275,14.275,0,0,1,6.78,4.4a10.094,10.094,0,0,1,7.04-3.287h0a10.578,10.578,0,0,1,7.828,3.662,14.575,14.575,0,0,1,3.4,9.809,20.165,20.165,0,0,1-.216,2.913.489.489,0,0,0,.388.559.428.428,0,0,0,.343-.085.487.487,0,0,0,.181-.323,21.32,21.32,0,0,0,.228-3.064c.091-3.867-.73-7.691-3.166-10.554A12.453,12.453,0,0,0,13.857.09H13.82A11.925,11.925,0,0,0,5.727,3.709C3.448,6.108,2.2,9.715,2.21,14.495a22.571,22.571,0,0,0,.222,3.143.465.465,0,0,0,.519.381.487.487,0,0,0,.393-.526Z" transform="translate(-0.242 0.797)" fill="#fff"></path></g></g><path id="Path_17979" data-name="Path 17979" d="M-13588.155-15186.13s-1.837,1.264-1.863,2.222,1.7,5.455,1.7,5.455.688,1.406,3.358.766a6.675,6.675,0,0,1,1.65.575,2.512,2.512,0,0,0,1.545-.361,1.963,1.963,0,0,0,.575-2.379c-.461-1.2-2.773-7.92-2.773-7.92s-1.1-1.375-2.121-.8a2.652,2.652,0,0,0-1.211,1.744Z" transform="translate(-767.592 -2491.031)" fill="#fff"></path><path id="Path_17980" data-name="Path 17980" d="M-13582.876-15186.13s2.149,1.211,2.176,2.168-1.8,5.648-1.8,5.648-.9,1.267-3.568.626a6.675,6.675,0,0,0-1.65.575,2.512,2.512,0,0,1-1.545-.361,1.963,1.963,0,0,1-.575-2.379c.461-1.2,2.773-7.92,2.773-7.92s1.1-1.375,2.121-.8a3.871,3.871,0,0,1,1.489,1.648Z" transform="translate(-750.455 -2491.031)" fill="#fff"></path></g></g></svg> 