<?xml version="1.0" encoding="UTF-8"?> <svg xmlns="http://www.w3.org/2000/svg" xmlns:xlink="http://www.w3.org/1999/xlink" width="63.88" height="63.877" viewBox="0 0 63.88 63.877"><defs><radialGradient id="radial-gradient" cx="0.757" cy="-0.575" r="3.228" gradientTransform="translate(0 -0.255) scale(1 0.583)" gradientUnits="objectBoundingBox"><stop offset="0" stop-color="#a37ed6"></stop><stop offset="0.222" stop-color="#b1a7f5"></stop><stop offset="0.601" stop-color="#86d0ed"></stop><stop offset="1" stop-color="#76fac7"></stop></radialGradient></defs><g id="Group_15468" data-name="Group 15468" transform="translate(13894 17713)"><ellipse id="Ellipse_1081" data-name="Ellipse 1081" cx="31.94" cy="31.938" rx="31.94" ry="31.938" transform="translate(-13894 -17713)" opacity="0.733" fill="url(#radial-gradient)"></ellipse><g id="Group_15294" data-name="Group 15294" transform="translate(-13872 -17695)"><g id="np_subwoofer_330016_FFFFFF"><path id="Path_14614" data-name="Path 14614" d="M38.886,50.16a4.209,4.209,0,1,0,4.206,4.211A4.207,4.207,0,0,0,38.886,50.16Zm0,5.263a1.052,1.052,0,1,1,1.052-1.052A1.054,1.054,0,0,1,38.886,55.423Z" transform="translate(-29.429 -36.388)" fill="#fff"></path><path id="Path_14615" data-name="Path 14615" d="M32.368,0H17.647a2.1,2.1,0,0,0-2.1,2.1V25.346a2.105,2.105,0,0,0,2.1,2.109H32.368a2.1,2.1,0,0,0,2.1-2.109V2.1a2.1,2.1,0,0,0-2.1-2.1ZM25,4.269a1.558,1.558,0,1,1-1.553,1.555A1.556,1.556,0,0,1,25,4.269ZM25,24.3a6.313,6.313,0,1,1,6.309-6.313A6.309,6.309,0,0,1,25,24.3Z" transform="translate(-15.547)" fill="#fff"></path></g></g></g></svg> 