<?xml version="1.0" encoding="UTF-8"?> <svg xmlns="http://www.w3.org/2000/svg" xmlns:xlink="http://www.w3.org/1999/xlink" width="72" height="72" viewBox="0 0 72 72"><defs><radialGradient id="radial-gradient" cx="0.5" cy="-1.198" r="0.919" gradientTransform="translate(0 2.364) scale(1 2.973)" gradientUnits="objectBoundingBox"><stop offset="0" stop-color="#a37ed6"></stop><stop offset="0.377" stop-color="#b1a7f5"></stop><stop offset="0.67" stop-color="#86d0ed"></stop><stop offset="1" stop-color="#76fac7"></stop></radialGradient></defs><g id="Group_15481" data-name="Group 15481" transform="translate(21612 7361.237)"><circle id="Ellipse_1084" data-name="Ellipse 1084" cx="36" cy="36" r="36" transform="translate(-21612 -7361.237)" fill="#1c1c1c"></circle><circle id="Ellipse_993" data-name="Ellipse 993" cx="36" cy="36" r="36" transform="translate(-21612 -7361.237)" opacity="0.3" fill="url(#radial-gradient)"></circle><g id="np_soundwave_371265_FFFFFF" transform="translate(-21593 -7340.237)"><path id="Path_14654" data-name="Path 14654" d="M6.986,29.072A1.2,1.2,0,0,1,5.8,27.883v-15.8a1.189,1.189,0,0,1,2.378,0v15.8a1.15,1.15,0,0,1-1.191,1.189Z" transform="translate(-5.797 -10.899)" fill="#fff"></path><path id="Path_14655" data-name="Path 14655" d="M17.287,42.271A1.2,1.2,0,0,1,16.1,41.082v-15.8a1.189,1.189,0,1,1,2.378,0v15.8a1.2,1.2,0,0,1-1.191,1.189Z" transform="translate(-12.149 -19.037)" fill="#fff"></path><path id="Path_14656" data-name="Path 14656" d="M27.588,49.609A1.2,1.2,0,0,1,26.4,48.42V32.587a1.189,1.189,0,1,1,2.378,0v15.8a1.2,1.2,0,0,1-1.189,1.227Z" transform="translate(-18.5 -23.539)" fill="#fff"></path><path id="Path_14657" data-name="Path 14657" d="M37.787,51.509A1.2,1.2,0,0,1,36.6,50.32V34.486a1.189,1.189,0,1,1,2.378,0v15.8a1.184,1.184,0,0,1-1.191,1.228Z" transform="translate(-24.789 -24.71)" fill="#fff"></path><path id="Path_14658" data-name="Path 14658" d="M48.088,46.672A1.2,1.2,0,0,1,46.9,45.483V29.689a1.189,1.189,0,1,1,2.378,0v15.8a1.2,1.2,0,0,1-1.189,1.188Z" transform="translate(-31.141 -21.752)" fill="#fff"></path><path id="Path_14659" data-name="Path 14659" d="M58.389,42.271A1.2,1.2,0,0,1,57.2,41.082v-15.8a1.189,1.189,0,1,1,2.378,0v15.8A1.2,1.2,0,0,1,58.389,42.271Z" transform="translate(-37.492 -19.037)" fill="#fff"></path><path id="Path_14660" data-name="Path 14660" d="M68.588,42.271A1.2,1.2,0,0,1,67.4,41.082v-15.8a1.189,1.189,0,0,1,2.378,0v15.8A1.2,1.2,0,0,1,68.588,42.271Z" transform="translate(-43.781 -19.037)" fill="#fff"></path><path id="Path_14661" data-name="Path 14661" d="M78.889,49.109A1.2,1.2,0,0,1,77.7,47.92V32.087a1.189,1.189,0,1,1,2.378,0v15.8a1.2,1.2,0,0,1-1.189,1.227Z" transform="translate(-50.133 -23.23)" fill="#fff"></path><path id="Path_14662" data-name="Path 14662" d="M89.19,57.873A1.2,1.2,0,0,1,88,56.684v-15.8a1.189,1.189,0,1,1,2.378,0v15.8A1.2,1.2,0,0,1,89.19,57.873Z" transform="translate(-56.485 -28.658)" fill="#fff"></path></g></g></svg> 