<?xml version="1.0" encoding="utf-8"?>
<!-- Generator: Adobe Illustrator 24.3.0, SVG Export Plug-In . SVG Version: 6.00 Build 0)  -->
<svg version="1.1" id="レイヤー_1" xmlns="http://www.w3.org/2000/svg" xmlns:xlink="http://www.w3.org/1999/xlink" x="0px"
	 y="0px" viewBox="0 0 194.2 34.5" style="enable-background:new 0 0 194.2 34.5;" xml:space="preserve">
<style type="text/css">
	.st0{fill:#50BC82;}
</style>
<g id="Layer_2">
	<g id="Layer_1-2">
		<circle class="st0" cx="183.2" cy="23.2" r="5"/>
		<path class="st0" d="M192.5,0.3H174c-0.9,0-1.7,0.7-1.7,1.7c0,0,0,0,0,0v30.5c0,0.9,0.8,1.7,1.7,1.7h18.5c0.9,0,1.7-0.8,1.7-1.7V2
			C194.2,1.1,193.4,0.3,192.5,0.3z M183.2,5c1.8,0,3.3,1.5,3.3,3.3c0,1.8-1.5,3.3-3.3,3.3c-1.8,0-3.3-1.5-3.3-3.3S181.4,5,183.2,5
			L183.2,5z M183.2,31.4c-4.5,0-8.2-3.7-8.1-8.2c0-4.5,3.7-8.2,8.2-8.1c4.5,0,8.1,3.7,8.1,8.2C191.5,27.8,187.8,31.4,183.2,31.4
			L183.2,31.4z"/>
		<path class="st0" d="M16.7,0.9C7.5,0.9,0,8.4,0,17.7v8.5l0,0c0.1,4.1,3.4,7.4,7.5,7.4h1c0.8,0,1.5-0.7,1.5-1.5V20.1
			c0-0.9-0.7-1.6-1.6-1.6h-1c-1.6,0-3.1,0.5-4.4,1.4v-2.3C3.1,10.1,9.2,4,16.7,4s13.6,6.1,13.6,13.6V20c-1.3-0.9-2.8-1.4-4.4-1.4h-1
			c-0.9,0-1.5,0.7-1.6,1.6V32c0,0.8,0.7,1.5,1.6,1.5h1c4.1,0,7.4-3.3,7.5-7.4l0,0v-8.5c0-9.2-7.4-16.7-16.6-16.7
			C16.8,0.9,16.8,0.9,16.7,0.9z"/>
		<path class="st0" d="M102.6,0c-9.5,0-17.2,7.7-17.2,17.2s7.7,17.2,17.2,17.2s17.2-7.7,17.2-17.2c0,0,0,0,0,0
			C119.8,7.7,112.1,0,102.6,0C102.6,0,102.6,0,102.6,0z M102.6,24.9l-4.8-4.8h-2.9v-5.8h2.9l4.8-4.8L102.6,24.9z M110.2,19.1l-1,1
			l-1.9-1.9l-1.9,1.9l-0.9-1l1.9-1.9l-1.9-1.9l0.9-1l1.9,1.9l1.9-1.9l1,1l-1.9,1.9L110.2,19.1z"/>
	</g>
</g>
<circle class="st0" cx="39" cy="17.2" r="1"/>
<circle class="st0" cx="43" cy="17.2" r="1"/>
<circle class="st0" cx="47" cy="17.2" r="1"/>
<circle class="st0" cx="51" cy="17.2" r="1"/>
<circle class="st0" cx="55" cy="17.2" r="1"/>
<circle class="st0" cx="59" cy="17.2" r="1"/>
<circle class="st0" cx="63" cy="17.2" r="1"/>
<circle class="st0" cx="67" cy="17.2" r="1"/>
<circle class="st0" cx="71" cy="17.2" r="1"/>
<circle class="st0" cx="75" cy="17.2" r="1"/>
<circle class="st0" cx="79" cy="17.2" r="1"/>
<circle class="st0" cx="126" cy="17.2" r="1"/>
<circle class="st0" cx="130" cy="17.2" r="1"/>
<circle class="st0" cx="134" cy="17.2" r="1"/>
<circle class="st0" cx="138" cy="17.2" r="1"/>
<circle class="st0" cx="142" cy="17.2" r="1"/>
<circle class="st0" cx="146" cy="17.2" r="1"/>
<circle class="st0" cx="150" cy="17.2" r="1"/>
<circle class="st0" cx="154" cy="17.2" r="1"/>
<circle class="st0" cx="158" cy="17.2" r="1"/>
<circle class="st0" cx="162" cy="17.2" r="1"/>
<circle class="st0" cx="166" cy="17.2" r="1"/>
</svg>
