<?xml version="1.0" encoding="UTF-8"?> <svg xmlns="http://www.w3.org/2000/svg" xmlns:xlink="http://www.w3.org/1999/xlink" version="1.1" viewBox="0 0 73.38 28.94"><style type="text/css">.st0{fill:#a5673f}.st1{fill:url(#subito)}</style><defs xmlns="http://www.w3.org/2000/svg"><linearGradient id="subito" x1="25%" y1="0%" x2="100%" y2="20%"><stop offset="0%" stop-color="#000" stop-opacity="0"></stop><stop offset="100%" stop-color="#000" stop-opacity="0.5"></stop></linearGradient></defs><g id="subitopiano.com"><g class="st0"><path d="M3.43,25.57c0-0.25-0.1-0.47-0.3-0.65s-0.57-0.33-1.11-0.45c-0.64-0.14-1.11-0.32-1.41-0.54s-0.44-0.54-0.44-0.96c0-0.41,0.17-0.76,0.5-1.03s0.79-0.41,1.36-0.41c0.61,0,1.09,0.15,1.43,0.44c0.35,0.29,0.52,0.67,0.52,1.14H3.4c0-0.3-0.12-0.55-0.36-0.76s-0.57-0.32-1-0.32c-0.43,0-0.75,0.09-0.96,0.27s-0.31,0.4-0.31,0.65c0,0.25,0.09,0.45,0.27,0.61s0.55,0.3,1.11,0.42c0.64,0.14,1.11,0.33,1.42,0.57c0.31,0.24,0.46,0.57,0.46,0.99c0,0.45-0.17,0.81-0.52,1.07c-0.35,0.27-0.82,0.4-1.42,0.4c-0.65,0-1.16-0.15-1.52-0.45S0,25.87,0,25.43h0.58c0.02,0.39,0.18,0.67,0.46,0.83s0.63,0.25,1.02,0.25c0.43,0,0.77-0.09,1.01-0.27S3.43,25.84,3.43,25.57z"></path><path d="M8.82,26.06H8.81c-0.17,0.3-0.39,0.54-0.67,0.7s-0.62,0.24-1.02,0.24c-0.57,0-1.01-0.18-1.32-0.55s-0.46-0.96-0.46-1.77v-3.06h0.59v3.07c0,0.66,0.11,1.12,0.32,1.4s0.53,0.41,0.94,0.41c0.45,0,0.81-0.1,1.07-0.29s0.44-0.47,0.54-0.83v-3.76h0.59v5.28H8.87L8.82,26.06z"></path><path d="M15.19,24.41c0,0.8-0.18,1.44-0.53,1.9s-0.85,0.69-1.49,0.69c-0.39,0-0.72-0.08-1-0.22s-0.5-0.37-0.67-0.65l-0.01,0l-0.06,0.77h-0.5v-7.62h0.59v3.13l0.01,0c0.17-0.29,0.39-0.52,0.66-0.67c0.27-0.15,0.59-0.23,0.98-0.23c0.65,0,1.15,0.25,1.5,0.75s0.53,1.18,0.53,2.04V24.41z M14.59,24.31c0-0.69-0.13-1.24-0.38-1.65s-0.64-0.62-1.16-0.62c-0.42,0-0.75,0.1-0.99,0.3s-0.43,0.46-0.55,0.78v2.39c0.13,0.31,0.33,0.55,0.58,0.73s0.58,0.27,0.97,0.27c0.52,0,0.91-0.19,1.16-0.56c0.25-0.37,0.38-0.88,0.38-1.53V24.31z"></path><path d="M17.15,20.11h-0.58v-0.82h0.58V20.11z M17.15,26.91h-0.58v-5.28h0.58V26.91z"></path><path d="M19.61,20.27v1.35h1.11v0.48h-1.11v3.44c0,0.35,0.06,0.6,0.17,0.74s0.27,0.21,0.47,0.21c0.08,0,0.16,0,0.23-0.01c0.07-0.01,0.16-0.02,0.26-0.04l0.08,0.44c-0.09,0.04-0.19,0.07-0.31,0.09s-0.24,0.03-0.37,0.03c-0.36,0-0.64-0.11-0.84-0.34c-0.19-0.23-0.29-0.6-0.29-1.12V22.1h-0.87v-0.48h0.87v-1.35H19.61z"></path><path d="M21.51,24.19c0-0.79,0.21-1.44,0.63-1.93c0.42-0.49,0.99-0.73,1.7-0.73c0.72,0,1.29,0.25,1.71,0.73c0.42,0.49,0.63,1.13,0.63,1.93v0.16c0,0.8-0.21,1.44-0.63,1.93c-0.42,0.49-0.99,0.73-1.7,0.73c-0.72,0-1.29-0.24-1.71-0.73c-0.42-0.49-0.63-1.13-0.63-1.93V24.19z M22.1,24.35c0,0.63,0.15,1.14,0.46,1.55c0.3,0.41,0.74,0.61,1.3,0.61c0.56,0,0.99-0.2,1.29-0.61c0.3-0.41,0.46-0.92,0.46-1.55v-0.16c0-0.61-0.15-1.13-0.46-1.54s-0.74-0.62-1.3-0.62c-0.56,0-0.99,0.21-1.29,0.62s-0.45,0.93-0.45,1.54V24.35z"></path><path d="M32.45,24.41c0,0.79-0.18,1.42-0.53,1.89c-0.35,0.47-0.86,0.7-1.52,0.7c-0.28,0-0.53-0.05-0.74-0.15s-0.39-0.24-0.54-0.44l-0.01,0v2.51h-1.42v-7.31h1.31l0.07,0.62c0.16-0.23,0.35-0.41,0.56-0.53s0.47-0.18,0.76-0.18c0.67,0,1.18,0.25,1.53,0.75s0.53,1.18,0.53,2.03V24.41z M31.02,24.31c0-0.51-0.08-0.91-0.24-1.22c-0.16-0.3-0.42-0.46-0.77-0.46c-0.22,0-0.41,0.04-0.55,0.13c-0.15,0.09-0.27,0.21-0.36,0.38v2.31c0.09,0.15,0.21,0.27,0.36,0.34c0.15,0.08,0.33,0.12,0.56,0.12c0.35,0,0.61-0.13,0.76-0.4c0.16-0.26,0.24-0.63,0.24-1.1V24.31z"></path><path d="M34.83,20.36H33.4v-1.07h1.43V20.36z M34.83,26.91H33.4v-5.28h1.43V26.91z"></path><path d="M39.1,26.91c-0.04-0.1-0.08-0.2-0.11-0.31s-0.06-0.22-0.08-0.33c-0.17,0.22-0.37,0.4-0.6,0.54s-0.51,0.2-0.83,0.2c-0.53,0-0.94-0.14-1.24-0.42c-0.3-0.28-0.45-0.67-0.45-1.16c0-0.53,0.2-0.93,0.59-1.21c0.39-0.28,0.98-0.42,1.76-0.42h0.73v-0.42c0-0.26-0.07-0.46-0.2-0.6s-0.33-0.21-0.6-0.21c-0.24,0-0.42,0.05-0.55,0.16c-0.13,0.11-0.19,0.26-0.19,0.47h-1.42c0-0.47,0.2-0.87,0.61-1.19c0.41-0.32,0.96-0.48,1.64-0.48c0.64,0,1.16,0.16,1.55,0.47c0.39,0.31,0.58,0.77,0.58,1.38v2.18c0,0.25,0.02,0.49,0.06,0.7c0.04,0.21,0.1,0.43,0.18,0.65H39.1z M37.86,25.96c0.22,0,0.41-0.05,0.59-0.14c0.17-0.09,0.31-0.21,0.41-0.35v-0.87h-0.73c-0.31,0-0.54,0.07-0.7,0.22c-0.15,0.15-0.23,0.33-0.23,0.55c0,0.18,0.06,0.32,0.17,0.43C37.5,25.9,37.66,25.96,37.86,25.96z"></path><path d="M42.67,21.62l0.06,0.73l0.01,0c0.17-0.27,0.38-0.47,0.64-0.62c0.25-0.14,0.54-0.22,0.86-0.22c0.54,0,0.96,0.16,1.26,0.49c0.29,0.33,0.44,0.86,0.44,1.59v3.3h-1.43v-3.3c0-0.36-0.07-0.61-0.21-0.76c-0.14-0.14-0.36-0.22-0.65-0.22c-0.2,0-0.37,0.04-0.51,0.11c-0.15,0.08-0.27,0.19-0.37,0.33v3.83h-1.43v-5.28H42.67z"></path><path d="M46.79,24.22c0-0.8,0.22-1.45,0.65-1.95s1.04-0.74,1.84-0.74c0.8,0,1.41,0.25,1.85,0.74s0.65,1.14,0.65,1.95v0.1c0,0.81-0.22,1.46-0.65,1.95c-0.43,0.49-1.05,0.74-1.84,0.74c-0.8,0-1.41-0.25-1.85-0.74c-0.43-0.49-0.65-1.14-0.65-1.95V24.22z M48.22,24.32c0,0.49,0.08,0.88,0.25,1.16c0.17,0.29,0.44,0.43,0.83,0.43c0.37,0,0.65-0.14,0.81-0.43c0.17-0.29,0.25-0.67,0.25-1.16v-0.1c0-0.48-0.08-0.86-0.25-1.16c-0.17-0.29-0.44-0.44-0.82-0.44c-0.37,0-0.65,0.15-0.81,0.44c-0.17,0.29-0.25,0.68-0.25,1.15V24.32z"></path><path d="M53.6,26.91h-0.67v-0.77h0.67V26.91z"></path><path d="M57.23,26.51c0.4,0,0.74-0.11,1.02-0.32c0.28-0.21,0.43-0.52,0.45-0.91h0.56c-0.02,0.51-0.22,0.92-0.61,1.25s-0.86,0.48-1.42,0.48c-0.73,0-1.29-0.24-1.68-0.73s-0.58-1.12-0.58-1.91v-0.21c0-0.78,0.19-1.42,0.58-1.91c0.39-0.49,0.94-0.73,1.67-0.73c0.59,0,1.07,0.17,1.45,0.51c0.38,0.34,0.57,0.8,0.59,1.37H58.7c-0.02-0.42-0.16-0.76-0.44-1.01s-0.62-0.37-1.04-0.37c-0.58,0-1,0.2-1.27,0.6c-0.27,0.4-0.4,0.91-0.4,1.54v0.21c0,0.64,0.13,1.15,0.4,1.55C56.22,26.31,56.65,26.51,57.23,26.51z"></path><path d="M60.12,24.19c0-0.79,0.21-1.44,0.63-1.93c0.42-0.49,0.99-0.73,1.7-0.73c0.72,0,1.29,0.25,1.71,0.73c0.42,0.49,0.63,1.13,0.63,1.93v0.16c0,0.8-0.21,1.44-0.63,1.93c-0.42,0.49-0.99,0.73-1.7,0.73c-0.72,0-1.29-0.24-1.71-0.73c-0.42-0.49-0.63-1.13-0.63-1.93V24.19z M60.71,24.35c0,0.63,0.15,1.14,0.46,1.55c0.3,0.41,0.74,0.61,1.3,0.61c0.56,0,0.99-0.2,1.29-0.61c0.3-0.41,0.46-0.92,0.46-1.55v-0.16c0-0.61-0.15-1.13-0.46-1.54s-0.74-0.62-1.3-0.62c-0.56,0-0.99,0.21-1.29,0.62s-0.45,0.93-0.45,1.54V24.35z"></path><path d="M66.53,21.62l0.04,0.93l0.01,0c0.17-0.32,0.4-0.57,0.69-0.76s0.63-0.27,1.03-0.27c0.41,0,0.75,0.09,1.02,0.28s0.45,0.49,0.56,0.89h0.01c0.16-0.35,0.39-0.64,0.69-0.85c0.3-0.21,0.66-0.32,1.08-0.32c0.56,0,0.98,0.17,1.28,0.52c0.29,0.35,0.44,0.9,0.44,1.66v3.2h-0.59v-3.2c0-0.63-0.11-1.06-0.32-1.31s-0.53-0.37-0.95-0.37c-0.47,0.01-0.83,0.17-1.1,0.48c-0.27,0.31-0.42,0.67-0.45,1.06v3.33h-0.59v-3.25c0-0.6-0.11-1.01-0.33-1.26c-0.22-0.24-0.53-0.36-0.95-0.36c-0.42,0-0.75,0.12-1,0.35s-0.43,0.53-0.54,0.89v3.64h-0.59v-5.28H66.53z"></path></g></g><path class="st1" d="M38.8,0.51H17.37l0.2-0.49H39L38.8,0.51z M37.23,4.34H15.8L16,3.85h21.43L37.23,4.34z M35.61,8.3H14.18l0.2-0.49h21.43L35.61,8.3z M34.03,12.16H12.6l0.2-0.49h21.43L34.03,12.16z M32.43,16.07H11l0.2-0.49h21.43L32.43,16.07z"></path><g id="sp"><path d="M33.87,2.54c0,0.92-0.41,1.38-1.22,1.38c-0.79,0-1.19-0.37-1.19-1.1c0-0.12,0.04-0.28,0.11-0.48c0.07-0.2,0.11-0.34,0.11-0.44c0-0.49-0.38-0.73-1.13-0.73c-0.34,0-0.68,0.09-1.02,0.27C29.17,1.63,29,1.89,29,2.24c0,0.39,0.63,1.15,1.89,2.29c1.26,1.14,1.89,2.17,1.89,3.1c0,0.88-0.41,1.58-1.22,2.09c-0.72,0.46-1.54,0.7-2.45,0.7c-0.77,0-1.51-0.24-2.23-0.73c-0.82-0.54-1.22-1.17-1.22-1.91c0-0.88,0.41-1.32,1.22-1.32c0.79,0,1.19,0.36,1.19,1.09c0,0.12-0.04,0.3-0.11,0.52c-0.07,0.23-0.11,0.4-0.11,0.52c0,0.43,0.35,0.65,1.04,0.65c0.38,0,0.74-0.15,1.06-0.44c0.32-0.29,0.49-0.62,0.49-0.98c0-0.51-0.6-1.32-1.8-2.42c-1.2-1.1-1.8-1.97-1.8-2.6c0-0.85,0.41-1.55,1.22-2.11C28.79,0.23,29.59,0,30.48,0c0.7,0,1.43,0.25,2.21,0.76C33.47,1.27,33.87,1.86,33.87,2.54z"></path><path d="M46.68,3.34c0,1.73-0.61,3.31-1.84,4.75c-1.3,1.51-2.8,2.26-4.5,2.26c-0.96,0-1.67-0.4-2.12-1.21c0,0.02-0.43,0.96-1.3,2.82c-0.7,1.52-1.04,2.35-1.04,2.5c0,0.29,0.44,0.43,1.33,0.43c-0.02,0,0.4,0,1.26,0v1.17H29.9V14.9c0.26,0,0.55,0,0.86,0c0.86,0,1.43-0.1,1.69-0.29c0.1-0.07,1.04-2.14,2.84-6.21C37.1,4.33,38,2.17,38,1.93c0-0.39-0.19-0.59-0.58-0.59c-0.72,0-1.45,0.59-2.2,1.76h-1.15c1.22-2.05,2.88-3.08,4.97-3.08c0.38,0,0.74,0.14,1.06,0.42c0.32,0.28,0.52,0.62,0.59,1.01c1.3-0.95,2.38-1.43,3.24-1.43C45.77,0.02,46.68,1.13,46.68,3.34z M44.2,2.43c0-0.73-0.32-1.09-0.97-1.09c-0.89,0-1.8,0.94-2.74,2.81c-0.84,1.7-1.26,3.08-1.26,4.12c0,0.68,0.29,1.02,0.86,1.02c0.77,0,1.67-0.95,2.7-2.85C43.73,4.67,44.2,3.33,44.2,2.43z"></path></g></svg> 