<?xml version="1.0" encoding="utf-8"?>
<!-- Generator: Adobe Illustrator 24.3.0, SVG Export Plug-In . SVG Version: 6.00 Build 0)  -->
<svg version="1.1" id="_アイコン" xmlns="http://www.w3.org/2000/svg" xmlns:xlink="http://www.w3.org/1999/xlink" x="0px"
	 y="0px" viewBox="0 0 1000 200" style="enable-background:new 0 0 1000 200;" xml:space="preserve">
<style type="text/css">
	.st0{fill:#EBEBEB;}
	.st1{opacity:0.5;fill:#262626;}
	.st2{opacity:0.5;}
	.st3{fill:#262626;}
</style>
<circle class="st0" cx="100" cy="100" r="99"/>
<path class="st1" d="M127.3,42.6v50c0,1.5-0.5,2.9-1.5,4c-1.1,1.2-2.4,2.1-3.8,2.7c-1.5,0.6-3,1.1-4.6,1.4c-2.8,0.6-5.8,0.6-8.6,0
	c-1.6-0.3-3.1-0.8-4.6-1.4c-1.5-0.6-2.8-1.5-3.8-2.7c-2-2.3-2-5.7,0-7.9c1.1-1.2,2.4-2.1,3.8-2.7c1.5-0.6,3-1.1,4.6-1.4
	c1.4-0.3,2.9-0.5,4.3-0.5c2.9,0,5.9,0.6,8.6,1.7v-24L87.3,72.3V104c0,1.5-0.5,2.9-1.5,4c-1.1,1.2-2.4,2.1-3.8,2.7
	c-1.5,0.6-3,1.1-4.6,1.4c-2.8,0.6-5.8,0.6-8.6,0c-1.6-0.3-3.1-0.8-4.6-1.4c-1.5-0.6-2.8-1.5-3.8-2.7c-2-2.3-2-5.7,0-7.9
	c1.1-1.2,2.4-2.1,3.8-2.7c1.5-0.6,3-1.1,4.6-1.4c1.4-0.3,2.9-0.5,4.3-0.5c2.9,0,5.9,0.6,8.6,1.7V54c0-0.9,0.3-1.8,0.8-2.5
	c0.5-0.7,1.3-1.3,2.2-1.6l37.1-11.4c0.4-0.1,0.8-0.2,1.2-0.2C125.4,38.3,127.3,40.2,127.3,42.6C127.3,42.5,127.3,42.6,127.3,42.6
	L127.3,42.6z"/>
<g class="st2">
	<path class="st3" d="M41.3,136.4v-2.6h7.4c-0.7-1.5-1.5-2.8-2.2-4.1h-4.3v-2.6h11.1v-2.8h3.3v2.8h11.1v2.6h-4.4
		c-0.6,1.4-1.2,2.8-2,4.1h7.3v2.6H41.3z M44.9,138.1H65V152h-3.3v-1.2H48.2v1.2H45L44.9,138.1z M48.2,143.2h13.5v-2.5H48.2
		L48.2,143.2z M48.2,145.7v2.6h13.5v-2.6H48.2z M57.8,133.9c0.9-1.3,1.6-2.6,2.2-4.1h-9.9c0.8,1.4,1.4,2.8,2,4.1L57.8,133.9z"/>
	<path class="st3" d="M70.9,137.3c2.2-0.9,4.2-1.9,6.2-3.1l1.2,2.3V127h4.3c0.2-0.6,0.4-1.4,0.7-2.5l3.3,0.2
		c-0.2,0.9-0.4,1.7-0.6,2.3h5.7v9.3l1.2-2.1c2.2,0.9,4.3,1.9,6.3,3.1l-1.5,2.6c-1.9-1.2-3.9-2.2-6-3.1v2.6h-5v1.6h11.4v2.7H88
		c3.4,2.3,7.1,4.1,11,5.3l-1.2,2.7c-4-1.4-7.8-3.4-11.2-5.9v6.3h-3.3v-6.3c-3.4,2.5-7.2,4.5-11.2,5.9l-1.1-2.6c3.9-1.2,7.6-3,11-5.3
		H72v-2.7h11.4v-1.6h-5v-2.7c-2,1.3-4,2.3-6.2,3.2L70.9,137.3z M76.1,132.7c-1.6-1.5-3.3-2.8-5-4.1l1.9-2.3c1.7,1.3,3.4,2.7,5,4.1
		L76.1,132.7z M81.5,131.9h7.1v-2.3h-7.1L81.5,131.9z M81.5,134.4v2.5h7.1v-2.5L81.5,134.4z M93.9,132.6l-1.9-2.2
		c1.7-1.3,3.4-2.7,5-4.1l2,2.2C97.3,130,95.6,131.4,93.9,132.6z"/>
	<path class="st3" d="M113.4,147.2c0.3,0,0.5,0,0.5-0.1c0.1-0.3,0.1-0.6,0.1-0.9v-4.3h-3v10.3h-3.1v-10.3H105v8.2h-3v-10.7h5.8v-2.7
		h-6.6V134h6.6v-2.9H105c-0.3,0.9-0.6,1.8-1,2.6l-2.9-0.9c1-2.2,1.7-4.6,1.9-7.1l3,0.3c-0.1,0.9-0.2,1.7-0.4,2.5h2.2v-3.4h3.1v3.4
		h5.8v2.6H111v2.9h6.5v2.6H111v2.7h5.8v7.1c0,0.6,0,1.1-0.1,1.6c0,0.3-0.1,0.7-0.2,1c-0.1,0.2-0.2,0.5-0.4,0.6
		c-0.2,0.1-0.4,0.2-0.7,0.2c-0.3,0.1-0.7,0.1-1,0.1c-0.4,0-1.2-0.1-2.5-0.2l-0.1-2.8C112.7,147.2,113.2,147.2,113.4,147.2z
		 M119,145.7v-18.9h2.9v18.9H119z M124.7,125.6h3.1v21.9c0,1.9-0.2,3.2-0.6,3.6s-1.5,0.7-3.3,0.7c-0.7,0-2-0.1-3.9-0.1l-0.2-2.9
		c1.5,0.1,2.7,0.1,3.6,0.1c0.6,0,1-0.1,1.1-0.2c0.2-0.4,0.2-0.9,0.2-1.4V125.6z"/>
	<path class="st3" d="M138.1,133v19.1h-3.3v-13.7c-0.7,1.2-1.5,2.2-2.4,3.3l-1.6-3c3.2-4,5.5-8.7,6.5-13.7l3.1,0.7
		C140,128.2,139.2,130.7,138.1,133z M159,130.4h-9v4.8h8v2.7h-8v5h8v2.8h-8v6.5h-3.4v-21.8h-1c-1.2,2.9-2.7,5.6-4.4,8.2l-2.6-1.9
		c2.5-3.7,4.4-7.7,5.7-11.9l3.1,0.6c-0.3,0.9-0.5,1.7-0.8,2.4H159V130.4z"/>
</g>
<circle class="st0" cx="350" cy="100" r="99"/>
<path class="st1" d="M387.5,72.3c0,1.5,0,3.6,0,6.3s0,4.8,0,6.3c0,1.5-0.1,3.4-0.4,5.7c-0.2,2.1-0.5,4.1-0.9,6.2
	c-0.4,2-1.4,3.8-2.9,5.2c-1.4,1.4-3.2,2.2-5.2,2.4c-9.3,0.8-18.7,1.1-28.1,1c-9.4,0.1-18.7-0.2-28.1-1c-2-0.2-3.8-1.1-5.2-2.4
	c-1.5-1.4-2.5-3.2-2.9-5.2c-0.4-2-0.7-4.1-0.9-6.2c-0.2-2.3-0.3-4.2-0.4-5.7s0-3.6,0-6.3s0-4.8,0-6.3s0.1-3.4,0.4-5.7
	c0.2-2.1,0.5-4.1,0.9-6.2c0.4-2,1.4-3.8,2.9-5.2c1.4-1.4,3.2-2.2,5.2-2.4c9.3-0.8,18.7-1.1,28.1-1c9.4-0.1,18.7,0.2,28.1,1
	c2,0.2,3.8,1.1,5.2,2.4c1.5,1.4,2.5,3.2,2.9,5.2c0.4,2,0.7,4.1,0.9,6.2C387.3,68.9,387.4,70.8,387.5,72.3z M366.1,78.6
	c0.1-0.9-0.4-1.8-1.2-2.3l-21.4-13.4c-1.2-0.8-2.9-0.4-3.7,0.8c-0.3,0.4-0.4,0.9-0.4,1.5V92c0,1,0.5,1.9,1.4,2.3
	c0.4,0.2,0.8,0.3,1.3,0.3c0.5,0,1-0.1,1.4-0.4l21.4-13.4C365.7,80.4,366.1,79.5,366.1,78.6z"/>
<g class="st2">
	<path class="st3" d="M278.1,135.1h23.4v0.6c0,9.3-6.2,14.3-18.7,15.1l-0.5-2.9c3.8-0.1,7.5-1,10.9-2.8c2.7-1.5,4.5-4.2,4.9-7.2h-20
		L278.1,135.1z M280.4,130.3v-2.8h19.2v2.8H280.4z"/>
	<path class="st3" d="M307.8,137.9c4.3-0.6,8.5-1.9,12.5-3.9c3.7-1.7,7.1-4.1,10-7.1l2,2.2c-2.6,2.6-5.6,4.8-8.8,6.5v15.2H320v-13.6
		c-3.7,1.7-7.7,2.8-11.8,3.4L307.8,137.9z"/>
	<path class="st3" d="M357.9,124.4c0.9,1.5,1.8,3.1,2.6,4.8c0,6.7-1.6,11.8-4.8,15.3c-3.2,3.4-8.1,5.5-14.7,6.2l-0.6-2.9
		c5.5-0.6,9.6-2.2,12.2-4.7c2.6-2.6,4.1-6.4,4.4-11.6h-19.3v-3h19.5c-0.7-1.3-1.3-2.3-1.6-2.9L357.9,124.4z M359.9,125.1l2.3-1.1
		c0.9,1.6,1.8,3.1,2.5,4.5l-2.3,1.1C361.8,128.5,361,127,359.9,125.1L359.9,125.1z"/>
	<path class="st3" d="M370.3,128.7h-3.8v-2.6h13.7v2.6h-3.4v2.5h3.2v20.6h-2.8v-1.4H370v1.4h-3v-20.6h3.3L370.3,128.7z M370,141.9
		v1.4h7.4v-2.6h-1.6c-0.7,0-1.1-0.1-1.3-0.4c-0.2-0.5-0.3-1.1-0.3-1.6v-4.9h-0.9c0.1,1.8-0.1,3.6-0.4,5.4c-0.4,1.3-1,2.5-1.8,3.5
		L370,141.9z M370,139.6c0.3-0.4,0.4-0.8,0.6-1.3c0.3-1.5,0.4-3,0.3-4.5H370V139.6z M370,145.8v2.2h7.4v-2.2H370z M373.2,128.7v2.5
		h0.9v-2.5H373.2z M377.4,138.4v-4.6h-1v4c0,0.2,0,0.3,0.1,0.5c0.2,0.1,0.4,0.1,0.5,0.1L377.4,138.4z M389.3,148.8
		c0.7-0.1,1.1-0.3,1.2-0.8c0.2-1.7,0.3-3.4,0.4-5.1l3.1,0.3c-0.1,1.4-0.1,2.5-0.2,3.3c-0.1,1-0.2,1.8-0.2,2.2
		c-0.1,0.5-0.2,1-0.4,1.5c-0.1,0.3-0.3,0.6-0.6,0.8c-0.3,0.2-0.5,0.4-0.9,0.4c-0.2,0-0.7,0.1-1.3,0.1c-1,0.1-2.1,0.1-3.3,0.1
		c-1.1,0-2,0-2.9-0.1c-0.3,0-0.7,0-1-0.1c-0.2,0-0.5-0.1-0.7-0.2c-0.2-0.1-0.3-0.2-0.5-0.4c-0.1-0.2-0.2-0.5-0.2-0.7
		c-0.1-0.4-0.1-0.7-0.1-1.1c0-0.1,0-0.3,0-0.7s0-0.6,0-0.9v-12.1h8.2v-6.5h-8.5v-2.8H393v13.9h-3.1v-1.8h-5.2v8.7
		c0,0.6,0,1.1,0.1,1.7c0.1,0.2,0.3,0.3,0.8,0.3l1.7,0.1C387.7,148.9,388.3,148.8,389.3,148.8L389.3,148.8z"/>
	<path class="st3" d="M401.8,133.4v18.8h-3.1V139c-0.6,1.1-1.3,2.1-2.1,3l-1.1-3.6c2.8-4,4.7-8.6,5.6-13.4l3,0.5
		C403.5,128.2,402.8,130.9,401.8,133.4z M403.9,132.9v-2.7H424v2.7H403.9z M408.2,151v1.2h-3.1v-9h17.5v9h-3.2V151H408.2z
		 M405.4,137.2v-2.6h16.9v2.6H405.4z M405.4,141.5v-2.6h16.9v2.5L405.4,141.5z M405.7,128.6v-2.6h16.6v2.6H405.7z M419.3,148.4v-2.7
		h-11.1v2.7H419.3z"/>
</g>
<circle class="st0" cx="600" cy="100" r="99"/>
<path class="st1" d="M625.7,69v5.7c0,13.1-9.8,24.1-22.8,25.5v5.9h11.4c1.6,0,2.8,1.3,2.8,2.9c0,1.6-1.3,2.8-2.8,2.8h-28.6
	c-1.6,0-2.8-1.3-2.8-2.8c0-0.8,0.3-1.5,0.8-2c0.5-0.5,1.2-0.9,2-0.8h11.4v-5.9c-13-1.5-22.8-12.4-22.9-25.5V69
	c0-1.6,1.3-2.8,2.8-2.9c1.6,0,2.8,1.3,2.9,2.9v5.7c0,11,9,20,20,20s20-9,20-20V69c0-1.6,1.3-2.8,2.9-2.9
	C624.4,66.2,625.7,67.4,625.7,69z M614.3,51.8v22.9c0,7.9-6.4,14.3-14.3,14.3c-7.9,0-14.3-6.4-14.3-14.3V51.8
	c0-7.9,6.4-14.3,14.3-14.3C607.9,37.5,614.3,43.9,614.3,51.8z"/>
<g class="st2">
	<path class="st3" d="M523.7,136.4l2.7,1c-1.3,3.6-2.8,7.1-4.4,10.6l-2.6-1.3C520.9,143.2,522.4,139.8,523.7,136.4z M532.9,133.4
		v13.5c0,1.8-0.2,2.9-0.6,3.3s-1.4,0.7-2.9,0.7c-1.5,0-2.9-0.1-4.3-0.4l0.3-2.8c1.1,0.2,2.3,0.3,3.4,0.3c0.6,0,0.9-0.1,1-0.2
		c0.1-0.4,0.2-0.9,0.1-1.4v-13.1h-9.9v-2.9h9.9v-4.8h3v4.8h4.9c-0.4-0.7-0.7-1.6-0.7-2.4c0-1.1,0.4-2.2,1.1-3
		c1.3-1.5,3.5-1.6,4.9-0.4c0.1,0.1,0.3,0.3,0.4,0.4c0.7,0.8,1.1,1.9,1.1,3c0,0.8-0.2,1.7-0.7,2.4c-0.4,0.7-1,1.2-1.8,1.5v1.3H532.9z
		 M535.9,137.4l2.6-1.2c1.6,3.6,3.1,7.2,4.5,10.7l-2.6,1.2C538.9,144.4,537.5,140.8,535.9,137.4L535.9,137.4z M542.1,129.6
		c0.7-0.8,0.7-2,0-2.8c-0.6-0.7-1.6-0.8-2.3-0.2c-0.1,0.1-0.1,0.1-0.2,0.2c-0.7,0.8-0.7,2,0,2.8c0.6,0.7,1.6,0.8,2.3,0.2
		C542,129.7,542,129.6,542.1,129.6z"/>
	<path class="st3" d="M546,133.5l2.6-0.6c0.7,2.5,1.3,5.1,2,8l-2.6,0.6C547.4,138.8,546.7,136.2,546,133.5z M561,132.1l2.7,0.1
		c-0.1,6.1-1.2,10.5-3.3,13.3c-2.1,2.7-5.6,4.4-10.5,5.1l-0.5-2.8c1.9-0.2,3.7-0.7,5.5-1.5c1.4-0.6,2.6-1.6,3.5-2.8
		c1-1.4,1.7-2.9,2-4.6C560.7,136.8,561,134.5,561,132.1L561,132.1z M552,132.7l2.6-0.6c0.6,2.3,1.2,5.1,1.9,8.2l-2.6,0.6
		C553.3,138.3,552.7,135.6,552,132.7L552,132.7z"/>
	<path class="st3" d="M569.1,126.7h3v8.6c5.1,1.4,10,3.1,14.9,5.1l-0.9,3c-4.6-1.9-9.2-3.5-14-4.8v12.8h-3L569.1,126.7z
		 M577.4,128.5l2.4-1.3c0.8,1.6,1.7,3.4,2.6,5.3l-2.4,1.3C579.4,132.2,578.5,130.4,577.4,128.5z M581.6,127.3l2.4-1.4
		c1,1.8,1.9,3.6,2.7,5.4l-2.4,1.3C583.4,130.9,582.5,129.1,581.6,127.3L581.6,127.3z"/>
	<path class="st3" d="M598.5,126l3-0.2l0.4,5l9-0.4l0.1,2.9l-8.9,0.3l0.5,7l9.4-0.4l0.1,2.9l-9.3,0.4l0.6,7.8l-3,0.2l-0.6-7.9
		L590,144l-0.1-2.9l9.8-0.4l-0.5-7l-8.1,0.3l-0.1-2.9l8-0.3L598.5,126z"/>
	<path class="st3" d="M619.3,131.4l2.8-0.5l0.8,4.8l10.7-2.4l0.5,2.8c-0.3,1.7-0.9,3.4-1.7,4.9c-0.8,1.5-1.7,2.8-2.9,4l-2.1-2
		c1.8-1.7,3.1-3.9,3.8-6.2l-7.8,1.7l2,12.1l-2.8,0.5l-2-12l-5,1.1l-0.5-2.8l5-1.1L619.3,131.4z"/>
	<path class="st3" d="M637.5,130.6v-2.9h17v2.9c-1.3,3.4-3.2,6.6-5.5,9.4c2.7,2.8,5.3,5.6,7.8,8.4l-2,2.1c-2.5-3-5.1-5.8-7.7-8.4
		c-3.1,3.2-6.7,6-10.6,8.1l-1.3-2.6c3.7-2,7-4.6,9.9-7.6c2.6-2.7,4.8-5.9,6.3-9.4L637.5,130.6z"/>
	<path class="st3" d="M661.5,126.4h3v8.6c5.1,1.4,10,3.1,14.9,5.1l-0.9,3c-4.6-1.9-9.2-3.5-14-4.8V151h-3L661.5,126.4z"/>
</g>
<circle class="st0" cx="850" cy="100" r="99"/>
<path class="st1" d="M900,61.9c0,0.6-0.4,1.2-1,1.3l-48.6,15.3c-0.3,0.1-0.6,0.1-0.9,0l-28.3-8.9c-1.5,1.3-2.5,3-3.1,4.8
	c-0.9,2.5-1.4,5.1-1.5,7.8c1.7,0.9,2.8,2.8,2.7,4.7c0.1,1.9-0.9,3.7-2.5,4.7l2.5,18.8c0.1,0.4-0.1,0.8-0.3,1.1
	c-0.2,0.3-0.6,0.5-1,0.5h-8.3c-0.4,0-0.8-0.2-1-0.5c-0.3-0.3-0.4-0.7-0.3-1.1l2.5-18.8c-2.6-1.7-3.3-5.1-1.6-7.6
	c0.5-0.8,1.1-1.4,1.9-1.8c0.3-6,1.7-10.8,4.3-14.3L801,63.2c-0.7-0.3-1.1-1.1-0.9-1.8c0.1-0.4,0.5-0.7,0.9-0.9l48.6-15.3
	c0.3-0.1,0.6-0.1,0.9,0L899,60.5C899.6,60.7,900,61.3,900,61.9z M877,76l0.8,13.7c0.1,2-1.1,3.8-3.6,5.6c-3.1,1.9-6.6,3.3-10.2,4
	c-9.2,2-18.8,2-28,0c-3.6-0.7-7.1-2.1-10.2-4c-2.5-1.7-3.7-3.6-3.6-5.6L823,76l24.9,7.8c1.4,0.4,2.8,0.4,4.2,0L877,76z"/>
<g class="st2">
	<path class="st3" d="M783.5,130h9.6v-4.7h3.2v4.7h10v5.2c0,4.7-1.5,8.4-4.4,11s-7.2,4.1-12.8,4.4l-0.4-2.9
		c9.7-0.6,14.5-4.8,14.5-12.6v-2.5h-16.6v7h-3.1V130z"/>
	<path class="st3" d="M812.9,132.7h17.4v2.7h-7.1v11.5h7.9v2.7h-18.9v-2.7h7.9v-11.5h-7.1V132.7z"/>
	<path class="st3" d="M837.3,127.3h3.2v8.7c5.9-1,11.7-2.5,17.3-4.4l0.9,2.9c-5.9,2-12,3.6-18.2,4.6v4.2c0,1.7,0.3,2.9,0.8,3.4
		c0.5,0.5,1.7,0.8,3.4,0.8c5,0,9.5-0.1,13.5-0.4l0.1,2.9c-4.8,0.3-9.4,0.4-13.8,0.4c-2.8,0-4.6-0.5-5.7-1.5s-1.5-2.9-1.5-5.7
		L837.3,127.3z M852.2,126.5l2.4-1.3c1.2,2.1,2.1,3.8,2.7,4.9l-2.4,1.2C853.9,129.6,853,128,852.2,126.5z M856.6,125.4l2.5-1.3
		c1,1.8,1.9,3.5,2.7,5l-2.5,1.2C858.5,128.7,857.6,127.1,856.6,125.4z"/>
	<path class="st3" d="M864.4,131.8h12v-5.8h3.3v5.8h9.9v3h-9.9v0.8c0,4.6-0.9,8.1-2.7,10.4s-4.8,3.9-8.9,4.8l-1.1-2.9
		c3.5-0.7,6-2,7.3-3.8s2-4.6,2-8.5v-0.8h-12L864.4,131.8z"/>
	<path class="st3" d="M892.8,140.2v-3.1h24.6v3.1H892.8z"/>
</g>
</svg>
