<?xml version="1.0" encoding="UTF-8"?>
<svg id="_レイヤー_1" data-name="レイヤー 1" xmlns="http://www.w3.org/2000/svg" viewBox="0 0 467.72 240.94">
  <defs>
    <style>
      .cls-1 {
        stroke-width: .38px;
      }

      .cls-1, .cls-2, .cls-3, .cls-4, .cls-5, .cls-6, .cls-7, .cls-8, .cls-9, .cls-10, .cls-11, .cls-12, .cls-13, .cls-14, .cls-15, .cls-16, .cls-17, .cls-18, .cls-19, .cls-20, .cls-21, .cls-22, .cls-23, .cls-24, .cls-25, .cls-26, .cls-27, .cls-28, .cls-29, .cls-30, .cls-31, .cls-32, .cls-33, .cls-34, .cls-35, .cls-36, .cls-37, .cls-38, .cls-39, .cls-40, .cls-41, .cls-42, .cls-43, .cls-44, .cls-45, .cls-46 {
        fill: none;
      }

      .cls-1, .cls-2, .cls-3, .cls-4, .cls-5, .cls-6, .cls-7, .cls-8, .cls-9, .cls-10, .cls-11, .cls-12, .cls-28, .cls-29, .cls-30, .cls-31, .cls-32, .cls-46 {
        stroke: #dcdddd;
        stroke-linecap: round;
        stroke-linejoin: round;
      }

      .cls-2 {
        stroke-width: .38px;
      }

      .cls-3 {
        stroke-width: .38px;
      }

      .cls-4 {
        stroke-width: .28px;
      }

      .cls-5 {
        stroke-width: .28px;
      }

      .cls-6 {
        stroke-width: .28px;
      }

      .cls-7 {
        stroke-width: .54px;
      }

      .cls-8 {
        stroke-width: .28px;
      }

      .cls-9 {
        stroke-width: .38px;
      }

      .cls-10 {
        stroke-width: .38px;
      }

      .cls-11 {
        stroke-width: .38px;
      }

      .cls-12 {
        stroke-width: .38px;
      }

      .cls-13 {
        stroke-width: .54px;
      }

      .cls-13, .cls-14, .cls-15, .cls-16, .cls-17, .cls-18, .cls-19, .cls-20, .cls-21, .cls-22, .cls-23, .cls-24, .cls-25, .cls-26, .cls-27, .cls-33, .cls-34, .cls-35, .cls-36, .cls-37, .cls-38, .cls-39, .cls-40, .cls-41, .cls-42, .cls-43, .cls-44, .cls-45 {
        stroke-miterlimit: 22.93;
      }

      .cls-13, .cls-14, .cls-15, .cls-16, .cls-17, .cls-18, .cls-19, .cls-20, .cls-21, .cls-22, .cls-23, .cls-24, .cls-25, .cls-27, .cls-33, .cls-34, .cls-35, .cls-36, .cls-37, .cls-38, .cls-39, .cls-40, .cls-41, .cls-42, .cls-43, .cls-44, .cls-45 {
        stroke: #dab96b;
      }

      .cls-14 {
        stroke-width: .54px;
      }

      .cls-15 {
        stroke-width: .54px;
      }

      .cls-16 {
        stroke-width: .54px;
      }

      .cls-17 {
        stroke-width: .54px;
      }

      .cls-18 {
        stroke-width: .54px;
      }

      .cls-19 {
        stroke-width: .54px;
      }

      .cls-20 {
        stroke-width: .54px;
      }

      .cls-21 {
        stroke-width: .54px;
      }

      .cls-22 {
        stroke-width: .54px;
      }

      .cls-23 {
        stroke-width: .54px;
      }

      .cls-24 {
        stroke-width: .54px;
      }

      .cls-25 {
        stroke-width: .54px;
      }

      .cls-26 {
        stroke: #8b8b8c;
      }

      .cls-26, .cls-27 {
        stroke-width: .99px;
      }

      .cls-28 {
        stroke-width: .59px;
      }

      .cls-29 {
        stroke-width: .59px;
      }

      .cls-30 {
        stroke-width: .28px;
      }

      .cls-31 {
        stroke-width: .58px;
      }

      .cls-47 {
        fill: #5f5d5d;
      }

      .cls-47, .cls-48 {
        fill-rule: evenodd;
      }

      .cls-47, .cls-48, .cls-49, .cls-50, .cls-51, .cls-52 {
        stroke-width: 0px;
      }

      .cls-48, .cls-50 {
        fill: #dcdddd;
      }

      .cls-32 {
        stroke-width: .17px;
      }

      .cls-33 {
        stroke-width: .19px;
      }

      .cls-34 {
        stroke-width: .19px;
      }

      .cls-35 {
        stroke-width: .19px;
      }

      .cls-36 {
        stroke-width: .19px;
      }

      .cls-37 {
        stroke-width: .19px;
      }

      .cls-38 {
        stroke-width: .19px;
      }

      .cls-39 {
        stroke-width: .19px;
      }

      .cls-40 {
        stroke-width: .19px;
      }

      .cls-41 {
        stroke-width: .19px;
      }

      .cls-42 {
        stroke-width: .19px;
      }

      .cls-43 {
        stroke-width: .19px;
      }

      .cls-44 {
        stroke-width: .19px;
      }

      .cls-45 {
        stroke-width: .19px;
      }

      .cls-49 {
        fill: #272a2e;
      }

      .cls-51 {
        fill: #dab96b;
      }

      .cls-52 {
        fill: #8b8b8c;
      }

      .cls-46 {
        stroke-width: .22px;
      }
    </style>
  </defs>
  <rect class="cls-49" x="0" width="467.72" height="240.94"/>
  <line class="cls-18" x1="26.09" y1="25.99" x2="27.01" y2="25.26"/>
  <line class="cls-18" x1="25.16" y1="26.73" x2="26.09" y2="25.99"/>
  <path class="cls-13" d="M18.09,32.49c-3.05-3.75-4.61-7.53-3.49-8.44,1.12-.91,4.5,1.39,7.55,5.14,3.05,3.75,4.61,7.53,3.49,8.44-1.12.91-4.5-1.39-7.55-5.14Z"/>
  <path class="cls-21" d="M17.34,33.09c-2.5-3.08-3.78-6.18-2.86-6.93.92-.75,3.7,1.14,6.2,4.22,2.5,3.08,3.78,6.18,2.86,6.93-.92.75-3.7-1.14-6.2-4.22Z"/>
  <path class="cls-16" d="M16.87,33.48c-1.76-2.16-2.66-4.35-2.01-4.87.65-.53,2.6.8,4.36,2.97,1.76,2.16,2.66,4.35,2.01,4.87-.65.53-2.6-.8-4.36-2.97Z"/>
  <path class="cls-17" d="M16.54,33.75c-.85-1.04-1.28-2.09-.97-2.34.31-.25,1.25.39,2.1,1.43.85,1.04,1.28,2.09.97,2.34-.31.25-1.25-.38-2.1-1.43Z"/>
  <path class="cls-23" d="M19.02,31.72c-3.44-4.23-5.2-8.49-3.93-9.52,1.27-1.03,5.08,1.56,8.51,5.79,3.44,4.23,5.2,8.49,3.93,9.52-1.27,1.03-5.08-1.56-8.51-5.79Z"/>
  <path class="cls-14" d="M20.3,30.69c-3.65-4.49-5.52-9.02-4.18-10.11,1.34-1.09,5.39,1.66,9.04,6.15,3.65,4.49,5.52,9.02,4.18,10.11-1.34,1.09-5.39-1.66-9.04-6.15Z"/>
  <path class="cls-20" d="M34.4,19.92c-2.83-3.91-6.08-6.4-7.25-5.55-1.17.85.17,4.71,3.01,8.62,2.83,3.91,6.08,6.4,7.25,5.55,1.17-.85-.17-4.71-3.01-8.62Z"/>
  <path class="cls-22" d="M35.19,19.34c-2.33-3.21-4.99-5.26-5.95-4.56-.96.7.14,3.87,2.47,7.08,2.33,3.21,4.99,5.26,5.95,4.56.96-.7-.14-3.87-2.47-7.08Z"/>
  <path class="cls-24" d="M35.7,18.99c-1.63-2.26-3.51-3.69-4.19-3.21-.68.49.1,2.72,1.74,4.98,1.63,2.26,3.51,3.69,4.18,3.21.68-.49-.1-2.72-1.74-4.98Z"/>
  <path class="cls-19" d="M36.05,18.73c-.79-1.09-1.69-1.78-2.01-1.54-.33.24.05,1.31.83,2.39.79,1.09,1.69,1.78,2.01,1.54.33-.24-.05-1.31-.83-2.39Z"/>
  <path class="cls-15" d="M33.44,20.62c-3.19-4.41-6.85-7.22-8.17-6.26-1.32.96.2,5.31,3.39,9.72,3.19,4.41,6.85,7.22,8.17,6.26,1.32-.96-.2-5.31-3.39-9.72Z"/>
  <path class="cls-25" d="M32.09,21.58c-3.39-4.69-7.28-7.67-8.69-6.65-1.4,1.02.21,5.64,3.6,10.33,3.39,4.69,7.28,7.67,8.69,6.65,1.4-1.02-.21-5.64-3.6-10.33Z"/>
  <path class="cls-50" d="M52.88,31.26h1.06l-2.31-8.57h0c-.08-.3-.19-.56-.35-.78-.16-.23-.36-.44-.61-.62-.26-.19-.53-.33-.82-.42-.28-.09-.58-.13-.9-.13s-.64.05-.91.13c-.28.09-.55.23-.81.42-.25.18-.45.39-.61.61-.16.23-.28.49-.35.78h0s-2.31,8.58-2.31,8.58h1.06l.25-.92.26-.97h6.85l.26.97.25.92ZM50.6,22.77l1.15,4.28.44,1.64h-6.48l.44-1.64,1.15-4.28h0c.09-.35.25-.65.48-.88.32-.32.71-.49,1.17-.49s.84.16,1.16.49c.22.22.38.51.48.86v.02ZM73.42,31.26h1.04v-8.53c0-.28-.06-.52-.17-.73-.12-.23-.32-.45-.61-.66h0c-.28-.21-.58-.36-.88-.46-.31-.1-.66-.15-1.03-.15-.34,0-.65.05-.94.14-.29.09-.56.24-.82.43-.26.19-.47.41-.62.64-.15.23-.25.48-.3.76l-.67,3.64h0c-.17.89-.7,1.33-1.59,1.33s-1.42-.44-1.59-1.33l-.67-3.64c-.05-.28-.15-.53-.3-.76-.15-.23-.36-.45-.62-.64-.51-.38-1.1-.57-1.76-.57-.38,0-.72.05-1.03.15-.31.1-.6.25-.88.46h0c-.51.39-.77.85-.77,1.39v8.53h1.04v-8.43c0-.48.17-.87.52-1.18h0c.3-.27.66-.41,1.1-.41s.81.14,1.12.42h0c.29.27.47.61.53,1.01h0s.7,3.71.7,3.71h0c.06.31.16.58.31.81h0c.14.23.34.42.58.59h0c.24.18.5.31.78.39.28.09.6.13.95.13s.67-.04.95-.13c.28-.09.54-.21.78-.38h0c.25-.18.44-.38.58-.6.15-.23.25-.5.31-.81l.69-3.76v-.02c.09-.4.27-.72.55-.97.31-.27.68-.4,1.1-.4,1.08,0,1.61.53,1.61,1.58v8.43ZM88.99,25.56c.13-.31.2-.65.2-1.04v-.79c0-.39-.07-.74-.2-1.05-.14-.31-.35-.61-.64-.88h0c-.3-.27-.61-.48-.95-.61-.33-.13-.71-.2-1.12-.2h-6.26v10.26h1.04v-4h5.22c.41,0,.78-.07,1.12-.2h0c.34-.14.66-.35.96-.63.29-.27.5-.56.64-.87ZM88.15,23.72v.79c0,.21-.04.43-.11.66h0c-.07.21-.16.41-.27.58h0c-.16.24-.36.44-.6.58-.28.17-.58.25-.9.25h-5.22v-4.9h5.22c.31,0,.61.08.88.24.23.14.43.32.6.57h0c.26.38.4.8.4,1.24ZM97.66,31.26h5.23v-.68h-5.25c-.32,0-.62-.09-.9-.26-.24-.15-.44-.35-.6-.6-.11-.18-.19-.36-.25-.55-.07-.21-.1-.42-.1-.64v-2.06h7.11v-.68h-7.11v-2.06c0-.21.03-.42.1-.64.06-.2.15-.39.26-.57h0c.16-.26.36-.45.61-.6h0c.28-.16.57-.24.88-.24h5.25v-.68h-5.23c-.41,0-.79.07-1.12.2-.34.13-.65.33-.95.61h0c-.29.28-.5.57-.64.88-.14.31-.2.66-.2,1.05v4.79c0,.39.07.74.2,1.04.14.31.35.6.64.87.59.55,1.28.82,2.08.82ZM116.7,31.26h.84l-.62-1.46h0c-.1-.24-.22-.49-.34-.74-.12-.23-.25-.45-.38-.68l-.63-1.02.96-.71c.38-.28.67-.6.85-.96.17-.34.26-.74.26-1.19v-.79c0-.39-.07-.74-.2-1.05-.14-.31-.35-.61-.64-.88h0c-.3-.27-.61-.48-.95-.61-.33-.13-.71-.2-1.12-.2h-6.26v10.26h1.04v-9.58h5.22c.32,0,.61.08.88.23h0c.25.15.46.35.63.6h0c.12.18.21.37.27.57h0c.07.22.1.43.1.65v.79c0,.2-.03.42-.1.64-.06.21-.15.4-.26.57h0c-.16.26-.37.46-.62.61-.28.16-.57.24-.9.24h-1.44v.68h.39c.5,0,.94.18,1.32.54.26.24.48.58.66.99h0s1.06,2.47,1.06,2.47ZM132.26,29.56c.13-.31.2-.65.2-1.04v-4.79c0-.39-.07-.74-.2-1.05-.14-.31-.35-.61-.64-.88h0c-.3-.27-.61-.48-.95-.61-.33-.13-.71-.2-1.12-.2h-3.35c-.41,0-.79.07-1.12.2-.33.13-.65.33-.95.61h0c-.29.28-.5.57-.64.88-.14.31-.2.66-.2,1.05v4.79c0,.39.07.74.2,1.04.14.31.35.6.64.87.59.55,1.28.82,2.08.82h3.35c.41,0,.78-.07,1.12-.2h0c.34-.14.67-.35.96-.63.29-.27.5-.56.64-.87ZM131.42,23.72v4.82c0,.21-.03.42-.1.63-.06.19-.14.36-.25.53h0c-.37.59-.87.88-1.53.88h-3.36c-.32,0-.62-.09-.9-.26h0c-.25-.15-.45-.35-.6-.6h0c-.11-.19-.2-.37-.25-.55h0c-.07-.22-.1-.43-.1-.64v-4.82c0-.21.03-.42.1-.64h0c.06-.2.15-.39.26-.57h0c.36-.56.87-.84,1.49-.84h3.36c.31,0,.61.08.88.23h0c.26.15.47.35.63.6h0c.12.19.2.38.26.57h0c.07.22.1.43.1.64Z"/>
  <path class="cls-50" d="M147.33,19.33h4.08l-.12.46h-1.45l-3.34,12.46h1.46l-.11.4h-4.08l.11-.4h.97l3.34-12.46h-.97l.12-.46ZM147.47,18.79h0c-.3,0-.61.24-.69.54l-.12.43v.04c-.09.3.09.55.39.55h.42l-3.04,11.36h-.42c-.3,0-.61.24-.69.55l-.11.4h0,0c-.08.31.1.55.4.55h4.08c.3,0,.61-.24.69-.55l.11-.4h0,0c.08-.31-.1-.55-.41-.55h-.9l3.04-11.36h.91c.3,0,.61-.24.69-.55l.12-.46h0c.08-.31-.1-.55-.41-.55h-4.08Z"/>
  <path class="cls-50" d="M138.97,32.66l.11-.4h1.46l3.34-12.46h-1.46l.12-.46h4.08l-.12.46h-.96l-3.34,12.46h.96l-.11.4h-4.08ZM138.44,32.62v.04c-.09.3.09.55.39.55h4.07c.3,0,.61-.24.69-.55l.11-.4h0,0c.08-.31-.1-.55-.4-.55h-.41l3.04-11.36h.42c.3,0,.61-.24.69-.54l.11-.43v-.04c.09-.3-.09-.55-.39-.55h-4.07c-.3,0-.61.24-.69.55l-.12.46h0,0c-.08.31.1.55.41.55h.9l-3.04,11.36h-.91c-.3,0-.61.24-.69.54l-.1.36Z"/>
  <path class="cls-50" d="M166.91,25.42c.14-.31.2-.65.2-1.04v-.79c0-.38-.07-.73-.2-1.04-.14-.31-.35-.61-.64-.88-.59-.55-1.29-.82-2.09-.82h-6.26v10.26h1.04v-9.58h5.24c.31,0,.6.08.88.24.24.14.44.33.6.56v.02c.27.39.4.8.4,1.24v.8c0,.22-.04.44-.11.66-.06.2-.16.39-.29.58-.17.25-.37.44-.6.57h0c-.27.16-.57.24-.88.24h-1.45v.68h1.44c.8,0,1.5-.27,2.09-.82.29-.27.5-.56.64-.88M180.94,31.13h.83l-.61-1.46h0c-.11-.25-.23-.51-.36-.76-.13-.25-.25-.45-.35-.62l-.66-1.02.97-.73c.39-.29.67-.61.85-.97.18-.34.26-.74.26-1.2v-.79c0-.39-.07-.74-.2-1.04-.14-.31-.35-.6-.64-.87-.59-.55-1.28-.82-2.08-.82h-6.28v10.26h1.04v-4h4.19c.5,0,.94.18,1.32.54.26.24.48.58.66.99h0s1.06,2.47,1.06,2.47ZM180.83,23.59v.8c0,.21-.03.42-.1.64h0c-.06.21-.15.4-.26.57h-.01c-.16.26-.36.46-.6.6-.27.16-.57.24-.89.24h-5.25v-4.9h5.25c.32,0,.61.08.89.24.24.14.44.34.6.58v.02c.13.18.21.37.27.57h0c.07.22.1.44.1.64ZM190.57,31.13h5.23v-.68h-5.25c-.32,0-.62-.09-.9-.26-.24-.15-.44-.35-.6-.6-.11-.18-.19-.36-.25-.55-.07-.21-.1-.42-.1-.64v-2.06h7.11v-.68h-7.11v-2.06c0-.21.03-.42.1-.64.06-.2.15-.39.26-.57h0c.16-.26.36-.45.61-.6h0c.28-.16.57-.24.88-.24h5.25v-.68h-5.23c-.41,0-.79.07-1.12.2-.34.13-.65.33-.95.61h0c-.29.28-.5.57-.64.88-.14.31-.2.66-.2,1.05v4.79c0,.39.07.74.2,1.04.14.31.35.6.64.87.59.55,1.28.82,2.08.82ZM210.33,29.43c.13-.31.2-.65.2-1.04s-.07-.73-.2-1.03c-.14-.31-.35-.61-.64-.88-.29-.27-.61-.48-.95-.62-.34-.14-.72-.2-1.14-.2h-3.36c-.3,0-.58-.08-.85-.23-.22-.13-.41-.3-.58-.53h0c-.28-.38-.42-.82-.42-1.31,0-.21.03-.42.1-.64.06-.2.15-.39.26-.57h0c.16-.26.36-.45.61-.6h0c.28-.16.57-.24.88-.24h5.28v-.68h-5.26c-.41,0-.79.07-1.12.2-.34.13-.65.33-.95.61h0c-.29.28-.5.57-.64.88-.14.31-.2.66-.2,1.05s.07.73.2,1.03h0c.14.31.35.61.64.88.29.27.61.48.95.62.34.14.72.2,1.14.2h3.36c.3,0,.59.08.85.23.22.13.42.3.58.53h0c.28.38.42.82.42,1.31,0,.21-.03.42-.1.63-.06.18-.14.36-.25.53h0c-.16.25-.35.46-.59.61h0c-.29.19-.59.28-.93.28h-5.7v.68h5.69c.41,0,.78-.07,1.12-.2h0c.34-.14.67-.35.96-.63.29-.27.5-.56.64-.87ZM224.56,29.43c.13-.31.2-.65.2-1.04s-.07-.73-.2-1.03c-.14-.31-.35-.61-.64-.88-.29-.27-.61-.48-.95-.62-.34-.14-.72-.2-1.14-.2h-3.36c-.3,0-.58-.08-.85-.23-.22-.13-.41-.3-.58-.53h0c-.28-.38-.42-.82-.42-1.31,0-.21.03-.42.1-.64.06-.2.15-.39.26-.57h0c.16-.26.36-.45.61-.6h0c.28-.16.57-.24.88-.24h5.28v-.68h-5.26c-.41,0-.79.07-1.12.2-.34.13-.65.33-.95.61h0c-.29.28-.5.57-.64.88-.14.31-.2.66-.2,1.05s.07.73.2,1.03h0c.14.31.35.61.64.88.29.27.61.48.95.62.34.14.72.2,1.14.2h3.36c.3,0,.59.08.85.23.22.13.42.3.58.53h0c.28.38.42.82.42,1.31,0,.21-.03.42-.1.63-.06.18-.14.36-.25.53h0c-.16.25-.35.46-.59.61h0c-.28.19-.59.28-.93.28h-5.71v.68h5.69c.41,0,.78-.07,1.12-.2h0c.34-.14.66-.35.96-.63.29-.27.5-.56.64-.87Z"/>
  <path class="cls-47" d="M382.39,103.79h35.68c1.56,0,2.83,1.28,2.83,2.83v24.5c0,1.56-1.28,2.84-2.83,2.84h-35.68c-1.56,0-2.83-1.28-2.83-2.84v-24.5c0-1.56,1.28-2.83,2.83-2.83"/>
  <line class="cls-3" x1="421.44" y1="82.43" x2="413.44" y2="82.43"/>
  <line class="cls-3" x1="364.56" y1="82.43" x2="356.56" y2="82.43"/>
  <line class="cls-3" x1="430.15" y1="83.85" x2="450.95" y2="83.85"/>
  <line class="cls-3" x1="356.11" y1="87.32" x2="365" y2="87.32"/>
  <line class="cls-3" x1="413" y1="87.32" x2="421.89" y2="87.32"/>
  <line class="cls-3" x1="355.67" y1="91.94" x2="365.45" y2="91.94"/>
  <line class="cls-3" x1="412.56" y1="91.94" x2="422.33" y2="91.94"/>
  <line class="cls-3" x1="354.38" y1="92.43" x2="359.67" y2="92.43"/>
  <line class="cls-3" x1="361.45" y1="92.43" x2="366.73" y2="92.43"/>
  <line class="cls-3" x1="411.27" y1="92.43" x2="416.55" y2="92.43"/>
  <line class="cls-3" x1="418.33" y1="92.43" x2="423.62" y2="92.43"/>
  <line class="cls-3" x1="418.33" y1="92.53" x2="423.91" y2="92.53"/>
  <line class="cls-3" x1="352.77" y1="93.63" x2="359.67" y2="93.63"/>
  <line class="cls-3" x1="361.45" y1="93.63" x2="368.35" y2="93.63"/>
  <line class="cls-3" x1="409.65" y1="93.63" x2="416.55" y2="93.63"/>
  <line class="cls-3" x1="418.33" y1="93.63" x2="425.23" y2="93.63"/>
  <line class="cls-3" x1="359.67" y1="93.76" x2="361.45" y2="93.76"/>
  <line class="cls-3" x1="416.55" y1="93.76" x2="418.33" y2="93.76"/>
  <line class="cls-3" x1="350.51" y1="94.88" x2="370.6" y2="94.88"/>
  <line class="cls-3" x1="407.4" y1="94.88" x2="427.49" y2="94.88"/>
  <line class="cls-3" x1="429.44" y1="94.96" x2="451.66" y2="94.96"/>
  <line class="cls-3" x1="435.22" y1="95.76" x2="445.89" y2="95.76"/>
  <line class="cls-3" x1="340.56" y1="96.21" x2="453.54" y2="96.21"/>
  <line class="cls-3" x1="450.16" y1="123.98" x2="445.22" y2="126.84"/>
  <line class="cls-3" x1="450.95" y1="83.85" x2="451.66" y2="84.56"/>
  <line class="cls-3" x1="433.72" y1="123.98" x2="428.78" y2="126.84"/>
  <line class="cls-3" x1="439.83" y1="117.5" x2="444.78" y2="114.65"/>
  <line class="cls-3" x1="423.39" y1="117.5" x2="428.33" y2="114.65"/>
  <line class="cls-3" x1="445.22" y1="114.65" x2="450.16" y2="117.5"/>
  <line class="cls-3" x1="451.66" y1="94.96" x2="451.66" y2="84.56"/>
  <line class="cls-3" x1="450.39" y1="117.89" x2="450.39" y2="123.6"/>
  <line class="cls-3" x1="445.89" y1="96.21" x2="445.89" y2="95.76"/>
  <line class="cls-3" x1="343.12" y1="136.28" x2="453.54" y2="136.28"/>
  <line class="cls-3" x1="428.78" y1="114.65" x2="433.72" y2="117.5"/>
  <line class="cls-3" x1="422.33" y1="91.94" x2="422.78" y2="92.39"/>
  <line class="cls-3" x1="443.67" y1="95.76" x2="443.67" y2="94.96"/>
  <line class="cls-3" x1="439.61" y1="123.6" x2="439.61" y2="117.89"/>
  <line class="cls-3" x1="437.44" y1="95.76" x2="437.44" y2="94.96"/>
  <line class="cls-3" x1="444.78" y1="126.84" x2="439.83" y2="123.98"/>
  <line class="cls-3" x1="428.33" y1="126.84" x2="423.39" y2="123.98"/>
  <line class="cls-3" x1="435.22" y1="96.21" x2="435.22" y2="95.76"/>
  <line class="cls-3" x1="433.94" y1="117.89" x2="433.94" y2="123.6"/>
  <line class="cls-3" x1="429.44" y1="94.96" x2="429.44" y2="84.56"/>
  <line class="cls-3" x1="427.67" y1="96.21" x2="427.67" y2="95.05"/>
  <line class="cls-3" x1="425.44" y1="94.88" x2="425.44" y2="93.76"/>
  <line class="cls-3" x1="423.17" y1="123.6" x2="423.17" y2="117.89"/>
  <line class="cls-3" x1="422.78" y1="92.43" x2="422.78" y2="92.39"/>
  <line class="cls-3" x1="421.89" y1="82.88" x2="421.89" y2="87.32"/>
  <line class="cls-3" x1="421" y1="91.94" x2="421" y2="87.32"/>
  <line class="cls-3" x1="430.15" y1="83.85" x2="429.44" y2="84.56"/>
  <line class="cls-3" x1="418.29" y1="93.76" x2="418.29" y2="91.94"/>
  <line class="cls-3" x1="416.6" y1="93.76" x2="416.6" y2="91.94"/>
  <line class="cls-3" x1="413.89" y1="91.94" x2="413.89" y2="87.32"/>
  <line class="cls-3" x1="413" y1="87.32" x2="413" y2="82.88"/>
  <line class="cls-3" x1="412.11" y1="92.43" x2="412.11" y2="92.39"/>
  <line class="cls-3" x1="409.44" y1="94.88" x2="409.44" y2="93.76"/>
  <line class="cls-3" x1="412.56" y1="91.94" x2="412.11" y2="92.39"/>
  <line class="cls-3" x1="365.45" y1="91.94" x2="365.89" y2="92.39"/>
  <line class="cls-3" x1="407.22" y1="96.21" x2="407.22" y2="95.05"/>
  <line class="cls-3" x1="355.67" y1="91.94" x2="355.22" y2="92.39"/>
  <line class="cls-3" x1="370.78" y1="96.21" x2="370.78" y2="95.05"/>
  <line class="cls-3" x1="368.56" y1="94.88" x2="368.56" y2="93.76"/>
  <line class="cls-3" x1="365" y1="82.88" x2="365" y2="87.32"/>
  <line class="cls-3" x1="364.11" y1="91.94" x2="364.11" y2="87.32"/>
  <line class="cls-3" x1="361.4" y1="93.76" x2="361.4" y2="91.94"/>
  <line class="cls-3" x1="359.71" y1="93.76" x2="359.71" y2="91.94"/>
  <line class="cls-3" x1="357" y1="91.94" x2="357" y2="87.32"/>
  <line class="cls-3" x1="356.11" y1="87.32" x2="356.11" y2="82.88"/>
  <line class="cls-3" x1="352.56" y1="94.88" x2="352.56" y2="93.76"/>
  <line class="cls-3" x1="350.33" y1="96.21" x2="350.33" y2="95.05"/>
  <line class="cls-3" x1="340.56" y1="133.66" x2="340.56" y2="96.21"/>
  <path class="cls-3" d="M423.91,92.53c-.08-.07-.18-.1-.29-.1"/>
  <path class="cls-3" d="M411.27,92.43c-.1,0-.21.04-.29.1"/>
  <path class="cls-3" d="M413.44,82.43c-.24,0-.44.2-.44.44"/>
  <path class="cls-3" d="M421.89,82.88c0-.12-.05-.23-.13-.31-.08-.08-.2-.13-.31-.13"/>
  <path class="cls-3" d="M427.67,95.05s-.02-.09-.05-.13c-.03-.03-.08-.05-.13-.05"/>
  <path class="cls-3" d="M367.02,92.53c-.08-.07-.18-.1-.29-.1"/>
  <path class="cls-3" d="M354.38,92.43c-.1,0-.21.04-.29.1"/>
  <path class="cls-3" d="M356.56,82.43c-.25,0-.44.2-.44.44"/>
  <path class="cls-3" d="M365,82.88c0-.12-.05-.23-.13-.31-.08-.08-.2-.13-.31-.13"/>
  <path class="cls-3" d="M347.41,136.39c.17,0,.35,0,.52,0"/>
  <path class="cls-3" d="M347.32,136.39s.05,0,.08,0"/>
  <path class="cls-3" d="M347.93,136.39s.05,0,.08,0"/>
  <path class="cls-3" d="M346.73,136.38c.2,0,.4,0,.59.01"/>
  <path class="cls-3" d="M348.01,136.39c.2,0,.4,0,.59-.01"/>
  <path class="cls-3" d="M407.4,94.88c-.1,0-.18.08-.18.18"/>
  <path class="cls-3" d="M370.78,95.05s-.02-.09-.05-.13c-.03-.03-.08-.05-.13-.05"/>
  <path class="cls-3" d="M350.51,94.88c-.1,0-.18.08-.18.18"/>
  <path class="cls-3" d="M445.22,114.65c-.14-.08-.31-.08-.44,0"/>
  <path class="cls-3" d="M450.39,117.89c0-.16-.08-.31-.22-.39"/>
  <path class="cls-3" d="M438.78,120.74c0,3.44,2.79,6.22,6.22,6.22s6.22-2.79,6.22-6.22-2.79-6.22-6.22-6.22-6.22,2.79-6.22,6.22Z"/>
  <path class="cls-3" d="M440.64,120.74c0,2.41,1.95,4.36,4.36,4.36s4.36-1.95,4.36-4.36-1.95-4.36-4.36-4.36-4.36,1.95-4.36,4.36Z"/>
  <path class="cls-3" d="M440.69,120.74c0,2.38,1.93,4.31,4.31,4.31s4.31-1.93,4.31-4.31-1.93-4.31-4.31-4.31-4.31,1.93-4.31,4.31Z"/>
  <path class="cls-3" d="M440.78,120.74c0,2.33,1.89,4.22,4.22,4.22s4.22-1.89,4.22-4.22-1.89-4.22-4.22-4.22-4.22,1.89-4.22,4.22Z"/>
  <path class="cls-3" d="M442.11,120.74c0,1.6,1.29,2.89,2.89,2.89s2.89-1.29,2.89-2.89-1.29-2.89-2.89-2.89-2.89,1.29-2.89,2.89Z"/>
  <path class="cls-3" d="M428.78,114.65c-.14-.08-.31-.08-.44,0"/>
  <path class="cls-3" d="M423.39,117.5c-.14.08-.22.23-.22.39"/>
  <path class="cls-3" d="M433.94,117.89c0-.16-.08-.31-.22-.39"/>
  <path class="cls-3" d="M439.83,117.5c-.14.08-.22.23-.22.39"/>
  <path class="cls-3" d="M422.33,120.74c0,3.44,2.79,6.22,6.22,6.22s6.22-2.79,6.22-6.22-2.79-6.22-6.22-6.22-6.22,2.79-6.22,6.22Z"/>
  <path class="cls-3" d="M424.2,120.74c0,2.41,1.95,4.36,4.36,4.36s4.36-1.95,4.36-4.36-1.95-4.36-4.36-4.36-4.36,1.95-4.36,4.36Z"/>
  <path class="cls-3" d="M424.24,120.74c0,2.38,1.93,4.31,4.31,4.31s4.31-1.93,4.31-4.31-1.93-4.31-4.31-4.31-4.31,1.93-4.31,4.31Z"/>
  <path class="cls-3" d="M424.33,120.74c0,2.33,1.89,4.22,4.22,4.22s4.22-1.89,4.22-4.22-1.89-4.22-4.22-4.22-4.22,1.89-4.22,4.22Z"/>
  <path class="cls-3" d="M425.67,120.74c0,1.6,1.29,2.89,2.89,2.89s2.89-1.29,2.89-2.89-1.29-2.89-2.89-2.89-2.89,1.29-2.89,2.89Z"/>
  <path class="cls-3" d="M444.78,126.84c.14.08.31.08.44,0"/>
  <path class="cls-3" d="M450.16,123.98c.14-.08.22-.23.22-.39"/>
  <path class="cls-3" d="M423.17,123.6c0,.16.08.31.22.39"/>
  <path class="cls-3" d="M428.33,126.84c.14.08.31.08.44,0"/>
  <path class="cls-3" d="M433.72,123.98c.14-.08.22-.23.22-.39"/>
  <path class="cls-3" d="M439.61,123.6c0,.16.08.31.22.39"/>
  <line class="cls-3" x1="376.39" y1="123.98" x2="371.45" y2="126.84"/>
  <line class="cls-3" x1="366.06" y1="117.5" x2="371" y2="114.65"/>
  <line class="cls-3" x1="371.45" y1="114.65" x2="376.39" y2="117.5"/>
  <line class="cls-3" x1="371" y1="126.84" x2="366.06" y2="123.98"/>
  <line class="cls-3" x1="376.61" y1="117.89" x2="376.61" y2="123.6"/>
  <line class="cls-3" x1="365.83" y1="123.6" x2="365.83" y2="117.89"/>
  <path class="cls-3" d="M371.45,114.65c-.14-.08-.31-.08-.44,0"/>
  <path class="cls-3" d="M365,120.74c0,3.44,2.79,6.22,6.22,6.22s6.22-2.79,6.22-6.22-2.79-6.22-6.22-6.22-6.22,2.79-6.22,6.22Z"/>
  <path class="cls-3" d="M366.87,120.74c0,2.41,1.95,4.36,4.36,4.36s4.36-1.95,4.36-4.36-1.95-4.36-4.36-4.36-4.36,1.95-4.36,4.36Z"/>
  <path class="cls-3" d="M366.91,120.74c0,2.38,1.93,4.31,4.31,4.31s4.31-1.93,4.31-4.31-1.93-4.31-4.31-4.31-4.31,1.93-4.31,4.31Z"/>
  <path class="cls-3" d="M367,120.74c0,2.33,1.89,4.22,4.22,4.22s4.22-1.89,4.22-4.22-1.89-4.22-4.22-4.22-4.22,1.89-4.22,4.22Z"/>
  <path class="cls-3" d="M368.33,120.74c0,1.6,1.29,2.89,2.89,2.89s2.89-1.29,2.89-2.89-1.29-2.89-2.89-2.89-2.89,1.29-2.89,2.89Z"/>
  <path class="cls-3" d="M366.06,117.5c-.14.08-.22.23-.22.39"/>
  <path class="cls-3" d="M376.61,117.89c0-.16-.08-.31-.22-.39"/>
  <path class="cls-3" d="M365.83,123.6c0,.16.08.31.22.39"/>
  <path class="cls-3" d="M371,126.84c.14.08.31.08.44,0"/>
  <path class="cls-3" d="M376.39,123.98c.14-.08.22-.23.22-.39"/>
  <line class="cls-3" x1="359.95" y1="123.98" x2="355" y2="126.84"/>
  <line class="cls-3" x1="349.61" y1="117.5" x2="354.56" y2="114.65"/>
  <line class="cls-3" x1="355" y1="114.65" x2="359.95" y2="117.5"/>
  <line class="cls-3" x1="354.56" y1="126.84" x2="349.61" y2="123.98"/>
  <line class="cls-3" x1="360.17" y1="117.89" x2="360.17" y2="123.6"/>
  <line class="cls-3" x1="349.39" y1="123.6" x2="349.39" y2="117.89"/>
  <path class="cls-3" d="M355,114.65c-.14-.08-.31-.08-.44,0"/>
  <path class="cls-3" d="M348.56,120.74c0,3.44,2.79,6.22,6.22,6.22s6.22-2.79,6.22-6.22-2.79-6.22-6.22-6.22-6.22,2.79-6.22,6.22Z"/>
  <path class="cls-3" d="M350.42,120.74c0,2.41,1.95,4.36,4.36,4.36s4.36-1.95,4.36-4.36-1.95-4.36-4.36-4.36-4.36,1.95-4.36,4.36Z"/>
  <path class="cls-3" d="M350.47,120.74c0,2.38,1.93,4.31,4.31,4.31s4.31-1.93,4.31-4.31-1.93-4.31-4.31-4.31-4.31,1.93-4.31,4.31Z"/>
  <path class="cls-3" d="M350.56,120.74c0,2.33,1.89,4.22,4.22,4.22s4.22-1.89,4.22-4.22-1.89-4.22-4.22-4.22-4.22,1.89-4.22,4.22Z"/>
  <path class="cls-3" d="M351.89,120.74c0,1.6,1.29,2.89,2.89,2.89s2.89-1.29,2.89-2.89-1.29-2.89-2.89-2.89-2.89,1.29-2.89,2.89Z"/>
  <path class="cls-3" d="M349.61,117.5c-.14.08-.22.23-.22.39"/>
  <path class="cls-3" d="M360.17,117.89c0-.16-.08-.31-.22-.39"/>
  <path class="cls-3" d="M349.39,123.6c0,.16.08.31.22.39"/>
  <path class="cls-3" d="M354.56,126.84c.14.08.31.08.44,0"/>
  <path class="cls-3" d="M359.95,123.98c.14-.08.22-.23.22-.39"/>
  <line class="cls-3" x1="368.56" y1="93.76" x2="367.02" y2="92.53"/>
  <line class="cls-3" x1="354.09" y1="92.53" x2="352.56" y2="93.76"/>
  <line class="cls-3" x1="425.44" y1="93.76" x2="423.91" y2="92.53"/>
  <line class="cls-3" x1="410.98" y1="92.53" x2="409.44" y2="93.76"/>
  <path class="cls-3" d="M350.73,136.3c-.08.13-.26.17-.41.2-.1.02-.19.03-.28.04-.12.01-.24.02-.36.03-.15.01-.29.02-.43.03-.16,0-.33.02-.49.02-.18,0-.35,0-.53.01-.18,0-.37,0-.55,0s-.37,0-.55,0c-.18,0-.35,0-.53-.01-.16,0-.33-.01-.49-.02-.14,0-.29-.02-.43-.03-.12,0-.24-.02-.36-.03-.09-.01-.18-.02-.28-.04-.16-.03-.33-.07-.41-.2"/>
  <path class="cls-3" d="M350.24,136.28c-.11.01-.22.02-.33.03-.13.01-.26.02-.39.03-.3.02-.61.03-.92.04"/>
  <path class="cls-3" d="M346.73,136.38c-.31,0-.61-.02-.92-.04-.13,0-.26-.02-.39-.03-.11,0-.22-.02-.33-.03"/>
  <path class="cls-3" d="M341.45,135.66c.23.21.51.37.8.47.28.1.57.15.86.15"/>
  <path class="cls-3" d="M340.56,133.66c0,.77.33,1.49.9,2"/>
  <line class="cls-3" x1="392.83" y1="123.98" x2="387.89" y2="126.84"/>
  <line class="cls-3" x1="382.5" y1="117.5" x2="387.44" y2="114.65"/>
  <line class="cls-3" x1="387.89" y1="114.65" x2="392.83" y2="117.5"/>
  <line class="cls-3" x1="387.44" y1="126.84" x2="382.5" y2="123.98"/>
  <line class="cls-3" x1="393.06" y1="117.89" x2="393.06" y2="123.6"/>
  <line class="cls-3" x1="382.28" y1="123.6" x2="382.28" y2="117.89"/>
  <path class="cls-3" d="M387.89,114.65c-.14-.08-.31-.08-.44,0"/>
  <path class="cls-3" d="M382.5,117.5c-.14.08-.22.23-.22.39"/>
  <path class="cls-3" d="M393.06,117.89c0-.16-.09-.31-.22-.39"/>
  <path class="cls-3" d="M381.44,120.74c0,3.44,2.79,6.22,6.22,6.22s6.22-2.79,6.22-6.22-2.79-6.22-6.22-6.22-6.22,2.79-6.22,6.22Z"/>
  <path class="cls-3" d="M383.31,120.74c0,2.41,1.95,4.36,4.36,4.36s4.36-1.95,4.36-4.36-1.95-4.36-4.36-4.36-4.36,1.95-4.36,4.36Z"/>
  <path class="cls-3" d="M383.36,120.74c0,2.38,1.93,4.31,4.31,4.31s4.31-1.93,4.31-4.31-1.93-4.31-4.31-4.31-4.31,1.93-4.31,4.31Z"/>
  <path class="cls-3" d="M383.44,120.74c0,2.33,1.89,4.22,4.22,4.22s4.22-1.89,4.22-4.22-1.89-4.22-4.22-4.22-4.22,1.89-4.22,4.22Z"/>
  <path class="cls-3" d="M384.78,120.74c0,1.6,1.29,2.89,2.89,2.89s2.89-1.29,2.89-2.89-1.29-2.89-2.89-2.89-2.89,1.29-2.89,2.89Z"/>
  <path class="cls-3" d="M382.28,123.6c0,.16.08.31.22.39"/>
  <path class="cls-3" d="M387.44,126.84c.14.08.31.08.44,0"/>
  <path class="cls-3" d="M392.83,123.98c.14-.08.22-.23.22-.39"/>
  <line class="cls-46" x1="399.22" y1="109.47" x2="399.23" y2="109.47"/>
  <line class="cls-46" x1="398.38" y1="110.3" x2="398.64" y2="110.3"/>
  <line class="cls-46" x1="399.8" y1="110.3" x2="400.07" y2="110.3"/>
  <line class="cls-46" x1="400.07" y1="111.45" x2="399.8" y2="111.45"/>
  <line class="cls-46" x1="398.64" y1="111.45" x2="398.38" y2="111.45"/>
  <line class="cls-46" x1="399.22" y1="112.28" x2="399.21" y2="112.28"/>
  <line class="cls-46" x1="417" y1="127.25" x2="417.01" y2="127.25"/>
  <line class="cls-46" x1="416.15" y1="128.08" x2="416.42" y2="128.08"/>
  <line class="cls-46" x1="417.58" y1="128.08" x2="417.84" y2="128.08"/>
  <line class="cls-46" x1="417.84" y1="129.23" x2="417.58" y2="129.23"/>
  <line class="cls-46" x1="416.42" y1="129.23" x2="416.15" y2="129.23"/>
  <line class="cls-46" x1="417" y1="130.06" x2="416.99" y2="130.06"/>
  <line class="cls-46" x1="417.58" y1="127.81" x2="417.58" y2="128.08"/>
  <line class="cls-46" x1="417.58" y1="129.23" x2="417.58" y2="129.5"/>
  <line class="cls-46" x1="416.42" y1="129.5" x2="416.42" y2="129.23"/>
  <line class="cls-46" x1="416.42" y1="128.08" x2="416.42" y2="127.81"/>
  <line class="cls-3" x1="407.31" y1="125.89" x2="407.22" y2="126.6"/>
  <line class="cls-3" x1="405.35" y1="128.21" x2="405.02" y2="129.23"/>
  <line class="cls-3" x1="411.2" y1="129.23" x2="410.87" y2="128.21"/>
  <line class="cls-3" x1="409" y1="126.6" x2="408.91" y2="125.89"/>
  <line class="cls-46" x1="399.8" y1="110.03" x2="399.8" y2="110.3"/>
  <line class="cls-46" x1="399.8" y1="111.45" x2="399.8" y2="111.72"/>
  <line class="cls-46" x1="398.64" y1="111.72" x2="398.64" y2="111.45"/>
  <line class="cls-46" x1="398.64" y1="110.3" x2="398.64" y2="110.03"/>
  <path class="cls-46" d="M399.23,109.47s.02,0,.03,0"/>
  <path class="cls-46" d="M399.18,109.47s.03,0,.05,0"/>
  <path class="cls-46" d="M417.01,127.25s.02,0,.03,0"/>
  <path class="cls-46" d="M416.95,127.25s.03,0,.04,0"/>
  <path class="cls-46" d="M418.4,128.61s0,.06,0,.09"/>
  <path class="cls-3" d="M414.55,128.65c0,1.35,1.09,2.44,2.44,2.44s2.44-1.09,2.44-2.44-1.09-2.44-2.44-2.44-2.44,1.09-2.44,2.44Z"/>
  <path class="cls-46" d="M418.22,128.23c-.1-.1-.23-.15-.37-.15"/>
  <path class="cls-46" d="M417.58,127.81c0-.14-.05-.27-.15-.37"/>
  <path class="cls-46" d="M416.57,127.44c-.1.1-.15.23-.15.37"/>
  <path class="cls-46" d="M416.15,128.08c-.14,0-.27.05-.37.15"/>
  <path class="cls-46" d="M417.84,129.23c.14,0,.27-.05.37-.15"/>
  <path class="cls-46" d="M415.78,129.08c.1.1.23.15.37.15"/>
  <path class="cls-46" d="M416.99,130.06h-.03"/>
  <path class="cls-46" d="M417.04,130.06h-.05"/>
  <path class="cls-46" d="M416.42,129.5c0,.14.05.27.15.37"/>
  <path class="cls-46" d="M417.43,129.87c.1-.1.15-.23.15-.37"/>
  <path class="cls-46" d="M400.63,110.83s0,.06,0,.09"/>
  <path class="cls-46" d="M399.8,110.03c0-.14-.05-.27-.15-.37"/>
  <path class="cls-46" d="M398.8,109.66c-.1.1-.15.23-.15.37"/>
  <path class="cls-3" d="M396.78,110.88c0,1.35,1.09,2.44,2.44,2.44s2.44-1.09,2.44-2.44-1.09-2.44-2.44-2.44-2.44,1.09-2.44,2.44Z"/>
  <path class="cls-46" d="M400.44,110.45c-.1-.1-.23-.15-.37-.15"/>
  <path class="cls-46" d="M398.38,110.3c-.14,0-.27.05-.37.15"/>
  <path class="cls-46" d="M400.07,111.45c.14,0,.27-.05.37-.15"/>
  <path class="cls-46" d="M398.64,111.72c0,.14.05.27.15.37"/>
  <path class="cls-46" d="M398.01,111.3c.1.1.23.15.37.15"/>
  <path class="cls-46" d="M399.65,112.09c.1-.1.15-.23.15-.37"/>
  <path class="cls-46" d="M397.82,110.92v-.09"/>
  <path class="cls-46" d="M399.21,112.28h-.03"/>
  <path class="cls-46" d="M399.27,112.28h-.04"/>
  <path class="cls-3" d="M409.09,117.19c.26-.47.14-1.05-.27-1.39-.41-.34-1-.34-1.42,0-.41.34-.52.92-.27,1.39"/>
  <path class="cls-3" d="M398.11,119.76c0,5.52,4.48,10,10,10s10-4.48,10-10-4.48-10-10-10c-5.52,0-10,4.48-10,10Z"/>
  <path class="cls-3" d="M399.22,119.76c0,4.91,3.98,8.89,8.89,8.89s8.89-3.98,8.89-8.89-3.98-8.89-8.89-8.89-8.89,3.98-8.89,8.89Z"/>
  <path class="cls-3" d="M401.22,119.76c0,3.8,3.08,6.89,6.89,6.89s6.89-3.08,6.89-6.89-3.08-6.89-6.89-6.89-6.89,3.08-6.89,6.89Z"/>
  <path class="cls-3" d="M407.31,125.89c.53.07,1.07.07,1.59,0"/>
  <path class="cls-3" d="M410.69,118.79c-.28-.74-.86-1.32-1.6-1.6"/>
  <path class="cls-3" d="M405.53,120.74c.4,1.07,1.43,1.78,2.58,1.78s2.17-.71,2.58-1.78"/>
  <path class="cls-3" d="M407.14,117.19c-.74.28-1.32.86-1.6,1.6"/>
  <path class="cls-3" d="M410.69,120.74c.47.26,1.05.14,1.39-.27.34-.41.34-1,0-1.42-.34-.41-.92-.52-1.39-.27"/>
  <path class="cls-3" d="M405.53,118.79c-.47-.26-1.05-.14-1.39.27-.34.41-.34,1.01,0,1.42.34.41.92.52,1.39.27"/>
  <path class="cls-46" d="M415.59,128.7v-.09"/>
  <path class="cls-46" d="M399.18,109.47s-.07,0-.11.01c-.04,0-.07.02-.1.04-.03.02-.06.04-.09.06-.03.02-.05.05-.08.08"/>
  <path class="cls-46" d="M398.01,110.45s-.06.05-.08.08c-.02.03-.04.06-.06.09-.02.03-.03.07-.04.1,0,.04-.01.07-.01.11"/>
  <path class="cls-46" d="M397.82,110.92s0,.07.01.11c0,.04.02.07.04.1.02.03.04.06.06.09.02.03.05.05.08.08"/>
  <path class="cls-46" d="M398.8,112.09s.05.06.08.08c.03.02.06.04.09.06.03.02.07.03.1.04.04,0,.07.01.11.01"/>
  <path class="cls-46" d="M399.27,112.28s.07,0,.11-.01c.04,0,.07-.02.1-.04.03-.02.06-.04.09-.06.03-.02.05-.05.08-.08"/>
  <path class="cls-46" d="M400.44,111.3s.06-.05.08-.08c.02-.03.04-.06.06-.09.02-.03.03-.07.04-.1s.01-.07.01-.11"/>
  <path class="cls-46" d="M400.63,110.83s0-.07-.01-.11c0-.04-.02-.07-.04-.1-.02-.03-.04-.06-.06-.09-.02-.03-.05-.05-.08-.08"/>
  <path class="cls-46" d="M399.65,109.66s-.05-.06-.08-.08c-.03-.02-.06-.04-.09-.06-.03-.02-.07-.03-.1-.04-.04,0-.07-.01-.11-.01"/>
  <path class="cls-46" d="M416.95,127.25s-.07,0-.11.01c-.04,0-.07.02-.1.04-.03.02-.06.04-.09.06-.03.02-.05.05-.08.08"/>
  <path class="cls-46" d="M415.78,128.23s-.06.05-.08.08c-.02.03-.04.06-.06.09-.02.03-.03.07-.04.1,0,.04-.01.07-.01.11"/>
  <path class="cls-46" d="M415.59,128.7s0,.07.01.11c0,.04.02.07.04.1.02.03.04.06.06.09.02.03.05.05.08.08"/>
  <path class="cls-46" d="M416.57,129.87s.05.06.08.08c.03.02.06.04.09.06.03.02.07.03.1.04.04,0,.07.01.11.01"/>
  <path class="cls-46" d="M417.04,130.06s.07,0,.11-.01c.04,0,.07-.02.1-.04.03-.02.06-.04.09-.06.03-.02.05-.05.08-.08"/>
  <path class="cls-46" d="M418.22,129.08s.06-.05.08-.08c.02-.03.04-.06.06-.09.02-.03.03-.07.04-.1,0-.04.01-.07.01-.11"/>
  <path class="cls-46" d="M418.4,128.61s0-.07-.01-.11c0-.04-.02-.07-.04-.1-.02-.03-.04-.06-.06-.09-.02-.03-.05-.05-.08-.08"/>
  <path class="cls-46" d="M417.43,127.44s-.05-.06-.08-.08c-.03-.02-.06-.04-.09-.06-.03-.02-.07-.03-.1-.04-.04,0-.07-.01-.11-.01"/>
  <path class="cls-48" d="M430.86,132.36c-.15,0-.28,0-.4,0v-1.38c.12,0,.24,0,.4,0,.33,0,.44.17.44.7s-.11.69-.44.69M430.86,130.78c-.24,0-.44,0-.62.02v1.73c.18.01.38.02.62.02.5,0,.68-.22.68-.89s-.18-.89-.68-.89ZM429.8,130.8h-.22v1.25c0,.09,0,.17,0,.26h-.04c-.04-.08-.08-.18-.12-.25l-.57-1.2s-.05-.07-.1-.07h-.21c-.06,0-.09.03-.09.09v1.64h.22v-1.3c0-.07,0-.15,0-.23h.04c.02.07.07.16.1.23l.58,1.23s.05.07.1.07h.22c.06,0,.09-.03.09-.09v-1.64ZM428.12,132.35h-.69c-.1,0-.15-.05-.15-.17v-.47h.75v-.18h-.75v-.38c0-.12.05-.17.15-.17h.69v-.17c-.22-.01-.48-.01-.73-.01-.2,0-.33.12-.33.3v1.13c0,.19.13.3.33.3.25,0,.51,0,.74-.01v-.17ZM426.14,130.77c-.39,0-.56.05-.56.46,0,.26.09.42.34.48l.36.09c.15.04.22.09.22.29,0,.24-.08.28-.35.28-.14,0-.24,0-.53-.01l-.02.16c.24.04.42.05.54.05.4,0,.58-.07.58-.47,0-.27-.08-.42-.35-.49l-.35-.09c-.15-.04-.22-.09-.22-.28,0-.26.1-.26.35-.26.16,0,.34,0,.49.01l.02-.16c-.17-.04-.35-.05-.51-.05Z"/>
  <path class="cls-48" d="M449.48,130.8h-.22v1.25c0,.09,0,.17,0,.26h-.04c-.04-.08-.08-.18-.12-.25l-.57-1.2s-.05-.07-.1-.07h-.21c-.06,0-.09.03-.09.09v1.64h.22v-1.3c0-.08,0-.15,0-.23h.04c.02.07.07.16.1.23l.58,1.23s.05.07.1.07h.22c.06,0,.09-.03.09-.09v-1.64ZM446.82,131.61v-.65c.1,0,.23,0,.37,0,.26,0,.34.07.34.32s-.09.33-.34.33h-.37ZM447.82,132.53l-.17-.55c-.04-.15-.13-.23-.21-.25h0c.23-.04.32-.18.32-.46,0-.39-.16-.5-.56-.5-.28,0-.41,0-.6.02v1.73h.22v-.73c.1,0,.22,0,.38,0,.12,0,.19.05.23.18l.15.54h.24ZM446.17,130.8h-.22v1.07c0,.37-.11.5-.41.5s-.41-.13-.41-.5v-1.07h-.22v1.07c0,.5.17.7.64.7s.62-.19.62-.7v-1.07ZM444.65,130.99v-.2h-1.34v.2h.56v1.54h.22v-1.54h.56ZM443.12,132.34h-.69c-.1,0-.15-.05-.15-.17v-.47h.75v-.18h-.75v-.38c0-.12.05-.17.15-.17h.69v-.17c-.22-.01-.48-.01-.73-.01-.2,0-.33.12-.33.3v1.13c0,.19.13.3.33.3.25,0,.51,0,.74-.02v-.17ZM440.73,131.61v-.65c.1,0,.23,0,.37,0,.26,0,.34.07.34.32s-.09.33-.34.33h-.37ZM441.73,132.53l-.17-.55c-.04-.15-.13-.23-.21-.25h0c.23-.04.32-.18.32-.46,0-.39-.16-.5-.56-.5-.28,0-.41,0-.6.02v1.73h.22v-.73c.1,0,.22,0,.38,0,.12,0,.19.05.23.18l.15.54h.24Z"/>
  <path class="cls-48" d="M445.2,111.12v-.7c.1,0,.23,0,.37,0,.25,0,.34.07.34.35s-.08.35-.34.35h-.37ZM445.58,110.22c-.28,0-.41,0-.59.02v1.73h.22v-.69c.11.01.25.02.4.02.39,0,.53-.11.53-.54s-.14-.54-.56-.54ZM443.93,110.41c.34,0,.45.17.45.7s-.11.7-.45.7-.45-.17-.45-.7.11-.7.45-.7ZM443.93,110.21c-.5,0-.68.22-.68.9s.18.9.68.9.68-.22.68-.9-.18-.9-.68-.9ZM442.25,110.41c.34,0,.45.17.45.7s-.11.7-.45.7-.45-.17-.45-.7.11-.7.45-.7ZM442.25,110.21c-.5,0-.69.22-.69.9s.18.9.69.9.68-.22.68-.9-.18-.9-.68-.9ZM440.59,110.25h-.22v1.41c0,.19.1.33.35.33.22,0,.45,0,.67-.02v-.17h-.63c-.12,0-.17-.05-.17-.17v-1.38ZM438.88,111.16l.43.81h.24l-.49-.9.46-.83h-.24l-.4.75h-.07l-.4-.75h-.24l.45.83-.49.9h.24l.43-.81h.06ZM437.98,110.43v-.17c-.21-.02-.46-.02-.71-.02-.2,0-.33.11-.33.31v1.42h.22v-.8h.72v-.18h-.72v-.4c0-.12.05-.17.17-.17h.65ZM435.33,110.41c.34,0,.45.17.45.7s-.11.7-.45.7-.45-.17-.45-.7.11-.7.45-.7ZM435.33,110.21c-.5,0-.68.22-.68.9s.18.9.68.9.68-.22.68-.9-.18-.9-.68-.9ZM434.37,111.79h-.7c-.1,0-.15-.05-.15-.17v-.47h.75v-.18h-.75v-.38c0-.12.05-.17.15-.17h.7v-.17c-.22-.02-.48-.02-.73-.02-.2,0-.33.12-.33.3v1.13c0,.19.13.3.33.3.25,0,.51,0,.74-.02v-.17ZM431.99,111.06v-.65c.1,0,.23,0,.37,0,.26,0,.34.07.34.32s-.09.33-.34.33h-.37ZM432.99,111.98l-.17-.55c-.04-.15-.13-.23-.21-.25h0c.23-.04.32-.18.32-.46,0-.39-.16-.5-.56-.5-.28,0-.41,0-.6.02v1.73h.22v-.72c.1,0,.22,0,.38,0,.12,0,.19.05.23.18l.15.54h.24ZM431.42,111.79h-.69c-.1,0-.15-.05-.15-.17v-.47h.75v-.18h-.75v-.38c0-.12.05-.17.15-.17h.69v-.17c-.22-.02-.48-.02-.73-.02-.2,0-.33.12-.33.3v1.13c0,.19.13.3.33.3.25,0,.51,0,.74-.02v-.17ZM430.09,110.44v-.2h-1.34v.2h.56v1.53h.22v-1.53h.56ZM427.98,110.21c-.39,0-.56.05-.56.46,0,.26.09.42.34.48l.36.09c.15.04.22.09.22.29,0,.24-.08.28-.35.28-.14,0-.24,0-.53-.01v.16c.22.04.41.05.52.05.4,0,.58-.07.58-.47,0-.27-.08-.42-.35-.49l-.35-.09c-.15-.04-.22-.09-.22-.28,0-.26.1-.26.35-.26.16,0,.34,0,.49.01l.02-.16c-.17-.04-.35-.05-.51-.05Z"/>
  <path class="cls-50" d="M369,107.35h-.82c-.15,0-.27-.12-.27-.27v-.26h0v-.02h0v-.02h0v-.02h0v-.02h0v-.02h0v-.03h0v-.02h0v-.02h0v-.02h0v-.02h0v-.02h0v-.02h0v-.02h0v-.02h0v-.02h0v-.02h0v-.02h0v-.02h0v-.02h0v-.02h0v-.02h0s-.75-.76-.75-.76v1.55c0,.15-.12.27-.27.27h-.82c-.11,0-.17-.04-.22-.14-.21-.47-.33-1.03-.34-1.64h0v-.03h0c0-.51.09-.99.24-1.4h0c.03-.08.06-.15.09-.23.05-.1.1-.14.22-.14h.82c.15,0,.27.12.27.27v.77l.75.75v-1.51c0-.15.12-.27.27-.27h.82c.11,0,.17.04.22.14v.02s.06.08.08.14c.17.44.27.94.27,1.48h0c0,.54-.1,1.05-.27,1.49-.02.05-.04.1-.07.14v.02c-.05.1-.11.14-.22.14M358.21,104.55v2.55c0,.15.12.27.27.27h1.1c.15,0,.27-.12.27-.27v-2.55c0-.17.07-.24.24-.24h.77c-.04-.13-.09-.25-.14-.37-.05-.1-.11-.14-.22-.14h-2.93c-.11,0-.17.04-.22.14-.05.12-.1.24-.14.37h.76c.17,0,.24.07.24.24ZM354.63,104.31h.51c.07,0,.12.06.12.12v2.3c0,.07-.06.12-.12.12h-.51c-.07,0-.12-.05-.12-.12v-2.3c0-.07.06-.12.12-.12ZM356.56,103.94c-.05-.1-.11-.14-.22-.14h-2.93c-.11,0-.17.04-.22.14-.21.47-.34,1.03-.34,1.64h0c0,.61.12,1.18.34,1.65.05.1.1.14.22.14h2.93c.11,0,.17-.04.22-.14.21-.47.33-1.04.33-1.64s-.12-1.17-.33-1.64ZM350.18,105.99v1.1c0,.15-.12.27-.27.27h-.81c-.11,0-.17-.04-.21-.14-.21-.47-.33-1.04-.33-1.64s.12-1.17.33-1.64c.05-.1.1-.14.21-.14h.81c.15,0,.27.12.27.27v1.1h.74v-1.1c0-.15.12-.27.27-.27h.81c.11,0,.17.04.21.14.21.47.33,1.04.33,1.64s-.12,1.17-.33,1.64c-.05.1-.1.14-.21.14h-.81c-.15,0-.27-.12-.27-.27v-1.1h-.74ZM362.95,104.31h.51c.07,0,.12.06.12.12v2.3c0,.07-.06.12-.12.12h-.51c-.07,0-.12-.05-.12-.12v-2.3c0-.07.06-.12.12-.12ZM364.88,103.94c-.05-.1-.1-.14-.22-.14h-2.93c-.11,0-.17.04-.22.14-.21.47-.34,1.03-.34,1.64h0c0,.61.12,1.18.34,1.65.05.1.1.14.22.14h2.93c.11,0,.17-.04.22-.14.21-.47.34-1.04.34-1.64s-.12-1.17-.34-1.64ZM371.51,105.84v.82c0,.1.09.19.19.19h1.99s.01,0,.02,0c-.06.18-.13.35-.21.51h-3.08c-.11,0-.17-.04-.22-.14-.21-.47-.34-1.04-.34-1.64h0c0-.61.12-1.18.34-1.65.05-.1.1-.14.22-.14h3.08c.08.16.15.33.21.51,0,0-.01,0-.02,0h-1.99c-.1,0-.19.09-.19.19v.82h1.93c.12,0,.21.09.21.21v.09c0,.11-.09.21-.21.21h-1.93Z"/>
  <path class="cls-48" d="M391.92,130.57c.33.16.48.52.48,1.09s-.14.92-.48,1.1l.02.1c.46-.18.66-.55.66-1.2s-.21-1.03-.66-1.2l-.02.1ZM391.12,130.88c.34,0,.45.17.45.7s-.11.7-.45.7-.45-.17-.45-.7.11-.7.45-.7ZM391.12,130.69c-.5,0-.68.22-.68.9s.18.9.68.9.68-.22.68-.9-.18-.9-.68-.9ZM390.06,130.72h-.22v1.25c0,.09,0,.17,0,.26h-.04c-.04-.09-.08-.18-.12-.25l-.57-1.2s-.05-.07-.1-.07h-.21c-.06,0-.09.03-.09.09v1.64h.22v-1.3c0-.08,0-.15-.01-.23h.04c.02.07.07.16.1.23l.58,1.23s.05.07.1.07h.22c.06,0,.09-.03.09-.09v-1.64ZM387.68,130.88c.34,0,.45.17.45.7s-.11.7-.45.7-.45-.17-.45-.7.11-.7.45-.7ZM387.68,130.69c-.5,0-.68.22-.68.9s.18.9.68.9.68-.22.68-.9-.18-.9-.68-.9ZM386.24,130.72c-.05,0-.08.03-.1.08l-.32,1.05c-.02.08-.04.16-.06.24h-.04c-.02-.08-.04-.16-.07-.23l-.32-1.06c-.01-.05-.04-.08-.09-.08h-.25c-.06,0-.09.03-.09.09l-.07,1.64h.22l.06-1.55h.05l.39,1.28s.05.08.1.08h.2c.05,0,.08-.03.1-.08l.39-1.28h.05l.06,1.55h.22l-.07-1.64c0-.06-.03-.09-.09-.09h-.25ZM384.6,130.47c-.45.17-.66.55-.66,1.2s.21,1.02.66,1.2l.03-.1c-.34-.17-.48-.54-.48-1.1s.14-.93.48-1.09l-.03-.1ZM382.95,130.72h-.22v1.41c0,.19.1.33.35.33.22,0,.45,0,.67-.02v-.17h-.63c-.12,0-.17-.05-.17-.17v-1.38Z"/>
  <path class="cls-48" d="M392.82,105.78v-.29h-2.01v.29h.84v2.3h.33v-2.3h.84ZM390.42,105.48h-.33v1.6c0,.56-.16.74-.61.74s-.61-.19-.61-.74v-1.6h-.33v1.6c0,.75.26,1.04.96,1.04s.93-.29.93-1.04v-1.6ZM386.66,106.79v-1.05c.15,0,.34,0,.56,0,.38,0,.5.11.5.53s-.13.52-.5.53h-.56ZM387.22,105.45c-.42,0-.61,0-.89.03v2.6h.33v-1.03c.16.02.37.03.6.03.59,0,.8-.17.8-.81s-.21-.81-.84-.81ZM385.67,105.48h-.33v1.88c0,.13,0,.26.01.4h-.06c-.06-.13-.12-.27-.18-.38l-.85-1.79c-.03-.07-.07-.11-.15-.11h-.31c-.09,0-.13.05-.13.13v2.46h.33v-1.95c0-.11,0-.23-.02-.34h.06c.03.11.1.24.15.34l.88,1.84c.03.07.07.11.15.11h.32c.08,0,.13-.05.13-.13v-2.46ZM383.02,108.08v-2.6h-.33v2.6h.33Z"/>
  <path class="cls-48" d="M407.72,131.63v-.65c.1,0,.23,0,.37,0,.26,0,.34.07.34.32s-.09.33-.34.33h-.37ZM408.72,132.54l-.17-.55c-.04-.15-.13-.23-.21-.25h0c.23-.04.32-.18.32-.46,0-.39-.16-.5-.56-.5-.28,0-.41,0-.6.02v1.73h.22v-.72c.1,0,.22,0,.38,0,.12,0,.19.05.23.18l.15.54h.24Z"/>
  <g>
    <path class="cls-50" d="M19.65,71.94l.14,1.24c-.66.21-1.47.31-2.43.31-1.17,0-2-.29-2.48-.88-.48-.59-.71-1.6-.71-3.05s.24-2.46.71-3.05c.48-.59,1.3-.88,2.48-.88.85,0,1.61.08,2.28.25l-.14,1.25c-.59-.04-1.31-.06-2.13-.06-.55,0-.93.17-1.13.52-.2.35-.3,1-.3,1.95s.1,1.6.3,1.95c.2.35.58.52,1.13.52,1.02,0,1.78-.03,2.29-.1Z"/>
    <path class="cls-50" d="M23.34,67.78c1.01,0,1.73.22,2.15.65.42.44.63,1.18.63,2.22s-.21,1.78-.63,2.21c-.42.43-1.14.64-2.15.64s-1.74-.21-2.16-.64c-.42-.43-.63-1.16-.63-2.21s.21-1.79.63-2.22c.42-.43,1.14-.65,2.16-.65ZM23.34,69c-.43,0-.72.11-.87.33-.15.22-.22.66-.22,1.32s.07,1.08.22,1.3c.15.22.44.33.87.33s.7-.11.85-.33c.15-.22.23-.65.23-1.3s-.07-1.09-.22-1.31c-.15-.22-.43-.34-.86-.34Z"/>
    <path class="cls-50" d="M28.55,67.94l.12.8c.78-.64,1.56-.96,2.32-.96.49,0,.87.13,1.13.39s.39.63.39,1.12v4.07h-1.62v-3.56c0-.24-.04-.41-.12-.5-.08-.09-.21-.14-.41-.14-.34,0-.85.17-1.51.5v3.71h-1.63v-5.42h1.32Z"/>
    <path class="cls-50" d="M35.14,67.94l.12.8c.78-.64,1.56-.96,2.32-.96.49,0,.87.13,1.13.39s.39.63.39,1.12v4.07h-1.62v-3.56c0-.24-.04-.41-.12-.5-.08-.09-.21-.14-.41-.14-.34,0-.85.17-1.51.5v3.71h-1.63v-5.42h1.32Z"/>
    <path class="cls-50" d="M43.86,71.19h-1.96c.05.4.17.66.36.8.19.14.5.2.93.2.58,0,1.25-.04,2.02-.12l.15,1.01c-.56.27-1.35.41-2.36.41s-1.75-.22-2.18-.66-.65-1.17-.65-2.18c0-1.06.21-1.81.63-2.23.42-.43,1.13-.64,2.13-.64.9,0,1.55.16,1.96.47.4.31.61.79.62,1.42,0,.51-.13.89-.39,1.14s-.68.38-1.26.38ZM41.87,70.21h1.54c.2,0,.33-.05.4-.14.07-.1.1-.23.1-.42,0-.26-.07-.43-.2-.53-.13-.1-.37-.15-.73-.15-.42,0-.7.08-.86.25s-.24.5-.26,1Z"/>
    <path class="cls-50" d="M51.01,72.07l.14,1.06c-.56.24-1.26.36-2.1.36-1,0-1.7-.21-2.11-.64-.41-.43-.61-1.16-.61-2.21s.21-1.79.62-2.22c.41-.43,1.12-.64,2.12-.64.82,0,1.49.11,2,.34l-.18,1.01c-.79-.01-1.31-.02-1.55-.02-.5,0-.84.11-1.03.32-.19.21-.28.62-.28,1.21s.09,1,.28,1.21c.19.21.53.32,1.03.32.64,0,1.19-.03,1.66-.1Z"/>
    <path class="cls-50" d="M54.26,69.03v2.56c0,.21.04.35.13.43.09.08.24.12.46.12h.69l.18,1.13c-.42.15-.93.22-1.53.22-.49,0-.87-.14-1.14-.41-.27-.28-.41-.66-.41-1.15v-2.9h-.96v-1.03l.96-.05v-1.52h1.62v1.52h1.51v1.09h-1.51Z"/>
    <path class="cls-50" d="M57.15,65.54h.73c.32,0,.47.16.47.47v.59c0,.32-.16.47-.47.47h-.73c-.31,0-.47-.16-.47-.47v-.59c0-.31.16-.47.47-.47ZM58.33,73.36h-1.62v-5.42h1.62v5.42Z"/>
    <path class="cls-50" d="M62.27,67.78c1.01,0,1.73.22,2.15.65.42.44.63,1.18.63,2.22s-.21,1.78-.63,2.21c-.42.43-1.14.64-2.15.64s-1.74-.21-2.16-.64c-.42-.43-.63-1.16-.63-2.21s.21-1.79.63-2.22c.42-.43,1.14-.65,2.16-.65ZM62.27,69c-.43,0-.72.11-.87.33-.15.22-.22.66-.22,1.32s.07,1.08.22,1.3c.15.22.44.33.87.33s.7-.11.85-.33c.15-.22.23-.65.23-1.3s-.07-1.09-.22-1.31c-.15-.22-.43-.34-.86-.34Z"/>
    <path class="cls-50" d="M67.48,67.94l.12.8c.78-.64,1.56-.96,2.32-.96.49,0,.87.13,1.13.39s.39.63.39,1.12v4.07h-1.62v-3.56c0-.24-.04-.41-.12-.5-.08-.09-.21-.14-.41-.14-.34,0-.85.17-1.51.5v3.71h-1.63v-5.42h1.32Z"/>
  </g>
  <polyline class="cls-7" points="17.6 151.68 17.83 151.89 18.06 152.09 18.29 152.28 18.33 152.31"/>
  <polyline class="cls-7" points="17.14 151.25 17.37 151.47 17.6 151.68"/>
  <line class="cls-7" x1="15.99" y1="150.09" x2="17.08" y2="151.19"/>
  <line class="cls-7" x1="15.98" y1="150.07" x2="16.21" y2="150.32"/>
  <line class="cls-7" x1="15.04" y1="149.02" x2="16.23" y2="150.35"/>
  <line class="cls-7" x1="15.04" y1="149.02" x2="15.09" y2="149.07"/>
  <line class="cls-7" x1="19.05" y1="152.88" x2="20.57" y2="153.85"/>
  <polyline class="cls-7" points="18.36 152.33 18.51 152.46 18.74 152.63 18.95 152.8"/>
  <line class="cls-7" x1="254.9" y1="148.1" x2="255.26" y2="137.69"/>
  <line class="cls-7" x1="254.54" y1="149.02" x2="254.54" y2="149.02"/>
  <line class="cls-7" x1="20.57" y1="153.84" x2="21.79" y2="154.4"/>
  <line class="cls-7" x1="254.74" y1="122.23" x2="255.26" y2="137.24"/>
  <line class="cls-7" x1="254.53" y1="86.89" x2="254.53" y2="83.92"/>
  <line class="cls-7" x1="249.32" y1="86.89" x2="249.06" y2="94.41"/>
  <line class="cls-7" x1="243.74" y1="154.57" x2="243.74" y2="156.8"/>
  <line class="cls-7" x1="239.47" y1="95.32" x2="239.4" y2="98.14"/>
  <line class="cls-7" x1="238.22" y1="118.05" x2="238.46" y2="116.28"/>
  <polyline class="cls-7" points="249.02 153.85 249.36 153.65 251.12 152.42 252.9 150.8 254.54 149.02"/>
  <line class="cls-7" x1="229.44" y1="95.84" x2="229.52" y2="98.98"/>
  <line class="cls-7" x1="226.8" y1="116.45" x2="227.05" y2="114.68"/>
  <line class="cls-7" x1="220.69" y1="154.57" x2="220.69" y2="156.8"/>
  <line class="cls-7" x1="25.46" y1="156.8" x2="48.52" y2="156.8"/>
  <line class="cls-7" x1="243.74" y1="156.8" x2="220.69" y2="156.8"/>
  <line class="cls-7" x1="246.79" y1="154.57" x2="22.79" y2="154.57"/>
  <line class="cls-7" x1="81.73" y1="103.66" x2="81.22" y2="102.27"/>
  <line class="cls-7" x1="254.54" y1="149.02" x2="254.54" y2="149.02"/>
  <line class="cls-7" x1="15.04" y1="149.02" x2="15.04" y2="149.02"/>
  <line class="cls-7" x1="189.47" y1="126.89" x2="189.47" y2="136.44"/>
  <line class="cls-7" x1="189.1" y1="137.08" x2="180.83" y2="141.86"/>
  <line class="cls-7" x1="14.32" y1="137.47" x2="139.98" y2="137.47"/>
  <line class="cls-7" x1="156.97" y1="137.47" x2="171.96" y2="137.47"/>
  <line class="cls-7" x1="188.94" y1="137.47" x2="255.26" y2="137.47"/>
  <line class="cls-7" x1="148.1" y1="141.86" x2="139.83" y2="137.08"/>
  <line class="cls-7" x1="157.12" y1="137.08" x2="148.85" y2="141.86"/>
  <line class="cls-7" x1="171.81" y1="126.24" x2="180.08" y2="121.47"/>
  <line class="cls-7" x1="102.81" y1="120.36" x2="32.75" y2="120.36"/>
  <line class="cls-7" x1="171.44" y1="136.44" x2="171.44" y2="126.89"/>
  <line class="cls-7" x1="200.16" y1="112.92" x2="17.32" y2="112.92"/>
  <line class="cls-7" x1="23.97" y1="109.05" x2="47.78" y2="109.05"/>
  <line class="cls-7" x1="180.08" y1="141.86" x2="171.81" y2="137.08"/>
  <line class="cls-7" x1="148.85" y1="121.47" x2="157.12" y2="126.24"/>
  <line class="cls-7" x1="157.49" y1="126.89" x2="157.49" y2="136.44"/>
  <line class="cls-7" x1="139.83" y1="126.24" x2="148.1" y2="121.47"/>
  <line class="cls-7" x1="238.09" y1="99.58" x2="231.19" y2="100.41"/>
  <line class="cls-7" x1="203.49" y1="97.2" x2="248.64" y2="94.84"/>
  <line class="cls-7" x1="158.66" y1="107.29" x2="86.9" y2="107.29"/>
  <line class="cls-31" x1="79.73" y1="106.65" x2="84.21" y2="106.65"/>
  <line class="cls-7" x1="27.32" y1="102.66" x2="44.43" y2="102.66"/>
  <line class="cls-7" x1="70.98" y1="101.47" x2="52.83" y2="101.47"/>
  <line class="cls-7" x1="28.44" y1="98.94" x2="43.31" y2="98.94"/>
  <line class="cls-7" x1="75.21" y1="98.06" x2="62.09" y2="98.06"/>
  <line class="cls-7" x1="203.27" y1="113.14" x2="252.82" y2="120.1"/>
  <line class="cls-7" x1="227.05" y1="114.68" x2="238.46" y2="116.28"/>
  <line class="cls-7" x1="180.83" y1="121.47" x2="189.1" y2="126.24"/>
  <line class="cls-7" x1="21.05" y1="97.3" x2="199.59" y2="97.3"/>
  <line class="cls-7" x1="254.53" y1="86.89" x2="15.05" y2="86.89"/>
  <line class="cls-7" x1="139.46" y1="136.44" x2="139.46" y2="126.89"/>
  <line class="cls-7" x1="16.54" y1="82.43" x2="253.04" y2="82.43"/>
  <line class="cls-7" x1="216.05" y1="114.94" x2="197.29" y2="100.73"/>
  <line class="cls-7" x1="102.81" y1="120.36" x2="103.07" y2="112.92"/>
  <line class="cls-7" x1="70.99" y1="101.98" x2="70.98" y2="101.47"/>
  <line class="cls-7" x1="55.96" y1="101.47" x2="55.96" y2="97.3"/>
  <line class="cls-7" x1="48.52" y1="156.8" x2="48.52" y2="154.57"/>
  <line class="cls-7" x1="44.43" y1="109.05" x2="44.43" y2="102.66"/>
  <line class="cls-7" x1="43.31" y1="97.3" x2="43.31" y2="98.94"/>
  <line class="cls-7" x1="52.75" y1="104.53" x2="52.83" y2="101.47"/>
  <line class="cls-7" x1="32.49" y1="112.92" x2="32.75" y2="120.36"/>
  <line class="cls-29" x1="41.46" y1="109.15" x2="41.46" y2="112.82"/>
  <line class="cls-7" x1="40.34" y1="98.94" x2="40.34" y2="102.66"/>
  <line class="cls-7" x1="20.26" y1="86.89" x2="20.61" y2="96.87"/>
  <line class="cls-7" x1="31.41" y1="98.94" x2="31.41" y2="102.66"/>
  <line class="cls-28" x1="30.29" y1="109.19" x2="30.29" y2="112.85"/>
  <line class="cls-32" x1="28.44" y1="97.3" x2="28.44" y2="98.94"/>
  <line class="cls-7" x1="27.32" y1="109.05" x2="27.32" y2="102.66"/>
  <line class="cls-7" x1="25.46" y1="156.8" x2="25.46" y2="154.57"/>
  <line class="cls-7" x1="23.97" y1="109.05" x2="23.97" y2="112.92"/>
  <line class="cls-7" x1="15.04" y1="149.02" x2="15.04" y2="149.02"/>
  <line class="cls-7" x1="14.68" y1="148.1" x2="14.32" y2="137.69"/>
  <line class="cls-7" x1="15.05" y1="83.92" x2="15.05" y2="86.89"/>
  <line class="cls-7" x1="15.09" y1="115.08" x2="14.32" y2="137.24"/>
  <path class="cls-7" d="M249.02,153.85c.06-.03.11-.06.17-.09"/>
  <path class="cls-7" d="M249.18,153.75s.07-.04.11-.06"/>
  <path class="cls-7" d="M249.29,153.69s.06-.03.08-.05"/>
  <path class="cls-7" d="M254.74,122.23c-.04-1.08-.85-1.98-1.92-2.13"/>
  <path class="cls-7" d="M254.54,149.02c.22-.26.35-.58.36-.92"/>
  <path class="cls-7" d="M203.27,113.14c-1.03-.14-2.07-.22-3.11-.22"/>
  <path class="cls-7" d="M180.45,121.25c-5.75,0-10.41,4.66-10.41,10.41s4.66,10.41,10.41,10.41,10.41-4.66,10.41-10.41-4.66-10.41-10.41-10.41Z"/>
  <path class="cls-7" d="M180.45,124.38c-4.03,0-7.29,3.26-7.29,7.29s3.26,7.29,7.29,7.29,7.29-3.26,7.29-7.29-3.26-7.29-7.29-7.29Z"/>
  <path class="cls-7" d="M180.45,126.9c-2.63,0-4.76,2.13-4.76,4.76s2.13,4.76,4.76,4.76,4.76-2.13,4.76-4.76-2.13-4.76-4.76-4.76Z"/>
  <path class="cls-7" d="M171.81,126.24c-.23.13-.37.38-.37.64"/>
  <path class="cls-7" d="M180.83,121.47c-.23-.13-.51-.13-.74,0"/>
  <path class="cls-7" d="M189.47,126.89c0-.27-.14-.51-.37-.64"/>
  <path class="cls-7" d="M189.1,137.08c.23-.13.37-.38.37-.64"/>
  <path class="cls-7" d="M180.08,141.86c.23.13.51.13.74,0"/>
  <path class="cls-7" d="M171.44,136.44c0,.27.14.51.37.64"/>
  <path class="cls-7" d="M14.78,148.58c.06.16.15.31.26.44"/>
  <path class="cls-7" d="M148.47,121.25c-5.75,0-10.41,4.66-10.41,10.41s4.66,10.41,10.41,10.41,10.41-4.66,10.41-10.41-4.66-10.41-10.41-10.41Z"/>
  <path class="cls-7" d="M148.47,124.38c-4.03,0-7.29,3.26-7.29,7.29s3.26,7.29,7.29,7.29,7.29-3.26,7.29-7.29-3.26-7.29-7.29-7.29Z"/>
  <path class="cls-7" d="M148.47,126.9c-2.63,0-4.76,2.13-4.76,4.76s2.13,4.76,4.76,4.76,4.76-2.13,4.76-4.76-2.13-4.76-4.76-4.76Z"/>
  <path class="cls-7" d="M139.83,126.24c-.23.13-.37.38-.37.64"/>
  <path class="cls-7" d="M148.85,121.47c-.23-.13-.51-.13-.74,0"/>
  <path class="cls-7" d="M157.49,126.89c0-.27-.14-.51-.37-.64"/>
  <path class="cls-7" d="M157.12,137.08c.23-.13.37-.38.37-.64"/>
  <path class="cls-7" d="M148.1,141.86c.23.13.51.13.74,0"/>
  <path class="cls-7" d="M139.46,136.44c0,.27.14.51.37.64"/>
  <path class="cls-7" d="M84.22,112.92c-3.11-6.97-10.03-11.45-17.66-11.45"/>
  <path class="cls-7" d="M63.2,101.47c-7.63,0-14.55,4.49-17.66,11.45"/>
  <path class="cls-7" d="M70.46,98.49c0,.99.01,1.98.03,2.97"/>
  <path class="cls-7" d="M74.47,98.49c-.06,1.55-.09,3.09-.08,4.64"/>
  <path class="cls-7" d="M199.59,97.3c1.3,0,2.6-.03,3.89-.1"/>
  <path class="cls-7" d="M158.66,107.29c14.16,4.88,29.86,1.63,40.91-8.49"/>
  <path class="cls-7" d="M153.96,107.29c.49,1.83,1.36,4.02,2.35,5.63"/>
  <path class="cls-7" d="M199.57,98.8c.51-.47.99-.97,1.42-1.5"/>
  <path class="cls-7" d="M254.53,83.92c0-.82-.67-1.49-1.49-1.49"/>
  <path class="cls-7" d="M238.09,99.58c.73-.09,1.29-.7,1.31-1.44"/>
  <path class="cls-7" d="M229.52,98.98c.01.42.2.81.52,1.09.32.27.73.4,1.15.35"/>
  <path class="cls-7" d="M248.64,94.84c.23-.01.41-.2.42-.43"/>
  <path class="cls-7" d="M81.22,102.27c-.92-2.53-3.32-4.21-6.01-4.21"/>
  <path class="cls-7" d="M81.73,103.66c.79,2.17,2.86,3.62,5.17,3.62"/>
  <path class="cls-7" d="M17.32,112.92c-1.2,0-2.19.95-2.23,2.15"/>
  <path class="cls-7" d="M16.54,82.43c-.39,0-.77.16-1.05.44-.28.28-.44.66-.44,1.05"/>
  <path class="cls-7" d="M20.61,96.87c0,.24.21.43.45.43"/>
  <path class="cls-7" d="M247.99,154.32c-.08.03-.36.13-.44.15-.25.06-.5.1-.75.1"/>
  <path class="cls-7" d="M249.02,153.85c-.08.04-.16.08-.24.12-.26.13-.52.25-.79.35"/>
  <path class="cls-7" d="M241.52,148.1c.22,0,.44,0,.66,0,.22,0,.44,0,.65,0,.22,0,.43,0,.65,0,.22,0,.43,0,.65,0,.42,0,.85,0,1.27,0,.41,0,.82,0,1.24,0,.4,0,.79,0,1.19,0,.38,0,.75,0,1.13,0,.35,0,.7,0,1.05,0,.32,0,.65,0,.97,0,.29,0,.59,0,.88,0,.26,0,.52,0,.78,0,.23,0,.45,0,.67,0,.1,0,.2,0,.3,0,.09,0,.18,0,.27,0,.08,0,.16,0,.24,0,.07,0,.14,0,.21,0,.06,0,.12,0,.17,0,.05,0,.1,0,.14,0,.02,0,.04,0,.06,0,.02,0,.03,0,.05,0,.01,0,.03,0,.04,0,.01,0,.02,0,.04,0,0,0,.02,0,.03,0,0,0,.01,0,.02,0,0,0,0,0,.01,0,0,0,0,0,0,0"/>
  <line class="cls-7" x1="196.82" y1="148.1" x2="241.52" y2="148.1"/>
  <path class="cls-7" d="M22.79,154.57c-.09,0-.17,0-.26-.01-.25-.02-.5-.08-.74-.16"/>
  <line class="cls-7" x1="28.06" y1="148.1" x2="196.82" y2="148.1"/>
  <path class="cls-7" d="M14.68,148.1c0,.17.04.33.1.49.06.16.15.3.26.43"/>
  <path class="cls-7" d="M14.68,148.1s0,0,0,0c0,0,0,0,.01,0,0,0,.01,0,.02,0,0,0,.02,0,.03,0,.01,0,.02,0,.04,0,.01,0,.03,0,.04,0,.02,0,.03,0,.05,0,.02,0,.04,0,.06,0,.05,0,.1,0,.14,0,.06,0,.12,0,.17,0,.07,0,.14,0,.21,0,.08,0,.16,0,.24,0,.09,0,.18,0,.27,0,.1,0,.2,0,.3,0,.23,0,.45,0,.67,0,.26,0,.52,0,.78,0,.29,0,.59,0,.88,0,.32,0,.65,0,.97,0,.35,0,.7,0,1.05,0,.38,0,.75,0,1.13,0,.4,0,.79,0,1.19,0,.41,0,.82,0,1.24,0,.42,0,.85,0,1.27,0,.22,0,.43,0,.65,0,.22,0,.43,0,.65,0,.22,0,.44,0,.65,0,.22,0,.44,0,.66,0"/>
  <path class="cls-7" d="M62.09,98.06c-.41,0-.83-.06-1.22-.19-.39-.13-.77-.31-1.1-.55"/>
  <path class="cls-7" d="M190.62,112.92c.83-1.37,1.5-2.84,1.99-4.37.49-1.53.79-3.55.89-5.15"/>
  <g>
    <path class="cls-50" d="M198.04,129.5h-1.48c-.12,0-.2.02-.25.07-.05.05-.07.13-.07.23v.71h1.58v.67h-1.58v1.74h-.92v-3.3c0-.26.08-.47.25-.63.17-.15.39-.23.66-.23.88,0,1.5.02,1.86.07l-.05.67Z"/>
    <path class="cls-50" d="M198.9,129.16c.26-.31.72-.46,1.38-.46s1.13.15,1.39.46c.26.31.39.87.39,1.69s-.13,1.38-.39,1.69c-.26.31-.72.46-1.39.46s-1.12-.15-1.38-.46-.39-.87-.39-1.69.13-1.38.39-1.69ZM200.92,129.73c-.11-.2-.33-.29-.64-.29s-.52.1-.64.29c-.11.2-.17.57-.17,1.12s.06.92.17,1.12c.11.2.33.29.64.29s.53-.1.64-.29c.11-.2.17-.57.17-1.12s-.06-.92-.17-1.12Z"/>
    <path class="cls-50" d="M203.01,129.16c.26-.31.72-.46,1.38-.46s1.13.15,1.39.46c.26.31.39.87.39,1.69s-.13,1.38-.39,1.69c-.26.31-.72.46-1.39.46s-1.12-.15-1.38-.46-.39-.87-.39-1.69.13-1.38.39-1.69ZM205.03,129.73c-.11-.2-.33-.29-.64-.29s-.52.1-.64.29c-.11.2-.17.57-.17,1.12s.06.92.17,1.12c.11.2.33.29.64.29s.53-.1.64-.29c.11-.2.17-.57.17-1.12s-.06-.92-.17-1.12Z"/>
    <path class="cls-50" d="M209.94,129.52h-1.24v3.4h-.92v-3.4h-1.24v-.74h3.39v.74Z"/>
    <path class="cls-50" d="M212,131.35l-.83-.29c-.31-.11-.53-.26-.66-.46-.13-.19-.2-.44-.2-.76,0-.46.11-.76.33-.92.22-.15.61-.23,1.17-.23.53,0,.98.05,1.36.16l-.06.62c-.35-.01-.78-.02-1.3-.02-.24,0-.4.02-.48.06s-.12.15-.12.31c0,.14.03.23.09.29.06.06.17.12.34.17l.79.27c.32.11.55.26.68.46.13.19.2.45.2.76,0,.46-.11.78-.34.95-.22.17-.62.25-1.2.25-.47,0-.94-.05-1.42-.16l.05-.66c.85.02,1.31.03,1.37.03.24,0,.41-.03.49-.08s.12-.16.12-.32c0-.14-.03-.24-.08-.3-.06-.06-.16-.11-.31-.16Z"/>
    <path class="cls-50" d="M219.22,128.78l-.65,3.89c-.02.08-.05.14-.11.18s-.13.07-.22.07h-.88c-.08,0-.16-.02-.22-.07s-.1-.11-.11-.19l-.45-2.71c-.03-.18-.06-.35-.07-.52h-.11s0,.09-.03.22c-.02.14-.03.24-.04.31l-.44,2.7c-.01.08-.05.14-.11.19s-.13.07-.22.07h-.88c-.08,0-.15-.02-.21-.07s-.1-.11-.12-.18l-.65-3.89h.94l.4,2.87c.02.18.04.38.05.6h.12c.01-.11.04-.31.09-.6l.44-2.59c.01-.08.05-.15.1-.2.06-.05.13-.08.22-.08h.79c.08,0,.16.03.21.08.06.05.09.12.11.2l.44,2.6c.05.3.08.49.08.59h.13c.02-.23.03-.42.05-.59l.41-2.89h.93Z"/>
    <path class="cls-50" d="M220.71,132.92h-.91v-4.14h.91v4.14Z"/>
    <path class="cls-50" d="M224.63,129.52h-1.24v3.4h-.92v-3.4h-1.24v-.74h3.39v.74Z"/>
    <path class="cls-50" d="M228.01,132.14l.08.68c-.36.11-.8.17-1.33.17-.64,0-1.09-.16-1.35-.48-.26-.32-.39-.87-.39-1.66s.13-1.34.39-1.66c.26-.32.71-.48,1.35-.48.46,0,.88.05,1.24.14l-.08.68c-.32-.02-.71-.03-1.16-.03-.3,0-.5.09-.61.29-.11.19-.17.54-.17,1.06s.05.88.17,1.07c.11.19.31.29.61.29.56,0,.97-.02,1.25-.05Z"/>
    <path class="cls-50" d="M231.96,128.78v4.14h-.91v-1.85h-1.46v1.85h-.91v-4.14h.91v1.58h1.46v-1.58h.91Z"/>
  </g>
  <g>
    <path class="cls-50" d="M127,132.22l.04.67c-.38.04-1.02.06-1.92.06-.28,0-.5-.07-.66-.22-.16-.15-.25-.35-.25-.61v-2.51c0-.26.09-.46.25-.61.16-.15.38-.23.66-.23.9,0,1.54.02,1.92.06l-.04.68h-1.59c-.1,0-.17.02-.22.07-.04.05-.07.13-.07.23v.63h1.65v.66h-1.65v.8c0,.11.02.19.07.24.04.05.12.07.22.07h1.59Z"/>
    <path class="cls-50" d="M129.24,131.09h-.07l-.88,1.84h-.94l1.08-2.12-1-2.02h.94l.8,1.71h.09l.8-1.71h.94l-1,2.02,1.08,2.12h-.95l-.88-1.84Z"/>
    <path class="cls-50" d="M131.55,132.93v-4.14c.37-.04.9-.05,1.57-.05.58,0,.98.09,1.19.28.21.19.32.54.32,1.07s-.1.88-.3,1.07c-.2.19-.57.29-1.09.29-.26,0-.52-.02-.78-.05v1.54h-.91ZM132.46,130.74h.64c.24,0,.4-.05.48-.14s.13-.26.13-.52-.04-.43-.13-.52c-.09-.09-.25-.13-.48-.13h-.64v1.3Z"/>
  </g>
  <path class="cls-50" d="M46.64,130.69h.38l-.83-3.07h0c-.03-.11-.07-.2-.13-.28-.06-.08-.13-.16-.22-.22-.09-.07-.19-.12-.29-.15-.1-.03-.21-.05-.32-.05s-.23.02-.33.05c-.1.03-.2.08-.29.15-.09.07-.16.14-.22.22-.06.08-.1.18-.13.28h0s-.83,3.08-.83,3.08h.38l.09-.33.09-.35h2.46l.09.35.09.33ZM45.82,127.65l.41,1.54.16.59h-2.32l.16-.59.41-1.54h0c.03-.13.09-.23.17-.31.12-.12.26-.17.42-.17s.3.06.42.17c.08.08.14.18.17.31h0ZM54.01,130.69h.37v-3.06c0-.1-.02-.19-.06-.26-.04-.08-.12-.16-.22-.24h0c-.1-.07-.21-.13-.32-.16-.11-.04-.24-.05-.37-.05-.12,0-.23.02-.34.05-.1.03-.2.09-.3.15-.09.07-.17.15-.22.23-.05.08-.09.17-.11.27l-.24,1.31h0c-.06.32-.25.48-.57.48s-.51-.16-.57-.48l-.24-1.31c-.02-.1-.05-.19-.11-.27-.05-.08-.13-.16-.22-.23-.18-.14-.39-.2-.63-.2-.13,0-.26.02-.37.05-.11.04-.22.09-.32.16h0c-.18.14-.28.3-.28.5v3.06h.37v-3.02c0-.17.06-.31.18-.42h0c.11-.1.24-.15.39-.15s.29.05.4.15h0c.1.1.17.22.19.36h0s.25,1.33.25,1.33h0c.02.11.06.21.11.29h0c.05.08.12.15.21.21h0c.09.06.18.11.28.14.1.03.21.05.34.05s.24-.02.34-.05c.1-.03.19-.08.28-.14h0c.09-.06.16-.14.21-.21.05-.08.09-.18.11-.29l.25-1.35h0c.03-.15.09-.27.2-.36.11-.1.24-.14.39-.14.39,0,.58.19.58.57v3.02ZM59.6,128.65c.05-.11.07-.23.07-.37v-.28c0-.14-.02-.26-.07-.38-.05-.11-.13-.22-.23-.32-.11-.1-.22-.17-.34-.22-.12-.05-.25-.07-.4-.07h-2.25v3.68h.37v-1.44h1.87c.15,0,.28-.02.4-.07h0c.12-.05.24-.12.35-.22.1-.1.18-.2.23-.31ZM59.3,127.98v.28c0,.08-.01.16-.04.24h0c-.02.08-.06.15-.1.21h0c-.06.09-.13.16-.21.21-.1.06-.21.09-.32.09h-1.87v-1.76h1.87c.11,0,.22.03.32.09.08.05.16.12.22.2h0c.1.14.14.29.14.44ZM62.71,130.69h1.88v-.24h-1.88c-.11,0-.22-.03-.32-.09-.09-.05-.16-.13-.22-.22-.04-.06-.07-.13-.09-.2-.02-.08-.04-.15-.04-.23v-.74h2.55v-.24h-2.55v-.74c0-.08.01-.15.04-.23.02-.07.05-.14.09-.2h0c.06-.09.13-.16.22-.21h0c.1-.06.2-.09.32-.09h1.88v-.24h-1.88c-.15,0-.28.02-.4.07-.12.05-.23.12-.34.22h0c-.1.1-.18.2-.23.32-.05.11-.07.24-.07.38v1.72c0,.14.02.26.07.37.05.11.13.22.23.31.21.2.46.29.75.29ZM69.54,130.69h.3l-.22-.52h0c-.04-.09-.08-.17-.12-.26-.04-.08-.09-.16-.14-.24l-.23-.36.35-.26c.14-.1.24-.22.3-.34.06-.12.09-.26.09-.43v-.28c0-.14-.02-.26-.07-.38-.05-.11-.13-.22-.23-.32h0c-.11-.1-.22-.17-.34-.22-.12-.05-.25-.07-.4-.07h-2.25v3.68h.37v-3.44h1.87c.11,0,.22.03.32.08h0c.09.05.17.12.22.21h0c.04.06.07.13.1.2h0c.02.08.04.16.04.23v.28c0,.07-.01.15-.04.23-.02.07-.05.14-.09.21h0c-.06.09-.13.17-.22.22-.1.06-.21.09-.32.09h-.52v.24h.14c.18,0,.34.06.47.19.09.09.17.21.24.36h0s.38.89.38.89ZM75.12,130.08c.05-.11.07-.23.07-.37v-1.72c0-.14-.02-.26-.07-.38-.05-.11-.13-.22-.23-.32-.11-.1-.22-.17-.34-.22-.12-.05-.25-.07-.4-.07h-1.2c-.15,0-.28.02-.4.07-.12.05-.23.12-.34.22h0c-.1.1-.18.2-.23.32-.05.11-.07.24-.07.38v1.72c0,.14.02.26.07.37.05.11.13.22.23.31.21.2.46.29.75.29h1.2c.15,0,.28-.02.4-.07h0c.12-.05.24-.12.34-.22.1-.1.18-.2.23-.31ZM74.82,127.98v1.73c0,.08-.01.15-.04.23-.02.07-.05.13-.09.19h0c-.13.21-.31.32-.55.32h-1.2c-.12,0-.22-.03-.32-.09h0c-.09-.05-.16-.13-.22-.21h0c-.04-.07-.07-.13-.09-.2h0c-.02-.08-.04-.15-.04-.23v-1.73c0-.08.01-.15.04-.23h0c.02-.07.05-.14.09-.2h0c.13-.2.31-.3.54-.3h1.2c.11,0,.22.03.32.08h0c.09.05.17.12.23.21h0c.04.07.07.14.09.21h0c.02.08.04.16.04.23Z"/>
  <line class="cls-35" x1="37.03" y1="128.81" x2="37.36" y2="128.55"/>
  <line class="cls-35" x1="36.69" y1="129.07" x2="37.03" y2="128.81"/>
  <path class="cls-41" d="M34.18,131.13c-1.09-1.35-1.65-2.7-1.25-3.03.4-.33,1.62.5,2.71,1.84,1.09,1.35,1.65,2.7,1.25,3.03-.4.33-1.62-.5-2.71-1.84Z"/>
  <path class="cls-42" d="M33.9,131.35c-.9-1.1-1.36-2.22-1.03-2.49.33-.27,1.33.41,2.22,1.51.9,1.1,1.36,2.22,1.03,2.49-.33.27-1.33-.41-2.22-1.51Z"/>
  <path class="cls-39" d="M33.72,131.49c-.63-.78-.95-1.56-.72-1.75.23-.19.93.29,1.56,1.06.63.78.95,1.56.72,1.75-.23.19-.93-.29-1.56-1.06Z"/>
  <path class="cls-38" d="M33.59,131.59c-.3-.37-.46-.75-.35-.84.11-.09.45.14.75.51.3.37.46.75.35.84-.11.09-.45-.14-.75-.51Z"/>
  <path class="cls-36" d="M34.49,130.85c-1.23-1.52-1.86-3.05-1.41-3.41.45-.37,1.82.56,3.05,2.08,1.23,1.52,1.86,3.04,1.41,3.41-.45.37-1.82-.56-3.05-2.08Z"/>
  <path class="cls-33" d="M34.95,130.5c-1.31-1.61-1.98-3.23-1.5-3.63.48-.39,1.93.6,3.24,2.21,1.31,1.61,1.98,3.24,1.5,3.63-.48.39-1.93-.6-3.24-2.21Z"/>
  <path class="cls-34" d="M40,126.63c-1.02-1.4-2.18-2.3-2.6-1.99-.42.3.06,1.69,1.08,3.09,1.02,1.4,2.18,2.3,2.6,1.99.42-.3-.06-1.69-1.08-3.09Z"/>
  <path class="cls-44" d="M40.29,126.41c-.83-1.15-1.79-1.89-2.14-1.64-.35.25.05,1.39.89,2.54.83,1.15,1.79,1.89,2.14,1.64.35-.25-.05-1.39-.89-2.54Z"/>
  <path class="cls-37" d="M40.48,126.29c-.59-.81-1.26-1.33-1.5-1.15-.24.18.04.98.62,1.79.59.81,1.26,1.33,1.5,1.15.24-.18-.04-.98-.62-1.79Z"/>
  <path class="cls-40" d="M40.56,126.16c-.28-.39-.61-.64-.72-.55-.12.08.02.47.3.86.28.39.61.64.72.55.12-.08-.02-.47-.3-.86Z"/>
  <path class="cls-45" d="M39.66,126.86c-1.15-1.58-2.46-2.59-2.93-2.25-.47.34.07,1.9,1.22,3.49,1.15,1.58,2.46,2.59,2.93,2.25.47-.34-.07-1.9-1.22-3.49Z"/>
  <path class="cls-43" d="M39.17,127.22c-1.22-1.68-2.61-2.75-3.12-2.39-.5.36.08,2.02,1.29,3.71,1.22,1.68,2.61,2.75,3.12,2.39.5-.36-.08-2.02-1.29-3.71Z"/>
  <path class="cls-50" d="M80.53,126.41h1.46l-.04.17h-.52l-1.2,4.47h.52l-.04.14h-1.46l.04-.14h.35l1.2-4.47h-.35l.04-.17ZM80.58,126.21h0c-.11,0-.22.09-.25.19l-.04.15h0c-.03.12.04.21.15.21h.15l-1.09,4.08h-.15c-.11,0-.22.09-.25.2l-.04.14h0,0c-.03.11.04.2.15.2h1.46c.11,0,.22-.09.25-.2l.04-.14h0c.03-.11-.04-.2-.15-.2h-.32l1.09-4.08h.33c.11,0,.22-.09.25-.2l.04-.17h0c.03-.11-.04-.2-.15-.2h-1.46Z"/>
  <path class="cls-50" d="M77.53,131.19l.04-.14h.52l1.2-4.47h-.52l.04-.17h1.46l-.04.17h-.35l-1.2,4.47h.35l-.04.14h-1.46ZM77.34,131.18h0c-.03.12.04.21.15.21h1.46c.11,0,.22-.09.25-.2l.04-.14h0,0c.03-.11-.04-.2-.15-.2h-.15l1.09-4.08h.15c.11,0,.22-.09.25-.2l.04-.15h0c.03-.12-.04-.21-.15-.21h-1.46c-.11,0-.22.09-.25.2l-.04.17h0c-.03.11.04.2.15.2h.32l-1.09,4.08h-.33c-.11,0-.22.09-.25.19l-.04.13Z"/>
  <path class="cls-50" d="M87.55,128.6c.05-.11.07-.23.07-.37v-.28c0-.14-.02-.26-.07-.37-.05-.11-.13-.22-.23-.31-.21-.2-.46-.3-.75-.3h-2.25v3.68h.37v-3.44h1.88c.11,0,.22.03.31.09.09.05.16.12.22.2h0c.09.14.14.29.14.45v.29c0,.08-.01.16-.04.24-.02.07-.06.14-.1.21-.06.09-.13.16-.22.21h0c-.1.06-.2.09-.32.09h-.52v.24h.52c.29,0,.54-.1.75-.3.1-.1.18-.2.23-.31M92.59,130.64h.3l-.22-.52h0c-.04-.09-.08-.18-.13-.27-.05-.09-.09-.16-.13-.22l-.24-.36.35-.26c.14-.1.24-.22.31-.35.06-.12.09-.27.09-.43v-.28c0-.14-.02-.26-.07-.37-.05-.11-.13-.22-.23-.31-.21-.2-.46-.3-.75-.3h-2.25v3.68h.37v-1.44h1.5c.18,0,.34.06.48.19.09.09.17.21.24.36h0s.38.89.38.89ZM92.55,127.94v.29c0,.07-.01.15-.04.23h0c-.02.07-.05.14-.09.21h0c-.06.09-.13.16-.22.21-.1.06-.2.09-.32.09h-1.88v-1.76h1.88c.11,0,.22.03.32.09.09.05.16.12.22.21h0c.04.07.07.14.09.21h0c.02.08.04.16.04.23ZM96.04,130.64h1.88v-.24h-1.88c-.12,0-.22-.03-.32-.09-.09-.05-.16-.13-.22-.22-.04-.06-.07-.13-.09-.2-.02-.08-.04-.15-.04-.23v-.74h2.55v-.24h-2.55v-.74c0-.08.01-.15.04-.23.02-.07.05-.14.09-.2h0c.06-.09.13-.16.22-.21h0c.1-.06.2-.09.32-.09h1.88v-.24h-1.88c-.15,0-.28.02-.4.07-.12.05-.23.12-.34.22h0c-.1.1-.18.2-.23.32-.05.11-.07.24-.07.38v1.72c0,.14.02.26.07.37.05.11.13.22.23.31.21.2.46.3.75.3ZM103.13,130.03c.05-.11.07-.24.07-.37s-.02-.26-.07-.37c-.05-.11-.13-.22-.23-.32-.1-.1-.22-.17-.34-.22-.12-.05-.26-.07-.41-.07h-1.2c-.11,0-.21-.03-.31-.08-.08-.05-.15-.11-.21-.19h0c-.1-.14-.15-.29-.15-.47,0-.08.01-.15.04-.23.02-.07.05-.14.09-.2h0c.06-.09.13-.16.22-.21h0c.1-.06.2-.09.32-.09h1.89v-.24h-1.89c-.15,0-.28.02-.4.07-.12.05-.23.12-.34.22-.1.1-.18.2-.23.32-.05.11-.07.24-.07.38s.02.26.07.37h0c.05.11.13.22.23.32.1.1.22.17.34.22.12.05.26.07.41.07h1.2c.11,0,.21.03.31.08.08.05.15.11.21.19h0c.1.14.15.29.15.47,0,.08-.01.15-.03.23-.02.07-.05.13-.09.19h0c-.06.09-.13.16-.21.22h0c-.1.07-.21.1-.33.1h-2.05v.24h2.04c.15,0,.28-.02.4-.07h0c.12-.05.24-.12.35-.22.1-.1.18-.2.23-.31ZM108.24,130.03c.05-.11.07-.24.07-.37s-.02-.26-.07-.37c-.05-.11-.13-.22-.23-.32-.1-.1-.22-.17-.34-.22-.12-.05-.26-.07-.41-.07h-1.2c-.11,0-.21-.03-.31-.08-.08-.05-.15-.11-.21-.19h0c-.1-.14-.15-.29-.15-.47,0-.08.01-.15.04-.23.02-.07.05-.14.09-.2h0c.06-.09.13-.16.22-.21h0c.1-.06.2-.09.32-.09h1.89v-.24h-1.89c-.15,0-.28.02-.4.07-.12.05-.23.12-.34.22-.1.1-.18.2-.23.32-.05.11-.07.24-.07.38s.02.26.07.37h0c.05.11.13.22.23.32.1.1.22.17.34.22.12.05.26.07.41.07h1.2c.11,0,.21.03.31.08.08.05.15.11.21.19h0c.1.14.15.29.15.47,0,.08-.01.15-.04.23-.02.07-.05.13-.09.19h0c-.06.09-.13.16-.21.22h0c-.1.07-.21.1-.33.1h-2.05v.24h2.04c.15,0,.28-.02.4-.07h0c.12-.05.24-.12.34-.22.1-.1.18-.2.23-.31Z"/>
  <path class="cls-52" d="M147.98,210.9v-79.23h.99v79.23h-.99ZM149.99,131.66v.08s0,.08,0,.08v.08s-.02.07-.02.07l-.02.07-.02.07-.02.07-.03.07-.03.07-.03.07-.04.06-.04.06-.04.06-.04.06-.05.06-.05.05-.05.05-.05.05-.06.05-.06.04-.06.04-.06.04-.07.03-.07.03-.07.03-.07.02-.07.02-.07.02h-.07s-.08.02-.08.02h-.08s-.08,0-.08,0h-.08s-.08,0-.08,0h-.08s-.07-.02-.07-.02l-.07-.02-.07-.02-.07-.02-.07-.03-.07-.03-.06-.03-.06-.04-.06-.04-.06-.04-.06-.05-.05-.05-.05-.05-.05-.05-.05-.06-.04-.06-.04-.06-.04-.06-.04-.06-.03-.07-.03-.07-.03-.07-.02-.07-.02-.07-.02-.07v-.07s-.02-.08-.02-.08v-.08s0-.08,0-.08v-.08s0-.08,0-.08v-.08s.02-.07.02-.07l.02-.07.02-.07.02-.07.03-.07.03-.07.03-.07.04-.06.04-.06.04-.06.04-.06.05-.06.05-.05.05-.05.05-.05.06-.05.06-.04.06-.04.06-.04.06-.03.07-.03.07-.03.07-.02.07-.02.07-.02h.07s.08-.02.08-.02h.08s.08,0,.08,0h.08s.08,0,.08,0h.08s.07.02.07.02l.07.02.07.02.07.02.07.03.07.03.07.03.06.04.06.04.06.04.06.05.05.05.05.05.05.05.05.06.04.06.04.06.04.06.04.06.03.07.03.07.03.07.02.07.02.07.02.07v.07s.02.08.02.08v.08s0,.08,0,.08Z"/>
  <path class="cls-51" d="M178.94,131.66h0v-.08s0-.08,0-.08v-.08s.02-.07.02-.07l.02-.07.02-.07.02-.07.03-.07.03-.07.03-.07.04-.06.04-.06.04-.06.04-.06.05-.06.05-.05.05-.05.06-.05.06-.05.06-.04.06-.04.06-.04.06-.03.07-.03.07-.03.07-.02.07-.02.07-.02h.07s.08-.02.08-.02h.08s.08,0,.08,0h.08s.08,0,.08,0h.08s.07.02.07.02l.07.02.07.02.07.02.07.03.07.03.06.03.06.04.06.04.06.04.06.05.06.05.05.05.05.05.05.06.04.06.04.06.04.06.04.06.03.07.03.07.03.07.02.07.02.07.02.07v.07s.02.08.02.08v.08s0,.08,0,.08v.08s0,.08,0,.08v.08s-.02.07-.02.07l-.02.07-.02.07-.02.07-.03.07-.03.07-.03.07-.04.06-.04.06-.04.06-.04.06-.05.06-.05.05-.05.05-.06.05-.06.05-.06.04-.06.04-.06.04-.06.03-.07.03-.07.03-.07.02-.07.02-.07.02h-.07s-.08.02-.08.02h-.08s-.08,0-.08,0h-.08s-.08,0-.08,0h-.08s-.07-.02-.07-.02l-.07-.02-.07-.02-.07-.02-.07-.03-.07-.03-.06-.03-.06-.04-.06-.04-.06-.04-.06-.05-.06-.05-.05-.05-.05-.05-.05-.06-.04-.06-.04-.06-.04-.06-.04-.06-.03-.07-.03-.07-.03-.07-.02-.07-.02-.07-.02-.07v-.07s-.02-.08-.02-.08v-.08s0-.08,0-.08ZM180.95,131.66v48.93h-.99v-48.93h.99Z"/>
  <line class="cls-26" x1="354.79" y1="210.9" x2="310.39" y2="210.9"/>
  <line class="cls-27" x1="371.23" y1="180.59" x2="310.39" y2="180.59"/>
  <g>
    <path class="cls-50" d="M396.28,143.57h-1.7l-.41,1.3h-.55l1.33-4c.02-.1.09-.14.2-.14h.55c.11,0,.17.05.2.14l1.33,4h-.55l-.41-1.3ZM396.14,143.11l-.52-1.64c-.04-.1-.07-.22-.1-.34h-.17l-.1.34-.52,1.64h1.42Z"/>
    <path class="cls-50" d="M398.19,141.94l.03.46c.41-.36.81-.53,1.19-.53.41,0,.65.17.74.52.4-.34.79-.52,1.18-.52.25,0,.44.07.58.2.13.14.2.34.2.6v2.19h-.5v-2.05c0-.18-.04-.31-.11-.39-.07-.08-.19-.12-.35-.12-.14,0-.27.03-.4.1-.13.06-.32.18-.56.36v2.11h-.49v-2.05c0-.18-.04-.32-.11-.4-.07-.08-.19-.12-.34-.12-.14,0-.28.03-.41.1-.13.06-.32.18-.56.35v2.11h-.51v-2.92h.42Z"/>
    <path class="cls-50" d="M403.44,141.94l.04.47c.16-.17.34-.3.56-.4.22-.1.44-.14.65-.14.35,0,.6.13.76.38.16.26.24.64.24,1.16,0,.55-.09.94-.26,1.17-.18.23-.46.35-.84.35s-.74-.1-1.08-.3c.01.14.02.33.02.59v.85h-.51v-4.13h.42ZM403.53,142.77v1.55c.41.12.72.18.94.18.26,0,.45-.07.55-.22.1-.15.16-.43.16-.85s-.05-.69-.15-.86c-.1-.16-.26-.25-.5-.25-.15,0-.3.04-.45.1-.15.07-.33.19-.54.35Z"/>
    <path class="cls-50" d="M408.26,143.65h-1.36c.03.34.11.56.25.68.14.12.36.17.68.17.33,0,.67-.02,1.01-.07l.05.34c-.26.11-.64.16-1.13.16s-.86-.12-1.08-.35c-.21-.23-.32-.63-.32-1.19s.1-.96.31-1.19c.21-.23.55-.34,1.03-.34.44,0,.75.08.95.24s.3.4.3.72c0,.55-.22.83-.7.83ZM406.89,143.26h1.24c.21,0,.32-.14.32-.43,0-.19-.06-.32-.17-.4-.11-.08-.29-.12-.55-.12-.31,0-.52.07-.64.2-.12.13-.18.39-.19.75Z"/>
    <path class="cls-50" d="M411.55,141.87l-.06.48h-.17c-.15,0-.3.03-.46.09-.16.06-.37.15-.63.29v2.14h-.51v-2.92h.4l.05.46c.45-.36.87-.53,1.25-.53h.13Z"/>
    <path class="cls-50" d="M413.37,141.87c.5,0,.86.12,1.06.35.21.23.31.63.31,1.19s-.1.96-.31,1.19c-.21.23-.56.35-1.06.35s-.85-.12-1.06-.35c-.21-.23-.31-.63-.31-1.19s.1-.96.31-1.19c.21-.23.56-.35,1.06-.35ZM414.03,142.54c-.12-.16-.34-.23-.66-.23s-.54.08-.66.23-.18.45-.18.87.06.71.18.87.34.23.66.23.54-.08.66-.23.18-.45.18-.87-.06-.71-.18-.87Z"/>
    <path class="cls-50" d="M417.46,144.87h-.53v-4.14h.53v4.14Z"/>
    <path class="cls-50" d="M419.03,144.87h-.53v-4.14h.53v4.14Z"/>
    <path class="cls-50" d="M422.89,143.11l-.86-.22c-.29-.07-.5-.2-.63-.39-.13-.19-.19-.44-.19-.76,0-.24.02-.43.08-.58.05-.15.14-.26.26-.33.12-.07.26-.12.41-.15.15-.02.35-.04.6-.04.49,0,.9.05,1.23.12l-.04.38c-.39-.02-.78-.03-1.17-.03-.18,0-.31,0-.39.01-.08,0-.17.03-.25.07-.08.04-.13.1-.16.19-.03.09-.04.21-.04.36,0,.22.04.38.12.47.08.09.21.16.4.21l.84.21c.31.08.52.21.65.39.12.18.19.44.19.77,0,.46-.1.76-.31.91-.21.15-.57.22-1.08.22-.44,0-.86-.04-1.28-.11l.04-.39c.67.02,1.09.03,1.27.03.33,0,.55-.04.66-.13.11-.08.17-.26.17-.54,0-.23-.04-.39-.12-.48s-.21-.16-.41-.21Z"/>
    <path class="cls-50" d="M425.46,142.35v1.72c0,.14.03.24.09.3.06.06.16.09.31.09h.44l.06.39c-.18.05-.4.08-.66.08s-.43-.07-.56-.2c-.13-.14-.19-.33-.19-.59v-1.78h-.53v-.37l.53-.02v-.87h.51v.86h.93v.4h-.93Z"/>
    <path class="cls-50" d="M427.03,142.38l-.05-.38c.54-.09,1.01-.13,1.41-.13.34,0,.59.07.76.21.16.14.25.38.25.72v2.06h-.4l-.06-.48c-.14.14-.31.26-.52.37-.21.11-.44.16-.68.16-.27,0-.48-.07-.64-.21-.16-.14-.24-.34-.24-.6v-.32c0-.23.07-.41.21-.53.14-.13.34-.19.6-.19h1.22v-.26c0-.18-.04-.31-.13-.39s-.24-.11-.47-.11c-.29,0-.71.03-1.25.08ZM427.37,143.86v.19c0,.15.04.26.11.33.07.07.19.11.35.11.15,0,.33-.03.52-.11.19-.08.37-.19.53-.33v-.59h-1.13c-.14,0-.23.04-.29.11-.06.07-.09.17-.09.29Z"/>
    <path class="cls-50" d="M433.02,142.23l-.43.04c.08.13.12.31.12.54,0,.33-.09.57-.28.71-.19.15-.51.22-.97.22-.22,0-.43-.02-.61-.06-.08.09-.1.19-.07.3.03.11.12.18.27.2l1.09.17c.27.04.46.12.57.25s.17.32.17.57c0,.34-.1.58-.3.71-.2.13-.57.2-1.09.2s-.9-.07-1.1-.2-.31-.36-.31-.69c0-.17.04-.31.11-.41.07-.1.19-.2.37-.29-.15-.12-.22-.27-.2-.46.01-.19.09-.34.23-.45-.25-.13-.37-.39-.37-.76,0-.34.09-.58.28-.72.19-.14.51-.22.97-.22.28,0,.5.02.68.07h.91l-.03.28ZM431.88,144.73l-1-.14c-.2.16-.31.34-.31.56,0,.2.06.34.18.4.12.06.36.1.73.1s.59-.03.72-.1c.12-.07.18-.2.18-.4,0-.14-.03-.24-.09-.29-.06-.05-.2-.09-.41-.13ZM430.85,143.22c.12.08.32.12.61.12s.49-.04.61-.12c.12-.08.17-.22.17-.42s-.06-.33-.17-.42c-.11-.08-.32-.12-.61-.12s-.49.04-.61.12c-.12.08-.17.22-.17.42s.06.34.17.42Z"/>
    <path class="cls-50" d="M435.41,143.65h-1.36c.03.34.11.56.25.68.14.12.36.17.68.17.33,0,.67-.02,1.01-.07l.05.34c-.26.11-.64.16-1.13.16s-.86-.12-1.08-.35c-.21-.23-.32-.63-.32-1.19s.1-.96.31-1.19c.21-.23.55-.34,1.03-.34.44,0,.75.08.95.24s.3.4.3.72c0,.55-.22.83-.7.83ZM434.04,143.26h1.24c.21,0,.32-.14.32-.43,0-.19-.06-.32-.17-.4-.11-.08-.29-.12-.55-.12-.31,0-.52.07-.64.2-.12.13-.18.39-.19.75Z"/>
  </g>
  <rect class="cls-10" x="282.96" y="206.74" width="27.43" height="8.31" rx="1.57" ry="1.57"/>
  <line class="cls-10" x1="308.82" y1="215.05" x2="308.82" y2="206.74"/>
  <line class="cls-10" x1="284.53" y1="215.05" x2="284.53" y2="206.74"/>
  <polyline class="cls-1" points="261.31 213.15 259.98 211.92 257.86 211.92 256.84 213.2 253.69 210.92"/>
  <polyline class="cls-1" points="261.31 208.68 259.98 209.91 257.86 209.91 256.84 208.63 253.69 210.92"/>
  <line class="cls-12" x1="261.31" y1="213.15" x2="282.96" y2="213.15"/>
  <line class="cls-12" x1="261.31" y1="208.68" x2="282.96" y2="208.68"/>
  <line class="cls-12" x1="265.56" y1="213.09" x2="265.56" y2="208.68"/>
  <line class="cls-11" x1="272.73" y1="213.06" x2="272.73" y2="208.76"/>
  <g>
    <path class="cls-50" d="M255.94,174.03h-.44v-2.74c0-.12,0-.22.02-.3l-.84.27-.06-.33.88-.36h.44v3.45Z"/>
    <path class="cls-50" d="M256.98,174.36h-.35l1.96-3.78h.35l-1.96,3.78Z"/>
    <path class="cls-50" d="M261.94,173.14l-.45.04v.84h-.42v-.84h-1.43c-.14,0-.25-.06-.31-.17-.07-.11-.07-.24-.02-.37l.98-2.07h.44l-.97,2.04c-.03.07-.03.12,0,.15.02.04.07.05.13.05h1.19v-1.01l.08-.57h.34v1.58h.45v.32Z"/>
    <path class="cls-50" d="M262.83,171.66h-.29l-.03-1.08h.35l-.03,1.08Z"/>
    <path class="cls-50" d="M263.87,171.66h-.29l-.03-1.08h.35l-.03,1.08Z"/>
    <path class="cls-50" d="M265.83,170.08l.05.21c-.33.16-.57.42-.72.78s-.23.83-.23,1.4c0,1.13.32,1.86.96,2.19l-.05.21c-.45-.17-.79-.45-1-.84-.21-.39-.32-.9-.32-1.54s.11-1.16.32-1.55c.21-.39.54-.67,1-.84Z"/>
    <path class="cls-50" d="M268.41,170.6l-.04.32c-.15-.01-.37-.02-.66-.02-.17,0-.31.01-.41.04s-.19.09-.27.18c-.08.09-.13.21-.17.38-.03.16-.05.38-.06.65.12-.13.25-.23.38-.28s.3-.08.49-.08c.36,0,.61.08.74.25.13.17.2.46.2.88,0,.19-.01.36-.04.49-.03.13-.08.25-.15.36-.08.11-.19.19-.33.25-.15.05-.34.08-.56.08-.2,0-.37-.02-.5-.05-.13-.04-.24-.09-.33-.17s-.16-.18-.21-.32c-.05-.14-.08-.3-.1-.48s-.03-.41-.03-.68c0-.32.02-.6.05-.82.04-.22.09-.4.15-.54.07-.14.16-.25.27-.32s.24-.13.37-.15c.13-.03.3-.04.49-.04.28,0,.51.02.7.08ZM267.54,173.72c.28,0,.46-.06.54-.18s.12-.33.12-.62-.04-.49-.13-.61c-.09-.12-.26-.17-.51-.17-.14,0-.27.02-.38.07s-.24.13-.38.25c0,.21,0,.38.01.5,0,.12.03.24.05.35.03.11.07.19.12.24.06.05.13.09.21.12s.2.04.33.04Z"/>
    <path class="cls-50" d="M269.4,173.44h.14c.06,0,.1.01.12.04s.04.06.04.12v.27c0,.06-.01.1-.04.12s-.06.04-.12.04h-.14c-.06,0-.1-.01-.12-.04-.03-.02-.04-.06-.04-.12v-.27c0-.06.01-.1.04-.12.02-.02.07-.04.12-.04Z"/>
    <path class="cls-50" d="M270.4,170.95l-.04-.34c.34-.06.66-.09.97-.09.39,0,.66.06.82.17.16.12.24.33.24.62,0,.51-.17.8-.51.87v.02c.21.04.37.13.46.27.09.14.14.34.15.59,0,.36-.07.62-.24.78-.17.16-.45.25-.85.25-.31,0-.68-.03-1.1-.09l.03-.35c.38.03.7.05.96.05.28,0,.48-.05.59-.15.12-.1.17-.27.17-.52,0-.21-.05-.37-.14-.48-.09-.11-.28-.16-.54-.16h-.64v-.35h.64c.25,0,.41-.06.49-.17.08-.11.12-.26.12-.46,0-.21-.05-.35-.15-.41-.1-.07-.28-.1-.55-.1s-.57.01-.88.04Z"/>
    <path class="cls-50" d="M275.11,170.96h-1.45l-.05.94.37.03c.46.03.78.13.97.29.19.16.28.42.28.79,0,.12,0,.23-.03.33-.02.1-.05.2-.1.29-.05.1-.11.18-.19.25s-.19.12-.32.16c-.13.04-.29.06-.48.06-.32,0-.66-.04-1.03-.12l.05-.35c.34.06.63.09.88.09.31,0,.51-.05.62-.17.1-.11.16-.29.17-.54,0-.11,0-.2-.02-.27-.01-.08-.05-.14-.09-.19-.05-.05-.09-.09-.14-.12s-.12-.05-.24-.07c-.11-.02-.21-.03-.3-.04-.09,0-.22-.02-.39-.03l-.23-.02s-.09-.03-.12-.06c-.03-.03-.05-.08-.04-.13l.08-1.48h1.83l-.02.38Z"/>
    <path class="cls-50" d="M276.25,171.6l.02.38c.34-.3.68-.45,1-.45.34,0,.54.14.62.43.33-.29.66-.43.98-.43.21,0,.37.06.48.17.11.11.17.28.17.5v1.83h-.42v-1.71c0-.15-.03-.26-.09-.33-.06-.07-.15-.1-.29-.1-.12,0-.23.03-.34.08-.11.05-.26.15-.46.3v1.75h-.41v-1.71c0-.15-.03-.26-.09-.33s-.16-.1-.29-.1c-.12,0-.23.03-.34.08-.11.05-.26.15-.46.29v1.76h-.43v-2.43h.35Z"/>
    <path class="cls-50" d="M280.63,171.6l.02.38c.34-.3.68-.45,1-.45.34,0,.54.14.62.43.33-.29.66-.43.98-.43.21,0,.37.06.48.17.11.11.17.28.17.5v1.83h-.42v-1.71c0-.15-.03-.26-.09-.33-.06-.07-.15-.1-.29-.1-.12,0-.23.03-.34.08-.11.05-.26.15-.46.3v1.75h-.41v-1.71c0-.15-.03-.26-.09-.33s-.16-.1-.29-.1c-.12,0-.23.03-.34.08-.11.05-.26.15-.46.29v1.76h-.43v-2.43h.35Z"/>
    <path class="cls-50" d="M284.43,170.29l.05-.21c.45.17.79.45,1,.84s.32.9.32,1.55-.11,1.16-.32,1.54-.55.67-1,.84l-.05-.21c.33-.17.57-.44.72-.79.15-.36.23-.82.23-1.39s-.08-1.04-.23-1.4-.39-.62-.72-.78Z"/>
    <path class="cls-50" d="M289.96,170.97h-1.12v3.06h-.44v-3.06h-1.11v-.39h2.67v.39Z"/>
    <path class="cls-50" d="M292.95,174.03h-.47l-.3-1.08c-.04-.13-.1-.22-.17-.28s-.17-.08-.29-.08-.26,0-.43,0c-.17,0-.28,0-.33,0v1.45h-.44v-3.45c.28-.03.68-.04,1.19-.04.41,0,.7.07.87.21.17.14.25.4.25.78,0,.28-.05.5-.15.63-.1.14-.26.23-.49.25v.03c.09.02.18.08.25.16.08.08.13.2.17.33l.33,1.09ZM290.95,172.21h.75c.26,0,.44-.05.54-.14s.14-.26.14-.51-.05-.42-.14-.51-.28-.13-.54-.13c-.37,0-.62,0-.75,0v1.29Z"/>
    <path class="cls-50" d="M294.84,172.57l-.71-.18c-.24-.06-.42-.17-.52-.32-.11-.15-.16-.37-.16-.64,0-.2.02-.36.06-.48.04-.12.11-.21.21-.28s.21-.1.34-.12c.12-.02.29-.03.5-.03.41,0,.75.04,1.03.1l-.03.32c-.32-.02-.65-.03-.97-.03-.15,0-.25,0-.33,0-.07,0-.14.03-.21.06s-.11.09-.13.16c-.02.07-.03.17-.03.3,0,.18.03.31.1.39.07.08.18.13.34.17l.7.18c.26.06.44.17.54.32.1.15.16.37.16.65,0,.38-.09.63-.26.75-.17.12-.47.18-.9.18-.36,0-.72-.03-1.07-.09l.03-.33c.56.02.91.03,1.05.03.27,0,.46-.04.55-.11.09-.07.14-.22.14-.45,0-.19-.03-.32-.1-.4-.07-.08-.18-.13-.34-.17Z"/>
    <path class="cls-50" d="M299.71,173.65l.04.33c-.28.08-.61.11-1.01.11-.5,0-.85-.13-1.05-.4-.2-.27-.31-.73-.31-1.38s.1-1.12.31-1.39c.2-.27.55-.4,1.05-.4.36,0,.67.03.94.1l-.04.33c-.3-.03-.6-.04-.89-.04-.34,0-.57.1-.7.3-.13.2-.19.57-.19,1.09s.06.89.19,1.09c.13.2.36.3.7.3.39,0,.71-.02.96-.05Z"/>
    <path class="cls-50" d="M300.35,171.96l-.04-.31c.45-.07.84-.11,1.17-.11.28,0,.49.06.63.18s.21.32.21.6v1.71h-.33l-.05-.4c-.12.12-.26.22-.44.31s-.36.13-.57.13c-.22,0-.4-.06-.53-.18-.13-.12-.2-.29-.2-.5v-.27c0-.19.06-.34.18-.44.12-.1.28-.16.5-.16h1.02v-.21c0-.15-.04-.26-.11-.33s-.2-.09-.39-.09c-.24,0-.59.02-1.04.06ZM300.63,173.19v.16c0,.13.03.22.09.28.06.06.16.09.29.09.13,0,.27-.03.43-.09.16-.06.31-.16.44-.27v-.49h-.94c-.11,0-.19.03-.24.09-.05.06-.07.14-.07.25Z"/>
    <path class="cls-50" d="M303.49,170.53v.91c0,.23-.01.41-.04.54.29-.3.6-.45.94-.45.3,0,.53.1.67.3s.21.52.21.97-.08.76-.24.97c-.16.21-.44.31-.84.31s-.79-.06-1.12-.17v-3.38h.42ZM303.49,172.27v1.38c.22.06.45.09.69.08.24,0,.4-.07.5-.21.1-.13.15-.37.15-.72,0-.34-.04-.58-.12-.71-.08-.13-.23-.19-.46-.19-.12,0-.23.03-.34.08-.11.06-.24.15-.41.28Z"/>
    <path class="cls-50" d="M306.36,170.53v2.83c0,.11.02.19.08.24.06.06.14.08.25.08h.23l.05.33c-.09.04-.24.06-.44.06-.18,0-.33-.05-.44-.16-.11-.11-.16-.26-.16-.46v-2.92h.43Z"/>
    <path class="cls-50" d="M308.88,173.02h-1.14c.02.28.09.47.21.56s.3.15.57.15.56-.02.84-.06l.04.29c-.22.09-.53.13-.95.13s-.72-.1-.9-.29c-.18-.2-.27-.53-.27-.99s.09-.8.26-.99c.17-.19.46-.28.86-.28.36,0,.63.07.79.2.17.13.25.33.25.6,0,.46-.19.69-.58.69ZM307.74,172.69h1.03c.18,0,.26-.12.26-.36,0-.16-.05-.27-.14-.33s-.24-.1-.46-.1c-.26,0-.44.06-.54.17-.1.11-.15.32-.16.63Z"/>
  </g>
  <rect class="cls-8" x="369.16" y="154.14" width="4.16" height="13.71" rx=".79" ry=".79"/>
  <line class="cls-8" x1="369.16" y1="167.07" x2="373.31" y2="167.07"/>
  <line class="cls-8" x1="369.16" y1="154.92" x2="373.31" y2="154.92"/>
  <polyline class="cls-30" points="370.11 143.31 370.72 142.65 370.72 141.59 370.09 141.08 371.23 139.51"/>
  <polyline class="cls-30" points="372.35 143.31 371.73 142.65 371.73 141.59 372.37 141.08 371.23 139.51"/>
  <line class="cls-4" x1="370.1" y1="143.31" x2="370.1" y2="154.14"/>
  <line class="cls-4" x1="372.34" y1="143.31" x2="372.34" y2="154.14"/>
  <line class="cls-4" x1="370.13" y1="145.44" x2="372.34" y2="145.44"/>
  <rect class="cls-8" x="352.71" y="154.14" width="4.16" height="13.71" rx=".79" ry=".79"/>
  <line class="cls-8" x1="352.71" y1="167.07" x2="356.86" y2="167.07"/>
  <line class="cls-8" x1="352.71" y1="154.92" x2="356.86" y2="154.92"/>
  <polyline class="cls-30" points="353.66 143.31 354.27 142.65 354.27 141.59 353.63 141.08 354.78 139.51"/>
  <polyline class="cls-30" points="355.9 143.31 355.28 142.65 355.28 141.59 355.92 141.08 354.78 139.51"/>
  <line class="cls-5" x1="353.66" y1="143.31" x2="353.66" y2="154.14"/>
  <line class="cls-5" x1="355.9" y1="143.31" x2="355.9" y2="154.14"/>
  <line class="cls-5" x1="353.69" y1="145.44" x2="355.9" y2="145.44"/>
  <line class="cls-6" x1="353.71" y1="149.02" x2="355.86" y2="149.02"/>
  <path class="cls-51" d="M180.45,180.09h68.5v.99h-68.5v-.99ZM248.96,182.1h-.08s-.08,0-.08,0h-.08s-.07-.02-.07-.02l-.07-.02-.07-.02-.07-.02-.07-.03-.07-.03-.07-.03-.06-.04-.06-.04-.06-.04-.06-.04-.05-.05-.05-.05-.05-.05-.05-.05-.05-.06-.04-.06-.04-.06-.04-.06-.03-.06-.03-.07-.03-.07-.02-.07-.02-.07-.02-.07v-.07s-.02-.08-.02-.08v-.08s0-.08,0-.08v-.08s0-.08,0-.08v-.08s.02-.07.02-.07l.02-.07.02-.07.02-.07.03-.07.03-.07.03-.06.04-.06.04-.06.04-.06.05-.06.05-.06.05-.05.05-.05.05-.05.06-.04.06-.04.06-.04.06-.04.07-.03.07-.03.07-.03.07-.02.07-.02.07-.02h.07s.08-.02.08-.02h.08s.08,0,.08,0h.08s.08,0,.08,0h.08s.07.02.07.02l.07.02.07.02.07.02.07.03.07.03.07.03.06.04.06.04.06.04.06.04.05.05.05.05.05.05.05.06.05.06.04.06.04.06.04.06.03.06.03.07.03.07.02.07.02.07.02.07v.07s.02.08.02.08v.08s0,.08,0,.08v.08s0,.08,0,.08v.08s-.02.07-.02.07l-.02.07-.02.07-.02.07-.03.07-.03.07-.03.06-.04.06-.04.06-.04.06-.05.06-.05.05-.05.05-.05.05-.05.05-.06.04-.06.04-.06.04-.06.04-.07.03-.07.03-.07.03-.07.02-.07.02-.07.02h-.07s-.08.02-.08.02h-.08s-.08,0-.08,0Z"/>
  <line class="cls-27" x1="371.23" y1="180.59" x2="371.23" y2="167.85"/>
  <line class="cls-26" x1="354.79" y1="210.9" x2="354.79" y2="167.85"/>
  <path class="cls-52" d="M148.47,210.4h100.48v.99h-100.48v-.99ZM248.96,212.41h-.08s-.08,0-.08,0h-.08s-.07-.02-.07-.02l-.07-.02-.07-.02-.07-.02-.07-.03-.07-.03-.07-.03-.06-.04-.06-.04-.06-.04-.06-.04-.05-.05-.05-.05-.05-.05-.05-.05-.05-.06-.04-.06-.04-.06-.04-.06-.03-.06-.03-.07-.03-.07-.02-.07-.02-.07-.02-.07v-.07s-.02-.08-.02-.08v-.08s0-.08,0-.08v-.08s0-.08,0-.08v-.08s.02-.07.02-.07l.02-.07.02-.07.02-.07.03-.07.03-.07.03-.06.04-.06.04-.06.04-.06.05-.06.05-.05.05-.05.05-.05.05-.05.06-.04.06-.04.06-.04.06-.04.07-.03.07-.03.07-.03.07-.02.07-.02.07-.02h.07s.08-.02.08-.02h.08s.08,0,.08,0h.08s.08,0,.08,0h.08s.07.02.07.02l.07.02.07.02.07.02.07.03.07.03.07.03.06.04.06.04.06.04.06.04.05.05.05.05.05.05.05.05.05.06.04.06.04.06.04.06.03.06.03.07.03.07.02.07.02.07.02.07v.07s.02.08.02.08v.08s0,.08,0,.08v.08s0,.08,0,.08v.08s-.02.07-.02.07l-.02.07-.02.07-.02.07-.03.07-.03.07-.03.06-.04.06-.04.06-.04.06-.05.06-.05.05-.05.05-.05.05-.05.05-.06.04-.06.04-.06.04-.06.04-.07.03-.07.03-.07.03-.07.02-.07.02-.07.02h-.07s-.08.02-.08.02h-.08s-.08,0-.08,0Z"/>
  <path class="cls-50" d="M149.45,119.48h-.91v-2.92c0-.18.01-.33.04-.45l-.97.25-.11-.61,1.04-.41h.91v4.14Z"/>
  <path class="cls-50" d="M179.06,116.14l-.04-.69c.46-.1.93-.14,1.39-.14s.81.07,1.04.2c.23.14.35.39.35.76,0,.25-.04.47-.13.66-.09.19-.27.43-.54.71l-1.06,1.1c.15-.03.36-.04.61-.04h1.24v.82h-2.93v-.51c0-.16.04-.28.13-.37l1.01-1.09c.5-.52.74-.91.74-1.18,0-.12-.05-.19-.13-.23-.08-.03-.23-.05-.43-.05-.42,0-.84.02-1.25.05Z"/>
  <g>
    <path class="cls-50" d="M355.53,112.29l.03.45c-.25.03-.68.04-1.28.04-.18,0-.33-.05-.44-.15-.11-.1-.17-.24-.17-.41v-1.67c0-.17.06-.31.17-.41s.26-.15.44-.15c.6,0,1.03.01,1.28.04l-.03.45h-1.06c-.07,0-.11.02-.14.05-.03.03-.04.08-.04.16v.42h1.1v.44h-1.1v.53c0,.07.01.13.04.16.03.03.08.05.14.05h1.06Z"/>
    <path class="cls-50" d="M357.02,111.53h-.05l-.59,1.23h-.63l.72-1.42-.66-1.34h.62l.53,1.14h.06l.53-1.14h.62l-.66,1.34.72,1.42h-.63l-.59-1.23Z"/>
    <path class="cls-50" d="M358.56,112.76v-2.76c.25-.02.6-.04,1.05-.04.39,0,.65.06.79.19s.21.36.21.71-.07.59-.2.71c-.13.13-.38.19-.73.19-.18,0-.35-.01-.52-.03v1.02h-.61ZM359.17,111.3h.43c.16,0,.26-.03.32-.09.06-.06.09-.17.09-.34s-.03-.29-.09-.34c-.06-.06-.16-.09-.32-.09h-.43v.87Z"/>
    <path class="cls-50" d="M361.29,113.05h-.47l1.57-3.05h.47l-1.57,3.05Z"/>
    <path class="cls-50" d="M365.12,112.25l.05.45c-.24.07-.54.11-.88.11-.43,0-.73-.11-.9-.32-.17-.21-.26-.58-.26-1.11s.09-.89.26-1.11c.17-.21.47-.32.9-.32.31,0,.59.03.83.09l-.05.46c-.22-.01-.47-.02-.78-.02-.2,0-.34.06-.41.19-.07.13-.11.36-.11.71s.04.58.11.71c.07.13.21.19.41.19.37,0,.65-.01.83-.04Z"/>
    <path class="cls-50" d="M367.62,110.5h-.82v2.26h-.61v-2.26h-.82v-.5h2.26v.5Z"/>
    <path class="cls-50" d="M370.14,112.76h-.64l-.21-.84c-.03-.09-.06-.15-.11-.18s-.11-.05-.19-.05h-.43s0,1.08,0,1.08h-.6v-2.76c.25-.02.6-.04,1.05-.04.37,0,.63.06.79.18.15.12.23.33.23.64,0,.2-.04.36-.12.48-.08.11-.22.18-.41.21v.02c.21.05.34.19.39.42l.24.86ZM368.57,111.21h.44c.16,0,.27-.03.33-.08.06-.05.09-.16.09-.31s-.03-.25-.09-.31c-.06-.05-.17-.08-.33-.08h-.44v.78Z"/>
    <path class="cls-50" d="M371.14,110v2.06c0,.07.02.12.05.16.03.03.09.05.17.05h.95l.03.46c-.27.03-.66.04-1.17.04-.21,0-.37-.05-.48-.16-.1-.11-.16-.25-.16-.43v-2.18h.61Z"/>
  </g>
  <path class="cls-50" d="M355.43,132.51h-.61v-1.94c0-.12,0-.22.02-.3l-.64.17-.07-.41.69-.28h.61v2.76Z"/>
  <path class="cls-50" d="M370.29,130.28l-.02-.46c.31-.06.62-.1.93-.1s.54.04.69.14.23.26.23.5c0,.17-.03.31-.09.44-.06.13-.18.29-.36.47l-.71.74c.1-.02.24-.03.41-.03h.83v.55h-1.96v-.34c0-.1.03-.19.09-.25l.68-.73c.33-.34.49-.61.49-.79,0-.08-.03-.13-.09-.15-.06-.02-.15-.03-.29-.03-.28,0-.56.01-.83.04Z"/>
  <path class="cls-9" d="M284.53,176.43h24.29c.87,0,1.57.7,1.57,1.57v5.17c0,.87-.7,1.57-1.57,1.57h-24.29c-.87,0-1.57-.7-1.57-1.57v-5.17c0-.87.7-1.57,1.57-1.57Z"/>
  <line class="cls-9" x1="308.82" y1="184.75" x2="308.82" y2="176.43"/>
  <line class="cls-9" x1="284.53" y1="184.75" x2="284.53" y2="176.43"/>
  <polyline class="cls-2" points="261.31 182.85 259.98 181.62 257.86 181.62 256.84 182.89 253.69 180.61"/>
  <polyline class="cls-2" points="261.31 178.37 259.98 179.6 257.86 179.6 256.84 178.32 253.69 180.61"/>
  <line class="cls-12" x1="261.31" y1="182.85" x2="282.96" y2="182.85"/>
  <line class="cls-12" x1="261.31" y1="178.37" x2="282.96" y2="178.37"/>
  <line class="cls-12" x1="265.56" y1="182.78" x2="265.56" y2="178.37"/>
  <line class="cls-11" x1="272.73" y1="182.85" x2="272.73" y2="178.55"/>
  <line class="cls-6" x1="370.1" y1="149.02" x2="372.25" y2="149.02"/>
  <g>
    <path class="cls-50" d="M255.94,204.55h-.44v-2.74c0-.12,0-.22.02-.3l-.84.27-.06-.33.88-.36h.44v3.45Z"/>
    <path class="cls-50" d="M256.98,204.88h-.35l1.96-3.78h.35l-1.96,3.78Z"/>
    <path class="cls-50" d="M261.94,203.66l-.45.04v.84h-.42v-.84h-1.43c-.14,0-.25-.06-.31-.17-.07-.11-.07-.24-.02-.37l.98-2.07h.44l-.97,2.04c-.03.07-.03.12,0,.15.02.04.07.05.13.05h1.19v-1.01l.08-.57h.34v1.58h.45v.32Z"/>
    <path class="cls-50" d="M262.83,202.17h-.29l-.03-1.08h.35l-.03,1.08Z"/>
    <path class="cls-50" d="M263.87,202.17h-.29l-.03-1.08h.35l-.03,1.08Z"/>
    <path class="cls-50" d="M265.83,200.6l.05.21c-.33.16-.57.42-.72.78s-.23.83-.23,1.4c0,1.13.32,1.86.96,2.19l-.05.21c-.45-.17-.79-.45-1-.84-.21-.39-.32-.9-.32-1.54s.11-1.16.32-1.55c.21-.39.54-.67,1-.84Z"/>
    <path class="cls-50" d="M268.41,201.11l-.04.32c-.15-.01-.37-.02-.66-.02-.17,0-.31.01-.41.04s-.19.09-.27.18c-.08.09-.13.21-.17.38-.03.16-.05.38-.06.65.12-.13.25-.23.38-.28s.3-.08.49-.08c.36,0,.61.08.74.25.13.17.2.46.2.88,0,.19-.01.36-.04.49-.03.13-.08.25-.15.36-.08.11-.19.19-.33.25-.15.05-.34.08-.56.08-.2,0-.37-.02-.5-.05-.13-.04-.24-.09-.33-.17s-.16-.18-.21-.32c-.05-.14-.08-.3-.1-.48s-.03-.41-.03-.68c0-.32.02-.6.05-.82.04-.22.09-.4.15-.54.07-.14.16-.25.27-.32s.24-.13.37-.15c.13-.03.3-.04.49-.04.28,0,.51.02.7.08ZM267.54,204.23c.28,0,.46-.06.54-.18s.12-.33.12-.62-.04-.49-.13-.61c-.09-.12-.26-.17-.51-.17-.14,0-.27.02-.38.07s-.24.13-.38.25c0,.21,0,.38.01.5,0,.12.03.24.05.35.03.11.07.19.12.24.06.05.13.09.21.12s.2.04.33.04Z"/>
    <path class="cls-50" d="M269.4,203.96h.14c.06,0,.1.01.12.04s.04.06.04.12v.27c0,.06-.01.1-.04.12s-.06.04-.12.04h-.14c-.06,0-.1-.01-.12-.04-.03-.02-.04-.06-.04-.12v-.27c0-.06.01-.1.04-.12.02-.02.07-.04.12-.04Z"/>
    <path class="cls-50" d="M270.4,201.46l-.04-.34c.34-.06.66-.09.97-.09.39,0,.66.06.82.17.16.12.24.33.24.62,0,.51-.17.8-.51.87v.02c.21.04.37.13.46.27.09.14.14.34.15.59,0,.36-.07.62-.24.78-.17.16-.45.25-.85.25-.31,0-.68-.03-1.1-.09l.03-.35c.38.03.7.05.96.05.28,0,.48-.05.59-.15.12-.1.17-.27.17-.52,0-.21-.05-.37-.14-.48-.09-.11-.28-.16-.54-.16h-.64v-.35h.64c.25,0,.41-.06.49-.17.08-.11.12-.26.12-.46,0-.21-.05-.35-.15-.41-.1-.07-.28-.1-.55-.1s-.57.01-.88.04Z"/>
    <path class="cls-50" d="M275.11,201.47h-1.45l-.05.94.37.03c.46.03.78.13.97.29.19.16.28.42.28.79,0,.12,0,.23-.03.33-.02.1-.05.2-.1.29-.05.1-.11.18-.19.25s-.19.12-.32.16c-.13.04-.29.06-.48.06-.32,0-.66-.04-1.03-.12l.05-.35c.34.06.63.09.88.09.31,0,.51-.05.62-.17.1-.11.16-.29.17-.54,0-.11,0-.2-.02-.27-.01-.08-.05-.14-.09-.19-.05-.05-.09-.09-.14-.12s-.12-.05-.24-.07c-.11-.02-.21-.03-.3-.04-.09,0-.22-.02-.39-.03l-.23-.02s-.09-.03-.12-.06c-.03-.03-.05-.08-.04-.13l.08-1.48h1.83l-.02.38Z"/>
    <path class="cls-50" d="M276.25,202.11l.02.38c.34-.3.68-.45,1-.45.34,0,.54.14.62.43.33-.29.66-.43.98-.43.21,0,.37.06.48.17.11.11.17.28.17.5v1.83h-.42v-1.71c0-.15-.03-.26-.09-.33-.06-.07-.15-.1-.29-.1-.12,0-.23.03-.34.08-.11.05-.26.15-.46.3v1.75h-.41v-1.71c0-.15-.03-.26-.09-.33s-.16-.1-.29-.1c-.12,0-.23.03-.34.08-.11.05-.26.15-.46.29v1.76h-.43v-2.43h.35Z"/>
    <path class="cls-50" d="M280.63,202.11l.02.38c.34-.3.68-.45,1-.45.34,0,.54.14.62.43.33-.29.66-.43.98-.43.21,0,.37.06.48.17.11.11.17.28.17.5v1.83h-.42v-1.71c0-.15-.03-.26-.09-.33-.06-.07-.15-.1-.29-.1-.12,0-.23.03-.34.08-.11.05-.26.15-.46.3v1.75h-.41v-1.71c0-.15-.03-.26-.09-.33s-.16-.1-.29-.1c-.12,0-.23.03-.34.08-.11.05-.26.15-.46.29v1.76h-.43v-2.43h.35Z"/>
    <path class="cls-50" d="M284.43,200.8l.05-.21c.45.17.79.45,1,.84s.32.9.32,1.55-.11,1.16-.32,1.54-.55.67-1,.84l-.05-.21c.33-.17.57-.44.72-.79.15-.36.23-.82.23-1.39s-.08-1.04-.23-1.4-.39-.62-.72-.78Z"/>
    <path class="cls-50" d="M289.96,201.49h-1.12v3.06h-.44v-3.06h-1.11v-.39h2.67v.39Z"/>
    <path class="cls-50" d="M292.95,204.55h-.47l-.3-1.08c-.04-.13-.1-.22-.17-.28s-.17-.08-.29-.08-.26,0-.43,0c-.17,0-.28,0-.33,0v1.45h-.44v-3.45c.28-.03.68-.04,1.19-.04.41,0,.7.07.87.21.17.14.25.4.25.78,0,.28-.05.5-.15.63-.1.14-.26.23-.49.25v.03c.09.02.18.08.25.16.08.08.13.2.17.33l.33,1.09ZM290.95,202.73h.75c.26,0,.44-.05.54-.14s.14-.26.14-.51-.05-.42-.14-.51-.28-.13-.54-.13c-.37,0-.62,0-.75,0v1.29Z"/>
    <path class="cls-50" d="M294.84,203.09l-.71-.18c-.24-.06-.42-.17-.52-.32-.11-.15-.16-.37-.16-.64,0-.2.02-.36.06-.48.04-.12.11-.21.21-.28s.21-.1.34-.12c.12-.02.29-.03.5-.03.41,0,.75.04,1.03.1l-.03.32c-.32-.02-.65-.03-.97-.03-.15,0-.25,0-.33,0-.07,0-.14.03-.21.06s-.11.09-.13.16c-.02.07-.03.17-.03.3,0,.18.03.31.1.39.07.08.18.13.34.17l.7.18c.26.06.44.17.54.32.1.15.16.37.16.65,0,.38-.09.63-.26.75-.17.12-.47.18-.9.18-.36,0-.72-.03-1.07-.09l.03-.33c.56.02.91.03,1.05.03.27,0,.46-.04.55-.11.09-.07.14-.22.14-.45,0-.19-.03-.32-.1-.4-.07-.08-.18-.13-.34-.17Z"/>
    <path class="cls-50" d="M299.71,204.16l.04.33c-.28.08-.61.11-1.01.11-.5,0-.85-.13-1.05-.4-.2-.27-.31-.73-.31-1.38s.1-1.12.31-1.39c.2-.27.55-.4,1.05-.4.36,0,.67.03.94.1l-.04.33c-.3-.03-.6-.04-.89-.04-.34,0-.57.1-.7.3-.13.2-.19.57-.19,1.09s.06.89.19,1.09c.13.2.36.3.7.3.39,0,.71-.02.96-.05Z"/>
    <path class="cls-50" d="M300.35,202.48l-.04-.31c.45-.07.84-.11,1.17-.11.28,0,.49.06.63.18s.21.32.21.6v1.71h-.33l-.05-.4c-.12.12-.26.22-.44.31s-.36.13-.57.13c-.22,0-.4-.06-.53-.18-.13-.12-.2-.29-.2-.5v-.27c0-.19.06-.34.18-.44.12-.1.28-.16.5-.16h1.02v-.21c0-.15-.04-.26-.11-.33s-.2-.09-.39-.09c-.24,0-.59.02-1.04.06ZM300.63,203.71v.16c0,.13.03.22.09.28.06.06.16.09.29.09.13,0,.27-.03.43-.09.16-.06.31-.16.44-.27v-.49h-.94c-.11,0-.19.03-.24.09-.05.06-.07.14-.07.25Z"/>
    <path class="cls-50" d="M303.49,201.05v.91c0,.23-.01.41-.04.54.29-.3.6-.45.94-.45.3,0,.53.1.67.3s.21.52.21.97-.08.76-.24.97c-.16.21-.44.31-.84.31s-.79-.06-1.12-.17v-3.38h.42ZM303.49,202.78v1.38c.22.06.45.09.69.08.24,0,.4-.07.5-.21.1-.13.15-.37.15-.72,0-.34-.04-.58-.12-.71-.08-.13-.23-.19-.46-.19-.12,0-.23.03-.34.08-.11.06-.24.15-.41.28Z"/>
    <path class="cls-50" d="M306.36,201.05v2.83c0,.11.02.19.08.24.06.06.14.08.25.08h.23l.05.33c-.09.04-.24.06-.44.06-.18,0-.33-.05-.44-.16-.11-.11-.16-.26-.16-.46v-2.92h.43Z"/>
    <path class="cls-50" d="M308.88,203.54h-1.14c.02.28.09.47.21.56s.3.15.57.15.56-.02.84-.06l.04.29c-.22.09-.53.13-.95.13s-.72-.1-.9-.29c-.18-.2-.27-.53-.27-.99s.09-.8.26-.99c.17-.19.46-.28.86-.28.36,0,.63.07.79.2.17.13.25.33.25.6,0,.46-.19.69-.58.69ZM307.74,203.21h1.03c.18,0,.26-.12.26-.36,0-.16-.05-.27-.14-.33s-.24-.1-.46-.1c-.26,0-.44.06-.54.17-.1.11-.15.32-.16.63Z"/>
  </g>
</svg>