<?xml version="1.0" encoding="UTF-8"?><svg id="Layer_1" xmlns="http://www.w3.org/2000/svg" viewBox="0 0 633.35 460.5"><defs><style>.cls-1{stroke-linejoin:bevel;}.cls-1,.cls-2,.cls-3,.cls-4,.cls-5{fill:none;stroke:#231815;}.cls-6{fill:#231815;}.cls-2{stroke-dasharray:0 0 2 2;}.cls-3{stroke-dasharray:0 2;}.cls-4{stroke-width:3px;}</style></defs><polyline class="cls-1" points="211.31 47.72 206.8 52.23 202.3 47.72 193.78 47.73"/><rect class="cls-1" x="219.83" y="47.76" width="7.87" height="24.88"/><path class="cls-5" d="M194.34,47.76c0,1.09-.88,1.97-1.97,1.97s-1.97-.88-1.97-1.97,.88-1.97,1.97-1.97,1.97,.88,1.97,1.97Z"/><path class="cls-5" d="M194.34,72.64c0,1.09-.88,1.97-1.97,1.97s-1.97-.88-1.97-1.97,.88-1.97,1.97-1.97,1.97,.88,1.97,1.97Z"/><line class="cls-1" x1="219.81" y1="72.64" x2="194.34" y2="72.64"/><line class="cls-5" x1="192.36" y1="74.63" x2="192.36" y2="84.61"/><line class="cls-5" x1="187.34" y1="84.61" x2="197.41" y2="84.61"/><line class="cls-5" x1="193.67" y1="88.83" x2="196.45" y2="84.56"/><line class="cls-5" x1="190.81" y1="88.83" x2="193.59" y2="84.56"/><line class="cls-5" x1="187.86" y1="145.22" x2="190.64" y2="140.95"/><polyline class="cls-1" points="211.31 160.89 206.8 165.39 202.3 160.89 193.78 160.9"/><rect class="cls-1" x="219.83" y="160.93" width="7.87" height="24.88"/><path class="cls-5" d="M194.34,160.93c0,1.09-.88,1.97-1.97,1.97s-1.97-.88-1.97-1.97,.88-1.97,1.97-1.97,1.97,.88,1.97,1.97Z"/><path class="cls-5" d="M194.34,185.81c0,1.09-.88,1.97-1.97,1.97s-1.97-.88-1.97-1.97,.88-1.97,1.97-1.97,1.97,.88,1.97,1.97Z"/><line class="cls-1" x1="219.81" y1="185.81" x2="194.34" y2="185.81"/><line class="cls-5" x1="192.36" y1="187.8" x2="192.36" y2="197.77"/><line class="cls-5" x1="187.34" y1="197.77" x2="197.41" y2="197.77"/><line class="cls-5" x1="193.67" y1="202" x2="196.45" y2="197.72"/><line class="cls-5" x1="190.81" y1="202" x2="193.59" y2="197.72"/><line class="cls-5" x1="187.86" y1="202" x2="190.64" y2="197.72"/><g><polyline class="cls-1" points="582.35 186.52 577.85 191.02 573.34 186.52 564.82 186.53"/><rect class="cls-1" x="590.87" y="186.56" width="7.87" height="24.88"/><path class="cls-5" d="M565.38,186.56c0,1.09-.88,1.97-1.97,1.97s-1.97-.88-1.97-1.97,.88-1.97,1.97-1.97,1.97,.88,1.97,1.97Z"/><path class="cls-5" d="M565.38,194.43c0,1.09-.88,1.97-1.97,1.97s-1.97-.88-1.97-1.97,.88-1.97,1.97-1.97,1.97,.88,1.97,1.97Z"/><path class="cls-5" d="M565.38,211.43c0,1.09-.88,1.97-1.97,1.97s-1.97-.88-1.97-1.97,.88-1.97,1.97-1.97,1.97,.88,1.97,1.97Z"/><line class="cls-1" x1="590.86" y1="211.43" x2="565.38" y2="211.43"/><polygon class="cls-1" points="566.72 191.35 569.11 187.21 571.49 191.35 566.72 191.35"/><polyline class="cls-1" points="569.05 191.48 569.05 194.43 565.38 194.43"/><line class="cls-5" x1="563.4" y1="213.42" x2="563.4" y2="223.4"/><line class="cls-5" x1="558.39" y1="223.4" x2="568.46" y2="223.4"/><line class="cls-5" x1="564.71" y1="227.62" x2="567.5" y2="223.35"/><line class="cls-5" x1="561.85" y1="227.62" x2="564.63" y2="223.35"/><line class="cls-5" x1="558.9" y1="227.62" x2="561.68" y2="223.35"/></g><g><polyline class="cls-1" points="582.35 243.35 577.85 247.85 573.34 243.35 564.82 243.36"/><rect class="cls-1" x="590.87" y="243.39" width="7.87" height="24.88"/><path class="cls-5" d="M565.38,243.39c0,1.09-.88,1.97-1.97,1.97s-1.97-.88-1.97-1.97,.88-1.97,1.97-1.97,1.97,.88,1.97,1.97Z"/><path class="cls-5" d="M565.38,251.27c0,1.09-.88,1.97-1.97,1.97s-1.97-.88-1.97-1.97,.88-1.97,1.97-1.97,1.97,.88,1.97,1.97Z"/><path class="cls-5" d="M565.38,268.27c0,1.09-.88,1.97-1.97,1.97s-1.97-.88-1.97-1.97,.88-1.97,1.97-1.97,1.97,.88,1.97,1.97Z"/><line class="cls-1" x1="590.86" y1="268.27" x2="565.38" y2="268.27"/><polygon class="cls-1" points="566.72 248.18 569.11 244.05 571.49 248.18 566.72 248.18"/><polyline class="cls-1" points="569.05 248.31 569.05 251.27 565.38 251.27"/><line class="cls-5" x1="563.4" y1="270.26" x2="563.4" y2="280.23"/><line class="cls-5" x1="558.39" y1="280.23" x2="568.46" y2="280.23"/><line class="cls-5" x1="564.71" y1="284.45" x2="567.5" y2="280.18"/><line class="cls-5" x1="561.85" y1="284.45" x2="564.63" y2="280.18"/><line class="cls-5" x1="558.9" y1="284.45" x2="561.68" y2="280.18"/></g><g><path class="cls-6" d="M207.89,38.97c0-.39-.05-.69-.14-.89-.1-.2-.29-.31-.59-.31-.22,0-.39,.05-.51,.15s-.18,.26-.18,.48,.06,.4,.17,.53,.29,.27,.54,.43h.02c.15,.1,.29,.2,.41,.28,.13,.08,.25,.17,.39,.27,.13,.09,.27,.19,.4,.29,.14,.1,.24,.2,.33,.28,.21,.2,.36,.42,.44,.63,.08,.22,.13,.48,.13,.78,0,.62-.19,1.1-.57,1.44-.38,.34-.88,.5-1.51,.5-.37,0-.68-.05-.95-.15-.26-.1-.48-.24-.64-.42-.16-.18-.28-.39-.36-.64-.08-.25-.11-.53-.11-.84v-.49h1.26v.4c0,.37,.06,.65,.18,.85,.12,.19,.33,.29,.61,.29,.52,0,.78-.26,.78-.79,0-.19-.04-.36-.13-.5s-.21-.27-.38-.39c-.14-.11-.37-.27-.68-.48-.32-.21-.58-.39-.78-.55-.2-.16-.37-.33-.53-.53-.22-.32-.32-.66-.32-1.03,0-.58,.16-1.02,.5-1.33,.33-.3,.82-.45,1.48-.45,.46,0,.82,.07,1.09,.22,.27,.15,.47,.33,.59,.55,.12,.22,.2,.44,.23,.66,.03,.22,.04,.45,.04,.71v.07h-1.21Z"/><path class="cls-6" d="M213.33,36.92h1.26v6.75h-1.31l-.98-2.4c-.16-.39-.31-.8-.45-1.22-.14-.42-.29-.91-.45-1.46h-.02c.03,.4,.06,.75,.08,1.04s.04,.59,.06,.89c.02,.39,.04,.74,.05,1.06,0,.31,.01,.59,.01,.83v1.27h-1.26v-6.75h1.31l.98,2.46c.17,.4,.32,.81,.46,1.24,.14,.42,.29,.9,.44,1.44h.02c-.05-.73-.1-1.37-.13-1.92-.04-.76-.06-1.39-.06-1.9v-1.32Z"/><path class="cls-6" d="M215.85,43.67v-6.75h2.63c.09,0,.19,.01,.3,.03,.11,.02,.22,.06,.32,.11,.28,.13,.51,.34,.68,.62,.14,.22,.23,.52,.29,.89,.05,.37,.08,.85,.08,1.44,0,.45,0,.83-.02,1.13-.02,.31-.05,.61-.12,.92-.06,.31-.17,.59-.31,.83-.14,.25-.34,.44-.58,.58-.13,.07-.26,.12-.41,.14-.15,.02-.32,.04-.52,.04h-2.33Zm1.81-.99c.28,0,.5-.04,.66-.13,.16-.08,.28-.22,.36-.4,.08-.19,.13-.43,.15-.73,.02-.3,.03-.73,.03-1.28,0-.83-.06-1.41-.18-1.73-.12-.33-.37-.49-.73-.49h-.83v4.77h.55Z"/><path class="cls-6" d="M222.62,38.99h-1.52v-.9c.49,0,.89-.09,1.2-.27,.31-.17,.53-.47,.65-.9h.93v6.75h-1.26v-4.68Z"/><path class="cls-6" d="M225.64,41.38v-1.04h2.14v1.04h-2.14Z"/><path class="cls-6" d="M228.81,43.67v-6.75h1.26v5.76h2.34v.99h-3.6Z"/></g><g><path class="cls-6" d="M207.89,95.64c0-.39-.05-.69-.14-.89-.1-.2-.29-.31-.59-.31-.22,0-.39,.05-.51,.15-.12,.1-.18,.26-.18,.48s.06,.4,.17,.53c.11,.12,.29,.27,.54,.43h.02c.15,.1,.29,.2,.41,.28,.13,.08,.25,.17,.39,.27,.13,.09,.27,.19,.4,.29,.14,.1,.24,.2,.33,.28,.21,.2,.36,.42,.44,.63,.08,.22,.13,.48,.13,.78,0,.62-.19,1.1-.57,1.44-.38,.34-.88,.5-1.51,.5-.37,0-.68-.05-.95-.15-.26-.1-.48-.24-.64-.42-.16-.18-.28-.39-.36-.64-.08-.25-.11-.53-.11-.84v-.49h1.26v.4c0,.37,.06,.65,.18,.85,.12,.19,.33,.29,.61,.29,.52,0,.78-.26,.78-.79,0-.19-.04-.36-.13-.5-.08-.14-.21-.27-.38-.39-.14-.11-.37-.27-.68-.48-.32-.21-.58-.39-.78-.55-.2-.16-.37-.33-.53-.53-.22-.32-.32-.66-.32-1.03,0-.58,.16-1.02,.5-1.33,.33-.3,.82-.45,1.48-.45,.46,0,.82,.07,1.09,.22,.27,.15,.47,.33,.59,.55,.12,.22,.2,.44,.23,.66,.03,.22,.04,.45,.04,.71v.07h-1.21Z"/><path class="cls-6" d="M213.33,93.59h1.26v6.75h-1.31l-.98-2.4c-.16-.39-.31-.8-.45-1.22-.14-.42-.29-.91-.45-1.46h-.02c.03,.4,.06,.75,.08,1.04s.04,.59,.06,.89c.02,.39,.04,.74,.05,1.06,0,.31,.01,.59,.01,.83v1.27h-1.26v-6.75h1.31l.98,2.46c.17,.4,.32,.81,.46,1.24,.14,.42,.29,.9,.44,1.44h.02c-.05-.73-.1-1.37-.13-1.92-.04-.76-.06-1.39-.06-1.9v-1.32Z"/><path class="cls-6" d="M215.85,100.34v-6.75h2.63c.09,0,.19,.01,.3,.03,.11,.02,.22,.06,.32,.11,.28,.13,.51,.34,.68,.62,.14,.22,.23,.52,.29,.89,.05,.37,.08,.85,.08,1.44,0,.45,0,.83-.02,1.13-.02,.31-.05,.61-.12,.92-.06,.31-.17,.59-.31,.83-.14,.25-.34,.44-.58,.59-.13,.07-.26,.12-.41,.14-.15,.02-.32,.04-.52,.04h-2.33Zm1.81-.99c.28,0,.5-.04,.66-.13,.16-.08,.28-.22,.36-.4,.08-.19,.13-.43,.15-.73,.02-.3,.03-.73,.03-1.28,0-.83-.06-1.41-.18-1.73-.12-.33-.37-.49-.73-.49h-.83v4.77h.55Z"/><path class="cls-6" d="M222.62,95.66h-1.52v-.9c.49,0,.89-.09,1.2-.27,.31-.17,.53-.47,.65-.9h.93v6.75h-1.26v-4.68Z"/><path class="cls-6" d="M225.64,98.04v-1.04h2.14v1.04h-2.14Z"/><path class="cls-6" d="M230.06,97.43v2.91h-1.26v-6.75h2.38c.29,0,.55,.03,.78,.08,.23,.05,.43,.14,.6,.27,.17,.13,.3,.29,.4,.5,.09,.21,.14,.46,.14,.77,0,.2-.02,.39-.04,.57-.03,.18-.08,.34-.16,.49-.08,.15-.18,.27-.32,.37-.14,.1-.3,.16-.51,.19v.02c.35,.05,.6,.18,.75,.39,.15,.21,.22,.49,.22,.84,0,.28,0,.52,0,.73,0,.21,.02,.42,.04,.62,.02,.2,.04,.37,.08,.51,.04,.14,.08,.23,.14,.27v.13h-1.39c-.05-.16-.09-.35-.1-.59-.01-.24-.03-.52-.03-.86v-.31c0-.16-.01-.28-.02-.37,0-.09-.02-.19-.05-.28-.03-.1-.07-.18-.13-.25-.06-.07-.14-.12-.23-.15-.13-.04-.28-.07-.43-.08-.16,0-.37-.01-.64-.01h-.23Zm0-.99h.99c.22-.01,.4-.1,.54-.26,.14-.16,.2-.4,.2-.72,0-.35-.06-.59-.19-.71-.13-.12-.33-.18-.6-.18h-.94v1.86Z"/></g><g><path class="cls-6" d="M249.22,40.76v2.91h-1.26v-6.75h2.38c.29,0,.55,.03,.78,.08,.23,.05,.43,.14,.6,.27,.17,.13,.3,.29,.4,.5,.09,.21,.14,.46,.14,.77,0,.2-.02,.39-.04,.57-.03,.18-.08,.34-.16,.49s-.18,.27-.32,.37c-.14,.1-.3,.16-.51,.19v.02c.35,.05,.6,.18,.75,.39,.15,.21,.22,.49,.22,.84,0,.28,0,.52,0,.73,0,.21,.02,.42,.04,.62,.02,.2,.04,.37,.08,.51,.04,.14,.08,.23,.14,.27v.13h-1.39c-.05-.16-.09-.35-.1-.59-.01-.24-.03-.52-.03-.85v-.31c0-.16-.01-.28-.02-.37,0-.09-.02-.19-.05-.28-.03-.1-.07-.18-.13-.25-.06-.07-.14-.12-.23-.15-.13-.04-.28-.07-.43-.08-.16,0-.37-.01-.64-.01h-.23Zm0-.99h.99c.22-.01,.4-.1,.54-.26,.14-.16,.2-.4,.2-.72,0-.35-.06-.59-.19-.71-.13-.12-.33-.18-.6-.18h-.94v1.86Z"/><path class="cls-6" d="M252.86,36.92h4.2v.99h-1.47v5.76h-1.26v-5.76h-1.48v-.99Z"/><path class="cls-6" d="M260.83,36.92h1.26v6.75h-1.31l-.98-2.4c-.16-.39-.31-.8-.45-1.22-.14-.42-.29-.91-.45-1.46h-.02c.03,.4,.06,.75,.08,1.04s.04,.59,.06,.89c.02,.39,.04,.74,.05,1.06,0,.31,.01,.59,.01,.83v1.27h-1.26v-6.75h1.31l.98,2.46c.17,.4,.32,.81,.46,1.24,.14,.42,.29,.9,.44,1.44h.02c-.05-.73-.1-1.37-.13-1.92-.04-.76-.06-1.39-.06-1.9v-1.32Z"/><path class="cls-6" d="M264.62,38.99h-1.52v-.9c.49,0,.89-.09,1.2-.27,.31-.17,.53-.47,.65-.9h.93v6.75h-1.26v-4.68Z"/><path class="cls-6" d="M267.63,41.38v-1.04h2.14v1.04h-2.14Z"/><path class="cls-6" d="M270.81,43.67v-6.75h1.26v5.76h2.34v.99h-3.6Z"/></g><g><path class="cls-6" d="M346.58,54.14v-6h1.12v5.12h2.08v.88h-3.2Z"/><path class="cls-6" d="M350.54,54.14v-6h3.15v.88h-2.03v1.51h1.87v.88h-1.87v1.85h2.03v.88h-3.15Z"/><path class="cls-6" d="M357.12,48.14h1.2l-1.3,6h-1.5l-1.33-6h1.2l.7,3.85c.05,.28,.1,.62,.14,1.02,0,.02,0,.07,.02,.15,.02,.15,.03,.27,.03,.34h.02c0-.07,.01-.19,.03-.34,0-.08,.02-.14,.02-.15,.04-.41,.08-.75,.14-1.02l.63-3.85Z"/><path class="cls-6" d="M358.99,54.14v-6h3.15v.88h-2.03v1.51h1.87v.88h-1.87v1.85h2.03v.88h-3.15Z"/><path class="cls-6" d="M363.02,54.14v-6h1.12v5.12h2.08v.88h-3.2Z"/></g><g><path class="cls-6" d="M347.45,46.74v-6h3.18v.88h-2.06v1.52h1.93v.88h-1.93v2.72h-1.12Z"/><path class="cls-6" d="M355.23,46.74h-1.28l-.64-1.46c-.11-.25-.18-.5-.23-.76h-.02c-.02,.16-.06,.31-.11,.46-.05,.15-.13,.33-.22,.55-.01,.02-.03,.06-.05,.1l-.5,1.1h-1.22l1.47-3.04-1.42-2.96h1.26l.61,1.36,.02,.04c.06,.15,.11,.28,.15,.39,.03,.1,.05,.21,.05,.32h.02c.01-.15,.04-.29,.09-.43,.05-.14,.12-.3,.21-.5,.04-.09,.06-.15,.07-.17l.43-1.02h1.26l-1.44,2.96,1.49,3.04Z"/><path class="cls-6" d="M357.02,42.58h-1.35v-.8c.43,0,.79-.08,1.07-.24,.28-.15,.47-.42,.58-.8h.82v6h-1.12v-4.16Z"/><path class="cls-6" d="M359.7,44.7v-.92h1.9v.92h-1.9Z"/><path class="cls-6" d="M362.52,46.74v-6h1.12v5.12h2.08v.88h-3.2Z"/></g><g><path class="cls-6" d="M158.28,29.7v-6h3.18v.88h-2.06v1.52h1.93v.88h-1.93v2.72h-1.12Z"/><path class="cls-6" d="M166.06,29.7h-1.28l-.64-1.46c-.11-.25-.18-.5-.23-.76h-.02c-.02,.16-.06,.31-.11,.46-.05,.15-.13,.33-.22,.55-.01,.02-.03,.06-.05,.1l-.5,1.1h-1.22l1.47-3.04-1.42-2.96h1.26l.61,1.36,.02,.04c.06,.15,.11,.28,.15,.39,.03,.1,.05,.21,.05,.32h.02c.01-.15,.04-.29,.09-.43,.05-.14,.12-.3,.21-.5,.04-.09,.06-.15,.07-.17l.43-1.02h1.26l-1.44,2.96,1.49,3.04Z"/><path class="cls-6" d="M167.85,25.54h-1.35v-.8c.43,0,.79-.08,1.07-.24,.28-.15,.47-.42,.58-.8h.82v6h-1.12v-4.16Z"/></g><g><path class="cls-6" d="M153.36,32.93c0-.35-.04-.61-.13-.79-.09-.18-.26-.27-.53-.27-.2,0-.35,.04-.46,.13-.11,.09-.16,.23-.16,.43s.05,.36,.15,.47c.1,.11,.26,.24,.48,.38h.02c.13,.09,.26,.17,.37,.25,.11,.07,.23,.15,.34,.24,.12,.08,.24,.17,.36,.26s.22,.17,.29,.25c.19,.18,.32,.37,.39,.56,.07,.19,.11,.43,.11,.69,0,.55-.17,.98-.5,1.28-.34,.3-.78,.45-1.34,.45-.33,0-.6-.04-.84-.13-.23-.09-.42-.21-.57-.37-.14-.16-.25-.35-.32-.57-.07-.22-.1-.47-.1-.75v-.44h1.12v.35c0,.33,.05,.58,.16,.75,.11,.17,.29,.26,.54,.26,.46,0,.7-.23,.7-.7,0-.17-.04-.32-.11-.45s-.19-.24-.34-.34c-.13-.1-.33-.24-.61-.42-.29-.19-.52-.35-.69-.49-.17-.14-.33-.3-.47-.47-.19-.28-.29-.59-.29-.92,0-.52,.15-.91,.44-1.18,.29-.27,.73-.4,1.32-.4,.41,0,.73,.07,.97,.2,.24,.13,.42,.29,.53,.49,.11,.2,.18,.39,.2,.58,.03,.19,.04,.4,.04,.63v.06h-1.08Z"/><path class="cls-6" d="M159.38,34.21c.04,.2,.07,.42,.1,.66s.06,.54,.09,.9c.03,.28,.05,.47,.06,.58h.02s.01-.1,.02-.22c.01-.12,.02-.19,.02-.22,.05-.61,.1-1.13,.17-1.54l.45-3.27h1.16l-1.11,6h-1.34l-.45-2.37c-.05-.28-.11-.71-.17-1.28-.03-.31-.06-.53-.07-.63h-.02c-.02,.11-.04,.32-.07,.63-.06,.57-.11,1-.17,1.28l-.4,2.37h-1.34l-1.14-6h1.16l.5,3.27c.06,.41,.12,.92,.17,1.54,.01,.1,.02,.24,.03,.43h.02c.02-.17,.05-.4,.07-.7,.07-.68,.13-1.16,.18-1.44l.54-3.1h.93l.6,3.1Z"/><path class="cls-6" d="M162.19,37.11v-6h1.12v6h-1.12Z"/><path class="cls-6" d="M164,31.11h3.74v.88h-1.3v5.12h-1.12v-5.12h-1.31v-.88Z"/><path class="cls-6" d="M171.96,34.97s0,.07,0,.17c-.01,.1-.02,.15-.02,.18-.02,.29-.05,.55-.12,.78-.06,.23-.16,.43-.28,.6-.13,.17-.3,.31-.5,.4s-.46,.14-.77,.14c-.44,0-.8-.07-1.06-.2s-.46-.32-.59-.56c-.13-.24-.21-.52-.25-.83-.04-.31-.06-.71-.06-1.18v-.86c.02-.46,.05-.84,.09-1.14,.04-.3,.13-.56,.25-.79,.13-.23,.32-.41,.58-.54,.26-.13,.61-.19,1.04-.19,1.01,.02,1.56,.53,1.64,1.55,.02,.15,.02,.31,.02,.46h-1.1s-.01-.1-.02-.19c-.01-.14-.02-.26-.04-.35-.02-.09-.04-.18-.08-.27-.03-.09-.09-.16-.16-.22-.07-.05-.16-.08-.27-.08-.18,0-.33,.04-.44,.12-.11,.08-.19,.19-.24,.34-.05,.14-.09,.3-.1,.46-.02,.17-.02,.36-.02,.59v1.66c0,.17,0,.32,.02,.46,.02,.14,.05,.27,.1,.4,.05,.13,.13,.24,.24,.32,.11,.08,.25,.12,.44,.12,.13,0,.23-.04,.3-.12,.07-.08,.13-.18,.17-.3,.04-.12,.06-.24,.07-.37,.01-.12,.02-.26,.02-.41,0-.09,0-.15,0-.18h1.13Z"/><path class="cls-6" d="M172.86,37.11v-6h1.12v2.38h1.57v-2.38h1.12v6h-1.12v-2.74h-1.57v2.74h-1.12Z"/></g><g><path class="cls-6" d="M158.28,142.7v-6h3.18v.88h-2.06v1.52h1.93v.88h-1.93v2.72h-1.12Z"/><path class="cls-6" d="M166.06,142.7h-1.28l-.64-1.46c-.11-.25-.18-.5-.23-.76h-.02c-.02,.16-.06,.31-.11,.46-.05,.15-.13,.33-.22,.55-.01,.02-.03,.06-.05,.1l-.5,1.1h-1.22l1.47-3.04-1.42-2.96h1.26l.61,1.36,.02,.04c.06,.15,.11,.28,.15,.39,.03,.1,.05,.21,.05,.32h.02c.01-.15,.04-.29,.09-.43,.05-.14,.12-.3,.21-.5,.04-.09,.06-.15,.07-.17l.43-1.02h1.26l-1.44,2.96,1.49,3.04Z"/><path class="cls-6" d="M166.4,142.7c0-.14,.02-.3,.03-.5s.04-.37,.06-.52c.04-.22,.14-.47,.31-.75,.17-.28,.42-.59,.75-.94l.54-.58,.03-.03c.2-.22,.33-.4,.41-.54,.07-.14,.11-.33,.11-.58s-.05-.44-.14-.55c-.09-.11-.23-.16-.4-.16-.13,0-.24,.02-.33,.07-.09,.05-.15,.12-.19,.23-.04,.09-.06,.19-.07,.3-.01,.12-.02,.3-.02,.54h-1.05v-.17c0-.22,.01-.42,.04-.61,.03-.19,.09-.38,.2-.57,.11-.19,.28-.35,.52-.48s.55-.19,.95-.19c.48,0,.87,.15,1.16,.42,.3,.28,.44,.65,.44,1.13,0,.33-.06,.62-.18,.88-.12,.26-.3,.51-.54,.76l-.88,.91c-.16,.17-.3,.33-.41,.51s-.17,.35-.18,.53h2.09v.88h-3.28Z"/></g><g><path class="cls-6" d="M153.36,145.93c0-.35-.04-.61-.13-.79-.09-.18-.26-.27-.53-.27-.2,0-.35,.04-.46,.13-.11,.09-.16,.23-.16,.43s.05,.36,.15,.47c.1,.11,.26,.24,.48,.38h.02c.13,.09,.26,.17,.37,.25,.11,.07,.23,.15,.34,.24,.12,.08,.24,.17,.36,.26s.22,.17,.29,.25c.19,.18,.32,.37,.39,.56,.07,.19,.11,.43,.11,.69,0,.55-.17,.98-.5,1.28-.34,.3-.78,.45-1.34,.45-.33,0-.6-.04-.84-.13-.23-.09-.42-.21-.57-.37-.14-.16-.25-.35-.32-.57-.07-.22-.1-.47-.1-.75v-.44h1.12v.35c0,.33,.05,.58,.16,.75,.11,.17,.29,.26,.54,.26,.46,0,.7-.23,.7-.7,0-.17-.04-.32-.11-.45s-.19-.24-.34-.34c-.13-.1-.33-.24-.61-.42-.29-.19-.52-.35-.69-.49-.17-.14-.33-.3-.47-.47-.19-.28-.29-.59-.29-.92,0-.52,.15-.91,.44-1.18,.29-.27,.73-.4,1.32-.4,.41,0,.73,.07,.97,.2,.24,.13,.42,.29,.53,.49,.11,.2,.18,.39,.2,.58,.03,.19,.04,.4,.04,.63v.06h-1.08Z"/><path class="cls-6" d="M159.38,147.21c.04,.2,.07,.42,.1,.66s.06,.54,.09,.9c.03,.28,.05,.47,.06,.58h.02s.01-.1,.02-.22c.01-.12,.02-.19,.02-.22,.05-.61,.1-1.13,.17-1.54l.45-3.27h1.16l-1.11,6h-1.34l-.45-2.37c-.05-.28-.11-.71-.17-1.28-.03-.31-.06-.53-.07-.63h-.02c-.02,.11-.04,.32-.07,.63-.06,.57-.11,1-.17,1.28l-.4,2.37h-1.34l-1.14-6h1.16l.5,3.27c.06,.41,.12,.92,.17,1.54,.01,.1,.02,.24,.03,.43h.02c.02-.17,.05-.4,.07-.7,.07-.68,.13-1.16,.18-1.44l.54-3.1h.93l.6,3.1Z"/><path class="cls-6" d="M162.19,150.11v-6h1.12v6h-1.12Z"/><path class="cls-6" d="M164,144.11h3.74v.88h-1.3v5.12h-1.12v-5.12h-1.31v-.88Z"/><path class="cls-6" d="M171.96,147.97s0,.07,0,.17c-.01,.1-.02,.15-.02,.18-.02,.29-.05,.55-.12,.78-.06,.23-.16,.43-.28,.6-.13,.17-.3,.31-.5,.4s-.46,.14-.77,.14c-.44,0-.8-.07-1.06-.2s-.46-.32-.59-.56c-.13-.24-.21-.52-.25-.83-.04-.31-.06-.71-.06-1.18v-.86c.02-.46,.05-.84,.09-1.14,.04-.3,.13-.56,.25-.79,.13-.23,.32-.41,.58-.54,.26-.13,.61-.19,1.04-.19,1.01,.02,1.56,.53,1.64,1.55,.02,.15,.02,.31,.02,.46h-1.1s-.01-.1-.02-.19c-.01-.14-.02-.26-.04-.35-.02-.09-.04-.18-.08-.27-.03-.09-.09-.16-.16-.22-.07-.05-.16-.08-.27-.08-.18,0-.33,.04-.44,.12-.11,.08-.19,.19-.24,.34-.05,.14-.09,.3-.1,.46-.02,.17-.02,.36-.02,.59v1.66c0,.17,0,.32,.02,.46,.02,.14,.05,.27,.1,.4,.05,.13,.13,.24,.24,.32,.11,.08,.25,.12,.44,.12,.13,0,.23-.04,.3-.12,.07-.08,.13-.18,.17-.3,.04-.12,.06-.24,.07-.37,.01-.12,.02-.26,.02-.41,0-.09,0-.15,0-.18h1.13Z"/><path class="cls-6" d="M172.86,150.11v-6h1.12v2.38h1.57v-2.38h1.12v6h-1.12v-2.74h-1.57v2.74h-1.12Z"/></g><g><path class="cls-6" d="M233.82,378.8v-6h2.34c.08,0,.17,0,.26,.03,.1,.02,.19,.05,.29,.1,.25,.12,.45,.3,.61,.55,.12,.2,.21,.46,.26,.79,.05,.33,.07,.76,.07,1.28,0,.4,0,.74-.02,1.01-.01,.27-.05,.55-.1,.82-.06,.28-.15,.52-.28,.74-.13,.22-.3,.39-.52,.52-.11,.06-.23,.11-.37,.13-.13,.02-.29,.03-.46,.03h-2.07Zm1.61-.88c.25,0,.45-.04,.59-.11,.14-.07,.25-.19,.32-.36,.07-.17,.11-.38,.13-.65,.02-.27,.03-.65,.03-1.14,0-.74-.05-1.25-.16-1.54-.11-.29-.33-.44-.65-.44h-.74v4.24h.49Z"/><path class="cls-6" d="M239.78,376.22v2.58h-1.12v-6h2.12c.26,0,.49,.02,.69,.07,.21,.05,.38,.13,.54,.24,.15,.11,.27,.26,.35,.45,.08,.19,.12,.41,.12,.68,0,.18-.01,.35-.04,.51-.03,.16-.07,.3-.14,.44-.07,.13-.16,.24-.28,.33-.12,.09-.27,.14-.45,.17v.02c.31,.04,.54,.16,.67,.34,.13,.19,.2,.44,.2,.74,0,.25,0,.46,0,.65,0,.19,.02,.37,.03,.55s.04,.33,.07,.46c.03,.12,.07,.2,.13,.24v.11h-1.23c-.05-.14-.08-.31-.09-.53s-.02-.47-.03-.76v-.28c0-.14-.01-.25-.02-.33,0-.08-.02-.17-.04-.25-.02-.08-.06-.16-.12-.22-.05-.06-.12-.11-.21-.13-.12-.04-.25-.06-.38-.07-.14,0-.33-.01-.57-.01h-.2Zm0-.88h.88c.2-.01,.36-.09,.48-.23,.12-.14,.18-.35,.18-.64,0-.31-.06-.52-.17-.63-.11-.1-.29-.16-.53-.16h-.83v1.66Z"/><path class="cls-6" d="M244.83,374.38c.13,.33,.22,.64,.26,.92h.02c.03-.19,.07-.35,.12-.49,.05-.14,.11-.32,.2-.53,.02-.05,.04-.09,.05-.11l.54-1.36h1.22l-1.58,3.45v2.55h-1.12v-2.55l-1.56-3.45h1.22l.63,1.58Z"/></g><g><path class="cls-6" d="M228.91,382.02c0-.35-.04-.61-.13-.79-.09-.18-.26-.27-.53-.27-.2,0-.35,.04-.46,.13-.11,.09-.16,.23-.16,.43s.05,.36,.15,.47c.1,.11,.26,.24,.48,.38h.02c.13,.09,.26,.17,.37,.25,.11,.08,.23,.15,.34,.24,.12,.08,.24,.17,.36,.26,.12,.09,.22,.17,.29,.25,.19,.18,.32,.37,.39,.56s.11,.43,.11,.69c0,.55-.17,.98-.5,1.28-.34,.3-.78,.45-1.34,.45-.33,0-.6-.04-.84-.13-.23-.09-.42-.21-.57-.37-.14-.16-.25-.35-.32-.57-.07-.22-.1-.47-.1-.75v-.44h1.12v.35c0,.33,.05,.58,.16,.75,.11,.17,.29,.26,.54,.26,.46,0,.7-.23,.7-.7,0-.17-.04-.32-.11-.45-.07-.13-.19-.24-.34-.34-.13-.1-.33-.24-.61-.42-.29-.19-.52-.35-.69-.49-.17-.14-.33-.3-.47-.47-.19-.28-.29-.59-.29-.92,0-.52,.15-.91,.44-1.18,.29-.27,.73-.4,1.32-.4,.41,0,.73,.07,.97,.2,.24,.13,.42,.29,.53,.49,.11,.2,.18,.39,.2,.58,.03,.19,.04,.4,.04,.63v.06h-1.08Z"/><path class="cls-6" d="M234.92,383.31c.04,.2,.07,.42,.1,.66,.03,.25,.06,.54,.09,.9,.03,.28,.05,.47,.06,.58h.02s.01-.1,.02-.22c.01-.12,.02-.19,.02-.22,.05-.61,.1-1.12,.17-1.54l.45-3.27h1.16l-1.11,6h-1.34l-.45-2.37c-.05-.28-.11-.71-.17-1.28-.03-.31-.06-.53-.07-.63h-.02c-.02,.11-.04,.32-.07,.63-.06,.57-.11,1-.17,1.28l-.4,2.37h-1.34l-1.14-6h1.16l.5,3.27c.06,.41,.12,.92,.17,1.54,.01,.1,.02,.24,.03,.43h.02c.02-.17,.05-.4,.07-.7,.07-.68,.13-1.16,.18-1.44l.54-3.1h.93l.6,3.1Z"/><path class="cls-6" d="M237.74,386.2v-6h1.12v6h-1.12Z"/><path class="cls-6" d="M239.55,380.2h3.74v.88h-1.3v5.12h-1.12v-5.12h-1.31v-.88Z"/><path class="cls-6" d="M247.51,384.06s0,.07,0,.17c-.01,.1-.02,.15-.02,.18-.02,.29-.05,.55-.12,.78-.06,.23-.16,.43-.28,.6-.13,.17-.3,.31-.5,.4-.21,.1-.46,.14-.77,.14-.44,0-.8-.07-1.06-.2-.27-.13-.46-.32-.59-.56s-.21-.52-.25-.83c-.04-.31-.06-.71-.06-1.18v-.86c.02-.46,.05-.84,.09-1.14,.04-.3,.13-.56,.25-.79,.13-.23,.32-.41,.58-.54,.26-.13,.61-.19,1.04-.19,1.01,.02,1.56,.53,1.64,1.55,.02,.16,.02,.31,.02,.46h-1.1s-.01-.1-.02-.19c-.01-.14-.02-.26-.04-.35-.02-.09-.04-.18-.08-.27-.03-.09-.09-.16-.16-.22-.07-.05-.16-.08-.27-.08-.18,0-.33,.04-.44,.12-.11,.08-.19,.19-.24,.34-.05,.14-.09,.3-.1,.46-.02,.17-.02,.36-.02,.59v1.66c0,.17,0,.32,.02,.46,.02,.14,.05,.27,.1,.4,.05,.13,.13,.24,.24,.32,.11,.08,.25,.12,.44,.12,.13,0,.23-.04,.3-.12,.07-.08,.13-.18,.17-.3,.04-.12,.06-.24,.07-.37,.01-.12,.02-.26,.02-.41,0-.09,0-.15,0-.18h1.13Z"/><path class="cls-6" d="M248.4,386.2v-6h1.12v2.38h1.57v-2.38h1.12v6h-1.12v-2.74h-1.57v2.74h-1.12Z"/></g><g><path class="cls-6" d="M346.58,110.85v-6h1.12v5.12h2.08v.88h-3.2Z"/><path class="cls-6" d="M350.54,110.85v-6h3.15v.88h-2.03v1.51h1.87v.88h-1.87v1.85h2.03v.88h-3.15Z"/><path class="cls-6" d="M357.12,104.85h1.2l-1.3,6h-1.5l-1.33-6h1.2l.7,3.85c.05,.28,.1,.62,.14,1.02,0,.02,0,.07,.02,.15,.02,.15,.03,.27,.03,.34h.02c0-.07,.01-.19,.03-.34,0-.08,.02-.14,.02-.15,.04-.41,.08-.75,.14-1.02l.63-3.85Z"/><path class="cls-6" d="M358.99,110.85v-6h3.15v.88h-2.03v1.51h1.87v.88h-1.87v1.85h2.03v.88h-3.15Z"/><path class="cls-6" d="M363.02,110.85v-6h1.12v5.12h2.08v.88h-3.2Z"/></g><g><path class="cls-6" d="M475.06,219.57h-1.82v-9.75h2.9l.98,4.52c.14,.66,.25,1.41,.34,2.25h.03c.05-.57,.1-1.02,.14-1.34,.04-.32,.09-.62,.15-.91l.98-4.52h2.88v9.75h-1.82v-3.07c0-2.15,.05-4.09,.16-5.81h-.03l-1.95,8.88h-1.11l-1.91-8.88h-.07c.1,1.72,.16,3.66,.16,5.81v3.07Z"/><path class="cls-6" d="M483.38,219.57v-9.75h1.82v9.75h-1.82Z"/><path class="cls-6" d="M493.18,219.57h-2.08l-1.04-2.38c-.17-.41-.3-.82-.38-1.23h-.03c-.04,.26-.1,.51-.18,.75s-.21,.54-.36,.9c-.02,.03-.04,.09-.08,.17l-.81,1.79h-1.99l2.39-4.94-2.3-4.81h2.04l.99,2.21,.03,.06c.1,.25,.18,.46,.24,.63,.06,.17,.08,.34,.08,.53h.04c.02-.24,.07-.47,.14-.7,.08-.22,.19-.49,.34-.81,.06-.15,.1-.24,.12-.27l.7-1.65h2.05l-2.34,4.81,2.42,4.94Z"/></g><g><path class="cls-6" d="M347.45,103.45v-6h3.18v.88h-2.06v1.52h1.93v.88h-1.93v2.72h-1.12Z"/><path class="cls-6" d="M355.23,103.45h-1.28l-.64-1.46c-.11-.25-.18-.5-.23-.76h-.02c-.02,.16-.06,.31-.11,.46-.05,.15-.13,.33-.22,.55-.01,.02-.03,.06-.05,.1l-.5,1.1h-1.22l1.47-3.04-1.42-2.96h1.26l.61,1.36,.02,.04c.06,.15,.11,.28,.15,.39s.05,.21,.05,.32h.02c.01-.15,.04-.29,.09-.43,.05-.14,.12-.3,.21-.5,.04-.09,.06-.15,.07-.17l.43-1.02h1.26l-1.44,2.96,1.49,3.04Z"/><path class="cls-6" d="M357.02,99.29h-1.35v-.8c.43,0,.79-.08,1.07-.24,.28-.15,.47-.42,.58-.8h.82v6h-1.12v-4.16Z"/><path class="cls-6" d="M359.7,101.41v-.92h1.9v.92h-1.9Z"/><path class="cls-6" d="M363.62,100.86v2.58h-1.12v-6h2.12c.26,0,.49,.02,.69,.07,.21,.05,.38,.13,.54,.24,.15,.11,.27,.26,.35,.45,.08,.19,.12,.41,.12,.68,0,.18-.01,.35-.04,.51-.03,.16-.08,.3-.14,.44-.07,.13-.16,.24-.29,.33-.12,.09-.27,.15-.45,.17v.02c.31,.04,.54,.16,.67,.34,.13,.19,.2,.43,.2,.74,0,.25,0,.46,0,.65,0,.19,.02,.37,.03,.55,.02,.18,.04,.33,.07,.46,.03,.13,.07,.2,.13,.24v.11h-1.23c-.05-.14-.08-.31-.09-.53-.01-.21-.02-.47-.03-.76v-.28c0-.14-.01-.25-.02-.33,0-.08-.02-.17-.04-.25-.02-.09-.06-.16-.12-.22-.05-.06-.12-.1-.21-.13-.12-.04-.24-.06-.38-.07-.14,0-.33-.01-.57-.01h-.2Zm0-.88h.88c.2-.01,.36-.09,.48-.23,.12-.14,.18-.35,.18-.64,0-.31-.06-.52-.17-.63-.12-.1-.29-.16-.53-.16h-.83v1.66Z"/></g><g><path class="cls-6" d="M346.58,167.26v-6h1.12v5.12h2.08v.88h-3.2Z"/><path class="cls-6" d="M350.54,167.26v-6h3.15v.88h-2.03v1.51h1.87v.88h-1.87v1.85h2.03v.88h-3.15Z"/><path class="cls-6" d="M357.12,161.26h1.2l-1.3,6h-1.5l-1.33-6h1.2l.7,3.85c.05,.28,.1,.62,.14,1.02,0,.02,0,.07,.02,.15,.02,.15,.03,.27,.03,.34h.02c0-.07,.01-.19,.03-.34,0-.08,.02-.14,.02-.15,.04-.41,.08-.75,.14-1.02l.63-3.85Z"/><path class="cls-6" d="M358.99,167.26v-6h3.15v.88h-2.03v1.51h1.87v.88h-1.87v1.85h2.03v.88h-3.15Z"/><path class="cls-6" d="M363.02,167.26v-6h1.12v5.12h2.08v.88h-3.2Z"/></g><g><path class="cls-6" d="M347.45,159.86v-6h3.18v.88h-2.06v1.52h1.93v.88h-1.93v2.72h-1.12Z"/><path class="cls-6" d="M355.23,159.86h-1.28l-.64-1.46c-.11-.25-.18-.5-.23-.76h-.02c-.02,.16-.06,.31-.11,.46-.05,.15-.13,.33-.22,.55-.01,.02-.03,.06-.05,.1l-.5,1.1h-1.22l1.47-3.04-1.42-2.96h1.26l.61,1.36,.02,.04c.06,.15,.11,.28,.15,.39s.05,.21,.05,.32h.02c.01-.15,.04-.29,.09-.43,.05-.14,.12-.3,.21-.5,.04-.09,.06-.15,.07-.17l.43-1.02h1.26l-1.44,2.96,1.49,3.04Z"/><path class="cls-6" d="M355.57,159.86c0-.14,.02-.3,.03-.5,.02-.19,.04-.37,.06-.52,.04-.22,.14-.47,.31-.75,.17-.28,.42-.59,.75-.94l.54-.58,.03-.03c.2-.22,.33-.4,.41-.54,.08-.14,.11-.33,.11-.58s-.05-.44-.14-.55c-.09-.11-.22-.16-.4-.16-.13,0-.24,.02-.33,.07-.09,.05-.16,.12-.19,.23-.04,.09-.06,.19-.07,.3,0,.12-.02,.3-.02,.54h-1.05v-.17c0-.22,.01-.42,.04-.61,.03-.19,.09-.38,.2-.57,.11-.19,.28-.35,.52-.48s.55-.19,.95-.19c.48,0,.87,.15,1.16,.42,.3,.28,.44,.65,.44,1.13,0,.33-.06,.62-.18,.88-.12,.26-.3,.51-.54,.76l-.88,.91c-.16,.17-.3,.33-.41,.51-.11,.17-.17,.35-.18,.53h2.09v.88h-3.28Z"/><path class="cls-6" d="M359.7,157.82v-.92h1.9v.92h-1.9Z"/><path class="cls-6" d="M362.52,159.86v-6h1.12v5.12h2.08v.88h-3.2Z"/></g><g><path class="cls-6" d="M346.58,224.14v-6h1.12v5.12h2.08v.88h-3.2Z"/><path class="cls-6" d="M350.54,224.14v-6h3.15v.88h-2.03v1.51h1.87v.88h-1.87v1.85h2.03v.88h-3.15Z"/><path class="cls-6" d="M357.12,218.14h1.2l-1.3,6h-1.5l-1.33-6h1.2l.7,3.85c.05,.28,.1,.62,.14,1.02,0,.02,0,.07,.02,.15,.02,.15,.03,.27,.03,.34h.02c0-.07,.01-.19,.03-.34,0-.08,.02-.14,.02-.15,.04-.41,.08-.75,.14-1.02l.63-3.85Z"/><path class="cls-6" d="M358.99,224.14v-6h3.15v.88h-2.03v1.51h1.87v.88h-1.87v1.85h2.03v.88h-3.15Z"/><path class="cls-6" d="M363.02,224.14v-6h1.12v5.12h2.08v.88h-3.2Z"/></g><g><path class="cls-6" d="M347.45,216.74v-6h3.18v.88h-2.06v1.52h1.93v.88h-1.93v2.72h-1.12Z"/><path class="cls-6" d="M355.23,216.74h-1.28l-.64-1.46c-.11-.25-.18-.5-.23-.76h-.02c-.02,.16-.06,.31-.11,.46-.05,.15-.13,.33-.22,.55-.01,.02-.03,.06-.05,.1l-.5,1.1h-1.22l1.47-3.04-1.42-2.96h1.26l.61,1.36,.02,.04c.06,.15,.11,.28,.15,.39s.05,.21,.05,.32h.02c.01-.15,.04-.29,.09-.43,.05-.14,.12-.3,.21-.5,.04-.09,.06-.15,.07-.17l.43-1.02h1.26l-1.44,2.96,1.49,3.04Z"/><path class="cls-6" d="M355.57,216.74c0-.14,.02-.3,.03-.5,.02-.19,.04-.37,.06-.52,.04-.22,.14-.47,.31-.75,.17-.28,.42-.59,.75-.94l.54-.58,.03-.03c.2-.22,.33-.4,.41-.54,.08-.14,.11-.33,.11-.58s-.05-.44-.14-.55c-.09-.11-.22-.16-.4-.16-.13,0-.24,.02-.33,.07-.09,.05-.16,.12-.19,.23-.04,.09-.06,.19-.07,.3,0,.12-.02,.3-.02,.54h-1.05v-.17c0-.22,.01-.42,.04-.61,.03-.19,.09-.38,.2-.57,.11-.19,.28-.35,.52-.48s.55-.19,.95-.19c.48,0,.87,.15,1.16,.42,.3,.28,.44,.65,.44,1.13,0,.33-.06,.62-.18,.88-.12,.26-.3,.51-.54,.76l-.88,.91c-.16,.17-.3,.33-.41,.51-.11,.17-.17,.35-.18,.53h2.09v.88h-3.28Z"/><path class="cls-6" d="M359.7,214.7v-.92h1.9v.92h-1.9Z"/><path class="cls-6" d="M363.62,214.15v2.58h-1.12v-6h2.12c.26,0,.49,.02,.69,.07,.21,.05,.38,.13,.54,.24,.15,.11,.27,.26,.35,.45,.08,.19,.12,.41,.12,.68,0,.18-.01,.35-.04,.51-.03,.16-.08,.3-.14,.44-.07,.13-.16,.24-.29,.33-.12,.09-.27,.15-.45,.17v.02c.31,.04,.54,.16,.67,.34,.13,.19,.2,.43,.2,.74,0,.25,0,.46,0,.65,0,.19,.02,.37,.03,.55,.02,.18,.04,.33,.07,.46,.03,.13,.07,.2,.13,.24v.11h-1.23c-.05-.14-.08-.31-.09-.53-.01-.21-.02-.47-.03-.76v-.28c0-.14-.01-.25-.02-.33,0-.08-.02-.17-.04-.25-.02-.09-.06-.16-.12-.22-.05-.06-.12-.11-.21-.13-.12-.04-.24-.06-.38-.07-.14,0-.33-.01-.57-.01h-.2Zm0-.88h.88c.2-.01,.36-.09,.48-.23,.12-.14,.18-.35,.18-.64,0-.31-.06-.52-.17-.63-.12-.1-.29-.16-.53-.16h-.83v1.66Z"/></g><g><path class="cls-6" d="M229.13,434.72v-6h1.12v5.12h2.08v.88h-3.2Z"/><path class="cls-6" d="M233.1,434.72v-6h3.15v.88h-2.03v1.51h1.87v.88h-1.87v1.85h2.03v.88h-3.15Z"/><path class="cls-6" d="M239.67,428.72h1.2l-1.3,6h-1.5l-1.33-6h1.2l.7,3.85c.05,.28,.1,.62,.14,1.02,0,.02,0,.07,.02,.15,.02,.16,.03,.27,.03,.34h.02c0-.08,.01-.19,.03-.34,.01-.08,.02-.14,.02-.15,.04-.41,.08-.75,.14-1.02l.63-3.85Z"/><path class="cls-6" d="M241.54,434.72v-6h3.15v.88h-2.03v1.51h1.87v.88h-1.87v1.85h2.03v.88h-3.15Z"/><path class="cls-6" d="M245.58,434.72v-6h1.12v5.12h2.08v.88h-3.2Z"/></g><g><path class="cls-6" d="M231.74,426.85v-6h2.34c.08,0,.17,0,.26,.03,.1,.02,.19,.05,.29,.1,.25,.12,.45,.3,.61,.55,.12,.2,.21,.46,.26,.79,.05,.33,.07,.76,.07,1.29,0,.4,0,.74-.02,1.01-.01,.27-.05,.54-.1,.82-.06,.27-.15,.52-.28,.74-.13,.22-.3,.39-.52,.52-.11,.06-.23,.11-.37,.13-.13,.02-.29,.03-.46,.03h-2.07Zm1.61-.88c.25,0,.45-.04,.59-.11,.14-.07,.25-.2,.32-.36,.07-.17,.11-.38,.13-.65,.02-.27,.03-.65,.03-1.14,0-.74-.05-1.25-.16-1.54-.11-.29-.33-.44-.65-.44h-.74v4.24h.49Z"/><path class="cls-6" d="M237.7,424.27v2.58h-1.12v-6h2.12c.26,0,.49,.02,.69,.07,.21,.05,.38,.13,.54,.24,.15,.11,.27,.26,.35,.45,.08,.19,.12,.41,.12,.68,0,.18-.01,.35-.04,.51-.03,.16-.07,.3-.14,.44-.07,.13-.16,.24-.28,.33-.12,.09-.27,.15-.45,.17v.02c.31,.04,.54,.16,.67,.34,.13,.19,.2,.43,.2,.74,0,.24,0,.46,0,.65,0,.19,.02,.37,.03,.55,.02,.18,.04,.33,.07,.46,.03,.13,.07,.2,.13,.24v.11h-1.23c-.05-.14-.08-.31-.09-.53s-.02-.47-.03-.76v-.28c0-.14-.01-.25-.02-.33,0-.08-.02-.17-.04-.25-.02-.09-.06-.16-.12-.22-.05-.06-.12-.1-.21-.13-.12-.04-.25-.06-.38-.07-.14,0-.33-.01-.57-.01h-.2Zm0-.88h.88c.2,0,.36-.09,.48-.23,.12-.14,.18-.35,.18-.64,0-.31-.06-.52-.17-.63-.11-.1-.29-.16-.53-.16h-.83v1.66Z"/><path class="cls-6" d="M242.74,422.43c.13,.33,.22,.64,.26,.92h.02c.03-.19,.07-.35,.12-.49,.05-.14,.11-.32,.2-.53,.02-.05,.04-.09,.05-.11l.54-1.36h1.22l-1.58,3.45v2.55h-1.12v-2.55l-1.56-3.45h1.22l.63,1.58Z"/></g><g><path class="cls-6" d="M249.22,154.43v2.91h-1.26v-6.75h2.38c.29,0,.55,.03,.78,.08,.23,.05,.43,.14,.6,.27,.17,.13,.3,.29,.4,.5,.09,.21,.14,.46,.14,.77,0,.2-.02,.39-.04,.57-.03,.18-.08,.34-.16,.49s-.18,.27-.32,.37c-.14,.1-.3,.16-.51,.19v.02c.35,.05,.6,.18,.75,.39,.15,.21,.22,.49,.22,.84,0,.28,0,.52,0,.73,0,.21,.02,.42,.04,.62,.02,.2,.04,.37,.08,.51,.04,.14,.08,.23,.14,.27v.13h-1.39c-.05-.16-.09-.35-.1-.59-.01-.24-.03-.52-.03-.86v-.31c0-.16-.01-.28-.02-.37,0-.09-.02-.19-.05-.28-.03-.1-.07-.18-.13-.25-.06-.07-.14-.12-.23-.15-.13-.04-.28-.07-.43-.08-.16,0-.37-.01-.64-.01h-.23Zm0-.99h.99c.22-.01,.4-.1,.54-.26,.14-.16,.2-.4,.2-.72,0-.35-.06-.59-.19-.71-.13-.12-.33-.18-.6-.18h-.94v1.86Z"/><path class="cls-6" d="M252.86,150.59h4.2v.99h-1.47v5.76h-1.26v-5.76h-1.48v-.99Z"/><path class="cls-6" d="M260.83,150.59h1.26v6.75h-1.31l-.98-2.4c-.16-.39-.31-.8-.45-1.22-.14-.42-.29-.91-.45-1.46h-.02c.03,.4,.06,.75,.08,1.04s.04,.59,.06,.89c.02,.39,.04,.74,.05,1.06,0,.31,.01,.59,.01,.83v1.27h-1.26v-6.75h1.31l.98,2.46c.17,.4,.32,.81,.46,1.24,.14,.42,.29,.9,.44,1.44h.02c-.05-.73-.1-1.37-.13-1.92-.04-.76-.06-1.39-.06-1.9v-1.32Z"/><path class="cls-6" d="M262.99,157.34c0-.16,.02-.34,.04-.56,.02-.22,.04-.41,.07-.58,.04-.25,.16-.53,.35-.84,.19-.31,.47-.67,.84-1.06l.61-.65,.04-.04c.22-.25,.37-.45,.46-.6,.08-.16,.13-.38,.13-.66s-.05-.49-.16-.62c-.1-.12-.25-.18-.45-.18-.14,0-.27,.03-.37,.08-.1,.05-.17,.14-.22,.26-.04,.1-.07,.21-.08,.34-.01,.13-.02,.34-.02,.61h-1.18v-.19c0-.25,.01-.48,.04-.69,.03-.21,.1-.43,.23-.64,.12-.22,.31-.4,.58-.54,.27-.14,.62-.22,1.07-.22,.54,0,.98,.16,1.31,.48s.5,.73,.5,1.27c0,.37-.07,.7-.2,.99-.13,.29-.33,.58-.6,.86l-.99,1.03c-.18,.19-.33,.38-.46,.57-.13,.19-.19,.39-.2,.6h2.35v.99h-3.69Z"/><path class="cls-6" d="M267.63,155.04v-1.04h2.14v1.04h-2.14Z"/><path class="cls-6" d="M270.81,157.34v-6.75h1.26v5.76h2.34v.99h-3.6Z"/></g><g><path class="cls-6" d="M249.22,211.43v2.91h-1.26v-6.75h2.38c.29,0,.55,.03,.78,.08,.23,.05,.43,.14,.6,.27,.17,.13,.3,.29,.4,.5,.09,.21,.14,.46,.14,.77,0,.2-.02,.39-.04,.57-.03,.18-.08,.34-.16,.49s-.18,.27-.32,.37c-.14,.1-.3,.16-.51,.19v.02c.35,.05,.6,.18,.75,.39,.15,.21,.22,.49,.22,.84,0,.28,0,.52,0,.73,0,.21,.02,.42,.04,.62,.02,.2,.04,.37,.08,.51,.04,.14,.08,.23,.14,.27v.13h-1.39c-.05-.16-.09-.35-.1-.59-.01-.24-.03-.52-.03-.86v-.31c0-.16-.01-.28-.02-.37,0-.09-.02-.19-.05-.28-.03-.1-.07-.18-.13-.25-.06-.07-.14-.12-.23-.15-.13-.04-.28-.07-.43-.08-.16,0-.37-.01-.64-.01h-.23Zm0-.99h.99c.22-.01,.4-.1,.54-.26,.14-.16,.2-.4,.2-.72,0-.35-.06-.59-.19-.71-.13-.12-.33-.18-.6-.18h-.94v1.86Z"/><path class="cls-6" d="M252.86,207.59h4.2v.99h-1.47v5.76h-1.26v-5.76h-1.48v-.99Z"/><path class="cls-6" d="M260.83,207.59h1.26v6.75h-1.31l-.98-2.4c-.16-.39-.31-.8-.45-1.22-.14-.42-.29-.91-.45-1.46h-.02c.03,.4,.06,.75,.08,1.04s.04,.59,.06,.89c.02,.39,.04,.74,.05,1.06,0,.31,.01,.59,.01,.83v1.27h-1.26v-6.75h1.31l.98,2.46c.17,.4,.32,.81,.46,1.24,.14,.42,.29,.9,.44,1.44h.02c-.05-.73-.1-1.37-.13-1.92-.04-.76-.06-1.39-.06-1.9v-1.32Z"/><path class="cls-6" d="M262.99,214.34c0-.16,.02-.34,.04-.56,.02-.22,.04-.41,.07-.58,.04-.25,.16-.53,.35-.84,.19-.31,.47-.67,.84-1.06l.61-.65,.04-.04c.22-.25,.37-.45,.46-.6,.08-.16,.13-.38,.13-.66s-.05-.49-.16-.62c-.1-.12-.25-.18-.45-.18-.14,0-.27,.03-.37,.08-.1,.05-.17,.14-.22,.26-.04,.1-.07,.21-.08,.34-.01,.13-.02,.34-.02,.61h-1.18v-.19c0-.25,.01-.48,.04-.69,.03-.21,.1-.43,.23-.64,.12-.22,.31-.4,.58-.54,.27-.14,.62-.22,1.07-.22,.54,0,.98,.16,1.31,.48s.5,.73,.5,1.27c0,.37-.07,.7-.2,.99-.13,.29-.33,.58-.6,.86l-.99,1.03c-.18,.19-.33,.38-.46,.57-.13,.19-.19,.39-.2,.6h2.35v.99h-3.69Z"/><path class="cls-6" d="M267.63,212.04v-1.04h2.14v1.04h-2.14Z"/><path class="cls-6" d="M272.05,211.43v2.91h-1.26v-6.75h2.38c.29,0,.55,.03,.78,.08,.23,.05,.43,.14,.6,.27,.17,.13,.3,.29,.4,.5,.09,.21,.14,.46,.14,.77,0,.2-.02,.39-.04,.57-.03,.18-.08,.34-.16,.49s-.18,.27-.32,.37c-.14,.1-.3,.16-.51,.19v.02c.35,.05,.6,.18,.75,.39,.15,.21,.22,.49,.22,.84,0,.28,0,.52,0,.73,0,.21,.02,.42,.04,.62,.02,.2,.04,.37,.08,.51,.04,.14,.08,.23,.14,.27v.13h-1.39c-.05-.16-.09-.35-.1-.59-.01-.24-.03-.52-.03-.86v-.31c0-.16-.01-.28-.02-.37,0-.09-.02-.19-.05-.28-.03-.1-.07-.18-.13-.25-.06-.07-.14-.12-.23-.15-.13-.04-.28-.07-.43-.08-.16,0-.37-.01-.64-.01h-.22Zm0-.99h.99c.22-.01,.4-.1,.54-.26,.14-.16,.2-.4,.2-.72,0-.35-.06-.59-.19-.71-.13-.12-.33-.18-.6-.18h-.94v1.86Z"/></g><g><path class="cls-6" d="M207.89,151.97c0-.39-.05-.69-.14-.89-.1-.2-.29-.31-.59-.31-.22,0-.39,.05-.51,.15-.12,.1-.18,.26-.18,.48s.06,.4,.17,.53c.11,.12,.29,.27,.54,.43h.02c.15,.11,.29,.2,.41,.28,.13,.08,.25,.17,.39,.27,.13,.09,.27,.19,.4,.29,.14,.1,.24,.2,.33,.28,.21,.2,.36,.42,.44,.63,.08,.22,.13,.48,.13,.78,0,.62-.19,1.1-.57,1.44-.38,.34-.88,.5-1.51,.5-.37,0-.68-.05-.95-.15-.26-.1-.48-.24-.64-.42-.16-.18-.28-.39-.36-.64-.08-.25-.11-.53-.11-.84v-.49h1.26v.4c0,.37,.06,.65,.18,.85,.12,.19,.33,.29,.61,.29,.52,0,.78-.26,.78-.79,0-.19-.04-.36-.13-.5-.08-.14-.21-.27-.38-.39-.14-.11-.37-.27-.68-.48-.32-.21-.58-.39-.78-.55-.2-.16-.37-.33-.53-.53-.22-.32-.32-.66-.32-1.03,0-.58,.16-1.02,.5-1.33,.33-.3,.82-.45,1.48-.45,.46,0,.82,.07,1.09,.22,.27,.15,.47,.33,.59,.55,.12,.22,.2,.44,.23,.66,.03,.22,.04,.45,.04,.71v.07h-1.21Z"/><path class="cls-6" d="M213.33,149.92h1.26v6.75h-1.31l-.98-2.4c-.16-.39-.31-.8-.45-1.22-.14-.42-.29-.91-.45-1.46h-.02c.03,.4,.06,.75,.08,1.04,.02,.29,.04,.59,.06,.89,.02,.39,.04,.74,.05,1.06,0,.31,.01,.59,.01,.83v1.27h-1.26v-6.75h1.31l.98,2.46c.17,.4,.32,.81,.46,1.24,.14,.42,.29,.9,.44,1.44h.02c-.05-.73-.1-1.37-.13-1.92-.04-.76-.06-1.39-.06-1.9v-1.32Z"/><path class="cls-6" d="M215.85,156.67v-6.75h2.63c.09,0,.19,.01,.3,.03,.11,.02,.22,.06,.32,.11,.28,.13,.51,.34,.68,.62,.14,.22,.23,.52,.29,.89,.05,.37,.08,.85,.08,1.44,0,.45,0,.83-.02,1.13-.02,.31-.05,.61-.12,.92-.06,.31-.17,.59-.31,.83-.14,.25-.34,.44-.58,.59-.13,.07-.26,.12-.41,.14-.15,.02-.32,.04-.52,.04h-2.33Zm1.81-.99c.28,0,.5-.04,.66-.13,.16-.08,.28-.22,.36-.4,.08-.19,.13-.43,.15-.73,.02-.3,.03-.73,.03-1.28,0-.83-.06-1.41-.18-1.73-.12-.33-.37-.49-.73-.49h-.83v4.77h.55Z"/><path class="cls-6" d="M220.99,156.67c0-.16,.02-.34,.04-.56,.02-.22,.04-.41,.07-.58,.04-.25,.16-.53,.35-.84,.19-.32,.47-.67,.84-1.06l.61-.65,.04-.04c.22-.25,.38-.45,.46-.6,.08-.16,.13-.38,.13-.66s-.05-.49-.16-.62c-.1-.12-.25-.18-.45-.18-.14,0-.27,.03-.37,.08-.1,.05-.17,.14-.22,.26-.04,.1-.07,.21-.08,.34-.01,.13-.02,.34-.02,.61h-1.18v-.19c0-.25,.01-.48,.04-.69,.03-.21,.1-.43,.23-.64,.12-.22,.31-.4,.58-.54,.27-.14,.62-.22,1.07-.22,.54,0,.98,.16,1.31,.48,.33,.31,.5,.73,.5,1.27,0,.37-.07,.7-.2,.99-.13,.29-.33,.58-.6,.85l-.99,1.03c-.18,.19-.33,.38-.46,.57-.13,.19-.19,.39-.2,.6h2.35v.99h-3.69Z"/><path class="cls-6" d="M225.64,154.38v-1.04h2.14v1.04h-2.14Z"/><path class="cls-6" d="M228.81,156.67v-6.75h1.26v5.76h2.34v.99h-3.6Z"/></g><g><path class="cls-6" d="M207.89,209.64c0-.39-.05-.69-.14-.89-.1-.2-.29-.31-.59-.31-.22,0-.39,.05-.51,.15-.12,.1-.18,.26-.18,.48s.06,.4,.17,.53c.11,.12,.29,.27,.54,.43h.02c.15,.1,.29,.2,.41,.28,.13,.08,.25,.17,.39,.27,.13,.09,.27,.19,.4,.29,.14,.1,.24,.2,.33,.28,.21,.2,.36,.42,.44,.63,.08,.22,.13,.48,.13,.78,0,.62-.19,1.1-.57,1.44-.38,.34-.88,.5-1.51,.5-.37,0-.68-.05-.95-.15-.26-.1-.48-.24-.64-.42-.16-.18-.28-.39-.36-.64-.08-.25-.11-.53-.11-.84v-.49h1.26v.4c0,.37,.06,.65,.18,.85,.12,.19,.33,.29,.61,.29,.52,0,.78-.26,.78-.79,0-.19-.04-.36-.13-.5-.08-.14-.21-.27-.38-.39-.14-.11-.37-.27-.68-.48-.32-.21-.58-.39-.78-.55-.2-.16-.37-.33-.53-.53-.22-.32-.32-.66-.32-1.03,0-.58,.16-1.02,.5-1.33,.33-.3,.82-.45,1.48-.45,.46,0,.82,.07,1.09,.22,.27,.15,.47,.33,.59,.55,.12,.22,.2,.44,.23,.66,.03,.22,.04,.45,.04,.71v.07h-1.21Z"/><path class="cls-6" d="M213.33,207.59h1.26v6.75h-1.31l-.98-2.4c-.16-.39-.31-.8-.45-1.22-.14-.42-.29-.91-.45-1.46h-.02c.03,.4,.06,.75,.08,1.04s.04,.59,.06,.89c.02,.39,.04,.74,.05,1.06,0,.31,.01,.59,.01,.83v1.27h-1.26v-6.75h1.31l.98,2.46c.17,.4,.32,.81,.46,1.24,.14,.42,.29,.9,.44,1.44h.02c-.05-.73-.1-1.37-.13-1.92-.04-.76-.06-1.39-.06-1.9v-1.32Z"/><path class="cls-6" d="M215.85,214.34v-6.75h2.63c.09,0,.19,.01,.3,.03,.11,.02,.22,.06,.32,.11,.28,.13,.51,.34,.68,.62,.14,.22,.23,.52,.29,.89,.05,.37,.08,.85,.08,1.44,0,.45,0,.83-.02,1.13-.02,.31-.05,.61-.12,.92-.06,.31-.17,.59-.31,.83-.14,.25-.34,.44-.58,.59-.13,.07-.26,.12-.41,.14-.15,.02-.32,.04-.52,.04h-2.33Zm1.81-.99c.28,0,.5-.04,.66-.13,.16-.08,.28-.22,.36-.4,.08-.19,.13-.43,.15-.73,.02-.3,.03-.73,.03-1.28,0-.83-.06-1.41-.18-1.73-.12-.33-.37-.49-.73-.49h-.83v4.77h.55Z"/><path class="cls-6" d="M220.99,214.34c0-.16,.02-.34,.04-.56,.02-.22,.04-.41,.07-.58,.04-.25,.16-.53,.35-.84,.19-.31,.47-.67,.84-1.06l.61-.65,.04-.04c.22-.25,.38-.45,.46-.6,.08-.16,.13-.38,.13-.66s-.05-.49-.16-.62c-.1-.12-.25-.18-.45-.18-.14,0-.27,.03-.37,.08-.1,.05-.17,.14-.22,.26-.04,.1-.07,.21-.08,.34-.01,.13-.02,.34-.02,.61h-1.18v-.19c0-.25,.01-.48,.04-.69,.03-.21,.1-.43,.23-.64,.12-.22,.31-.4,.58-.54,.27-.14,.62-.22,1.07-.22,.54,0,.98,.16,1.31,.48s.5,.73,.5,1.27c0,.37-.07,.7-.2,.99-.13,.29-.33,.58-.6,.86l-.99,1.03c-.18,.19-.33,.38-.46,.57-.13,.19-.19,.39-.2,.6h2.35v.99h-3.69Z"/><path class="cls-6" d="M225.64,212.04v-1.04h2.14v1.04h-2.14Z"/><path class="cls-6" d="M230.06,211.43v2.91h-1.26v-6.75h2.38c.29,0,.55,.03,.78,.08,.23,.05,.43,.14,.6,.27,.17,.13,.3,.29,.4,.5,.09,.21,.14,.46,.14,.77,0,.2-.02,.39-.04,.57-.03,.18-.08,.34-.16,.49-.08,.15-.18,.27-.32,.37-.14,.1-.3,.16-.51,.19v.02c.35,.05,.6,.18,.75,.39,.15,.21,.22,.49,.22,.84,0,.28,0,.52,0,.73,0,.21,.02,.42,.04,.62,.02,.2,.04,.37,.08,.51,.04,.14,.08,.23,.14,.27v.13h-1.39c-.05-.16-.09-.35-.1-.59-.01-.24-.03-.52-.03-.86v-.31c0-.16-.01-.28-.02-.37,0-.09-.02-.19-.05-.28-.03-.1-.07-.18-.13-.25-.06-.07-.14-.12-.23-.15-.13-.04-.28-.07-.43-.08-.16,0-.37-.01-.64-.01h-.23Zm0-.99h.99c.22-.01,.4-.1,.54-.26,.14-.16,.2-.4,.2-.72,0-.35-.06-.59-.19-.71-.13-.12-.33-.18-.6-.18h-.94v1.86Z"/></g><g><path class="cls-6" d="M34.32,157.26v-6.75h1.26v6.75h-1.26Z"/><path class="cls-6" d="M39.83,150.51h1.26v6.75h-1.31l-.98-2.4c-.16-.39-.31-.8-.45-1.22-.14-.42-.29-.91-.45-1.46h-.02c.03,.4,.06,.75,.08,1.04s.04,.59,.06,.89c.02,.39,.04,.74,.05,1.06,0,.31,.01,.59,.01,.83v1.27h-1.26v-6.75h1.31l.98,2.46c.17,.4,.32,.81,.46,1.24,.14,.42,.29,.9,.44,1.44h.02c-.05-.73-.1-1.37-.13-1.92-.04-.76-.06-1.39-.06-1.9v-1.32Z"/><path class="cls-6" d="M42.14,154.96v-1.04h2.14v1.04h-2.14Z"/><path class="cls-6" d="M45.31,157.26v-6.75h1.26v5.76h2.34v.99h-3.6Z"/></g><polygon class="cls-6" points="94.17 217.8 113.67 229.06 94.17 240.31 94.17 217.8"/><polygon class="cls-6" points="94.17 149.84 113.67 161.1 94.17 172.36 94.17 149.84"/><g><path class="cls-5" d="M155.71,49.97c1.29,0,2.33-1.04,2.33-2.33s-1.04-2.33-2.33-2.33-2.33,1.04-2.33,2.33,1.04,2.33,2.33,2.33Z"/><path class="cls-5" d="M171.51,49.97c1.29,0,2.33-1.04,2.33-2.33s-1.04-2.33-2.33-2.33-2.33,1.04-2.33,2.33,1.04,2.33,2.33,2.33Z"/></g><g><path class="cls-5" d="M155.71,163.35c1.29,0,2.33-1.04,2.33-2.33s-1.04-2.33-2.33-2.33-2.33,1.04-2.33,2.33,1.04,2.33,2.33,2.33Z"/><path class="cls-5" d="M171.51,163.36c1.29,0,2.33-1.04,2.33-2.33s-1.04-2.33-2.33-2.33-2.33,1.04-2.33,2.33,1.04,2.33,2.33,2.33Z"/></g><g><path class="cls-6" d="M573.25,178.86c.02-.52,.05-.95,.1-1.28,.05-.33,.14-.63,.28-.89,.14-.26,.36-.46,.65-.61,.29-.14,.68-.22,1.17-.22s.88,.07,1.17,.22c.29,.14,.51,.35,.65,.61,.14,.26,.23,.56,.28,.89,.05,.33,.08,.76,.1,1.28v.96c0,.53-.02,.98-.06,1.33-.04,.35-.13,.66-.28,.93-.14,.27-.37,.48-.67,.63s-.7,.23-1.2,.23-.9-.08-1.2-.23c-.3-.15-.52-.36-.67-.63-.14-.27-.24-.58-.28-.93-.04-.35-.06-.79-.06-1.33v-.96Zm1.3,1.59c0,.19,0,.36,.03,.51,.02,.16,.06,.31,.12,.45,.06,.15,.15,.27,.27,.36,.12,.09,.29,.14,.49,.14s.38-.05,.51-.14c.13-.1,.22-.22,.27-.37,.05-.15,.09-.31,.1-.47,.01-.16,.02-.36,.02-.59v-1.73c0-.23,0-.44-.02-.62-.01-.18-.05-.36-.11-.53-.06-.17-.15-.31-.27-.42-.13-.11-.29-.17-.5-.17s-.37,.05-.49,.14c-.12,.09-.21,.22-.27,.38-.06,.16-.1,.33-.12,.52-.02,.19-.03,.41-.03,.66v1.87Z"/><path class="cls-6" d="M581.84,176.03h1.26v4.71c0,.77-.16,1.33-.47,1.68-.31,.35-.87,.52-1.66,.52s-1.36-.17-1.68-.52c-.31-.35-.47-.91-.47-1.68v-4.71h1.26v4.6c0,.2,0,.37,.03,.51,.02,.14,.06,.27,.11,.39,.06,.12,.15,.21,.27,.28,.12,.07,.29,.11,.49,.11s.36-.04,.47-.11c.12-.07,.2-.17,.26-.28,.06-.12,.09-.25,.11-.39,.02-.14,.02-.31,.02-.51v-4.6Z"/><path class="cls-6" d="M583.85,176.03h4.2v.99h-1.47v5.76h-1.26v-5.76h-1.48v-.99Z"/><path class="cls-6" d="M588.14,180.48v-1.04h2.14v1.04h-2.14Z"/><path class="cls-6" d="M591.32,182.78v-6.75h1.26v5.76h2.34v.99h-3.6Z"/></g><g><path class="cls-6" d="M572.58,235.86c.02-.52,.05-.95,.1-1.28,.05-.33,.14-.63,.28-.89,.14-.26,.36-.46,.65-.61,.29-.14,.68-.22,1.17-.22s.88,.07,1.17,.22c.29,.14,.51,.35,.65,.61,.14,.26,.24,.56,.28,.89,.05,.33,.08,.76,.1,1.28v.96c0,.53-.02,.98-.06,1.33-.04,.35-.13,.66-.28,.93-.14,.27-.37,.48-.67,.63-.3,.15-.7,.23-1.2,.23s-.9-.08-1.2-.23c-.3-.15-.52-.36-.67-.63-.14-.27-.24-.58-.28-.93-.04-.35-.06-.79-.06-1.33v-.96Zm1.3,1.59c0,.19,0,.36,.03,.51,.02,.16,.06,.31,.12,.45,.06,.15,.15,.27,.28,.36,.12,.09,.29,.14,.49,.14s.38-.05,.51-.14c.13-.1,.22-.22,.27-.37,.05-.15,.09-.31,.1-.47,.01-.16,.02-.36,.02-.59v-1.73c0-.23,0-.44-.02-.62-.02-.18-.05-.36-.11-.53-.06-.17-.15-.31-.28-.42-.13-.11-.29-.17-.5-.17s-.37,.05-.49,.14c-.12,.09-.21,.22-.28,.38-.06,.16-.1,.33-.12,.52-.02,.19-.03,.41-.03,.66v1.87Z"/><path class="cls-6" d="M581.17,233.03h1.26v4.71c0,.77-.16,1.33-.47,1.68-.31,.35-.87,.52-1.67,.52s-1.36-.17-1.68-.52c-.32-.35-.47-.91-.47-1.68v-4.71h1.26v4.6c0,.2,0,.37,.03,.51,.02,.14,.05,.27,.11,.39,.06,.12,.15,.21,.27,.28,.12,.07,.29,.11,.49,.11s.36-.04,.47-.11c.12-.07,.2-.17,.26-.28,.06-.12,.09-.25,.11-.39,.01-.14,.02-.31,.02-.51v-4.6Z"/><path class="cls-6" d="M583.19,233.03h4.2v.99h-1.47v5.76h-1.26v-5.76h-1.48v-.99Z"/><path class="cls-6" d="M587.47,237.48v-1.04h2.14v1.04h-2.14Z"/><path class="cls-6" d="M591.89,236.87v2.91h-1.26v-6.75h2.38c.29,0,.55,.03,.78,.08,.23,.05,.43,.14,.6,.27s.3,.29,.4,.5c.09,.21,.14,.46,.14,.77,0,.2-.02,.39-.04,.57-.03,.18-.08,.34-.16,.49s-.19,.27-.32,.37c-.13,.1-.3,.16-.51,.19v.02c.35,.05,.6,.18,.75,.39,.15,.21,.22,.49,.22,.84,0,.28,0,.52,0,.73,0,.21,.02,.42,.04,.62,.02,.2,.04,.37,.08,.51,.04,.14,.08,.23,.14,.27v.13h-1.39c-.05-.16-.09-.35-.1-.59-.01-.24-.03-.52-.03-.86v-.31c0-.16-.01-.28-.02-.37,0-.09-.02-.19-.05-.28-.03-.1-.07-.18-.13-.25-.06-.07-.14-.12-.23-.15-.13-.04-.28-.07-.43-.08-.16,0-.37-.01-.64-.01h-.23Zm0-.99h.99c.22-.01,.4-.1,.54-.26,.14-.16,.2-.4,.2-.72,0-.35-.06-.59-.19-.71-.13-.12-.33-.18-.6-.18h-.94v1.86Z"/></g><path class="cls-6" d="M130.83,163.14c1.17,0,2.12-.95,2.12-2.12s-.95-2.12-2.12-2.12-2.12,.95-2.12,2.12,.95,2.12,2.12,2.12Z"/><path class="cls-6" d="M80.84,163.14c1.17,0,2.12-.95,2.12-2.12s-.95-2.12-2.12-2.12-2.12,.95-2.12,2.12,.95,2.12,2.12,2.12Z"/><path class="cls-6" d="M213.49,424.32c1.17,0,2.12-.95,2.12-2.12s-.95-2.12-2.12-2.12-2.12,.95-2.12,2.12,.95,2.12,2.12,2.12Z"/><path class="cls-6" d="M263.91,424.48c1.17,0,2.12-.95,2.12-2.12s-.95-2.12-2.12-2.12-2.12,.95-2.12,2.12,.95,2.12,2.12,2.12Z"/><path class="cls-6" d="M273.08,436.27c1.17,0,2.12-.95,2.12-2.12s-.95-2.12-2.12-2.12-2.12,.95-2.12,2.12,.95,2.12,2.12,2.12Z"/><path class="cls-6" d="M204.66,435.82c1.17,0,2.12-.95,2.12-2.12s-.95-2.12-2.12-2.12-2.12,.95-2.12,2.12,.95,2.12,2.12,2.12Z"/><path class="cls-6" d="M291.83,163.14c1.17,0,2.12-.95,2.12-2.12s-.95-2.12-2.12-2.12-2.12,.95-2.12,2.12,.95,2.12,2.12,2.12Z"/><path class="cls-6" d="M291.83,49.76c1.17,0,2.12-.95,2.12-2.12s-.95-2.12-2.12-2.12-2.12,.95-2.12,2.12,.95,2.12,2.12,2.12Z"/><polygon class="cls-6" points="309.67 36.42 329.17 47.68 309.67 58.94 309.67 36.42"/><polygon class="cls-6" points="309.67 92.92 329.17 104.18 309.67 115.44 309.67 92.92"/><polygon class="cls-6" points="309.67 149.8 329.17 161.06 309.67 172.31 309.67 149.8"/><polygon class="cls-6" points="309.67 206.42 329.17 217.68 309.67 228.94 309.67 206.42"/><rect class="cls-5" x="339.95" y="38.31" width="35.33" height="18.67" rx="2.83" ry="2.83"/><rect class="cls-5" x="339.95" y="95" width="35.33" height="18.67" rx="2.83" ry="2.83"/><rect class="cls-5" x="339.95" y="151.69" width="35.33" height="18.67" rx="2.83" ry="2.83"/><rect class="cls-5" x="339.95" y="208.38" width="35.33" height="18.67" rx="2.83" ry="2.83"/><path class="cls-5" d="M223.92,418.45h29.66c1.56,0,2.83,1.27,2.83,2.83v13c0,1.56-1.27,2.83-2.83,2.83h-29.66c-1.56,0-2.83-1.27-2.83-2.83v-13c0-1.56,1.27-2.83,2.83-2.83Z"/><path class="cls-4" d="M460.06,144.18h48.2c1.56,0,2.83,1.27,2.83,2.83v141.41c0,1.56-1.27,2.83-2.83,2.83h-48.21c-1.57,0-2.84-1.27-2.84-2.84V147.02c0-1.57,1.27-2.84,2.84-2.84Z"/><line class="cls-5" x1="130.83" y1="161.02" x2="153.52" y2="161.02"/><line class="cls-5" x1="173.84" y1="47.64" x2="190.41" y2="47.64"/><line class="cls-5" x1="173.83" y1="161.03" x2="190.41" y2="161.03"/><line class="cls-5" x1="285.85" y1="47.64" x2="310.23" y2="47.64"/><line class="cls-5" x1="285.85" y1="104.33" x2="310.56" y2="104.33"/><line class="cls-5" x1="285.85" y1="161.02" x2="310.9" y2="161.02"/><line class="cls-5" x1="285.85" y1="217.72" x2="310.56" y2="217.72"/><polyline class="cls-5" points="291.83 47.64 291.83 101.67 294.33 101.67 294.33 106.83 291.83 106.83 291.83 111.83 285.85 111.83"/><polyline class="cls-5" points="291.83 161.02 291.83 215.17 294.33 215.17 294.33 220 291.83 220 291.83 225.5 285.85 225.5"/><line class="cls-5" x1="327.23" y1="104.33" x2="339.86" y2="104.33"/><line class="cls-5" x1="327.06" y1="47.64" x2="339.86" y2="47.64"/><line class="cls-5" x1="327.23" y1="161.02" x2="339.86" y2="161.02"/><line class="cls-5" x1="327.23" y1="217.72" x2="339.86" y2="217.72"/><line class="cls-2" x1="357.49" y1="56.86" x2="357.49" y2="94.86"/><line class="cls-2" x1="357.49" y1="170.67" x2="357.49" y2="208.67"/><line class="cls-5" x1="511.1" y1="186.67" x2="561.53" y2="186.67"/><line class="cls-5" x1="510.98" y1="243.42" x2="561.53" y2="243.42"/><g><path class="cls-6" d="M249.22,97.43v2.91h-1.26v-6.75h2.38c.29,0,.55,.03,.78,.08,.23,.05,.43,.14,.6,.27,.17,.13,.3,.29,.4,.5,.09,.21,.14,.46,.14,.77,0,.2-.02,.39-.04,.57-.03,.18-.08,.34-.16,.49s-.18,.27-.32,.37c-.14,.1-.3,.16-.51,.19v.02c.35,.05,.6,.18,.75,.39,.15,.21,.22,.49,.22,.84,0,.28,0,.52,0,.73,0,.21,.02,.42,.04,.62,.02,.2,.04,.37,.08,.51,.04,.14,.08,.23,.14,.27v.13h-1.39c-.05-.16-.09-.35-.1-.59-.01-.24-.03-.52-.03-.86v-.31c0-.16-.01-.28-.02-.37,0-.09-.02-.19-.05-.28-.03-.1-.07-.18-.13-.25-.06-.07-.14-.12-.23-.15-.13-.04-.28-.07-.43-.08-.16,0-.37-.01-.64-.01h-.23Zm0-.99h.99c.22-.01,.4-.1,.54-.26,.14-.16,.2-.4,.2-.72,0-.35-.06-.59-.19-.71-.13-.12-.33-.18-.6-.18h-.94v1.86Z"/><path class="cls-6" d="M252.86,93.59h4.2v.99h-1.47v5.76h-1.26v-5.76h-1.48v-.99Z"/><path class="cls-6" d="M260.83,93.59h1.26v6.75h-1.31l-.98-2.4c-.16-.39-.31-.8-.45-1.22-.14-.42-.29-.91-.45-1.46h-.02c.03,.4,.06,.75,.08,1.04s.04,.59,.06,.89c.02,.39,.04,.74,.05,1.06,0,.31,.01,.59,.01,.83v1.27h-1.26v-6.75h1.31l.98,2.46c.17,.4,.32,.81,.46,1.24,.14,.42,.29,.9,.44,1.44h.02c-.05-.73-.1-1.37-.13-1.92-.04-.76-.06-1.39-.06-1.9v-1.32Z"/><path class="cls-6" d="M264.62,95.66h-1.52v-.9c.49,0,.89-.09,1.2-.27,.31-.17,.53-.47,.65-.9h.93v6.75h-1.26v-4.68Z"/><path class="cls-6" d="M267.63,98.04v-1.04h2.14v1.04h-2.14Z"/><path class="cls-6" d="M272.05,97.43v2.91h-1.26v-6.75h2.38c.29,0,.55,.03,.78,.08,.23,.05,.43,.14,.6,.27,.17,.13,.3,.29,.4,.5,.09,.21,.14,.46,.14,.77,0,.2-.02,.39-.04,.57-.03,.18-.08,.34-.16,.49s-.18,.27-.32,.37c-.14,.1-.3,.16-.51,.19v.02c.35,.05,.6,.18,.75,.39,.15,.21,.22,.49,.22,.84,0,.28,0,.52,0,.73,0,.21,.02,.42,.04,.62,.02,.2,.04,.37,.08,.51,.04,.14,.08,.23,.14,.27v.13h-1.39c-.05-.16-.09-.35-.1-.59-.01-.24-.03-.52-.03-.86v-.31c0-.16-.01-.28-.02-.37,0-.09-.02-.19-.05-.28-.03-.1-.07-.18-.13-.25-.06-.07-.14-.12-.23-.15-.13-.04-.28-.07-.43-.08-.16,0-.37-.01-.64-.01h-.22Zm0-.99h.99c.22-.01,.4-.1,.54-.26,.14-.16,.2-.4,.2-.72,0-.35-.06-.59-.19-.71-.13-.12-.33-.18-.6-.18h-.94v1.86Z"/></g><path class="cls-6" d="M460.91,155.56v-6h1.12v5.12h2.08v.88h-3.2Z"/><path class="cls-6" d="M503.3,188.81v-6h1.12v5.12h2.08v.88h-3.2Z"/><path class="cls-6" d="M462.08,168.17v2.58h-1.12v-6h2.12c.26,0,.49,.02,.69,.07,.21,.05,.38,.13,.54,.24,.15,.11,.27,.26,.35,.45,.08,.19,.12,.41,.12,.68,0,.18-.01,.35-.04,.51-.03,.16-.08,.3-.14,.44-.07,.13-.16,.24-.29,.33-.12,.09-.27,.15-.45,.17v.02c.31,.04,.54,.16,.67,.34,.13,.19,.2,.43,.2,.74,0,.25,0,.46,0,.65,0,.19,.02,.37,.03,.55,.02,.18,.04,.33,.07,.46,.03,.13,.07,.2,.13,.24v.11h-1.23c-.05-.14-.08-.31-.09-.53-.01-.21-.02-.47-.03-.76v-.28c0-.14-.01-.25-.02-.33,0-.08-.02-.17-.04-.25-.02-.09-.06-.16-.12-.22-.05-.06-.12-.1-.21-.13-.12-.04-.24-.06-.38-.07-.14,0-.33-.01-.57-.01h-.2Zm0-.88h.88c.2-.01,.36-.09,.48-.23,.12-.14,.18-.35,.18-.64,0-.31-.06-.52-.17-.63-.12-.1-.29-.16-.53-.16h-.83v1.66Z"/><path class="cls-6" d="M460.91,193.38v-6h1.12v5.12h2.08v.88h-3.2Z"/><path class="cls-6" d="M462.08,205.99v2.58h-1.12v-6h2.12c.26,0,.49,.02,.69,.07,.21,.05,.38,.13,.54,.24,.15,.11,.27,.26,.35,.45,.08,.19,.12,.41,.12,.68,0,.18-.01,.35-.04,.51-.03,.16-.08,.3-.14,.44-.07,.13-.16,.24-.29,.33-.12,.09-.27,.15-.45,.17v.02c.31,.04,.54,.16,.67,.34s.2,.43,.2,.74c0,.25,0,.46,0,.65,0,.19,.02,.37,.03,.55,.02,.18,.04,.33,.07,.46,.03,.13,.07,.2,.13,.24v.11h-1.23c-.05-.14-.08-.31-.09-.53-.01-.21-.02-.47-.03-.76v-.28c0-.14-.01-.25-.02-.33,0-.08-.02-.17-.04-.25-.02-.09-.06-.16-.12-.22-.05-.06-.12-.11-.21-.13-.12-.04-.24-.06-.38-.07-.14,0-.33-.01-.57-.01h-.2Zm0-.88h.88c.2-.01,.36-.09,.48-.23,.12-.14,.18-.35,.18-.64,0-.31-.06-.52-.17-.63-.12-.1-.29-.16-.53-.16h-.83v1.66Z"/><path class="cls-6" d="M460.91,230.26v-6h1.12v5.12h2.08v.88h-3.2Z"/><path class="cls-6" d="M462.08,242.86v2.58h-1.12v-6h2.12c.26,0,.49,.02,.69,.07,.21,.05,.38,.13,.54,.24,.15,.11,.27,.26,.35,.45,.08,.19,.12,.41,.12,.68,0,.18-.01,.35-.04,.51-.03,.16-.08,.3-.14,.44-.07,.13-.16,.24-.29,.33-.12,.09-.27,.15-.45,.17v.02c.31,.04,.54,.16,.67,.34s.2,.43,.2,.74c0,.25,0,.46,0,.65,0,.19,.02,.37,.03,.55,.02,.18,.04,.33,.07,.46,.03,.13,.07,.2,.13,.24v.11h-1.23c-.05-.14-.08-.31-.09-.53-.01-.21-.02-.47-.03-.76v-.28c0-.14-.01-.25-.02-.33,0-.08-.02-.17-.04-.25-.02-.09-.06-.16-.12-.22-.05-.06-.12-.11-.21-.13-.12-.04-.24-.06-.38-.07-.14,0-.33-.01-.57-.01h-.2Zm0-.88h.88c.2-.01,.36-.09,.48-.23,.12-.14,.18-.35,.18-.64,0-.31-.06-.52-.17-.63-.12-.1-.29-.16-.53-.16h-.83v1.66Z"/><path class="cls-6" d="M460.91,268.13v-6h1.12v5.12h2.08v.88h-3.2Z"/><path class="cls-6" d="M462.08,280.74v2.58h-1.12v-6h2.12c.26,0,.49,.02,.69,.07,.21,.05,.38,.13,.54,.24,.15,.11,.27,.26,.35,.45,.08,.19,.12,.41,.12,.68,0,.18-.01,.35-.04,.51-.03,.16-.08,.3-.14,.44-.07,.13-.16,.24-.29,.33-.12,.09-.27,.15-.45,.17v.02c.31,.04,.54,.16,.67,.34,.13,.19,.2,.43,.2,.74,0,.24,0,.46,0,.65,0,.19,.02,.37,.03,.55,.02,.18,.04,.33,.07,.46,.03,.13,.07,.2,.13,.24v.11h-1.23c-.05-.14-.08-.31-.09-.53-.01-.21-.02-.47-.03-.76v-.28c0-.14-.01-.25-.02-.33,0-.08-.02-.17-.04-.25-.02-.09-.06-.16-.12-.22-.05-.06-.12-.1-.21-.13-.12-.04-.24-.06-.38-.07s-.33-.01-.57-.01h-.2Zm0-.88h.88c.2,0,.36-.09,.48-.23,.12-.14,.18-.35,.18-.64,0-.31-.06-.52-.17-.63-.12-.1-.29-.16-.53-.16h-.83v1.66Z"/><path class="cls-6" d="M503.57,243.14v2.58h-1.12v-6h2.12c.26,0,.49,.02,.69,.07,.21,.05,.38,.13,.54,.24,.15,.11,.27,.26,.35,.45,.08,.19,.12,.41,.12,.68,0,.18-.01,.35-.04,.51-.03,.16-.07,.3-.14,.44-.07,.13-.16,.24-.28,.33-.12,.09-.27,.15-.45,.17v.02c.31,.04,.54,.16,.67,.34,.13,.19,.2,.43,.2,.74,0,.25,0,.46,0,.65,0,.19,.02,.37,.03,.55,.02,.18,.04,.33,.07,.46,.03,.13,.07,.2,.13,.24v.11h-1.23c-.05-.14-.08-.31-.09-.53-.01-.21-.02-.47-.03-.76v-.28c0-.14-.01-.25-.02-.33,0-.08-.02-.17-.04-.25-.02-.09-.06-.16-.12-.22-.05-.06-.12-.11-.21-.13-.12-.04-.25-.06-.38-.07-.14,0-.33-.01-.57-.01h-.2Zm0-.88h.88c.2-.01,.36-.09,.48-.23,.12-.14,.18-.35,.18-.64,0-.31-.06-.52-.17-.63-.11-.1-.29-.16-.53-.16h-.83v1.66Z"/><g><polyline class="cls-1" points="264.95 47.6 269.45 52.1 273.96 47.6 282.48 47.61"/><rect class="cls-1" x="248.55" y="47.64" width="7.87" height="24.88"/><path class="cls-5" d="M281.91,47.64c0,1.09,.88,1.97,1.97,1.97s1.97-.88,1.97-1.97-.88-1.97-1.97-1.97-1.97,.88-1.97,1.97Z"/><path class="cls-5" d="M281.91,55.52c0,1.09,.88,1.97,1.97,1.97s1.97-.88,1.97-1.97-.88-1.97-1.97-1.97-1.97,.88-1.97,1.97Z"/><path class="cls-5" d="M281.91,72.52c0,1.09,.88,1.97,1.97,1.97s1.97-.88,1.97-1.97-.88-1.97-1.97-1.97-1.97,.88-1.97,1.97Z"/><line class="cls-1" x1="256.44" y1="72.52" x2="281.91" y2="72.52"/><polygon class="cls-1" points="280.58 52.43 278.19 48.3 275.81 52.43 280.58 52.43"/><polyline class="cls-1" points="278.25 52.56 278.25 55.51 281.91 55.51"/><line class="cls-5" x1="283.94" y1="74.46" x2="283.94" y2="84.44"/><line class="cls-5" x1="278.93" y1="84.44" x2="289" y2="84.44"/><line class="cls-5" x1="285.26" y1="88.66" x2="288.04" y2="84.39"/><line class="cls-5" x1="282.39" y1="88.66" x2="285.17" y2="84.39"/><line class="cls-5" x1="279.44" y1="88.66" x2="282.22" y2="84.39"/></g><g><polyline class="cls-1" points="264.95 104.12 269.45 108.62 273.96 104.12 282.48 104.13"/><rect class="cls-1" x="248.55" y="104.16" width="7.87" height="24.88"/><path class="cls-5" d="M281.91,104.16c0,1.09,.88,1.97,1.97,1.97s1.97-.88,1.97-1.97-.88-1.97-1.97-1.97-1.97,.88-1.97,1.97Z"/><path class="cls-5" d="M281.91,112.03c0,1.09,.88,1.97,1.97,1.97s1.97-.88,1.97-1.97-.88-1.97-1.97-1.97-1.97,.88-1.97,1.97Z"/><path class="cls-5" d="M281.91,129.03c0,1.09,.88,1.97,1.97,1.97s1.97-.88,1.97-1.97-.88-1.97-1.97-1.97-1.97,.88-1.97,1.97Z"/><line class="cls-1" x1="256.44" y1="129.03" x2="281.91" y2="129.03"/><polygon class="cls-1" points="280.58 108.95 278.19 104.81 275.81 108.95 280.58 108.95"/><polyline class="cls-1" points="278.25 109.08 278.25 112.03 281.91 112.03"/><line class="cls-5" x1="283.94" y1="130.98" x2="283.94" y2="140.96"/><line class="cls-5" x1="278.93" y1="140.96" x2="289" y2="140.96"/><line class="cls-5" x1="285.26" y1="145.18" x2="288.04" y2="140.91"/><line class="cls-5" x1="282.39" y1="145.18" x2="285.17" y2="140.91"/><line class="cls-5" x1="279.44" y1="145.18" x2="282.22" y2="140.91"/></g><polyline class="cls-1" points="50.65 161.24 55.15 165.74 59.66 161.24 68.18 161.25"/><rect class="cls-1" x="34.26" y="161.28" width="7.87" height="24.88"/><path class="cls-5" d="M67.62,161.28c0,1.09,.88,1.97,1.97,1.97s1.97-.88,1.97-1.97-.88-1.97-1.97-1.97-1.97,.88-1.97,1.97Z"/><path class="cls-5" d="M67.62,186.16c0,1.09,.88,1.97,1.97,1.97s1.97-.88,1.97-1.97-.88-1.97-1.97-1.97-1.97,.88-1.97,1.97Z"/><line class="cls-1" x1="42.14" y1="186.16" x2="67.62" y2="186.16"/><line class="cls-5" x1="69.64" y1="188.11" x2="69.64" y2="198.08"/><line class="cls-5" x1="64.63" y1="198.08" x2="74.7" y2="198.08"/><line class="cls-5" x1="70.96" y1="202.3" x2="73.74" y2="198.03"/><line class="cls-5" x1="68.1" y1="202.3" x2="70.88" y2="198.03"/><line class="cls-5" x1="65.15" y1="202.3" x2="67.92" y2="198.03"/><g><polyline class="cls-1" points="264.95 160.95 269.45 165.45 273.96 160.95 282.48 160.96"/><rect class="cls-1" x="248.55" y="160.99" width="7.87" height="24.88"/><path class="cls-5" d="M281.91,160.99c0,1.09,.88,1.97,1.97,1.97s1.97-.88,1.97-1.97-.88-1.97-1.97-1.97-1.97,.88-1.97,1.97Z"/><path class="cls-5" d="M281.91,168.87c0,1.09,.88,1.97,1.97,1.97s1.97-.88,1.97-1.97-.88-1.97-1.97-1.97-1.97,.88-1.97,1.97Z"/><path class="cls-5" d="M281.91,185.87c0,1.09,.88,1.97,1.97,1.97s1.97-.88,1.97-1.97-.88-1.97-1.97-1.97-1.97,.88-1.97,1.97Z"/><line class="cls-1" x1="256.44" y1="185.87" x2="281.91" y2="185.87"/><polygon class="cls-1" points="280.58 165.78 278.19 161.65 275.81 165.78 280.58 165.78"/><polyline class="cls-1" points="278.25 165.91 278.25 168.87 281.91 168.87"/><line class="cls-5" x1="283.94" y1="187.82" x2="283.94" y2="197.79"/><line class="cls-5" x1="278.93" y1="197.79" x2="289" y2="197.79"/><line class="cls-5" x1="285.26" y1="202.01" x2="288.04" y2="197.74"/><line class="cls-5" x1="282.39" y1="202.01" x2="285.17" y2="197.74"/><line class="cls-5" x1="279.44" y1="202.01" x2="282.22" y2="197.74"/></g><polyline class="cls-1" points="264.95 217.62 269.45 222.12 273.96 217.62 282.48 217.63"/><rect class="cls-1" x="248.55" y="217.66" width="7.87" height="24.88"/><path class="cls-5" d="M281.91,217.66c0,1.09,.88,1.97,1.97,1.97s1.97-.88,1.97-1.97-.88-1.97-1.97-1.97-1.97,.88-1.97,1.97Z"/><path class="cls-5" d="M281.91,225.53c0,1.09,.88,1.97,1.97,1.97s1.97-.88,1.97-1.97-.88-1.97-1.97-1.97-1.97,.88-1.97,1.97Z"/><path class="cls-5" d="M281.91,242.53c0,1.09,.88,1.97,1.97,1.97s1.97-.88,1.97-1.97-.88-1.97-1.97-1.97-1.97,.88-1.97,1.97Z"/><line class="cls-1" x1="256.44" y1="242.53" x2="281.91" y2="242.53"/><polygon class="cls-1" points="280.58 222.45 278.19 218.32 275.81 222.45 280.58 222.45"/><polyline class="cls-1" points="278.25 222.58 278.25 225.53 281.91 225.53"/><path class="cls-5" d="M67.62,237.12c0,1.09,.88,1.97,1.97,1.97s1.97-.88,1.97-1.97-.88-1.97-1.97-1.97-1.97,.88-1.97,1.97Z"/><polygon class="cls-1" points="66.29 234.04 63.9 229.9 61.51 234.04 66.29 234.04"/><polyline class="cls-1" points="63.96 234.16 63.96 237.12 67.62 237.12"/><line class="cls-5" x1="283.94" y1="244.48" x2="283.94" y2="254.46"/><line class="cls-5" x1="278.93" y1="254.46" x2="289" y2="254.46"/><line class="cls-5" x1="285.26" y1="258.68" x2="288.04" y2="254.41"/><line class="cls-5" x1="282.39" y1="258.68" x2="285.17" y2="254.41"/><line class="cls-5" x1="279.44" y1="258.68" x2="282.22" y2="254.41"/><line class="cls-5" x1="283.95" y1="57.61" x2="283.95" y2="70.67"/><line class="cls-5" x1="283.95" y1="170.77" x2="283.95" y2="183.84"/><line class="cls-5" x1="157.58" y1="46" x2="168.44" y2="41.33"/><line class="cls-5" x1="157.58" y1="159.39" x2="168.44" y2="154.72"/><line class="cls-5" x1="157.58" y1="272.77" x2="168.44" y2="268.1"/><line class="cls-5" x1="173.84" y1="104.37" x2="190.41" y2="104.37"/><line class="cls-5" x1="157.58" y1="102.73" x2="168.44" y2="98.06"/><g><path class="cls-5" d="M155.71,106.66c1.29,0,2.33-1.04,2.33-2.33s-1.04-2.33-2.33-2.33-2.33,1.04-2.33,2.33,1.04,2.33,2.33,2.33Z"/><path class="cls-5" d="M171.51,106.66c1.29,0,2.33-1.04,2.33-2.33s-1.04-2.33-2.33-2.33-2.33,1.04-2.33,2.33,1.04,2.33,2.33,2.33Z"/></g><polyline class="cls-1" points="211.31 274.28 206.8 278.78 202.3 274.28 193.78 274.29"/><rect class="cls-1" x="219.83" y="274.32" width="7.87" height="24.88"/><path class="cls-5" d="M194.34,274.32c0,1.09-.88,1.97-1.97,1.97s-1.97-.88-1.97-1.97,.88-1.97,1.97-1.97,1.97,.88,1.97,1.97Z"/><path class="cls-5" d="M194.34,299.19c0,1.09-.88,1.97-1.97,1.97s-1.97-.88-1.97-1.97,.88-1.97,1.97-1.97,1.97,.88,1.97,1.97Z"/><line class="cls-1" x1="219.81" y1="299.19" x2="194.34" y2="299.19"/><line class="cls-5" x1="192.36" y1="301.18" x2="192.36" y2="311.16"/><line class="cls-5" x1="187.34" y1="311.16" x2="197.41" y2="311.16"/><line class="cls-5" x1="193.67" y1="315.38" x2="196.45" y2="311.11"/><line class="cls-5" x1="190.81" y1="315.38" x2="193.59" y2="311.11"/><line class="cls-5" x1="187.86" y1="315.38" x2="190.64" y2="311.11"/><g><path class="cls-6" d="M158.28,256.09v-6h3.18v.88h-2.06v1.52h1.93v.88h-1.93v2.72h-1.12Z"/><path class="cls-6" d="M166.06,256.09h-1.28l-.64-1.46c-.11-.25-.18-.5-.23-.76h-.02c-.02,.16-.06,.31-.11,.46-.05,.15-.13,.33-.22,.55-.01,.02-.03,.06-.05,.1l-.5,1.1h-1.22l1.47-3.04-1.42-2.96h1.26l.61,1.36,.02,.04c.06,.16,.11,.28,.15,.39,.03,.1,.05,.21,.05,.32h.02c.01-.15,.04-.29,.09-.43,.05-.14,.12-.3,.21-.5,.04-.09,.06-.15,.07-.17l.43-1.02h1.26l-1.44,2.96,1.49,3.04Z"/><path class="cls-6" d="M167.51,252.44s.1,0,.18,0c.25,0,.42-.03,.53-.08,.14-.06,.23-.16,.28-.28,.05-.12,.07-.27,.07-.46,0-.45-.18-.67-.54-.67-.14,0-.26,.04-.37,.1-.11,.07-.16,.19-.17,.37v.42h-1.05v-.1s0-.06,0-.09c0-.51,.13-.91,.4-1.18,.26-.27,.66-.41,1.19-.41s.96,.13,1.23,.4c.27,.27,.4,.65,.4,1.14,0,.14-.01,.28-.04,.41-.03,.14-.07,.26-.14,.38-.06,.12-.14,.22-.24,.3-.1,.08-.22,.13-.36,.15v.02c.27,.03,.49,.17,.66,.42,.16,.25,.25,.59,.25,1.04,0,.61-.14,1.08-.42,1.4-.28,.33-.72,.49-1.32,.49-.35,0-.63-.05-.86-.16-.23-.11-.4-.25-.51-.42-.11-.17-.19-.35-.23-.55-.04-.2-.06-.41-.06-.62v-.35h1.05s0,.12,0,.22c0,.16,0,.29,.02,.4,.01,.1,.03,.21,.07,.3,.04,.1,.1,.17,.19,.23,.09,.06,.2,.09,.35,.09s.25-.03,.33-.09c.08-.06,.14-.14,.18-.24,.04-.1,.06-.21,.07-.34,0-.12,.01-.28,.01-.47,0-.13,0-.26-.02-.37s-.05-.2-.1-.26c-.09-.1-.21-.17-.38-.2s-.38-.04-.63-.04v-.88Z"/></g><g><path class="cls-6" d="M153.36,259.32c0-.35-.04-.61-.13-.79-.09-.18-.26-.27-.53-.27-.2,0-.35,.04-.46,.13-.11,.09-.16,.23-.16,.43s.05,.36,.15,.47c.1,.11,.26,.24,.48,.38h.02c.13,.09,.26,.17,.37,.25,.11,.07,.23,.15,.34,.24,.12,.08,.24,.17,.36,.26,.12,.09,.22,.17,.29,.25,.19,.18,.32,.37,.39,.56,.07,.19,.11,.42,.11,.69,0,.55-.17,.98-.5,1.28-.34,.3-.78,.45-1.34,.45-.33,0-.6-.04-.84-.13-.23-.09-.42-.21-.57-.37-.14-.16-.25-.35-.32-.57-.07-.22-.1-.47-.1-.75v-.44h1.12v.35c0,.33,.05,.58,.16,.75,.11,.17,.29,.26,.54,.26,.46,0,.7-.24,.7-.71,0-.17-.04-.32-.11-.45-.07-.13-.19-.24-.34-.34-.13-.1-.33-.24-.61-.42-.29-.19-.52-.35-.69-.49-.17-.14-.33-.3-.47-.47-.19-.28-.29-.59-.29-.92,0-.52,.15-.91,.44-1.18,.29-.27,.73-.4,1.32-.4,.41,0,.73,.07,.97,.2,.24,.13,.42,.29,.53,.49s.18,.39,.2,.58c.03,.19,.04,.4,.04,.63v.06h-1.08Z"/><path class="cls-6" d="M159.38,260.6c.04,.2,.07,.42,.1,.66s.06,.54,.09,.9c.03,.28,.05,.47,.06,.58h.02s.01-.1,.02-.22c.01-.12,.02-.19,.02-.22,.05-.61,.1-1.13,.17-1.54l.45-3.27h1.16l-1.11,6h-1.34l-.45-2.37c-.05-.28-.11-.71-.17-1.28-.03-.31-.06-.53-.07-.63h-.02c-.02,.11-.04,.32-.07,.63-.06,.57-.11,1-.17,1.28l-.4,2.37h-1.34l-1.14-6h1.16l.5,3.27c.06,.41,.12,.92,.17,1.54,.01,.1,.02,.24,.03,.43h.02c.02-.17,.05-.4,.07-.7,.07-.68,.13-1.16,.18-1.44l.54-3.1h.93l.6,3.1Z"/><path class="cls-6" d="M162.19,263.49v-6h1.12v6h-1.12Z"/><path class="cls-6" d="M164,257.49h3.74v.88h-1.3v5.12h-1.12v-5.12h-1.31v-.88Z"/><path class="cls-6" d="M171.96,261.35s0,.07,0,.17c-.01,.1-.02,.15-.02,.18-.02,.29-.05,.55-.12,.79-.06,.23-.16,.43-.28,.6-.13,.17-.3,.31-.5,.4-.21,.1-.46,.14-.77,.14-.44,0-.8-.07-1.06-.2s-.46-.32-.59-.56c-.13-.24-.21-.52-.25-.83-.04-.31-.06-.71-.06-1.18v-.86c.02-.46,.05-.84,.09-1.14,.04-.29,.13-.56,.25-.79,.13-.23,.32-.41,.58-.54,.26-.13,.61-.19,1.04-.19,1.01,.02,1.56,.53,1.64,1.55,.02,.15,.02,.31,.02,.46h-1.1s-.01-.1-.02-.19c-.01-.14-.02-.26-.04-.35-.02-.09-.04-.18-.08-.27s-.09-.16-.16-.22c-.07-.05-.16-.08-.27-.08-.18,0-.33,.04-.44,.12-.11,.08-.19,.2-.24,.34-.05,.14-.09,.3-.1,.46-.02,.17-.02,.36-.02,.59v1.66c0,.17,0,.32,.02,.46,.02,.14,.05,.27,.1,.4,.05,.13,.13,.24,.24,.32,.11,.08,.25,.12,.44,.12,.13,0,.23-.04,.3-.12,.07-.08,.13-.18,.17-.29,.04-.12,.06-.24,.07-.37,.01-.12,.02-.26,.02-.41,0-.08,0-.15,0-.18h1.13Z"/><path class="cls-6" d="M172.86,263.49v-6h1.12v2.38h1.57v-2.38h1.12v6h-1.12v-2.74h-1.57v2.74h-1.12Z"/></g><g><path class="cls-6" d="M346.58,280.65v-6h1.12v5.12h2.08v.88h-3.2Z"/><path class="cls-6" d="M350.54,280.65v-6h3.15v.88h-2.03v1.51h1.87v.88h-1.87v1.85h2.03v.88h-3.15Z"/><path class="cls-6" d="M357.12,274.65h1.2l-1.3,6h-1.5l-1.33-6h1.2l.7,3.85c.05,.28,.1,.62,.14,1.02,0,.02,0,.07,.02,.15,.02,.15,.03,.27,.03,.34h.02c0-.07,.01-.19,.03-.34,0-.09,.02-.14,.02-.15,.04-.4,.08-.75,.14-1.02l.63-3.85Z"/><path class="cls-6" d="M358.99,280.65v-6h3.15v.88h-2.03v1.51h1.87v.88h-1.87v1.85h2.03v.88h-3.15Z"/><path class="cls-6" d="M363.02,280.65v-6h1.12v5.12h2.08v.88h-3.2Z"/></g><g><path class="cls-6" d="M347.45,273.25v-6h3.18v.88h-2.06v1.52h1.93v.88h-1.93v2.72h-1.12Z"/><path class="cls-6" d="M355.23,273.25h-1.28l-.64-1.46c-.11-.25-.18-.5-.23-.76h-.02c-.02,.16-.06,.31-.11,.46-.05,.15-.13,.33-.22,.55-.01,.02-.03,.06-.05,.1l-.5,1.1h-1.22l1.47-3.04-1.42-2.96h1.26l.61,1.36,.02,.04c.06,.16,.11,.28,.15,.39,.03,.1,.05,.21,.05,.32h.02c.01-.15,.04-.29,.09-.43,.05-.14,.12-.3,.21-.5,.04-.09,.06-.15,.07-.17l.43-1.02h1.26l-1.44,2.96,1.49,3.04Z"/><path class="cls-6" d="M356.68,269.6s.1,0,.18,0c.25,0,.42-.03,.53-.08,.14-.06,.23-.16,.28-.28,.04-.12,.07-.27,.07-.46,0-.45-.18-.67-.54-.67-.14,0-.26,.04-.37,.1-.11,.07-.16,.19-.17,.37v.42h-1.05v-.1s0-.06,0-.09c0-.51,.13-.91,.4-1.18,.26-.27,.66-.41,1.19-.41s.96,.13,1.23,.4c.27,.27,.4,.65,.4,1.14,0,.14-.02,.28-.04,.41-.03,.14-.07,.26-.13,.38-.06,.12-.14,.22-.24,.3-.1,.08-.22,.13-.36,.15v.02c.27,.03,.49,.17,.66,.42,.17,.25,.25,.59,.25,1.04,0,.61-.14,1.08-.42,1.4-.28,.33-.72,.49-1.32,.49-.35,0-.63-.05-.86-.16-.23-.11-.4-.25-.51-.42-.11-.17-.19-.35-.23-.55-.04-.2-.06-.41-.06-.62v-.35h1.05s0,.12,0,.22c0,.16,0,.29,.02,.4,.01,.1,.04,.21,.07,.3s.1,.17,.19,.23c.09,.06,.2,.09,.35,.09s.25-.03,.33-.09c.08-.06,.14-.14,.18-.24,.04-.1,.06-.21,.07-.34,0-.12,.01-.28,.01-.47,0-.13,0-.26-.02-.37-.02-.11-.05-.2-.1-.26-.08-.1-.21-.17-.38-.2s-.38-.04-.63-.04v-.88Z"/><path class="cls-6" d="M359.7,271.21v-.92h1.9v.92h-1.9Z"/><path class="cls-6" d="M362.52,273.25v-6h1.12v5.12h2.08v.88h-3.2Z"/></g><g><path class="cls-6" d="M346.58,337.52v-6h1.12v5.12h2.08v.88h-3.2Z"/><path class="cls-6" d="M350.54,337.52v-6h3.15v.88h-2.03v1.51h1.87v.88h-1.87v1.85h2.03v.88h-3.15Z"/><path class="cls-6" d="M357.12,331.52h1.2l-1.3,6h-1.5l-1.33-6h1.2l.7,3.85c.05,.28,.1,.62,.14,1.02,0,.02,0,.07,.02,.15,.02,.15,.03,.27,.03,.34h.02c0-.07,.01-.19,.03-.34,0-.09,.02-.14,.02-.15,.04-.4,.08-.75,.14-1.02l.63-3.85Z"/><path class="cls-6" d="M358.99,337.52v-6h3.15v.88h-2.03v1.51h1.87v.88h-1.87v1.85h2.03v.88h-3.15Z"/><path class="cls-6" d="M363.02,337.52v-6h1.12v5.12h2.08v.88h-3.2Z"/></g><g><path class="cls-6" d="M347.45,330.12v-6h3.18v.88h-2.06v1.52h1.93v.88h-1.93v2.72h-1.12Z"/><path class="cls-6" d="M355.23,330.12h-1.28l-.64-1.46c-.11-.25-.18-.5-.23-.76h-.02c-.02,.16-.06,.31-.11,.46-.05,.15-.13,.33-.22,.55-.01,.02-.03,.06-.05,.1l-.5,1.1h-1.22l1.47-3.04-1.42-2.96h1.26l.61,1.36,.02,.04c.06,.16,.11,.28,.15,.39,.03,.1,.05,.21,.05,.32h.02c.01-.15,.04-.29,.09-.43,.05-.14,.12-.3,.21-.5,.04-.09,.06-.15,.07-.17l.43-1.02h1.26l-1.44,2.96,1.49,3.04Z"/><path class="cls-6" d="M356.68,326.48s.1,0,.18,0c.25,0,.42-.03,.53-.08,.14-.06,.23-.16,.28-.28,.04-.12,.07-.27,.07-.46,0-.45-.18-.67-.54-.67-.14,0-.26,.04-.37,.1-.11,.07-.16,.19-.17,.37v.42h-1.05v-.1s0-.06,0-.09c0-.51,.13-.91,.4-1.18,.26-.27,.66-.41,1.19-.41s.96,.13,1.23,.4c.27,.27,.4,.65,.4,1.14,0,.14-.02,.28-.04,.41-.03,.14-.07,.26-.13,.38-.06,.12-.14,.22-.24,.3-.1,.08-.22,.13-.36,.15v.02c.27,.03,.49,.17,.66,.42,.17,.25,.25,.59,.25,1.04,0,.61-.14,1.08-.42,1.4-.28,.33-.72,.49-1.32,.49-.35,0-.63-.05-.86-.16-.23-.11-.4-.25-.51-.42-.11-.17-.19-.35-.23-.55-.04-.2-.06-.41-.06-.62v-.35h1.05s0,.12,0,.22c0,.16,0,.29,.02,.4,.01,.1,.04,.21,.07,.3s.1,.17,.19,.23c.09,.06,.2,.09,.35,.09s.25-.03,.33-.09c.08-.06,.14-.14,.18-.24,.04-.1,.06-.21,.07-.34,0-.12,.01-.28,.01-.47,0-.13,0-.26-.02-.37-.02-.11-.05-.2-.1-.26-.08-.1-.21-.17-.38-.2s-.38-.04-.63-.04v-.88Z"/><path class="cls-6" d="M359.7,328.08v-.92h1.9v.92h-1.9Z"/><path class="cls-6" d="M363.62,327.54v2.58h-1.12v-6h2.12c.26,0,.49,.02,.69,.07,.21,.05,.38,.13,.54,.24,.15,.11,.27,.26,.35,.45,.08,.19,.12,.41,.12,.68,0,.18-.01,.35-.04,.51-.03,.16-.08,.3-.14,.44-.07,.13-.16,.24-.29,.33-.12,.09-.27,.15-.45,.17v.02c.31,.04,.54,.16,.67,.34,.13,.19,.2,.43,.2,.74,0,.24,0,.46,0,.65,0,.19,.02,.37,.03,.55,.02,.18,.04,.33,.07,.46,.03,.13,.07,.2,.13,.24v.11h-1.23c-.05-.14-.08-.31-.09-.53-.01-.21-.02-.47-.03-.76v-.28c0-.14-.01-.25-.02-.33,0-.08-.02-.17-.04-.25-.02-.09-.06-.16-.12-.22-.05-.06-.12-.1-.21-.13-.12-.04-.24-.06-.38-.07-.14,0-.33-.01-.57-.01h-.2Zm0-.88h.88c.2,0,.36-.09,.48-.23,.12-.14,.18-.35,.18-.64,0-.31-.06-.52-.17-.63-.12-.1-.29-.16-.53-.16h-.83v1.66Z"/></g><g><path class="cls-6" d="M249.22,267.82v2.91h-1.26v-6.75h2.38c.29,0,.55,.03,.78,.08,.23,.05,.43,.14,.6,.27,.17,.13,.3,.29,.4,.5,.09,.21,.14,.46,.14,.77,0,.2-.02,.39-.04,.57-.03,.18-.08,.34-.16,.49-.08,.15-.18,.27-.32,.37-.14,.1-.3,.16-.51,.19v.02c.35,.05,.6,.18,.75,.39,.15,.21,.22,.49,.22,.84,0,.28,0,.52,0,.73,0,.21,.02,.42,.04,.62,.02,.2,.04,.37,.08,.51,.04,.14,.08,.23,.14,.27v.13h-1.39c-.05-.16-.09-.35-.1-.59-.01-.24-.03-.52-.03-.85v-.32c0-.16-.01-.28-.02-.37,0-.09-.02-.19-.05-.28-.03-.1-.07-.18-.13-.25-.06-.07-.14-.12-.23-.15-.13-.04-.28-.07-.43-.08-.16,0-.37-.01-.64-.01h-.23Zm0-.99h.99c.22-.01,.4-.1,.54-.26,.14-.16,.2-.4,.2-.72,0-.35-.06-.59-.19-.71-.13-.12-.33-.18-.6-.18h-.94v1.86Z"/><path class="cls-6" d="M252.86,263.97h4.2v.99h-1.47v5.76h-1.26v-5.76h-1.48v-.99Z"/><path class="cls-6" d="M260.83,263.97h1.26v6.75h-1.31l-.98-2.4c-.16-.39-.31-.8-.45-1.22-.14-.42-.29-.91-.45-1.46h-.02c.03,.4,.06,.75,.08,1.04s.04,.59,.06,.89c.02,.39,.04,.74,.05,1.06,0,.32,.01,.59,.01,.83v1.27h-1.26v-6.75h1.31l.98,2.46c.17,.4,.32,.81,.46,1.24,.14,.42,.29,.9,.44,1.45h.02c-.05-.73-.1-1.37-.13-1.92-.04-.76-.06-1.39-.06-1.9v-1.32Z"/><path class="cls-6" d="M264.24,266.62s.11,0,.2,0c.28,0,.47-.04,.59-.09,.16-.07,.26-.18,.31-.32,.05-.14,.08-.31,.08-.51,0-.5-.2-.76-.6-.76-.16,0-.29,.04-.41,.12-.12,.08-.18,.22-.19,.41v.48h-1.18v-.11s0-.07,0-.1c0-.58,.15-1.02,.45-1.33s.74-.46,1.34-.46,1.08,.15,1.38,.45c.3,.3,.45,.73,.45,1.28,0,.16-.02,.31-.05,.46-.03,.15-.08,.3-.15,.43-.07,.13-.16,.24-.27,.33-.11,.09-.25,.15-.4,.17v.02c.31,.04,.55,.19,.74,.47,.19,.28,.28,.67,.28,1.17,0,.68-.16,1.21-.48,1.58-.32,.37-.81,.55-1.48,.55-.39,0-.71-.06-.97-.18-.25-.12-.45-.28-.57-.47-.13-.19-.21-.4-.26-.62-.04-.22-.07-.45-.07-.7v-.4h1.18c0,.05,0,.13,0,.24,0,.18,0,.33,.02,.45,.01,.12,.04,.23,.08,.34s.11,.19,.21,.26c.1,.07,.23,.1,.39,.1s.28-.03,.37-.1c.09-.07,.16-.16,.21-.27,.04-.11,.07-.24,.08-.38,0-.14,.01-.31,.01-.53,0-.15,0-.29-.03-.41s-.06-.23-.12-.3c-.1-.11-.24-.19-.43-.22-.19-.03-.42-.05-.71-.05v-.99Z"/><path class="cls-6" d="M267.63,268.43v-1.04h2.14v1.04h-2.14Z"/><path class="cls-6" d="M270.81,270.72v-6.75h1.26v5.76h2.34v.99h-3.6Z"/></g><g><path class="cls-6" d="M249.22,324.82v2.91h-1.26v-6.75h2.38c.29,0,.55,.03,.78,.08,.23,.05,.43,.14,.6,.27,.17,.13,.3,.29,.4,.5,.09,.21,.14,.46,.14,.77,0,.2-.02,.39-.04,.57-.03,.18-.08,.34-.16,.49-.08,.15-.18,.27-.32,.37-.14,.1-.3,.16-.51,.19v.02c.35,.05,.6,.18,.75,.39,.15,.21,.22,.49,.22,.84,0,.28,0,.52,0,.73,0,.21,.02,.42,.04,.62,.02,.2,.04,.37,.08,.51,.04,.14,.08,.23,.14,.27v.13h-1.39c-.05-.16-.09-.35-.1-.59-.01-.24-.03-.52-.03-.85v-.32c0-.16-.01-.28-.02-.37,0-.09-.02-.19-.05-.28-.03-.1-.07-.18-.13-.25-.06-.07-.14-.12-.23-.15-.13-.04-.28-.07-.43-.08-.16,0-.37-.01-.64-.01h-.23Zm0-.99h.99c.22-.01,.4-.1,.54-.26,.14-.16,.2-.4,.2-.72,0-.35-.06-.59-.19-.71-.13-.12-.33-.18-.6-.18h-.94v1.86Z"/><path class="cls-6" d="M252.86,320.97h4.2v.99h-1.47v5.76h-1.26v-5.76h-1.48v-.99Z"/><path class="cls-6" d="M260.83,320.97h1.26v6.75h-1.31l-.98-2.4c-.16-.39-.31-.8-.45-1.22-.14-.42-.29-.91-.45-1.46h-.02c.03,.4,.06,.75,.08,1.04s.04,.59,.06,.89c.02,.39,.04,.74,.05,1.06,0,.32,.01,.59,.01,.83v1.27h-1.26v-6.75h1.31l.98,2.46c.17,.4,.32,.81,.46,1.24,.14,.42,.29,.9,.44,1.45h.02c-.05-.73-.1-1.37-.13-1.92-.04-.76-.06-1.39-.06-1.9v-1.32Z"/><path class="cls-6" d="M264.24,323.62s.11,0,.2,0c.28,0,.47-.04,.59-.09,.16-.07,.26-.18,.31-.32,.05-.14,.08-.31,.08-.51,0-.5-.2-.76-.6-.76-.16,0-.29,.04-.41,.12-.12,.08-.18,.22-.19,.41v.48h-1.18v-.11s0-.07,0-.1c0-.58,.15-1.02,.45-1.33s.74-.46,1.34-.46,1.08,.15,1.38,.45c.3,.3,.45,.73,.45,1.28,0,.16-.02,.31-.05,.46-.03,.15-.08,.3-.15,.43-.07,.13-.16,.24-.27,.33-.11,.09-.25,.15-.4,.17v.02c.31,.04,.55,.19,.74,.47,.19,.28,.28,.67,.28,1.17,0,.68-.16,1.21-.48,1.58-.32,.37-.81,.55-1.48,.55-.39,0-.71-.06-.97-.18-.25-.12-.45-.28-.57-.47-.13-.19-.21-.4-.26-.62-.04-.22-.07-.45-.07-.7v-.4h1.18c0,.05,0,.13,0,.24,0,.18,0,.33,.02,.45,.01,.12,.04,.23,.08,.34s.11,.19,.21,.26c.1,.07,.23,.1,.39,.1s.28-.03,.37-.1c.09-.07,.16-.16,.21-.27,.04-.11,.07-.24,.08-.38,0-.14,.01-.31,.01-.53,0-.15,0-.29-.03-.41s-.06-.23-.12-.3c-.1-.11-.24-.19-.43-.22-.19-.03-.42-.05-.71-.05v-.99Z"/><path class="cls-6" d="M267.63,325.43v-1.04h2.14v1.04h-2.14Z"/><path class="cls-6" d="M272.05,324.82v2.91h-1.26v-6.75h2.38c.29,0,.55,.03,.78,.08,.23,.05,.43,.14,.6,.27,.17,.13,.3,.29,.4,.5,.09,.21,.14,.46,.14,.77,0,.2-.02,.39-.04,.57-.03,.18-.08,.34-.16,.49-.08,.15-.18,.27-.32,.37-.14,.1-.3,.16-.51,.19v.02c.35,.05,.6,.18,.75,.39,.15,.21,.22,.49,.22,.84,0,.28,0,.52,0,.73,0,.21,.02,.42,.04,.62,.02,.2,.04,.37,.08,.51,.04,.14,.08,.23,.14,.27v.13h-1.39c-.05-.16-.09-.35-.1-.59-.01-.24-.03-.52-.03-.85v-.32c0-.16-.01-.28-.02-.37,0-.09-.02-.19-.05-.28-.03-.1-.07-.18-.13-.25-.06-.07-.14-.12-.23-.15-.13-.04-.28-.07-.43-.08-.16,0-.37-.01-.64-.01h-.22Zm0-.99h.99c.22-.01,.4-.1,.54-.26,.14-.16,.2-.4,.2-.72,0-.35-.06-.59-.19-.71-.13-.12-.33-.18-.6-.18h-.94v1.86Z"/></g><g><path class="cls-6" d="M207.89,265.36c0-.39-.05-.69-.14-.89-.1-.2-.29-.31-.59-.31-.22,0-.39,.05-.51,.15-.12,.1-.18,.26-.18,.48s.06,.4,.17,.53c.11,.12,.29,.27,.54,.43h.02c.15,.1,.29,.2,.41,.28,.13,.08,.25,.17,.39,.27,.13,.09,.27,.19,.4,.29,.14,.1,.24,.2,.33,.28,.21,.21,.36,.42,.44,.63,.08,.22,.13,.48,.13,.78,0,.62-.19,1.1-.57,1.44-.38,.34-.88,.5-1.51,.5-.37,0-.68-.05-.95-.15-.26-.1-.48-.24-.64-.42-.16-.18-.28-.39-.36-.64-.08-.25-.11-.53-.11-.84v-.49h1.26v.4c0,.37,.06,.65,.18,.85,.12,.19,.33,.29,.61,.29,.52,0,.78-.26,.78-.79,0-.19-.04-.36-.13-.5-.08-.14-.21-.27-.38-.39-.14-.11-.37-.27-.68-.48-.32-.21-.58-.39-.78-.55-.2-.16-.37-.33-.53-.53-.22-.32-.32-.66-.32-1.03,0-.58,.16-1.02,.5-1.33,.33-.3,.82-.46,1.48-.46,.46,0,.82,.07,1.09,.22,.27,.15,.47,.33,.59,.55,.12,.22,.2,.44,.23,.66,.03,.21,.04,.45,.04,.71v.07h-1.21Z"/><path class="cls-6" d="M213.33,263.31h1.26v6.75h-1.31l-.98-2.4c-.16-.39-.31-.8-.45-1.22-.14-.42-.29-.91-.45-1.46h-.02c.03,.4,.06,.75,.08,1.04s.04,.59,.06,.89c.02,.39,.04,.74,.05,1.06,0,.31,.01,.59,.01,.83v1.27h-1.26v-6.75h1.31l.98,2.46c.17,.4,.32,.81,.46,1.24,.14,.42,.29,.91,.44,1.44h.02c-.05-.73-.1-1.37-.13-1.92-.04-.76-.06-1.39-.06-1.9v-1.32Z"/><path class="cls-6" d="M215.85,270.06v-6.75h2.63c.09,0,.19,.01,.3,.03,.11,.02,.22,.06,.32,.11,.28,.13,.51,.34,.68,.62,.14,.22,.23,.52,.29,.89,.05,.37,.08,.85,.08,1.44,0,.45,0,.83-.02,1.13-.02,.31-.05,.61-.12,.92s-.17,.59-.31,.83c-.14,.25-.34,.44-.58,.59-.13,.07-.26,.12-.41,.14-.15,.02-.32,.04-.52,.04h-2.33Zm1.81-.99c.28,0,.5-.04,.66-.13,.16-.08,.28-.22,.36-.41,.08-.19,.13-.43,.15-.73,.02-.3,.03-.73,.03-1.28,0-.83-.06-1.41-.18-1.73-.12-.33-.37-.49-.73-.49h-.83v4.77h.55Z"/><path class="cls-6" d="M222.24,265.95s.11,0,.2,0c.28,0,.47-.04,.59-.09,.16-.07,.26-.18,.31-.31,.05-.14,.08-.31,.08-.51,0-.5-.2-.76-.6-.76-.16,0-.29,.04-.41,.12-.12,.08-.18,.22-.19,.41v.48h-1.18v-.11s0-.07,0-.1c0-.58,.15-1.02,.45-1.33s.74-.46,1.34-.46,1.08,.15,1.38,.46c.3,.3,.45,.73,.45,1.28,0,.16-.02,.31-.05,.46-.03,.15-.08,.29-.15,.43-.07,.13-.16,.24-.27,.33-.11,.09-.25,.15-.4,.17v.02c.31,.04,.55,.19,.74,.47,.19,.28,.28,.67,.28,1.17,0,.68-.16,1.21-.48,1.57-.32,.37-.81,.55-1.48,.55-.39,0-.71-.06-.97-.18-.25-.12-.45-.28-.57-.47-.13-.19-.21-.4-.26-.62-.04-.22-.07-.46-.07-.7v-.4h1.18c0,.05,0,.14,0,.24,0,.18,0,.33,.02,.45,.01,.12,.04,.23,.08,.34,.04,.11,.11,.2,.21,.26,.1,.07,.23,.1,.39,.1s.28-.03,.37-.1c.09-.07,.16-.16,.21-.27,.04-.11,.07-.24,.08-.38,0-.14,.01-.32,.01-.53,0-.15,0-.29-.03-.41-.02-.13-.06-.22-.12-.3-.1-.11-.24-.19-.43-.22-.19-.03-.42-.05-.71-.05v-.99Z"/><path class="cls-6" d="M225.64,267.76v-1.04h2.14v1.04h-2.14Z"/><path class="cls-6" d="M228.81,270.06v-6.75h1.26v5.76h2.34v.99h-3.6Z"/></g><g><path class="cls-6" d="M207.89,323.02c0-.39-.05-.69-.14-.89-.1-.2-.29-.31-.59-.31-.22,0-.39,.05-.51,.15-.12,.1-.18,.26-.18,.48s.06,.4,.17,.53c.11,.12,.29,.26,.54,.43h.02c.15,.11,.29,.2,.41,.28,.13,.08,.25,.17,.39,.27,.13,.09,.27,.19,.4,.29,.14,.1,.24,.2,.33,.28,.21,.2,.36,.42,.44,.63,.08,.22,.13,.48,.13,.78,0,.62-.19,1.1-.57,1.44-.38,.34-.88,.5-1.51,.5-.37,0-.68-.05-.95-.15-.26-.1-.48-.24-.64-.42-.16-.18-.28-.39-.36-.64-.08-.25-.11-.53-.11-.84v-.5h1.26v.4c0,.37,.06,.65,.18,.85,.12,.19,.33,.29,.61,.29,.52,0,.78-.26,.78-.79,0-.19-.04-.36-.13-.5-.08-.14-.21-.27-.38-.39-.14-.11-.37-.27-.68-.48-.32-.21-.58-.39-.78-.55-.2-.16-.37-.33-.53-.53-.22-.32-.32-.66-.32-1.04,0-.58,.16-1.02,.5-1.33,.33-.3,.82-.45,1.48-.45,.46,0,.82,.07,1.09,.22,.27,.15,.47,.33,.59,.55,.12,.22,.2,.44,.23,.66,.03,.22,.04,.45,.04,.71v.07h-1.21Z"/><path class="cls-6" d="M213.33,320.97h1.26v6.75h-1.31l-.98-2.4c-.16-.39-.31-.8-.45-1.22-.14-.42-.29-.91-.45-1.46h-.02c.03,.4,.06,.75,.08,1.04s.04,.59,.06,.89c.02,.39,.04,.74,.05,1.06,0,.32,.01,.59,.01,.83v1.27h-1.26v-6.75h1.31l.98,2.46c.17,.4,.32,.81,.46,1.24,.14,.42,.29,.9,.44,1.45h.02c-.05-.73-.1-1.37-.13-1.92-.04-.76-.06-1.39-.06-1.9v-1.32Z"/><path class="cls-6" d="M215.85,327.72v-6.75h2.63c.09,0,.19,.01,.3,.03,.11,.02,.22,.06,.32,.11,.28,.13,.51,.34,.68,.62,.14,.22,.23,.52,.29,.89,.05,.37,.08,.85,.08,1.45,0,.45,0,.83-.02,1.13-.02,.31-.05,.61-.12,.92-.06,.31-.17,.59-.31,.83-.14,.25-.34,.44-.58,.58-.13,.07-.26,.12-.41,.14-.15,.02-.32,.04-.52,.04h-2.33Zm1.81-.99c.28,0,.5-.04,.66-.13,.16-.08,.28-.22,.36-.4,.08-.19,.13-.43,.15-.73s.03-.73,.03-1.28c0-.83-.06-1.41-.18-1.73-.12-.33-.37-.49-.73-.49h-.83v4.77h.55Z"/><path class="cls-6" d="M222.24,323.62s.11,0,.2,0c.28,0,.47-.04,.59-.09,.16-.07,.26-.18,.31-.32,.05-.14,.08-.31,.08-.51,0-.5-.2-.76-.6-.76-.16,0-.29,.04-.41,.12-.12,.08-.18,.22-.19,.41v.48h-1.18v-.11s0-.07,0-.1c0-.58,.15-1.02,.45-1.33s.74-.46,1.34-.46,1.08,.15,1.38,.45c.3,.3,.45,.73,.45,1.28,0,.16-.02,.31-.05,.46-.03,.15-.08,.3-.15,.43-.07,.13-.16,.24-.27,.33-.11,.09-.25,.15-.4,.17v.02c.31,.04,.55,.19,.74,.47,.19,.28,.28,.67,.28,1.17,0,.68-.16,1.21-.48,1.58-.32,.37-.81,.55-1.48,.55-.39,0-.71-.06-.97-.18-.25-.12-.45-.28-.57-.47-.13-.19-.21-.4-.26-.62-.04-.22-.07-.45-.07-.7v-.4h1.18c0,.05,0,.13,0,.24,0,.18,0,.33,.02,.45,.01,.12,.04,.23,.08,.34s.11,.19,.21,.26c.1,.07,.23,.1,.39,.1s.28-.03,.37-.1c.09-.07,.16-.16,.21-.27,.04-.11,.07-.24,.08-.38,0-.14,.01-.31,.01-.53,0-.15,0-.29-.03-.41-.02-.13-.06-.23-.12-.3-.1-.11-.24-.19-.43-.22-.19-.03-.42-.05-.71-.05v-.99Z"/><path class="cls-6" d="M225.64,325.43v-1.04h2.14v1.04h-2.14Z"/><path class="cls-6" d="M230.06,324.82v2.91h-1.26v-6.75h2.38c.29,0,.55,.03,.78,.08,.23,.05,.43,.14,.6,.27,.17,.13,.3,.29,.4,.5,.09,.21,.14,.46,.14,.77,0,.2-.02,.39-.04,.57-.03,.18-.08,.34-.16,.49-.08,.15-.18,.27-.32,.37-.14,.1-.3,.16-.51,.19v.02c.35,.05,.6,.18,.75,.39,.15,.21,.22,.49,.22,.84,0,.28,0,.52,0,.73,0,.21,.02,.42,.04,.62,.02,.2,.04,.37,.08,.51,.04,.14,.08,.23,.14,.27v.13h-1.39c-.05-.16-.09-.35-.1-.59-.01-.24-.03-.52-.03-.85v-.32c0-.16-.01-.28-.02-.37,0-.09-.02-.19-.05-.28-.03-.1-.07-.18-.13-.25-.06-.07-.14-.12-.23-.15-.13-.04-.28-.07-.43-.08-.16,0-.37-.01-.64-.01h-.23Zm0-.99h.99c.22-.01,.4-.1,.54-.26,.14-.16,.2-.4,.2-.72,0-.35-.06-.59-.19-.71-.13-.12-.33-.18-.6-.18h-.94v1.86Z"/></g><g><path class="cls-5" d="M155.71,276.74c1.29,0,2.33-1.04,2.33-2.33s-1.04-2.33-2.33-2.33-2.33,1.04-2.33,2.33,1.04,2.33,2.33,2.33Z"/><path class="cls-5" d="M171.51,276.74c1.29,0,2.33-1.04,2.33-2.33s-1.04-2.33-2.33-2.33-2.33,1.04-2.33,2.33,1.04,2.33,2.33,2.33Z"/></g><path class="cls-6" d="M291.83,276.53c1.17,0,2.12-.95,2.12-2.12s-.95-2.12-2.12-2.12-2.12,.95-2.12,2.12,.95,2.12,2.12,2.12Z"/><polygon class="cls-6" points="309.67 263.18 329.17 274.44 309.67 285.7 309.67 263.18"/><polygon class="cls-6" points="309.67 319.81 329.17 331.07 309.67 342.32 309.67 319.81"/><rect class="cls-5" x="339.95" y="265.08" width="35.33" height="18.67" rx="2.83" ry="2.83"/><path class="cls-5" d="M342.79,321.77h29.66c1.56,0,2.83,1.27,2.83,2.83v13c0,1.56-1.27,2.83-2.83,2.83h-29.66c-1.56,0-2.83-1.27-2.83-2.83v-13c0-1.56,1.27-2.83,2.83-2.83Z"/><line class="cls-5" x1="130.83" y1="274.41" x2="153.52" y2="274.41"/><line class="cls-5" x1="173.83" y1="274.41" x2="190.41" y2="274.41"/><line class="cls-5" x1="285.85" y1="274.41" x2="310.9" y2="274.41"/><line class="cls-5" x1="285.85" y1="331.1" x2="310.56" y2="331.1"/><polyline class="cls-5" points="291.83 274.41 291.83 328.55 294.33 328.55 294.33 333.39 291.83 333.39 291.83 338.89 285.85 338.89"/><line class="cls-5" x1="327.23" y1="274.41" x2="339.86" y2="274.41"/><line class="cls-5" x1="327.23" y1="331.1" x2="339.86" y2="331.1"/><line class="cls-2" x1="357.49" y1="284.05" x2="357.49" y2="322.05"/><g><polyline class="cls-1" points="264.95 274.34 269.45 278.84 273.96 274.34 282.48 274.35"/><rect class="cls-1" x="248.55" y="274.37" width="7.87" height="24.88"/><path class="cls-5" d="M281.91,274.38c0,1.09,.88,1.97,1.97,1.97s1.97-.88,1.97-1.97-.88-1.97-1.97-1.97-1.97,.88-1.97,1.97Z"/><path class="cls-5" d="M281.91,282.25c0,1.09,.88,1.97,1.97,1.97s1.97-.88,1.97-1.97-.88-1.97-1.97-1.97-1.97,.88-1.97,1.97Z"/><path class="cls-5" d="M281.91,299.25c0,1.09,.88,1.97,1.97,1.97s1.97-.88,1.97-1.97-.88-1.97-1.97-1.97-1.97,.88-1.97,1.97Z"/><line class="cls-1" x1="256.44" y1="299.25" x2="281.91" y2="299.25"/><polygon class="cls-1" points="280.58 279.17 278.19 275.03 275.81 279.17 280.58 279.17"/><polyline class="cls-1" points="278.25 279.3 278.25 282.25 281.91 282.25"/><line class="cls-5" x1="283.94" y1="301.2" x2="283.94" y2="311.18"/><line class="cls-5" x1="278.93" y1="311.18" x2="289" y2="311.18"/><line class="cls-5" x1="285.26" y1="315.4" x2="288.04" y2="311.13"/><line class="cls-5" x1="282.39" y1="315.4" x2="285.17" y2="311.13"/><line class="cls-5" x1="279.44" y1="315.4" x2="282.22" y2="311.13"/></g><g><polyline class="cls-1" points="264.95 331 269.45 335.51 273.96 331 282.48 331.01"/><rect class="cls-1" x="248.55" y="331.04" width="7.87" height="24.88"/><path class="cls-5" d="M281.91,331.04c0,1.09,.88,1.97,1.97,1.97s1.97-.88,1.97-1.97-.88-1.97-1.97-1.97-1.97,.88-1.97,1.97Z"/><path class="cls-5" d="M281.91,338.92c0,1.09,.88,1.97,1.97,1.97s1.97-.88,1.97-1.97-.88-1.97-1.97-1.97-1.97,.88-1.97,1.97Z"/><path class="cls-5" d="M281.91,355.92c0,1.09,.88,1.97,1.97,1.97s1.97-.88,1.97-1.97-.88-1.97-1.97-1.97-1.97,.88-1.97,1.97Z"/><line class="cls-1" x1="256.44" y1="355.92" x2="281.91" y2="355.92"/><polygon class="cls-1" points="280.58 335.84 278.19 331.7 275.81 335.84 280.58 335.84"/><polyline class="cls-1" points="278.25 335.96 278.25 338.92 281.91 338.92"/><line class="cls-5" x1="283.94" y1="357.87" x2="283.94" y2="367.84"/><line class="cls-5" x1="278.93" y1="367.84" x2="289" y2="367.84"/><line class="cls-5" x1="285.26" y1="372.06" x2="288.04" y2="367.8"/><line class="cls-5" x1="282.39" y1="372.06" x2="285.17" y2="367.8"/><line class="cls-5" x1="279.44" y1="372.06" x2="282.22" y2="367.8"/></g><line class="cls-5" x1="283.95" y1="284.16" x2="283.95" y2="297.22"/><line class="cls-5" x1="110.67" y1="161.03" x2="130.83" y2="161.03"/><polyline class="cls-5" points="375.28 47.64 421.35 47.64 421.35 153 457.23 153"/><polyline class="cls-5" points="375.28 161 404.34 161 404.34 190.58 457.23 190.58"/><polyline class="cls-5" points="375.28 104.33 412.84 104.33 412.84 168.33 457.23 168.33"/><polyline class="cls-5" points="375.28 217.72 404.34 217.72 404.34 206.08 457.23 206.08"/><polyline class="cls-5" points="375.28 274.41 404.34 274.41 404.34 227.33 457.23 227.33"/><polyline class="cls-5" points="375.28 331.1 412.84 331.1 412.84 242.83 457.23 242.83"/><polyline class="cls-5" points="256.35 422.2 421.35 422.2 421.35 265.58 457.23 265.58"/><path class="cls-6" d="M141.5,231.18c1.17,0,2.12-.95,2.12-2.12s-.95-2.12-2.12-2.12-2.12,.95-2.12,2.12,.95,2.12,2.12,2.12Z"/><path class="cls-6" d="M130.83,276.53c1.17,0,2.12-.95,2.12-2.12s-.95-2.12-2.12-2.12-2.12,.95-2.12,2.12,.95,2.12,2.12,2.12Z"/><path class="cls-6" d="M141.5,332.86c1.17,0,2.12-.95,2.12-2.12s-.95-2.12-2.12-2.12-2.12,.95-2.12,2.12,.95,2.12,2.12,2.12Z"/><polyline class="cls-1" points="211.31 104.12 206.8 108.62 202.3 104.12 193.78 104.13"/><rect class="cls-1" x="219.83" y="104.16" width="7.87" height="24.88"/><path class="cls-5" d="M194.34,104.16c0,1.09-.88,1.97-1.97,1.97s-1.97-.88-1.97-1.97,.88-1.97,1.97-1.97,1.97,.88,1.97,1.97Z"/><path class="cls-5" d="M194.34,129.03c0,1.09-.88,1.97-1.97,1.97s-1.97-.88-1.97-1.97,.88-1.97,1.97-1.97,1.97,.88,1.97,1.97Z"/><line class="cls-1" x1="219.81" y1="129.03" x2="194.34" y2="129.03"/><line class="cls-5" x1="192.36" y1="131.02" x2="192.36" y2="141"/><line class="cls-5" x1="187.34" y1="141" x2="197.41" y2="141"/><line class="cls-5" x1="193.67" y1="145.22" x2="196.45" y2="140.95"/><line class="cls-5" x1="190.81" y1="145.22" x2="193.59" y2="140.95"/><line class="cls-5" x1="187.86" y1="258.72" x2="190.64" y2="254.45"/><polyline class="cls-1" points="211.31 217.62 206.8 222.12 202.3 217.62 193.78 217.63"/><rect class="cls-1" x="219.83" y="217.66" width="7.87" height="24.88"/><path class="cls-5" d="M194.34,217.66c0,1.09-.88,1.97-1.97,1.97s-1.97-.88-1.97-1.97,.88-1.97,1.97-1.97,1.97,.88,1.97,1.97Z"/><path class="cls-5" d="M194.34,242.53c0,1.09-.88,1.97-1.97,1.97s-1.97-.88-1.97-1.97,.88-1.97,1.97-1.97,1.97,.88,1.97,1.97Z"/><line class="cls-1" x1="219.81" y1="242.53" x2="194.34" y2="242.53"/><line class="cls-5" x1="192.36" y1="244.52" x2="192.36" y2="254.5"/><line class="cls-5" x1="187.34" y1="254.5" x2="197.41" y2="254.5"/><line class="cls-5" x1="193.67" y1="258.72" x2="196.45" y2="254.45"/><line class="cls-5" x1="190.81" y1="258.72" x2="193.59" y2="254.45"/><line class="cls-5" x1="187.86" y1="372.17" x2="190.64" y2="367.9"/><polyline class="cls-1" points="211.31 331.06 206.8 335.57 202.3 331.06 193.78 331.07"/><rect class="cls-1" x="219.83" y="331.1" width="7.87" height="24.88"/><path class="cls-5" d="M194.34,331.1c0,1.09-.88,1.97-1.97,1.97s-1.97-.88-1.97-1.97,.88-1.97,1.97-1.97,1.97,.88,1.97,1.97Z"/><path class="cls-5" d="M194.34,355.98c0,1.09-.88,1.97-1.97,1.97s-1.97-.88-1.97-1.97,.88-1.97,1.97-1.97,1.97,.88,1.97,1.97Z"/><line class="cls-1" x1="219.81" y1="355.98" x2="194.34" y2="355.98"/><line class="cls-5" x1="192.36" y1="357.97" x2="192.36" y2="367.95"/><line class="cls-5" x1="187.34" y1="367.95" x2="197.41" y2="367.95"/><line class="cls-5" x1="193.67" y1="372.17" x2="196.45" y2="367.9"/><line class="cls-5" x1="190.81" y1="372.17" x2="193.59" y2="367.9"/><g><path class="cls-6" d="M34.32,225.03v-6.75h1.26v6.75h-1.26Z"/><path class="cls-6" d="M39.83,218.28h1.26v6.75h-1.31l-.98-2.4c-.16-.39-.31-.8-.45-1.22-.14-.42-.29-.91-.45-1.46h-.02c.03,.4,.06,.75,.08,1.04s.04,.59,.06,.89c.02,.39,.04,.74,.05,1.06,0,.32,.01,.59,.01,.83v1.27h-1.26v-6.75h1.31l.98,2.46c.17,.4,.32,.81,.46,1.24,.14,.42,.29,.9,.44,1.44h.02c-.05-.73-.1-1.37-.13-1.92-.04-.76-.06-1.39-.06-1.9v-1.32Z"/><path class="cls-6" d="M42.14,222.74v-1.04h2.14v1.04h-2.14Z"/><path class="cls-6" d="M46.56,222.13v2.91h-1.26v-6.75h2.38c.29,0,.55,.03,.78,.08,.23,.05,.43,.14,.6,.27,.17,.13,.3,.29,.4,.5,.09,.21,.14,.46,.14,.77,0,.2-.02,.39-.05,.57-.03,.18-.08,.34-.16,.49-.08,.15-.18,.27-.32,.37-.14,.1-.3,.16-.51,.19v.02c.35,.05,.6,.18,.75,.39,.15,.21,.22,.49,.22,.84,0,.28,0,.52,0,.73,0,.21,.02,.42,.04,.62,.02,.2,.04,.37,.08,.51,.04,.14,.08,.23,.14,.27v.13h-1.39c-.05-.16-.09-.35-.1-.59-.01-.24-.03-.52-.03-.86v-.31c0-.16-.01-.28-.02-.37,0-.09-.02-.19-.05-.28-.03-.1-.07-.18-.13-.25-.06-.07-.14-.12-.23-.15-.13-.04-.28-.07-.43-.08-.16,0-.37-.01-.64-.01h-.23Zm0-.99h.99c.22-.01,.4-.1,.54-.26,.14-.16,.2-.4,.2-.72,0-.35-.06-.59-.19-.71-.13-.12-.33-.18-.6-.18h-.94v1.86Z"/></g><polyline class="cls-1" points="50.65 229.02 55.15 233.52 59.66 229.02 68.18 229.03"/><rect class="cls-1" x="34.26" y="229.06" width="7.87" height="24.88"/><path class="cls-5" d="M67.62,229.06c0,1.09,.88,1.97,1.97,1.97s1.97-.88,1.97-1.97-.88-1.97-1.97-1.97-1.97,.88-1.97,1.97Z"/><path class="cls-5" d="M67.62,253.93c0,1.09,.88,1.97,1.97,1.97s1.97-.88,1.97-1.97-.88-1.97-1.97-1.97-1.97,.88-1.97,1.97Z"/><line class="cls-1" x1="42.14" y1="253.93" x2="67.62" y2="253.93"/><line class="cls-5" x1="69.64" y1="255.88" x2="69.64" y2="265.86"/><line class="cls-5" x1="64.63" y1="265.86" x2="74.7" y2="265.86"/><line class="cls-5" x1="70.96" y1="270.08" x2="73.74" y2="265.81"/><line class="cls-5" x1="68.1" y1="270.08" x2="70.88" y2="265.81"/><line class="cls-5" x1="65.15" y1="270.08" x2="67.92" y2="265.81"/><line class="cls-5" x1="232.79" y1="393.22" x2="243.64" y2="388.55"/><g><path class="cls-5" d="M230.91,397.19c1.29,0,2.33-1.04,2.33-2.33s-1.04-2.33-2.33-2.33-2.33,1.04-2.33,2.33,1.04,2.33,2.33,2.33Z"/><path class="cls-5" d="M246.71,397.19c1.29,0,2.33-1.04,2.33-2.33s-1.04-2.33-2.33-2.33-2.33,1.04-2.33,2.33,1.04,2.33,2.33,2.33Z"/></g><line class="cls-5" x1="232.79" y1="404.56" x2="243.64" y2="399.89"/><g><path class="cls-5" d="M230.91,408.53c1.29,0,2.33-1.04,2.33-2.33s-1.04-2.33-2.33-2.33-2.33,1.04-2.33,2.33,1.04,2.33,2.33,2.33Z"/><path class="cls-5" d="M246.71,408.53c1.29,0,2.33-1.04,2.33-2.33s-1.04-2.33-2.33-2.33-2.33,1.04-2.33,2.33,1.04,2.33,2.33,2.33Z"/></g><path class="cls-6" d="M141.5,219.84c1.17,0,2.12-.95,2.12-2.12s-.95-2.12-2.12-2.12-2.12,.95-2.12,2.12,.95,2.12,2.12,2.12Z"/><line class="cls-5" x1="173.83" y1="217.67" x2="190.41" y2="217.67"/><g><path class="cls-5" d="M155.71,220.05c1.29,0,2.33-1.04,2.33-2.33s-1.04-2.33-2.33-2.33-2.33,1.04-2.33,2.33,1.04,2.33,2.33,2.33Z"/><path class="cls-5" d="M171.51,220.05c1.29,0,2.33-1.04,2.33-2.33s-1.04-2.33-2.33-2.33-2.33,1.04-2.33,2.33,1.04,2.33,2.33,2.33Z"/></g><line class="cls-5" x1="157.58" y1="216.08" x2="168.44" y2="211.41"/><line class="cls-5" x1="153.38" y1="217.72" x2="141.5" y2="217.72"/><polyline class="cls-5" points="213.58 422.2 213.58 406.03 228.58 406.03"/><polyline class="cls-5" points="249.04 406.2 263.91 406.2 263.91 422.36"/><line class="cls-3" x1="238.66" y1="391.36" x2="238.66" y2="403.04"/><line class="cls-3" x1="163.42" y1="45.31" x2="163.42" y2="99.17"/><line class="cls-3" x1="163.42" y1="158.9" x2="163.42" y2="211.9"/><line class="cls-3" x1="163.42" y1="272.08" x2="163.42" y2="326.59"/><line class="cls-5" x1="157.58" y1="329.1" x2="168.44" y2="324.43"/><g><path class="cls-5" d="M155.71,333.06c1.29,0,2.33-1.04,2.33-2.33s-1.04-2.33-2.33-2.33-2.33,1.04-2.33,2.33,1.04,2.33,2.33,2.33Z"/><path class="cls-5" d="M171.51,333.07c1.29,0,2.33-1.04,2.33-2.33s-1.04-2.33-2.33-2.33-2.33,1.04-2.33,2.33,1.04,2.33,2.33,2.33Z"/></g><line class="cls-5" x1="173.83" y1="330.74" x2="190.41" y2="330.74"/><line class="cls-5" x1="154.25" y1="330.74" x2="142.36" y2="330.74"/><polyline class="cls-5" points="256.35 433.67 429.85 433.67 429.85 281.08 457.23 281.08"/><polyline class="cls-5" points="153.38 47.64 130.83 47.64 130.83 226.22 133.67 226.22 133.67 231.89 130.83 231.89 130.83 422.2 220.96 422.2"/><polyline class="cls-5" points="153.38 104.33 141.5 104.33 141.5 158.19 144.33 158.19 144.33 163.86 141.5 163.86 141.5 271.58 144.33 271.58 144.33 277.25 141.5 277.25 141.5 419.08 144.33 419.08 144.33 424.71 141.5 424.71 141.5 433.67 220.83 433.67"/><polyline class="cls-5" points="228.54 394.86 204.66 394.86 204.66 419.53 207.5 419.53 207.5 425.2 204.66 425.2 204.66 432.95"/><polyline class="cls-5" points="249.04 394.86 273.08 394.86 273.08 419.53 275.91 419.53 275.91 425.2 273.08 425.2 273.08 432.7"/><line class="cls-5" x1="71.55" y1="161.28" x2="95.54" y2="161.28"/><line class="cls-5" x1="71.55" y1="229.06" x2="95.54" y2="229.06"/><line class="cls-5" x1="110.17" y1="229.06" x2="141.5" y2="229.06"/><polyline class="cls-5" points="80.83 161.28 80.83 226.22 83.92 226.22 83.92 231.89 80.83 231.89 80.83 236.96 71.56 236.96"/></svg>