<?xml version="1.0" encoding="UTF-8"?><svg id="Layer_1" xmlns="http://www.w3.org/2000/svg" xmlns:xlink="http://www.w3.org/1999/xlink" viewBox="0 0 657.33 326.67"><defs><style>.cls-1{stroke-width:1.43px;}.cls-1,.cls-2,.cls-3,.cls-4,.cls-5,.cls-6,.cls-7,.cls-8,.cls-9,.cls-10,.cls-11{fill:none;}.cls-1,.cls-11{stroke:#fff;stroke-miterlimit:22.93;}.cls-12{fill:#fff;filter:url(#drop-shadow-1);stroke-miterlimit:10;stroke-width:2px;}.cls-12,.cls-9{stroke:#231815;}.cls-13,.cls-14{fill:#040000;}.cls-15{fill:#6ab82d;}.cls-16{fill:#18499d;}.cls-17{fill:#231815;}.cls-2{stroke-linecap:round;stroke-width:1.2px;}.cls-2,.cls-7,.cls-10{stroke:#040000;}.cls-3{stroke:#71c7d5;}.cls-3,.cls-4,.cls-5,.cls-6{stroke-width:3px;}.cls-3,.cls-4,.cls-5,.cls-6,.cls-18{opacity:.7;}.cls-4{stroke:#6ab82d;}.cls-5{stroke:#e71f19;}.cls-6{stroke:#18499d;}.cls-14{fill-rule:evenodd;}.cls-8{stroke:#050000;}.cls-10{stroke-width:1.5px;}.cls-11{stroke-width:1.75px;}</style><filter id="drop-shadow-1" filterUnits="userSpaceOnUse"><feOffset dx="7" dy="7"/><feGaussianBlur result="blur" stdDeviation="5"/><feFlood flood-color="#231815" flood-opacity=".75"/><feComposite in2="blur" operator="in"/><feComposite in="SourceGraphic"/></filter></defs><rect class="cls-12" x="148.31" y="148.06" width="476.3" height="144.6"/><path class="cls-7" d="M579.88,248.47c0,5.09-4.12,9.21-9.21,9.21s-9.21-4.12-9.21-9.21,4.12-9.21,9.21-9.21,9.21,4.12,9.21,9.21Z"/><path class="cls-7" d="M606.81,248.47c0,5.09-4.12,9.21-9.21,9.21s-9.21-4.12-9.21-9.21,4.12-9.21,9.21-9.21,9.21,4.12,9.21,9.21Z"/><g><path class="cls-7" d="M205.71,249.89c0,12.13-9.84,21.97-21.97,21.97s-21.97-9.84-21.97-21.97,9.84-21.97,21.97-21.97c12.13,0,21.97,9.84,21.97,21.97Z"/><circle class="cls-7" cx="183.74" cy="249.89" r="8.5"/><path class="cls-7" d="M199.33,249.89c0,8.61-6.98,15.59-15.59,15.59s-15.59-6.98-15.59-15.59c0-8.61,6.98-15.59,15.59-15.59,8.61,0,15.59,6.98,15.59,15.59Z"/><polygon class="cls-7" points="173.07 268.41 162.44 250 173.07 231.59 194.33 231.59 204.96 250 194.33 268.41 173.07 268.41"/><rect class="cls-7" x="179.55" y="231.57" width="8.33" height="1.67"/><rect class="cls-7" x="198.05" y="236.98" width="1.67" height="8.33" transform="translate(-93.92 131.73) rotate(-30)"/><rect class="cls-7" x="164.36" y="240.28" width="8.33" height="1.67" transform="translate(-124.55 266.47) rotate(-59.99)"/><rect class="cls-7" x="179.56" y="266.7" width="8.33" height="1.67"/><rect class="cls-7" x="167.61" y="254.56" width="1.67" height="8.33" transform="translate(-106.79 118.87) rotate(-30)"/><rect class="cls-7" x="194.79" y="257.83" width="8.33" height="1.67" transform="translate(-124.53 301.66) rotate(-60)"/></g><g><path class="cls-7" d="M205.71,197.17c0,12.13-9.84,21.97-21.97,21.97s-21.97-9.84-21.97-21.97,9.84-21.97,21.97-21.97c12.13,0,21.97,9.84,21.97,21.97Z"/><circle class="cls-7" cx="183.74" cy="197.17" r="8.5"/><path class="cls-7" d="M199.33,197.17c0,8.61-6.98,15.59-15.59,15.59s-15.59-6.98-15.59-15.59c0-8.61,6.98-15.59,15.59-15.59,8.61,0,15.59,6.98,15.59,15.59Z"/><polygon class="cls-7" points="173.07 215.68 162.44 197.27 173.07 178.86 194.33 178.86 204.96 197.27 194.33 215.68 173.07 215.68"/><rect class="cls-7" x="179.55" y="178.85" width="8.33" height="1.67"/><rect class="cls-7" x="198.05" y="184.25" width="1.67" height="8.33" transform="translate(-67.56 124.67) rotate(-30)"/><rect class="cls-7" x="164.36" y="187.56" width="8.33" height="1.67" transform="translate(-78.89 240.11) rotate(-59.99)"/><rect class="cls-7" x="179.56" y="213.98" width="8.33" height="1.67"/><rect class="cls-7" x="167.61" y="201.83" width="1.67" height="8.33" transform="translate(-80.43 111.8) rotate(-30)"/><rect class="cls-7" x="194.79" y="205.11" width="8.33" height="1.67" transform="translate(-78.87 275.29) rotate(-60)"/></g><g><path class="cls-7" d="M255.32,249.89c0,12.13-9.84,21.97-21.97,21.97s-21.97-9.84-21.97-21.97,9.84-21.97,21.97-21.97c12.13,0,21.97,9.84,21.97,21.97Z"/><circle class="cls-7" cx="233.35" cy="249.89" r="8.5"/><path class="cls-7" d="M248.94,249.89c0,8.61-6.98,15.59-15.59,15.59s-15.59-6.98-15.59-15.59c0-8.61,6.98-15.59,15.59-15.59,8.61,0,15.59,6.98,15.59,15.59Z"/><polygon class="cls-7" points="222.68 268.41 212.05 250 222.68 231.59 243.94 231.59 254.57 250 243.94 268.41 222.68 268.41"/><rect class="cls-7" x="229.16" y="231.57" width="8.33" height="1.67"/><rect class="cls-7" x="247.65" y="236.98" width="1.67" height="8.33" transform="translate(-87.28 156.53) rotate(-30)"/><rect class="cls-7" x="213.97" y="240.28" width="8.33" height="1.67" transform="translate(-99.75 309.42) rotate(-59.99)"/><rect class="cls-7" x="229.16" y="266.7" width="8.33" height="1.67"/><rect class="cls-7" x="217.22" y="254.56" width="1.67" height="8.33" transform="translate(-100.14 143.67) rotate(-30)"/><rect class="cls-7" x="244.4" y="257.83" width="8.33" height="1.67" transform="translate(-99.73 344.62) rotate(-60)"/></g><g><path class="cls-7" d="M255.32,197.17c0,12.13-9.84,21.97-21.97,21.97s-21.97-9.84-21.97-21.97,9.84-21.97,21.97-21.97c12.13,0,21.97,9.84,21.97,21.97Z"/><circle class="cls-7" cx="233.35" cy="197.17" r="8.5"/><path class="cls-7" d="M248.94,197.17c0,8.61-6.98,15.59-15.59,15.59s-15.59-6.98-15.59-15.59c0-8.61,6.98-15.59,15.59-15.59,8.61,0,15.59,6.98,15.59,15.59Z"/><polygon class="cls-7" points="222.68 215.68 212.05 197.27 222.68 178.86 243.94 178.86 254.57 197.27 243.94 215.68 222.68 215.68"/><rect class="cls-7" x="229.16" y="178.85" width="8.33" height="1.67"/><rect class="cls-7" x="247.65" y="184.25" width="1.67" height="8.33" transform="translate(-60.92 149.47) rotate(-30)"/><rect class="cls-7" x="213.97" y="187.56" width="8.33" height="1.67" transform="translate(-54.1 283.07) rotate(-59.99)"/><rect class="cls-7" x="229.16" y="213.98" width="8.33" height="1.67"/><rect class="cls-7" x="217.22" y="201.83" width="1.67" height="8.33" transform="translate(-73.78 136.61) rotate(-30)"/><rect class="cls-7" x="244.4" y="205.11" width="8.33" height="1.67" transform="translate(-54.06 318.25) rotate(-60)"/></g><g><path class="cls-7" d="M304.92,249.89c0,12.13-9.84,21.97-21.97,21.97s-21.97-9.84-21.97-21.97,9.84-21.97,21.97-21.97c12.13,0,21.97,9.84,21.97,21.97Z"/><circle class="cls-7" cx="282.96" cy="249.89" r="8.5"/><path class="cls-7" d="M298.55,249.89c0,8.61-6.98,15.59-15.59,15.59s-15.59-6.98-15.59-15.59c0-8.61,6.98-15.59,15.59-15.59,8.61,0,15.59,6.98,15.59,15.59Z"/><polygon class="cls-7" points="272.28 268.41 261.65 250 272.28 231.59 293.54 231.59 304.17 250 293.54 268.41 272.28 268.41"/><rect class="cls-7" x="278.77" y="231.57" width="8.33" height="1.67"/><rect class="cls-7" x="297.26" y="236.98" width="1.67" height="8.33" transform="translate(-80.63 181.33) rotate(-30)"/><rect class="cls-7" x="263.58" y="240.28" width="8.33" height="1.67" transform="translate(-74.96 352.38) rotate(-59.99)"/><rect class="cls-7" x="278.77" y="266.7" width="8.33" height="1.67"/><rect class="cls-7" x="266.82" y="254.56" width="1.67" height="8.33" transform="translate(-93.5 168.47) rotate(-30)"/><rect class="cls-7" x="294" y="257.83" width="8.33" height="1.67" transform="translate(-74.92 387.58) rotate(-60)"/></g><g><path class="cls-7" d="M304.92,197.17c0,12.13-9.84,21.97-21.97,21.97s-21.97-9.84-21.97-21.97,9.84-21.97,21.97-21.97c12.13,0,21.97,9.84,21.97,21.97Z"/><circle class="cls-7" cx="282.96" cy="197.17" r="8.5"/><path class="cls-7" d="M298.55,197.17c0,8.61-6.98,15.59-15.59,15.59s-15.59-6.98-15.59-15.59c0-8.61,6.98-15.59,15.59-15.59,8.61,0,15.59,6.98,15.59,15.59Z"/><polygon class="cls-7" points="272.28 215.68 261.65 197.27 272.28 178.86 293.54 178.86 304.17 197.27 293.54 215.68 272.28 215.68"/><rect class="cls-7" x="278.77" y="178.85" width="8.33" height="1.67"/><rect class="cls-7" x="297.26" y="184.25" width="1.67" height="8.33" transform="translate(-54.27 174.27) rotate(-30)"/><rect class="cls-7" x="263.58" y="187.56" width="8.33" height="1.67" transform="translate(-29.3 326.03) rotate(-59.99)"/><rect class="cls-7" x="278.77" y="213.98" width="8.33" height="1.67"/><rect class="cls-7" x="266.82" y="201.83" width="1.67" height="8.33" transform="translate(-67.14 161.41) rotate(-30)"/><rect class="cls-7" x="294" y="205.11" width="8.33" height="1.67" transform="translate(-29.26 361.21) rotate(-60)"/></g><g><path class="cls-7" d="M354.53,249.89c0,12.13-9.84,21.97-21.97,21.97s-21.97-9.84-21.97-21.97,9.84-21.97,21.97-21.97c12.13,0,21.97,9.84,21.97,21.97Z"/><circle class="cls-7" cx="332.56" cy="249.89" r="8.5"/><path class="cls-7" d="M348.15,249.89c0,8.61-6.98,15.59-15.59,15.59s-15.59-6.98-15.59-15.59c0-8.61,6.98-15.59,15.59-15.59,8.61,0,15.59,6.98,15.59,15.59Z"/><polygon class="cls-7" points="321.89 268.41 311.26 250 321.89 231.59 343.15 231.59 353.78 250 343.15 268.41 321.89 268.41"/><rect class="cls-7" x="328.37" y="231.57" width="8.33" height="1.67"/><rect class="cls-7" x="346.87" y="236.98" width="1.67" height="8.33" transform="translate(-73.99 206.13) rotate(-30)"/><rect class="cls-7" x="313.18" y="240.28" width="8.33" height="1.67" transform="translate(-50.16 395.34) rotate(-59.99)"/><rect class="cls-7" x="328.38" y="266.7" width="8.33" height="1.67"/><rect class="cls-7" x="316.43" y="254.56" width="1.67" height="8.33" transform="translate(-86.85 193.27) rotate(-30)"/><rect class="cls-7" x="343.61" y="257.83" width="8.33" height="1.67" transform="translate(-50.11 430.54) rotate(-60)"/></g><g><path class="cls-7" d="M354.53,197.17c0,12.13-9.84,21.97-21.97,21.97s-21.97-9.84-21.97-21.97,9.84-21.97,21.97-21.97c12.13,0,21.97,9.84,21.97,21.97Z"/><circle class="cls-7" cx="332.56" cy="197.17" r="8.5"/><path class="cls-7" d="M348.15,197.17c0,8.61-6.98,15.59-15.59,15.59s-15.59-6.98-15.59-15.59c0-8.61,6.98-15.59,15.59-15.59,8.61,0,15.59,6.98,15.59,15.59Z"/><polygon class="cls-7" points="321.89 215.68 311.26 197.27 321.89 178.86 343.15 178.86 353.78 197.27 343.15 215.68 321.89 215.68"/><rect class="cls-7" x="328.37" y="178.85" width="8.33" height="1.67"/><rect class="cls-7" x="346.87" y="184.25" width="1.67" height="8.33" transform="translate(-47.63 199.07) rotate(-30)"/><rect class="cls-7" x="313.18" y="187.56" width="8.33" height="1.67" transform="translate(-4.5 368.98) rotate(-59.99)"/><rect class="cls-7" x="328.38" y="213.98" width="8.33" height="1.67"/><rect class="cls-7" x="316.43" y="201.83" width="1.67" height="8.33" transform="translate(-60.49 186.21) rotate(-30)"/><rect class="cls-7" x="343.61" y="205.11" width="8.33" height="1.67" transform="translate(-4.45 404.18) rotate(-60)"/></g><g><path class="cls-7" d="M404.14,249.89c0,12.13-9.84,21.97-21.97,21.97s-21.97-9.84-21.97-21.97,9.84-21.97,21.97-21.97c12.13,0,21.97,9.84,21.97,21.97Z"/><circle class="cls-7" cx="382.17" cy="249.89" r="8.5"/><path class="cls-7" d="M397.76,249.89c0,8.61-6.98,15.59-15.59,15.59s-15.59-6.98-15.59-15.59c0-8.61,6.98-15.59,15.59-15.59,8.61,0,15.59,6.98,15.59,15.59Z"/><polygon class="cls-7" points="371.5 268.41 360.87 250 371.5 231.59 392.75 231.59 403.39 250 392.75 268.41 371.5 268.41"/><rect class="cls-7" x="377.98" y="231.57" width="8.33" height="1.67"/><rect class="cls-7" x="396.47" y="236.98" width="1.67" height="8.33" transform="translate(-67.34 230.93) rotate(-30)"/><rect class="cls-7" x="362.79" y="240.28" width="8.33" height="1.67" transform="translate(-25.36 438.3) rotate(-59.99)"/><rect class="cls-7" x="377.98" y="266.7" width="8.33" height="1.67"/><rect class="cls-7" x="366.04" y="254.56" width="1.67" height="8.33" transform="translate(-80.21 218.07) rotate(-30)"/><rect class="cls-7" x="393.22" y="257.83" width="8.33" height="1.67" transform="translate(-25.31 473.5) rotate(-60)"/></g><g><path class="cls-7" d="M404.14,197.17c0,12.13-9.84,21.97-21.97,21.97s-21.97-9.84-21.97-21.97,9.84-21.97,21.97-21.97c12.13,0,21.97,9.84,21.97,21.97Z"/><circle class="cls-7" cx="382.17" cy="197.17" r="8.5"/><path class="cls-7" d="M397.76,197.17c0,8.61-6.98,15.59-15.59,15.59s-15.59-6.98-15.59-15.59c0-8.61,6.98-15.59,15.59-15.59,8.61,0,15.59,6.98,15.59,15.59Z"/><polygon class="cls-7" points="371.5 215.68 360.87 197.27 371.5 178.86 392.75 178.86 403.39 197.27 392.75 215.68 371.5 215.68"/><rect class="cls-7" x="377.98" y="178.85" width="8.33" height="1.67"/><rect class="cls-7" x="396.47" y="184.25" width="1.67" height="8.33" transform="translate(-40.98 223.87) rotate(-30)"/><rect class="cls-7" x="362.79" y="187.56" width="8.33" height="1.67" transform="translate(20.29 411.94) rotate(-59.99)"/><rect class="cls-7" x="377.98" y="213.98" width="8.33" height="1.67"/><rect class="cls-7" x="366.04" y="201.83" width="1.67" height="8.33" transform="translate(-53.85 211.01) rotate(-30)"/><rect class="cls-7" x="393.22" y="205.11" width="8.33" height="1.67" transform="translate(20.35 447.13) rotate(-60)"/></g><g><path class="cls-7" d="M453.74,249.89c0,12.13-9.84,21.97-21.97,21.97s-21.97-9.84-21.97-21.97,9.84-21.97,21.97-21.97c12.13,0,21.97,9.84,21.97,21.97Z"/><circle class="cls-7" cx="431.77" cy="249.89" r="8.5"/><path class="cls-7" d="M447.36,249.89c0,8.61-6.98,15.59-15.59,15.59s-15.59-6.98-15.59-15.59c0-8.61,6.98-15.59,15.59-15.59,8.61,0,15.59,6.98,15.59,15.59Z"/><polygon class="cls-7" points="421.1 268.41 410.47 250 421.1 231.59 442.36 231.59 452.99 250 442.36 268.41 421.1 268.41"/><rect class="cls-7" x="427.59" y="231.57" width="8.33" height="1.67"/><rect class="cls-7" x="446.08" y="236.98" width="1.67" height="8.33" transform="translate(-60.7 255.73) rotate(-30)"/><rect class="cls-7" x="412.4" y="240.28" width="8.33" height="1.67" transform="translate(-.57 481.25) rotate(-59.99)"/><rect class="cls-7" x="427.59" y="266.7" width="8.33" height="1.67"/><rect class="cls-7" x="415.64" y="254.56" width="1.67" height="8.33" transform="translate(-73.56 242.87) rotate(-30)"/><rect class="cls-7" x="442.82" y="257.83" width="8.33" height="1.67" transform="translate(-.5 516.46) rotate(-60)"/></g><g><path class="cls-7" d="M453.74,197.17c0,12.13-9.84,21.97-21.97,21.97s-21.97-9.84-21.97-21.97,9.84-21.97,21.97-21.97c12.13,0,21.97,9.84,21.97,21.97Z"/><circle class="cls-7" cx="431.77" cy="197.17" r="8.5"/><path class="cls-7" d="M447.36,197.17c0,8.61-6.98,15.59-15.59,15.59s-15.59-6.98-15.59-15.59c0-8.61,6.98-15.59,15.59-15.59,8.61,0,15.59,6.98,15.59,15.59Z"/><polygon class="cls-7" points="421.1 215.68 410.47 197.27 421.1 178.86 442.36 178.86 452.99 197.27 442.36 215.68 421.1 215.68"/><rect class="cls-7" x="427.59" y="178.85" width="8.33" height="1.67"/><rect class="cls-7" x="446.08" y="184.25" width="1.67" height="8.33" transform="translate(-34.34 248.67) rotate(-30)"/><rect class="cls-7" x="412.4" y="187.56" width="8.33" height="1.67" transform="translate(45.09 454.9) rotate(-59.99)"/><rect class="cls-7" x="427.59" y="213.98" width="8.33" height="1.67"/><rect class="cls-7" x="415.64" y="201.83" width="1.67" height="8.33" transform="translate(-47.21 235.81) rotate(-30)"/><rect class="cls-7" x="442.82" y="205.11" width="8.33" height="1.67" transform="translate(45.16 490.1) rotate(-60)"/></g><g><path class="cls-7" d="M503.35,249.89c0,12.13-9.84,21.97-21.97,21.97s-21.97-9.84-21.97-21.97,9.84-21.97,21.97-21.97c12.13,0,21.97,9.84,21.97,21.97Z"/><circle class="cls-7" cx="481.38" cy="249.89" r="8.5"/><path class="cls-7" d="M496.97,249.89c0,8.61-6.98,15.59-15.59,15.59s-15.59-6.98-15.59-15.59c0-8.61,6.98-15.59,15.59-15.59,8.61,0,15.59,6.98,15.59,15.59Z"/><polygon class="cls-7" points="470.71 268.41 460.08 250 470.71 231.59 491.97 231.59 502.6 250 491.97 268.41 470.71 268.41"/><rect class="cls-7" x="477.19" y="231.57" width="8.33" height="1.67"/><rect class="cls-7" x="495.69" y="236.98" width="1.67" height="8.33" transform="translate(-54.05 280.53) rotate(-30)"/><rect class="cls-7" x="462" y="240.28" width="8.33" height="1.67" transform="translate(24.23 524.21) rotate(-59.99)"/><rect class="cls-7" x="477.2" y="266.7" width="8.33" height="1.67"/><rect class="cls-7" x="465.25" y="254.56" width="1.67" height="8.33" transform="translate(-66.92 267.67) rotate(-30)"/><rect class="cls-7" x="492.43" y="257.83" width="8.33" height="1.67" transform="translate(24.3 559.42) rotate(-60)"/></g><g><path class="cls-7" d="M503.35,197.17c0,12.13-9.84,21.97-21.97,21.97s-21.97-9.84-21.97-21.97,9.84-21.97,21.97-21.97c12.13,0,21.97,9.84,21.97,21.97Z"/><circle class="cls-7" cx="481.38" cy="197.17" r="8.5"/><path class="cls-7" d="M496.97,197.17c0,8.61-6.98,15.59-15.59,15.59s-15.59-6.98-15.59-15.59c0-8.61,6.98-15.59,15.59-15.59,8.61,0,15.59,6.98,15.59,15.59Z"/><polygon class="cls-7" points="470.71 215.68 460.08 197.27 470.71 178.86 491.97 178.86 502.6 197.27 491.97 215.68 470.71 215.68"/><rect class="cls-7" x="477.19" y="178.85" width="8.33" height="1.67"/><rect class="cls-7" x="495.69" y="184.25" width="1.67" height="8.33" transform="translate(-27.69 273.47) rotate(-30)"/><rect class="cls-7" x="462" y="187.56" width="8.33" height="1.67" transform="translate(69.89 497.85) rotate(-59.99)"/><rect class="cls-7" x="477.2" y="213.98" width="8.33" height="1.67"/><rect class="cls-7" x="465.25" y="201.83" width="1.67" height="8.33" transform="translate(-40.56 260.61) rotate(-30)"/><rect class="cls-7" x="492.43" y="205.11" width="8.33" height="1.67" transform="translate(69.96 533.06) rotate(-60)"/></g><g><path class="cls-7" d="M552.96,249.89c0,12.13-9.84,21.97-21.97,21.97s-21.97-9.84-21.97-21.97,9.84-21.97,21.97-21.97c12.13,0,21.97,9.84,21.97,21.97Z"/><circle class="cls-7" cx="530.99" cy="249.89" r="8.5"/><path class="cls-7" d="M546.58,249.89c0,8.61-6.98,15.59-15.59,15.59s-15.59-6.98-15.59-15.59c0-8.61,6.98-15.59,15.59-15.59,8.61,0,15.59,6.98,15.59,15.59Z"/><polygon class="cls-7" points="520.31 268.41 509.68 250 520.31 231.59 541.57 231.59 552.2 250 541.57 268.41 520.31 268.41"/><rect class="cls-7" x="526.8" y="231.57" width="8.33" height="1.67"/><rect class="cls-7" x="545.29" y="236.98" width="1.67" height="8.33" transform="translate(-47.41 305.33) rotate(-30)"/><rect class="cls-7" x="511.61" y="240.28" width="8.33" height="1.67" transform="translate(49.03 567.17) rotate(-59.99)"/><rect class="cls-7" x="526.8" y="266.7" width="8.33" height="1.67"/><rect class="cls-7" x="514.85" y="254.56" width="1.67" height="8.33" transform="translate(-60.28 292.48) rotate(-30)"/><rect class="cls-7" x="542.03" y="257.83" width="8.33" height="1.67" transform="translate(49.11 602.39) rotate(-60)"/></g><g><path class="cls-7" d="M552.96,197.17c0,12.13-9.84,21.97-21.97,21.97s-21.97-9.84-21.97-21.97,9.84-21.97,21.97-21.97c12.13,0,21.97,9.84,21.97,21.97Z"/><circle class="cls-7" cx="530.99" cy="197.17" r="8.5"/><path class="cls-7" d="M546.58,197.17c0,8.61-6.98,15.59-15.59,15.59s-15.59-6.98-15.59-15.59c0-8.61,6.98-15.59,15.59-15.59,8.61,0,15.59,6.98,15.59,15.59Z"/><polygon class="cls-7" points="520.31 215.68 509.68 197.27 520.31 178.86 541.57 178.86 552.2 197.27 541.57 215.68 520.31 215.68"/><rect class="cls-7" x="526.8" y="178.85" width="8.33" height="1.67"/><rect class="cls-7" x="545.29" y="184.25" width="1.67" height="8.33" transform="translate(-21.05 298.27) rotate(-30)"/><rect class="cls-7" x="511.61" y="187.56" width="8.33" height="1.67" transform="translate(94.69 540.81) rotate(-59.99)"/><rect class="cls-7" x="526.8" y="213.98" width="8.33" height="1.67"/><rect class="cls-7" x="514.85" y="201.83" width="1.67" height="8.33" transform="translate(-33.92 285.41) rotate(-30)"/><rect class="cls-7" x="542.03" y="205.11" width="8.33" height="1.67" transform="translate(94.77 576.02) rotate(-60)"/></g><line class="cls-2" x1="560.72" y1="274.8" x2="606.08" y2="274.8"/><g><path class="cls-13" d="M176.09,281.82c0,.84-.19,1.45-.56,1.85-.38,.4-1.01,.59-1.91,.59s-1.55-.2-1.93-.6c-.38-.4-.57-1.01-.57-1.84v-2.9c0-.69,.22-1.21,.65-1.58,.43-.37,1.05-.55,1.85-.55s1.41,.18,1.84,.55c.42,.37,.64,.89,.64,1.58v2.9Zm-1.84-2.78c0-.14,0-.26-.02-.37-.01-.11-.04-.2-.08-.29-.04-.09-.11-.16-.19-.22-.09-.06-.2-.08-.35-.08s-.25,.03-.34,.08c-.09,.06-.16,.13-.2,.22-.04,.09-.07,.19-.09,.3s-.03,.22-.03,.35v2.93c0,.12,0,.24,.03,.35,.02,.11,.05,.22,.09,.32,.04,.1,.11,.19,.2,.25,.09,.06,.21,.1,.34,.1s.25-.03,.35-.1c.09-.06,.15-.14,.19-.24,.04-.1,.06-.2,.08-.31,.01-.11,.02-.23,.02-.37v-2.93Z"/><path class="cls-13" d="M176.94,276.97h1.84v5.38c0,.2,.05,.35,.14,.46,.09,.11,.26,.17,.5,.17,.22,0,.37-.07,.48-.21,.1-.14,.15-.3,.15-.48v-5.33h1.84v5.16c0,.32-.04,.6-.13,.86-.08,.26-.22,.48-.41,.67-.19,.19-.45,.34-.77,.45-.32,.11-.71,.16-1.17,.16-.79,0-1.4-.18-1.83-.53-.42-.36-.64-.89-.64-1.61v-5.16Z"/><path class="cls-13" d="M182.54,276.97h4.77v1.42h-1.48v5.7h-1.84v-5.7h-1.44v-1.42Z"/><path class="cls-13" d="M187.41,281.84v-1.43h2.59v1.43h-2.59Z"/><path class="cls-13" d="M190.82,284.09v-7.12h1.84v5.7h2.25v1.43h-4.09Z"/></g><g><path class="cls-13" d="M174.7,170.17v-7.12h1.84v7.12h-1.84Z"/><path class="cls-13" d="M179.12,166.18l-.02,.02,.17,3.97h-1.75v-7.12h1.89l1.42,3.98h.03l-.18-3.98h1.75v7.12h-1.88l-1.43-3.99Z"/><path class="cls-13" d="M183.33,167.92v-1.43h2.59v1.43h-2.59Z"/><path class="cls-13" d="M186.75,170.17v-7.12h1.84v5.7h2.25v1.42h-4.09Z"/></g><g><path class="cls-13" d="M224.84,281.82c0,.84-.19,1.45-.56,1.85-.38,.4-1.01,.59-1.91,.59s-1.55-.2-1.93-.6c-.38-.4-.57-1.01-.57-1.84v-2.9c0-.69,.22-1.21,.65-1.58,.43-.37,1.05-.55,1.85-.55s1.41,.18,1.84,.55c.42,.37,.64,.89,.64,1.58v2.9Zm-1.84-2.78c0-.14,0-.26-.02-.37-.01-.11-.04-.2-.08-.29-.04-.09-.11-.16-.19-.22-.09-.06-.2-.08-.35-.08s-.25,.03-.34,.08c-.09,.06-.16,.13-.2,.22-.04,.09-.07,.19-.09,.3s-.03,.22-.03,.35v2.93c0,.12,0,.24,.03,.35,.02,.11,.05,.22,.09,.32,.04,.1,.11,.19,.2,.25,.09,.06,.21,.1,.34,.1s.25-.03,.35-.1c.09-.06,.15-.14,.19-.24,.04-.1,.06-.2,.08-.31,.01-.11,.02-.23,.02-.37v-2.93Z"/><path class="cls-13" d="M225.69,276.97h1.84v5.38c0,.2,.05,.35,.14,.46,.09,.11,.26,.17,.5,.17,.22,0,.37-.07,.48-.21,.1-.14,.15-.3,.15-.48v-5.33h1.84v5.16c0,.32-.04,.6-.13,.86-.08,.26-.22,.48-.41,.67-.19,.19-.45,.34-.77,.45-.32,.11-.71,.16-1.17,.16-.79,0-1.4-.18-1.83-.53-.42-.36-.64-.89-.64-1.61v-5.16Z"/><path class="cls-13" d="M231.29,276.97h4.77v1.42h-1.48v5.7h-1.84v-5.7h-1.44v-1.42Z"/><path class="cls-13" d="M236.16,281.84v-1.43h2.59v1.43h-2.59Z"/><path class="cls-13" d="M241.47,284.09h-1.84v-7.12h2.69c.77,0,1.33,.15,1.7,.46,.37,.31,.55,.81,.55,1.5,0,.41-.07,.74-.21,1-.14,.26-.39,.47-.76,.62v.02c.27,.05,.48,.16,.64,.32,.16,.16,.25,.36,.27,.6,.01,.12,.03,.39,.04,.8,.02,.37,.04,.67,.06,.9,.02,.23,.04,.42,.07,.55,.05,.11,.11,.19,.18,.25v.1h-2.01c-.06-.16-.1-.29-.1-.41,0-.18-.01-.41-.01-.68,0-.29,0-.5,0-.63,0-.13-.01-.24-.03-.34-.03-.23-.09-.41-.18-.54-.09-.13-.24-.2-.44-.21h-.61v2.81Zm0-4.1h.63c.24,0,.41-.08,.51-.25,.1-.17,.15-.38,.15-.64,0-.37-.09-.6-.26-.71-.17-.11-.52-.16-1.02-.16v1.75Z"/></g><g><path class="cls-13" d="M224.07,170.17v-7.12h1.84v7.12h-1.84Z"/><path class="cls-13" d="M228.49,166.18l-.02,.02,.17,3.97h-1.75v-7.12h1.89l1.42,3.98h.03l-.18-3.98h1.75v7.12h-1.88l-1.43-3.99Z"/><path class="cls-13" d="M232.7,167.92v-1.43h2.59v1.43h-2.59Z"/><path class="cls-13" d="M238.01,170.17h-1.84v-7.12h2.69c.77,0,1.33,.15,1.7,.46,.37,.31,.55,.81,.55,1.5,0,.41-.07,.74-.21,1-.14,.26-.39,.47-.76,.62v.02c.27,.05,.48,.16,.64,.32,.16,.16,.25,.36,.27,.6,.01,.12,.03,.39,.04,.8,.02,.37,.04,.67,.06,.9,.02,.23,.04,.42,.07,.55,.05,.11,.11,.19,.18,.25v.09h-2.01c-.06-.16-.1-.29-.1-.41,0-.18-.01-.41-.01-.68,0-.29,0-.5,0-.63,0-.13-.01-.24-.03-.34-.03-.23-.09-.41-.18-.54-.09-.13-.24-.2-.44-.21h-.61v2.81Zm0-4.09h.63c.24,0,.41-.08,.51-.25,.1-.17,.15-.38,.15-.64,0-.37-.09-.6-.26-.71-.17-.1-.52-.16-1.02-.16v1.75Z"/></g><g><path class="cls-13" d="M269.36,284.09h-1.84v-7.12h2.69c.77,0,1.33,.15,1.7,.46,.37,.31,.55,.81,.55,1.5,0,.41-.07,.74-.21,1-.14,.26-.39,.47-.76,.62v.02c.27,.05,.48,.16,.64,.32,.16,.16,.25,.36,.27,.6,.01,.12,.03,.39,.04,.8,.02,.37,.04,.67,.06,.9,.02,.23,.04,.42,.07,.55,.05,.11,.11,.19,.18,.25v.1h-2.01c-.06-.16-.1-.29-.1-.41,0-.18-.01-.41-.01-.68,0-.29,0-.5,0-.63,0-.13-.01-.24-.03-.34-.03-.23-.09-.41-.18-.54-.09-.13-.24-.2-.44-.21h-.61v2.81Zm0-4.1h.63c.24,0,.41-.08,.51-.25,.1-.17,.15-.38,.15-.64,0-.37-.09-.6-.26-.71-.17-.11-.52-.16-1.02-.16v1.75Z"/><path class="cls-13" d="M272.94,276.97h4.77v1.42h-1.48v5.7h-1.84v-5.7h-1.44v-1.42Z"/><path class="cls-13" d="M279.98,280.1l-.02,.02,.17,3.97h-1.75v-7.12h1.89l1.42,3.98h.03l-.18-3.98h1.75v7.12h-1.88l-1.43-3.99Z"/><path class="cls-13" d="M285.73,279.29h-1.6v-1.09c.24,0,.47-.02,.69-.05,.22-.03,.43-.09,.63-.18,.2-.09,.36-.2,.5-.34,.14-.14,.22-.31,.27-.5h1.18v6.97h-1.66v-4.81Z"/><path class="cls-13" d="M289.42,281.84v-1.43h2.59v1.43h-2.59Z"/><path class="cls-13" d="M292.83,284.09v-7.12h1.84v5.7h2.25v1.43h-4.09Z"/></g><g><path class="cls-13" d="M269,167.79v.5c0,.23,.05,.42,.16,.56,.11,.14,.3,.21,.57,.21,.2,0,.36-.07,.46-.21,.1-.14,.16-.31,.16-.5,0-.24-.07-.43-.22-.57-.15-.14-.37-.29-.66-.45-.04-.02-.08-.04-.15-.08-.33-.17-.6-.33-.82-.47-.22-.14-.41-.3-.57-.46-.17-.19-.31-.4-.4-.63-.09-.23-.14-.5-.14-.79,0-.66,.2-1.16,.61-1.51,.41-.35,.97-.52,1.7-.52s1.32,.19,1.73,.58c.41,.39,.61,.9,.61,1.54v.19h-1.7v-.09c0-.14-.02-.26-.03-.35-.01-.09-.04-.19-.08-.28-.04-.09-.1-.16-.18-.22-.08-.06-.19-.09-.32-.09-.19,0-.34,.04-.45,.12s-.17,.2-.19,.35v.06s-.01,.04-.01,.06c0,.17,.05,.3,.14,.41,.09,.11,.24,.23,.42,.35,.14,.08,.36,.2,.66,.36,.52,.27,.87,.49,1.06,.65,.23,.19,.4,.42,.51,.68,.11,.27,.17,.61,.17,1.02,0,.68-.2,1.21-.61,1.58-.4,.37-.99,.55-1.76,.55-.4,0-.76-.05-1.07-.14-.31-.09-.56-.23-.75-.39-.2-.17-.34-.36-.43-.57-.09-.21-.14-.44-.14-.68v-.76h1.7Z"/><path class="cls-13" d="M274.4,166.18l-.02,.02,.17,3.97h-1.75v-7.12h1.89l1.42,3.98h.03l-.18-3.98h1.75v7.12h-1.88l-1.43-3.99Z"/><path class="cls-13" d="M278.64,170.17v-7.12h2c.45,0,.84,.02,1.17,.06s.63,.13,.9,.27c.33,.17,.55,.4,.66,.7,.11,.3,.17,.65,.17,1.05v3.16c0,.74-.27,1.25-.78,1.54-.22,.13-.47,.22-.73,.27-.26,.04-.56,.07-.9,.07h-2.48Zm1.84-1.28h.14s.09,0,.12,0c.4,0,.66-.08,.78-.23,.13-.15,.19-.41,.19-.76,0-.05,0-.11-.01-.16v-2.52c0-.21-.02-.37-.06-.49-.04-.12-.11-.2-.2-.26-.09-.06-.21-.1-.35-.11-.14-.02-.34-.03-.6-.04v4.56Z"/><path class="cls-13" d="M285.96,165.36h-1.6v-1.09c.24,0,.47-.02,.69-.05,.22-.03,.43-.09,.63-.18,.2-.09,.36-.2,.5-.34,.14-.14,.22-.31,.27-.5h1.18v6.97h-1.66v-4.81Z"/><path class="cls-13" d="M289.65,167.92v-1.43h2.59v1.43h-2.59Z"/><path class="cls-13" d="M293.06,170.17v-7.12h1.84v5.7h2.25v1.42h-4.09Z"/></g><g><path class="cls-13" d="M318.47,284.09h-1.84v-7.12h2.69c.77,0,1.33,.15,1.7,.46,.37,.31,.55,.81,.55,1.5,0,.41-.07,.74-.21,1-.14,.26-.39,.47-.76,.62v.02c.27,.05,.48,.16,.64,.32,.16,.16,.25,.36,.27,.6,.01,.12,.03,.39,.04,.8,.02,.37,.04,.67,.06,.9,.02,.23,.04,.42,.07,.55,.05,.11,.11,.19,.18,.25v.1h-2.01c-.06-.16-.1-.29-.1-.41,0-.18-.01-.41-.01-.68,0-.29,0-.5,0-.63,0-.13-.01-.24-.03-.34-.03-.23-.09-.41-.18-.54-.09-.13-.24-.2-.44-.21h-.61v2.81Zm0-4.1h.63c.24,0,.41-.08,.51-.25,.1-.17,.15-.38,.15-.64,0-.37-.09-.6-.26-.71-.17-.11-.52-.16-1.02-.16v1.75Z"/><path class="cls-13" d="M322.05,276.97h4.76v1.42h-1.48v5.7h-1.84v-5.7h-1.44v-1.42Z"/><path class="cls-13" d="M329.09,280.1l-.02,.02,.17,3.97h-1.75v-7.12h1.89l1.42,3.98h.03l-.18-3.98h1.75v7.12h-1.88l-1.43-3.99Z"/><path class="cls-13" d="M334.84,279.29h-1.6v-1.09c.24,0,.47-.02,.69-.05,.22-.03,.43-.09,.63-.18,.2-.09,.36-.2,.5-.34,.14-.14,.22-.31,.27-.5h1.18v6.97h-1.66v-4.81Z"/><path class="cls-13" d="M338.53,281.84v-1.43h2.59v1.43h-2.59Z"/><path class="cls-13" d="M343.84,284.09h-1.84v-7.12h2.69c.77,0,1.33,.15,1.7,.46,.37,.31,.55,.81,.55,1.5,0,.41-.07,.74-.21,1-.14,.26-.39,.47-.76,.62v.02c.26,.05,.48,.16,.64,.32,.16,.16,.25,.36,.27,.6,.01,.12,.03,.39,.04,.8,.02,.37,.04,.67,.06,.9,.02,.23,.04,.42,.07,.55,.05,.11,.11,.19,.18,.25v.1h-2.01c-.06-.16-.1-.29-.1-.41,0-.18-.01-.41-.01-.68,0-.29,0-.5,0-.63,0-.13-.01-.24-.03-.34-.03-.23-.09-.41-.18-.54-.09-.13-.24-.2-.44-.21h-.61v2.81Zm0-4.1h.63c.24,0,.41-.08,.51-.25,.1-.17,.15-.38,.15-.64,0-.37-.09-.6-.26-.71-.17-.11-.52-.16-1.02-.16v1.75Z"/></g><g><path class="cls-13" d="M318.01,167.79v.5c0,.23,.05,.42,.16,.56,.11,.14,.3,.21,.57,.21,.2,0,.36-.07,.46-.21,.11-.14,.16-.31,.16-.5,0-.24-.07-.43-.22-.57-.15-.14-.37-.29-.66-.45-.04-.02-.08-.04-.15-.08-.33-.17-.6-.33-.82-.47-.22-.14-.41-.3-.57-.46-.17-.19-.31-.4-.4-.63-.09-.23-.14-.5-.14-.79,0-.66,.2-1.16,.61-1.51,.41-.35,.97-.52,1.7-.52s1.32,.19,1.73,.58c.41,.39,.61,.9,.61,1.54v.19h-1.7v-.09c0-.14-.02-.26-.03-.35-.01-.09-.04-.19-.08-.28-.04-.09-.1-.16-.18-.22-.08-.06-.19-.09-.32-.09-.2,0-.34,.04-.45,.12s-.17,.2-.19,.35v.06s-.01,.04-.01,.06c0,.17,.05,.3,.14,.41,.09,.11,.24,.23,.42,.35,.14,.08,.36,.2,.66,.36,.52,.27,.87,.49,1.06,.65,.23,.19,.4,.42,.51,.68,.11,.27,.17,.61,.17,1.02,0,.68-.2,1.21-.61,1.58-.4,.37-.99,.55-1.76,.55-.4,0-.76-.05-1.07-.14-.31-.09-.56-.23-.75-.39-.2-.17-.34-.36-.43-.57-.09-.21-.14-.44-.14-.68v-.76h1.7Z"/><path class="cls-13" d="M323.41,166.18l-.02,.02,.17,3.97h-1.74v-7.12h1.89l1.42,3.98h.03l-.18-3.98h1.75v7.12h-1.88l-1.43-3.99Z"/><path class="cls-13" d="M327.65,170.17v-7.12h2c.45,0,.84,.02,1.17,.06,.33,.04,.63,.13,.9,.27,.33,.17,.55,.4,.66,.7,.11,.3,.17,.65,.17,1.05v3.16c0,.74-.27,1.25-.78,1.54-.22,.13-.47,.22-.73,.27-.27,.04-.56,.07-.9,.07h-2.48Zm1.84-1.28h.14s.09,0,.12,0c.4,0,.66-.08,.78-.23,.12-.15,.19-.41,.19-.76,0-.05,0-.11,0-.16v-2.52c0-.21-.02-.37-.06-.49-.04-.12-.11-.2-.2-.26-.09-.06-.21-.1-.35-.11-.14-.02-.34-.03-.6-.04v4.56Z"/><path class="cls-13" d="M334.97,165.36h-1.6v-1.09c.24,0,.47-.02,.69-.05,.22-.03,.43-.09,.63-.18,.2-.09,.36-.2,.5-.34,.14-.14,.22-.31,.27-.5h1.18v6.97h-1.66v-4.81Z"/><path class="cls-13" d="M338.66,167.92v-1.43h2.59v1.43h-2.59Z"/><path class="cls-13" d="M343.97,170.17h-1.84v-7.12h2.69c.77,0,1.33,.15,1.7,.46,.37,.31,.55,.81,.55,1.5,0,.41-.07,.74-.21,1-.14,.26-.39,.47-.76,.62v.02c.27,.05,.48,.16,.64,.32,.16,.16,.25,.36,.27,.6,.01,.12,.03,.39,.04,.8,.02,.37,.04,.67,.06,.9,.02,.23,.04,.42,.07,.55,.05,.11,.11,.19,.18,.25v.09h-2.01c-.06-.16-.1-.29-.1-.41,0-.18-.01-.41-.01-.68,0-.29,0-.5,0-.63,0-.13-.01-.24-.03-.34-.03-.23-.09-.41-.18-.54-.09-.13-.24-.2-.44-.21h-.61v2.81Zm0-4.09h.63c.24,0,.41-.08,.51-.25,.1-.17,.15-.38,.15-.64,0-.37-.09-.6-.26-.71-.17-.1-.52-.16-1.02-.16v1.75Z"/></g><g><path class="cls-13" d="M368.58,284.09h-1.84v-7.12h2.69c.77,0,1.33,.15,1.7,.46,.37,.31,.55,.81,.55,1.5,0,.41-.07,.74-.21,1-.14,.26-.39,.47-.76,.62v.02c.27,.05,.48,.16,.64,.32,.16,.16,.25,.36,.27,.6,.02,.12,.03,.39,.04,.8,.02,.37,.04,.67,.06,.9,.02,.23,.04,.42,.07,.55,.05,.11,.11,.19,.18,.25v.1h-2.01c-.06-.16-.1-.29-.11-.41,0-.18,0-.41,0-.68,0-.29,0-.5,0-.63,0-.13-.01-.24-.03-.34-.03-.23-.09-.41-.18-.54-.09-.13-.24-.2-.44-.21h-.61v2.81Zm0-4.1h.63c.24,0,.41-.08,.51-.25,.1-.17,.15-.38,.15-.64,0-.37-.09-.6-.26-.71-.17-.11-.52-.16-1.02-.16v1.75Z"/><path class="cls-13" d="M372.15,276.97h4.77v1.42h-1.48v5.7h-1.84v-5.7h-1.44v-1.42Z"/><path class="cls-13" d="M379.19,280.1l-.02,.02,.17,3.97h-1.74v-7.12h1.89l1.42,3.98h.03l-.18-3.98h1.75v7.12h-1.88l-1.43-3.99Z"/><path class="cls-13" d="M383.2,279.54v-.37c0-.71,.21-1.25,.62-1.63,.41-.38,1.01-.57,1.79-.57,.72,0,1.27,.16,1.67,.49,.4,.33,.6,.82,.6,1.46,0,.43-.08,.79-.23,1.09-.15,.3-.4,.62-.75,.95l-.68,.6c-.09,.08-.19,.17-.29,.27-.1,.1-.21,.2-.31,.32-.11,.12-.2,.23-.28,.35-.08,.12-.13,.22-.15,.31h2.71v1.28h-4.69v-.24c0-.54,.15-1.05,.45-1.55,.3-.49,.7-.99,1.19-1.48l.79-.76c.19-.19,.32-.37,.39-.55,.07-.18,.11-.39,.11-.65,0-.2-.05-.36-.16-.5-.11-.13-.27-.2-.5-.2-.13,0-.24,.04-.32,.12-.08,.07-.14,.16-.18,.26-.04,.1-.06,.21-.08,.32-.01,.11-.02,.23-.02,.34v.34h-1.66Z"/><path class="cls-13" d="M388.63,281.84v-1.43h2.59v1.43h-2.59Z"/><path class="cls-13" d="M392.05,284.09v-7.12h1.84v5.7h2.25v1.43h-4.09Z"/></g><g><path class="cls-13" d="M368.21,167.79v.5c0,.23,.05,.42,.16,.56,.11,.14,.3,.21,.57,.21,.2,0,.36-.07,.46-.21,.11-.14,.16-.31,.16-.5,0-.24-.07-.43-.22-.57-.15-.14-.37-.29-.66-.45-.04-.02-.08-.04-.15-.08-.33-.17-.6-.33-.82-.47-.22-.14-.41-.3-.57-.46-.18-.19-.31-.4-.4-.63-.09-.23-.13-.5-.13-.79,0-.66,.2-1.16,.61-1.51,.41-.35,.97-.52,1.7-.52s1.32,.19,1.73,.58c.41,.39,.61,.9,.61,1.54v.19h-1.7v-.09c0-.14-.02-.26-.03-.35-.01-.09-.04-.19-.08-.28-.04-.09-.1-.16-.18-.22-.08-.06-.19-.09-.32-.09-.2,0-.34,.04-.45,.12-.1,.08-.17,.2-.19,.35v.06s0,.04,0,.06c0,.17,.05,.3,.14,.41,.09,.11,.23,.23,.42,.35,.14,.08,.36,.2,.66,.36,.52,.27,.87,.49,1.06,.65,.23,.19,.4,.42,.51,.68,.11,.27,.17,.61,.17,1.02,0,.68-.2,1.21-.61,1.58-.4,.37-.99,.55-1.76,.55-.4,0-.76-.05-1.06-.14-.31-.09-.56-.23-.75-.39-.2-.17-.34-.36-.44-.57-.09-.21-.14-.44-.14-.68v-.76h1.7Z"/><path class="cls-13" d="M373.61,166.18l-.02,.02,.17,3.97h-1.74v-7.12h1.89l1.42,3.98h.03l-.18-3.98h1.75v7.12h-1.88l-1.43-3.99Z"/><path class="cls-13" d="M377.85,170.17v-7.12h2c.45,0,.84,.02,1.17,.06s.63,.13,.9,.27c.33,.17,.55,.4,.66,.7,.11,.3,.17,.65,.17,1.05v3.16c0,.74-.27,1.25-.79,1.54-.22,.13-.47,.22-.73,.27-.27,.04-.56,.07-.9,.07h-2.48Zm1.84-1.28h.14s.09,0,.12,0c.4,0,.66-.08,.78-.23,.12-.15,.19-.41,.19-.76,0-.05,0-.11,0-.16v-2.52c0-.21-.02-.37-.06-.49-.04-.12-.11-.2-.2-.26-.09-.06-.21-.1-.35-.11-.14-.02-.34-.03-.6-.04v4.56Z"/><path class="cls-13" d="M383.43,165.62v-.37c0-.71,.2-1.25,.62-1.63,.41-.38,1.01-.57,1.79-.57,.72,0,1.28,.16,1.67,.49,.4,.33,.6,.82,.6,1.46,0,.43-.08,.79-.23,1.09-.15,.3-.4,.61-.75,.95l-.68,.6c-.09,.08-.19,.17-.29,.27-.1,.09-.21,.2-.31,.32s-.2,.23-.28,.35c-.08,.12-.13,.22-.15,.31h2.71v1.28h-4.69v-.24c0-.54,.15-1.05,.45-1.55,.3-.49,.7-.99,1.19-1.48l.79-.76c.19-.19,.32-.37,.39-.55,.07-.18,.11-.4,.11-.66,0-.2-.05-.36-.16-.5-.11-.14-.27-.2-.5-.2-.13,0-.24,.05-.32,.12-.08,.07-.14,.16-.18,.26-.04,.1-.06,.21-.08,.32-.01,.11-.02,.23-.02,.34v.34h-1.66Z"/><path class="cls-13" d="M388.86,167.92v-1.43h2.59v1.43h-2.59Z"/><path class="cls-13" d="M392.27,170.17v-7.12h1.84v5.7h2.25v1.42h-4.09Z"/></g><g><path class="cls-13" d="M417.57,284.09h-1.84v-7.12h2.69c.77,0,1.33,.15,1.71,.46,.37,.31,.55,.81,.55,1.5,0,.41-.07,.74-.21,1-.14,.26-.39,.47-.76,.62v.02c.27,.05,.48,.16,.64,.32,.16,.16,.25,.36,.27,.6,.01,.12,.03,.39,.04,.8,.02,.37,.04,.67,.06,.9,.02,.23,.04,.42,.07,.55,.05,.11,.11,.19,.18,.25v.1h-2.01c-.06-.16-.1-.29-.1-.41,0-.18-.01-.41-.01-.68,0-.29,0-.5,0-.63,0-.13-.01-.24-.03-.34-.03-.23-.09-.41-.18-.54-.09-.13-.24-.2-.45-.21h-.61v2.81Zm0-4.1h.63c.24,0,.41-.08,.51-.25,.1-.17,.15-.38,.15-.64,0-.37-.09-.6-.26-.71-.17-.11-.52-.16-1.02-.16v1.75Z"/><path class="cls-13" d="M421.14,276.97h4.77v1.42h-1.48v5.7h-1.84v-5.7h-1.44v-1.42Z"/><path class="cls-13" d="M428.18,280.1l-.02,.02,.17,3.97h-1.75v-7.12h1.89l1.42,3.98h.03l-.18-3.98h1.74v7.12h-1.88l-1.43-3.99Z"/><path class="cls-13" d="M432.2,279.54v-.37c0-.71,.21-1.25,.62-1.63,.41-.38,1.01-.57,1.79-.57,.72,0,1.27,.16,1.67,.49,.4,.33,.6,.82,.6,1.46,0,.43-.08,.79-.23,1.09-.15,.3-.4,.62-.75,.95l-.68,.6c-.09,.08-.19,.17-.29,.27-.1,.1-.21,.2-.31,.32-.11,.12-.2,.23-.28,.35-.08,.12-.13,.22-.15,.31h2.71v1.28h-4.69v-.24c0-.54,.15-1.05,.45-1.55,.3-.49,.7-.99,1.19-1.48l.79-.76c.19-.19,.32-.37,.39-.55,.07-.18,.11-.39,.11-.65,0-.2-.05-.36-.16-.5-.11-.13-.27-.2-.5-.2-.13,0-.24,.04-.32,.12-.08,.07-.14,.16-.18,.26-.04,.1-.06,.21-.08,.32-.01,.11-.02,.23-.02,.34v.34h-1.66Z"/><path class="cls-13" d="M437.62,281.84v-1.43h2.59v1.43h-2.59Z"/><path class="cls-13" d="M442.93,284.09h-1.84v-7.12h2.69c.77,0,1.33,.15,1.71,.46,.37,.31,.55,.81,.55,1.5,0,.41-.07,.74-.21,1-.14,.26-.39,.47-.76,.62v.02c.27,.05,.48,.16,.65,.32,.16,.16,.25,.36,.27,.6,.01,.12,.03,.39,.04,.8,.02,.37,.04,.67,.06,.9,.02,.23,.04,.42,.07,.55,.05,.11,.11,.19,.18,.25v.1h-2.01c-.06-.16-.1-.29-.1-.41,0-.18-.01-.41-.01-.68,0-.29,0-.5,0-.63,0-.13-.01-.24-.03-.34-.03-.23-.09-.41-.18-.54-.09-.13-.24-.2-.45-.21h-.61v2.81Zm0-4.1h.63c.24,0,.41-.08,.51-.25,.1-.17,.15-.38,.15-.64,0-.37-.09-.6-.26-.71-.17-.11-.52-.16-1.02-.16v1.75Z"/></g><g><path class="cls-13" d="M417.22,167.79v.5c0,.23,.05,.42,.16,.56,.11,.14,.3,.21,.57,.21,.2,0,.36-.07,.46-.21,.1-.14,.16-.31,.16-.5,0-.24-.07-.43-.22-.57-.15-.14-.37-.29-.66-.45-.04-.02-.08-.04-.15-.08-.33-.17-.6-.33-.82-.47-.22-.14-.41-.3-.57-.46-.17-.19-.31-.4-.4-.63-.09-.23-.14-.5-.14-.79,0-.66,.21-1.16,.61-1.51,.41-.35,.97-.52,1.7-.52s1.32,.19,1.73,.58c.41,.39,.61,.9,.61,1.54v.19h-1.7v-.09c0-.14-.02-.26-.03-.35-.01-.09-.04-.19-.08-.28-.04-.09-.1-.16-.18-.22-.08-.06-.19-.09-.32-.09-.2,0-.35,.04-.45,.12-.11,.08-.17,.2-.19,.35v.06s0,.04,0,.06c0,.17,.05,.3,.14,.41,.09,.11,.24,.23,.42,.35,.14,.08,.36,.2,.66,.36,.52,.27,.87,.49,1.05,.65,.23,.19,.4,.42,.51,.68,.11,.27,.17,.61,.17,1.02,0,.68-.2,1.21-.61,1.58-.4,.37-.99,.55-1.76,.55-.4,0-.76-.05-1.07-.14-.31-.09-.56-.23-.75-.39-.2-.17-.34-.36-.43-.57-.09-.21-.14-.44-.14-.68v-.76h1.7Z"/><path class="cls-13" d="M422.62,166.18l-.02,.02,.17,3.97h-1.75v-7.12h1.89l1.42,3.98h.03l-.18-3.98h1.74v7.12h-1.88l-1.43-3.99Z"/><path class="cls-13" d="M426.86,170.17v-7.12h2c.45,0,.84,.02,1.17,.06,.34,.04,.63,.13,.9,.27,.33,.17,.55,.4,.66,.7,.11,.3,.17,.65,.17,1.05v3.16c0,.74-.27,1.25-.78,1.54-.22,.13-.47,.22-.73,.27-.26,.04-.56,.07-.9,.07h-2.48Zm1.84-1.28h.13s.09,0,.12,0c.4,0,.66-.08,.79-.23,.12-.15,.19-.41,.19-.76,0-.05,0-.11,0-.16v-2.52c0-.21-.02-.37-.06-.49-.04-.12-.11-.2-.2-.26-.09-.06-.21-.1-.35-.11-.14-.02-.34-.03-.6-.04v4.56Z"/><path class="cls-13" d="M432.44,165.62v-.37c0-.71,.21-1.25,.62-1.63,.41-.38,1.01-.57,1.79-.57,.72,0,1.28,.16,1.67,.49,.4,.33,.6,.82,.6,1.46,0,.43-.08,.79-.23,1.09-.15,.3-.4,.61-.75,.95l-.68,.6c-.09,.08-.19,.17-.29,.27-.1,.09-.21,.2-.31,.32s-.2,.23-.28,.35c-.08,.12-.13,.22-.15,.31h2.71v1.28h-4.69v-.24c0-.54,.15-1.05,.45-1.55,.3-.49,.7-.99,1.19-1.48l.79-.76c.19-.19,.32-.37,.39-.55,.07-.18,.11-.4,.11-.66,0-.2-.05-.36-.16-.5-.11-.14-.27-.2-.5-.2-.13,0-.24,.05-.32,.12-.08,.07-.14,.16-.18,.26-.04,.1-.06,.21-.08,.32-.01,.11-.02,.23-.02,.34v.34h-1.66Z"/><path class="cls-13" d="M437.87,167.92v-1.43h2.59v1.43h-2.59Z"/><path class="cls-13" d="M443.18,170.17h-1.84v-7.12h2.69c.77,0,1.33,.15,1.7,.46,.37,.31,.55,.81,.55,1.5,0,.41-.07,.74-.21,1-.14,.26-.39,.47-.76,.62v.02c.27,.05,.48,.16,.64,.32,.16,.16,.25,.36,.27,.6,.01,.12,.03,.39,.04,.8,.02,.37,.04,.67,.06,.9,.02,.23,.04,.42,.07,.55,.05,.11,.11,.19,.18,.25v.09h-2.01c-.06-.16-.1-.29-.1-.41,0-.18-.01-.41-.01-.68,0-.29,0-.5,0-.63,0-.13-.01-.24-.03-.34-.03-.23-.09-.41-.18-.54-.09-.13-.24-.2-.44-.21h-.61v2.81Zm0-4.09h.63c.24,0,.41-.08,.51-.25,.1-.17,.15-.38,.15-.64,0-.37-.09-.6-.26-.71-.17-.1-.52-.16-1.02-.16v1.75Z"/></g><g><path class="cls-13" d="M467.79,284.09h-1.84v-7.12h2.69c.77,0,1.33,.15,1.71,.46,.37,.31,.55,.81,.55,1.5,0,.41-.07,.74-.21,1-.14,.26-.39,.47-.76,.62v.02c.27,.05,.48,.16,.64,.32,.16,.16,.25,.36,.27,.6,.01,.12,.03,.39,.04,.8,.02,.37,.04,.67,.06,.9s.04,.42,.07,.55c.05,.11,.11,.19,.18,.25v.1h-2.01c-.06-.16-.1-.29-.1-.41,0-.18-.01-.41-.01-.68,0-.29,0-.5,0-.63,0-.13-.01-.24-.03-.34-.03-.23-.09-.41-.18-.54-.09-.13-.24-.2-.45-.21h-.61v2.81Zm0-4.1h.63c.24,0,.41-.08,.51-.25,.1-.17,.15-.38,.15-.64,0-.37-.09-.6-.26-.71-.17-.11-.52-.16-1.02-.16v1.75Z"/><path class="cls-13" d="M471.36,276.97h4.77v1.42h-1.48v5.7h-1.84v-5.7h-1.44v-1.42Z"/><path class="cls-13" d="M478.41,280.1l-.02,.02,.17,3.97h-1.75v-7.12h1.89l1.42,3.98h.03l-.18-3.98h1.74v7.12h-1.88l-1.43-3.99Z"/><path class="cls-13" d="M483.81,279.9s.08,0,.19,0c.22,0,.39-.02,.52-.04,.13-.02,.25-.07,.37-.14,.11-.07,.2-.18,.25-.34,.05-.16,.08-.31,.08-.46,0-.23-.04-.41-.13-.54-.09-.13-.25-.2-.48-.2-.12,0-.23,.03-.3,.08-.08,.05-.13,.12-.17,.21-.04,.08-.06,.18-.07,.27,0,.1-.02,.21-.02,.33,0,.04,0,.08,0,.14h-1.67v-.52c.02-.26,.09-.5,.22-.71,.13-.21,.31-.39,.52-.55,.21-.15,.46-.27,.73-.35,.27-.08,.54-.12,.81-.12,.7,0,1.25,.15,1.65,.45,.39,.3,.59,.76,.59,1.39,0,.39-.08,.71-.25,.96-.17,.26-.44,.46-.8,.62v.02c.45,.1,.76,.31,.96,.63,.19,.32,.29,.7,.29,1.12,0,.7-.21,1.23-.63,1.58-.42,.35-1.02,.52-1.8,.52-.71,0-1.26-.17-1.63-.51-.38-.34-.59-.83-.63-1.47v-.48h1.64s0,.12,0,.22c0,.17,.02,.31,.03,.41,0,.1,.04,.2,.08,.3,.04,.1,.11,.18,.19,.25,.09,.06,.21,.09,.36,.09,.13,0,.24-.03,.33-.08,.09-.05,.15-.12,.2-.21,.04-.09,.07-.18,.09-.29,.01-.11,.02-.22,.02-.34,0-.21-.03-.41-.08-.59-.05-.19-.16-.32-.31-.4-.11-.06-.22-.09-.34-.11-.12-.01-.27-.02-.46-.02-.15,0-.25,0-.32,0v-1.14Z"/><path class="cls-13" d="M487.84,281.84v-1.43h2.59v1.43h-2.59Z"/><path class="cls-13" d="M491.26,284.09v-7.12h1.84v5.7h2.25v1.43h-4.09Z"/></g><g><path class="cls-13" d="M467.42,167.79v.5c0,.23,.05,.42,.16,.56,.11,.14,.3,.21,.57,.21,.2,0,.36-.07,.46-.21,.1-.14,.16-.31,.16-.5,0-.24-.07-.43-.22-.57-.15-.14-.37-.29-.66-.45-.04-.02-.08-.04-.15-.08-.33-.17-.6-.33-.82-.47-.22-.14-.41-.3-.57-.46-.17-.19-.31-.4-.4-.63-.09-.23-.14-.5-.14-.79,0-.66,.21-1.16,.61-1.51,.41-.35,.97-.52,1.7-.52s1.32,.19,1.73,.58c.41,.39,.61,.9,.61,1.54v.19h-1.7v-.09c0-.14-.02-.26-.03-.35-.01-.09-.04-.19-.08-.28-.04-.09-.1-.16-.18-.22-.08-.06-.19-.09-.32-.09-.2,0-.35,.04-.45,.12-.11,.08-.17,.2-.19,.35v.06s0,.04,0,.06c0,.17,.05,.3,.14,.41,.09,.11,.24,.23,.42,.35,.14,.08,.36,.2,.66,.36,.52,.27,.87,.49,1.05,.65,.23,.19,.4,.42,.51,.68,.11,.27,.17,.61,.17,1.02,0,.68-.2,1.21-.61,1.58-.4,.37-.99,.55-1.76,.55-.4,0-.76-.05-1.07-.14-.31-.09-.56-.23-.75-.39-.2-.17-.34-.36-.43-.57-.09-.21-.14-.44-.14-.68v-.76h1.7Z"/><path class="cls-13" d="M472.83,166.18l-.02,.02,.17,3.97h-1.75v-7.12h1.89l1.42,3.98h.03l-.18-3.98h1.74v7.12h-1.88l-1.43-3.99Z"/><path class="cls-13" d="M477.07,170.17v-7.12h2c.45,0,.84,.02,1.17,.06,.34,.04,.63,.13,.9,.27,.33,.17,.55,.4,.66,.7,.11,.3,.17,.65,.17,1.05v3.16c0,.74-.27,1.25-.78,1.54-.22,.13-.47,.22-.73,.27-.26,.04-.56,.07-.9,.07h-2.48Zm1.84-1.28h.13s.09,0,.12,0c.4,0,.66-.08,.79-.23,.12-.15,.19-.41,.19-.76,0-.05,0-.11,0-.16v-2.52c0-.21-.02-.37-.06-.49-.04-.12-.11-.2-.2-.26-.09-.06-.21-.1-.35-.11-.14-.02-.34-.03-.6-.04v4.56Z"/><path class="cls-13" d="M484.04,165.97s.08,0,.19,0c.22,0,.39-.02,.52-.04,.13-.02,.25-.07,.37-.14,.11-.07,.2-.18,.25-.34,.06-.16,.08-.31,.08-.46,0-.23-.04-.41-.13-.54-.09-.13-.25-.2-.48-.2-.13,0-.23,.03-.3,.08-.08,.05-.13,.12-.17,.21-.04,.08-.06,.18-.07,.27,0,.1-.02,.21-.02,.33,0,.04,0,.08,0,.14h-1.67v-.52c.02-.26,.09-.5,.22-.71s.31-.39,.52-.55c.22-.15,.46-.27,.73-.35,.27-.08,.54-.12,.81-.12,.7,0,1.25,.15,1.65,.45,.39,.3,.59,.76,.59,1.39,0,.39-.08,.71-.25,.96-.17,.26-.43,.46-.8,.62v.02c.45,.1,.76,.31,.95,.63,.19,.32,.29,.7,.29,1.12,0,.7-.21,1.23-.63,1.58s-1.02,.52-1.8,.52c-.71,0-1.26-.17-1.63-.51-.38-.34-.59-.83-.63-1.47v-.48h1.64s0,.12,0,.22c0,.17,.02,.31,.03,.41,0,.1,.04,.2,.08,.3,.04,.1,.11,.18,.19,.25,.09,.06,.21,.09,.36,.09,.13,0,.24-.03,.33-.08,.09-.05,.15-.12,.2-.21,.04-.09,.07-.18,.09-.29,.01-.11,.02-.22,.02-.34,0-.21-.03-.41-.08-.59-.06-.19-.16-.32-.31-.4-.1-.06-.22-.09-.34-.1-.12-.01-.27-.02-.45-.02-.15,0-.25,0-.32,0v-1.14Z"/><path class="cls-13" d="M488.07,167.92v-1.43h2.59v1.43h-2.59Z"/><path class="cls-13" d="M491.49,170.17v-7.12h1.84v5.7h2.25v1.42h-4.09Z"/></g><g><path class="cls-13" d="M516.8,284.09h-1.84v-7.12h2.69c.77,0,1.33,.15,1.7,.46,.37,.31,.55,.81,.55,1.5,0,.41-.07,.74-.21,1-.14,.26-.39,.47-.76,.62v.02c.26,.05,.48,.16,.64,.32,.16,.16,.25,.36,.27,.6,.01,.12,.03,.39,.04,.8,.02,.37,.04,.67,.06,.9s.04,.42,.07,.55c.05,.11,.11,.19,.18,.25v.1h-2.01c-.06-.16-.1-.29-.11-.41,0-.18,0-.41,0-.68,0-.29,0-.5,0-.63,0-.13-.01-.24-.03-.34-.03-.23-.09-.41-.18-.54-.09-.13-.24-.2-.44-.21h-.61v2.81Zm0-4.1h.63c.24,0,.41-.08,.51-.25,.1-.17,.15-.38,.15-.64,0-.37-.09-.6-.26-.71-.18-.11-.52-.16-1.03-.16v1.75Z"/><path class="cls-13" d="M520.37,276.97h4.77v1.42h-1.48v5.7h-1.84v-5.7h-1.44v-1.42Z"/><path class="cls-13" d="M527.42,280.1l-.02,.02,.17,3.97h-1.74v-7.12h1.89l1.42,3.98h.03l-.18-3.98h1.74v7.12h-1.88l-1.43-3.99Z"/><path class="cls-13" d="M532.82,279.9s.08,0,.19,0c.21,0,.39-.02,.52-.04s.25-.07,.37-.14c.11-.07,.2-.18,.25-.34,.05-.16,.08-.31,.08-.46,0-.23-.05-.41-.14-.54-.09-.13-.25-.2-.48-.2-.12,0-.23,.03-.3,.08-.08,.05-.13,.12-.17,.21-.04,.08-.06,.18-.07,.27,0,.1-.02,.21-.02,.33,0,.04,0,.08,0,.14h-1.67v-.52c.02-.26,.09-.5,.22-.71,.13-.21,.31-.39,.52-.55,.21-.15,.46-.27,.73-.35,.27-.08,.54-.12,.81-.12,.71,0,1.25,.15,1.65,.45,.39,.3,.59,.76,.59,1.39,0,.39-.08,.71-.25,.96-.17,.26-.44,.46-.8,.62v.02c.45,.1,.76,.31,.96,.63,.19,.32,.29,.7,.29,1.12,0,.7-.21,1.23-.63,1.58-.42,.35-1.02,.52-1.8,.52-.71,0-1.26-.17-1.63-.51-.38-.34-.59-.83-.63-1.47v-.48h1.64s0,.12,.01,.22c0,.17,.02,.31,.03,.41,0,.1,.04,.2,.08,.3,.04,.1,.11,.18,.19,.25,.09,.06,.21,.09,.36,.09,.13,0,.24-.03,.33-.08,.09-.05,.15-.12,.2-.21,.04-.09,.07-.18,.09-.29,.02-.11,.02-.22,.02-.34,0-.21-.03-.41-.08-.59-.05-.19-.16-.32-.31-.4-.11-.06-.22-.09-.34-.11-.12-.01-.27-.02-.46-.02-.15,0-.25,0-.32,0v-1.14Z"/><path class="cls-13" d="M536.85,281.84v-1.43h2.59v1.43h-2.59Z"/><path class="cls-13" d="M542.16,284.09h-1.84v-7.12h2.69c.77,0,1.33,.15,1.7,.46,.37,.31,.55,.81,.55,1.5,0,.41-.07,.74-.21,1-.14,.26-.39,.47-.76,.62v.02c.27,.05,.48,.16,.64,.32,.16,.16,.25,.36,.27,.6,.01,.12,.03,.39,.04,.8,.02,.37,.04,.67,.06,.9,.02,.23,.04,.42,.07,.55,.05,.11,.11,.19,.18,.25v.1h-2.01c-.06-.16-.1-.29-.1-.41,0-.18-.01-.41-.01-.68,0-.29,0-.5,0-.63,0-.13-.01-.24-.03-.34-.03-.23-.09-.41-.18-.54-.09-.13-.24-.2-.44-.21h-.61v2.81Zm0-4.1h.63c.24,0,.41-.08,.51-.25,.1-.17,.15-.38,.15-.64,0-.37-.09-.6-.26-.71-.17-.11-.52-.16-1.02-.16v1.75Z"/></g><g><path class="cls-13" d="M574,284.31v-7.12h2.59l.95,4.21h.02l.98-4.21h2.57v7.12h-1.76l.19-5.59h-.02l-1.3,5.59h-1.37l-1.27-5.59h-.02l.17,5.59h-1.74Z"/><path class="cls-13" d="M582.16,284.31v-7.12h1.84v7.12h-1.84Z"/><path class="cls-13" d="M585.01,284.31v-7.12h2c.45,0,.84,.02,1.17,.06,.33,.04,.63,.13,.9,.27,.33,.17,.55,.41,.66,.7,.11,.3,.17,.65,.17,1.05v3.16c0,.73-.27,1.25-.78,1.54-.22,.13-.47,.22-.73,.27-.27,.04-.56,.07-.9,.07h-2.48Zm1.84-1.28h.14s.09,0,.12,0c.4,0,.66-.08,.78-.23,.12-.15,.19-.4,.19-.76,0-.05,0-.1,0-.16v-2.52c0-.21-.02-.37-.06-.49-.04-.12-.11-.2-.2-.26-.09-.06-.21-.09-.35-.11-.14-.02-.34-.03-.6-.04v4.56Z"/><path class="cls-13" d="M590.87,284.31v-7.12h1.84v7.12h-1.84Z"/></g><g><path class="cls-13" d="M560.68,265.98h4.01v1.2h-1.25v4.8h-1.55v-4.8h-1.21v-1.2Z"/><path class="cls-13" d="M565.24,271.98v-6h1.55v2.3h1.07v-2.3h1.55v6h-1.55v-2.5h-1.07v2.5h-1.55Z"/><path class="cls-13" d="M571.69,271.98h-1.55v-6h2.26c.64,0,1.12,.13,1.43,.39,.31,.26,.47,.68,.47,1.27,0,.34-.06,.62-.18,.84-.12,.22-.33,.4-.64,.52v.02c.22,.04,.4,.13,.54,.27,.14,.13,.21,.3,.22,.51,.01,.1,.02,.33,.04,.67,.02,.31,.03,.56,.05,.76,.01,.2,.03,.35,.06,.46,.04,.09,.09,.16,.15,.21v.08h-1.69c-.05-.13-.08-.25-.09-.34,0-.15,0-.35,0-.58,0-.24,0-.42,0-.53,0-.11,0-.2-.02-.29-.02-.2-.08-.35-.15-.46-.08-.11-.2-.17-.37-.18h-.51v2.37Zm0-3.45h.53c.21,0,.35-.07,.43-.21,.08-.14,.12-.32,.12-.54,0-.31-.07-.51-.22-.6-.15-.09-.44-.13-.86-.13v1.47Z"/><path class="cls-13" d="M575.04,265.98h1.55v4.53c0,.17,.04,.3,.12,.39,.08,.1,.22,.14,.42,.14,.18,0,.31-.06,.4-.18,.08-.12,.13-.25,.13-.4v-4.49h1.55v4.34c0,.27-.04,.51-.11,.72-.07,.22-.19,.4-.35,.56-.16,.16-.38,.29-.65,.37-.27,.09-.6,.14-.99,.14-.67,0-1.18-.15-1.54-.45-.36-.3-.54-.75-.54-1.35v-4.34Z"/></g><g><path class="cls-13" d="M593.69,271.96v-6h1.55v6h-1.55Z"/><path class="cls-13" d="M597.41,268.6l-.02,.02,.14,3.34h-1.47v-6h1.59l1.2,3.35h.03l-.15-3.35h1.47v6h-1.58l-1.21-3.36Z"/></g><g><path class="cls-13" d="M516.43,167.79v.5c0,.23,.05,.42,.16,.56,.11,.14,.3,.21,.57,.21,.2,0,.36-.07,.46-.21,.11-.14,.16-.31,.16-.5,0-.24-.07-.43-.22-.57-.15-.14-.37-.29-.66-.45-.04-.02-.08-.04-.15-.08-.33-.17-.6-.33-.82-.47-.22-.14-.41-.3-.57-.46-.17-.19-.31-.4-.4-.63-.09-.23-.14-.5-.14-.79,0-.66,.21-1.16,.61-1.51,.41-.35,.97-.52,1.7-.52s1.32,.19,1.73,.58c.41,.39,.61,.9,.61,1.54v.19h-1.7v-.09c0-.14-.02-.26-.03-.35-.01-.09-.04-.19-.08-.28-.04-.09-.1-.16-.18-.22-.08-.06-.19-.09-.32-.09-.2,0-.35,.04-.45,.12-.11,.08-.17,.2-.19,.35v.06s-.01,.04-.01,.06c0,.17,.05,.3,.14,.41,.1,.11,.24,.23,.42,.35,.14,.08,.36,.2,.66,.36,.52,.27,.87,.49,1.06,.65,.23,.19,.4,.42,.51,.68,.11,.27,.17,.61,.17,1.02,0,.68-.2,1.21-.61,1.58-.4,.37-.99,.55-1.76,.55-.4,0-.76-.05-1.07-.14-.31-.09-.56-.23-.75-.39-.2-.17-.34-.36-.43-.57-.09-.21-.14-.44-.14-.68v-.76h1.7Z"/><path class="cls-13" d="M521.83,166.18l-.02,.02,.17,3.97h-1.74v-7.12h1.89l1.42,3.98h.03l-.18-3.98h1.74v7.12h-1.88l-1.43-3.99Z"/><path class="cls-13" d="M526.08,170.17v-7.12h2c.45,0,.84,.02,1.17,.06,.33,.04,.63,.13,.9,.27,.33,.17,.55,.4,.66,.7,.11,.3,.17,.65,.17,1.05v3.16c0,.74-.27,1.25-.78,1.54-.22,.13-.47,.22-.73,.27-.27,.04-.56,.07-.9,.07h-2.48Zm1.84-1.28h.14s.09,0,.12,0c.4,0,.66-.08,.78-.23,.12-.15,.19-.41,.19-.76,0-.05,0-.11,0-.16v-2.52c0-.21-.02-.37-.06-.49-.04-.12-.11-.2-.2-.26-.09-.06-.21-.1-.35-.11-.14-.02-.34-.03-.6-.04v4.56Z"/><path class="cls-13" d="M533.05,165.97s.08,0,.19,0c.22,0,.39-.02,.52-.04,.13-.02,.25-.07,.37-.14,.11-.07,.2-.18,.25-.34,.05-.16,.08-.31,.08-.46,0-.23-.04-.41-.13-.54-.09-.13-.25-.2-.48-.2-.12,0-.23,.03-.3,.08-.08,.05-.13,.12-.17,.21-.04,.08-.06,.18-.07,.27,0,.1-.02,.21-.02,.33,0,.04,0,.08,0,.14h-1.67v-.52c.02-.26,.09-.5,.22-.71,.13-.21,.31-.39,.52-.55,.21-.15,.46-.27,.73-.35,.27-.08,.54-.12,.81-.12,.7,0,1.25,.15,1.65,.45,.39,.3,.59,.76,.59,1.39,0,.39-.08,.71-.25,.96-.17,.26-.44,.46-.8,.62v.02c.45,.1,.76,.31,.96,.63,.19,.32,.29,.7,.29,1.12,0,.7-.21,1.23-.63,1.58-.42,.35-1.02,.52-1.8,.52-.71,0-1.26-.17-1.63-.51-.38-.34-.59-.83-.63-1.47v-.48h1.64s0,.12,0,.22c0,.17,.02,.31,.03,.41,0,.1,.04,.2,.08,.3,.04,.1,.11,.18,.19,.25s.21,.09,.36,.09c.13,0,.24-.03,.33-.08,.09-.05,.15-.12,.2-.21,.04-.09,.07-.18,.09-.29,.01-.11,.02-.22,.02-.34,0-.21-.03-.41-.08-.59-.05-.19-.16-.32-.31-.4-.11-.06-.22-.09-.34-.1-.12-.01-.27-.02-.45-.02-.15,0-.25,0-.32,0v-1.14Z"/><path class="cls-13" d="M537.08,167.92v-1.43h2.59v1.43h-2.59Z"/><path class="cls-13" d="M542.39,170.17h-1.84v-7.12h2.69c.77,0,1.33,.15,1.7,.46,.37,.31,.55,.81,.55,1.5,0,.41-.07,.74-.21,1-.14,.26-.39,.47-.76,.62v.02c.27,.05,.48,.16,.64,.32,.16,.16,.25,.36,.27,.6,.02,.12,.03,.39,.04,.8,.02,.37,.04,.67,.06,.9s.04,.42,.07,.55c.05,.11,.11,.19,.18,.25v.09h-2.01c-.06-.16-.1-.29-.11-.41,0-.18,0-.41,0-.68,0-.29,0-.5,0-.63,0-.13-.01-.24-.03-.34-.03-.23-.09-.41-.18-.54-.09-.13-.24-.2-.44-.21h-.61v2.81Zm0-4.09h.63c.24,0,.41-.08,.51-.25,.1-.17,.15-.38,.15-.64,0-.37-.09-.6-.26-.71-.17-.1-.52-.16-1.02-.16v1.75Z"/></g><path class="cls-10" d="M587.13,175.27c-.62-1.09-1.8-1.82-3.14-1.82-1.99,0-3.61,1.61-3.61,3.61s1.62,3.61,3.61,3.61c1.33,0,2.48-.71,3.11-1.78"/><path class="cls-14" d="M584,178.93c1.02,0,1.84-.82,1.84-1.84s-.82-1.84-1.84-1.84-1.84,.82-1.84,1.84,.82,1.84,1.84,1.84"/><path class="cls-14" d="M595.89,180.68c2.03,0,3.68-1.65,3.68-3.68s-1.65-3.68-3.68-3.68-3.68,1.65-3.68,3.68,1.65,3.68,3.68,3.68"/><line class="cls-10" x1="584.71" y1="176.91" x2="593.06" y2="176.91"/><line class="cls-10" x1="574.96" y1="176.91" x2="580.78" y2="176.91"/><path class="cls-14" d="M572.16,180.58c2.04,0,3.68-1.65,3.68-3.68s-1.65-3.68-3.68-3.68-3.68,1.65-3.68,3.68,1.65,3.68,3.68,3.68"/><path class="cls-1" d="M572.21,174.7v4.41m-2.21-2.21h4.42"/><line class="cls-11" x1="593.72" y1="177" x2="598.14" y2="177"/><g><path class="cls-13" d="M571.77,170.17v-7.12h2c.45,0,.84,.02,1.17,.06,.33,.04,.63,.13,.9,.27,.33,.17,.55,.41,.66,.7,.11,.3,.17,.65,.17,1.05v3.16c0,.73-.27,1.25-.78,1.54-.22,.13-.47,.22-.73,.27-.27,.04-.56,.07-.9,.07h-2.48Zm1.84-1.28h.14s.09,0,.12,0c.4,0,.66-.08,.78-.23,.12-.15,.19-.41,.19-.76,0-.05,0-.1,0-.16v-2.52c0-.21-.02-.37-.06-.49-.04-.12-.11-.2-.2-.26-.09-.06-.21-.09-.35-.11-.14-.02-.34-.03-.6-.04v4.56Z"/><path class="cls-13" d="M580.65,165.53v-.45c0-.3-.05-.53-.16-.68-.11-.16-.25-.24-.43-.24-.27,0-.46,.06-.56,.18-.1,.12-.15,.31-.15,.56v3.52c0,.21,.04,.37,.15,.47,.11,.11,.27,.16,.5,.16,.15,0,.27-.03,.36-.1,.09-.06,.16-.14,.21-.24,.04-.1,.07-.2,.09-.32,.01-.11,.02-.24,.02-.37v-.65h1.84v.87c0,.65-.22,1.15-.65,1.53-.43,.37-1.1,.56-2.01,.56-.82,0-1.42-.19-1.79-.58-.37-.38-.56-.95-.56-1.7v-2.93c0-.77,.2-1.34,.6-1.71,.4-.37,1.02-.56,1.87-.56s1.43,.17,1.86,.5c.43,.33,.65,.85,.65,1.56v.6h-1.84Z"/><path class="cls-13" d="M587.59,168.5c.01,.22,.05,.38,.12,.46,.09,.13,.24,.19,.46,.19,.24,0,.39-.1,.46-.29,.07-.2,.11-.51,.11-.93v-.47c-.21,.14-.39,.23-.55,.28-.16,.05-.37,.07-.64,.07-.34,0-.63-.06-.86-.18-.23-.12-.41-.28-.53-.47-.13-.2-.21-.42-.27-.68-.05-.25-.08-.52-.08-.81,0-.42,.04-.79,.11-1.11,.07-.32,.2-.59,.38-.81,.18-.22,.42-.4,.74-.52,.31-.12,.71-.18,1.18-.18,.42,0,.79,.06,1.08,.19,.3,.12,.53,.3,.7,.52,.17,.23,.29,.49,.37,.79,.08,.3,.12,.64,.12,1.01v1.88c0,.43-.03,.81-.07,1.14-.05,.33-.15,.63-.29,.9-.14,.27-.37,.48-.66,.64-.3,.16-.68,.23-1.14,.23-.79,0-1.37-.14-1.76-.41-.39-.27-.59-.75-.62-1.43h1.66Zm.24-4.16c-.08,.07-.14,.17-.18,.29-.04,.12-.07,.25-.08,.38-.01,.14-.02,.3-.02,.49,0,.37,.04,.65,.11,.84,.07,.19,.24,.28,.51,.28,.24,0,.4-.09,.47-.27,.07-.18,.11-.45,.11-.81v-.18c0-.1,0-.17,0-.23,0-.27-.04-.49-.12-.66-.08-.16-.24-.25-.48-.25-.13,0-.24,.04-.32,.1Z"/><path class="cls-13" d="M592.57,170.17l-1.7-7.12h1.84l.94,5h.02l.94-5h1.84l-1.71,7.12h-2.16Z"/></g><g><path class="cls-8" d="M587.37,196.91c0,1.51-1.21,2.72-2.72,2.72s-2.72-1.22-2.72-2.72,1.22-2.72,2.72-2.72,2.72,1.22,2.72,2.72Z"/><path class="cls-8" d="M593.22,196.91c0,4.73-3.84,8.57-8.57,8.57s-8.57-3.84-8.57-8.57,3.84-8.57,8.57-8.57,8.57,3.84,8.57,8.57Z"/><rect class="cls-8" x="571.92" y="184.39" width="25.58" height="31.29"/></g><path class="cls-9" d="M34.04,211.69H103.7c3.13,0,5.67,2.54,5.67,5.67v26.16c0,3.13-2.54,5.67-5.67,5.67H34.04c-3.13,0-5.67-2.54-5.67-5.67v-26.16c0-3.13,2.54-5.67,5.67-5.67Z"/><path class="cls-9" d="M34.04,255.71H103.7c3.13,0,5.67,2.54,5.67,5.67v26.16c0,3.13-2.54,5.67-5.67,5.67H34.04c-3.13,0-5.67-2.54-5.67-5.67v-26.16c0-3.13,2.54-5.67,5.67-5.67Z"/><path class="cls-9" d="M33.67,107.31H103.33c3.13,0,5.67,2.54,5.67,5.67v26.16c0,3.13-2.54,5.67-5.67,5.67H33.67c-3.13,0-5.67-2.54-5.67-5.67v-26.16c0-3.13,2.54-5.67,5.67-5.67Z"/><g><rect class="cls-9" x="174.63" y="42.12" width="87.85" height="58.46" rx="5.81" ry="5.81"/><path class="cls-9" d="M193.77,88.95c0,2.64-2.14,4.79-4.79,4.79s-4.79-2.14-4.79-4.79,2.14-4.79,4.79-4.79,4.79,2.14,4.79,4.79Z"/><path class="cls-9" d="M223.34,88.95c0,2.64-2.14,4.79-4.79,4.79s-4.79-2.14-4.79-4.79,2.14-4.79,4.79-4.79,4.79,2.14,4.79,4.79Z"/><path class="cls-9" d="M253.47,88.95c0,2.64-2.14,4.79-4.79,4.79s-4.79-2.14-4.79-4.79,2.14-4.79,4.79-4.79,4.79,2.14,4.79,4.79Z"/><rect class="cls-9" x="179.07" y="45.88" width="79.65" height="27.35" rx="5.81" ry="5.81"/><rect class="cls-9" x="184.89" y="51.13" width="23.29" height="7.44"/><g><path class="cls-9" d="M221.57,55.43c0,1.66-1.35,3.01-3.01,3.01s-3.01-1.35-3.01-3.01,1.35-3.01,3.01-3.01,3.01,1.35,3.01,3.01Z"/><line class="cls-9" x1="218.56" y1="54.85" x2="218.56" y2="52.42"/></g><g><path class="cls-9" d="M237.85,55.43c0,1.66-1.35,3.01-3.01,3.01s-3.01-1.35-3.01-3.01,1.35-3.01,3.01-3.01,3.01,1.35,3.01,3.01Z"/><line class="cls-9" x1="234.84" y1="54.85" x2="234.84" y2="52.42"/></g><g><path class="cls-9" d="M254,55.43c0,1.66-1.35,3.01-3.01,3.01s-3.01-1.35-3.01-3.01,1.35-3.01,3.01-3.01,3.01,1.35,3.01,3.01Z"/><line class="cls-9" x1="250.99" y1="54.85" x2="250.99" y2="52.42"/></g><g><path class="cls-9" d="M221.57,66.58c0,1.66-1.35,3.01-3.01,3.01s-3.01-1.35-3.01-3.01,1.35-3.01,3.01-3.01,3.01,1.35,3.01,3.01Z"/><line class="cls-9" x1="218.56" y1="66" x2="218.56" y2="63.57"/></g><g><path class="cls-9" d="M237.85,66.58c0,1.66-1.35,3.01-3.01,3.01s-3.01-1.35-3.01-3.01,1.35-3.01,3.01-3.01,3.01,1.35,3.01,3.01Z"/><line class="cls-9" x1="234.84" y1="66" x2="234.84" y2="63.57"/></g><g><path class="cls-9" d="M189.78,66.58c0,1.66-1.35,3.01-3.01,3.01s-3.01-1.35-3.01-3.01,1.35-3.01,3.01-3.01,3.01,1.35,3.01,3.01Z"/><line class="cls-9" x1="186.77" y1="66" x2="186.77" y2="63.57"/></g><g><path class="cls-9" d="M205.42,66.58c0,1.66-1.35,3.01-3.01,3.01s-3.01-1.35-3.01-3.01,1.35-3.01,3.01-3.01,3.01,1.35,3.01,3.01Z"/><line class="cls-9" x1="202.41" y1="66" x2="202.41" y2="63.57"/></g><g><path class="cls-9" d="M254,66.58c0,1.66-1.35,3.01-3.01,3.01s-3.01-1.35-3.01-3.01,1.35-3.01,3.01-3.01,3.01,1.35,3.01,3.01Z"/><line class="cls-9" x1="250.99" y1="66" x2="250.99" y2="63.57"/></g></g><g><rect class="cls-9" x="317.14" y="42.12" width="87.85" height="58.46" rx="5.81" ry="5.81"/><path class="cls-9" d="M336.28,88.95c0,2.64-2.14,4.79-4.79,4.79s-4.79-2.14-4.79-4.79,2.14-4.79,4.79-4.79,4.79,2.14,4.79,4.79Z"/><path class="cls-9" d="M365.85,88.95c0,2.64-2.14,4.79-4.78,4.79s-4.79-2.14-4.79-4.79,2.14-4.79,4.79-4.79,4.78,2.14,4.78,4.79Z"/><path class="cls-9" d="M395.97,88.95c0,2.64-2.14,4.79-4.79,4.79s-4.79-2.14-4.79-4.79,2.14-4.79,4.79-4.79,4.79,2.14,4.79,4.79Z"/><rect class="cls-9" x="321.58" y="45.88" width="79.65" height="27.35" rx="5.81" ry="5.81"/><rect class="cls-9" x="327.39" y="51.13" width="23.29" height="7.44"/><g><path class="cls-9" d="M364.08,55.43c0,1.66-1.35,3.01-3.01,3.01s-3.01-1.35-3.01-3.01,1.35-3.01,3.01-3.01,3.01,1.35,3.01,3.01Z"/><line class="cls-9" x1="361.06" y1="54.85" x2="361.06" y2="52.42"/></g><g><path class="cls-9" d="M380.36,55.43c0,1.66-1.35,3.01-3.01,3.01s-3.01-1.35-3.01-3.01,1.35-3.01,3.01-3.01,3.01,1.35,3.01,3.01Z"/><line class="cls-9" x1="377.34" y1="54.85" x2="377.34" y2="52.42"/></g><g><path class="cls-9" d="M396.51,55.43c0,1.66-1.35,3.01-3.01,3.01s-3.01-1.35-3.01-3.01,1.35-3.01,3.01-3.01,3.01,1.35,3.01,3.01Z"/><line class="cls-9" x1="393.5" y1="54.85" x2="393.5" y2="52.42"/></g><g><path class="cls-9" d="M364.08,66.58c0,1.66-1.35,3.01-3.01,3.01s-3.01-1.35-3.01-3.01,1.35-3.01,3.01-3.01,3.01,1.35,3.01,3.01Z"/><line class="cls-9" x1="361.06" y1="66" x2="361.06" y2="63.57"/></g><g><path class="cls-9" d="M380.36,66.58c0,1.66-1.35,3.01-3.01,3.01s-3.01-1.35-3.01-3.01,1.35-3.01,3.01-3.01,3.01,1.35,3.01,3.01Z"/><line class="cls-9" x1="377.34" y1="66" x2="377.34" y2="63.57"/></g><g><path class="cls-9" d="M332.28,66.58c0,1.66-1.35,3.01-3.01,3.01s-3.01-1.35-3.01-3.01,1.35-3.01,3.01-3.01,3.01,1.35,3.01,3.01Z"/><line class="cls-9" x1="329.27" y1="66" x2="329.27" y2="63.57"/></g><g><path class="cls-9" d="M347.92,66.58c0,1.66-1.35,3.01-3.01,3.01s-3.01-1.35-3.01-3.01,1.35-3.01,3.01-3.01,3.01,1.35,3.01,3.01Z"/><line class="cls-9" x1="344.91" y1="66" x2="344.91" y2="63.57"/></g><g><path class="cls-9" d="M396.51,66.58c0,1.66-1.35,3.01-3.01,3.01s-3.01-1.35-3.01-3.01,1.35-3.01,3.01-3.01,3.01,1.35,3.01,3.01Z"/><line class="cls-9" x1="393.5" y1="66" x2="393.5" y2="63.57"/></g></g><g><rect class="cls-9" x="459.64" y="42.12" width="87.86" height="58.46" rx="5.81" ry="5.81"/><path class="cls-9" d="M478.79,88.95c0,2.64-2.14,4.79-4.79,4.79s-4.79-2.14-4.79-4.79,2.14-4.79,4.79-4.79,4.79,2.14,4.79,4.79Z"/><path class="cls-9" d="M508.36,88.95c0,2.64-2.14,4.79-4.79,4.79s-4.79-2.14-4.79-4.79,2.14-4.79,4.79-4.79,4.79,2.14,4.79,4.79Z"/><path class="cls-9" d="M538.48,88.95c0,2.64-2.14,4.79-4.79,4.79s-4.79-2.14-4.79-4.79,2.14-4.79,4.79-4.79,4.79,2.14,4.79,4.79Z"/><rect class="cls-9" x="464.09" y="45.88" width="79.65" height="27.35" rx="5.81" ry="5.81"/><rect class="cls-9" x="469.9" y="51.13" width="23.29" height="7.44"/><g><path class="cls-9" d="M506.58,55.43c0,1.66-1.35,3.01-3.01,3.01s-3.01-1.35-3.01-3.01,1.35-3.01,3.01-3.01,3.01,1.35,3.01,3.01Z"/><line class="cls-9" x1="503.57" y1="54.85" x2="503.57" y2="52.42"/></g><g><path class="cls-9" d="M522.86,55.43c0,1.66-1.35,3.01-3.01,3.01s-3.01-1.35-3.01-3.01,1.35-3.01,3.01-3.01,3.01,1.35,3.01,3.01Z"/><line class="cls-9" x1="519.85" y1="54.85" x2="519.85" y2="52.42"/></g><g><path class="cls-9" d="M539.01,55.43c0,1.66-1.35,3.01-3.01,3.01s-3.01-1.35-3.01-3.01,1.35-3.01,3.01-3.01,3.01,1.35,3.01,3.01Z"/><line class="cls-9" x1="536" y1="54.85" x2="536" y2="52.42"/></g><g><path class="cls-9" d="M506.58,66.58c0,1.66-1.35,3.01-3.01,3.01s-3.01-1.35-3.01-3.01,1.35-3.01,3.01-3.01,3.01,1.35,3.01,3.01Z"/><line class="cls-9" x1="503.57" y1="66" x2="503.57" y2="63.57"/></g><g><path class="cls-9" d="M522.86,66.58c0,1.66-1.35,3.01-3.01,3.01s-3.01-1.35-3.01-3.01,1.35-3.01,3.01-3.01,3.01,1.35,3.01,3.01Z"/><line class="cls-9" x1="519.85" y1="66" x2="519.85" y2="63.57"/></g><g><path class="cls-9" d="M474.79,66.58c0,1.66-1.35,3.01-3.01,3.01s-3.01-1.35-3.01-3.01,1.35-3.01,3.01-3.01,3.01,1.35,3.01,3.01Z"/><line class="cls-9" x1="471.78" y1="66" x2="471.78" y2="63.57"/></g><g><path class="cls-9" d="M490.43,66.58c0,1.66-1.35,3.01-3.01,3.01s-3.01-1.35-3.01-3.01,1.35-3.01,3.01-3.01,3.01,1.35,3.01,3.01Z"/><line class="cls-9" x1="487.42" y1="66" x2="487.42" y2="63.57"/></g><g><path class="cls-9" d="M539.01,66.58c0,1.66-1.35,3.01-3.01,3.01s-3.01-1.35-3.01-3.01,1.35-3.01,3.01-3.01,3.01,1.35,3.01,3.01Z"/><line class="cls-9" x1="536" y1="66" x2="536" y2="63.57"/></g></g><g><path class="cls-17" d="M52.74,234.07l-.46,1.87h-2.24l2.35-8.08h2.88l2.41,8.08h-2.34l-.52-1.87h-2.09Zm1.79-1.61l-.37-1.45c-.12-.46-.28-1.12-.4-1.59h-.02c-.12,.48-.24,1.15-.36,1.61l-.35,1.44h1.5Z"/><path class="cls-17" d="M65.55,233.05c-.02-.92-.05-2-.04-3.26h-.04c-.25,1.07-.59,2.28-.85,3.17l-.8,2.82h-1.69l-.68-2.81c-.2-.88-.46-2.07-.64-3.18h-.02c-.05,1.14-.1,2.34-.13,3.26l-.12,2.89h-1.99l.49-8.08h2.91l.54,2.17c.22,.9,.46,1.98,.62,2.96h.05c.23-.98,.49-2.12,.73-2.97l.6-2.16h2.85l.41,8.08h-2.11l-.1-2.89Z"/><path class="cls-17" d="M69.09,227.96c.59-.1,1.44-.17,2.67-.17,1.16,0,1.99,.2,2.55,.64,.55,.41,.92,1.13,.92,1.96s-.28,1.54-.78,1.99c-.66,.59-1.61,.84-2.7,.84-.2,0-.4-.01-.53-.02v2.75h-2.15v-7.98Zm2.15,3.57c.12,.01,.26,.02,.49,.02,.85,0,1.38-.43,1.38-1.13,0-.6-.41-1.01-1.22-1.01-.32,0-.54,.02-.65,.05v2.06Z"/><path class="cls-17" d="M81.52,232.12v1.4h-3.21v-1.4h3.21Z"/><path class="cls-17" d="M85,227.85h2.17v6.27h3.11v1.81h-5.28v-8.08Z"/></g><g><path class="cls-17" d="M43.24,123.47h5.19v1.76h-3.02v1.5h2.84v1.75h-2.84v3.07h-2.17v-8.08Z"/><path class="cls-17" d="M53.96,131.56l-.6-1.32c-.23-.52-.41-.94-.62-1.4h-.02c-.14,.47-.32,.89-.52,1.39l-.54,1.33h-2.46l2.27-4.09-2.19-3.99h2.49l.54,1.28c.22,.48,.37,.88,.54,1.33h.04c.18-.53,.3-.88,.47-1.32l.5-1.3h2.47l-2.21,3.95,2.35,4.14h-2.51Z"/><path class="cls-17" d="M67.33,127.43c0,2.6-1.56,4.26-4.05,4.26s-3.89-1.88-3.89-4.13,1.55-4.22,4.02-4.22c2.6,0,3.92,1.93,3.92,4.09Zm-5.65,.1c0,1.51,.66,2.45,1.7,2.45s1.66-1.02,1.66-2.47-.62-2.45-1.67-2.45-1.69,.98-1.69,2.47Z"/><path class="cls-17" d="M70.65,123.47v4.58c0,1.22,.42,1.92,1.27,1.92s1.28-.64,1.28-1.92v-4.58h2.17v4.46c0,2.49-1.25,3.75-3.51,3.75s-3.38-1.21-3.38-3.81v-4.4h2.17Z"/><path class="cls-17" d="M78.42,125.28h-2.06v-1.81h6.33v1.81h-2.1v6.27h-2.17v-6.27Z"/><path class="cls-17" d="M88.9,127.74v1.4h-3.21v-1.4h3.21Z"/><path class="cls-17" d="M92.38,123.47h2.17v6.27h3.11v1.81h-5.28v-8.08Z"/></g><g><path class="cls-17" d="M207.79,29.4h5.63v1.91h-3.28v1.62h3.08v1.9h-3.08v3.33h-2.35v-8.76Z"/><path class="cls-17" d="M219.4,38.17l-.65-1.43c-.25-.56-.44-1.01-.68-1.52h-.03c-.16,.51-.35,.96-.56,1.51l-.58,1.44h-2.67l2.46-4.43-2.38-4.33h2.7l.58,1.39c.23,.52,.4,.95,.58,1.44h.04c.19-.57,.33-.95,.51-1.43l.55-1.4h2.68l-2.39,4.28,2.55,4.49h-2.72Z"/><path class="cls-17" d="M227.92,31.78h-.03l-1.66,.74-.38-1.74,2.41-1.07h1.92v8.45h-2.26v-6.38Z"/></g><g><path class="cls-17" d="M350.97,29.4h5.63v1.91h-3.28v1.62h3.08v1.9h-3.08v3.33h-2.35v-8.76Z"/><path class="cls-17" d="M362.58,38.17l-.65-1.43c-.25-.56-.44-1.01-.68-1.52h-.03c-.16,.51-.35,.96-.56,1.51l-.58,1.44h-2.67l2.46-4.43-2.38-4.33h2.7l.58,1.39c.23,.52,.4,.95,.58,1.44h.04c.19-.57,.33-.95,.51-1.43l.55-1.4h2.68l-2.39,4.28,2.55,4.49h-2.72Z"/><path class="cls-17" d="M368.56,38.17v-1.42l1.17-1.03c1.72-1.49,2.59-2.37,2.6-3.24,0-.61-.4-1.04-1.26-1.04-.7,0-1.34,.35-1.81,.68l-.64-1.68c.65-.47,1.72-.87,2.92-.87,1.96,0,3.12,1.07,3.12,2.73,0,1.35-.96,2.44-1.96,3.25l-.83,.66v.03h2.95v1.92h-6.27Z"/></g><g><path class="cls-17" d="M493.48,29.4h5.63v1.91h-3.28v1.62h3.08v1.9h-3.08v3.33h-2.35v-8.76Z"/><path class="cls-17" d="M505.09,38.17l-.65-1.43c-.25-.56-.44-1.01-.68-1.52h-.03c-.16,.51-.35,.96-.56,1.51l-.59,1.44h-2.66l2.46-4.43-2.38-4.33h2.7l.59,1.39c.23,.52,.4,.95,.58,1.44h.04c.2-.57,.33-.95,.51-1.43l.55-1.4h2.68l-2.39,4.28,2.55,4.49h-2.72Z"/><path class="cls-17" d="M511.46,35.96c.35,.18,1.2,.51,2,.51s1.38-.3,1.38-.9c0-.69-.71-1.01-1.49-1.01h-.87v-1.66h.83c.58,0,1.33-.18,1.33-.77,0-.43-.4-.71-1.14-.71-.7,0-1.46,.3-1.79,.48l-.44-1.68c.53-.34,1.61-.64,2.78-.64,1.87,0,2.96,.94,2.96,2.15,0,.9-.49,1.59-1.53,1.95v.03c1,.17,1.81,.92,1.81,2.02,0,1.55-1.42,2.6-3.61,2.6-1.16,0-2.12-.27-2.64-.6l.44-1.75Z"/></g><g><path class="cls-17" d="M52.74,275.59l-.46,1.87h-2.24l2.35-8.08h2.88l2.41,8.08h-2.34l-.52-1.87h-2.09Zm1.79-1.61l-.37-1.45c-.12-.46-.28-1.12-.4-1.59h-.02c-.12,.48-.24,1.15-.36,1.61l-.35,1.44h1.5Z"/><path class="cls-17" d="M65.55,274.57c-.02-.92-.05-2-.04-3.26h-.04c-.25,1.07-.59,2.28-.85,3.17l-.8,2.82h-1.69l-.68-2.81c-.2-.88-.46-2.07-.64-3.18h-.02c-.05,1.14-.1,2.34-.13,3.26l-.12,2.89h-1.99l.49-8.08h2.91l.54,2.17c.22,.9,.46,1.98,.62,2.96h.05c.23-.98,.49-2.12,.73-2.97l.6-2.16h2.85l.41,8.08h-2.11l-.1-2.89Z"/><path class="cls-17" d="M69.09,269.49c.59-.1,1.44-.17,2.67-.17,1.16,0,1.99,.2,2.55,.64,.55,.41,.92,1.13,.92,1.96s-.28,1.54-.78,1.99c-.66,.59-1.61,.84-2.7,.84-.2,0-.4-.01-.53-.02v2.75h-2.15v-7.98Zm2.15,3.57c.12,.01,.26,.02,.49,.02,.85,0,1.38-.43,1.38-1.13,0-.6-.41-1.01-1.22-1.01-.32,0-.54,.02-.65,.05v2.06Z"/><path class="cls-17" d="M81.52,273.65v1.4h-3.21v-1.4h3.21Z"/><path class="cls-17" d="M85,269.49c.61-.1,1.54-.17,2.61-.17,1.24,0,2.12,.17,2.73,.62,.52,.4,.8,.97,.8,1.76,0,1.01-.76,1.73-1.39,1.96v.05c.54,.23,.83,.74,1.03,1.44,.25,.83,.52,2,.67,2.31h-2.22c-.12-.24-.32-.86-.56-1.86-.22-.97-.52-1.17-1.19-1.17h-.35v3.03h-2.15v-7.98Zm2.15,3.39h.56c.82,0,1.28-.41,1.28-1.01s-.4-.95-1.12-.96c-.41,0-.62,.02-.73,.05v1.92Z"/></g><g class="cls-18"><path class="cls-15" d="M169.22,49.89h1.38v4.92h2.41v1.15h-3.79v-6.07Z"/></g><g class="cls-18"><path class="cls-15" d="M168.35,75.88c.44-.07,1.1-.13,1.83-.13,.9,0,1.53,.14,1.96,.48,.36,.29,.56,.71,.56,1.27,0,.77-.55,1.31-1.07,1.49v.03c.42,.17,.66,.58,.81,1.13,.19,.68,.38,1.48,.5,1.71h-1.4c-.1-.17-.24-.67-.42-1.41-.16-.76-.42-.96-.98-.97h-.41v2.39h-1.36v-5.99Zm1.36,2.61h.54c.68,0,1.09-.34,1.09-.87,0-.56-.38-.84-1.01-.85-.33,0-.52,.03-.62,.05v1.67Z"/></g><g class="cls-18"><path class="cls-15" d="M311.56,49.89h1.38v4.92h2.41v1.15h-3.79v-6.07Z"/></g><g class="cls-18"><path class="cls-15" d="M310.69,75.88c.44-.07,1.1-.13,1.83-.13,.9,0,1.53,.14,1.96,.48,.36,.29,.56,.71,.56,1.27,0,.77-.55,1.31-1.07,1.49v.03c.42,.17,.66,.58,.81,1.13,.19,.68,.38,1.48,.5,1.71h-1.4c-.1-.17-.24-.67-.42-1.41-.16-.76-.42-.96-.98-.97h-.41v2.39h-1.36v-5.99Zm1.36,2.61h.54c.68,0,1.09-.34,1.09-.87,0-.56-.38-.84-1.01-.85-.33,0-.52,.03-.62,.05v1.67Z"/></g><g class="cls-18"><path class="cls-15" d="M454.03,49.89h1.38v4.92h2.41v1.15h-3.79v-6.07Z"/></g><g class="cls-18"><path class="cls-15" d="M453.16,75.88c.44-.07,1.1-.13,1.83-.13,.9,0,1.53,.14,1.96,.48,.36,.29,.56,.71,.56,1.27,0,.77-.55,1.31-1.07,1.49v.03c.42,.17,.66,.58,.81,1.13,.19,.68,.38,1.48,.5,1.71h-1.41c-.1-.17-.24-.67-.42-1.41-.16-.76-.42-.96-.98-.97h-.41v2.39h-1.36v-5.99Zm1.36,2.61h.54c.68,0,1.09-.34,1.09-.87,0-.56-.38-.84-1.01-.85-.33,0-.52,.03-.62,.05v1.67Z"/></g><g class="cls-18"><path class="cls-16" d="M265.05,49.89h1.38v4.92h2.41v1.15h-3.79v-6.07Z"/></g><g class="cls-18"><path class="cls-16" d="M264.18,75.88c.44-.07,1.1-.13,1.83-.13,.9,0,1.53,.14,1.96,.48,.36,.29,.56,.71,.56,1.27,0,.77-.55,1.31-1.07,1.49v.03c.42,.17,.66,.58,.81,1.13,.19,.68,.38,1.48,.5,1.71h-1.4c-.1-.17-.24-.67-.42-1.41-.16-.76-.42-.96-.98-.97h-.41v2.39h-1.36v-5.99Zm1.36,2.61h.54c.68,0,1.09-.34,1.09-.87,0-.56-.38-.84-1.01-.85-.33,0-.52,.03-.62,.05v1.67Z"/></g><g class="cls-18"><path class="cls-16" d="M407.4,49.89h1.38v4.92h2.41v1.15h-3.79v-6.07Z"/></g><g class="cls-18"><path class="cls-16" d="M406.52,75.88c.44-.07,1.1-.13,1.83-.13,.9,0,1.53,.14,1.96,.48,.36,.29,.56,.71,.56,1.27,0,.77-.55,1.31-1.07,1.49v.03c.42,.17,.66,.58,.81,1.13,.19,.68,.38,1.48,.5,1.71h-1.41c-.1-.17-.24-.67-.42-1.41-.16-.76-.42-.96-.98-.97h-.41v2.39h-1.36v-5.99Zm1.36,2.61h.54c.68,0,1.09-.34,1.09-.87,0-.56-.38-.84-1.01-.85-.33,0-.52,.03-.62,.05v1.67Z"/></g><g class="cls-18"><path class="cls-16" d="M549.86,49.89h1.38v4.92h2.41v1.15h-3.79v-6.07Z"/></g><g class="cls-18"><path class="cls-16" d="M548.99,75.88c.44-.07,1.1-.13,1.83-.13,.9,0,1.53,.14,1.96,.48,.36,.29,.56,.71,.56,1.27,0,.77-.55,1.31-1.07,1.49v.03c.42,.17,.66,.58,.81,1.13,.19,.68,.38,1.48,.5,1.71h-1.4c-.1-.17-.24-.67-.42-1.41-.16-.76-.42-.96-.98-.97h-.41v2.39h-1.36v-5.99Zm1.36,2.61h.54c.68,0,1.09-.34,1.09-.87,0-.56-.38-.84-1.01-.85-.33,0-.52,.03-.62,.05v1.67Z"/></g><path class="cls-9" d="M33.67,151.42H103.33c3.13,0,5.67,2.54,5.67,5.67v26.16c0,3.13-2.54,5.67-5.67,5.67H33.67c-3.13,0-5.67-2.54-5.67-5.67v-26.16c0-3.13,2.54-5.67,5.67-5.67Z"/><g><path class="cls-17" d="M43.24,167.59h5.19v1.76h-3.02v1.5h2.84v1.75h-2.84v3.07h-2.17v-8.08Z"/><path class="cls-17" d="M53.96,175.67l-.6-1.32c-.23-.52-.41-.94-.62-1.4h-.02c-.14,.47-.32,.89-.52,1.39l-.54,1.33h-2.46l2.27-4.09-2.19-3.99h2.49l.54,1.28c.22,.48,.37,.88,.54,1.33h.04c.18-.53,.3-.88,.47-1.32l.5-1.3h2.47l-2.21,3.95,2.35,4.14h-2.51Z"/><path class="cls-17" d="M67.33,171.54c0,2.6-1.56,4.26-4.05,4.26s-3.89-1.88-3.89-4.13,1.55-4.22,4.02-4.22c2.6,0,3.92,1.93,3.92,4.09Zm-5.65,.1c0,1.51,.66,2.45,1.7,2.45s1.66-1.02,1.66-2.47-.62-2.45-1.67-2.45-1.69,.98-1.69,2.47Z"/><path class="cls-17" d="M70.65,167.59v4.58c0,1.22,.42,1.92,1.27,1.92s1.28-.64,1.28-1.92v-4.58h2.17v4.46c0,2.49-1.25,3.75-3.51,3.75s-3.38-1.21-3.38-3.81v-4.4h2.17Z"/><path class="cls-17" d="M78.42,169.4h-2.06v-1.81h6.33v1.81h-2.1v6.27h-2.17v-6.27Z"/><path class="cls-17" d="M88.9,171.85v1.4h-3.21v-1.4h3.21Z"/><path class="cls-17" d="M92.38,167.69c.61-.1,1.54-.17,2.61-.17,1.24,0,2.12,.17,2.73,.62,.52,.4,.8,.97,.8,1.76,0,1.01-.75,1.73-1.39,1.96v.05c.54,.23,.83,.74,1.03,1.44,.25,.83,.52,2,.67,2.31h-2.22c-.12-.24-.32-.86-.56-1.86-.22-.97-.52-1.18-1.19-1.18h-.35v3.03h-2.15v-7.98Zm2.15,3.39h.56c.82,0,1.28-.41,1.28-1.01s-.4-.95-1.12-.96c-.41,0-.62,.02-.73,.05v1.92Z"/></g><polyline class="cls-6" points="262.48 59.55 282.5 59.55 282.5 197.17"/><polyline class="cls-6" points="262.48 71.34 272.66 71.34 272.28 216.5 332.5 216.5 332.5 197.17"/><polyline class="cls-4" points="174.63 71.34 165.64 71.34 165.64 125.16 258.72 125.16 258.72 223.17 332.5 223.17 332.5 249.89"/><polyline class="cls-4" points="174.63 60.17 155.75 60.17 155.75 134.17 249.07 134.17 249.07 230.33 282.25 230.33 282.25 249.89"/><polyline class="cls-4" points="316.63 71.34 306.75 71.34 306.75 126.17 364.15 126.17 364.15 223.17 432.19 223.17 432.19 249.89"/><polyline class="cls-4" points="316.97 60.17 297.01 60.17 297.01 134.26 354.39 134.26 354.39 230.33 382 230.33 382 249.89"/><polyline class="cls-6" points="404.99 71.34 416.7 71.34 416.87 143.49 432.05 143.49 432.05 197.17"/><polyline class="cls-6" points="404.99 60.17 425.94 60.17 425.94 134.26 440.46 134.26 440.46 216.5 381.75 216.5 381.75 197.17"/><polyline class="cls-4" points="459.41 59.55 440.28 59.55 440.28 119.17 453.74 119.17 453.74 230.33 481.34 230.33 481.34 249.89"/><polyline class="cls-4" points="459.64 71.34 449.87 71.34 450 110.67 463.28 110.67 463.28 223.17 530.99 223.17 530.99 249.89"/><polyline class="cls-6" points="547.5 71.34 558.25 71.34 558.25 110.79 530.99 110.67 530.99 197.17"/><polyline class="cls-6" points="547.5 60.17 567.33 60.17 567.33 119.17 553.5 119.17 553.5 216.5 481.34 216.5 481.34 197.17"/><polyline class="cls-3" points="109 273.67 233.5 273.67 233.5 249.89"/><polyline class="cls-5" points="109 126.06 135.5 126.06 135.5 197.17 183.74 197.17"/><polyline class="cls-5" points="109 170.17 121.5 170.17 121.5 216.5 233.35 216.5 233.35 197.17"/><polyline class="cls-3" points="109.37 230.33 135.5 230.33 135.5 249.89 183.74 249.89"/><g><path class="cls-17" d="M183.05,79.12c0,1.77-1.07,2.84-2.65,2.84s-2.53-1.21-2.53-2.74c0-1.62,1.03-2.82,2.62-2.82s2.56,1.24,2.56,2.73Zm-3.89,.07c0,1.06,.5,1.8,1.31,1.8s1.3-.78,1.3-1.83c0-.97-.46-1.8-1.3-1.8s-1.3,.78-1.3,1.83Z"/><path class="cls-17" d="M185.07,76.48v3.1c0,.93,.35,1.4,.98,1.4s.99-.45,.99-1.4v-3.1h1.22v3.02c0,1.66-.84,2.45-2.25,2.45s-2.16-.75-2.16-2.47v-3.01h1.22Z"/><path class="cls-17" d="M190.35,77.51h-1.45v-1.02h4.14v1.02h-1.47v4.37h-1.22v-4.37Z"/></g><g><path class="cls-17" d="M326.22,79.12c0,1.77-1.07,2.84-2.65,2.84s-2.53-1.21-2.53-2.74c0-1.62,1.03-2.82,2.62-2.82s2.56,1.24,2.56,2.73Zm-3.89,.07c0,1.06,.5,1.8,1.31,1.8s1.3-.78,1.3-1.83c0-.97-.46-1.8-1.3-1.8s-1.3,.78-1.3,1.83Z"/><path class="cls-17" d="M328.24,76.48v3.1c0,.93,.35,1.4,.98,1.4s.99-.45,.99-1.4v-3.1h1.22v3.02c0,1.66-.84,2.45-2.25,2.45s-2.16-.75-2.16-2.47v-3.01h1.22Z"/><path class="cls-17" d="M333.52,77.51h-1.45v-1.02h4.14v1.02h-1.47v4.37h-1.22v-4.37Z"/></g><g><path class="cls-17" d="M468.73,79.12c0,1.77-1.07,2.84-2.65,2.84s-2.53-1.21-2.53-2.74c0-1.62,1.03-2.82,2.62-2.82s2.56,1.24,2.56,2.73Zm-3.89,.07c0,1.06,.5,1.8,1.31,1.8s1.29-.78,1.29-1.83c0-.97-.46-1.8-1.3-1.8s-1.3,.78-1.3,1.83Z"/><path class="cls-17" d="M470.75,76.48v3.1c0,.93,.35,1.4,.98,1.4s.99-.45,.99-1.4v-3.1h1.22v3.02c0,1.66-.84,2.45-2.25,2.45s-2.16-.75-2.16-2.47v-3.01h1.22Z"/><path class="cls-17" d="M476.03,77.51h-1.45v-1.02h4.14v1.02h-1.47v4.37h-1.22v-4.37Z"/></g><g><path class="cls-17" d="M253.04,76.48v5.39h-1.22v-5.39h1.22Z"/><path class="cls-17" d="M254.09,81.87v-5.39h1.42l1.12,1.98c.32,.57,.64,1.24,.88,1.85h.02c-.08-.71-.1-1.44-.1-2.25v-1.58h1.12v5.39h-1.28l-1.15-2.08c-.32-.58-.67-1.27-.94-1.9h-.02c.03,.72,.05,1.48,.05,2.36v1.62h-1.12Z"/></g><g><path class="cls-17" d="M538.72,76.48v5.39h-1.22v-5.39h1.22Z"/><path class="cls-17" d="M539.78,81.87v-5.39h1.42l1.12,1.98c.32,.57,.64,1.24,.88,1.85h.02c-.08-.71-.1-1.44-.1-2.25v-1.58h1.12v5.39h-1.28l-1.15-2.08c-.32-.58-.67-1.27-.94-1.9h-.02c.03,.72,.05,1.48,.05,2.36v1.62h-1.12Z"/></g><g><path class="cls-17" d="M396.33,76.48v5.39h-1.22v-5.39h1.22Z"/><path class="cls-17" d="M397.38,81.87v-5.39h1.42l1.12,1.98c.32,.57,.64,1.24,.88,1.85h.02c-.08-.71-.1-1.44-.1-2.25v-1.58h1.12v5.39h-1.28l-1.15-2.08c-.32-.58-.67-1.27-.94-1.9h-.02c.03,.72,.05,1.48,.05,2.36v1.62h-1.12Z"/></g></svg>