<svg id="レイヤー_1" data-name="レイヤー 1" xmlns="http://www.w3.org/2000/svg" viewBox="0 0 500 100"><defs><style>.cls-1{fill:#585858;}.cls-2,.cls-3,.cls-4,.cls-5,.cls-6,.cls-7,.cls-8{fill:none;}.cls-2,.cls-4,.cls-5,.cls-6,.cls-7,.cls-8{stroke:#cecece;}.cls-2,.cls-5,.cls-6,.cls-7,.cls-8{stroke-linecap:round;}.cls-2,.cls-4,.cls-5{stroke-width:1.5px;}.cls-5,.cls-6,.cls-7{stroke-linejoin:round;}.cls-6{stroke-width:1.43px;}.cls-7,.cls-8{stroke-width:1.4px;}</style></defs><path class="cls-1" d="M65.58,67.79v3h-1.1V63.54a12.79,12.79,0,0,1,2-.15,3.75,3.75,0,0,1,2.18.53,1.75,1.75,0,0,1,.73,1.47,2.22,2.22,0,0,1-.39,1.3,2,2,0,0,1-1.06.74v0a2.43,2.43,0,0,1,.79,1.19l.85,2.15H68.44l-.82-2.15a1.35,1.35,0,0,0-.47-.69,2.07,2.07,0,0,0-1-.16Zm0-.86h.61c1.41,0,2.12-.48,2.12-1.44a1,1,0,0,0-.46-.91,2.71,2.71,0,0,0-1.46-.31,4.79,4.79,0,0,0-.81.07Z"/><path class="cls-1" d="M71.4,68.59a1.51,1.51,0,0,0,.48,1.11,1.6,1.6,0,0,0,1.14.41,3.21,3.21,0,0,0,1.5-.38l.25.76a4.3,4.3,0,0,1-1.85.4,2.45,2.45,0,0,1-1.83-.73,2.69,2.69,0,0,1-.71-2,2.82,2.82,0,0,1,.66-2,2.31,2.31,0,0,1,1.78-.72,2.23,2.23,0,0,1,1.73.68,2.81,2.81,0,0,1,.62,2,4.23,4.23,0,0,1,0,.45Zm0-.78h2.81a1.72,1.72,0,0,0-.38-1.14,1.32,1.32,0,0,0-1-.4,1.36,1.36,0,0,0-1,.41A1.62,1.62,0,0,0,71.4,67.81Z"/><path class="cls-1" d="M80,66.66a2.83,2.83,0,0,0-1.35-.35,1.58,1.58,0,0,0-1.21.49A2,2,0,0,0,77,68.19a2,2,0,0,0,.47,1.39,1.52,1.52,0,0,0,1.18.51A2.72,2.72,0,0,0,80,69.74l.25.8a4,4,0,0,1-1.65.35,2.59,2.59,0,0,1-1.91-.73,2.64,2.64,0,0,1-.74-2,2.75,2.75,0,0,1,.7-2,2.6,2.6,0,0,1,2-.72,4.11,4.11,0,0,1,1.65.35Z"/><path class="cls-1" d="M81.94,66.22a2.62,2.62,0,0,1,3.63,0,2.76,2.76,0,0,1,.68,2,2.73,2.73,0,0,1-.68,2,2.62,2.62,0,0,1-3.63,0,2.73,2.73,0,0,1-.69-2A2.77,2.77,0,0,1,81.94,66.22Zm.73,3.37a1.3,1.3,0,0,0,1.08.5,1.28,1.28,0,0,0,1.08-.5,2.65,2.65,0,0,0,0-2.8,1.3,1.3,0,0,0-1.08-.5,1.33,1.33,0,0,0-1.08.5,2.65,2.65,0,0,0,0,2.8Z"/><path class="cls-1" d="M90.74,65.49v.84a2.45,2.45,0,0,0-1.74.6,2.06,2.06,0,0,0-.64,1.56v2.3h-1v-5.2h1l0,1h0A3,3,0,0,1,90.74,65.49Z"/><path class="cls-1" d="M96.38,63.29v7.5h-.95l0-.75h0a1.81,1.81,0,0,1-1.61.85,1.88,1.88,0,0,1-1.52-.69,3.09,3.09,0,0,1-.58-2,3.15,3.15,0,0,1,.56-2,2,2,0,0,1,3.12.11h0v-3Zm-3.72,4.9A2.26,2.26,0,0,0,93,69.6a1.18,1.18,0,0,0,1,.49,1.15,1.15,0,0,0,1-.49,2.12,2.12,0,0,0,.38-1.36v-.1A2.12,2.12,0,0,0,95,66.79a1.16,1.16,0,0,0-1-.5,1.19,1.19,0,0,0-1,.48A2.34,2.34,0,0,0,92.66,68.19Z"/><path class="cls-1" d="M101.18,66.22a2.62,2.62,0,0,1,3.63,0,2.76,2.76,0,0,1,.68,2,2.73,2.73,0,0,1-.68,2,2.62,2.62,0,0,1-3.63,0,2.73,2.73,0,0,1-.69-2A2.77,2.77,0,0,1,101.18,66.22Zm.73,3.37a1.3,1.3,0,0,0,1.08.5,1.28,1.28,0,0,0,1.08-.5,2.65,2.65,0,0,0,0-2.8,1.3,1.3,0,0,0-1.08-.5,1.33,1.33,0,0,0-1.08.5,2.65,2.65,0,0,0,0,2.8Z"/><path class="cls-1" d="M107.53,65.59l0,.75h0a2.42,2.42,0,0,1,.77-.62,2.1,2.1,0,0,1,.94-.23c1.14,0,1.7.77,1.7,2.3v3h-1v-2.9a2.29,2.29,0,0,0-.23-1.24,1,1,0,0,0-.84-.34,1.2,1.2,0,0,0-.93.51,1.79,1.79,0,0,0-.42,1.17v2.8h-1v-5.2Z"/><path class="cls-1" d="M117.38,69.59h0l1.48-4h1.06l-3,7.4h-1.06l1-2.2-1.9-5.2H116Z"/><path class="cls-1" d="M121.32,66.22a2.62,2.62,0,0,1,3.63,0,2.76,2.76,0,0,1,.68,2,2.73,2.73,0,0,1-.68,2,2.62,2.62,0,0,1-3.63,0,2.73,2.73,0,0,1-.69-2A2.77,2.77,0,0,1,121.32,66.22Zm.73,3.37a1.3,1.3,0,0,0,1.08.5,1.28,1.28,0,0,0,1.08-.5,2.65,2.65,0,0,0,0-2.8,1.3,1.3,0,0,0-1.08-.5,1.33,1.33,0,0,0-1.08.5,2.65,2.65,0,0,0,0,2.8Z"/><path class="cls-1" d="M130,70.79l0-.75h0a2.06,2.06,0,0,1-1.71.85,1.48,1.48,0,0,1-1.2-.48,2.38,2.38,0,0,1-.4-1.52v-3.3h1v3.2a1.59,1.59,0,0,0,.23,1,.92.92,0,0,0,.74.27,1.21,1.21,0,0,0,.93-.49,1.75,1.75,0,0,0,.42-1.17v-2.8h1v5.2Z"/><path class="cls-1" d="M135.81,65.49v.84a2.45,2.45,0,0,0-1.74.6,2.06,2.06,0,0,0-.64,1.56v2.3h-1v-5.2h1l0,1h0A3,3,0,0,1,135.81,65.49Z"/><path class="cls-1" d="M75.5,78.57v-1.1h1.06v1.1Zm0,6.4v-5.2h1.06V85Z"/><path class="cls-1" d="M79,78.59a3.86,3.86,0,0,1,5.23,0,4.29,4.29,0,0,1,0,5.46,3.86,3.86,0,0,1-5.23,0,4.29,4.29,0,0,1,0-5.46Zm.81,4.81a2.5,2.5,0,0,0,3.61,0,3.54,3.54,0,0,0,0-4.17,2.52,2.52,0,0,0-3.61,0,3.58,3.58,0,0,0,0,4.17Z"/><path class="cls-1" d="M88.48,78.45a1.48,1.48,0,0,0-.94.27.93.93,0,0,0-.33.75q0,.82,1.23,1.2a4.12,4.12,0,0,1,1.85.92A1.94,1.94,0,0,1,90.83,83a1.88,1.88,0,0,1-.63,1.52,2.78,2.78,0,0,1-1.82.53,4.36,4.36,0,0,1-2.25-.6l.31-.9a3.44,3.44,0,0,0,1.94.6,1.48,1.48,0,0,0,1-.3,1,1,0,0,0,.35-.85,1.18,1.18,0,0,0-.27-.82,2.39,2.39,0,0,0-1-.53,4.25,4.25,0,0,1-1.75-.89,1.77,1.77,0,0,1-.56-1.31,1.68,1.68,0,0,1,.63-1.38,2.6,2.6,0,0,1,1.72-.52,5.14,5.14,0,0,1,2.15.45l-.25.85A4.27,4.27,0,0,0,88.48,78.45Z"/><path class="cls-1" d="M99.5,77.47V85h-1l0-.75h0a1.83,1.83,0,0,1-1.6.85,1.86,1.86,0,0,1-1.53-.7,3.08,3.08,0,0,1-.58-2,3.16,3.16,0,0,1,.56-2,1.89,1.89,0,0,1,1.55-.68,1.84,1.84,0,0,1,1.58.8h0v-3Zm-3.73,4.9a2.3,2.3,0,0,0,.38,1.41,1.23,1.23,0,0,0,2,0,2.2,2.2,0,0,0,.38-1.36v-.1A2.2,2.2,0,0,0,98.12,81a1.18,1.18,0,0,0-1-.49,1.23,1.23,0,0,0-1,.47A2.42,2.42,0,0,0,95.77,82.37Z"/><path class="cls-1" d="M101.65,82.77a1.55,1.55,0,0,0,.49,1.11,1.64,1.64,0,0,0,1.14.41,3.34,3.34,0,0,0,1.5-.38l.25.76a4.46,4.46,0,0,1-1.85.4,2.46,2.46,0,0,1-1.83-.74,2.67,2.67,0,0,1-.72-2,2.82,2.82,0,0,1,.67-2,2.31,2.31,0,0,1,1.78-.72,2.2,2.2,0,0,1,1.73.68,2.79,2.79,0,0,1,.62,2,4.23,4.23,0,0,1,0,.45Zm0-.78h2.81a1.63,1.63,0,0,0-.37-1.14,1.28,1.28,0,0,0-1-.4,1.35,1.35,0,0,0-1,.4A1.68,1.68,0,0,0,101.65,82Z"/><path class="cls-1" d="M107.29,79.77l1.39,4.6h0l1.39-4.6h1.08l-1.8,5.2H108l-1.8-5.2Z"/><path class="cls-1" d="M112.56,78.57v-1.1h1.06v1.1Zm0,6.4v-5.2h1.06V85Z"/><path class="cls-1" d="M119.1,80.84a2.72,2.72,0,0,0-1.35-.35,1.55,1.55,0,0,0-1.21.49,2.35,2.35,0,0,0,0,2.78,1.52,1.52,0,0,0,1.18.51,2.83,2.83,0,0,0,1.35-.35l.25.8a4.11,4.11,0,0,1-1.65.35,2.63,2.63,0,0,1-1.91-.73,2.67,2.67,0,0,1-.74-2,2.76,2.76,0,0,1,.7-2,2.64,2.64,0,0,1,2-.71,4,4,0,0,1,1.65.35Z"/><path class="cls-1" d="M121.36,82.77a1.55,1.55,0,0,0,.49,1.11,1.64,1.64,0,0,0,1.14.41,3.34,3.34,0,0,0,1.5-.38l.25.76a4.46,4.46,0,0,1-1.85.4,2.46,2.46,0,0,1-1.83-.74,2.67,2.67,0,0,1-.72-2,2.82,2.82,0,0,1,.67-2,2.31,2.31,0,0,1,1.78-.72,2.2,2.2,0,0,1,1.73.68,2.79,2.79,0,0,1,.62,2,4.23,4.23,0,0,1,0,.45Zm0-.78h2.81a1.63,1.63,0,0,0-.37-1.14,1.28,1.28,0,0,0-1-.4,1.35,1.35,0,0,0-1,.4A1.68,1.68,0,0,0,121.36,82Z"/><path class="cls-1" d="M220.27,64.29a2.53,2.53,0,0,0-1.94.78,3.26,3.26,0,0,0,0,4.15,2.55,2.55,0,0,0,1.93.77,3.41,3.41,0,0,0,1.85-.55l.35.82a4.22,4.22,0,0,1-2.3.63,3.6,3.6,0,0,1-2.68-1,4.21,4.21,0,0,1,0-5.47,3.62,3.62,0,0,1,2.7-1,4.22,4.22,0,0,1,2.3.63l-.35.82A3.5,3.5,0,0,0,220.27,64.29Z"/><path class="cls-1" d="M223.56,69.39A1.63,1.63,0,0,1,224.3,68a3.59,3.59,0,0,1,2.11-.53h.5v0a1.22,1.22,0,0,0-.25-.88,1.31,1.31,0,0,0-.9-.25,3.51,3.51,0,0,0-1.75.45l-.15-.8a4,4,0,0,1,1.9-.45,2.45,2.45,0,0,1,1.64.46,1.83,1.83,0,0,1,.51,1.44v2a6.53,6.53,0,0,0,.15,1.4h-.95A6.31,6.31,0,0,1,227,70h0a1.91,1.91,0,0,1-.77.66,2.56,2.56,0,0,1-1.12.24,1.56,1.56,0,0,1-1.13-.4A1.43,1.43,0,0,1,223.56,69.39Zm3.35-1.18h-.5a2.61,2.61,0,0,0-1.38.31.93.93,0,0,0-.49.82.78.78,0,0,0,.23.59.82.82,0,0,0,.59.21,1.53,1.53,0,0,0,1.09-.43,1.41,1.41,0,0,0,.46-1.07Z"/><path class="cls-1" d="M230.39,66.34a1.86,1.86,0,0,1,1.61-.85,1.88,1.88,0,0,1,1.55.69,3.15,3.15,0,0,1,.55,2,3.09,3.09,0,0,1-.57,2,1.91,1.91,0,0,1-1.53.69,1.89,1.89,0,0,1-1.58-.75h0V73h-1v-7.4h.95l0,.75Zm2.73,1.85a2.34,2.34,0,0,0-.36-1.42,1.19,1.19,0,0,0-1-.48,1.18,1.18,0,0,0-1,.5,2.19,2.19,0,0,0-.38,1.35v.1a2.18,2.18,0,0,0,.38,1.36,1.17,1.17,0,0,0,1,.49,1.2,1.2,0,0,0,1-.49A2.26,2.26,0,0,0,233.12,68.19Z"/><path class="cls-1" d="M237.11,65.79H239v.8h-1.88V69a1.6,1.6,0,0,0,.17.88.72.72,0,0,0,.61.22,2.19,2.19,0,0,0,.9-.18l.15.78a3.44,3.44,0,0,1-1.2.2,1.7,1.7,0,0,1-1.26-.39,1.8,1.8,0,0,1-.39-1.31v-2.6H235v-.8h1.1v-1.9h1Z"/><path class="cls-1" d="M243.73,70.79l0-.75h0a2.06,2.06,0,0,1-1.71.85,1.48,1.48,0,0,1-1.2-.48,2.32,2.32,0,0,1-.4-1.52v-3.3h1v3.2a1.68,1.68,0,0,0,.22,1,.93.93,0,0,0,.75.27,1.21,1.21,0,0,0,.93-.49,1.75,1.75,0,0,0,.42-1.17v-2.8h1v5.2Z"/><path class="cls-1" d="M249.52,65.49v.84a2.45,2.45,0,0,0-1.74.6,2,2,0,0,0-.64,1.56v2.3h-1v-5.2h1l0,1h0A3,3,0,0,1,249.52,65.49Z"/><path class="cls-1" d="M251.43,68.59a1.51,1.51,0,0,0,.48,1.11,1.64,1.64,0,0,0,1.15.41,3.21,3.21,0,0,0,1.5-.38l.25.76a4.34,4.34,0,0,1-1.85.4,2.46,2.46,0,0,1-1.84-.73,2.73,2.73,0,0,1-.71-2,2.82,2.82,0,0,1,.66-2,2.33,2.33,0,0,1,1.79-.72,2.23,2.23,0,0,1,1.73.68,2.85,2.85,0,0,1,.62,2c0,.1,0,.25,0,.45Zm0-.78h2.81a1.66,1.66,0,0,0-.38-1.14,1.29,1.29,0,0,0-1-.4,1.36,1.36,0,0,0-1,.41A1.66,1.66,0,0,0,251.43,67.81Z"/><path class="cls-1" d="M259.67,64.39v-1.1h1.06v1.1Zm0,6.4v-5.2h1.06v5.2Z"/><path class="cls-1" d="M266.91,63.29v7.5h-1l0-.75h0a1.82,1.82,0,0,1-1.61.85,1.91,1.91,0,0,1-1.53-.69,3.09,3.09,0,0,1-.57-2,3.15,3.15,0,0,1,.55-2,1.88,1.88,0,0,1,1.55-.69,1.86,1.86,0,0,1,1.58.8h0v-3Zm-3.72,4.9a2.26,2.26,0,0,0,.37,1.41,1.2,1.2,0,0,0,1,.49,1.17,1.17,0,0,0,1-.49,2.18,2.18,0,0,0,.38-1.36v-.1a2.19,2.19,0,0,0-.38-1.35,1.24,1.24,0,0,0-2,0A2.34,2.34,0,0,0,263.19,68.19Z"/><path class="cls-1" d="M269.07,68.59a1.51,1.51,0,0,0,.48,1.11,1.64,1.64,0,0,0,1.15.41,3.21,3.21,0,0,0,1.5-.38l.25.76a4.34,4.34,0,0,1-1.85.4,2.46,2.46,0,0,1-1.84-.73,2.73,2.73,0,0,1-.71-2,2.82,2.82,0,0,1,.66-2,2.33,2.33,0,0,1,1.79-.72,2.23,2.23,0,0,1,1.73.68,2.85,2.85,0,0,1,.62,2c0,.1,0,.25,0,.45Zm0-.78h2.81a1.66,1.66,0,0,0-.38-1.14,1.29,1.29,0,0,0-1-.4,1.36,1.36,0,0,0-1,.41A1.66,1.66,0,0,0,269.07,67.81Z"/><path class="cls-1" d="M273.74,69.39a1.62,1.62,0,0,1,.73-1.39,3.63,3.63,0,0,1,2.12-.53h.5v0a1.22,1.22,0,0,0-.26-.88,1.28,1.28,0,0,0-.89-.25,3.51,3.51,0,0,0-1.75.45l-.15-.8a4,4,0,0,1,1.9-.45,2.45,2.45,0,0,1,1.64.46,1.83,1.83,0,0,1,.51,1.44v2a6.53,6.53,0,0,0,.15,1.4h-.95a6.31,6.31,0,0,1-.09-.8h0a1.94,1.94,0,0,1-.78.66,2.51,2.51,0,0,1-1.11.24,1.56,1.56,0,0,1-1.13-.4A1.43,1.43,0,0,1,273.74,69.39Zm3.35-1.18h-.5a2.68,2.68,0,0,0-1.39.31.94.94,0,0,0-.48.82.77.77,0,0,0,.22.59.84.84,0,0,0,.6.21,1.53,1.53,0,0,0,1.09-.43,1.41,1.41,0,0,0,.46-1.07Z"/><path class="cls-1" d="M281.38,66.29c-.67,0-1,.22-1,.65a.59.59,0,0,0,.23.49,1.91,1.91,0,0,0,.82.26,2.94,2.94,0,0,1,1.5.57,1.45,1.45,0,0,1,.45,1.13,1.3,1.3,0,0,1-.53,1.1,2.36,2.36,0,0,1-1.47.4,3.93,3.93,0,0,1-2-.5l.2-.8a3.33,3.33,0,0,0,1.8.5c.65,0,1-.23,1-.7a.64.64,0,0,0-.23-.52,1.78,1.78,0,0,0-.8-.28,3.07,3.07,0,0,1-1.49-.56,1.35,1.35,0,0,1-.46-1.09,1.24,1.24,0,0,1,.52-1,2.44,2.44,0,0,1,1.48-.4,4.1,4.1,0,0,1,1.8.4l-.2.8A3.39,3.39,0,0,0,281.38,66.29Z"/><path class="cls-1" d="M228.22,80.4a2.62,2.62,0,0,1,3.63,0,2.73,2.73,0,0,1,.69,2,2.77,2.77,0,0,1-.69,2,2.62,2.62,0,0,1-3.63,0,2.76,2.76,0,0,1-.68-2A2.73,2.73,0,0,1,228.22,80.4Zm.74,3.37a1.3,1.3,0,0,0,1.08.5,1.33,1.33,0,0,0,1.08-.5,2.65,2.65,0,0,0,0-2.8,1.3,1.3,0,0,0-1.08-.5A1.28,1.28,0,0,0,229,81a2.65,2.65,0,0,0,0,2.8Z"/><path class="cls-1" d="M234.57,79.77l0,.75h0a2.33,2.33,0,0,1,.77-.63,2.09,2.09,0,0,1,.94-.22c1.14,0,1.7.76,1.7,2.3v3h-1v-2.9a2.33,2.33,0,0,0-.23-1.25,1,1,0,0,0-.84-.33,1.22,1.22,0,0,0-.93.5,1.8,1.8,0,0,0-.42,1.18V85h-1v-5.2Z"/><path class="cls-1" d="M244.25,80h1.88v.8h-1.88v2.4a1.58,1.58,0,0,0,.17.87.74.74,0,0,0,.61.23,2.13,2.13,0,0,0,.9-.18l.15.78a3.68,3.68,0,0,1-1.2.2,1.73,1.73,0,0,1-1.26-.39,1.82,1.82,0,0,1-.39-1.31v-2.6h-1.1V80h1.1v-1.9h1Z"/><path class="cls-1" d="M248.62,80.47h0a2.12,2.12,0,0,1,1.68-.8c1.14,0,1.7.76,1.7,2.3v3h-1v-2.9a2.33,2.33,0,0,0-.23-1.25,1,1,0,0,0-.84-.33A1.16,1.16,0,0,0,249,81a1.87,1.87,0,0,0-.41,1.16V85h-1v-7.5h1Z"/><path class="cls-1" d="M254.08,82.77a1.55,1.55,0,0,0,.49,1.11,1.64,1.64,0,0,0,1.14.41,3.34,3.34,0,0,0,1.5-.38l.25.76a4.46,4.46,0,0,1-1.85.4,2.46,2.46,0,0,1-1.83-.74,2.67,2.67,0,0,1-.72-2,2.82,2.82,0,0,1,.67-2,2.31,2.31,0,0,1,1.78-.72,2.2,2.2,0,0,1,1.73.68,2.79,2.79,0,0,1,.62,2,4.23,4.23,0,0,1,0,.45Zm0-.78h2.81a1.63,1.63,0,0,0-.37-1.14,1.28,1.28,0,0,0-1-.4,1.35,1.35,0,0,0-1,.4A1.68,1.68,0,0,0,254.08,82Z"/><path class="cls-1" d="M261.67,82.27a3,3,0,0,1,.54-1.94,1.85,1.85,0,0,1,1.51-.66,1.89,1.89,0,0,1,1.66.85h0l0-.75h.95v4.7c0,1.86-.85,2.8-2.55,2.8a4.56,4.56,0,0,1-1.65-.3l.2-.8a4,4,0,0,0,1.45.3A1.43,1.43,0,0,0,265,86a2.34,2.34,0,0,0,.37-1.5v-.45h0a1.86,1.86,0,0,1-1.63.8,1.83,1.83,0,0,1-1.46-.71A2.91,2.91,0,0,1,261.67,82.27Zm1,0a2.16,2.16,0,0,0,.37,1.32,1.16,1.16,0,0,0,1,.48,1.27,1.27,0,0,0,1-.47,1.94,1.94,0,0,0,.38-1.28v-.1a1.91,1.91,0,0,0-.39-1.29,1.24,1.24,0,0,0-1-.46,1.17,1.17,0,0,0-1,.45A2.22,2.22,0,0,0,262.65,82.27Z"/><path class="cls-1" d="M268.15,80.4a2.62,2.62,0,0,1,3.63,0,2.73,2.73,0,0,1,.68,2,2.76,2.76,0,0,1-.68,2,2.62,2.62,0,0,1-3.63,0,2.77,2.77,0,0,1-.69-2A2.73,2.73,0,0,1,268.15,80.4Zm.73,3.37a1.33,1.33,0,0,0,1.08.5,1.3,1.3,0,0,0,1.08-.5,2.65,2.65,0,0,0,0-2.8,1.28,1.28,0,0,0-1.08-.5,1.3,1.3,0,0,0-1.08.5,2.65,2.65,0,0,0,0,2.8Z"/><path class="cls-1" d="M380,70.79v-7.3h1.2v7.3Z"/><path class="cls-1" d="M387.34,63.29v7.5h-.95l0-.75h0a1.82,1.82,0,0,1-1.61.85,1.91,1.91,0,0,1-1.53-.69,3.09,3.09,0,0,1-.57-2,3.15,3.15,0,0,1,.56-2,2,2,0,0,1,3.12.11h0v-3Zm-3.72,4.9A2.26,2.26,0,0,0,384,69.6a1.22,1.22,0,0,0,2,0,2.18,2.18,0,0,0,.38-1.36v-.1a2.19,2.19,0,0,0-.38-1.35,1.18,1.18,0,0,0-1-.5,1.19,1.19,0,0,0-1,.48A2.34,2.34,0,0,0,383.62,68.19Z"/><path class="cls-1" d="M389.5,68.59A1.51,1.51,0,0,0,390,69.7a1.64,1.64,0,0,0,1.15.41,3.21,3.21,0,0,0,1.5-.38l.25.76a4.34,4.34,0,0,1-1.85.4,2.46,2.46,0,0,1-1.84-.73,2.73,2.73,0,0,1-.71-2,2.82,2.82,0,0,1,.66-2,2.33,2.33,0,0,1,1.79-.72,2.23,2.23,0,0,1,1.73.68,2.85,2.85,0,0,1,.62,2c0,.1,0,.25,0,.45Zm0-.78h2.81a1.66,1.66,0,0,0-.38-1.14,1.29,1.29,0,0,0-1-.4,1.36,1.36,0,0,0-1,.41A1.66,1.66,0,0,0,389.5,67.81Z"/><path class="cls-1" d="M394.17,69.39A1.62,1.62,0,0,1,394.9,68a3.63,3.63,0,0,1,2.12-.53h.5v0a1.22,1.22,0,0,0-.26-.88,1.28,1.28,0,0,0-.89-.25,3.51,3.51,0,0,0-1.75.45l-.15-.8a4,4,0,0,1,1.9-.45A2.45,2.45,0,0,1,398,66a1.83,1.83,0,0,1,.51,1.44v2a6.53,6.53,0,0,0,.15,1.4h-.95a6.31,6.31,0,0,1-.09-.8h0a1.94,1.94,0,0,1-.78.66,2.51,2.51,0,0,1-1.11.24,1.56,1.56,0,0,1-1.13-.4A1.43,1.43,0,0,1,394.17,69.39Zm3.35-1.18H397a2.68,2.68,0,0,0-1.39.31.94.94,0,0,0-.48.82.77.77,0,0,0,.22.59.84.84,0,0,0,.6.21,1.53,1.53,0,0,0,1.09-.43,1.41,1.41,0,0,0,.46-1.07Z"/><path class="cls-1" d="M400.36,70.79v-7.5h1.06v7.5Z"/><path class="cls-1" d="M406,66.59v-.8h1.3v-.55a1.61,1.61,0,0,1,1.8-1.85,3.32,3.32,0,0,1,1,.15l-.2.8a1.76,1.76,0,0,0-.7-.15.85.85,0,0,0-.69.24,1.3,1.3,0,0,0-.19.81v.55H410v.8h-1.68v4.2h-1v-4.2Z"/><path class="cls-1" d="M411.79,66.22a2.42,2.42,0,0,1,1.82-.73,2.38,2.38,0,0,1,1.81.73,2.77,2.77,0,0,1,.69,2,2.73,2.73,0,0,1-.69,2,2.34,2.34,0,0,1-1.81.73,2.38,2.38,0,0,1-1.82-.73,2.77,2.77,0,0,1-.68-2A2.81,2.81,0,0,1,411.79,66.22Zm.74,3.37a1.42,1.42,0,0,0,2.16,0,2.65,2.65,0,0,0,0-2.8,1.42,1.42,0,0,0-2.16,0,2.65,2.65,0,0,0,0,2.8Z"/><path class="cls-1" d="M420.6,65.49v.84a2.45,2.45,0,0,0-1.74.6,2,2,0,0,0-.64,1.56v2.3h-1v-5.2h1l0,1h0A3,3,0,0,1,420.6,65.49Z"/><path class="cls-1" d="M387.67,80h1.88v.8h-1.88v2.4a1.58,1.58,0,0,0,.17.87.72.72,0,0,0,.61.23,2.19,2.19,0,0,0,.9-.18l.15.78a3.68,3.68,0,0,1-1.2.2,1.7,1.7,0,0,1-1.26-.39,1.82,1.82,0,0,1-.39-1.31v-2.6h-1.1V80h1.1v-1.9h1Z"/><path class="cls-1" d="M394.39,79.67v.84a2.49,2.49,0,0,0-1.74.59,2,2,0,0,0-.64,1.57V85h-1v-5.2h1l0,1h0A3,3,0,0,1,394.39,79.67Z"/><path class="cls-1" d="M395.38,83.57a1.64,1.64,0,0,1,.73-1.4,3.63,3.63,0,0,1,2.12-.52h.5V81.6a1.2,1.2,0,0,0-.26-.88,1.23,1.23,0,0,0-.89-.25,3.51,3.51,0,0,0-1.75.45l-.15-.8a4,4,0,0,1,1.9-.45,2.45,2.45,0,0,1,1.64.45,1.87,1.87,0,0,1,.51,1.45v2a6.59,6.59,0,0,0,.15,1.4h-.95a6.52,6.52,0,0,1-.09-.8h0a1.94,1.94,0,0,1-.78.66,2.51,2.51,0,0,1-1.11.24,1.61,1.61,0,0,1-1.13-.4A1.46,1.46,0,0,1,395.38,83.57Zm3.35-1.18h-.5a2.58,2.58,0,0,0-1.39.31.93.93,0,0,0-.48.82.76.76,0,0,0,.22.58.81.81,0,0,0,.6.22,1.54,1.54,0,0,0,1.09-.44,1.39,1.39,0,0,0,.46-1.06Z"/><path class="cls-1" d="M401.94,79.77l1.39,4.6h0l1.39-4.6h1.08L404,85h-1.4l-1.8-5.2Z"/><path class="cls-1" d="M407.53,82.77a1.54,1.54,0,0,0,.48,1.11,1.69,1.69,0,0,0,1.15.41,3.34,3.34,0,0,0,1.5-.38l.25.76a4.49,4.49,0,0,1-1.85.4,2.46,2.46,0,0,1-1.84-.74,2.71,2.71,0,0,1-.71-2,2.82,2.82,0,0,1,.66-2,2.33,2.33,0,0,1,1.79-.72,2.2,2.2,0,0,1,1.73.68,2.84,2.84,0,0,1,.62,2c0,.1,0,.25,0,.45Zm0-.78h2.81a1.63,1.63,0,0,0-.38-1.14,1.26,1.26,0,0,0-1-.4,1.36,1.36,0,0,0-1,.4A1.67,1.67,0,0,0,407.53,82Z"/><path class="cls-1" d="M412.8,85v-7.5h1.06V85Z"/><g id="Group_1910" data-name="Group 1910"><g id="Group_1909" data-name="Group 1909"><line id="Line_209" data-name="Line 209" class="cls-2" x1="255.46" y1="24.97" x2="268.81" y2="24.97"/><line id="Line_210" data-name="Line 210" class="cls-2" x1="255.46" y1="32.21" x2="277.4" y2="32.21"/><line id="Line_211" data-name="Line 211" class="cls-2" x1="256.49" y1="40.67" x2="273.95" y2="40.67"/></g><g id="Group_1908" data-name="Group 1908"><g id="Rectangle_2407" data-name="Rectangle 2407"><path class="cls-3" d="M235.77,14.81h0a6.58,6.58,0,0,1,6.58,6.57V34.53a6.58,6.58,0,0,1-6.58,6.58h0a6.58,6.58,0,0,1-6.58-6.58V21.38A6.58,6.58,0,0,1,235.77,14.81Z"/><path class="cls-4" d="M235.77,15.56h0a5.82,5.82,0,0,1,5.83,5.82V34.53a5.83,5.83,0,0,1-5.83,5.83h0a5.83,5.83,0,0,1-5.83-5.83V21.38A5.82,5.82,0,0,1,235.77,15.56Z"/></g><g id="Group_1905" data-name="Group 1905"><path id="Path_2154" data-name="Path 2154" class="cls-5" d="M246.86,29.19s-.11,5.61-.11,5.83a10,10,0,0,1-.36,2.49,12.79,12.79,0,0,1-.8,2,9.57,9.57,0,0,1-1,1.6,11.7,11.7,0,0,1-3,2.72,10.65,10.65,0,0,1-5.23,1.6h-1.21"/><path id="Path_2156" data-name="Path 2156" class="cls-5" d="M224.6,29.19s.11,5.61.11,5.83a10,10,0,0,0,.36,2.49,12.79,12.79,0,0,0,.8,2,9.57,9.57,0,0,0,1,1.6,11.82,11.82,0,0,0,3,2.72,10.72,10.72,0,0,0,5.24,1.6h1.21"/></g><g id="Group_1906" data-name="Group 1906"><line id="Line_241" data-name="Line 241" class="cls-2" x1="235.77" y1="45.93" x2="235.77" y2="50.32"/><line id="Line_242" data-name="Line 242" class="cls-2" x1="230.51" y1="51.19" x2="241.03" y2="51.19"/></g></g></g><g id="Group_1964" data-name="Group 1964"><g id="Ellipse_142" data-name="Ellipse 142"><circle class="cls-3" cx="99" cy="50.19" r="0.95"/><circle class="cls-6" cx="99" cy="50.19" r="0.24"/></g><g id="Rectangle_2302" data-name="Rectangle 2302"><rect class="cls-3" x="87.57" y="14" width="22.86" height="40" rx="4.76"/><rect class="cls-6" x="88.29" y="14.71" width="21.43" height="38.57" rx="4.05"/></g><g id="Rectangle_2303" data-name="Rectangle 2303"><path class="cls-3" d="M95.19,14h7.62a1,1,0,0,1,1,.95h0a.94.94,0,0,1-1,1H95.19a.94.94,0,0,1-1-1h0A1,1,0,0,1,95.19,14Z"/><path class="cls-6" d="M95.19,14.71h7.62a.24.24,0,0,1,.24.24h0a.24.24,0,0,1-.24.24H95.19A.24.24,0,0,1,95,15h0A.24.24,0,0,1,95.19,14.71Z"/></g></g><g id="Group_1870" data-name="Group 1870"><g id="Group_1869" data-name="Group 1869"><g id="Rectangle_2260" data-name="Rectangle 2260"><rect class="cls-3" x="388.54" y="37.31" width="22.99" height="14.48" rx="3.74"/><rect class="cls-7" x="387.84" y="36.61" width="24.39" height="15.89" rx="4.44"/></g><g id="Group_1868" data-name="Group 1868"><line id="Line_223" data-name="Line 223" class="cls-8" x1="394.21" y1="42.04" x2="405.55" y2="42.04"/><line id="Line_224" data-name="Line 224" class="cls-8" x1="396.73" y1="44.56" x2="396.73" y2="42.04"/></g></g><path id="Path_1884" data-name="Path 1884" class="cls-7" d="M387.37,21.65l-.3-6.2a1.17,1.17,0,0,1,.25-.88,1.14,1.14,0,0,1,.8-.44,6.46,6.46,0,0,1,2.32,0s1.45.09,1.47,1.32a9,9,0,0,0,0,1.27"/><path id="Path_1887" data-name="Path 1887" class="cls-7" d="M413,21.66l.32-6.21a1.22,1.22,0,0,0-1.06-1.33,6.46,6.46,0,0,0-2.32,0s-1.45.1-1.47,1.33a5,5,0,0,1,0,1.09"/><path id="Path_1885" data-name="Path 1885" class="cls-7" d="M411.92,49.27a2.75,2.75,0,0,0,2.71-2.77c0-2.7,0-17.57,0-17.57s.47-14.39-14.26-14.25-15,14.25-15,14.25V46.5s-.07,2.9,2.67,2.77"/><path id="Path_1886" data-name="Path 1886" class="cls-7" d="M404.15,15s-.06-2.37-2-2.43-4.17,0-4.17,0A2.31,2.31,0,0,0,395.86,15"/></g></svg>