<svg id="footer_関連" data-name="footer 関連" xmlns="http://www.w3.org/2000/svg" viewBox="0 0 30 30"><defs><style>.cls-1{fill:#3b5998;}.cls-2{fill:#999;}</style></defs><path class="cls-1" d="M16.39,13v7H13.26V13H10.72V10.11h2.54V7.9A3.54,3.54,0,0,1,17,4a15.14,15.14,0,0,1,2.24.2V6.67H18a1.45,1.45,0,0,0-1.63,1.56v1.88h2.77L18.72,13Z"/><path class="cls-2" d="M5.22,24.34a1.73,1.73,0,0,1,.41,0l.26.07L5.76,25a1,1,0,0,0-.21-.07,1.18,1.18,0,0,0-.27,0A.68.68,0,0,0,5,25a.46.46,0,0,0-.18.13.53.53,0,0,0-.09.2,1,1,0,0,0,0,.25v.2h1v.55h-1V28.6H4.05V25.52a1.25,1.25,0,0,1,.29-.87A1.14,1.14,0,0,1,5.22,24.34Z"/><path class="cls-2" d="M7.07,25.66a1.49,1.49,0,0,1,.55.08A.83.83,0,0,1,8,26a.91.91,0,0,1,.2.36,2.16,2.16,0,0,1,.05.46v1.75l-.46.08a5,5,0,0,1-.7,0,1.74,1.74,0,0,1-.47-.05,1,1,0,0,1-.37-.15A.85.85,0,0,1,6,28.17a1.12,1.12,0,0,1-.08-.44A.86.86,0,0,1,6,27.32.81.81,0,0,1,6.27,27a1.32,1.32,0,0,1,.38-.16,2.15,2.15,0,0,1,.45,0h.23l.26,0v-.11a.78.78,0,0,0,0-.22.66.66,0,0,0-.09-.19.57.57,0,0,0-.18-.12.81.81,0,0,0-.29,0,2.77,2.77,0,0,0-.42,0,1.53,1.53,0,0,0-.31.08l-.09-.54.37-.09A2.82,2.82,0,0,1,7.07,25.66Zm0,2.48a2.55,2.55,0,0,0,.47,0v-.73l-.16,0H7a.65.65,0,0,0-.21.06.35.35,0,0,0-.14.13.32.32,0,0,0-.06.2.34.34,0,0,0,.15.32A.68.68,0,0,0,7.12,28.14Z"/><path class="cls-2" d="M8.76,27.17a1.72,1.72,0,0,1,.1-.6,1.64,1.64,0,0,1,.28-.48,1.34,1.34,0,0,1,1-.43,2.25,2.25,0,0,1,.78.14l-.15.55a1.6,1.6,0,0,0-.26-.08,1.06,1.06,0,0,0-.31,0,.7.7,0,0,0-.59.25,1,1,0,0,0-.21.69,1.17,1.17,0,0,0,.19.68.8.8,0,0,0,.65.25,1.27,1.27,0,0,0,.34,0,2,2,0,0,0,.29-.08l.09.55a1.31,1.31,0,0,1-.33.1,2.38,2.38,0,0,1-.46,0,1.56,1.56,0,0,1-.64-.11,1.07,1.07,0,0,1-.45-.31,1.25,1.25,0,0,1-.27-.48A2,2,0,0,1,8.76,27.17Z"/><path class="cls-2" d="M11.22,27.18a2,2,0,0,1,.11-.67,1.46,1.46,0,0,1,.3-.47,1.36,1.36,0,0,1,.43-.29,1.43,1.43,0,0,1,.5-.09,1.19,1.19,0,0,1,.92.36,1.58,1.58,0,0,1,.34,1.1.62.62,0,0,1,0,.13v.12h-1.9a.8.8,0,0,0,.24.54,1,1,0,0,0,.63.19,2.14,2.14,0,0,0,.45-.05l.31-.09.09.54-.15.06-.22.06-.27,0H12.7a1.69,1.69,0,0,1-.66-.11,1.17,1.17,0,0,1-.46-.31,1.29,1.29,0,0,1-.27-.47A1.93,1.93,0,0,1,11.22,27.18Zm1.93-.3a.75.75,0,0,0,0-.26.53.53,0,0,0-.11-.21.65.65,0,0,0-.18-.15.67.67,0,0,0-.26-.05.6.6,0,0,0-.27.06.7.7,0,0,0-.19.15.57.57,0,0,0-.13.21,2.27,2.27,0,0,0-.06.25Z"/><path class="cls-2" d="M17,27.17a2,2,0,0,1-.1.62,1.43,1.43,0,0,1-.29.48,1.31,1.31,0,0,1-.46.3,1.7,1.7,0,0,1-.61.1,4.26,4.26,0,0,1-.63,0c-.2,0-.37-.07-.5-.11V24.45l.66-.11v1.49a1.36,1.36,0,0,1,.29-.11,1.07,1.07,0,0,1,.37,0,1.33,1.33,0,0,1,.54.1,1.19,1.19,0,0,1,.64.78A2,2,0,0,1,17,27.17Zm-.68,0a1.18,1.18,0,0,0-.17-.67.58.58,0,0,0-.53-.25.81.81,0,0,0-.31.05.9.9,0,0,0-.24.11v1.65l.19,0,.27,0a.73.73,0,0,0,.58-.25A1.05,1.05,0,0,0,16.29,27.16Z"/><path class="cls-2" d="M20.14,27.16a2,2,0,0,1-.1.62,1.41,1.41,0,0,1-.28.48,1.25,1.25,0,0,1-.44.31,1.47,1.47,0,0,1-.56.11,1.4,1.4,0,0,1-.56-.11,1.25,1.25,0,0,1-.44-.31,1.41,1.41,0,0,1-.28-.48,1.72,1.72,0,0,1-.1-.62,1.79,1.79,0,0,1,.1-.62,1.47,1.47,0,0,1,.28-.47,1.35,1.35,0,0,1,.44-.31,1.43,1.43,0,0,1,.56-.1,1.42,1.42,0,0,1,.55.1,1.17,1.17,0,0,1,.44.31,1.49,1.49,0,0,1,.29.47A2.06,2.06,0,0,1,20.14,27.16Zm-.68,0a1.17,1.17,0,0,0-.19-.68.61.61,0,0,0-.51-.25.64.64,0,0,0-.52.25,1.16,1.16,0,0,0-.18.68,1.18,1.18,0,0,0,.18.69.61.61,0,0,0,.52.25.58.58,0,0,0,.51-.25A1.18,1.18,0,0,0,19.46,27.16Z"/><path class="cls-2" d="M23.31,27.16a2,2,0,0,1-.1.62,1.41,1.41,0,0,1-.28.48,1.25,1.25,0,0,1-.44.31,1.51,1.51,0,0,1-1.13,0,1.31,1.31,0,0,1-.43-.31,1.27,1.27,0,0,1-.28-.48,1.71,1.71,0,0,1-.11-.62,1.8,1.8,0,0,1,.11-.62,1.31,1.31,0,0,1,.28-.47,1.35,1.35,0,0,1,.44-.31,1.43,1.43,0,0,1,.56-.1,1.42,1.42,0,0,1,.55.1,1.25,1.25,0,0,1,.44.31,1.31,1.31,0,0,1,.28.47A1.8,1.8,0,0,1,23.31,27.16Zm-.69,0a1.16,1.16,0,0,0-.18-.68.61.61,0,0,0-.51-.25.63.63,0,0,0-.52.25,1.16,1.16,0,0,0-.18.68,1.18,1.18,0,0,0,.18.69.6.6,0,0,0,.52.25.58.58,0,0,0,.51-.25A1.18,1.18,0,0,0,22.62,27.16Z"/><path class="cls-2" d="M24.53,26.85l.27-.28c.09-.11.19-.21.28-.31s.18-.19.26-.29l.21-.24h.79l-.58.64-.61.64a3.44,3.44,0,0,1,.34.33,4.87,4.87,0,0,1,.35.42,4.48,4.48,0,0,1,.32.44c.1.14.18.28.25.4h-.77c-.07-.11-.14-.23-.23-.35a3.27,3.27,0,0,0-.28-.37c-.09-.11-.2-.23-.3-.33a3.65,3.65,0,0,0-.3-.27V28.6h-.67V24.45l.67-.11Z"/></svg>