<svg id="footer_関連" data-name="footer 関連" xmlns="http://www.w3.org/2000/svg" viewBox="0 0 30 30"><defs><style>.cls-1{fill:#fff;}.cls-2{fill:#cd201f;}.cls-3{fill:#999;}</style></defs><polygon class="cls-1" points="12.34 8.26 12.34 16.11 19.52 11.97 12.34 8.26"/><path class="cls-2" d="M23,12a21.27,21.27,0,0,1-.33,3.87,2,2,0,0,1-1.42,1.4,46.82,46.82,0,0,1-6.24.34,46.82,46.82,0,0,1-6.24-.34,2,2,0,0,1-1.42-1.4A21.27,21.27,0,0,1,7,12a21.27,21.27,0,0,1,.33-3.87A2,2,0,0,1,8.76,6.72,46.82,46.82,0,0,1,15,6.38a46.82,46.82,0,0,1,6.24.34,2,2,0,0,1,1.42,1.42A21.27,21.27,0,0,1,23,12Zm-5.45,0L13.37,9.64v4.75Z"/><path class="cls-3" d="M6.36,26.48l.48-.84c.16-.28.3-.56.43-.85H8c-.2.39-.42.78-.64,1.16s-.46.77-.71,1.16V28.6H6V27.12q-.39-.59-.72-1.17c-.22-.38-.44-.77-.64-1.16h.81c.13.29.27.57.42.85S6.19,26.21,6.36,26.48Z"/><path class="cls-3" d="M10.65,27.16a2,2,0,0,1-.1.62,1.41,1.41,0,0,1-.28.48,1.25,1.25,0,0,1-.44.31,1.47,1.47,0,0,1-.56.11,1.4,1.4,0,0,1-.56-.11,1.25,1.25,0,0,1-.44-.31A1.27,1.27,0,0,1,8,27.78a1.72,1.72,0,0,1-.1-.62,1.79,1.79,0,0,1,.1-.62,1.31,1.31,0,0,1,.28-.47,1.35,1.35,0,0,1,.44-.31,1.43,1.43,0,0,1,.56-.1,1.42,1.42,0,0,1,.55.1,1.25,1.25,0,0,1,.44.31,1.31,1.31,0,0,1,.28.47A1.8,1.8,0,0,1,10.65,27.16Zm-.69,0a1.16,1.16,0,0,0-.18-.68.61.61,0,0,0-.51-.25.63.63,0,0,0-.52.25,1.16,1.16,0,0,0-.18.68,1.18,1.18,0,0,0,.18.69.6.6,0,0,0,.52.25.58.58,0,0,0,.51-.25A1.18,1.18,0,0,0,10,27.16Z"/><path class="cls-3" d="M13.55,28.52l-.5.1a4.57,4.57,0,0,1-.67.05,1.37,1.37,0,0,1-.58-.1,1,1,0,0,1-.38-.27,1.17,1.17,0,0,1-.2-.42,2.35,2.35,0,0,1-.06-.54V25.73h.67v1.5a1.21,1.21,0,0,0,.13.66.51.51,0,0,0,.47.2h.26l.2,0V25.73h.66Z"/><path class="cls-3" d="M16.62,24.79v.6H15.45V28.6h-.7V25.39H13.58v-.6Z"/><path class="cls-3" d="M19,28.52l-.5.1a4.57,4.57,0,0,1-.67.05,1.4,1.4,0,0,1-.58-.1,1.09,1.09,0,0,1-.38-.27,1.17,1.17,0,0,1-.2-.42,2.35,2.35,0,0,1-.06-.54V25.73h.67v1.5a1.21,1.21,0,0,0,.13.66.51.51,0,0,0,.47.2h.26l.2,0V25.73H19Z"/><path class="cls-3" d="M22.3,27.17a2,2,0,0,1-.1.62,1.31,1.31,0,0,1-.3.48,1.23,1.23,0,0,1-.46.3,1.66,1.66,0,0,1-.61.1,4.26,4.26,0,0,1-.63,0c-.2,0-.36-.07-.49-.11V24.45l.66-.11v1.49a1.36,1.36,0,0,1,.29-.11,1.07,1.07,0,0,1,.37,0,1.33,1.33,0,0,1,.54.1,1.23,1.23,0,0,1,.4.31,1.39,1.39,0,0,1,.24.47A2,2,0,0,1,22.3,27.17Zm-.68,0a1.18,1.18,0,0,0-.17-.67.6.6,0,0,0-.53-.25.78.78,0,0,0-.31.05.9.9,0,0,0-.24.11v1.65l.19,0,.27,0a.75.75,0,0,0,.58-.25A1.11,1.11,0,0,0,21.62,27.16Z"/><path class="cls-3" d="M22.7,27.18a1.74,1.74,0,0,1,.12-.67,1.19,1.19,0,0,1,.3-.47,1.17,1.17,0,0,1,.43-.29,1.37,1.37,0,0,1,.49-.09A1.2,1.2,0,0,1,25,26a1.62,1.62,0,0,1,.33,1.1v.13s0,.08,0,.12h-1.9a.77.77,0,0,0,.25.54,1,1,0,0,0,.63.19,2,2,0,0,0,.44-.05L25,28l.08.54-.15.06-.22.06-.26,0h-.3a1.69,1.69,0,0,1-.66-.11,1.25,1.25,0,0,1-.46-.31,1.29,1.29,0,0,1-.27-.47A1.93,1.93,0,0,1,22.7,27.18Zm1.93-.3a1.09,1.09,0,0,0,0-.26.72.72,0,0,0-.12-.21.65.65,0,0,0-.18-.15.62.62,0,0,0-.25-.05.54.54,0,0,0-.27.06.62.62,0,0,0-.2.15.72.72,0,0,0-.12.21,1.14,1.14,0,0,0-.06.25Z"/></svg>