<svg id="footer_関連" data-name="footer 関連" xmlns="http://www.w3.org/2000/svg" viewBox="0 0 30 30"><defs><style>.cls-1{fill:#1da1f2;}.cls-2{fill:#999;}</style></defs><path class="cls-1" d="M21.73,9A9.87,9.87,0,0,1,6.54,17.31a5.83,5.83,0,0,0,.84.05,7,7,0,0,0,4.3-1.48,3.5,3.5,0,0,1-3.24-2.41,4.65,4.65,0,0,0,.66,0,3.91,3.91,0,0,0,.91-.11A3.48,3.48,0,0,1,7.23,10v0a3.44,3.44,0,0,0,1.56.44A3.49,3.49,0,0,1,7.72,5.76a9.84,9.84,0,0,0,7.15,3.63,4.15,4.15,0,0,1-.08-.79,3.46,3.46,0,0,1,3.46-3.47,3.5,3.5,0,0,1,2.54,1.09A7,7,0,0,0,23,5.39,3.49,3.49,0,0,1,21.46,7.3a7,7,0,0,0,2-.54,7.22,7.22,0,0,1-1.74,1.79C21.73,8.7,21.73,8.85,21.73,9Z"/><path class="cls-2" d="M6.74,25l.66-.11v.87h1v.55h-1v1.17a.9.9,0,0,0,.11.5.45.45,0,0,0,.38.15,1.47,1.47,0,0,0,.32,0L8.43,28l.11.53-.3.1a1.9,1.9,0,0,1-.44.05,1.43,1.43,0,0,1-.51-.08A.83.83,0,0,1,7,28.35.94.94,0,0,1,6.79,28a2,2,0,0,1,0-.51Z"/><path class="cls-2" d="M10.77,26.79c-.08.33-.17.64-.27.95s-.19.59-.29.86H9.67q-.12-.26-.24-.57c-.08-.22-.16-.45-.24-.7S9,26.83,9,26.56l-.24-.83h.71c0,.15.07.32.11.49s.09.36.14.55l.15.54q.07.27.15.48c.06-.16.11-.34.17-.52l.15-.54c.05-.18.09-.35.13-.52s.08-.33.12-.48h.51c0,.15.07.31.11.48s.08.34.13.52.09.36.14.54.11.36.17.52q.06-.21.15-.48l.15-.54c0-.19.1-.37.14-.55s.08-.34.12-.49h.68c-.07.28-.15.56-.23.83s-.17.53-.25.77-.16.48-.24.7-.16.4-.24.57h-.54l-.29-.86C11,27.43,10.86,27.12,10.77,26.79Z"/><path class="cls-2" d="M14,24.89a.35.35,0,0,1-.13.29.37.37,0,0,1-.28.11.39.39,0,0,1-.29-.11.37.37,0,0,1-.12-.29.41.41,0,0,1,.12-.31.44.44,0,0,1,.29-.11.41.41,0,0,1,.28.11A.39.39,0,0,1,14,24.89ZM13.9,28.6h-.66V25.73h.66Z"/><path class="cls-2" d="M14.57,25l.67-.11v.87h1v.55h-1v1.17a.9.9,0,0,0,.11.5.43.43,0,0,0,.37.15,1.47,1.47,0,0,0,.32,0l.23-.07.11.53-.3.1a2,2,0,0,1-.45.05,1.52,1.52,0,0,1-.51-.08.83.83,0,0,1-.33-.24,1.1,1.1,0,0,1-.17-.38,2.59,2.59,0,0,1,0-.51Z"/><path class="cls-2" d="M16.71,25l.67-.11v.87h1v.55h-1v1.17a.9.9,0,0,0,.11.5.43.43,0,0,0,.37.15,1.57,1.57,0,0,0,.33,0l.22-.07.11.53-.3.1a1.9,1.9,0,0,1-.44.05,1.54,1.54,0,0,1-.52-.08.91.91,0,0,1-.33-.24,1.1,1.1,0,0,1-.17-.38,2.59,2.59,0,0,1-.05-.51Z"/><path class="cls-2" d="M18.73,27.18a2,2,0,0,1,.11-.67,1.46,1.46,0,0,1,.3-.47,1.36,1.36,0,0,1,.43-.29,1.43,1.43,0,0,1,.5-.09A1.19,1.19,0,0,1,21,26a1.63,1.63,0,0,1,.34,1.1s0,.08,0,.13a.49.49,0,0,1,0,.12H19.42a.8.8,0,0,0,.24.54,1,1,0,0,0,.63.19,2,2,0,0,0,.44-.05l.32-.09.09.54-.15.06-.22.06-.27,0h-.29a1.69,1.69,0,0,1-.66-.11,1.17,1.17,0,0,1-.46-.31,1.29,1.29,0,0,1-.27-.47A1.93,1.93,0,0,1,18.73,27.18Zm1.93-.3a.75.75,0,0,0,0-.26.53.53,0,0,0-.11-.21.65.65,0,0,0-.18-.15.67.67,0,0,0-.26-.05.6.6,0,0,0-.27.06.71.71,0,0,0-.32.36,1.14,1.14,0,0,0-.06.25Z"/><path class="cls-2" d="M23.53,26.33l-.23-.06a1.72,1.72,0,0,0-.34,0l-.23,0-.18,0v2.3h-.66V25.86c.13,0,.29-.09.48-.13a3.1,3.1,0,0,1,.64-.06h.15l.18,0,.17,0a.4.4,0,0,1,.13,0Z"/></svg>