<svg id="footer_関連" data-name="footer 関連" xmlns="http://www.w3.org/2000/svg" viewBox="0 0 30 24"><defs><style>.cls-1{fill:#999;}.cls-2{fill:#fff;}</style></defs><path class="cls-1" d="M21.93,17.2v1.3a1.5,1.5,0,0,1-1.5,1.5h-11a1.5,1.5,0,0,1-1.5-1.5V17.2a4.2,4.2,0,0,1,4.2-4.2h.52a5.45,5.45,0,0,0,4.56,0h.52A4.2,4.2,0,0,1,21.93,17.2ZM10.93,8a4,4,0,1,1,4,4A4,4,0,0,1,10.93,8ZM26,9.59l-3.88,3.86a.34.34,0,0,1-.47,0l-2.24-2.26a.32.32,0,0,1,0-.46l.77-.77a.33.33,0,0,1,.47,0l1.25,1.26,2.88-2.86a.33.33,0,0,1,.46,0l.77.77A.33.33,0,0,1,26,9.59Z"/><path class="cls-2" d="M11,15H9.64v4H11a2,2,0,1,0,0-4Zm0,3.46h-.83v-2.9H11A1.4,1.4,0,0,1,12.55,17,1.43,1.43,0,0,1,11,18.45Z"/><path class="cls-2" d="M7.82,17.3a1.13,1.13,0,1,1-2.25,0V15H5V17.3a1.66,1.66,0,0,0,1.7,1.77A1.66,1.66,0,0,0,8.4,17.3V15H7.82Z"/><polygon class="cls-2" points="26.47 14.99 26.47 15.54 27.95 15.54 27.95 19 28.52 19 28.52 15.54 30 15.54 30 14.99 26.47 14.99"/><polygon class="cls-2" points="24.54 17.72 21.52 14.93 21.52 19 22.09 19 22.09 16.27 25.12 19.07 25.12 14.99 24.54 14.99 24.54 17.72"/><polygon class="cls-2" points="16.82 19 19.95 19 19.95 18.45 17.39 18.45 17.39 17.28 19.73 17.28 19.73 16.73 17.39 16.73 17.39 15.54 19.95 15.54 19.95 14.99 16.82 14.99 16.82 19"/><path class="cls-2" d="M0,19H.6l0-.07a1.5,1.5,0,0,1,.91-.67,2.37,2.37,0,0,1,1.06,0,1.47,1.47,0,0,1,.91.66l0,.08h.61L2.08,14.94Zm2.93-1.2a2.75,2.75,0,0,0-.85-.14,2.85,2.85,0,0,0-.85.14l.85-1.69Z"/><rect class="cls-2" x="14.61" y="14.99" width="0.57" height="4.01"/></svg>