<svg id="footer_関連" data-name="footer 関連" xmlns="http://www.w3.org/2000/svg" viewBox="0 0 30 24"><defs><style>.cls-1{fill:#999;}</style></defs><path class="cls-1" d="M14.23,15.77l-4.1,4.11a2.13,2.13,0,0,1-3-3l5.06-5.06,1.89,1.88A3.52,3.52,0,0,0,14.23,15.77Zm8.91,2.62-1.75,1.75a1.24,1.24,0,0,1-1.75,0l-3.89-3.89a2.47,2.47,0,0,1-.46-2.84L11.75,9.87H9.69L6.5,5.62,8.63,3.5l4.25,3.19V8.75l3.54,3.54a2.44,2.44,0,0,1,2.83.46l3.89,3.89A1.24,1.24,0,0,1,23.14,18.39Zm-13.72,0a.8.8,0,0,0-1.59,0,.8.8,0,0,0,.8.8A.79.79,0,0,0,9.42,18.37Zm7.27-7.3L14,8.34a4.74,4.74,0,0,1,5.9-4.7.4.4,0,0,1,.19.67L17.59,6.78,18,9l2.25.37,2.47-2.47a.4.4,0,0,1,.67.18,4.74,4.74,0,0,1-2.71,5.52L20,12a3.51,3.51,0,0,0-2.49-1A3.29,3.29,0,0,0,16.69,11.07Z"/></svg>