<svg id="footer_関連" data-name="footer 関連" xmlns="http://www.w3.org/2000/svg" viewBox="0 0 30 30"><defs><style>.cls-1{fill:#999;}.cls-2{fill:#dc6e00;}</style></defs><path class="cls-1" d="M11,28.65l-.61,0a2.57,2.57,0,0,1-.54-.08v-3.7l.26,0a1.27,1.27,0,0,1,.28,0l.28,0H11a3.24,3.24,0,0,1,.64.06,1.59,1.59,0,0,1,.52.17.87.87,0,0,1,.45.81.85.85,0,0,1-.12.46,1,1,0,0,1-.36.31,1,1,0,0,1,.51.34.94.94,0,0,1,.16.57,1,1,0,0,1-.43.88A2.28,2.28,0,0,1,11,28.65Zm-.47-2.31H11a1.35,1.35,0,0,0,.62-.11.41.41,0,0,0,.23-.4.39.39,0,0,0-.24-.39,1.28,1.28,0,0,0-.6-.12h-.5Zm0,.55v1.16H11a2.5,2.5,0,0,0,.4,0,1.35,1.35,0,0,0,.32-.09.55.55,0,0,0,.21-.19.46.46,0,0,0,.08-.3.49.49,0,0,0-.23-.45,1.5,1.5,0,0,0-.66-.12Z"/><path class="cls-1" d="M14.34,28.66a1.64,1.64,0,0,1-.49-.07.83.83,0,0,1-.31-.17.61.61,0,0,1-.16-.28,1.46,1.46,0,0,1-.05-.38V24.45l.67-.11v3.29a1.15,1.15,0,0,0,0,.2.37.37,0,0,0,.07.14.34.34,0,0,0,.14.09,1,1,0,0,0,.22.05Z"/><path class="cls-1" d="M17.43,27.16a1.72,1.72,0,0,1-.1.62,1.27,1.27,0,0,1-.28.48,1.22,1.22,0,0,1-.43.31,1.51,1.51,0,0,1-1.13,0,1.22,1.22,0,0,1-.43-.31,1.43,1.43,0,0,1-.29-.48,2,2,0,0,1-.1-.62,2.06,2.06,0,0,1,.1-.62,1.49,1.49,0,0,1,.29-.47,1.25,1.25,0,0,1,.44-.31,1.42,1.42,0,0,1,.55-.1,1.47,1.47,0,0,1,.56.1,1.25,1.25,0,0,1,.44.31,1.47,1.47,0,0,1,.28.47A1.79,1.79,0,0,1,17.43,27.16Zm-.68,0a1.16,1.16,0,0,0-.18-.68.64.64,0,0,0-.52-.25.61.61,0,0,0-.51.25,1.33,1.33,0,0,0,0,1.37.58.58,0,0,0,.51.25.61.61,0,0,0,.52-.25A1.18,1.18,0,0,0,16.75,27.16Z"/><path class="cls-1" d="M20.37,28.31a1.31,1.31,0,0,1-.34,1,1.57,1.57,0,0,1-1.07.32,3,3,0,0,1-.52-.05,2.47,2.47,0,0,1-.45-.11l.12-.57a1.8,1.8,0,0,0,.39.12,2.29,2.29,0,0,0,.47,0,.83.83,0,0,0,.57-.16.68.68,0,0,0,.17-.49v-.11l-.26.1a1.38,1.38,0,0,1-.37.05,1.4,1.4,0,0,1-.51-.09,1.16,1.16,0,0,1-.39-.26,1.14,1.14,0,0,1-.25-.43,1.78,1.78,0,0,1-.09-.59,1.57,1.57,0,0,1,.1-.58,1.18,1.18,0,0,1,.28-.45,1.35,1.35,0,0,1,.44-.29,1.64,1.64,0,0,1,.6-.1,3.05,3.05,0,0,1,.62,0,3.8,3.8,0,0,1,.49.1Zm-1.85-1.22a.85.85,0,0,0,.19.62.62.62,0,0,0,.47.2.94.94,0,0,0,.3-.05,1,1,0,0,0,.23-.1V26.27a.84.84,0,0,0-.18,0l-.26,0a.68.68,0,0,0-.56.24A1,1,0,0,0,18.52,27.09Z"/><path class="cls-2" d="M20.49,15.82A5.29,5.29,0,0,1,10,14.68V5.57a.87.87,0,0,1,.88-.88h1.76a.87.87,0,0,1,.88.88v9.11A1.77,1.77,0,1,0,15.94,13a.89.89,0,0,1-.62-.81V10.37a.89.89,0,0,1,1-.88A5.3,5.3,0,0,1,20.49,15.82Z"/><path class="cls-2" d="M24.19,11.5a.44.44,0,0,1-.44.47h-.89a.44.44,0,0,1-.44-.4c-.63-2.42-1.57-3.36-4-4a.44.44,0,0,1-.4-.44V6.25a.45.45,0,0,1,.47-.45A6.21,6.21,0,0,1,24.19,11.5Z"/><path class="cls-2" d="M26.84,11.51a.44.44,0,0,1-.44.46h-.89a.45.45,0,0,1-.44-.41,7.06,7.06,0,0,0-6.63-6.65A.43.43,0,0,1,18,4.47V3.6a.44.44,0,0,1,.46-.44A8.84,8.84,0,0,1,26.84,11.51Z"/></svg>