<svg id="footer_関連" data-name="footer 関連" xmlns="http://www.w3.org/2000/svg" viewBox="0 0 30 24"><defs><style>.cls-1{fill:#999;}</style></defs><path class="cls-1" d="M11.51,5.11a.45.45,0,0,1,.12.3.43.43,0,0,1-.13.3L9,8.25l-.54.54a.43.43,0,0,1-.62,0L6.12,7.13a.44.44,0,0,1,0-.6L6.68,6A.4.4,0,0,1,7,5.85.39.39,0,0,1,7.27,6l.8.78,2.24-2.23a.44.44,0,0,1,.6,0Zm0,5.61a.41.41,0,0,1,0,.6L9,13.86l-.55.55a.46.46,0,0,1-.62,0L6.12,12.74a.43.43,0,0,1,0-.6l.56-.55a.39.39,0,0,1,.3-.12.38.38,0,0,1,.29.12l.8.78,2.24-2.24a.41.41,0,0,1,.6,0ZM9.94,17.91a1.69,1.69,0,0,1-1.69,1.68,1.69,1.69,0,1,1,1.69-1.68ZM24,6.09V7.22a.56.56,0,0,1-.56.56H13.31a.56.56,0,0,1-.56-.56V6.09a.56.56,0,0,1,.56-.56H23.44A.56.56,0,0,1,24,6.09Zm0,5.63v1.12a.57.57,0,0,1-.56.57H13.31a.57.57,0,0,1-.56-.57V11.72a.56.56,0,0,1,.56-.56H23.44A.56.56,0,0,1,24,11.72Zm0,5.62v1.13a.56.56,0,0,1-.56.56H13.31a.56.56,0,0,1-.56-.56V17.34a.56.56,0,0,1,.56-.56H23.44A.56.56,0,0,1,24,17.34Z"/></svg>