<svg id="footer_関連" data-name="footer 関連" xmlns="http://www.w3.org/2000/svg" viewBox="0 0 30 24"><defs><style>.cls-1{fill:#999;}</style></defs><path class="cls-1" d="M12.56,12.75c-4.4-3.2-4.74-3.48-5.75-4.27a.81.81,0,0,1-.31-.63V7.22a1.6,1.6,0,0,1,1.59-1.6H21.91a1.6,1.6,0,0,1,1.59,1.6v.63a.79.79,0,0,1-.31.63c-1,.79-1.35,1.07-5.75,4.27-.56.41-1.67,1.39-2.44,1.37S13.12,13.16,12.56,12.75ZM23.5,10v6.79a1.6,1.6,0,0,1-1.59,1.6H8.09a1.6,1.6,0,0,1-1.59-1.6V10a.2.2,0,0,1,.32-.15c.75.58,1.73,1.31,5.12,3.77.7.51,1.88,1.59,3.06,1.58s2.39-1.09,3.06-1.58c3.39-2.46,4.37-3.2,5.12-3.77A.2.2,0,0,1,23.5,10Z"/></svg>