<svg id="レイヤー_1" data-name="レイヤー 1" xmlns="http://www.w3.org/2000/svg" viewBox="0 0 800 50"><defs><style>.cls-1{fill:#fff;}</style></defs><path class="cls-1" d="M615,10.88h4v4.31h-4v3.2l4.27,4.78v6.24L615,24.12V42.93H610.5v-14a25,25,0,0,1-4.78,6.52V28.82a22.64,22.64,0,0,0,4.78-11.66v-2h-4.78V10.88h4.78V6.73H615Zm10.4-.16H629v-4h4.63v4h7.43v4.47h-7.43V22h8.18v4.35h-6.68a20.34,20.34,0,0,0,6.68,10.24v5.84c-3-1.62-6.29-6.16-8.18-11V42.89H629V31.47c-2.09,4.94-5.61,9.21-9.09,11V36.61a20.57,20.57,0,0,0,7.28-10.24H620.5V22H629V15.19h-4.34A30.65,30.65,0,0,1,623.22,20H619a32,32,0,0,0,2.56-12.61h4C625.56,8.59,625.48,9.73,625.36,10.72Z"/><path class="cls-1" d="M672.23,11.55h3.63l-.79-4.82h3.6l.79,4.82h1.86v4.66h-9.09v.56c0,10.27,3,16.48,9.09,20.11v6c-9.68-4.62-14-13.91-14-26.16v-.52H645.24V11.55h22.13V6.73h4.86Zm-6.09,14.7H658V37.51a36.23,36.23,0,0,0,9.09-2V40.2c-5.06,1.7-12.69,2.22-21.89,2.22V37.87c2.64,0,5.29,0,7.94-.08V26.25h-7.94V21.79h20.9Z"/><path class="cls-1" d="M690.09,18.94c5.34-1.62,9.72-4.31,12.69-8a25,25,0,0,0,12.6,8Zm30.75,8.42H684.76v4.42h6.36l-2.85,6.33h-3.51v4.31h8.41c10.12,0,15.81-.2,21.11-2.14l1.26,2.61h5.3l-4.55-9.72H711l1.58,3.4c-4.74,1.26-10.36,1.5-18.81,1.54l2.92-6.33h24.19ZM699.54,6.73c-2.77,4.74-8.14,7.55-14.78,8.46v5c1.06-.19,2.17-.43,3.24-.71v3.8h29.72V19.61c1,.24,2.09.48,3.12.63v-5c-6.72-.87-12-3.72-14.78-8.46Z"/><path class="cls-1" d="M733.92,10.68h4.86v4.15A22.82,22.82,0,0,1,734.39,25l5.22,4.27v5.49l-5.53-4.9v13h-4.59V30.32A21.64,21.64,0,0,1,724.28,34V28.43c4.5-2.42,9-8.07,9.8-13.36h-9.8V10.68h5.06V6.73h4.58Zm18.57,5.89h7v4.94h-7v16h7.87v4.87H739.85V37.55h7.86v-16h-7V16.57h7V6.73h4.78Z"/><path class="cls-1" d="M41.85,28.31V23H74.29v5.3Z"/><path class="cls-1" d="M97.65,42.18H91.48V8.39h5.06V37.2h2c4.71,0,8.26-4.19,8.26-13.87v-9h5.06V24C111.87,36,106.85,42.18,97.65,42.18Zm-18.71.27H73.81c2.31-3,4.35-7.9,5.75-15.8L82.77,8.43h4.94l-3.19,18.1C83.05,34.87,80.81,40,78.94,42.45Z"/><path class="cls-1" d="M587.65,42.18h-6.17V8.39h5.06V37.2h2c4.71,0,8.26-4.19,8.26-13.87v-9h5.06V24C601.87,36,596.85,42.18,587.65,42.18Zm-18.71.27h-5.13c2.31-3,4.35-7.9,5.75-15.8l3.21-18.22h4.94l-3.19,18.1C573.05,34.87,570.81,40,568.94,42.45Z"/><path class="cls-1" d="M133.93,33V27.79c7.15,0,11-3.51,11-10.47v-3H115.67V9.26h34.5v8.22C150.17,26.88,143.73,33,133.93,33Zm-18.26,9.76v-5c7.86-.63,11.42-5.41,11.42-11.77V21h5v5C132.07,35.7,125.55,42,115.67,42.73Z"/><path class="cls-1" d="M165.07,42.18h-8.46v-5H165c12.09,0,17.82-4.7,17.82-14.82v-8H164.08a13.38,13.38,0,0,1-10.32,12.09V21.27c4.11-1.66,6.09-5.33,6.09-11.89h28V22.69C187.87,33.8,181.63,42.18,165.07,42.18Z"/><path class="cls-1" d="M212.65,30.4h-1.5V25.3h1.42c6,0,8-2.09,8-6.12V18.07H201.35v12c0,5.49,2.72,7.23,8.38,7.23h15.88v4.94H209.37c-8.26,0-13-3.72-13-11.94V18.07h-4v-5h4V8.47h5v4.58h24.81v5.89C226.16,26.25,221,30.4,212.65,30.4Z"/><path class="cls-1" d="M253.16,33.4c-5.93,5.14-14.15,8.26-22.73,8.86V37.32c11.94-1.15,25.65-7.91,26.17-22.06v-.79H231.66v-5h30.23v5.41a24.72,24.72,0,0,1-5.18,14.78l8.3,6.76v6.48Z"/><path class="cls-1" d="M40,11.89V17H34.88V42.25H29.76V17h-.51C27.53,27.33,15.4,39.25,5,42.25V36.69C12.24,34.21,22.65,25.61,24.09,17H5V11.89Z"/><polygon class="cls-1" points="26.89 9.55 32.37 1.07 37.85 9.55 26.89 9.55"/><path class="cls-1" d="M298.31,8.22l-.05.72c-.33,4-3,6.27-9.36,8l-20.34,5.46v5.19l17.65-4.67V42.56h5.11V21.47c5.76-1.73,11.57-4.63,12.27-12.4l.08-.85Z"/><path class="cls-1" d="M325.61,19.05l1.14.59V14.05l-.39-.23c-3.74-2.15-11.88-4-17.42-4h-.78v5h.78A40.81,40.81,0,0,1,325.61,19.05Z"/><path class="cls-1" d="M336.22,10.6V19c0,9.21-2.16,18.63-18.12,18.63H307.61v5h10.76c20.31,0,22.91-12.7,22.91-23.77V10.6Z"/><path class="cls-1" d="M350.45,9.74v.78c0,6-1.52,10.08-4.52,12l-.35.23v5.69l1.12-.55a13.89,13.89,0,0,0,4.72-3.72v3.06h.78c10.77,0,16.28.72,22.05,2.92-2.08,6.55-9.21,7.41-15.27,7.41H348.85v5h10.29c13.78,0,20.77-5.85,20.77-17.38V9.74Zm24.43,5V25.25c-5.52-2-12.28-2.89-22.19-2.92A19,19,0,0,0,355,14.77Z"/><rect class="cls-1" x="384.24" y="23.11" width="31.92" height="5.26"/><path class="cls-1" d="M448.35,8.69h-5.14v5H419.94v5.07h23.27v2.49c0,11.45-5.19,16.33-17.34,16.33h-5.15v5H426c15.07,0,22.4-6.89,22.4-21V18.75h6.12V13.68h-6.12Z"/><rect class="cls-1" x="459.58" y="21.2" width="17.85" height="4.87"/><rect class="cls-1" x="459.58" y="9.78" width="17.85" height="4.83"/><path class="cls-1" d="M487.64,17.54c0,12-2.93,20-17.22,20H458.8v5.07h11.35c19.84,0,22.52-12.43,22.52-24.59V13.76h-5Z"/><polygon class="cls-1" points="497.55 19.76 519.92 19.76 519.92 26.11 498.95 26.11 498.95 30.52 519.92 30.52 519.92 37.41 497.55 37.41 497.55 41.93 524.48 41.93 524.48 15.2 497.55 15.2 497.55 19.76"/><path class="cls-1" d="M557.76,13.68v-5h-5.14v5H529.35v5.07h23.27v2.49c0,11.45-5.19,16.33-17.35,16.33h-5.14v5h5.22c15.08,0,22.41-6.89,22.41-21V18.75h6.12V13.68Z"/></svg>