<?xml version="1.0" encoding="UTF-8"?><svg id="_イヤー_1" xmlns="http://www.w3.org/2000/svg" viewBox="0 0 420 60"><defs><style>.cls-1{fill:#50bc82;}</style></defs><path class="cls-1" d="M37.15,10.07h-11.88l-.39,7.8h.08c1.47-.79,3.13-1.19,4.8-1.15,2.33-.14,4.62,.69,6.31,2.3,1.6,1.76,2.41,4.1,2.26,6.47,0,3.27-.95,5.75-2.76,7.42s-4.56,2.52-8.14,2.52c-2.59,.03-5.14-.57-7.44-1.76l.95-3.51c1.99,1.09,4.22,1.69,6.49,1.76,4.43,0,6.65-2.14,6.65-6.43,0-3.61-1.69-5.42-5.06-5.42-1.72-.08-3.41,.54-4.67,1.71h-3.71l.78-15.2h15.75v3.49Z"/><path class="cls-1" d="M334.45,10.07h-11.88l-.39,7.8h.08c1.47-.79,3.13-1.19,4.8-1.15,2.33-.14,4.62,.69,6.31,2.3,1.6,1.76,2.41,4.1,2.26,6.47,0,3.27-.95,5.75-2.76,7.42s-4.56,2.52-8.14,2.52c-2.59,.03-5.14-.57-7.44-1.76l.95-3.51c1.99,1.09,4.22,1.69,6.49,1.76,4.43,0,6.65-2.14,6.65-6.43,0-3.61-1.69-5.42-5.06-5.42-1.72-.08-3.41,.54-4.67,1.71h-3.71l.78-15.2h15.75v3.49Z"/><path class="cls-1" d="M61.25,33.2c-1.9,1.48-4.44,2.22-7.73,2.22s-5.88-.74-7.73-2.22c-1.83-1.43-2.87-3.65-2.78-5.97,0-1.54,.56-3.02,1.56-4.19,1.14-1.36,2.62-2.38,4.28-2.97v-.09c-1.44-.58-2.69-1.54-3.61-2.78-.83-1.16-1.28-2.56-1.26-3.99-.03-2,.92-3.88,2.54-5.04,2.07-1.38,4.53-2.05,7.01-1.9,2.48-.15,4.95,.51,7.01,1.9,1.63,1.17,2.58,3.08,2.54,5.09,0,2.91-1.62,5.04-4.87,6.38v.09c3.89,1.32,5.85,3.86,5.85,7.6,.05,2.29-.98,4.47-2.79,5.87Zm-7.92-11.61c-1.72,.33-3.33,1.09-4.68,2.19-.98,.8-1.56,1.99-1.6,3.26-.06,1.44,.59,2.81,1.74,3.69,1.39,.96,3.06,1.43,4.75,1.34,1.66,.1,3.3-.37,4.66-1.34,1.12-.89,1.74-2.26,1.68-3.69,0-2.72-2.18-4.54-6.55-5.45Zm.19-3.32c1.51-.29,2.93-.94,4.13-1.9,.88-.67,1.41-1.7,1.44-2.8,.03-1.16-.51-2.25-1.44-2.94-1.22-.8-2.67-1.19-4.13-1.09-1.42-.1-2.84,.28-4.03,1.07-.92,.71-1.44,1.82-1.39,2.98,0,1.11,.52,2.16,1.39,2.85,1.17,.94,2.55,1.57,4.03,1.82Z"/><path class="cls-1" d="M201.82,33.2c-1.9,1.48-4.44,2.22-7.73,2.22s-5.88-.74-7.73-2.22c-1.83-1.43-2.87-3.65-2.78-5.97,0-1.54,.56-3.02,1.56-4.19,1.14-1.36,2.62-2.38,4.28-2.97v-.09c-1.44-.58-2.69-1.54-3.61-2.78-.83-1.16-1.28-2.56-1.26-3.99-.03-2,.92-3.88,2.54-5.04,2.07-1.38,4.53-2.05,7.01-1.9,2.48-.15,4.95,.51,7.01,1.9,1.63,1.17,2.58,3.08,2.54,5.09,0,2.91-1.62,5.04-4.87,6.38v.09c3.89,1.32,5.85,3.86,5.85,7.6,.05,2.29-.98,4.47-2.79,5.87Zm-7.92-11.61c-1.72,.33-3.33,1.09-4.68,2.19-.98,.8-1.56,1.99-1.6,3.26-.06,1.44,.59,2.81,1.74,3.69,1.39,.96,3.06,1.43,4.75,1.34,1.66,.1,3.3-.37,4.66-1.34,1.12-.89,1.74-2.26,1.68-3.69,0-2.72-2.18-4.54-6.55-5.45Zm.19-3.32c1.51-.29,2.93-.94,4.13-1.9,.88-.67,1.41-1.7,1.44-2.8,.03-1.16-.51-2.25-1.44-2.94-1.22-.8-2.67-1.19-4.13-1.09-1.42-.1-2.84,.28-4.03,1.07-.92,.71-1.44,1.82-1.39,2.98,0,1.11,.52,2.16,1.39,2.85,1.17,.94,2.55,1.57,4.03,1.82Z"/><path class="cls-1" d="M73.34,25.52v10.63h-1.72v-1.04h0c-.88,1.25-2.6,1.55-3.85,.68-.2-.14-.38-.31-.54-.5-.59-.83-.88-1.83-.82-2.85-.07-1.01,.21-2.02,.79-2.85,1-1.17,2.75-1.31,3.92-.32,.15,.13,.29,.27,.41,.43h0v-4.19h1.81Zm-5.22,6.94c-.04,.63,.12,1.25,.47,1.77,.28,.39,.74,.62,1.23,.62,.48,.01,.93-.22,1.21-.61,.34-.5,.5-1.1,.47-1.7v-.14c.04-.6-.13-1.2-.47-1.7-.27-.39-.73-.62-1.21-.61-.49-.03-.96,.19-1.25,.59-.34,.53-.49,1.16-.45,1.79Z"/><path class="cls-1" d="M82.68,33.17c.06,.9-.32,1.77-1.02,2.34-.95,.59-2.07,.87-3.19,.78-.99,0-1.99-.07-2.97-.21v-10.2c.94-.15,1.9-.22,2.85-.22,2.65,0,3.97,.86,3.97,2.59,.01,.56-.2,1.1-.58,1.51-.41,.43-.96,.72-1.55,.82h0c.69,.06,1.34,.37,1.83,.85,.45,.46,.69,1.09,.66,1.74Zm-5.22-3.15h.52c.65,.04,1.31-.08,1.9-.36,.38-.22,.6-.64,.58-1.07,.03-.4-.15-.78-.47-1.01-.48-.25-1.02-.37-1.56-.32-.32,0-.64,.03-.95,.09l-.02,2.68Zm0,1.47v3.21c.35,.06,.71,.09,1.06,.09,.6,.05,1.21-.1,1.72-.43,.38-.33,.58-.83,.54-1.33,.02-.47-.21-.92-.62-1.17-.66-.29-1.37-.42-2.09-.37h-.62Z"/><path class="cls-1" d="M24.73,47.76h-2.76v-1.02h3.96v4.57c-.9,.44-1.89,.67-2.9,.66-1.25,.06-2.46-.37-3.39-1.21-.87-.84-1.33-2.01-1.27-3.22-.07-1.21,.37-2.4,1.23-3.27,.9-.83,2.1-1.27,3.32-1.21,.94-.01,1.87,.24,2.68,.72l-.41,.95c-.65-.4-1.39-.62-2.16-.63-.91-.05-1.81,.3-2.45,.95-.61,.67-.93,1.56-.88,2.47-.04,.92,.3,1.82,.95,2.47,.68,.65,1.59,.99,2.53,.95,.53,0,1.06-.11,1.55-.32v-2.87Z"/><path class="cls-1" d="M27.34,50.19c-.02-.66,.31-1.28,.86-1.64,.75-.46,1.62-.68,2.5-.62h.59v-.07c.04-.37-.07-.75-.3-1.04-.3-.23-.68-.34-1.05-.29-.72,0-1.43,.18-2.06,.53l-.18-.95c.69-.36,1.46-.54,2.24-.53,.68-.05,1.35,.14,1.9,.54,.44,.46,.65,1.08,.6,1.71v2.36c.01,.57,.09,1.13,.22,1.68h-1.12c-.06-.31-.1-.63-.1-.95h0c-.24,.34-.57,.61-.95,.78-.41,.2-.86,.29-1.32,.28-.49,.02-.96-.15-1.33-.48-.34-.35-.52-.83-.48-1.32Zm3.95-1.39h-.59c-.57-.04-1.13,.09-1.63,.36-.35,.19-.56,.55-.57,.95,0,.26,.09,.51,.27,.69,.19,.18,.44,.27,.7,.26,.48,0,.94-.19,1.28-.52,.35-.32,.55-.78,.54-1.25v-.48Z"/><path class="cls-1" d="M34.65,44.27v-1.28h1.25v1.28h-1.25Zm0,7.55v-6.12h1.25v6.17l-1.25-.05Z"/><path class="cls-1" d="M39.12,45.7v.88h0c.26-.31,.58-.56,.95-.74,.35-.17,.73-.26,1.11-.27,1.34,0,2,.95,2,2.72v3.57h-1.15v-3.42c.04-.51-.05-1.02-.28-1.47-.23-.28-.59-.43-.95-.4-.44,.02-.84,.24-1.09,.6-.33,.39-.51,.88-.5,1.39v3.31h-1.19v-6.17h1.09Z"/><path class="cls-1" d="M49.76,48.3v3.57h-1.28v-8.55c.78-.12,1.57-.18,2.37-.18,.9-.06,1.8,.16,2.56,.63,.56,.4,.89,1.05,.86,1.74,.01,.55-.15,1.09-.47,1.54-.31,.42-.75,.73-1.25,.87h0c.45,.36,.78,.85,.95,1.41l.95,2.54h-1.31l-.95-2.54c-.09-.32-.29-.61-.55-.82-.36-.16-.75-.22-1.14-.19l-.74-.02Zm0-1.02h.71c1.66,0,2.5-.56,2.5-1.7,.02-.43-.18-.83-.53-1.07-.53-.28-1.13-.41-1.73-.36-.32,0-.64,.03-.95,.09v3.05Z"/><path class="cls-1" d="M55.54,50.19c-.02-.66,.31-1.28,.86-1.64,.76-.47,1.64-.68,2.53-.62h.59v-.07c.04-.37-.07-.74-.29-1.04-.3-.23-.68-.34-1.06-.29-.72,0-1.43,.18-2.06,.53l-.18-.95c.69-.36,1.46-.54,2.24-.53,.68-.05,1.35,.14,1.9,.54,.44,.45,.67,1.08,.61,1.71v2.36c0,.56,.05,1.13,.16,1.68h-1.1c-.06-.31-.09-.63-.1-.95h0c-.24,.34-.57,.61-.95,.78-.41,.19-.86,.29-1.31,.28-.47,0-.93-.18-1.28-.49-.36-.34-.56-.81-.54-1.3Zm3.95-1.39h-.56c-.57-.04-1.13,.09-1.63,.36-.35,.19-.56,.55-.57,.95,0,.26,.09,.51,.27,.69,.19,.18,.44,.27,.7,.26,.46,0,.9-.18,1.24-.5,.35-.32,.55-.78,.54-1.25l.02-.5Z"/><path class="cls-1" d="M63.55,45.7v.88h0c.26-.32,.58-.57,.95-.74,.34-.17,.72-.26,1.1-.27,1.34,0,2.01,.95,2.01,2.72v3.57h-1.16v-3.42c.04-.51-.05-1.02-.28-1.47-.23-.28-.59-.43-.95-.4-.44,.02-.85,.24-1.1,.6-.32,.39-.5,.88-.49,1.39v3.31h-1.18v-6.17h1.09Z"/><path class="cls-1" d="M68.91,48.66c-.05-.81,.17-1.62,.64-2.29,.44-.53,1.1-.82,1.79-.79,.78-.03,1.53,.35,1.96,1.01h0v-.88h1.13v5.55c0,2.2-1,3.31-3.01,3.31-.67,0-1.33-.11-1.96-.35l.24-.95c.55,.23,1.13,.35,1.72,.36,.52,.05,1.03-.15,1.39-.53,.34-.53,.5-1.15,.44-1.78v-.53h0c-.43,.62-1.15,.98-1.9,.95-.68,0-1.31-.3-1.73-.84-.48-.64-.73-1.43-.69-2.23Zm1.16,0c-.03,.55,.12,1.1,.44,1.56,.26,.36,.68,.57,1.12,.56,.46,.01,.9-.19,1.2-.54,.33-.44,.49-.98,.46-1.52v-.12c.03-.54-.13-1.08-.46-1.52-.29-.35-.74-.55-1.2-.54-.44-.02-.87,.18-1.14,.53-.31,.47-.46,1.03-.42,1.6Z"/><path class="cls-1" d="M76.98,49.25c0,.5,.2,.97,.57,1.31,.37,.33,.85,.51,1.35,.48,.62,0,1.23-.16,1.78-.45l.29,.89c-.69,.32-1.43,.48-2.19,.48-.81,.03-1.6-.29-2.17-.87-.58-.63-.89-1.46-.85-2.32-.05-.85,.24-1.69,.79-2.34,.54-.58,1.31-.89,2.11-.86,.77-.04,1.51,.26,2.04,.81,.53,.66,.79,1.49,.73,2.33v.53h-4.46Zm0-.95h3.32c.03-.49-.13-.97-.45-1.35-.3-.32-.73-.5-1.18-.48-.46-.02-.9,.16-1.22,.48-.33,.38-.5,.87-.48,1.37v-.03Z"/><path class="cls-1" d="M127.51,25.36v-3.27h12.07v3.27h-12.07Z"/><path class="cls-1" d="M150.58,35.03V11.66h-.08l-7.32,6.65-1.56-3.49,8.96-8.19h4.29v28.5l-4.29-.1Z"/><path class="cls-1" d="M171.43,6.19c2.91,0,5.16,.72,6.75,2.17,1.65,1.56,2.53,3.76,2.4,6.02-.03,2.7-.9,5.32-2.48,7.51-1.65,2.42-4.85,5.6-9.6,9.55v.09h12.08v3.51h-17.93v-3.51c5.3-4.21,8.87-7.5,10.72-9.88,1.65-1.91,2.62-4.31,2.76-6.83,0-3.33-1.77-4.99-5.3-4.99-2.67,.08-5.25,.96-7.42,2.52l-1.17-3.43c2.71-1.83,5.91-2.78,9.18-2.73Z"/><path class="cls-1" d="M304.19,6.19c2.91,0,5.16,.72,6.75,2.17,1.65,1.56,2.53,3.76,2.4,6.02-.03,2.7-.9,5.32-2.48,7.51-1.65,2.42-4.85,5.6-9.6,9.55v.09h12.08v3.51h-17.93v-3.51c5.3-4.21,8.87-7.5,10.72-9.88,1.65-1.91,2.62-4.31,2.76-6.83,0-3.33-1.77-4.99-5.3-4.99-2.67,.08-5.25,.96-7.42,2.52l-1.17-3.43c2.71-1.83,5.91-2.78,9.18-2.73Z"/><path class="cls-1" d="M214.04,25.52v10.63h-1.72v-1.04h0c-.88,1.25-2.6,1.55-3.85,.68-.2-.14-.38-.31-.54-.5-.59-.83-.88-1.83-.82-2.85-.07-1.01,.21-2.02,.79-2.85,1-1.17,2.75-1.31,3.92-.32,.15,.13,.29,.27,.41,.43h0v-4.19h1.8Zm-5.22,6.94c-.04,.63,.13,1.25,.48,1.77,.28,.39,.74,.62,1.23,.62,.48,.01,.94-.22,1.22-.61,.33-.5,.49-1.1,.46-1.7v-.14c.03-.6-.13-1.2-.46-1.7-.54-.68-1.53-.8-2.22-.25-.09,.07-.18,.16-.25,.25-.33,.53-.48,1.15-.45,1.77Z"/><path class="cls-1" d="M223.38,33.17c.06,.9-.32,1.77-1.02,2.34-.95,.59-2.07,.87-3.19,.78-.99,0-1.99-.07-2.97-.21v-10.2c.94-.15,1.9-.22,2.85-.22,2.65,0,3.97,.86,3.97,2.59,.01,.56-.2,1.1-.58,1.51-.41,.43-.96,.72-1.55,.82h0c.69,.07,1.34,.37,1.84,.85,.44,.47,.68,1.1,.65,1.74Zm-5.22-3.15h.52c.65,.04,1.31-.08,1.9-.36,.38-.22,.6-.63,.59-1.07,.03-.4-.15-.78-.47-1.01-.48-.26-1.02-.37-1.57-.32-.32,0-.64,.03-.95,.09l-.02,2.68Zm0,1.47v3.21c.35,.06,.71,.09,1.06,.09,.6,.05,1.21-.1,1.72-.43,.38-.33,.58-.83,.54-1.33,.03-.47-.21-.92-.62-1.17-.65-.29-1.37-.42-2.08-.37h-.63Z"/><path class="cls-1" d="M142.11,51.87v-8.64h1.25l2.85,5.07h0l2.85-5.07h1.3v8.64h-1.3v-6.4h0l-2.24,4.02h-1.18l-2.24-4.02h0v6.4h-1.29Z"/><path class="cls-1" d="M152.61,44.27v-1.28h1.25v1.28h-1.25Zm0,7.55v-6.12h1.25v6.17l-1.25-.05Z"/><path class="cls-1" d="M160.33,46.97c-.49-.27-1.03-.41-1.59-.42-.54-.02-1.06,.19-1.43,.58-.37,.47-.56,1.05-.52,1.64-.03,.6,.17,1.19,.55,1.64,.36,.39,.87,.61,1.41,.6,.55,0,1.1-.14,1.59-.41l.29,.95c-.61,.28-1.28,.42-1.95,.42-1.64,.09-3.04-1.17-3.13-2.81,0-.13,0-.26,0-.38-.05-.86,.25-1.71,.83-2.35,.62-.59,1.45-.89,2.3-.85,.67,0,1.34,.14,1.95,.42l-.29,.96Z"/><path class="cls-1" d="M167.13,48.59v3.28h-1.29v-8.55c.86-.12,1.73-.18,2.59-.18,.88-.06,1.75,.18,2.47,.69,.57,.49,.88,1.22,.84,1.97,0,1.9-1.1,2.85-3.31,2.85-.43,0-.87-.02-1.3-.06Zm0-1.04c.39,.06,.79,.09,1.19,.09,.57,.04,1.13-.12,1.59-.46,.72-.7,.74-1.85,.04-2.57l-.04-.04c-.47-.32-1.04-.48-1.61-.44-.4,0-.79,.02-1.19,.09l.02,3.32Z"/><path class="cls-1" d="M176.99,45.58v.95c-.75-.04-1.48,.21-2.05,.7-.51,.48-.79,1.15-.76,1.84v2.79h-1.21v-6.17h1.15v1.18h0c.7-.86,1.76-1.35,2.87-1.3Z"/><path class="cls-1" d="M179.25,49.25c0,.5,.2,.97,.57,1.31,.37,.33,.85,.51,1.35,.48,.62,0,1.23-.16,1.78-.45l.29,.89c-.69,.32-1.43,.48-2.19,.48-.81,.03-1.6-.29-2.17-.87-.58-.63-.89-1.46-.85-2.32-.05-.85,.23-1.69,.78-2.34,.54-.58,1.31-.89,2.11-.86,.77-.04,1.51,.25,2.04,.81,.53,.65,.79,1.49,.73,2.33v.53h-4.46Zm0-.95h3.32c.02-.49-.14-.97-.45-1.35-.31-.32-.74-.5-1.19-.48-.45-.02-.89,.16-1.21,.48-.33,.38-.5,.87-.47,1.37v-.03Z"/><path class="cls-1" d="M190.02,44.27v2.47h3.67v1.02h-3.67v3.02h3.9v1.09h-5.2v-8.64h5.2v1.04h-3.9Z"/><path class="cls-1" d="M195.99,51.87v-8.64h1.42v8.64h-1.42Z"/><path class="cls-1" d="M199.63,51.87v-8.64h1.27l4.04,6.43h0v-6.43h1.27v8.64h-1.27l-4.04-6.43h0v6.43h-1.27Z"/><g><path class="cls-1" d="M340.83,25.7l2.19,4.66h.03l2.2-4.66h2.25l-3.45,6.27v4.13h-2.08v-4.13l-3.45-6.27h2.31Z"/><path class="cls-1" d="M348.66,32.94c.06,.68,.26,1.18,.62,1.49,.36,.31,.89,.46,1.59,.46,.57,0,1.28-.14,2.12-.43v1.45c-.8,.22-1.58,.33-2.35,.33-1.24,0-2.2-.33-2.87-.98-.67-.65-1-1.61-1-2.87s.3-2.21,.9-2.86c.6-.66,1.46-.98,2.59-.98,2.17,0,3.25,1.27,3.25,3.8,0,.19-.01,.38-.04,.58h-4.8Zm0-1.24h3.05c0-1.22-.49-1.82-1.43-1.82-.5,0-.89,.14-1.15,.43-.26,.29-.42,.75-.48,1.4Z"/><path class="cls-1" d="M357.86,28.55c1.22,0,2.07,.22,2.55,.66s.73,1.2,.73,2.29v4.6h-1.77l-.03-1.03h-.03c-.58,.78-1.38,1.17-2.39,1.17-.65,0-1.18-.21-1.6-.63s-.63-.97-.63-1.65c0-.83,.32-1.47,.95-1.92s1.6-.68,2.9-.68h.71v-.24c0-.44-.1-.74-.31-.92s-.58-.26-1.11-.26c-.79,0-1.69,.17-2.71,.5v-1.45c.92-.29,1.84-.43,2.75-.43Zm1.38,3.99h-.71c-1.36,0-2.04,.42-2.04,1.25,0,.3,.09,.55,.26,.74s.4,.29,.68,.29c.54,0,.98-.17,1.31-.51,.33-.34,.5-.8,.5-1.39v-.38Z"/><path class="cls-1" d="M363.04,28.69h1.9v1.43h.03c.3-.44,.73-.78,1.27-1.04,.54-.26,1.13-.38,1.75-.38h.29v1.47h-.29c-.97,0-1.71,.22-2.22,.67-.51,.45-.76,1.09-.76,1.92v3.35h-1.97v-7.41Z"/><path class="cls-1" d="M375.02,30.33c-.79-.27-1.58-.4-2.38-.4-.85,0-1.28,.24-1.28,.71,0,.23,.08,.42,.24,.57,.16,.15,.44,.27,.83,.36,1.09,.22,1.84,.51,2.25,.88,.4,.37,.61,.91,.61,1.62s-.26,1.22-.78,1.6c-.52,.38-1.27,.57-2.24,.57s-1.81-.14-2.65-.43v-1.47c.8,.33,1.61,.5,2.44,.5,.87,0,1.31-.26,1.31-.77,0-.25-.08-.44-.25-.58s-.47-.27-.92-.38c-1-.22-1.71-.52-2.12-.9-.42-.38-.63-.87-.63-1.48,0-.68,.25-1.22,.76-1.6,.51-.38,1.26-.58,2.26-.58,.87,0,1.72,.11,2.57,.33v1.45Z"/></g><path class="cls-1" d="M225.14,28.69h1.85v4.32c0,.67,.09,1.12,.27,1.38s.48,.38,.91,.38c.39,0,.75-.17,1.09-.5,.34-.33,.51-.69,.51-1.07v-4.52h1.9v7.41h-1.8l-.03-.93h-.03c-.65,.71-1.41,1.07-2.28,1.07s-1.44-.23-1.82-.69c-.38-.46-.57-1.24-.57-2.34v-4.52Z"/><g><path class="cls-1" d="M261.79,52.12l3.09-9.02h1.48l3.09,9.02h-1.46l-.73-2.4h-3.33l-.73,2.4h-1.41Zm2.47-3.46h2.67l-1.32-4.32h-.02l-1.32,4.32Z"/><path class="cls-1" d="M274.41,51.32c-.59,.62-1.26,.93-2.01,.93s-1.26-.2-1.59-.6c-.34-.4-.51-1.06-.51-1.99v-3.95h1.27v3.77c0,.68,.09,1.15,.27,1.41,.18,.25,.49,.38,.93,.38,.39,0,.75-.17,1.09-.51s.51-.71,.51-1.09v-3.95h1.3v6.42h-1.21l-.02-.8h-.02Z"/><path class="cls-1" d="M276.96,48.91c0-1.05,.24-1.87,.71-2.46,.47-.58,1.1-.88,1.88-.88,.72,0,1.35,.27,1.89,.8h.02v-3.52h1.3v9.26h-1.21l-.03-.8h-.02c-.31,.35-.62,.59-.91,.72-.29,.14-.64,.2-1.04,.2-.75,0-1.37-.3-1.86-.9-.49-.6-.74-1.41-.74-2.43Zm4.51,.93v-1.85c0-.37-.16-.7-.48-.99-.32-.29-.69-.43-1.13-.43-1.07,0-1.61,.78-1.61,2.35,0,.79,.14,1.38,.43,1.77,.28,.39,.68,.58,1.18,.58,.44,0,.81-.14,1.13-.43,.32-.29,.48-.62,.48-.99Z"/><path class="cls-1" d="M284.91,44.21v-1.36h1.36v1.36h-1.36Zm0,7.9v-6.42h1.36v6.42h-1.36Z"/><path class="cls-1" d="M288.72,46.44c.54-.58,1.28-.87,2.22-.87s1.69,.29,2.22,.87c.54,.58,.8,1.4,.8,2.46s-.27,1.88-.8,2.46c-.54,.58-1.28,.87-2.22,.87s-1.69-.29-2.22-.87-.8-1.4-.8-2.46,.27-1.88,.8-2.46Zm.52,2.46c0,1.56,.57,2.35,1.7,2.35s1.7-.78,1.7-2.35-.57-2.35-1.7-2.35-1.7,.78-1.7,2.35Z"/><path class="cls-1" d="M298.12,48.91c0-1.05,.24-1.87,.71-2.46,.47-.58,1.1-.88,1.88-.88,.72,0,1.35,.27,1.89,.8h.02v-3.52h1.3v9.26h-1.21l-.03-.8h-.02c-.31,.35-.62,.59-.91,.72-.29,.14-.64,.2-1.04,.2-.75,0-1.37-.3-1.86-.9-.49-.6-.74-1.41-.74-2.43Zm4.51,.93v-1.85c0-.37-.16-.7-.48-.99-.32-.29-.69-.43-1.13-.43-1.07,0-1.61,.78-1.61,2.35,0,.79,.14,1.38,.43,1.77,.28,.39,.68,.58,1.18,.58,.44,0,.81-.14,1.13-.43,.32-.29,.48-.62,.48-.99Z"/><path class="cls-1" d="M306.52,49.28c.07,1.33,.75,2,2.03,2,.55,0,1.15-.13,1.79-.4v1.09c-.68,.18-1.32,.27-1.91,.27-1.03,0-1.82-.28-2.38-.84-.56-.56-.83-1.39-.83-2.5s.25-1.93,.75-2.5c.5-.56,1.22-.84,2.16-.84,.89,0,1.55,.27,1.99,.8s.66,1.36,.66,2.48c0,.12-.01,.26-.04,.43h-4.21Zm0-.96h2.98c-.02-1.19-.49-1.78-1.38-1.78-.49,0-.86,.14-1.12,.42s-.42,.73-.47,1.36Z"/><path class="cls-1" d="M314.46,46.56c-.87,0-1.3,.25-1.3,.74,0,.25,.08,.45,.25,.61,.16,.16,.45,.28,.86,.38,.95,.22,1.58,.49,1.91,.8s.49,.76,.49,1.37c0,.56-.22,1-.65,1.32-.43,.32-1.06,.47-1.88,.47-.76,0-1.46-.12-2.1-.37v-1.05c.64,.29,1.3,.43,1.98,.43,.91,0,1.36-.27,1.36-.8,0-.25-.09-.46-.27-.62-.18-.16-.5-.3-.96-.43-.84-.21-1.43-.47-1.77-.78-.34-.32-.51-.71-.51-1.19,0-.58,.21-1.03,.62-1.36,.42-.33,1.03-.49,1.85-.49,.71,0,1.41,.1,2.1,.31v1.05c-.68-.25-1.34-.37-1.98-.37Z"/><path class="cls-1" d="M318.59,44.21v-1.36h1.36v1.36h-1.36Zm0,7.9v-6.42h1.36v6.42h-1.36Z"/><path class="cls-1" d="M321.66,48.78c0-1.02,.22-1.81,.65-2.37,.44-.56,1.04-.84,1.82-.84,.4,0,.75,.07,1.04,.2s.59,.38,.91,.72h.02l.02-.8h1.21v5.99c0,1.12-.25,1.95-.75,2.48s-1.28,.8-2.33,.8c-.64,0-1.26-.08-1.85-.25v-1.11c.58,.25,1.19,.37,1.85,.37s1.08-.17,1.36-.53c.28-.35,.43-.92,.43-1.7v-.43h-.03c-.54,.54-1.17,.8-1.89,.8s-1.32-.29-1.78-.88c-.46-.58-.69-1.4-.69-2.46Zm4.38,.8v-1.48c0-.41-.15-.77-.46-1.08-.3-.31-.67-.46-1.09-.46-1.03,0-1.54,.74-1.54,2.22,0,.79,.14,1.38,.41,1.77,.28,.39,.65,.58,1.13,.58,.42,0,.78-.15,1.09-.46s.46-.67,.46-1.08Z"/><path class="cls-1" d="M330.26,46.5c.59-.62,1.26-.93,2.01-.93s1.3,.21,1.64,.64,.52,1.12,.52,2.08v3.83h-1.26v-3.64c0-.73-.09-1.23-.28-1.51-.18-.27-.52-.41-.99-.41-.39,0-.75,.17-1.09,.51s-.51,.71-.51,1.09v3.95h-1.3v-6.42h1.21l.02,.8h.02Z"/><path class="cls-1" d="M340.2,49.28c.07,1.33,.75,2,2.03,2,.55,0,1.15-.13,1.79-.4v1.09c-.68,.18-1.32,.27-1.91,.27-1.03,0-1.82-.28-2.38-.84-.56-.56-.83-1.39-.83-2.5s.25-1.93,.75-2.5c.5-.56,1.22-.84,2.16-.84,.89,0,1.55,.27,1.99,.8s.66,1.36,.66,2.48c0,.12-.01,.26-.04,.43h-4.21Zm0-.96h2.98c-.02-1.19-.49-1.78-1.38-1.78-.49,0-.86,.14-1.12,.42s-.42,.73-.47,1.36Z"/><path class="cls-1" d="M347.94,49.65h-.02l-1.41,2.47h-1.4l2.1-3.27-2.04-3.15h1.44l1.35,2.35h.02l1.35-2.35h1.4l-2.04,3.15,2.1,3.27h-1.45l-1.41-2.47Z"/><path class="cls-1" d="M357.94,48.91c0,1.02-.25,1.83-.73,2.43-.49,.6-1.11,.9-1.86,.9s-1.35-.27-1.89-.8h-.03v3.4h-1.3v-9.14h1.21l.02,.8h.02c.31-.35,.62-.59,.91-.72s.64-.2,1.04-.2c.78,0,1.41,.29,1.88,.88,.47,.58,.71,1.4,.71,2.46Zm-4.51,.93c0,.38,.16,.71,.48,.99,.32,.28,.69,.43,1.13,.43,.49,0,.89-.2,1.17-.59,.29-.4,.43-.98,.43-1.75,0-1.56-.54-2.35-1.61-2.35-.44,0-.81,.14-1.13,.43-.32,.28-.48,.62-.48,.99v1.85Z"/><path class="cls-1" d="M360.23,49.28c.07,1.33,.75,2,2.03,2,.55,0,1.15-.13,1.79-.4v1.09c-.68,.18-1.32,.27-1.91,.27-1.03,0-1.82-.28-2.38-.84-.56-.56-.83-1.39-.83-2.5s.25-1.93,.75-2.5c.5-.56,1.22-.84,2.16-.84,.89,0,1.55,.27,1.99,.8s.66,1.36,.66,2.48c0,.12-.01,.26-.04,.43h-4.21Zm0-.96h2.98c-.02-1.19-.49-1.78-1.38-1.78-.49,0-.86,.14-1.12,.42s-.42,.73-.47,1.36Z"/><path class="cls-1" d="M369.96,46.75h-.25c-.89,0-1.54,.19-1.96,.56-.42,.38-.63,.95-.63,1.72v3.09h-1.36v-6.42h1.3v1.24h.03c.26-.38,.63-.68,1.1-.9,.47-.22,.98-.33,1.53-.33h.25v1.05Z"/><path class="cls-1" d="M371.8,44.21v-1.36h1.36v1.36h-1.36Zm0,7.9v-6.42h1.36v6.42h-1.36Z"/><path class="cls-1" d="M376.12,49.28c.07,1.33,.75,2,2.03,2,.55,0,1.15-.13,1.79-.4v1.09c-.68,.18-1.32,.27-1.91,.27-1.03,0-1.82-.28-2.38-.84-.56-.56-.83-1.39-.83-2.5s.25-1.93,.75-2.5c.5-.56,1.22-.84,2.16-.84,.89,0,1.55,.27,1.99,.8s.66,1.36,.66,2.48c0,.12-.01,.26-.04,.43h-4.21Zm0-.96h2.98c-.02-1.19-.49-1.78-1.38-1.78-.49,0-.86,.14-1.12,.42s-.42,.73-.47,1.36Z"/><path class="cls-1" d="M382.92,46.5c.59-.62,1.26-.93,2.01-.93s1.3,.21,1.64,.64,.52,1.12,.52,2.08v3.83h-1.26v-3.64c0-.73-.09-1.23-.28-1.51-.18-.27-.52-.41-.99-.41-.39,0-.75,.17-1.09,.51s-.51,.71-.51,1.09v3.95h-1.3v-6.42h1.21l.02,.8h.02Z"/><path class="cls-1" d="M388.25,48.91c0-1.08,.26-1.9,.78-2.48,.52-.57,1.25-.86,2.19-.86,.58,0,1.17,.06,1.79,.19v1.11c-.58-.19-1.14-.28-1.7-.28s-.98,.19-1.27,.56c-.28,.37-.43,.96-.43,1.77s.15,1.42,.44,1.78c.3,.36,.75,.54,1.37,.54,.54,0,1.09-.12,1.64-.35v1.11c-.58,.16-1.15,.25-1.73,.25-.99,0-1.75-.28-2.29-.85-.54-.56-.8-1.39-.8-2.49Z"/><path class="cls-1" d="M395.54,49.28c.07,1.33,.75,2,2.03,2,.55,0,1.15-.13,1.79-.4v1.09c-.68,.18-1.32,.27-1.91,.27-1.03,0-1.82-.28-2.38-.84-.56-.56-.83-1.39-.83-2.5s.25-1.93,.75-2.5c.5-.56,1.22-.84,2.16-.84,.89,0,1.55,.27,1.99,.8s.66,1.36,.66,2.48c0,.12-.01,.26-.04,.43h-4.21Zm0-.96h2.98c-.02-1.19-.49-1.78-1.38-1.78-.49,0-.86,.14-1.12,.42s-.42,.73-.47,1.36Z"/></g></svg>