<?xml version="1.0" encoding="UTF-8"?> <svg xmlns="http://www.w3.org/2000/svg" width="423.805" height="51.877" viewBox="0 0 423.805 51.877"><g id="Group_10056" data-name="Group 10056" transform="translate(-361 -322.123)"><path id="Path_11887" data-name="Path 11887" d="M-168.05-36.534h-18.969l-3.563,10.108H-201.83L-183.455-75.6H-171.3l18.235,49.175h-11.668Zm-3-8.474-6.428-19.35-6.637,19.35Zm64.13,18.582h-13.065l-9.781-16.747-10.34,16.747h-12.506l16.558-25.054L-151.813-75.6h12.855l9.187,15.98,9.432-15.98H-107.9l-15.755,23.72Zm45.93,0H-74.059L-83.84-43.173-94.18-26.426h-12.506L-90.128-51.48-105.883-75.6h12.855l9.187,15.98,9.432-15.98h12.436l-15.755,23.72Zm37.66-21.485H-48.346v12.644h28.505v8.841h-39.02V-75.6H-21.1v8.707H-48.346v10.442h25.012ZM2.728-33.532a19.777,19.777,0,0,0,6.183-.8q4.506-1.535,4.506-5.7a4.175,4.175,0,0,0-2.236-3.77,24.8,24.8,0,0,0-7.022-2.3l-5.45-1.168q-8.035-1.735-11.109-3.77-5.205-3.4-5.205-10.642a13.93,13.93,0,0,1,5.03-10.976q5.03-4.37,14.777-4.37a23.2,23.2,0,0,1,13.886,4.12q5.746,4.12,6.026,11.96H11.775A7.03,7.03,0,0,0,7.723-67.26,14.133,14.133,0,0,0,1.47-68.495a12.1,12.1,0,0,0-6.637,1.6,5.042,5.042,0,0,0-2.48,4.47A4.208,4.208,0,0,0-5.2-58.486,30.932,30.932,0,0,0,1.5-56.451l8.873,2.035a23.5,23.5,0,0,1,8.8,3.57q4.611,3.47,4.611,10.042a13.918,13.918,0,0,1-5.4,11.193Q13-25.158,3.147-25.158q-10.061,0-15.825-4.387a14.323,14.323,0,0,1-5.764-12.06h10.27A9.829,9.829,0,0,0-6.25-36.568Q-3.63-33.532,2.728-33.532Zm44.572,0a19.777,19.777,0,0,0,6.183-.8q4.506-1.535,4.506-5.7a4.175,4.175,0,0,0-2.236-3.77,24.8,24.8,0,0,0-7.022-2.3l-5.45-1.168q-8.035-1.735-11.109-3.77-5.205-3.4-5.205-10.642A13.93,13.93,0,0,1,32-72.665q5.03-4.37,14.777-4.37a23.2,23.2,0,0,1,13.886,4.12q5.747,4.12,6.026,11.96H56.347A7.03,7.03,0,0,0,52.3-67.26a14.133,14.133,0,0,0-6.253-1.234,12.1,12.1,0,0,0-6.637,1.6,5.042,5.042,0,0,0-2.48,4.47,4.208,4.208,0,0,0,2.445,3.937,30.932,30.932,0,0,0,6.707,2.035l8.873,2.035a23.5,23.5,0,0,1,8.8,3.57q4.611,3.47,4.611,10.042a13.918,13.918,0,0,1-5.4,11.193q-5.4,4.454-15.248,4.454-10.061,0-15.825-4.387a14.323,14.323,0,0,1-5.764-12.06H36.4a9.829,9.829,0,0,0,1.921,5.038Q40.942-33.532,47.3-33.532Z" transform="translate(716.44 399.158)" fill="#eb5e38"></path><g id="Group_10055" data-name="Group 10055"><path id="Union_3" data-name="Union 3" d="M-10133,10699v-31h63v12h-51v19Zm-19,0h-51v-50h63v12h-51v26h39v-7h-23v-12h35v31Zm19-38v-12h63v12Z" transform="translate(10564 -10326)" fill="#2b2a28"></path><rect id="Rectangle_4695" data-name="Rectangle 4695" width="12" height="12" transform="translate(482 361)" fill="#eb5e38"></rect></g></g></svg> 