<?xml version="1.0" encoding="UTF-8"?> <!-- Generator: Adobe Illustrator 24.1.2, SVG Export Plug-In . SVG Version: 6.00 Build 0) --> <svg xmlns="http://www.w3.org/2000/svg" xmlns:xlink="http://www.w3.org/1999/xlink" version="1.1" x="0px" y="0px" viewBox="0 0 319.8 155.9" style="enable-background:new 0 0 319.8 155.9;" xml:space="preserve"> <style type="text/css"> .st0{fill:#ECECEC;} .st1{fill:#191919;} .st2{fill:#A5673F;} .st3{fill:none;} .st4{fill:#FFFFFF;} .st5{fill:none;stroke:#A5673F;stroke-width:2;stroke-miterlimit:10;} .st6{fill:none;stroke:#000000;stroke-width:0.3;stroke-linecap:round;stroke-linejoin:round;stroke-miterlimit:10;} .st7{fill:none;stroke:#000000;stroke-width:0.5;stroke-linecap:round;stroke-linejoin:round;stroke-miterlimit:10;} .st8{fill:#262626;} .st9{fill:none;stroke:#000000;stroke-width:0.3;stroke-linejoin:round;} .st10{fill:#161616;} </style> <g id="Layer_3"> <circle class="st0" cx="159.9" cy="77.8" r="76.7"></circle> </g> <g id="Layer_2"> <polygon class="st1" points="118,84 125.3,85.5 124.2,107.8 123.6,108.6 121.9,108.7 119.8,108.1 "></polygon> <path class="st1" d="M141.2,69.8l21.6,3.9l1.3,1.1l-0.4,2.6c0,0-0.7,4.3,0.8,7.2c1.4,2.9,48-8,48-8s1.4-0.7,1.4-3 c0.1-2.2,0.4-3.4-1.7-4.3c-1.3,0-2.2,0.4-3.7-0.3c-1.5-0.8-4.4-3.1-2.8-8.5c0.3-0.4,0.1-2,0.1-2l0.2-0.3l-2.2-0.5l-10.4-1.1 l-3.9-0.5l-5.4-5.3l-5.8-20.6l-1.2,1.2l5.6,19.9L141.2,69.8z"></path> <polyline class="st1" points="159.4,97 168.3,98.9 167.7,99.6 166.5,100 165,100 160,98.2 159.4,97 "></polyline> <polygon class="st1" points="161,98.9 163,100.1 165.2,99.4 162.1,98.3 "></polygon> <path class="st1" d="M152.9,56.6l5.5,0.2c0,0,1.8-2-4.7,5.6c-6.5,7.6-7.7,15.7-12.6,10.2c-4.8-5.5-16.6-0.2-3.4-8.8 S152.9,56.6,152.9,56.6"></path> <path class="st1" d="M194.2,88.3l0.8,16.2c0,0,0.3,1.3,2.1,1c1.8-0.3,2.4,0.2,2.5-2.6c0.2-2.8,1-18.3,1-18.3L194.2,88.3"></path> <path class="st1" d="M172.8,114.5c-1.1,0.7-1.7,0.2-1.8,1.2c-0.1,0.9,0,2.8,0,2.8s-0.3,0.7,1.5,0.9c1.8,0.2,2.1,0.8,2.7,0.4 c0.7-0.4,6.8-4.7,6.8-4.7s0-1.7,0-2.1c0-0.5-0.5-1.6-1.6-1.4c-1.1,0.1-3.1,0.2-3.8,0.6S172.8,114.5,172.8,114.5"></path> </g> <g id="Layer_1"> <path class="st2" d="M286.2,72.2c-5.5,0-11,0-16.4,0c-0.2,0-0.4,0-0.5,0c-0.5,0-0.7-0.2-0.7-0.8c0-0.9,0-1.7,0-2.6 c0-4.3,0-8.6,0-12.9c0-1,0.1-1.1,1-1.1c11.1,0,22.3,0,33.4,0c0.9,0,1,0.1,1,1.1c0,5.1,0,10.2,0,15.2c0,1-0.1,1.1-0.9,1.1 C297.4,72.2,291.8,72.2,286.2,72.2z"></path> <path class="st3" d="M286.5,101c0-8.7,0-17.4,0-26.2c7.7,0,15.4,0,23.1,0c0,8.7,0,17.4,0,26.2C301.9,101,294.2,101,286.5,101z M290.3,88.3c0.1-0.4,0.2-0.7,0.3-1c0.5-1.7,1-3.4,1.8-5c0.3-0.6,0.6-1.1,1-1.6c0.5-0.6,1.1-0.6,1.6,0.1c0.4,0.5,0.6,1.1,0.8,1.7 c0.5,1.7,0.8,3.4,1.1,5.1c0.3,1.9,0.6,3.7,1.1,5.6c0.3,1.1,0.7,2.3,1.4,3.2c1.1,1.6,2.9,1.8,4.3,0.5c0.6-0.5,1-1.1,1.3-1.8 c0.7-1.4,1.2-2.9,1.7-4.4c0.3-0.8,0.5-1.6,0.8-2.4c-0.6-0.3-1.2-0.5-1.8-0.8c0,0.1-0.1,0.2-0.1,0.3c-0.3,0.9-0.6,1.9-0.9,2.8 c-0.4,1.2-0.8,2.4-1.4,3.4c-0.2,0.4-0.5,0.8-0.8,1.1c-0.5,0.6-1.1,0.5-1.6-0.1c-0.3-0.3-0.5-0.7-0.6-1.1c-0.5-1.1-0.7-2.3-0.9-3.5 c-0.4-2-0.7-4-1.1-6.1c-0.3-1.4-0.6-2.8-1.3-4.1c-0.4-0.8-0.9-1.5-1.6-1.9c-1.1-0.6-2.4-0.3-3.4,0.7c-0.7,0.7-1.1,1.6-1.6,2.5 c-0.7,1.6-1.2,3.3-1.8,5c-0.1,0.3-0.2,0.6-0.3,0.9C289.1,87.8,289.6,88,290.3,88.3z"></path> <path d="M288.9,88.5c-0.8-0.3-1.5-0.5-2.2-0.8c0.1-0.3,0.2-0.6,0.3-0.9c0.7-1.8,1.3-3.7,2.2-5.4c0.5-1,1.1-1.9,1.9-2.7 c1.2-1.2,2.8-1.5,4.2-0.8c0.9,0.4,1.5,1.2,2,2c0.8,1.4,1.2,2.9,1.6,4.4c0.5,2.2,0.9,4.4,1.4,6.6c0.3,1.3,0.6,2.6,1.2,3.8 c0.2,0.4,0.5,0.9,0.8,1.2c0.6,0.7,1.3,0.7,2,0.1c0.4-0.3,0.7-0.8,1-1.2c0.7-1.2,1.2-2.4,1.7-3.7c0.4-1,0.8-2,1.1-3.1 c0-0.1,0.1-0.2,0.1-0.3c0.8,0.3,1.5,0.6,2.2,0.8c-0.3,0.9-0.6,1.8-0.9,2.6c-0.6,1.6-1.2,3.2-2.1,4.7c-0.4,0.7-1,1.4-1.6,2 c-1.7,1.4-4,1.2-5.4-0.6c-0.8-1-1.3-2.2-1.7-3.5c-0.6-2-1-4-1.4-6c-0.4-1.9-0.7-3.7-1.4-5.5c-0.2-0.7-0.5-1.3-1-1.8 c-0.6-0.7-1.1-0.7-2-0.1c-0.5,0.5-0.9,1.1-1.2,1.7"></path> <path class="st4" d="M274.6,68.7l-2.1-10h1.8l1.3,6.9l1.6-6.9h2.1l1.6,7l1.4-7h1.8l-2.1,10h-1.9l-1.8-7.5l-1.8,7.5H274.6z"></path> <path class="st4" d="M292.3,68.7h-1.9l-0.8-2.3h-3.5l-0.7,2.3h-1.9l3.4-10h1.9L292.3,68.7z M289,64.7l-1.2-3.7l-1.2,3.7H289z"></path> <path class="st4" d="M294.6,68.7l-3.2-10h1.9l2.2,7.4l2.2-7.4h1.9l-3.2,10H294.6z"></path> <path class="st2" d="M17.6,72.2c-5.5,0-11,0-16.4,0c-0.2,0-0.4,0-0.5,0C0.2,72.2,0,72,0,71.4c0-0.9,0-1.7,0-2.6c0-4.3,0-8.6,0-12.9 c0-1,0.1-1.1,1-1.1c11.1,0,22.3,0,33.4,0c0.9,0,1,0.1,1,1.1c0,5.1,0,10.2,0,15.2c0,1-0.1,1.1-0.9,1.1 C28.7,72.2,23.1,72.2,17.6,72.2z"></path> <path d="M25.2,91.1c0-0.3,0-0.4,0-0.6c0-3.6,0-7.2,0-10.8c0-0.5,0.1-0.7,0.6-0.8c4-0.7,8.1-1.4,12.1-2.1c0.1,0,0.2,0,0.4,0 c0,0.3,0,0.5,0,0.7c0,4.7,0,9.4,0,14.2c0,1.9-1.3,3.4-3.1,3.7c-0.9,0.1-1.8,0-2.6-0.6c-1.3-1-1.6-2.8-0.6-4.2 c0.9-1.4,2.2-1.8,3.7-1.6c0.1,0,0.2,0.1,0.4,0.1c0.1,0,0.2,0.1,0.4,0.1c0-2.4,0-4.7,0-7c-3.2,0.5-6.4,1.1-9.6,1.6 c0,0.2,0,0.3,0,0.5c0,3-0.1,6,0,9c0.1,2.8-2.1,4.2-4,4c-1.4-0.2-2.5-1-2.8-2.3c-0.3-1.2,0.1-2.2,0.8-3c1-1.1,2.3-1.4,3.7-1 C24.8,91,25,91,25.2,91.1z"></path> <g> <line class="st5" x1="60.9" y1="77.8" x2="82.3" y2="77.8"></line> <polygon class="st2" points="79.9,81.3 92.9,77.8 79.9,74.3 "></polygon> <line class="st5" x1="226.9" y1="77.8" x2="248.3" y2="77.8"></line> <polygon class="st2" points="245.9,81.3 258.9,77.8 245.9,74.3 "></polygon> </g> <path class="st4" d="M5.3,68.7v-10H8l1.6,6.8l1.6-6.8h2.7v10h-1.7v-7.9l-1.8,7.9H8.7l-1.8-7.9v7.9H5.3z"></path> <path class="st4" d="M15.5,68.7v-10h1.8v10H15.5z"></path> <path class="st4" d="M19,58.7h3.3c0.7,0,1.3,0.1,1.7,0.2c0.5,0.2,1,0.5,1.3,0.9s0.7,1,0.8,1.6c0.2,0.6,0.3,1.4,0.3,2.4 c0,0.8-0.1,1.5-0.3,2.1c-0.2,0.7-0.5,1.3-0.9,1.8c-0.3,0.3-0.7,0.6-1.3,0.8c-0.4,0.1-0.9,0.2-1.6,0.2h-3.4v-10H19z M20.8,60.4V67 h1.3c0.5,0,0.9,0,1.1-0.1c0.3-0.1,0.5-0.2,0.7-0.4s0.3-0.5,0.5-1s0.2-1.1,0.2-1.8c0-0.7-0.1-1.4-0.2-1.8c-0.1-0.4-0.3-0.7-0.5-1 s-0.5-0.4-0.8-0.5c-0.2-0.1-0.7-0.1-1.5-0.1L20.8,60.4L20.8,60.4L20.8,60.4z"></path> <path class="st4" d="M27.9,68.7v-10h1.8v10H27.9z"></path> <path class="st6" d="M159.1,132.3c0.7-0.6,2.1-0.4,3,0.7c0.9,1,1,2.4,0.3,3.1"></path> <path class="st7" d="M161.1,137.3l1.8-1.7c0.7-0.6,0.6-2-0.3-3c-0.9-1-2.2-1.3-2.9-0.6l-1,0.8"></path> <path class="st4" d="M160.4,132.1c0-0.3-0.5-0.5-1.2-0.5c-0.6,0-1.2,0.3-1.2,0.5v1.1"></path> <path class="st7" d="M160.4,132.1c0-0.3-0.5-0.5-1.2-0.5c-0.6,0-1.2,0.3-1.2,0.5v1.1"></path> <path class="st4" d="M160.4,132.1c0,0.3-0.5,0.5-1.2,0.5c-0.6,0-1.2-0.3-1.2-0.5"></path> <path class="st6" d="M160.4,132.1c0,0.3-0.5,0.5-1.2,0.5c-0.6,0-1.2-0.3-1.2-0.5"></path> <path class="st6" d="M160.1,132.1c0,0.2-0.4,0.4-0.8,0.4c-0.5,0-0.8-0.2-0.8-0.4"></path> <path class="st6" d="M158.2,133.1c0.7-0.6,2.2-0.4,3.1,0.7c0.9,1.1,1,2.5,0.3,3.1"></path> <path class="st6" d="M157.7,133.5c0.8-0.6,2.2-0.4,3.1,0.7s1,2.5,0.3,3.2"></path> <path class="st7" d="M158.2,133.1l-0.5,0.5c-0.8,0.6-0.6,2.1,0.3,3.2s2.3,1.4,3.1,0.7"></path> <polyline class="st7" points="160.1,132.1 160.1,130.2 158.3,130.2 158.3,132.1 "></polyline> <polyline class="st8" points="156.5,129.3 156.6,130.9 159.8,131.6 162,130.3 162,128.9 "></polyline> <polyline class="st7" points="156.5,129.3 156.6,130.9 159.8,131.6 162,130.3 162,128.9 "></polyline> <line class="st6" x1="159.8" y1="131.6" x2="159.8" y2="130.3"></line> <path class="st8" d="M147.2,90.6v5.6c0,0,6.9,1.5,7.5,6.6c0.5,5,1.7,26.5,1.7,26.5l3.5,0.8l2.3-1.4l1.1-26.5c0,0,0-1.3,1-2.2"></path> <path class="st7" d="M147.2,90.6v5.6c0,0,6.9,1.5,7.5,6.6c0.5,5,1.7,26.5,1.7,26.5l3.5,0.8l2.3-1.4l1.1-26.5c0,0,0-1.3,1-2.2"></path> <path class="st6" d="M159.9,130.1l-0.5-27.2c0,0-0.1-1.1,1.1-1.9"></path> <path class="st6" d="M197.2,107.3c0.5-0.5,1.6-0.3,2.4,0.5c0.7,0.8,0.8,1.9,0.2,2.4"></path> <path class="st7" d="M198.6,111.2l1.5-1.4c0.5-0.5,0.5-1.5-0.2-2.4c-0.7-0.8-1.7-1-2.3-0.5l-0.8,0.6"></path> <path class="st4" d="M198.2,107.1c0-0.2-0.5-0.4-0.9-0.4s-0.9,0.2-0.9,0.4v0.9"></path> <path class="st7" d="M198.2,107.1c0-0.2-0.5-0.4-0.9-0.4s-0.9,0.2-0.9,0.4v0.9"></path> <path class="st4" d="M198.2,107.1c0,0.2-0.5,0.4-0.9,0.4s-0.9-0.2-0.9-0.4"></path> <path class="st6" d="M198.2,107.1c0,0.2-0.5,0.4-0.9,0.4s-0.9-0.2-0.9-0.4"></path> <path class="st6" d="M197.9,107.1c0,0.2-0.3,0.3-0.6,0.3s-0.6-0.1-0.6-0.3"></path> <path class="st6" d="M196.4,107.8c0.6-0.5,1.6-0.3,2.4,0.5c0.7,0.8,0.8,1.9,0.2,2.5"></path> <path class="st6" d="M196,108.2c0.6-0.5,1.7-0.3,2.4,0.5c0.7,0.8,0.8,1.9,0.2,2.5"></path> <path class="st7" d="M196.4,107.8l-0.5,0.4c-0.6,0.5-0.5,1.6,0.2,2.5s1.8,1.1,2.4,0.5"></path> <rect x="196.5" y="105.7" class="st4" width="1.4" height="1.5"></rect> <polyline class="st7" points="197.9,107.1 197.9,105.7 196.5,105.7 196.5,107.1 "></polyline> <polyline class="st8" points="195.1,105 195.1,106.2 197.7,106.7 199.3,105.7 199.3,104.6 "></polyline> <polyline class="st7" points="195.1,105 195.1,106.2 197.7,106.7 199.3,105.7 199.3,104.6 "></polyline> <line class="st6" x1="197.7" y1="106.7" x2="197.7" y2="105.7"></line> <polygon class="st7" points="170.9,118.9 174.7,119.9 182.1,115.3 182.1,112.1 178.5,111.2 170.8,115.6 "></polygon> <polyline class="st6" points="174.7,119.9 174.7,116.7 182.1,112.1 "></polyline> <line class="st6" x1="174.7" y1="116.7" x2="170.8" y2="115.6"></line> <polyline class="st6" points="173.1,114.4 174.6,114.8 176,114 "></polyline> <polyline class="st8" points="173.1,114.4 172.6,97.5 176.2,96.3 176,114 "></polyline> <polyline class="st7" points="173.1,114.4 172.6,97.5 176.2,96.3 176,114 "></polyline> <line class="st6" x1="174.6" y1="114.8" x2="174.6" y2="98"></line> <polyline class="st6" points="177,112.1 178.6,112.6 179.9,111.7 "></polyline> <polyline class="st8" points="177,112.1 176.5,95.3 180.1,94.1 179.9,111.7 "></polyline> <polyline class="st7" points="177,112.1 176.5,95.3 180.1,94.1 179.9,111.7 "></polyline> <line class="st6" x1="178.6" y1="112.6" x2="178.6" y2="95.8"></line> <polygon class="st6" points="175.8,118.8 175.8,117.7 177,116.9 177,118 "></polygon> <polygon class="st6" points="177.9,117.4 177.9,116.2 179.2,115.5 179.2,116.6 "></polygon> <polygon class="st6" points="179.9,116.1 179.9,115 181.2,114.3 181.2,115.4 "></polygon> <path class="st4" d="M176.9,117.5c1.4,0.3,3.2,0.6,3.6,1.3c0.2,0.2,0.2,0.4,0.2,0.5v0.3c0,0,0,0.5-1.1,0.5c-0.6,0-1.3-0.1-1.9-0.7 c-1-0.9-1.5-1.1-1.5-1.1"></path> <path class="st7" d="M176.9,117.5c1.4,0.3,3.2,0.6,3.6,1.3c0.2,0.2,0.2,0.4,0.2,0.5v0.3c0,0,0,0.5-1.1,0.5c-0.6,0-1.3-0.1-1.9-0.7 c-1-0.9-1.5-1.1-1.5-1.1"></path> <path class="st4" d="M181,114.8c0,0,1.6,0.2,2.9,0.1c1.3-0.1,2.2,0,2.2,0.4v0.5c-0.3,0.6-2,0.7-2.9,0.6c-1.4-0.1-2.8-0.6-2.8-0.6"></path> <path class="st7" d="M181,114.8c0,0,1.6,0.2,2.9,0.1c1.3-0.1,2.2,0,2.2,0.4v0.5c-0.3,0.6-2,0.7-2.9,0.6c-1.4-0.1-2.8-0.6-2.8-0.6"></path> <path class="st4" d="M178.3,116.9c0,0,1.3,0.4,2.2,0.9c0.6,0.4,1.3,0.5,1.8,0.5s1.4-0.3,1.4-0.5c0-0.4,0-0.4,0-0.4s0.1-0.5-1.1-0.8 c-1.4-0.3-3.5-0.5-3.5-0.5"></path> <path class="st7" d="M178.3,116.9c0,0,1.3,0.4,2.2,0.9c0.6,0.4,1.3,0.5,1.8,0.5s1.4-0.3,1.4-0.5c0-0.4,0-0.4,0-0.4s0.1-0.5-1.1-0.8 c-1.4-0.3-3.5-0.5-3.5-0.5"></path> <path class="st7" d="M193.9,83.6c0.4,3.9,1.2,21.3,1.2,21.3l2.7,0.6l1.8-1.1l1.2-22.4"></path> <line class="st6" x1="197.7" y1="105.5" x2="197.6" y2="82.7"></line> <polyline class="st8" points="213.6,75.6 213.5,77.7 172.4,99.9 136.6,92.3 136.6,89.5 "></polyline> <polyline class="st7" points="213.6,75.6 213.5,77.7 172.4,99.9 136.6,92.3 136.6,89.5 "></polyline> <line class="st6" x1="172.4" y1="99.9" x2="172.4" y2="96.9"></line> <path class="st7" d="M160.4,101c0.7-0.5,1.9-0.9,3.8-1c0.5,0,1.2,0.1,1.9,0.2l2.6-1"></path> <line class="st6" x1="166.2" y1="100.2" x2="166.2" y2="98.6"></line> <line class="st6" x1="174.3" y1="95.7" x2="212.7" y2="75.7"></line> <path class="st6" d="M121.9,110.6c0.6-0.5,1.6-0.2,2.3,0.6c0.6,0.8,0.7,1.9,0.1,2.4"></path> <path class="st7" d="M123.2,114.6l1.5-1.3c0.6-0.5,0.5-1.5-0.1-2.4c-0.6-0.8-1.6-1.1-2.3-0.6l-0.8,0.6"></path> <path class="st4" d="M122.9,110.5c0-0.2-0.5-0.5-0.9-0.5c-0.5,0-0.9,0.2-0.9,0.4v0.9"></path> <path class="st7" d="M122.9,110.5c0-0.2-0.5-0.5-0.9-0.5c-0.5,0-0.9,0.2-0.9,0.4v0.9"></path> <path class="st4" d="M122.9,110.5c0,0.2-0.5,0.4-0.9,0.4c-0.5,0-0.9-0.2-0.9-0.5"></path> <path class="st6" d="M122.9,110.5c0,0.2-0.5,0.4-0.9,0.4c-0.5,0-0.9-0.2-0.9-0.5"></path> <path class="st6" d="M122.6,110.5c0,0.2-0.3,0.3-0.6,0.3c-0.4,0-0.6-0.2-0.6-0.3"></path> <path class="st6" d="M121.1,111.1c0.6-0.5,1.6-0.2,2.4,0.6c0.7,0.8,0.7,1.9,0.1,2.5"></path> <path class="st6" d="M120.7,111.5c0.6-0.5,1.7-0.3,2.4,0.6c0.7,0.8,0.7,2,0.1,2.5"></path> <path class="st7" d="M121.1,111.1l-0.5,0.4c-0.6,0.5-0.5,1.6,0.1,2.5c0.7,0.8,1.7,1.1,2.4,0.6"></path> <polyline class="st4" points="122.6,110.5 122.6,109 121.2,109 121.2,110.4 "></polyline> <polyline class="st7" points="122.6,110.5 122.6,109 121.2,109 121.2,110.4 "></polyline> <polyline class="st8" points="119.9,108.2 119.9,109.4 122.4,110.1 124.1,109.1 124.2,108 "></polyline> <polyline class="st7" points="119.9,108.2 119.9,109.4 122.4,110.1 124.1,109.1 124.2,108 "></polyline> <line class="st6" x1="122.4" y1="110.1" x2="122.4" y2="109"></line> <path class="st7" d="M143,56.8c0,0,10.8,0.5,20.6-0.5s17.8-1,26,0L206,58v2c-0.7,1.7-0.6,3.8-0.6,3.8c0,4.5,3.8,5.2,3.8,5.2 s0.5,0.2,2.6,0.4s2.1,1.9,2.1,1.9v3.8l-1.2,0.6"></path> <path class="st7" d="M112.5,78.7v1.2c0,0,5.4,1.4,5.6,5.3c0.3,4,1.6,22.9,1.6,22.9l2.6,0.7l1.8-1l1.2-22.8c0,0,0-1,0.8-1.7"></path> <path class="st6" d="M122.4,108.9l-0.1-23.3c0,0-0.1-2.2,3.9-2.2c0.5,0,0.9,0.1,1.5,0.2l2-0.7"></path> <path class="st8" d="M141.2,69.8l23,4.2v2.5c0,0-1.2,0.8-0.5,5.2c0.7,4.8,4.5,5.8,4.5,5.8s1.5,0.5,3.9,1.1c2.2,0.5,2.3,2.6,2.3,2.6 v4.6l-2.4,1.3L136,89.4c-0.2-2-1.5-2.1-1.5-2.1s-17.7-3.5-24.4-4.8c-6.7-1.3-5.8-3.3-5.8-3.3L104,64"></path> <path class="st7" d="M141.2,69.8l23,4.2v2.5c0,0-1.2,0.8-0.5,5.2c0.7,4.8,4.5,5.8,4.5,5.8s1.5,0.5,3.9,1.1c2.2,0.5,2.3,2.6,2.3,2.6 v4.6l-2.4,1.3L136,89.4c-0.2-2-1.5-2.1-1.5-2.1s-17.7-3.5-24.4-4.8c-6.7-1.3-5.8-3.3-5.8-3.3L104,64"></path> <polyline class="st7" points="177.6,30.9 182.5,52 184.4,51.8 178.4,29.8 "></polyline> <path class="st6" d="M202.8,58.3l1.9,0.2v2.1c-0.5,1.5-0.5,3.9-0.5,3.9c0.3,4.4,3.7,5.2,3.7,5.2s0.5,0.2,2.6,0.4s2.1,1.9,2.1,1.9 v3.9"></path> <line class="st6" x1="174.3" y1="93.6" x2="212.7" y2="74.1"></line> <line class="st6" x1="204.7" y1="60.6" x2="206" y2="60.1"></line> <line class="st6" x1="204.7" y1="58.5" x2="206" y2="58.1"></line> <polyline class="st6" points="158.8,73 201.8,57.9 203.7,58.1 161.3,73.5 "></polyline> <polyline class="st7" points="191.2,58.9 196.9,59.6 158.8,73 "></polyline> <line class="st6" x1="202.8" y1="58.3" x2="202.8" y2="67.6"></line> <line class="st7" x1="156.6" y1="72.5" x2="195" y2="59.3"></line> <path class="st8" d="M192.3,60.2c-2.5-2.4-4.4-6.7-4.6-7.8s-0.6-1.6-1.8-2c-1.2-0.5-2.3,0.2-2.3,0.2s-1.4,0.7-6.5,0.5 c0,0-13.7,0.2-21,6.1c0,0-2.1,1.7-6,2.5c-0.5,0.1-0.8,0.3-1.1,0.5l-0.5,0.2c-1,0.6-1.5,1.5-1.5,1.5s-1.1,2.2,0.1,3 c1.3,0.9,3.7,3.7,4.3,6.7"></path> <path class="st7" d="M192.3,60.2c-2.5-2.4-4.4-6.7-4.6-7.8s-0.6-1.6-1.8-2c-1.2-0.5-2.3,0.2-2.3,0.2s-1.4,0.7-6.5,0.5 c0,0-13.7,0.2-21,6.1c0,0-2.1,1.7-6,2.5c-0.5,0.1-0.8,0.3-1.1,0.5l-0.5,0.2c-1,0.6-1.5,1.5-1.5,1.5s-1.1,2.2,0.1,3 c1.3,0.9,3.7,3.7,4.3,6.7"></path> <path class="st6" d="M149,60.2c-1,0.6-1.5,1.5-1.5,1.5s-1.1,2.2,0.1,3c1.3,0.9,3.8,3.9,4.4,7"></path> <path class="st8" d="M187.8,18.9l-23.1,4.5c-10.8,5.2-23.3,7.9-23.3,7.9c-30.8,7.3-41.3,23.3-39,29.7l0.5,1.2 c1.5,3.7,8.1,4.5,8.1,4.5l29.2,4.2l47.9-50.8L187.8,18.9"></path> <path class="st7" d="M187.8,18.9l-23.1,4.5c-10.8,5.2-23.3,7.9-23.3,7.9c-30.8,7.3-41.3,23.3-39,29.7l0.5,1.2 c1.5,3.7,8.1,4.5,8.1,4.5l29.2,4.2l47.9-50.8L187.8,18.9"></path> <polyline class="st8" points="187.8,18.9 187.6,17.9 168.7,18 119.1,65.5 119.6,66.8 139.7,69.7 187.8,18.9 "></polyline> <polyline class="st7" points="187.8,18.9 187.6,17.9 168.7,18 119.1,65.5 119.6,66.8 139.7,69.7 187.8,18.9 "></polyline> <path class="st6" d="M102.4,61c1.5,3.7,8.1,4.5,8.1,4.5l9.1,1.4"></path> <polyline class="st6" points="187.6,17.8 139.4,68.4 119.1,65.5 "></polyline> <polyline class="st6" points="140.2,70.8 139.7,69.7 139.4,68.4 "></polyline> <path class="st4" d="M140.7,68.4l0.1,0.4h0.1l46.5-49c0.1-0.1,0-0.2-0.1-0.3c-0.1,0-0.1-0.1-0.2-0.1"></path> <path class="st6" d="M140.7,68.4l0.1,0.4h0.1l46.5-49c0.1-0.1,0-0.2-0.1-0.3c-0.1,0-0.1-0.1-0.2-0.1"></path> <line class="st3" x1="140.7" y1="68.4" x2="187.1" y2="19.3"></line> <line class="st6" x1="140.7" y1="68.4" x2="187.1" y2="19.3"></line> <path class="st6" d="M140.2,70.8l21.8,3.8v2.5c0,0-1.2,1.1-0.5,5.5c0.7,4.8,4.5,5.8,4.5,5.8s1.3,0.3,3.7,0.8s2.3,3.1,2.3,3.1v4.7"></path> <line class="st6" x1="162" y1="74.6" x2="164.2" y2="74"></line> <line class="st6" x1="162" y1="77.2" x2="164.2" y2="76.5"></line> <path class="st6" d="M160.3,135.8c0,0.3-0.1,0.5-0.3,0.7c-0.4,0.4-1.1,0.2-1.5-0.4c-0.5-0.5-0.5-1.3-0.1-1.6 c0.2-0.2,0.4-0.2,0.6-0.2"></path> <path class="st6" d="M198.1,110c0,0.3-0.1,0.5-0.2,0.5c-0.3,0.3-0.9,0.2-1.3-0.3c-0.4-0.5-0.5-1-0.1-1.3c0.1-0.1,0.2-0.1,0.3-0.1"></path> <path class="st6" d="M122.7,113.4c0,0.3-0.1,0.5-0.2,0.5c-0.4,0.3-0.9,0.1-1.3-0.4s-0.4-1-0.1-1.3c0.1-0.1,0.2-0.1,0.3-0.1"></path> <line class="st9" x1="206.7" y1="70.1" x2="168.6" y2="87.6"></line> <line class="st6" x1="202.8" y1="67.6" x2="164.3" y2="84"></line> <line class="st6" x1="204.9" y1="67.9" x2="165" y2="85.2"></line> <path class="st6" d="M174.3,93.1l38-19.2v-1.8c0-0.2,0-1.3-1.6-1.5c-2.2-0.2-2.7-0.4-2.7-0.4c-1.1-0.3-2.2-1-3-2.3l-2.1-0.4"></path> <path d="M276.4,73.6c0.9,0,1.7,0,2.6,0c0,0.3,0,0.5,0,0.8c0,8.9,0,17.8,0,26.7c0,1.8,0,1.6,1.4,1.6c11.9,0,23.8,0,35.6,0 c1.1,0,1.2,0,1.2-1.3c0-13.7,0-27.4,0-41.1c0-0.2,0-0.3,0-0.6c-0.2,0-0.5,0-0.7,0c-2.4,0-4.9,0-7.3-0.1c-1.2,0-1.7-0.6-1.7-2 c0-2.7,0-5.5,0-8.2c0-0.2,0-0.5,0-0.8c-0.3,0-0.5,0-0.7,0c-8.9,0-17.8,0-26.6,0c-1.1,0-1.1,0-1.1,1.3c0,1.1,0,2.2,0,3.3 c-0.9,0-1.7,0-2.5,0c0-2,0-4.1,0-6.1c0-0.8,0.4-1.2,1.1-1.3c0.5-0.1,0.9-0.1,1.4-0.1c9.8,0,19.6,0,29.4,0c0.6,0,1,0.2,1.4,0.7 c3.1,3.5,6.2,7,9.3,10.6c0.4,0.5,0.6,1,0.6,1.7c0,14.6,0,29.3,0,43.9c0,0.6-0.1,1.2-0.1,1.8c-0.1,0.7-0.5,1.1-1.1,1.2 c-0.5,0.1-1,0.1-1.5,0.1c-12.7,0-25.3,0-38,0c-0.5,0-1,0-1.5-0.1c-0.7-0.1-1.1-0.5-1.2-1.3c-0.1-0.6-0.1-1.3-0.1-1.9"></path> <path d="M7.7,73.6c0.9,0,1.7,0,2.6,0c0,0.3,0,0.5,0,0.8c0,8.9,0,17.8,0,26.7c0,1.8,0,1.6,1.4,1.6c11.9,0,23.8,0,35.6,0 c1.1,0,1.1,0,1.1-1.3c0-13.7,0-27.4,0-41.1c0-0.2,0-0.3,0-0.6c-0.2,0-0.5,0-0.7,0c-2.4,0-4.9,0-7.3-0.1c-1.2,0-1.7-0.6-1.7-2 c0-2.7,0-5.5,0-8.2c0-0.2,0-0.5,0-0.8c-0.3,0-0.5,0-0.7,0c-8.9,0-17.8,0-26.6,0c-1.1,0-1.1,0-1.1,1.3c0,1.1,0,2.2,0,3.3 c-0.9,0-1.7,0-2.5,0c0-2,0-4.1,0-6.1c0-0.8,0.4-1.2,1.1-1.3c0.5-0.1,0.9-0.1,1.4-0.1c9.8,0,19.6,0,29.4,0c0.6,0,1,0.2,1.5,0.7 c3.1,3.5,6.2,7,9.3,10.6c0.4,0.5,0.6,1,0.6,1.7c0,14.6,0,29.3,0,43.9c0,0.6,0,1.2-0.1,1.8c-0.1,0.7-0.5,1.1-1.1,1.2 c-0.5,0.1-1,0.1-1.5,0.1c-12.6,0-25.3,0-38,0c-0.5,0-1,0-1.5-0.1c-0.7-0.1-1.1-0.5-1.2-1.3c-0.1-0.6-0.1-1.3-0.1-1.9"></path> <path class="st10" d="M119.8,108.1"></path> </g> </svg> 