<?xml version="1.0" encoding="UTF-8"?> <svg xmlns="http://www.w3.org/2000/svg" width="320.65" height="97.567" viewBox="0 0 320.65 97.567"><g id="softube-logo-tagline-dark-backgrounds-rgb" transform="translate(-0.008 -27.96)"><g id="Group_12154" data-name="Group 12154" transform="translate(0.008 27.96)"><path id="Path_11916" data-name="Path 11916" d="M74.263,102.955a3.587,3.587,0,1,0-3.587-3.587,3.507,3.507,0,0,0,3.587,3.587" transform="translate(-42.349 -68.597)" fill="#fff"></path><path id="Path_11917" data-name="Path 11917" d="M61.522,104.52A2.208,2.208,0,0,0,58.6,105.77c-.084.168-9.091,20.013-27.183,20.013-18.177,0-26.266-18.345-27.1-20.43A2.278,2.278,0,0,0,1.4,104.1a2.278,2.278,0,0,0-1.251,2.918c1,2.337,10.089,23.183,31.272,23.183,21.263,0,31.188-22.6,31.272-22.766a2.246,2.246,0,0,0-1.174-2.918" transform="translate(-0.008 -73.497)" fill="#fff"></path><path id="Path_11918" data-name="Path 11918" d="M305.927,77.27c-10.257,0-16.177,7.672-16.177,21.095,0,9.672,4.421,21.015,16.842,21.015,6,0,10.505-2.918,13.175-8.505a31.383,31.383,0,0,0,2.5-12.425c0-17.508-8.922-21.179-16.341-21.179m.581,37.609c-2.918,0-12.425-1.166-12.425-16.51,0-11.006,3.92-16.678,11.756-16.678,2.918,0,11.924,0,11.924,16.678.088,15.343-8.586,16.51-11.255,16.51" transform="translate(-173.617 -57.506)" fill="#fff"></path><path id="Path_11919" data-name="Path 11919" d="M463.56,50.41a2.244,2.244,0,0,0-2.253,2.253V81.846c-.417,1.166-4.421,6.173-12.093,6.173-8.337,0-9.255-7.423-9.255-10.59V54.414a2.244,2.244,0,0,0-2.253-2.253H413.69V40.654a2.253,2.253,0,1,0-4.505,0V52.246H385.336v-7.84a7.558,7.558,0,0,1,2.585-5.92c2.669-2.084,7.5-2.337,14.009-.665a2.195,2.195,0,0,0,1.086-4.253c-8-2.084-14.009-1.583-17.844,1.419a11.846,11.846,0,0,0-4.337,9.423v7.756H368.743a2.253,2.253,0,0,0,0,4.505h12.093v33.52a2.253,2.253,0,0,0,4.505,0V56.579h23.933V78.427c0,4.337,1.335,7.84,3.92,10.089,2.253,2,5.419,3,9.339,3a24.843,24.843,0,0,0,3.419-.249,2.228,2.228,0,0,0-.585-4.417c-4.253.5-7.423,0-9.255-1.667-1.583-1.419-2.417-3.667-2.417-6.754V56.579h21.849V77.257c0,6.922,3.587,15.095,13.676,15.095a19.792,19.792,0,0,0,12.093-4V90.1a2.253,2.253,0,1,0,4.505,0V52.578a2.178,2.178,0,0,0-2.257-2.168" transform="translate(-219.598 -30.562)" fill="#fff"></path><path id="Path_11920" data-name="Path 11920" d="M750.412,98.375c0-7.84-2.084-21.095-16.345-21.095-10.257,0-16.177,7.672-16.177,21.095,0,8.421,4.5,21.015,16.842,21.015,6.337,0,11.091-2.834,14.51-8.754a2.2,2.2,0,1,0-3.836-2.168c-2.669,4.5-5.92,6.589-10.674,6.589-8.674,0-11.676-8.421-12.257-14.341H748.24a2.371,2.371,0,0,0,2.172-2.341M722.4,96.207c.5-9.588,4.421-14.425,11.676-14.425,7.5,0,11.339,4.754,11.84,14.425Z" transform="translate(-430.151 -57.512)" fill="#fff"></path><path id="Path_11921" data-name="Path 11921" d="M628.65,69.737c0,12.59,2.834,21.015,16.842,21.015,5.92,0,10.505-2.918,13.175-8.505a31.383,31.383,0,0,0,2.5-12.425c0-17.428-8.922-21.095-16.345-21.095-4.918,0-8.838,1.752-11.592,5.086.084-11.006.248-23.348.248-23.6a2.228,2.228,0,0,0-2.168-2.253h0a2.228,2.228,0,0,0-2.253,2.168c.008.337-.409,33.608-.409,39.609m16.842,16.514c-9.588,0-12.425-3.752-12.425-16.51,0-11.006,3.92-16.678,11.756-16.678,2.918,0,11.924,0,11.924,16.678,0,15.339-8.67,16.51-11.255,16.51" transform="translate(-376.68 -27.96)" fill="#fff"></path><path id="Path_11922" data-name="Path 11922" d="M200.208,55.854c-7.086-2.337-11.676-6.337-12.51-10.842a7.557,7.557,0,0,1,2.834-7.339c1.752-1.419,8.59-5.752,22.265-.249a2.245,2.245,0,1,0,1.667-4.168c-10.758-4.337-20.762-3.92-26.682.918a11.933,11.933,0,0,0-4.421,11.592c1.166,6.173,6.754,11.339,15.512,14.261,8.505,2.834,14.261,8.088,15.343,14.177a9.909,9.909,0,0,1-3.5,9.756c-5.587,4.67-15.512,4.67-27.352.168a2.19,2.19,0,0,0-1.583,4.084A48.88,48.88,0,0,0,199.122,91.8c5.836,0,10.758-1.5,14.341-4.5a14.41,14.41,0,0,0,5-14.009c-1.331-7.511-8.169-14.1-18.257-17.436" transform="translate(-108.092 -29.336)" fill="#fff"></path></g><g id="Group_12155" data-name="Group 12155" transform="translate(0.394 111.735)"><path id="Path_11923" data-name="Path 11923" d="M5.519,246.179H3.555v4.549H.97v-13.1H6.213a4.348,4.348,0,0,1,4.361,4.341,4.264,4.264,0,0,1-2.525,3.816l2.9,4.942H8.157Zm-1.968-2.265H6.209a1.945,1.945,0,0,0,0-3.876H3.551Z" transform="translate(-0.97 -237.365)" fill="#00c795"></path><path id="Path_11924" data-name="Path 11924" d="M39.93,243.78a6.8,6.8,0,1,1,6.794,6.814A6.737,6.737,0,0,1,39.93,243.78Zm11.022,0a4.231,4.231,0,1,0-4.233,4.285A4.153,4.153,0,0,0,50.952,243.78Z" transform="translate(-24.314 -236.97)" fill="#00c795"></path><path id="Path_11925" data-name="Path 11925" d="M89.08,243.78a6.639,6.639,0,0,1,6.81-6.81,6.524,6.524,0,0,1,5.635,3.086L99.3,241.347a3.782,3.782,0,0,0-3.407-1.872,4.295,4.295,0,0,0,0,8.589,3.779,3.779,0,0,0,3.407-1.852l2.225,1.291a6.484,6.484,0,0,1-5.635,3.086A6.646,6.646,0,0,1,89.08,243.78Z" transform="translate(-53.764 -236.97)" fill="#00c795"></path><path id="Path_11926" data-name="Path 11926" d="M143.479,250.719l-4.678-6.141v6.141H136.22v-13.1H138.8V243.4l4.493-5.784h2.974l-4.85,6.361,5.034,6.738Z" transform="translate(-82.01 -237.359)" fill="#00c795"></path><path id="Path_11927" data-name="Path 11927" d="M209.233,250.768l-1.2-1.291a5.768,5.768,0,0,1-3.519,1.126c-2.657,0-4.585-1.479-4.585-3.892a4.283,4.283,0,0,1,2.188-3.764,3.988,3.988,0,0,1-.637-2.188,3.807,3.807,0,0,1,4.1-3.78,4.337,4.337,0,0,1,4.173,2.806l-2.208,1.275a2.03,2.03,0,0,0-1.928-1.571,1.427,1.427,0,0,0-1.551,1.387,2.983,2.983,0,0,0,1.066,1.984l2.806,3.07a9.406,9.406,0,0,0,.637-2.172l2.172,1.234a9.165,9.165,0,0,1-1.142,2.754l1.683,1.852Zm-2.81-3.014-2.826-3.07c-.02-.02-.036-.036-.036-.056a2.081,2.081,0,0,0-1.03,1.816c0,1.05.709,1.78,2.152,1.78A3.246,3.246,0,0,0,206.423,247.754Z" transform="translate(-120.184 -236.976)" fill="#00c795"></path><path id="Path_11928" data-name="Path 11928" d="M272.785,246.179h-1.964v4.549H268.24v-13.1h5.243a4.348,4.348,0,0,1,4.361,4.341,4.264,4.264,0,0,1-2.525,3.816l2.9,4.942h-2.79Zm-1.964-2.265h2.657a1.945,1.945,0,0,0,0-3.876h-2.657Z" transform="translate(-161.114 -237.365)" fill="#00c795"></path><path id="Path_11929" data-name="Path 11929" d="M307.19,243.78a6.8,6.8,0,1,1,6.794,6.814A6.737,6.737,0,0,1,307.19,243.78Zm11.026,0a4.231,4.231,0,1,0-4.233,4.285A4.153,4.153,0,0,0,318.216,243.78Z" transform="translate(-184.452 -236.97)" fill="#00c795"></path><path id="Path_11930" data-name="Path 11930" d="M365.409,248.25v2.469H357.83v-13.1h2.581v10.63Z" transform="translate(-214.794 -237.359)" fill="#00c795"></path><path id="Path_11931" data-name="Path 11931" d="M400.129,248.25v2.469H392.55v-13.1h2.581v10.63Z" transform="translate(-235.598 -237.359)" fill="#00c795"></path><path id="Path_11932" data-name="Path 11932" d="M449.36,247.355l2.208-1.291a2.938,2.938,0,0,0,3.014,2c1.551,0,2.1-.653,2.1-1.387,0-.97-.882-1.347-2.826-1.908-2-.581-3.948-1.423-3.948-3.912,0-2.469,2.06-3.892,4.3-3.892a4.973,4.973,0,0,1,4.678,2.938l-2.172,1.255a2.573,2.573,0,0,0-2.509-1.683c-1.086,0-1.719.561-1.719,1.311,0,.806.505,1.239,2.489,1.836,2.076.653,4.285,1.347,4.285,4.024,0,2.453-1.964,3.948-4.754,3.948C451.829,250.594,450.073,249.3,449.36,247.355Z" transform="translate(-269.638 -236.97)" fill="#00c795"></path><path id="Path_11933" data-name="Path 11933" d="M488.64,243.78a6.639,6.639,0,0,1,6.81-6.81,6.524,6.524,0,0,1,5.635,3.086l-2.225,1.291a3.782,3.782,0,0,0-3.407-1.872,4.295,4.295,0,0,0,0,8.589,3.779,3.779,0,0,0,3.407-1.852l2.225,1.291a6.484,6.484,0,0,1-5.635,3.086A6.646,6.646,0,0,1,488.64,243.78Z" transform="translate(-293.174 -236.97)" fill="#00c795"></path><path id="Path_11934" data-name="Path 11934" d="M538.371,237.62v13.1H535.79v-13.1Z" transform="translate(-321.425 -237.359)" fill="#00c795"></path><path id="Path_11935" data-name="Path 11935" d="M568.544,248.25v2.469h-8.1v-13.1h8.008v2.469h-5.427v2.786h4.958v2.433h-4.958v2.938h5.523Z" transform="translate(-336.195 -237.359)" fill="#00c795"></path><path id="Path_11936" data-name="Path 11936" d="M607.471,237.62v13.1h-1.964l-5.615-8.008v8.008H597.31v-13.1h1.964l5.615,7.992V237.62Z" transform="translate(-358.287 -237.359)" fill="#00c795"></path><path id="Path_11937" data-name="Path 11937" d="M648.106,240.1H644.57v10.63h-2.581V240.1H638.47V237.63h9.64V240.1Z" transform="translate(-382.949 -237.365)" fill="#00c795"></path><path id="Path_11938" data-name="Path 11938" d="M680.8,237.62v13.1H678.22v-13.1Z" transform="translate(-406.767 -237.359)" fill="#00c795"></path><path id="Path_11939" data-name="Path 11939" d="M700.69,247.355l2.208-1.291a2.938,2.938,0,0,0,3.014,2c1.551,0,2.1-.653,2.1-1.387,0-.97-.882-1.347-2.826-1.908-2-.581-3.948-1.423-3.948-3.912,0-2.469,2.06-3.892,4.3-3.892a4.973,4.973,0,0,1,4.678,2.938l-2.172,1.255a2.573,2.573,0,0,0-2.509-1.683c-1.086,0-1.719.561-1.719,1.311,0,.806.5,1.239,2.489,1.836,2.076.653,4.285,1.347,4.285,4.024,0,2.453-1.964,3.948-4.754,3.948C703.159,250.594,701.4,249.3,700.69,247.355Z" transform="translate(-420.23 -236.97)" fill="#00c795"></path><path id="Path_11940" data-name="Path 11940" d="M747.756,240.1H744.22v10.63h-2.581V240.1H738.12V237.63h9.64V240.1Z" transform="translate(-442.658 -237.365)" fill="#00c795"></path><path id="Path_11941" data-name="Path 11941" d="M775.3,247.355l2.208-1.291a2.938,2.938,0,0,0,3.014,2c1.551,0,2.1-.653,2.1-1.387,0-.97-.882-1.347-2.826-1.908-2-.581-3.948-1.423-3.948-3.912,0-2.469,2.056-3.892,4.3-3.892a4.973,4.973,0,0,1,4.677,2.938l-2.172,1.255a2.573,2.573,0,0,0-2.509-1.683c-1.086,0-1.719.561-1.719,1.311,0,.806.505,1.239,2.489,1.836,2.076.653,4.285,1.347,4.285,4.024,0,2.453-1.964,3.948-4.754,3.948C777.769,250.594,776.013,249.3,775.3,247.355Z" transform="translate(-464.935 -236.97)" fill="#00c795"></path></g></g></svg> 