<?xml version="1.0" encoding="utf-8"?>
<!-- Generator: Adobe Illustrator 24.3.0, SVG Export Plug-In . SVG Version: 6.00 Build 0)  -->
<svg version="1.1" id="レイヤー_1" xmlns="http://www.w3.org/2000/svg" xmlns:xlink="http://www.w3.org/1999/xlink" x="0px"
	 y="0px" viewBox="0 0 1000 200" style="enable-background:new 0 0 1000 200;" xml:space="preserve">
<style type="text/css">
	.st0{fill:#EBEBEB;}
	.st1{opacity:0.5;}
	.st2{fill:#262626;}
	.st3{fill:#FAFAFA;}
	.st4{fill:none;stroke:#262626;stroke-width:2.1;stroke-miterlimit:10;}
	.st5{fill:none;stroke:#262626;stroke-width:1.98;stroke-miterlimit:10;}
	.st6{fill:none;stroke:#262626;stroke-width:2.17;stroke-miterlimit:10;}
	.st7{fill:none;stroke:#262626;stroke-width:2.35;stroke-miterlimit:10;}
	.st8{fill:none;stroke:#262626;stroke-width:2.52;stroke-miterlimit:10;}
	.st9{fill:none;stroke:#FFFFFF;stroke-width:1.93;stroke-linecap:round;stroke-miterlimit:10;}
</style>
<g id="_アイコン_evo8">
	<circle class="st0" cx="100" cy="100" r="99"/>
	<g class="st1">
		<path class="st2" d="M32.8,128.3l3.3,0.2c-0.6,7.7-2.9,15.1-6.7,21.8l-3-1.4C30,142.5,32.1,135.5,32.8,128.3z M42,127.4l2.4-1.3
			c1.2,2.1,2.1,3.7,2.7,4.9l-2.4,1.2C43.8,130.5,42.9,128.9,42,127.4L42,127.4z M44.7,134.7l3.2-0.9c1.9,5.2,3.5,10.5,4.8,15.9
			l-3.4,0.7C48,145.1,46.5,139.9,44.7,134.7z M46.5,126.3L49,125c1,1.8,1.9,3.5,2.7,5l-2.5,1.2C48.4,129.6,47.5,128,46.5,126.3z"/>
		<path class="st2" d="M59.1,130.1l1.5-2.8c3.4,1.6,6.5,3.3,9.2,5l-1.6,2.7C64.9,133.1,61.9,131.4,59.1,130.1z M79.8,130.1l3,0.7
			c-2,11.6-9.5,18-22.5,19.2l-0.5-3.1c5.8-0.6,10.3-2.2,13.6-4.9C76.6,139.2,78.7,135.3,79.8,130.1z"/>
		<path class="st2" d="M91.6,126.7h3.3v8.6c5.6,1.4,11.1,3.1,16.6,5.1l-1,3c-5.1-1.9-10.3-3.5-15.5-4.8v12.8h-3.3V126.7z
			 M100.8,128.5l2.7-1.3c0.9,1.6,1.9,3.4,2.9,5.3l-2.7,1.3C103,132.2,102,130.4,100.8,128.5z M105.5,127.3l2.7-1.4
			c1.1,1.8,2.1,3.6,3,5.4l-2.7,1.3C107.5,130.9,106.5,129.1,105.5,127.3z"/>
		<path class="st2" d="M141.9,125.9v9.5h2v2.6H137l0,0c0.5,1.3,1.1,2.6,1.8,3.9c1.1-1.1,2.1-2.2,3-3.5l2.1,1.8
			c-1.1,1.5-2.3,2.8-3.6,4.1c1.2,1.8,2.7,3.3,4.3,4.7l-2.1,2.3c-1.7-1.6-3.2-3.5-4.3-5.5c-0.5-0.8-0.8-1.5-1.1-2.2v3.5
			c0,0.9,0,1.5,0,1.7c0,0.4-0.1,0.8-0.1,1.2c0,0.3-0.2,0.6-0.4,0.8c-0.2,0.2-0.4,0.4-0.7,0.5c-0.3,0.1-0.7,0.2-1,0.2
			c-0.5,0-1,0.1-1.4,0.1s-1.5-0.1-3.1-0.1l-0.1-2.6c1.4,0.1,2.3,0.1,2.7,0.1c0.5,0,0.9-0.1,1-0.3c0.2-0.5,0.2-1,0.2-1.5v-2.2
			c-2.1,2.2-4.4,4.1-6.9,5.8l-1.7-2c-3.1,1-6,1.7-8.8,2.3l-0.3-2.7c1.5-0.3,3.1-0.7,4.8-1.1v-8.4h-4.4v-2.6h4.4v-2.9h-2.6v-1.1
			c-0.7,0.6-1.3,1.1-2,1.6l-0.6-3.1c2.1-1.7,3.9-3.6,5.4-5.7h2.9c1.4,1.6,3,3.1,4.8,4.2l-1,2.6l-0.3-0.2c-0.1-0.1-0.2-0.1-0.3-0.2
			v1.8h-3.2v2.9h3.5v-1.1h11v-2.2H129v-2.5h9.7v-2.2h-10.1v-2.6L141.9,125.9z M116.9,140.9l2.3-0.6c0.4,1.4,0.9,3.3,1.4,5.7
			l-2.3,0.6C117.7,144.2,117.3,142.3,116.9,140.9L116.9,140.9z M119.9,131.1h6.4c-1.3-1-2.5-2.2-3.5-3.5
			C121.9,128.8,120.9,130,119.9,131.1L119.9,131.1z M133.9,141.8v-3.7h-6.2v1.1H124v7.6c1.5-0.4,2.8-0.9,4.1-1.3l0.2,1.2
			C130.3,145.3,132.2,143.6,133.9,141.8L133.9,141.8z M127.1,139.8l2.5-1.2c0.8,1.4,1.6,2.8,2.3,4.2l-2.4,1.5
			c-0.5-1.1-1.1-2.2-1.7-3.3c-0.3,1.6-0.7,3.1-1.2,4.6l-2.2-0.6c0.5-1.5,0.9-3.1,1.3-4.9l1.9,0.4c-0.1-0.1-0.1-0.2-0.2-0.4
			C127.3,140,127.2,139.9,127.1,139.8L127.1,139.8z"/>
		<path class="st2" d="M146.4,136.4v-2.6h7.4c-0.7-1.5-1.5-2.8-2.2-4.1h-4.3v-2.6h11.1v-2.8h3.3v2.8h11.1v2.6h-4.4
			c-0.6,1.4-1.2,2.8-2,4.1h7.3v2.6H146.4z M150,138.1h20.1V152h-3.3v-1.2h-13.5v1.2H150L150,138.1z M153.3,143.2h13.5v-2.5h-13.5
			V143.2z M153.3,145.7v2.6h13.5v-2.6H153.3z M162.8,133.9c0.9-1.3,1.6-2.6,2.2-4.1h-9.8c0.8,1.4,1.4,2.8,2,4.1H162.8z"/>
	</g>
	<circle class="st0" cx="350" cy="100" r="99"/>
	<g class="st1">
		<path class="st2" d="M269.4,137.9c4.3-0.6,8.5-1.9,12.5-3.9c3.7-1.7,7.1-4.1,10-7.1l2,2.2c-2.6,2.6-5.6,4.8-8.8,6.5v15.2h-3.4
			v-13.6c-3.7,1.7-7.7,2.8-11.8,3.4L269.4,137.9z"/>
		<path class="st2" d="M300.6,137.7c-2.5,3.5-4.5,6.1-6,7.9l-2.5-1.9c0.5-0.6,1.2-1.4,2-2.5l2.4-3.1l1.4-1.8
			c1.1-1.6,2.3-3.2,3.6-4.6c0.6-0.6,1.4-0.9,2.3-0.8c0.9,0,1.7,0.2,2.4,0.7c1.4,1.2,2.7,2.5,3.9,3.9c3.1,3.3,6.5,6.9,10.2,10.7
			l-2.3,2.4c-2.9-2.9-6.3-6.5-10.3-10.8c-1.4-1.5-2.3-2.4-2.7-2.9c-0.3-0.4-0.7-0.6-1.2-0.7c-0.2,0-0.6,0.2-1,0.7
			S301.6,136.2,300.6,137.7z M309.1,128.2l2.7-1.3c1.1,1.9,2.1,3.7,2.9,5.3l-2.7,1.3C311.2,131.9,310.2,130.1,309.1,128.2
			L309.1,128.2z M313.7,127l2.7-1.4c1.1,1.8,2.1,3.6,3,5.4l-2.7,1.3C315.8,130.6,314.8,128.8,313.7,127L313.7,127z"/>
		<path class="st2" d="M323.2,130.1l1.5-2.8c3.4,1.6,6.5,3.3,9.2,5l-1.6,2.7C328.9,133.1,325.9,131.4,323.2,130.1z M343.8,130.1
			l3,0.7c-2,11.6-9.5,18-22.5,19.2l-0.5-3.1c5.8-0.6,10.3-2.2,13.6-4.9C340.6,139.2,342.8,135.3,343.8,130.1L343.8,130.1z"/>
		<path class="st2" d="M352.4,126.4h3.3v8.6c5.6,1.4,11.1,3,16.6,5.1l-1,3c-5.1-1.9-10.3-3.5-15.5-4.8V151h-3.3L352.4,126.4z"/>
		<path class="st2" d="M378.9,128.7h-3.8v-2.6h13.7v2.6h-3.4v2.5h3.2v20.6h-2.8v-1.4h-7.4v1.4h-2.9v-20.6h3.3L378.9,128.7z
			 M378.5,141.9v1.4h7.4v-2.6h-1.6c-0.7,0-1.1-0.1-1.3-0.4c-0.2-0.5-0.3-1.1-0.3-1.6v-4.9h-0.9c0.1,1.8-0.1,3.6-0.4,5.4
			c-0.4,1.3-1,2.5-1.8,3.5L378.5,141.9z M378.5,139.6c0.3-0.4,0.4-0.8,0.6-1.3c0.3-1.5,0.4-3,0.3-4.5h-0.9V139.6z M378.5,145.8v2.2
			h7.4v-2.2H378.5z M381.7,128.7v2.5h0.9v-2.5H381.7z M385.9,138.4v-4.6h-1v4c0,0.2,0,0.3,0.1,0.5c0.2,0.1,0.4,0.1,0.5,0.1
			L385.9,138.4z M397.8,148.8c0.7-0.1,1.1-0.3,1.2-0.8c0.2-1.7,0.3-3.4,0.4-5.1l3.1,0.3c-0.1,1.4-0.1,2.5-0.2,3.3
			c-0.1,1-0.2,1.8-0.2,2.2c-0.1,0.5-0.2,1-0.4,1.5c-0.1,0.3-0.3,0.6-0.6,0.8c-0.3,0.2-0.5,0.4-0.9,0.4c-0.2,0-0.7,0.1-1.3,0.1
			c-1,0.1-2.1,0.1-3.3,0.1s-2.1,0-2.9-0.1c-0.3,0-0.7,0-1-0.1c-0.2,0-0.5-0.1-0.7-0.2c-0.2-0.1-0.3-0.2-0.5-0.4
			c-0.1-0.2-0.2-0.5-0.2-0.7c-0.1-0.4-0.1-0.7-0.1-1.1c0-0.1,0-0.3,0-0.7s0-0.6,0-0.9v-12.1h8.2v-6.5H390v-2.8h11.6v13.9h-3.1v-1.8
			h-5.2v8.7c0,0.6,0,1.1,0.1,1.7c0.1,0.2,0.3,0.3,0.8,0.3l1.7,0.1C396.2,148.9,396.9,148.8,397.8,148.8z"/>
		<path class="st2" d="M410.1,133.4v18.8h-3.1V139c-0.6,1.1-1.3,2.1-2.1,3l-1.1-3.6c2.8-4,4.7-8.6,5.6-13.4l3,0.5
			C411.8,128.2,411.1,130.9,410.1,133.4z M412.2,132.9v-2.7h20.1v2.7H412.2z M416.5,151v1.2h-3.1v-9h17.5v9h-3.2V151H416.5z
			 M413.7,137.2v-2.6h16.9v2.6H413.7z M413.7,141.5v-2.6h16.9v2.5L413.7,141.5z M414.1,128.6v-2.6h16.6v2.6H414.1z M427.6,148.4
			v-2.7h-11.1v2.7H427.6z"/>
	</g>
	<circle class="st0" cx="600" cy="100" r="99"/>
	<g class="st1">
		<path class="st2" d="M557,130.7v2.9h-7.2c0,5.3-1,9.3-2.9,12c-2,2.7-5.1,4.4-9.3,5.2l-0.9-2.8c3.6-0.7,6.1-2.1,7.6-4.3
			s2.3-5.6,2.3-10.2h-8.9c-1,2.5-2.4,4.9-4.3,6.9l-2.5-1.6c3-3.7,4.9-8.1,5.3-12.9l3.1,0.2c-0.1,1.5-0.4,3-0.8,4.5L557,130.7z
			 M549.8,125.6l2.2-1.1c0.8,1.4,1.6,2.9,2.4,4.4l-2.3,1.1C551.4,128.6,550.6,127.1,549.8,125.6L549.8,125.6z M554.1,125.1l2.3-1.1
			c0.9,1.6,1.8,3.1,2.5,4.5l-2.3,1.1C555.9,128.5,555,127,554.1,125.1L554.1,125.1z"/>
		<path class="st2" d="M558.9,140.2v-3.1h24.6v3.1H558.9z"/>
		<path class="st2" d="M593.5,126.6l3.2,0.6c-1.5,6.5-3.4,12.9-5.7,19.1c5.1-0.4,9.7-0.9,14-1.6c-1.5-3-2.7-5.5-3.6-7.3l2.9-1.4
			c2.3,4.4,4.3,8.8,6.2,13l-3,1.3l-0.6-1.4c-0.3-0.6-0.5-1.1-0.7-1.5c-7.2,1.1-14.5,1.8-21.8,2.1l-0.1-2.9c0.7,0,1.7-0.1,3.1-0.1
			C589.8,140.1,591.9,133.4,593.5,126.6z"/>
		<path class="st2" d="M639.6,141.3v2.6h-11c1,1.4,2.3,2.4,3.8,3.1c2.2,1,4.6,1.7,7,2l-1,2.9c-2.5-0.5-4.9-1.3-7.1-2.5
			c-1.9-0.9-3.5-2.3-4.8-3.9c-1.3,1.6-3,2.9-4.9,3.9c-2.3,1.2-4.8,2-7.4,2.5l-1-2.9c2.4-0.3,4.8-1,7-2c1.5-0.6,2.9-1.7,3.8-3.1
			h-10.9v-2.6h11.6V139H616v-2.5h8.7v-2.1h-9v-1.8h-2.1V127h11.1v-2.3h3.3v2.3h11.1v5.6H637v1.8h-9v2.1h8.7v2.5H628v2.3L639.6,141.3
			z M616.6,131.9h8.1v-2.2h-8.1V131.9z M636.1,129.7H628v2.2h8.1L636.1,129.7z"/>
		<path class="st2" d="M647.2,138.8c-1.8-1.6-3.8-3.1-5.8-4.6l1.8-2.2c2,1.4,4,2.9,5.8,4.5L647.2,138.8z M642,150.2
			c2.1-2.9,3.7-6,4.9-9.3l2.7,1.1c-1.1,3.6-2.8,7-5,10L642,150.2z M642.6,127.6l1.8-2.2c1.8,1.3,3.6,2.6,5.3,4.1l-1.9,2.2
			C646.1,130.3,644.4,128.9,642.6,127.6L642.6,127.6z M654.1,138.6H651v-12.6h17.2v12.5h-4.6v8.9c0,0.6,0.1,1,0.2,1.1
			c0.4,0.1,0.9,0.2,1.3,0.1c0.6,0,1-0.1,1.2-0.3c0.2-0.3,0.4-1.7,0.5-4c0-0.1,0-0.8,0.1-2.2l2.9,0.2c0,2.4-0.2,4.7-0.5,7.1
			c-0.1,0.8-0.7,1.5-1.5,1.8c-0.9,0.2-1.8,0.3-2.7,0.2c-0.9,0-1.5,0-1.8,0c-0.4,0-0.8-0.1-1.2-0.2c-0.3-0.1-0.6-0.2-0.8-0.4
			c-0.2-0.2-0.4-0.4-0.5-0.6c-0.1-0.3-0.2-0.6-0.2-0.9c0-0.4-0.1-0.9-0.1-1.3v-9.6H658c0,2.7-0.7,5.3-1.9,7.6
			c-1.5,2.5-3.7,4.4-6.4,5.6l-2.1-2.4c1.6-0.8,3.1-1.8,4.4-3c1.1-1.1,1.8-2.4,2.2-3.8c0.4-1.3,0.6-2.7,0.7-4.1L654.1,138.6z
			 M654.1,136H665v-7.2h-10.8L654.1,136z"/>
	</g>
	<circle class="st0" cx="850" cy="100" r="99"/>
	<g class="st1">
		<path class="st2" d="M770.7,130.2h12v-4.7h2.5v4.7h5.2v2.8h-5.2v12.8c0,1.9-0.2,3.1-0.6,3.6s-1.4,0.7-2.9,0.7
			c-1.3,0-2.7-0.1-4-0.3l0.2-2.8c1.2,0.2,2.4,0.3,3.7,0.3c0.5,0,0.9-0.1,1-0.3c0.2-0.4,0.3-0.9,0.2-1.3v-9.6
			c-3.1,4-6.8,7.5-10.9,10.5l-1.1-2.5c4.4-3.1,8.2-6.9,11.4-11.1h-11.4V130.2z"/>
		<path class="st2" d="M794.4,130.1l1.2-2.8c2.7,1.6,5.2,3.3,7.4,5l-1.3,2.7C799,133.1,796.6,131.4,794.4,130.1z M810.8,130.1
			l2.4,0.7c-1.6,11.6-7.6,18-18,19.2l-0.4-3.1c4.7-0.6,8.3-2.2,10.9-4.9S810,135.3,810.8,130.1z"/>
		<path class="st2" d="M816.4,135.1h18.7v0.6c0,9.3-5,14.3-14.9,15.1l-0.4-2.9c3.1-0.1,6.1-1.1,8.7-2.8c2.3-1.7,3.7-4.4,3.9-7.2h-16
			L816.4,135.1z M818.2,130.3v-2.8h15.4v2.8H818.2z"/>
		<path class="st2" d="M839,137.9c7.1-1.4,13.5-5.3,18-10.9l1.6,2.2c-2,2.5-4.4,4.7-7.1,6.5v15.2h-2.7v-13.6
			c-2.9,1.7-6.1,2.8-9.4,3.4L839,137.9z"/>
		<path class="st2" d="M862.5,130.1l1.2-2.8c2.7,1.6,5.2,3.3,7.4,5l-1.3,2.7C867.2,133.1,864.7,131.4,862.5,130.1z M879,130.1
			l2.4,0.7c-1.6,11.6-7.6,18-18,19.2l-0.4-3.1c4.7-0.6,8.3-2.2,10.9-4.9C876.5,139.2,878.2,135.3,879,130.1L879,130.1z"/>
		<path class="st2" d="M902,133.8v2.3h-13.7v-2.3c-1.2,1-2.4,1.8-3.4,2.5l-1.1-2.7c3.6-2.4,6.9-5.3,9.8-8.6h3.2
			c2.9,3.2,6.1,6.1,9.7,8.6l-1.1,2.7C904.4,135.6,903.2,134.8,902,133.8z M901.7,142.5c1.2,2.6,2.5,5.5,3.8,8.7l-2.2,1.2
			c-0.5-1.2-0.9-2.2-1.2-2.8c-5.5,0.9-11,1.5-16.5,1.8l-0.1-2.7l3.4-0.2c1-2.3,1.8-4.5,2.5-6.7H885v-2.7h20.4v2.7h-11.2
			c-0.7,2.4-1.5,4.5-2.3,6.5c2.5-0.2,5.6-0.6,9.3-1.2c-0.7-1.5-1.2-2.7-1.5-3.4L901.7,142.5z M901.6,133.5c-2.3-1.9-4.5-4-6.4-6.3
			c-1.9,2.3-4.1,4.4-6.4,6.3H901.6z"/>
		<path class="st2" d="M908.7,133v-2.7h7.4v2.7H908.7z M909.1,128.7V126h6.5v2.6H909.1z M911.4,151.1v1.2h-2.3v-9h6.5v7.8H911.4z
			 M909.3,137.3v-2.6h6.2v2.6H909.3z M909.3,141.6V139h6.2v2.6L909.3,141.6z M911.4,148.6h2.1v-2.7h-2.1V148.6z M926.4,138.6
			l1.5-1.6c0.9,1,1.7,2.1,2.4,3.2l-1.1,1.2h1.5v2.6h-1.6l0.9,0.8c-0.6,1.2-1.4,2.4-2.3,3.4c0.1,0.2,0.2,0.5,0.4,0.7
			c0.1,0.1,0.2,0.2,0.4,0.2c0.1,0,0.1,0,0.2-0.1c0.1-0.2,0.1-0.4,0.2-0.7c0.1-0.3,0.1-0.8,0.2-1.6l1.8,0.7c-0.1,1.3-0.4,2.5-0.9,3.7
			c-0.3,0.6-0.9,1-1.5,1c-0.4,0-0.8-0.2-1.1-0.4c-0.5-0.4-0.9-0.8-1.2-1.4l-0.1-0.1l-0.1-0.2l-0.1-0.2c-1.2,0.9-2.4,1.5-3.8,2
			l-0.8-2.5c1.3-0.4,2.5-1.1,3.6-1.9c-0.3-1.1-0.5-2.2-0.7-3.4H921v1.1c0.8-0.2,1.6-0.4,2.5-0.6l0.3,2.4c-0.9,0.3-1.8,0.5-2.8,0.7v2
			c0.1,0.7,0,1.4-0.4,2c-0.5,0.3-1.1,0.5-1.6,0.4c-0.4,0-1.1,0-2.2-0.1l-0.1-2.5c0.5,0.1,1,0.1,1.6,0.1c0.2,0,0.3,0,0.3-0.1
			c0-0.2,0-0.5,0-0.7V148l-2.2,0.3l-0.2-2.5l2.4-0.3v-1.5h-2.4v-2.6h2.4v-1c-0.8,0.1-1.4,0.2-1.8,0.2l-0.3-2.4
			c2.2-0.3,4.3-0.7,6.4-1.4l0.5,2.4c-0.7,0.3-1.5,0.5-2.4,0.7v1.4h3c-0.1-1.3-0.2-2.6-0.2-3.9h2.4c0,1.8,0,3.1,0.2,3.9h2.2
			C927.9,140.3,927.2,139.4,926.4,138.6L926.4,138.6z M924.9,134.2h5.9v2.6h-14.5v-2.6h6v-1.3h-4.8v-2.3h4.8v-1.2h-5.5v-2.6h2.9
			c-0.2-0.5-0.4-1.1-0.6-1.7l2.3-0.4c0.3,0.7,0.5,1.4,0.8,2.2h3.1c0.3-0.7,0.5-1.4,0.7-2.2l2.3,0.4c-0.1,0.4-0.3,1-0.5,1.8h2.7v2.6
			h-5.4v1.2h4.7v2.3h-4.7L924.9,134.2z M926.9,145.6c0.4-0.5,0.8-1,1.1-1.6h-1.4C926.7,144.5,926.8,145.1,926.9,145.6L926.9,145.6z"
			/>
	</g>
	<g class="st1">
		<polygon class="st2" points="814.9,84 809.5,102.1 890.1,102.1 884.2,84 		"/>
		<polygon class="st3" points="817.6,86.8 814.6,99.3 885.2,99.3 881.5,86.8 		"/>
		<path class="st2" d="M815,82.5h69.3V37.1H815V82.5z M880.5,78.7h-61.8V40.3h61.8L880.5,78.7z"/>
	</g>
	<g class="st1">
		<path class="st2" d="M828.5,55.6h7.7c1.4,0,2.6,1.2,2.6,2.6v14.4c0,1.4-1.2,2.6-2.6,2.6h-7.7c-1.4,0-2.6-1.2-2.6-2.6V58.2
			C825.9,56.8,827.1,55.6,828.5,55.6z"/>
		<path class="st2" d="M838.3,49.5c0,3.4-2.7,6.1-6.1,6.1c-3.4,0-6.1-2.7-6.1-6.1c0-3.4,2.7-6.1,6.1-6.1S838.3,46.2,838.3,49.5
			C838.3,49.5,838.3,49.5,838.3,49.5"/>
		<path class="st2" d="M845.9,55.6h7.7c1.4,0,2.6,1.2,2.6,2.6v14.4c0,1.4-1.2,2.6-2.6,2.6h-7.7c-1.4,0-2.6-1.2-2.6-2.6V58.2
			C843.3,56.8,844.5,55.6,845.9,55.6z"/>
		<path class="st2" d="M855.6,49.5c0,3.4-2.7,6.1-6.1,6.1c-3.4,0-6.1-2.7-6.1-6.1c0-3.4,2.7-6.1,6.1-6.1S855.6,46.2,855.6,49.5
			C855.6,49.5,855.6,49.5,855.6,49.5"/>
		<path class="st2" d="M863.2,55.6h7.7c1.4,0,2.6,1.2,2.6,2.6v14.4c0,1.4-1.2,2.6-2.6,2.6h-7.7c-1.4,0-2.6-1.2-2.6-2.6V58.2
			C860.7,56.8,861.8,55.6,863.2,55.6z"/>
		<path class="st2" d="M873,49.5c0,3.4-2.7,6.1-6.1,6.1c-3.4,0-6.1-2.7-6.1-6.1c0-3.4,2.7-6.1,6.1-6.1C870.3,43.5,873,46.2,873,49.5
			"/>
		<path class="st2" d="M577.1,49.9c-2.3,1.1-4.9,1.7-7.5,1.6c-3.7-0.2-6.6-3.2-10-1.8c-3.7,1.4-6.4,8-5.1,19.8S561,89.9,565,88.8
			s8.6-6,10.2-14.5l19.1-8c0,0,11.1,6.3,17.1,3s-2.7-16.6-2.7-16.6S600.3,38,589.3,37c-3.2-0.4-5.9,6.4-5.9,6.4
			S582.8,47.1,577.1,49.9"/>
		<rect x="563.9" y="58" transform="matrix(0.9189 -0.3946 0.3946 0.9189 20.3078 228.6604)" class="st3" width="4.5" height="14"/>
		
			<rect x="559.2" y="62.7" transform="matrix(0.9189 -0.3946 0.3946 0.9189 20.3106 228.6609)" class="st3" width="14" height="4.6"/>
		<path class="st3" d="M591.7,48.7c0.6,1.5-0.1,3.3-1.6,3.9c-1.5,0.6-3.3-0.1-3.9-1.6c-0.6-1.5,0.1-3.2,1.5-3.9
			C589.2,46.4,590.9,47.1,591.7,48.7C591.6,48.6,591.6,48.7,591.7,48.7"/>
		<path class="st3" d="M590.5,56.4c0.6,1.5-0.1,3.3-1.6,3.9c-1.5,0.6-3.3-0.1-3.9-1.6c-0.6-1.5,0.1-3.2,1.5-3.9
			C588,54.1,589.8,54.8,590.5,56.4C590.5,56.3,590.5,56.3,590.5,56.4"/>
		<path class="st3" d="M598.2,52.8c0.6,1.5-0.1,3.3-1.6,3.9c-1.5,0.6-3.3-0.1-3.9-1.6c-0.6-1.5,0.1-3.2,1.5-3.9
			C595.7,50.5,597.5,51.2,598.2,52.8C598.2,52.7,598.2,52.7,598.2,52.8"/>
		<path class="st2" d="M621.2,71.1c-2.6-0.5-5-1.6-7-3.2c-2.9-2.3-3.5-6.4-7-7.4c-3.9-1-9.9,2.7-15.8,13s-6.8,20.4-2.9,21.8
			s10.5,0.3,16.8-5.7l20.1,4.8c0,0,5.2,11.6,12,12.5s7.7-15,7.7-15s1.9-16.7-6.4-24c-2.3-2.2-8.6,1.7-8.6,1.7S627.5,72.3,621.2,71.1
			"/>
		
			<rect x="596.5" y="74.5" transform="matrix(0.2248 -0.9744 0.9744 0.2248 393.0054 647.6213)" class="st3" width="14" height="4.6"/>
		
			<rect x="601.3" y="69.8" transform="matrix(0.2248 -0.9744 0.9744 0.2248 393.0199 647.6675)" class="st3" width="4.5" height="14"/>
		<path class="st3" d="M633.7,78.8c-0.4,1.6-2,2.6-3.6,2.2c-1.6-0.4-2.6-2-2.2-3.6c0.4-1.6,2-2.6,3.6-2.2
			C633.1,75.5,634.1,77.1,633.7,78.8C633.7,78.8,633.7,78.8,633.7,78.8"/>
		<path class="st3" d="M628.2,84.3c-0.4,1.6-2,2.6-3.6,2.2c-1.6-0.4-2.6-2-2.2-3.6s2-2.6,3.6-2.2c0,0,0,0,0,0
			C627.6,81,628.6,82.6,628.2,84.3C628.3,84.2,628.3,84.3,628.2,84.3"/>
		<path class="st3" d="M636.6,85.9c-0.4,1.6-2,2.6-3.6,2.2c-1.6-0.4-2.6-2-2.2-3.6c0.4-1.6,2-2.6,3.6-2.2
			C635.9,82.7,636.9,84.3,636.6,85.9C636.6,85.9,636.6,85.9,636.6,85.9"/>
		<line class="st4" x1="814.3" y1="90.1" x2="884.8" y2="90.1"/>
		<line class="st4" x1="814.3" y1="95.1" x2="884.8" y2="95.1"/>
		<line class="st5" x1="850.1" y1="95.2" x2="850.3" y2="86"/>
		<line class="st6" x1="842.4" y1="86.1" x2="841.3" y2="101.1"/>
		<line class="st7" x1="834.3" y1="85.5" x2="832.2" y2="100.9"/>
		<line class="st8" x1="826.3" y1="84.8" x2="823" y2="100.7"/>
		<line class="st6" x1="858.5" y1="85.7" x2="860.2" y2="100.6"/>
		<line class="st7" x1="866.5" y1="85.3" x2="869.5" y2="100.6"/>
		<line class="st8" x1="874.5" y1="85" x2="878.7" y2="100.6"/>
		<rect x="812.6" y="94.6" class="st2" width="28.2" height="4.8"/>
		<rect x="861" y="95.4" class="st2" width="25.2" height="4.6"/>
		<g>
			<polygon class="st2" points="149.7,92.2 93.3,108 85.6,80.2 142,64.3 			"/>
			<polygon class="st3" points="102.4,102 97,103.5 92.2,86.3 97.6,84.8 			"/>
			<polygon class="st3" points="109.4,100 104,101.5 99.3,84.3 104.7,82.8 			"/>
			<polygon class="st3" points="116.5,98 111.1,99.5 106.3,82.4 111.7,80.8 			"/>
			<polygon class="st3" points="123.6,96 118.2,97.6 113.4,80.4 118.8,78.9 			"/>
			<polygon class="st3" points="130.6,94.1 125.2,95.6 120.4,78.4 125.8,76.9 			"/>
			<polygon class="st3" points="137.7,92.1 132.2,93.6 127.5,76.4 132.9,74.9 			"/>
			<polygon class="st3" points="144.7,90.1 139.3,91.6 134.5,74.5 139.9,72.9 			"/>
			<polygon class="st2" points="104.6,96.2 99.4,97.7 94.9,81.3 100.1,79.9 			"/>
			<polygon class="st2" points="111.4,94.3 106.2,95.7 101.7,79.4 106.9,78 			"/>
			<polygon class="st2" points="125.3,90.4 120.1,91.8 115.6,75.5 120.8,74.1 			"/>
			<polygon class="st2" points="132.7,88.3 127.5,89.8 123,73.4 128.2,72 			"/>
			<polygon class="st2" points="140,86.3 134.8,87.7 130.3,71.4 135.4,70 			"/>
			<path class="st2" d="M145.5,39.8c-0.6-1-1.5-1.6-2.6-1.8l0,0c-0.6-0.1-1.1,0-1.6,0.2L125,40.8l0.7,3.1L88.5,66.1
				c0,0-4.8-3.8-1.3-7s6.7-2.5,4.3-6.2s-8.5,0-10.3,1.6c-3.1,2.7-4.1,6-9.8,9.8s-8.5-0.7-15.3,3.8S48,81,54.6,90.9
				s14.2,13.7,20.8,9.7s5.8-9,8.7-11.1c3.8-2.8,8.3-2,13.2-5.1c4-2.6,4.2-3.4,2.8-5.5c-1-1.5-6.2,2.2-8.6-1.3
				c-0.9-1.5-0.8-3.3,0.2-4.7L129,48.6l3,0.3l8.3-5.6c0.9,1.6,2.9,2.1,4.5,1.3C146.2,43.4,146.6,41.3,145.5,39.8z"/>
			<line class="st9" x1="79.7" y1="71.1" x2="84.3" y2="78.7"/>
			<line class="st9" x1="73.8" y1="74.7" x2="78.5" y2="82.3"/>
			<line class="st9" x1="68" y1="78.3" x2="72.7" y2="85.9"/>
		</g>
		<rect x="309.3" y="48.6" class="st2" width="61" height="49.6"/>
		<polygon class="st2" points="382.3,60.5 397.1,48.2 397.1,98.2 382.3,89.3 		"/>
		<polygon class="st3" points="324.4,63 324.4,78.1 327.4,78.1 327.4,81.9 319.5,81.9 319.5,63 		"/>
		<rect x="330" y="63" class="st3" width="4.9" height="18.8"/>
		<path class="st3" d="M349.9,63l-2.5,18.8H340L337.1,63h5.2c0.6,5.2,1,9.6,1.3,13.2c0.3-3.6,0.5-6.8,0.8-9.7l0.3-3.5H349.9z"/>
		<polygon class="st3" points="352.2,63 360.3,63 360.3,66.8 357.1,66.8 357.1,70.4 360.1,70.4 360.1,73.9 357.1,73.9 357.1,78.1 
			360.7,78.1 360.7,81.9 352.2,81.9 		"/>
		<rect x="372.4" y="60.6" class="st2" width="5.9" height="27.4"/>
	</g>
</g>
</svg>
