<?xml version="1.0" encoding="UTF-8"?>
<svg id="_レイヤー_1" data-name="レイヤー_1" xmlns="http://www.w3.org/2000/svg" version="1.1" viewBox="0 0 320 180">
  <!-- Generator: Adobe Illustrator 29.3.1, SVG Export Plug-In . SVG Version: 2.1.0 Build 151)  -->
  <defs>
    <style>
      .st0 {
        fill: none;
      }

      .st1 {
        fill: #1d1d1d;
      }

      .st2 {
        fill: #fff;
      }
    </style>
  </defs>
  <rect class="st1" width="320" height="180"/>
  <g id="Group_13099">
    <g id="Group_13093">
      <path id="Path_13349" class="st2" d="M145.7,77.1l-4.2-15h-2.8l-4.2,15-5.8-18.3h-3.9l8.2,24.2h3l4.1-14.7,4.1,14.7h3l8.2-24.2h-3.9l-5.8,18.3ZM173.8,69.4h-11.1v-10.5h-3.6v24.2h3.6v-10.4h11.1v10.4h3.6v-24.2h-3.6v10.5ZM187.5,83v-24.2h-3.6v24.2h3.6ZM201.1,83.4c4.9,0,8.2-3.3,8.2-7.3s-2.6-5.6-6.6-6.7l-3-.8c-3-.8-3.3-2.4-3.3-3.2,0-2.2,2-3.7,4.3-3.7s4.3,1.6,4.3,3.9h3.6c0-4.4-3.4-7.2-7.7-7.2s-8,2.8-8,7.1.8,5.1,6,6.4l3.1.8c2,.5,3.9,1.5,3.9,3.7s-1.7,3.8-4.6,3.8-4.9-2-5-4.1h-3.6c0,3.9,3.4,7.4,8.6,7.4ZM214.1,58.8v24.2h3.6v-8.9h6.1c5.2,0,7.3-3.7,7.3-7.6s-2.2-7.6-7.3-7.6h-9.7ZM217.7,70.8v-8.6h6c2.7,0,3.8,2.2,3.8,4.4s-1.2,4.3-4,4.3h-5.8ZM239,72.8h9.5v-3.3h-9.5v-7.3h10.9v-3.3h-14.5v24.2h14.8v-3.3h-11.2v-6.9ZM272.1,83l-6.3-9c4-.4,6.1-4,6.1-7.5s-2.1-7.6-7.4-7.6h-9.2v24.2h3.6v-9h2.7l6.2,9h4.3ZM264.4,62.1c2.3,0,3.9,1.8,3.9,4.4s-1.4,4.4-4.7,4.4h-4.7v-8.7h5.6ZM150.3,111.1c.1-6.8-5.3-12.4-12.2-12.6,0,0,0,0,0,0-6.8,0-12.3,5.7-12.2,12.5,0,0,0,0,0,0-.1,6.7,5.2,12.3,11.9,12.5,1.4,0,2.7-.2,4-.6l2.6,4.2,2.7-1.6-2.5-3.9c3.5-2.3,5.6-6.3,5.6-10.5ZM138.1,120.2c-4.9,0-8.6-4.1-8.6-9.1s3.7-9.2,8.6-9.2,8.6,4.2,8.6,9.2c0,3-1.4,5.8-3.8,7.5l-2.7-4.4-2.7,1.7,2.5,4.1c-.6.1-1.3.2-1.9.2ZM163.8,123.5c4.8,0,8.9-3.2,8.9-8.7v-15.9h-3.6v15.8c.2,2.7-1.8,5.1-4.6,5.3-.3,0-.5,0-.8,0-2.7.2-5.1-1.8-5.3-4.6,0-.3,0-.5,0-.8v-15.8h-3.6v15.9c0,5.5,4.1,8.7,8.9,8.7h0ZM182.6,123.1v-24.2h-3.6v24.2h3.6ZM192.6,112.9h9.5v-3.3h-9.5v-7.3h10.9v-3.3h-14.5v24.2h14.8v-3.3h-11.2v-6.9ZM206.3,98.9v3.3h7.2v20.9h3.6v-20.9h7.2v-3.3h-18Z"/>
      <g id="Group_13092">
        <path id="Path_13312" class="st2" d="M63.4,64.3c-1.2,0-2,.3-2,.7v34.8c0,.4.8.7,2,.7s2-.3,2-.7v-34.8c0-.4-.8-.7-2-.7h0Z"/>
        <path id="Path_13313" class="st2" d="M73.4,71c-1.2,0-2,.3-2,.7v21.8c0,.4.8.7,2,.7s2-.3,2-.7v-21.8c0-.4-1-.7-2-.7h0Z"/>
        <path id="Path_13314" class="st2" d="M83.3,76.5c-1.2,0-2,.3-2,.7v10.4c0,.4.8.7,2,.7s2-.3,2-.7v-10.4c0-.4-.8-.7-2-.7h0Z"/>
        <path id="Path_13315" class="st2" d="M93.3,79.5c-1.2,0-2,.3-2,.7v4.5c0,.4.8.7,2,.7s2-.3,2-.7v-4.5c0-.4-.8-.7-2-.7Z"/>
        <path id="Path_13316" class="st2" d="M53.4,71c-1.2,0-2,.3-2,.7v21.8c0,.4.8.7,2,.7s2-.3,2-.7v-21.8c0-.4-.8-.7-2-.7h0Z"/>
        <path id="Path_13317" class="st2" d="M43.5,76.5c-1.2,0-2,.3-2,.7v10.4c0,.4.8.7,2,.7s2-.3,2-.7v-10.4c-.5-.6-1.3-.8-2-.7h0Z"/>
        <path id="Path_13318" class="st2" d="M33.5,79.5c-1.2,0-2,.3-2,.7v4.5c0,.4.8.7,2,.7s2-.3,2-.7v-4.5c0-.4-1-.7-2-.7Z"/>
      </g>
    </g>
    <rect id="Rectangle_7885" class="st0" x="31.5" y="49.9" width="525" height="80.2"/>
  </g>
</svg>