<?xml version="1.0" encoding="UTF-8"?>
<svg id="_レイヤー_1" data-name="レイヤー_1" xmlns="http://www.w3.org/2000/svg" version="1.1" viewBox="0 0 320 180">
  <!-- Generator: Adobe Illustrator 29.3.1, SVG Export Plug-In . SVG Version: 2.1.0 Build 151)  -->
  <defs>
    <style>
      .st0, .st1 {
        fill: none;
      }

      .st1 {
        stroke: #fff;
        stroke-linecap: round;
        stroke-width: 5px;
      }

      .st2 {
        fill: #1d1d1d;
      }

      .st3 {
        fill: #fff;
      }
    </style>
  </defs>
  <rect class="st2" x=".6" width="320" height="180"/>
  <g id="Group_13098">
    <g id="Group_13097">
      <g id="Group_13091">
        <path id="Path_13348" class="st3" d="M128.1,82.1c4.4,0,8.2-2.9,8.2-8v-14.5h-3.3v14.4c.2,2.5-1.7,4.7-4.2,4.9-.2,0-.5,0-.7,0-2.5.2-4.6-1.7-4.8-4.1,0-.2,0-.5,0-.7v-14.4h-3.3v14.5c0,5.1,3.7,8,8.1,8ZM148.4,82.1c4.4,0,7.5-3,7.5-6.7s-2.3-5.1-6-6.1l-2.8-.8c-2.8-.7-3-2.2-3-2.9,0-2,1.9-3.4,3.9-3.4s3.9,1.4,3.9,3.5h3.3c0-4-3.1-6.5-7.1-6.5s-7.3,2.6-7.3,6.5.8,4.6,5.5,5.8l2.8.7c1.8.5,3.6,1.4,3.6,3.4s-1.5,3.5-4.2,3.5-4.5-1.8-4.6-3.7h-3.3c0,3.6,3.1,6.7,7.8,6.7ZM171.9,69.9c1.8-.8,3-2.6,2.8-4.6,0-3.4-2.3-5.7-6.1-5.7h-8.4v22h9.1c3.4.2,6.4-2.4,6.5-5.8,0-.1,0-.3,0-.4,0-2.4-1.4-5-4-5.5ZM171.4,65.7c0,1.8-1,3.1-2.8,3.1h-5.1v-6.1h5c1.5,0,2.8,1.1,2.9,2.6,0,.1,0,.3,0,.4ZM163.5,78.7v-7.1h5.3c1.9-.1,3.6,1.3,3.7,3.2,0,.1,0,.3,0,.4,0,1.9-1.3,3.6-3.9,3.6h-5.2ZM120.2,96.6v22h3.3v-8.2h5.5c4.7,0,6.7-3.4,6.7-6.9s-2-7-6.7-7h-8.8ZM123.5,107.5v-7.9h5.5c2.5,0,3.5,2,3.5,4s-1.1,3.9-3.6,3.9h-5.3ZM149.4,119.1c6.2,0,11.2-5.1,11.2-11.3,0,0,0,0,0-.1.2-6.2-4.7-11.3-10.9-11.5-6.2-.2-11.3,4.7-11.5,10.9,0,.2,0,.4,0,.6,0,6.2,4.8,11.3,11,11.4,0,0,0,0,.1,0ZM149.4,116c-4.4,0-7.9-3.8-7.8-8.2,0,0,0,0,0,0,0-4.5,3.4-8.4,7.8-8.4,4.5.1,8,3.8,7.9,8.3,0,0,0,0,0,0,.1,4.4-3.4,8.2-7.8,8.3,0,0,0,0,0,0ZM181.3,113.3l-3.9-13.7h-2.5l-3.9,13.7-5.3-16.7h-3.5l7.5,22h2.8l3.7-13.4,3.8,13.4h2.8l7.5-22h-3.5l-5.3,16.7ZM196.9,109.4h8.7v-3h-8.7v-6.7h10v-3h-13.2v22h13.5v-3h-10.2v-6.3ZM227.1,118.7l-5.8-8.2c3.7-.4,5.6-3.7,5.6-6.8s-2-7-6.8-7h-8.4v22h3.3v-8.2h2.5l5.7,8.2h3.9ZM220.1,99.6c2.1,0,3.5,1.7,3.5,4s-1.2,4-4.3,4h-4.3v-7.9h5.1ZM234.9,109.4h8.7v-3h-8.7v-6.7h10v-3h-13.2v22h13.5v-3h-10.2v-6.3ZM249.7,96.6v22h8.6c6.3,0,10-4.7,10-11s-3.7-11.1-10-11.1h-8.6ZM253,115.7v-16h5.3c4.4,0,6.7,3.6,6.7,8.1s-2.3,8-6.7,8h-5.3Z"/>
        <g id="Group_9906">
          <g id="Rectangle_4614">
            <path class="st0" d="M73.4,49.9h0c8.5,0,15.4,6.9,15.4,15.4v49.2c0,8.5-6.9,15.4-15.4,15.4h0c-8.5,0-15.4-6.9-15.4-15.4v-49.2c0-8.5,6.9-15.4,15.4-15.4Z"/>
            <path class="st1" d="M73.4,52.4h0c7.1,0,12.9,5.8,12.9,12.9v49.2c0,7.1-5.8,12.9-12.9,12.9h0c-7.1,0-12.9-5.8-12.9-12.9v-49.2c0-7.1,5.8-12.9,12.9-12.9Z"/>
          </g>
          <line id="Line_9" class="st1" x1="73.4" y1="67.8" x2="73.4" y2="112"/>
        </g>
      </g>
      <rect id="Rectangle_7882" class="st0" x="57.5" y="50.1" width="241" height="80"/>
    </g>
    <rect id="Rectangle_7884" class="st0" x="57.5" y="49.9" width="525" height="80.2"/>
  </g>
</svg>