<?xml version="1.0" encoding="UTF-8"?><svg id="iD24" xmlns="http://www.w3.org/2000/svg" xmlns:xlink="http://www.w3.org/1999/xlink" viewBox="0 0 500 100"><defs><style>.cls-1{fill:url(#_規グラデーションスウォッチ_1-17);}.cls-2{fill:url(#_規グラデーションスウォッチ_1-19);}.cls-3{fill:url(#_規グラデーションスウォッチ_1-12);}.cls-4{fill:url(#_規グラデーションスウォッチ_1-14);}.cls-5{fill:url(#_規グラデーションスウォッチ_1-11);}.cls-6{fill:url(#_規グラデーションスウォッチ_1-16);}.cls-7{fill:url(#_規グラデーションスウォッチ_1-13);}.cls-8{fill:url(#_規グラデーションスウォッチ_1-18);}.cls-9{fill:url(#_規グラデーションスウォッチ_1-15);}.cls-10{fill:url(#_規グラデーションスウォッチ_1-10);}.cls-11{fill:url(#_規グラデーションスウォッチ_1-51);}.cls-12{fill:url(#_規グラデーションスウォッチ_1-59);}.cls-13{fill:url(#_規グラデーションスウォッチ_1-57);}.cls-14{fill:url(#_規グラデーションスウォッチ_1-56);}.cls-15{fill:url(#_規グラデーションスウォッチ_1-50);}.cls-16{fill:url(#_規グラデーションスウォッチ_1-55);}.cls-17{fill:url(#_規グラデーションスウォッチ_1-54);}.cls-18{fill:url(#_規グラデーションスウォッチ_1-53);}.cls-19{fill:url(#_規グラデーションスウォッチ_1-52);}.cls-20{fill:url(#_規グラデーションスウォッチ_1-32);}.cls-21{fill:url(#_規グラデーションスウォッチ_1-33);}.cls-22{fill:url(#_規グラデーションスウォッチ_1-35);}.cls-23{fill:url(#_規グラデーションスウォッチ_1-34);}.cls-24{fill:url(#_規グラデーションスウォッチ_1-37);}.cls-25{fill:url(#_規グラデーションスウォッチ_1-36);}.cls-26{fill:url(#_規グラデーションスウォッチ_1-39);}.cls-27{fill:url(#_規グラデーションスウォッチ_1-38);}.cls-28{fill:url(#_規グラデーションスウォッチ_1-31);}.cls-29{fill:url(#_規グラデーションスウォッチ_1-30);}.cls-30{fill:url(#_規グラデーションスウォッチ_1-22);}.cls-31{fill:url(#_規グラデーションスウォッチ_1-58);}.cls-32{fill:url(#_規グラデーションスウォッチ_1-24);}.cls-33{fill:url(#_規グラデーションスウォッチ_1-25);}.cls-34{fill:url(#_規グラデーションスウォッチ_1-26);}.cls-35{fill:url(#_規グラデーションスウォッチ_1-27);}.cls-36{fill:url(#_規グラデーションスウォッチ_1-28);}.cls-37{fill:url(#_規グラデーションスウォッチ_1-29);}.cls-38{fill:url(#_規グラデーションスウォッチ_1-20);}.cls-39{fill:url(#_規グラデーションスウォッチ_1-21);}.cls-40{fill:url(#_規グラデーションスウォッチ_1-23);}.cls-41{fill:url(#_規グラデーションスウォッチ_1-60);}.cls-42{fill:url(#_規グラデーションスウォッチ_1-61);}.cls-43{fill:url(#_規グラデーションスウォッチ_1-42);}.cls-44{fill:url(#_規グラデーションスウォッチ_1-40);}.cls-45{fill:url(#_規グラデーションスウォッチ_1-46);}.cls-46{fill:url(#_規グラデーションスウォッチ_1-43);}.cls-47{fill:url(#_規グラデーションスウォッチ_1-44);}.cls-48{fill:url(#_規グラデーションスウォッチ_1-41);}.cls-49{fill:url(#_規グラデーションスウォッチ_1-47);}.cls-50{fill:url(#_規グラデーションスウォッチ_1-48);}.cls-51{fill:url(#_規グラデーションスウォッチ_1-45);}.cls-52{fill:url(#_規グラデーションスウォッチ_1-49);}.cls-53{fill:url(#_規グラデーションスウォッチ_1-5);}.cls-54{fill:url(#_規グラデーションスウォッチ_1-2);}.cls-55{fill:url(#_規グラデーションスウォッチ_1-4);}.cls-56{fill:url(#_規グラデーションスウォッチ_1-7);}.cls-57{fill:url(#_規グラデーションスウォッチ_1-9);}.cls-58{fill:url(#_規グラデーションスウォッチ_1-6);}.cls-59{fill:url(#_規グラデーションスウォッチ_1-3);}.cls-60{fill:url(#_規グラデーションスウォッチ_1-8);}.cls-61{fill:url(#_規グラデーションスウォッチ_1);}</style><linearGradient id="_規グラデーションスウォッチ_1" x1="79.92" y1="74.29" x2="85.46" y2="64.68" gradientTransform="matrix(1, 0, 0, 1, 0, 0)" gradientUnits="userSpaceOnUse"><stop offset="0" stop-color="#3fffdc"/><stop offset="1" stop-color="#1565ff"/></linearGradient><linearGradient id="_規グラデーションスウォッチ_1-2" x1="89.53" y1="74.22" x2="95.47" y2="63.93" xlink:href="#_規グラデーションスウォッチ_1"/><linearGradient id="_規グラデーションスウォッチ_1-3" x1="99.67" y1="71.65" x2="103.97" y2="64.21" xlink:href="#_規グラデーションスウォッチ_1"/><linearGradient id="_規グラデーションスウォッチ_1-4" x1="109.34" y1="72.13" x2="113.65" y2="64.67" xlink:href="#_規グラデーションスウォッチ_1"/><linearGradient id="_規グラデーションスウォッチ_1-5" x1="117.08" y1="73.33" x2="121.86" y2="65.05" xlink:href="#_規グラデーションスウォッチ_1"/><linearGradient id="_規グラデーションスウォッチ_1-6" x1="125.69" y1="72.92" x2="131.26" y2="63.27" xlink:href="#_規グラデーションスウォッチ_1"/><linearGradient id="_規グラデーションスウォッチ_1-7" x1="135.75" y1="72.78" x2="140.49" y2="64.56" xlink:href="#_規グラデーションスウォッチ_1"/><linearGradient id="_規グラデーションスウォッチ_1-8" x1="88.67" y1="86.91" x2="93.54" y2="78.48" xlink:href="#_規グラデーションスウォッチ_1"/><linearGradient id="_規グラデーションスウォッチ_1-9" x1="98.56" y1="86.48" x2="103.14" y2="78.54" xlink:href="#_規グラデーションスウォッチ_1"/><linearGradient id="_規グラデーションスウォッチ_1-10" x1="108.19" y1="86.18" x2="112.44" y2="78.82" xlink:href="#_規グラデーションスウォッチ_1"/><linearGradient id="_規グラデーションスウォッチ_1-11" x1="117.4" y1="87.52" x2="123.2" y2="77.49" xlink:href="#_規グラデーションスウォッチ_1"/><linearGradient id="_規グラデーションスウォッチ_1-12" x1="127.19" y1="86.91" x2="132.67" y2="77.42" xlink:href="#_規グラデーションスウォッチ_1"/><linearGradient id="_規グラデーションスウォッチ_1-13" x1="204.93" y1="74.27" x2="210.43" y2="64.75" xlink:href="#_規グラデーションスウォッチ_1"/><linearGradient id="_規グラデーションスウォッチ_1-14" x1="214.69" y1="74.31" x2="220.47" y2="64.29" xlink:href="#_規グラデーションスウォッチ_1"/><linearGradient id="_規グラデーションスウォッチ_1-15" x1="224.59" y1="71.65" x2="228.89" y2="64.21" xlink:href="#_規グラデーションスウォッチ_1"/><linearGradient id="_規グラデーションスウォッチ_1-16" x1="234.26" y1="72.13" x2="238.57" y2="64.67" xlink:href="#_規グラデーションスウォッチ_1"/><linearGradient id="_規グラデーションスウォッチ_1-17" x1="242" y1="73.33" x2="246.78" y2="65.05" xlink:href="#_規グラデーションスウォッチ_1"/><linearGradient id="_規グラデーションスウォッチ_1-18" x1="250.61" y1="72.92" x2="256.18" y2="63.27" xlink:href="#_規グラデーションスウォッチ_1"/><linearGradient id="_規グラデーションスウォッチ_1-19" x1="260.67" y1="72.78" x2="265.42" y2="64.56" xlink:href="#_規グラデーションスウォッチ_1"/><linearGradient id="_規グラデーションスウォッチ_1-20" x1="215.23" y1="86.18" x2="219.48" y2="78.82" xlink:href="#_規グラデーションスウォッチ_1"/><linearGradient id="_規グラデーションスウォッチ_1-21" x1="224.83" y1="87.17" x2="230.15" y2="77.96" xlink:href="#_規グラデーションスウォッチ_1"/><linearGradient id="_規グラデーションスウォッチ_1-22" x1="233.82" y1="85.13" x2="238.13" y2="77.67" xlink:href="#_規グラデーションスウォッチ_1"/><linearGradient id="_規グラデーションスウォッチ_1-23" x1="242.75" y1="87.17" x2="248.02" y2="78.05" xlink:href="#_規グラデーションスウォッチ_1"/><linearGradient id="_規グラデーションスウォッチ_1-24" x1="251.82" y1="86.78" x2="256.74" y2="78.27" xlink:href="#_規グラデーションスウォッチ_1"/><linearGradient id="_規グラデーションスウォッチ_1-25" x1="226.43" y1="40.76" x2="238.65" y2="19.61" xlink:href="#_規グラデーションスウォッチ_1"/><linearGradient id="_規グラデーションスウォッチ_1-26" x1="224.29" y1="51.37" x2="237.85" y2="27.89" xlink:href="#_規グラデーションスウォッチ_1"/><linearGradient id="_規グラデーションスウォッチ_1-27" x1="328.9" y1="74.07" x2="333.52" y2="66.08" xlink:href="#_規グラデーションスウォッチ_1"/><linearGradient id="_規グラデーションスウォッチ_1-28" x1="338.77" y1="71.4" x2="341.28" y2="67.06" xlink:href="#_規グラデーションスウォッチ_1"/><linearGradient id="_規グラデーションスウォッチ_1-29" x1="346.35" y1="73.44" x2="351.39" y2="64.71" xlink:href="#_規グラデーションスウォッチ_1"/><linearGradient id="_規グラデーションスウォッチ_1-30" x1="355.63" y1="72.77" x2="360.06" y2="65.11" xlink:href="#_規グラデーションスウォッチ_1"/><linearGradient id="_規グラデーションスウォッチ_1-31" x1="365.33" y1="73.55" x2="369.27" y2="66.74" xlink:href="#_規グラデーションスウォッチ_1"/><linearGradient id="_規グラデーションスウォッチ_1-32" x1="372.36" y1="72.78" x2="377.39" y2="64.06" xlink:href="#_規グラデーションスウォッチ_1"/><linearGradient id="_規グラデーションスウォッチ_1-33" x1="383.15" y1="72.39" x2="387.39" y2="65.06" xlink:href="#_規グラデーションスウォッチ_1"/><linearGradient id="_規グラデーションスウォッチ_1-34" x1="389.79" y1="73.19" x2="394.39" y2="65.23" xlink:href="#_規グラデーションスウォッチ_1"/><linearGradient id="_規グラデーションスウォッチ_1-35" x1="400.45" y1="72.66" x2="404.77" y2="65.17" xlink:href="#_規グラデーションスウォッチ_1"/><linearGradient id="_規グラデーションスウォッチ_1-36" x1="409.94" y1="74.52" x2="415.62" y2="64.69" xlink:href="#_規グラデーションスウォッチ_1"/><linearGradient id="_規グラデーションスウォッチ_1-37" x1="419.54" y1="74.33" x2="425.35" y2="64.27" xlink:href="#_規グラデーションスウォッチ_1"/><linearGradient id="_規グラデーションスウォッチ_1-38" x1="429.23" y1="72.71" x2="432.66" y2="66.76" xlink:href="#_規グラデーションスウォッチ_1"/><linearGradient id="_規グラデーションスウォッチ_1-39" x1="438.17" y1="74.1" x2="442.9" y2="65.91" xlink:href="#_規グラデーションスウォッチ_1"/><linearGradient id="_規グラデーションスウォッチ_1-40" x1="337.77" y1="86.34" x2="341.59" y2="79.72" xlink:href="#_規グラデーションスウォッチ_1"/><linearGradient id="_規グラデーションスウォッチ_1-41" x1="346.75" y1="86.03" x2="351.52" y2="77.77" xlink:href="#_規グラデーションスウォッチ_1"/><linearGradient id="_規グラデーションスウォッチ_1-42" x1="356.05" y1="85.86" x2="359.97" y2="79.06" xlink:href="#_規グラデーションスウォッチ_1"/><linearGradient id="_規グラデーションスウォッチ_1-43" x1="365.57" y1="85.51" x2="369.59" y2="78.55" xlink:href="#_規グラデーションスウォッチ_1"/><linearGradient id="_規グラデーションスウォッチ_1-44" x1="373.52" y1="86.04" x2="378.16" y2="78" xlink:href="#_規グラデーションスウォッチ_1"/><linearGradient id="_規グラデーションスウォッチ_1-45" x1="382.79" y1="86.48" x2="388.53" y2="76.54" xlink:href="#_規グラデーションスウォッチ_1"/><linearGradient id="_規グラデーションスウォッチ_1-46" x1="393.14" y1="85.65" x2="397.27" y2="78.5" xlink:href="#_規グラデーションスウォッチ_1"/><linearGradient id="_規グラデーションスウォッチ_1-47" x1="402.48" y1="86.36" x2="407.08" y2="78.39" xlink:href="#_規グラデーションスウォッチ_1"/><linearGradient id="_規グラデーションスウォッチ_1-48" x1="410.76" y1="85.86" x2="414.68" y2="79.06" xlink:href="#_規グラデーションスウォッチ_1"/><linearGradient id="_規グラデーションスウォッチ_1-49" x1="419.38" y1="86.33" x2="424.16" y2="78.05" xlink:href="#_規グラデーションスウォッチ_1"/><linearGradient id="_規グラデーションスウォッチ_1-50" x1="428.77" y1="86.78" x2="433.69" y2="78.27" xlink:href="#_規グラデーションスウォッチ_1"/><linearGradient id="_規グラデーションスウォッチ_1-51" x1="376.43" y1="40.76" x2="388.65" y2="19.61" xlink:href="#_規グラデーションスウォッチ_1"/><linearGradient id="_規グラデーションスウォッチ_1-52" x1="374.29" y1="51.37" x2="387.85" y2="27.89" xlink:href="#_規グラデーションスウォッチ_1"/><linearGradient id="_規グラデーションスウォッチ_1-53" x1="105.19" y1="48.13" x2="115.36" y2="30.51" xlink:href="#_規グラデーションスウォッチ_1"/><linearGradient id="_規グラデーションスウォッチ_1-54" x1="109.35" y1="36.04" x2="111.4" y2="32.48" xlink:href="#_規グラデーションスウォッチ_1"/><linearGradient id="_規グラデーションスウォッチ_1-55" x1="109.35" y1="24.29" x2="111.4" y2="20.74" xlink:href="#_規グラデーションスウォッチ_1"/><linearGradient id="_規グラデーションスウォッチ_1-56" x1="117.71" y1="26.81" x2="119.87" y2="23.06" xlink:href="#_規グラデーションスウォッチ_1"/><linearGradient id="_規グラデーションスウォッチ_1-57" x1="123.65" y1="32.57" x2="125.68" y2="29.04" xlink:href="#_規グラデーションスウォッチ_1"/><linearGradient id="_規グラデーションスウォッチ_1-58" x1="126.33" y1="40.52" x2="127.83" y2="37.92" xlink:href="#_規グラデーションスウォッチ_1"/><linearGradient id="_規グラデーションスウォッチ_1-59" x1="101.53" y1="25.41" x2="102.88" y2="23.07" xlink:href="#_規グラデーションスウォッチ_1"/><linearGradient id="_規グラデーションスウォッチ_1-60" x1="95.9" y1="30.87" x2="96.77" y2="29.36" xlink:href="#_規グラデーションスウォッチ_1"/><linearGradient id="_規グラデーションスウォッチ_1-61" x1="93.17" y1="39.83" x2="94.67" y2="37.23" xlink:href="#_規グラデーションスウォッチ_1"/></defs><g><path class="cls-61" d="M81.36,69.97c-.45-.35-.98-.74-1.6-1.19l.58-.78c.49,.34,.96,.68,1.41,1.02,.23-.7,.37-1.49,.41-2.38h-1.74c-.07,.2-.18,.49-.34,.88-.39,.91-.84,1.71-1.35,2.4l-.66-.76c.9-1.37,1.53-2.88,1.9-4.53l.97,.12c-.05,.29-.13,.61-.23,.97h2.45c0,.32,0,.63-.03,.94,.43,.49,.89,.96,1.36,1.39v-3.31h1.07v4.22c.65,.51,1.35,.98,2.08,1.39l-.43,.88c-.55-.31-1.1-.66-1.65-1.07v3.58h-1.07v-4.42c-.5-.43-1-.9-1.49-1.42-.19,1.15-.51,2.13-.98,2.94-.75,1.32-1.83,2.25-3.22,2.8l-.41-.87c1.09-.43,1.97-1.18,2.65-2.25,.15-.24,.25-.42,.32-.55Z"/><path class="cls-54" d="M88.11,69.06v-.9h1.15c-.13-.55-.29-1.16-.49-1.82h-.56v-.88h1.96v-.92h1.07v.92h2.05v.88h-.54c-.12,.6-.29,1.21-.5,1.82h1.14v.9h-5.28Zm1.56,4.23v.4h-1.06v-3.9h4.33v3.9h-1.03v-.4h-2.24Zm2.24-.85v-1.78h-2.24v1.78h2.24Zm-.64-4.28c.21-.57,.38-1.17,.51-1.82h-2.01c.19,.65,.34,1.25,.47,1.82h1.03Zm4.91,.32c.38,.31,.68,.69,.89,1.14,.21,.45,.32,.9,.32,1.37,0,.58-.13,1-.38,1.27-.25,.25-.65,.38-1.2,.38h-.62l-.18-.92h.28c.41,0,.69-.05,.84-.16,.14-.1,.21-.3,.21-.6,0-.8-.44-1.61-1.32-2.43,.49-.83,.9-1.73,1.23-2.69h-1.51v7.85h-1.03v-8.7h3.6v.85c-.29,.91-.66,1.79-1.13,2.64Z"/><path class="cls-59" d="M98.47,66.62v-.98h7.98v.98c-.27,.89-.74,1.71-1.42,2.47-.68,.76-1.54,1.41-2.58,1.95,.13,.19,.54,.79,1.21,1.8l-.93,.58c-1.09-1.63-2.1-3.08-3.05-4.35l.9-.61c.6,.81,1.01,1.37,1.24,1.69,.82-.41,1.55-.93,2.19-1.57,.64-.64,1.07-1.29,1.3-1.96h-6.84Z"/><path class="cls-55" d="M107.31,68.97c1.42-.2,2.81-.63,4.16-1.29,1.35-.66,2.46-1.44,3.33-2.35l.65,.74c-.77,.8-1.75,1.53-2.94,2.18v5.07h-1.12v-4.52c-1.3,.57-2.61,.95-3.92,1.14l-.16-.97Z"/><path class="cls-53" d="M122.36,66.94h-3.63c-.39,1.09-1.06,2.08-1.99,2.96l-.74-.65c.59-.57,1.07-1.22,1.44-1.96s.6-1.51,.69-2.32l1.02,.07c-.03,.31-.08,.63-.15,.94h4.48v.2c0,2.27-.53,3.96-1.58,5.06-1.06,1.1-2.75,1.75-5.06,1.94l-.15-.95c1.95-.19,3.36-.68,4.23-1.49,.87-.8,1.36-2.08,1.45-3.82Z"/><path class="cls-58" d="M131.61,66.84h-6.43v-1h6.15v-.1c0-.39,.14-.72,.41-.99s.6-.41,.99-.41,.72,.14,.99,.41c.27,.27,.41,.6,.41,.99s-.14,.72-.41,.99c-.27,.27-.6,.41-.99,.41h-.04c-.16,1.89-.77,3.33-1.82,4.32-1.05,.98-2.6,1.58-4.63,1.79l-.19-.97c1.84-.19,3.2-.72,4.08-1.57s1.37-2.14,1.48-3.86Zm1.58-.64c.13-.13,.19-.28,.19-.46s-.06-.33-.19-.46c-.13-.13-.28-.19-.46-.19s-.33,.06-.46,.19c-.13,.13-.19,.28-.19,.46s.06,.33,.19,.46c.13,.13,.28,.19,.46,.19s.33-.06,.46-.19Z"/><path class="cls-56" d="M135.6,69.79v-4.45h1.1v4.45h-1.1Zm6.24-4.45v2.65c0,1.7-.4,2.97-1.2,3.82-.8,.85-2.08,1.37-3.84,1.58l-.23-.99c1.55-.21,2.63-.63,3.24-1.27,.61-.64,.91-1.68,.91-3.11v-2.68h1.12Z"/><path class="cls-60" d="M89.44,77.68l.97,.11c-.1,.65-.22,1.3-.36,1.95h1.49c.16,0,.34,.02,.54,.05s.33,.07,.41,.1c.08,.03,.16,.1,.26,.22,.1,.12,.16,.22,.18,.31,.02,.09,.05,.26,.08,.5,.03,.24,.04,.46,.04,.66v.9c0,1.26-.15,2.2-.46,2.82s-.7,.93-1.19,.93c-.59,0-1.28-.17-2.07-.51l.32-.91c.7,.28,1.22,.42,1.55,.42,.09,0,.19-.06,.28-.17,.09-.11,.18-.28,.26-.51s.14-.53,.19-.92c.05-.38,.07-.82,.07-1.3v-.57c0-.11,0-.25-.02-.41-.01-.16-.02-.26-.03-.31s-.03-.11-.08-.19c-.05-.08-.08-.12-.11-.13-.03,0-.09-.03-.19-.05s-.18-.04-.25-.04h-1.5c-.47,1.94-1.1,3.83-1.89,5.67l-.92-.35c.74-1.74,1.33-3.51,1.78-5.32h-1.65v-.9h1.87c.17-.77,.31-1.46,.41-2.06Zm3.92,1.56l.94-.32c.69,1.63,1.26,3.31,1.71,5.06l-.97,.23c-.45-1.75-1.01-3.41-1.68-4.97Z"/><path class="cls-57" d="M97.78,80.08l1.02,.09c-.11,.85-.22,1.55-.31,2.12h.02c.43-.32,.93-.58,1.51-.77,.58-.19,1.13-.28,1.66-.28,1.89,0,2.84,.77,2.84,2.3,0,.89-.37,1.57-1.1,2.04-.73,.47-1.81,.71-3.24,.71-.65,0-1.38-.04-2.19-.13l.06-.92c.97,.1,1.68,.15,2.13,.15,1.04,0,1.83-.16,2.37-.48,.54-.32,.8-.78,.8-1.37,0-.93-.61-1.4-1.83-1.4-.47,0-1,.12-1.6,.36-.6,.24-1.17,.55-1.71,.96l-.93-.22c.19-1.03,.35-2.08,.5-3.15Zm.83-1.79c1.55,.2,3.08,.3,4.61,.3v.9c-1.57,0-3.15-.1-4.73-.3l.12-.9Z"/><path class="cls-10" d="M111.18,85.19c.77-.09,1.36-.39,1.77-.9,.42-.51,.62-1.19,.62-2.04,0-.77-.25-1.41-.74-1.93-.49-.52-1.13-.8-1.9-.86-.15,1.28-.33,2.36-.54,3.23-.21,.87-.45,1.54-.71,1.99-.26,.45-.52,.77-.79,.95-.26,.18-.56,.27-.88,.27-.51,0-.98-.3-1.41-.9-.43-.6-.64-1.33-.64-2.2,0-1.27,.43-2.31,1.3-3.11,.87-.8,2-1.19,3.4-1.19,1.13,0,2.06,.35,2.79,1.06,.74,.71,1.1,1.6,1.1,2.69s-.29,2.04-.86,2.73c-.58,.69-1.35,1.08-2.33,1.17l-.2-.95Zm-1.28-5.69c-.89,.14-1.6,.5-2.13,1.09-.53,.59-.79,1.32-.79,2.2,0,.57,.12,1.06,.35,1.47,.24,.42,.47,.62,.69,.62,.11,0,.22-.04,.33-.13s.24-.26,.38-.51c.14-.25,.28-.57,.41-.96s.26-.91,.4-1.56,.25-1.4,.35-2.23Z"/><path class="cls-5" d="M124.07,77.99v3.17h.65v.88h-2.28c.16,.45,.36,.88,.59,1.31,.34-.33,.67-.72,.99-1.16l.7,.6c-.39,.53-.79,.99-1.2,1.36,.43,.61,.91,1.14,1.43,1.58l-.69,.77c-.53-.49-1.01-1.1-1.44-1.84-.15-.27-.28-.51-.38-.72v1.18c0,.29,0,.49,0,.58-.01,.18-.03,.31-.05,.4-.03,.13-.07,.22-.12,.28-.04,.05-.12,.11-.23,.16-.09,.04-.2,.07-.33,.08-.16,.01-.32,.02-.48,.02-.17,0-.52-.02-1.03-.05l-.04-.85c.47,.03,.76,.05,.89,.05,.17,0,.28-.03,.32-.09,.04-.06,.06-.23,.06-.5v-.72c-.65,.69-1.42,1.34-2.3,1.93l-.55-.67c-1.04,.32-2.01,.58-2.92,.77l-.11-.89c.49-.1,1.02-.23,1.6-.38v-2.82h-1.47v-.88h1.47v-.98h-.87v-.36c-.21,.19-.44,.38-.67,.55l-.21-1.02c.61-.47,1.21-1.1,1.81-1.91h.97c.53,.61,1.07,1.08,1.6,1.41l-.35,.88s-.06-.05-.11-.08c-.05-.03-.08-.06-.11-.07v.6h-1.06v.98h1.18v-.38h3.68v-.74h-3.23v-.83h3.23v-.73h-3.36v-.87h4.43Zm-8.32,4.99l.77-.21c.14,.47,.3,1.1,.47,1.9l-.77,.21c-.18-.81-.34-1.44-.47-1.9Zm1.01-3.26h2.12c-.43-.35-.82-.75-1.16-1.18-.29,.42-.61,.81-.96,1.18Zm4.66,3.56v-1.24h-2.05v.38h-1.23v2.53c.49-.14,.94-.28,1.36-.43l.06,.41c.68-.5,1.3-1.05,1.86-1.65Zm-2.24-.68l.83-.41c.28,.45,.53,.92,.76,1.4l-.79,.49c-.18-.37-.37-.74-.57-1.09-.11,.52-.24,1.04-.39,1.55l-.75-.2c.15-.5,.3-1.05,.43-1.64l.62,.13s-.04-.07-.07-.12-.06-.09-.07-.12Z"/><path class="cls-3" d="M125.6,81.49v-.85h2.46c-.25-.49-.49-.94-.73-1.35h-1.43v-.87h3.7v-.93h1.1v.93h3.7v.87h-1.47c-.2,.49-.42,.94-.67,1.35h2.44v.85h-9.1Zm1.2,.57h6.7v4.63h-1.1v-.4h-4.5v.4h-1.1v-4.63Zm1.1,1.7h4.5v-.82h-4.5v.82Zm0,.83v.85h4.5v-.85h-4.5Zm3.17-3.95c.28-.41,.52-.86,.73-1.35h-3.27c.26,.48,.49,.93,.68,1.35h1.86Z"/></g><g><path class="cls-7" d="M207.24,64.59h1.08v1.07h3.68v6.38c0,.19,0,.38-.02,.57-.01,.15-.04,.28-.07,.39-.03,.1-.08,.19-.14,.26-.04,.05-.13,.09-.26,.14-.13,.05-.26,.07-.39,.08-.09,0-.28,.01-.55,.01-.15,0-.69-.02-1.6-.05l-.05-.92c.69,.03,1.17,.04,1.45,.04s.43-.02,.48-.06c.05-.04,.07-.19,.07-.46v-1.65l-.76,.51c-.83-1.07-1.64-1.87-2.44-2.41-.51,.93-1.35,1.71-2.53,2.34l-.47-.59v3.28h-1.08v-7.86h3.6v-1.07Zm-2.52,5.3c.85-.43,1.48-.93,1.88-1.51,.33-.49,.54-1.08,.61-1.79h-2.49v3.3Zm3.38-2.3c1.05,.71,1.99,1.59,2.82,2.63v-3.63h-2.63c-.03,.36-.1,.69-.19,1Z"/><path class="cls-4" d="M222.15,65.26v.86h-1.09c.21,.27,.4,.55,.57,.82h.45v.82h-2.39c.02,.31,.05,.63,.09,.94,.09,.69,.2,1.26,.33,1.7,.35-.67,.63-1.41,.82-2.22l.94,.28c-.29,1.15-.74,2.18-1.36,3.08,0,0,0,0,0,.02,0,.01,0,.02,.01,.02,.15,.33,.28,.57,.39,.72,.11,.15,.19,.22,.26,.22,.1,0,.2-.45,.3-1.36l.94,.24c-.06,.79-.19,1.38-.4,1.77-.2,.38-.43,.57-.7,.57s-.56-.16-.87-.48c-.21-.21-.41-.5-.62-.87-.52,.56-1.1,1.01-1.74,1.35l-.62-.72c.18-.09,.35-.19,.51-.3h-2.08v.57h-.98v-5.07h3.66v.74h-.93v.56h.83v1.8h-.83v.57h.93v.39c.31-.27,.59-.54,.82-.81-.19-.51-.35-1.12-.48-1.85-.11-.62-.19-1.24-.23-1.86h-4.01v1.38c0,1.18-.07,2.09-.2,2.74-.14,.67-.38,1.3-.71,1.9l-.77-.78c.25-.54,.43-1.13,.53-1.76,.1-.64,.15-1.57,.15-2.8v-1.5h4.97v-.45h.3v-.37h-2.5v.57h-1.05v-.57h-2.15v-.86h2.15v-.64h1.05v.64h2.5v-.64h1.05v.64h2.15Zm-6.25,4.26h.85v-.56h-.85v.56Zm0,1.2h1.65v-.6h-1.65v.6Zm0,1.17h.85v-.57h-.85v.57Zm3.76-4.95h.93s-.08-.1-.17-.23c-.09-.13-.16-.23-.22-.29l.62-.29h-.83v.42h-.35s0,.11,0,.2c0,.09,0,.16,0,.2Z"/><path class="cls-9" d="M223.39,66.62v-.98h7.98v.98c-.27,.89-.74,1.71-1.42,2.47-.68,.76-1.54,1.41-2.58,1.95,.13,.19,.54,.79,1.21,1.8l-.93,.58c-1.09-1.63-2.1-3.08-3.05-4.35l.9-.61c.6,.81,1.01,1.37,1.24,1.69,.82-.41,1.55-.93,2.19-1.57,.64-.64,1.07-1.29,1.3-1.96h-6.84Z"/><path class="cls-6" d="M232.23,68.97c1.42-.2,2.81-.63,4.16-1.29,1.35-.66,2.46-1.44,3.33-2.35l.65,.74c-.77,.8-1.75,1.53-2.94,2.18v5.07h-1.12v-4.52c-1.3,.57-2.61,.95-3.92,1.14l-.16-.97Z"/><path class="cls-1" d="M247.28,66.94h-3.63c-.39,1.09-1.06,2.08-1.99,2.96l-.74-.65c.59-.57,1.07-1.22,1.44-1.96s.6-1.51,.69-2.32l1.02,.07c-.03,.31-.08,.63-.15,.94h4.48v.2c0,2.27-.53,3.96-1.58,5.06-1.06,1.1-2.75,1.75-5.06,1.94l-.15-.95c1.95-.19,3.36-.68,4.23-1.49,.87-.8,1.36-2.08,1.45-3.82Z"/><path class="cls-8" d="M256.54,66.84h-6.43v-1h6.15v-.1c0-.39,.14-.72,.41-.99s.6-.41,.99-.41,.72,.14,.99,.41c.27,.27,.41,.6,.41,.99s-.14,.72-.41,.99c-.27,.27-.6,.41-.99,.41h-.04c-.16,1.89-.77,3.33-1.82,4.32-1.05,.98-2.6,1.58-4.63,1.79l-.19-.97c1.84-.19,3.2-.72,4.08-1.57s1.37-2.14,1.48-3.86Zm1.58-.64c.13-.13,.19-.28,.19-.46s-.06-.33-.19-.46c-.13-.13-.28-.19-.46-.19s-.33,.06-.46,.19c-.13,.13-.19,.28-.19,.46s.06,.33,.19,.46c.13,.13,.28,.19,.46,.19s.33-.06,.46-.19Z"/><path class="cls-2" d="M260.53,69.79v-4.45h1.1v4.45h-1.1Zm6.24-4.45v2.65c0,1.7-.4,2.97-1.2,3.82-.8,.85-2.08,1.37-3.84,1.58l-.23-.99c1.55-.21,2.63-.63,3.24-1.27,.61-.64,.91-1.68,.91-3.11v-2.68h1.12Z"/><path class="cls-38" d="M218.22,85.19c.77-.09,1.36-.39,1.77-.9,.42-.51,.62-1.19,.62-2.04,0-.77-.25-1.41-.74-1.93-.49-.52-1.13-.8-1.9-.86-.15,1.28-.33,2.36-.54,3.23-.21,.87-.45,1.54-.71,1.99-.26,.45-.52,.77-.79,.95-.26,.18-.56,.27-.88,.27-.51,0-.98-.3-1.41-.9-.43-.6-.64-1.33-.64-2.2,0-1.27,.43-2.31,1.3-3.11,.87-.8,2-1.19,3.4-1.19,1.13,0,2.06,.35,2.79,1.06,.74,.71,1.1,1.6,1.1,2.69s-.29,2.04-.86,2.73c-.58,.69-1.35,1.08-2.33,1.17l-.2-.95Zm-1.28-5.69c-.89,.14-1.6,.5-2.13,1.09-.53,.59-.79,1.32-.79,2.2,0,.57,.12,1.06,.35,1.47,.24,.42,.47,.62,.69,.62,.11,0,.22-.04,.33-.13s.24-.26,.38-.51c.14-.25,.28-.57,.41-.96s.26-.91,.4-1.56,.25-1.4,.35-2.23Z"/><path class="cls-39" d="M224.31,78.78l1.1,.07c-.23,2.61-.97,5.03-2.23,7.26l-1.01-.47c1.19-2.12,1.9-4.41,2.14-6.86Zm3.08-.29l.81-.42c.4,.71,.7,1.25,.89,1.63l-.81,.39c-.31-.58-.6-1.11-.89-1.6Zm.87,2.44l1.05-.31c.59,1.56,1.12,3.33,1.6,5.31l-1.12,.22c-.45-1.91-.96-3.65-1.53-5.22Zm.61-2.8l.83-.43c.34,.6,.64,1.15,.91,1.66l-.83,.4c-.28-.53-.58-1.08-.91-1.63Z"/><path class="cls-30" d="M231.79,81.97c1.42-.2,2.81-.63,4.16-1.29,1.35-.66,2.46-1.44,3.33-2.35l.65,.74c-.77,.8-1.75,1.53-2.94,2.18v5.07h-1.12v-4.52c-1.3,.57-2.61,.95-3.92,1.14l-.16-.97Z"/><path class="cls-40" d="M242.23,78.78l1.1,.07c-.23,2.61-.97,5.03-2.23,7.26l-1.01-.47c1.19-2.12,1.9-4.41,2.14-6.86Zm5.69-.73c.27,.27,.41,.6,.41,.99s-.14,.72-.41,.99-.6,.41-.99,.41-.72-.14-.99-.41-.41-.6-.41-.99,.14-.72,.41-.99,.6-.41,.99-.41,.72,.14,.99,.41Zm-1.66,3.11l1.04-.31c.56,1.5,1.07,3.19,1.53,5.08l-1.12,.22c-.45-1.85-.93-3.52-1.45-4.99Zm1.13-1.66c.13-.13,.19-.28,.19-.46s-.06-.33-.19-.46c-.13-.13-.28-.19-.46-.19s-.33,.06-.46,.19c-.13,.13-.19,.28-.19,.46s.06,.33,.19,.46c.13,.13,.28,.19,.46,.19s.33-.06,.46-.19Z"/><path class="cls-32" d="M251,79.56v-.97h6.3v.97c-.47,1.09-1.15,2.12-2.05,3.11,1.01,.92,1.97,1.85,2.89,2.79l-.73,.71c-.96-.98-1.92-1.91-2.87-2.79-1.17,1.09-2.48,1.99-3.94,2.7l-.47-.86c1.41-.72,2.63-1.56,3.66-2.54,1.03-.97,1.81-2.01,2.35-3.12h-5.14Z"/></g><path class="cls-33" d="M232.54,43.24c3.74,0,6.78-3.04,6.78-6.78v-12.56c0-3.74-3.04-6.78-6.78-6.78s-6.78,3.04-6.78,6.78v12.56c0,3.74,3.04,6.78,6.78,6.78Zm0-24.36c2.77,0,5.03,2.26,5.03,5.03v12.56c0,2.77-2.26,5.03-5.03,5.03s-5.03-2.26-5.03-5.03v-12.56c0-2.77,2.26-5.03,5.03-5.03Z"/><path class="cls-34" d="M242.38,31.34s-.1,5.37-.1,5.57c-.01,.74-.12,1.47-.31,2.17-.18,.59-.42,1.18-.72,1.76-.24,.49-.54,.96-.88,1.39-.75,.96-1.65,1.78-2.68,2.42-1.39,.86-2.99,1.35-4.62,1.42h-.15c-.17,0-.33,0-.48,0-.11,0-.22,0-.35,0h-.14c-1.63-.07-3.23-.56-4.62-1.42-1.03-.65-1.93-1.46-2.69-2.43-.34-.43-.64-.9-.89-1.4-.29-.56-.52-1.15-.71-1.73-.2-.71-.31-1.45-.32-2.17,0-.21-.1-5.59-.1-5.59l-1.5,.03s.1,5.34,.1,5.58c.02,.87,.15,1.73,.38,2.58,.21,.68,.48,1.35,.8,1.98,.29,.59,.64,1.14,1.05,1.65,.86,1.1,1.89,2.04,3.07,2.78,1.58,.98,3.4,1.54,5.26,1.63v3.97s.01,.06,.02,.09h-4.29c-.41,0-.75,.34-.75,.75s.34,.75,.75,.75h10.05c.41,0,.75-.34,.75-.75s-.34-.75-.75-.75h-4.29s.02-.06,.02-.09v-3.98c1.84-.1,3.63-.66,5.19-1.63,1.18-.74,2.21-1.68,3.06-2.77,.41-.52,.76-1.07,1.05-1.65,.33-.64,.6-1.31,.82-2.01,.23-.83,.36-1.7,.38-2.58,0-.22,.1-5.56,.1-5.56l-1.5-.03Z"/><g><path class="cls-35" d="M328.38,65.68l1.1,.07c-.23,2.61-.97,5.03-2.23,7.26l-1.01-.47c1.19-2.12,1.9-4.41,2.14-6.86Zm4.25-.11c.91,2.17,1.7,4.59,2.35,7.26l-1.12,.22c-.59-2.51-1.34-4.89-2.25-7.16l1.02-.32Z"/><path class="cls-36" d="M335.92,69.76v-1.05h8.2v1.05h-8.2Z"/><path class="cls-37" d="M346.35,65.24h1.1v2.86c1.81,.43,3.65,1,5.52,1.69l-.34,1c-1.75-.65-3.48-1.19-5.18-1.61v4.26h-1.1v-8.2Zm3.08,.62l.9-.45c.31,.54,.64,1.13,.97,1.78l-.89,.43c-.27-.53-.6-1.12-.98-1.76Zm1.54-.41l.9-.46c.36,.59,.69,1.19,1,1.8l-.9,.44c-.31-.59-.64-1.18-1-1.78Z"/><path class="cls-29" d="M354.59,66.34h3.2v-1.55h1.05v1.55h3.35v1.75c0,1.57-.49,2.8-1.46,3.67-.98,.88-2.41,1.37-4.29,1.48l-.13-.95c3.22-.19,4.83-1.59,4.83-4.2v-.83h-5.53v2.33h-1.02v-3.25Z"/><path class="cls-28" d="M364.34,67.24h5.8v.89h-2.38v3.82h2.62v.89h-6.28v-.89h2.62v-3.82h-2.38v-.89Z"/><path class="cls-20" d="M372.13,66.56v-.92h8v.92c-.19,.68-.53,1.31-1.02,1.9-.49,.58-1.06,1.05-1.72,1.4l-.57-.84c1.12-.61,1.85-1.43,2.18-2.46h-6.87Zm2.77,.88h1.05c0,1.16-.09,2.11-.28,2.85-.18,.74-.47,1.33-.87,1.79s-.95,.85-1.65,1.16l-.5-.87c.57-.25,1.02-.57,1.33-.96,.32-.38,.55-.89,.69-1.52,.14-.63,.22-1.45,.22-2.46Z"/><path class="cls-21" d="M383.92,65.54h4.3v.9h-3.2v2.18h3v.86h-3v3.36h-1.1v-7.3Z"/><path class="cls-23" d="M390.5,65.54l1.59,2.85h.02l1.59-2.85h1.23l-2.15,3.6,2.2,3.7h-1.29l-1.62-2.95h-.02l-1.62,2.95h-1.25l2.2-3.7-2.15-3.6h1.27Z"/><path class="cls-22" d="M401.12,64.72l.99,.23c-.15,.41-.26,.72-.35,.94h4.26v.85h-4.6c-.11,.26-.26,.61-.46,1.06h.02c.44-.17,.84-.26,1.19-.26,.84,0,1.4,.41,1.69,1.24,.65-.14,1.39-.26,2.2-.36l.09,.87c-.85,.11-1.55,.22-2.09,.35,.07,.5,.11,1.08,.11,1.75h-1.05c0-.59-.02-1.09-.06-1.48-1.36,.42-2.04,.91-2.04,1.48,0,.16,.03,.3,.09,.41,.06,.11,.17,.22,.34,.32,.17,.1,.42,.17,.76,.22,.34,.05,.76,.08,1.26,.08,.67,0,1.49-.08,2.47-.23l.09,.9c-.8,.13-1.65,.2-2.56,.2-1.24,0-2.13-.15-2.68-.44s-.82-.75-.82-1.36c0-1.05,.97-1.87,2.91-2.46-.09-.24-.21-.41-.35-.5s-.33-.14-.55-.14c-.35,0-.76,.19-1.25,.56-.49,.37-.97,.9-1.46,1.59l-.83-.54c.79-1.09,1.44-2.18,1.93-3.27h-1.84v-.85h2.19c.16-.43,.3-.82,.41-1.17Z"/><path class="cls-25" d="M409.61,67.31v6.43h-1.02v-4.47c-.23,.41-.48,.78-.74,1.09l-.43-1.2c.91-1.26,1.52-2.75,1.85-4.46l.99,.18c-.15,.91-.37,1.72-.65,2.43Zm7.2,6.3c-1.37-.05-2.58-.32-3.62-.81-.03-.01-.08-.04-.13-.07-.06-.03-.11-.06-.16-.08-.05-.02-.09-.05-.13-.07-.09,.08-.17,.14-.22,.17-.28,.21-.6,.37-.96,.5-.38,.14-.81,.26-1.29,.35l-.33-.9c.47-.12,.83-.22,1.08-.31,.29-.1,.56-.23,.79-.4,0,0,0,0,0,0h.02c-.43-.37-.79-.78-1.09-1.25l.85-.5c.25,.39,.54,.72,.87,1.01,.09-.19,.16-.39,.23-.6,.05-.16,.09-.33,.12-.51h-2.48v-3.25h2.6v-.57h-2.66v-.9h2.66v-.78h1.07v.78h2.85v.9h-2.85v.57h2.57v3.85h-1.02v-.6h-1.67c-.05,.33-.12,.65-.21,.94-.09,.28-.2,.54-.33,.78,.09,.05,.19,.11,.31,.16,.87,.4,1.95,.62,3.25,.67l-.13,.92Zm-5.44-4.29h1.57c.02-.36,.03-.78,.03-1.26v-.34h-1.6v1.6Zm4.22,0v-1.6h-1.55v.34c0,.33-.01,.75-.04,1.26h1.59Z"/><path class="cls-24" d="M426.5,64.94v7.3c0,.19,0,.38-.02,.57-.01,.18-.03,.31-.06,.39-.03,.1-.08,.19-.14,.26-.04,.05-.13,.09-.26,.14-.13,.05-.26,.07-.37,.08-.09,0-.27,0-.55,0-.18,0-.63-.02-1.35-.05l-.05-.88c.63,.04,1.03,.06,1.22,.06,.25,0,.41-.03,.46-.08,.05-.05,.07-.2,.07-.45v-1.6h-2.45v2.8h-1.02v-2.8h-2.28c-.05,.46-.12,.84-.2,1.13-.19,.71-.51,1.36-.94,1.95l-.87-.69c.39-.55,.66-1.14,.81-1.78,.15-.61,.22-1.5,.22-2.66v-3.7h7.78Zm-4.52,3.25h-2.2v.87c0,.2,0,.47-.02,.8h2.22v-1.67Zm0-.83v-1.54h-2.2v1.54h2.2Zm1.02,0h2.45v-1.54h-2.45v1.54Zm0,.83v1.67h2.45v-1.67h-2.45Z"/><path class="cls-27" d="M428.74,65.09l1.07,.03c-.09,1.87-.13,3.36-.13,4.47,0,.59,.03,1.06,.1,1.43,.07,.37,.18,.65,.34,.86s.35,.34,.56,.41c.21,.07,.49,.1,.83,.1,1.36,0,2.43-1,3.2-2.99l.95,.36c-.44,1.21-1.01,2.11-1.72,2.72s-1.52,.91-2.42,.91c-1.09,0-1.84-.27-2.26-.81-.42-.54-.63-1.54-.63-2.99,0-1.32,.04-2.82,.13-4.5Z"/><path class="cls-26" d="M436.83,66.89v-.9h1.62c.11-.56,.18-.98,.23-1.26l1,.09c-.02,.11-.04,.23-.06,.36s-.05,.28-.08,.44c-.03,.16-.05,.28-.07,.37h3.56v.9h-3.73c-.45,2.25-1.04,4.41-1.77,6.49l-1-.23c.7-2.01,1.28-4.09,1.74-6.26h-1.44Zm4,3l.65,.6c-.27,.21-.46,.38-.56,.51s-.15,.25-.15,.36c0,.27,.18,.5,.53,.67,.35,.17,.83,.26,1.42,.26s1.28-.07,1.99-.2l.12,.9c-.71,.13-1.41,.2-2.11,.2-.89,0-1.61-.16-2.15-.48-.54-.32-.81-.74-.81-1.25s.35-1.04,1.05-1.57Zm3.8-1.1c-1.37,0-2.71,.08-4.02,.25l-.06-.9c1.33-.17,2.69-.25,4.08-.25v.9Z"/><path class="cls-44" d="M337.76,78.14h1.1v2.86c1.81,.43,3.65,1,5.52,1.69l-.34,1c-1.75-.65-3.48-1.19-5.18-1.61v4.26h-1.1v-8.2Z"/><path class="cls-48" d="M345.61,81.06h7.8v.2c0,3.09-2.07,4.77-6.22,5.03l-.16-.95c1.51-.09,2.71-.4,3.62-.92,.91-.52,1.45-1.32,1.62-2.41h-6.67v-.96Zm.75-1.62v-.95h6.4v.95h-6.4Z"/><path class="cls-43" d="M355.29,80.52l.95-.21c.24,.82,.48,1.71,.72,2.66l-.97,.21c-.21-.88-.45-1.77-.7-2.66Zm5.52-.45l1,.05c-.04,2.04-.45,3.51-1.21,4.42s-2.07,1.47-3.9,1.68l-.2-.92c.83-.11,1.5-.28,2.03-.49,.52-.21,.96-.53,1.3-.94,.35-.41,.59-.92,.74-1.52s.23-1.37,.25-2.29Zm-3.35,.18l.97-.21c.22,.77,.46,1.68,.72,2.75l-.97,.21c-.21-.87-.45-1.79-.72-2.75Z"/><path class="cls-46" d="M366.64,78.02l1.1-.08,.14,1.68,3.34-.12,.04,.95-3.3,.11,.19,2.35,3.47-.12,.04,.95-3.43,.12,.21,2.6-1.1,.08-.22-2.65-3.66,.12-.04-.95,3.62-.12-.19-2.34-2.99,.11-.04-.95,2.95-.11-.13-1.63Z"/><path class="cls-47" d="M373.06,79.38l.49-.93c1.13,.55,2.15,1.1,3.08,1.65l-.53,.93c-1.11-.65-2.13-1.2-3.04-1.65Zm6.87,0l1,.22c-.68,3.88-3.18,6.01-7.5,6.39l-.15-1.02c1.94-.19,3.45-.73,4.53-1.64,1.08-.91,1.79-2.22,2.12-3.95Z"/><path class="cls-51" d="M387.91,77.97l.74-.38c.28,.48,.55,.97,.8,1.48l-.34,.17v.05c0,2.27-.53,3.96-1.59,5.06-1.06,1.1-2.74,1.75-5.06,1.94l-.15-.95c1.93-.19,3.33-.67,4.21-1.46,.87-.79,1.36-2.03,1.46-3.74h-3.56c-.41,1.07-1.06,2.02-1.95,2.86l-.74-.65c.59-.57,1.07-1.22,1.44-1.96,.37-.74,.6-1.51,.69-2.31l1.02,.07c-.05,.4-.1,.75-.17,1.04h3.87c-.16-.31-.38-.72-.67-1.22Zm1.42-.15l.76-.38c.31,.54,.59,1.04,.82,1.51l-.76,.37c-.2-.38-.47-.88-.82-1.5Z"/><path class="cls-45" d="M395.2,78.15l.99-.27c.1,.34,.25,.87,.45,1.59,.39-.09,.75-.13,1.08-.13,.66,0,1.19,.2,1.59,.6,.4,.4,.61,.93,.61,1.6,0,.73-.22,1.29-.65,1.71s-1.02,.61-1.75,.61c-.45,0-.9-.05-1.34-.15l.1-.93c.41,.09,.79,.13,1.14,.13,.44,0,.79-.12,1.05-.36,.26-.24,.39-.56,.39-.96s-.11-.73-.34-.96-.55-.34-.96-.34c-.2,0-.43,.03-.69,.09,.19,.75,.31,1.19,.34,1.32l-.95,.28c-.16-.6-.28-1.04-.36-1.33-.39,.13-.94,.32-1.63,.58,.45,1.5,.92,3.18,1.41,5.05l-1.02,.25c-.48-1.83-.94-3.48-1.37-4.93-.19,.07-.87,.34-2.04,.79l-.36-.9c.6-.24,1.31-.51,2.12-.82-.14-.45-.36-1.13-.65-2.04l1-.31c.38,1.19,.59,1.85,.63,1.99,.76-.27,1.31-.46,1.66-.57-.09-.31-.24-.84-.46-1.59Z"/><path class="cls-49" d="M400.89,84.35c2.51,.09,5.02,.35,7.53,.8l-.11,1.06c-2.54-.45-5.03-.71-7.47-.8l.05-1.06Zm.45-5.97c2.33,.09,4.59,.29,6.76,.6l-.12,1.04c-2.29-.33-4.52-.53-6.69-.6l.05-1.04Zm.43,2.85c1.95,.08,3.87,.29,5.78,.62l-.14,1.06c-1.93-.33-3.84-.54-5.72-.62l.08-1.06Z"/><path class="cls-50" d="M410,80.52l.95-.21c.24,.82,.48,1.71,.72,2.66l-.97,.21c-.21-.88-.45-1.77-.7-2.66Zm5.52-.45l1,.05c-.04,2.04-.45,3.51-1.22,4.42s-2.07,1.47-3.91,1.68l-.2-.92c.83-.11,1.5-.28,2.02-.49,.52-.21,.96-.53,1.31-.94,.35-.41,.59-.92,.74-1.52,.15-.6,.23-1.37,.25-2.29Zm-3.35,.18l.97-.21c.22,.77,.46,1.68,.72,2.75l-.97,.21c-.21-.87-.45-1.79-.72-2.75Z"/><path class="cls-52" d="M424.66,79.94h-3.63c-.39,1.09-1.06,2.08-1.99,2.96l-.74-.65c.59-.57,1.07-1.22,1.44-1.96,.37-.74,.6-1.51,.69-2.32l1.02,.07c-.03,.31-.08,.63-.15,.94h4.48v.2c0,2.27-.53,3.96-1.59,5.06-1.06,1.1-2.74,1.75-5.06,1.94l-.15-.95c1.95-.19,3.36-.68,4.23-1.49s1.36-2.08,1.45-3.82Z"/><path class="cls-15" d="M427.95,79.56v-.97h6.3v.97c-.47,1.09-1.15,2.12-2.05,3.11,1.01,.92,1.97,1.85,2.89,2.79l-.73,.71c-.96-.98-1.92-1.91-2.87-2.79-1.17,1.09-2.48,1.99-3.94,2.7l-.47-.86c1.41-.72,2.63-1.56,3.66-2.54,1.03-.97,1.81-2.01,2.35-3.12h-5.14Z"/></g><path class="cls-11" d="M382.54,43.24c3.74,0,6.78-3.04,6.78-6.78v-12.56c0-3.74-3.04-6.78-6.78-6.78s-6.78,3.04-6.78,6.78v12.56c0,3.74,3.04,6.78,6.78,6.78Zm0-24.36c2.77,0,5.03,2.26,5.03,5.03v12.56c0,2.77-2.26,5.03-5.03,5.03s-5.03-2.26-5.03-5.03v-12.56c0-2.77,2.26-5.03,5.03-5.03Z"/><path class="cls-19" d="M392.38,31.34s-.1,5.37-.1,5.57c-.01,.74-.12,1.47-.31,2.17-.18,.59-.42,1.18-.72,1.76-.24,.49-.54,.96-.88,1.39-.75,.96-1.65,1.78-2.68,2.42-1.39,.86-2.99,1.35-4.62,1.42h-.15c-.17,0-.33,0-.48,0-.11,0-.22,0-.35,0h-.14c-1.63-.07-3.23-.56-4.62-1.42-1.03-.65-1.93-1.46-2.69-2.43-.34-.43-.64-.9-.89-1.4-.29-.56-.52-1.15-.71-1.73-.2-.71-.31-1.45-.32-2.17,0-.21-.1-5.59-.1-5.59l-1.5,.03s.1,5.34,.1,5.58c.02,.87,.15,1.73,.38,2.58,.21,.68,.48,1.35,.8,1.98,.29,.59,.64,1.14,1.05,1.65,.86,1.1,1.89,2.04,3.07,2.78,1.58,.98,3.4,1.54,5.26,1.63v3.97s.01,.06,.02,.09h-4.29c-.41,0-.75,.34-.75,.75s.34,.75,.75,.75h10.05c.41,0,.75-.34,.75-.75s-.34-.75-.75-.75h-4.29s.02-.06,.02-.09v-3.98c1.84-.1,3.63-.66,5.19-1.63,1.18-.74,2.21-1.68,3.06-2.77,.41-.52,.76-1.07,1.05-1.65,.33-.64,.6-1.31,.82-2.01,.23-.83,.36-1.7,.38-2.58,0-.22,.1-5.56,.1-5.56l-1.5-.03Z"/><path class="cls-18" d="M110.28,29.15c-5.61,0-10.17,4.56-10.17,10.17s4.56,10.17,10.17,10.17,10.17-4.56,10.17-10.17-4.56-10.17-10.17-10.17Zm0,18.58c-4.63,0-8.41-3.77-8.41-8.41s3.77-8.41,8.41-8.41,8.41,3.77,8.41,8.41-3.77,8.41-8.41,8.41Z"/><path class="cls-17" d="M110.38,32c-.41,0-.75,.34-.75,.75v3.01c0,.41,.34,.75,.75,.75s.75-.34,.75-.75v-3.01c0-.41-.34-.75-.75-.75Z"/><path class="cls-16" d="M110.38,24.77c.41,0,.75-.34,.75-.75v-3.01c0-.41-.34-.75-.75-.75s-.75,.34-.75,.75v3.01c0,.41,.34,.75,.75,.75Z"/><path class="cls-14" d="M117.98,26.84c.24,0,.47-.11,.62-.32l1.63-2.32c.24-.34,.16-.81-.18-1.04-.34-.24-.81-.16-1.04,.18l-1.63,2.32c-.24,.34-.16,.81,.18,1.04,.13,.09,.28,.14,.43,.14Z"/><path class="cls-13" d="M126.44,29.56c-.24-.34-.7-.42-1.04-.18l-2.32,1.63c-.34,.24-.42,.71-.18,1.04,.15,.21,.38,.32,.61,.32,.15,0,.3-.04,.43-.14l2.32-1.63c.34-.24,.42-.71,.18-1.04Z"/><path class="cls-31" d="M128.59,38.47h-3.01c-.41,0-.75,.34-.75,.75s.34,.75,.75,.75h3.01c.41,0,.75-.34,.75-.75s-.34-.75-.75-.75Z"/><path class="cls-12" d="M102.41,25.83c.15,.21,.38,.32,.62,.32,.15,0,.3-.04,.43-.14,.34-.24,.42-.71,.18-1.04l-1.63-2.32c-.24-.34-.71-.42-1.04-.18-.34,.24-.42,.71-.18,1.04l1.63,2.32Z"/><path class="cls-41" d="M95.61,28.69c-.34-.24-.81-.16-1.04,.18-.24,.34-.16,.81,.18,1.04l2.32,1.63c.13,.09,.28,.14,.43,.14,.24,0,.47-.11,.61-.32,.24-.34,.16-.81-.18-1.04l-2.32-1.63Z"/><path class="cls-42" d="M95.42,37.78h-3.01c-.41,0-.75,.34-.75,.75s.34,.75,.75,.75h3.01c.41,0,.75-.34,.75-.75s-.34-.75-.75-.75Z"/></svg>