<?xml version="1.0" encoding="UTF-8"?><svg id="iD24" xmlns="http://www.w3.org/2000/svg" xmlns:xlink="http://www.w3.org/1999/xlink" viewBox="0 0 500 100"><defs><style>.cls-1{fill:url(#_規グラデーションスウォッチ_1-17);}.cls-2{fill:url(#_規グラデーションスウォッチ_1-19);}.cls-3{fill:url(#_規グラデーションスウォッチ_1-12);}.cls-4{fill:url(#_規グラデーションスウォッチ_1-14);}.cls-5{fill:url(#_規グラデーションスウォッチ_1-11);}.cls-6{fill:url(#_規グラデーションスウォッチ_1-16);}.cls-7{fill:url(#_規グラデーションスウォッチ_1-13);}.cls-8{fill:url(#_規グラデーションスウォッチ_1-18);}.cls-9{fill:url(#_規グラデーションスウォッチ_1-15);}.cls-10{fill:url(#_規グラデーションスウォッチ_1-10);}.cls-11{fill:url(#_規グラデーションスウォッチ_1-51);}.cls-12{fill:url(#_規グラデーションスウォッチ_1-59);}.cls-13{fill:url(#_規グラデーションスウォッチ_1-57);}.cls-14{fill:url(#_規グラデーションスウォッチ_1-56);}.cls-15{fill:url(#_規グラデーションスウォッチ_1-50);}.cls-16{fill:url(#_規グラデーションスウォッチ_1-55);}.cls-17{fill:url(#_規グラデーションスウォッチ_1-54);}.cls-18{fill:url(#_規グラデーションスウォッチ_1-53);}.cls-19{fill:url(#_規グラデーションスウォッチ_1-52);}.cls-20{fill:url(#_規グラデーションスウォッチ_1-32);}.cls-21{fill:url(#_規グラデーションスウォッチ_1-33);}.cls-22{fill:url(#_規グラデーションスウォッチ_1-35);}.cls-23{fill:url(#_規グラデーションスウォッチ_1-34);}.cls-24{fill:url(#_規グラデーションスウォッチ_1-37);}.cls-25{fill:url(#_規グラデーションスウォッチ_1-36);}.cls-26{fill:url(#_規グラデーションスウォッチ_1-39);}.cls-27{fill:url(#_規グラデーションスウォッチ_1-38);}.cls-28{fill:url(#_規グラデーションスウォッチ_1-31);}.cls-29{fill:url(#_規グラデーションスウォッチ_1-30);}.cls-30{fill:url(#_規グラデーションスウォッチ_1-22);}.cls-31{fill:url(#_規グラデーションスウォッチ_1-58);}.cls-32{fill:url(#_規グラデーションスウォッチ_1-24);}.cls-33{fill:url(#_規グラデーションスウォッチ_1-25);}.cls-34{fill:url(#_規グラデーションスウォッチ_1-26);}.cls-35{fill:url(#_規グラデーションスウォッチ_1-27);}.cls-36{fill:url(#_規グラデーションスウォッチ_1-28);}.cls-37{fill:url(#_規グラデーションスウォッチ_1-29);}.cls-38{fill:url(#_規グラデーションスウォッチ_1-20);}.cls-39{fill:url(#_規グラデーションスウォッチ_1-21);}.cls-40{fill:url(#_規グラデーションスウォッチ_1-23);}.cls-41{fill:url(#_規グラデーションスウォッチ_1-60);}.cls-42{fill:url(#_規グラデーションスウォッチ_1-67);}.cls-43{fill:url(#_規グラデーションスウォッチ_1-68);}.cls-44{fill:url(#_規グラデーションスウォッチ_1-63);}.cls-45{fill:url(#_規グラデーションスウォッチ_1-64);}.cls-46{fill:url(#_規グラデーションスウォッチ_1-65);}.cls-47{fill:url(#_規グラデーションスウォッチ_1-66);}.cls-48{fill:url(#_規グラデーションスウォッチ_1-61);}.cls-49{fill:url(#_規グラデーションスウォッチ_1-62);}.cls-50{fill:url(#_規グラデーションスウォッチ_1-69);}.cls-51{fill:url(#_規グラデーションスウォッチ_1-42);}.cls-52{fill:url(#_規グラデーションスウォッチ_1-40);}.cls-53{fill:url(#_規グラデーションスウォッチ_1-46);}.cls-54{fill:url(#_規グラデーションスウォッチ_1-43);}.cls-55{fill:url(#_規グラデーションスウォッチ_1-44);}.cls-56{fill:url(#_規グラデーションスウォッチ_1-41);}.cls-57{fill:url(#_規グラデーションスウォッチ_1-47);}.cls-58{fill:url(#_規グラデーションスウォッチ_1-48);}.cls-59{fill:url(#_規グラデーションスウォッチ_1-45);}.cls-60{fill:url(#_規グラデーションスウォッチ_1-49);}.cls-61{fill:url(#_規グラデーションスウォッチ_1-5);}.cls-62{fill:url(#_規グラデーションスウォッチ_1-2);}.cls-63{fill:url(#_規グラデーションスウォッチ_1-4);}.cls-64{fill:url(#_規グラデーションスウォッチ_1-7);}.cls-65{fill:url(#_規グラデーションスウォッチ_1-9);}.cls-66{fill:url(#_規グラデーションスウォッチ_1-6);}.cls-67{fill:url(#_規グラデーションスウォッチ_1-3);}.cls-68{fill:url(#_規グラデーションスウォッチ_1-8);}.cls-69{fill:url(#_規グラデーションスウォッチ_1);}</style><linearGradient id="_規グラデーションスウォッチ_1" x1="4.46" y1="55.54" x2="16.08" y2="35.41" gradientTransform="matrix(1, 0, 0, 1, 0, 0)" gradientUnits="userSpaceOnUse"><stop offset="0" stop-color="#3fffdc"/><stop offset="1" stop-color="#1565ff"/></linearGradient><linearGradient id="_規グラデーションスウォッチ_1-2" x1="21.03" y1="58.84" x2="34.29" y2="35.87" xlink:href="#_規グラデーションスウォッチ_1"/><linearGradient id="_規グラデーションスウォッチ_1-3" x1="43.87" y1="57.27" x2="56.36" y2="35.63" xlink:href="#_規グラデーションスウォッチ_1"/><linearGradient id="_規グラデーションスウォッチ_1-4" x1="61.7" y1="59.22" x2="66.67" y2="50.62" xlink:href="#_規グラデーションスウォッチ_1"/><linearGradient id="_規グラデーションスウォッチ_1-5" x1="67.84" y1="59.18" x2="72.65" y2="50.84" xlink:href="#_規グラデーションスウォッチ_1"/><linearGradient id="_規グラデーションスウォッチ_1-6" x1="1.43" y1="72.49" x2="5.43" y2="65.57" xlink:href="#_規グラデーションスウォッチ_1"/><linearGradient id="_規グラデーションスウォッチ_1-7" x1="7.13" y1="73.8" x2="11.35" y2="66.49" xlink:href="#_規グラデーションスウォッチ_1"/><linearGradient id="_規グラデーションスウォッチ_1-8" x1="14.31" y1="72.8" x2="17.41" y2="67.43" xlink:href="#_規グラデーションスウォッチ_1"/><linearGradient id="_規グラデーションスウォッチ_1-9" x1="20.29" y1="72.56" x2="23.15" y2="67.61" xlink:href="#_規グラデーションスウォッチ_1"/><linearGradient id="_規グラデーションスウォッチ_1-10" x1="26.59" y1="73.32" x2="30.32" y2="66.86" xlink:href="#_規グラデーションスウォッチ_1"/><linearGradient id="_規グラデーションスウォッチ_1-11" x1="32.48" y1="71.79" x2="35.99" y2="65.7" xlink:href="#_規グラデーションスウォッチ_1"/><linearGradient id="_規グラデーションスウォッチ_1-12" x1="37.41" y1="72.24" x2="40.21" y2="67.38" xlink:href="#_規グラデーションスウォッチ_1"/><linearGradient id="_規グラデーションスウォッチ_1-13" x1="45.25" y1="72.69" x2="49.27" y2="65.73" xlink:href="#_規グラデーションスウォッチ_1"/><linearGradient id="_規グラデーションスウォッチ_1-14" x1="51.86" y1="72.56" x2="54.72" y2="67.61" xlink:href="#_規グラデーションスウォッチ_1"/><linearGradient id="_規グラデーションスウォッチ_1-15" x1="57.26" y1="72.8" x2="60.36" y2="67.43" xlink:href="#_規グラデーションスウォッチ_1"/><linearGradient id="_規グラデーションスウォッチ_1-16" x1="62.56" y1="74.4" x2="66.73" y2="67.18" xlink:href="#_規グラデーションスウォッチ_1"/><linearGradient id="_規グラデーションスウォッチ_1-17" x1="69.24" y1="72.26" x2="71.93" y2="67.61" xlink:href="#_規グラデーションスウォッチ_1"/><linearGradient id="_規グラデーションスウォッチ_1-18" x1="23.25" y1="86.92" x2="27.51" y2="79.55" xlink:href="#_規グラデーションスウォッチ_1"/><linearGradient id="_規グラデーションスウォッチ_1-19" x1="27.32" y1="86.66" x2="31.31" y2="79.74" xlink:href="#_規グラデーションスウォッチ_1"/><linearGradient id="_規グラデーションスウォッチ_1-20" x1="35.43" y1="87.71" x2="39.54" y2="80.58" xlink:href="#_規グラデーションスウォッチ_1"/><linearGradient id="_規グラデーションスウォッチ_1-21" x1="42.4" y1="86.27" x2="46.24" y2="79.62" xlink:href="#_規グラデーションスウォッチ_1"/><linearGradient id="_規グラデーションスウォッチ_1-22" x1="46.26" y1="87.07" x2="50.51" y2="79.7" xlink:href="#_規グラデーションスウォッチ_1"/><linearGradient id="_規グラデーションスウォッチ_1-23" x1="135.57" x2="147.19" xlink:href="#_規グラデーションスウォッチ_1"/><linearGradient id="_規グラデーションスウォッチ_1-24" x1="152.15" y1="58.84" x2="165.41" y2="35.87" xlink:href="#_規グラデーションスウォッチ_1"/><linearGradient id="_規グラデーションスウォッチ_1-25" x1="173.27" y1="58.84" x2="186.53" y2="35.87" xlink:href="#_規グラデーションスウォッチ_1"/><linearGradient id="_規グラデーションスウォッチ_1-26" x1="192.81" y1="59.22" x2="197.78" y2="50.62" xlink:href="#_規グラデーションスウォッチ_1"/><linearGradient id="_規グラデーションスウォッチ_1-27" x1="198.95" y1="59.18" x2="203.77" y2="50.84" xlink:href="#_規グラデーションスウォッチ_1"/><linearGradient id="_規グラデーションスウォッチ_1-28" x1="132.55" y1="72.49" x2="136.54" y2="65.57" xlink:href="#_規グラデーションスウォッチ_1"/><linearGradient id="_規グラデーションスウォッチ_1-29" x1="138.24" y1="73.8" x2="142.46" y2="66.49" xlink:href="#_規グラデーションスウォッチ_1"/><linearGradient id="_規グラデーションスウォッチ_1-30" x1="145.42" y1="72.8" x2="148.52" y2="67.43" xlink:href="#_規グラデーションスウォッチ_1"/><linearGradient id="_規グラデーションスウォッチ_1-31" x1="151.41" y1="72.56" x2="154.26" y2="67.61" xlink:href="#_規グラデーションスウォッチ_1"/><linearGradient id="_規グラデーションスウォッチ_1-32" x1="157.7" y1="73.32" x2="161.43" y2="66.86" xlink:href="#_規グラデーションスウォッチ_1"/><linearGradient id="_規グラデーションスウォッチ_1-33" x1="163.59" y1="71.79" x2="167.11" y2="65.7" xlink:href="#_規グラデーションスウォッチ_1"/><linearGradient id="_規グラデーションスウォッチ_1-34" x1="168.52" y1="72.24" x2="171.33" y2="67.38" xlink:href="#_規グラデーションスウォッチ_1"/><linearGradient id="_規グラデーションスウォッチ_1-35" x1="176.36" y1="72.69" x2="180.39" y2="65.73" xlink:href="#_規グラデーションスウォッチ_1"/><linearGradient id="_規グラデーションスウォッチ_1-36" x1="182.98" y1="72.56" x2="185.83" y2="67.61" xlink:href="#_規グラデーションスウォッチ_1"/><linearGradient id="_規グラデーションスウォッチ_1-37" x1="188.37" y1="72.8" x2="191.47" y2="67.43" xlink:href="#_規グラデーションスウォッチ_1"/><linearGradient id="_規グラデーションスウォッチ_1-38" x1="193.68" y1="74.4" x2="197.85" y2="67.18" xlink:href="#_規グラデーションスウォッチ_1"/><linearGradient id="_規グラデーションスウォッチ_1-39" x1="200.36" y1="72.26" x2="203.04" y2="67.61" xlink:href="#_規グラデーションスウォッチ_1"/><linearGradient id="_規グラデーションスウォッチ_1-40" x1="154.37" y1="86.92" x2="158.62" y2="79.55" xlink:href="#_規グラデーションスウォッチ_1"/><linearGradient id="_規グラデーションスウォッチ_1-41" x1="159.65" y1="87.71" x2="163.77" y2="80.58" xlink:href="#_規グラデーションスウォッチ_1"/><linearGradient id="_規グラデーションスウォッチ_1-42" x1="165.48" y1="86.66" x2="169.47" y2="79.74" xlink:href="#_規グラデーションスウォッチ_1"/><linearGradient id="_規グラデーションスウォッチ_1-43" x1="173.52" y1="86.27" x2="177.36" y2="79.62" xlink:href="#_規グラデーションスウォッチ_1"/><linearGradient id="_規グラデーションスウォッチ_1-44" x1="177.37" y1="87.07" x2="181.63" y2="79.7" xlink:href="#_規グラデーションスウォッチ_1"/><linearGradient id="_規グラデーションスウォッチ_1-45" x1="267.73" y1="57.55" x2="281.49" y2="33.71" xlink:href="#_規グラデーションスウォッチ_1"/><linearGradient id="_規グラデーションスウォッチ_1-46" x1="290.1" y1="57.18" x2="302.59" y2="35.54" xlink:href="#_規グラデーションスウォッチ_1"/><linearGradient id="_規グラデーションスウォッチ_1-47" x1="308.9" y1="59.22" x2="313.87" y2="50.62" xlink:href="#_規グラデーションスウォッチ_1"/><linearGradient id="_規グラデーションスウォッチ_1-48" x1="315.04" y1="59.18" x2="319.86" y2="50.84" xlink:href="#_規グラデーションスウォッチ_1"/><linearGradient id="_規グラデーションスウォッチ_1-49" x1="268.15" y1="72.15" x2="272.01" y2="65.48" xlink:href="#_規グラデーションスウォッチ_1"/><linearGradient id="_規グラデーションスウォッチ_1-50" x1="274.84" y1="72.56" x2="277.69" y2="67.61" xlink:href="#_規グラデーションスウォッチ_1"/><linearGradient id="_規グラデーションスウォッチ_1-51" x1="278.83" y1="71.79" x2="282.35" y2="65.7" xlink:href="#_規グラデーションスウォッチ_1"/><linearGradient id="_規グラデーションスウォッチ_1-52" x1="283.42" y1="72.8" x2="286.52" y2="67.43" xlink:href="#_規グラデーションスウォッチ_1"/><linearGradient id="_規グラデーションスウォッチ_1-53" x1="292.1" y1="72.69" x2="296.13" y2="65.73" xlink:href="#_規グラデーションスウォッチ_1"/><linearGradient id="_規グラデーションスウォッチ_1-54" x1="298.72" y1="72.56" x2="301.57" y2="67.61" xlink:href="#_規グラデーションスウォッチ_1"/><linearGradient id="_規グラデーションスウォッチ_1-55" x1="304.11" y1="72.8" x2="307.21" y2="67.43" xlink:href="#_規グラデーションスウォッチ_1"/><linearGradient id="_規グラデーションスウォッチ_1-56" x1="309.42" y1="74.4" x2="313.58" y2="67.18" xlink:href="#_規グラデーションスウォッチ_1"/><linearGradient id="_規グラデーションスウォッチ_1-57" x1="316.1" y1="72.26" x2="318.78" y2="67.61" xlink:href="#_規グラデーションスウォッチ_1"/><linearGradient id="_規グラデーションスウォッチ_1-58" x1="376.13" y1="56.76" x2="388.3" y2="35.68" xlink:href="#_規グラデーションスウォッチ_1"/><linearGradient id="_規グラデーションスウォッチ_1-59" x1="396.48" y1="58.7" x2="400.23" y2="52.21" xlink:href="#_規グラデーションスウォッチ_1"/><linearGradient id="_規グラデーションスウォッチ_1-60" x1="408.4" y1="56.76" x2="420.58" y2="35.68" xlink:href="#_規グラデーションスウォッチ_1"/><linearGradient id="_規グラデーションスウォッチ_1-61" x1="429.52" y1="56.76" x2="441.7" y2="35.68" xlink:href="#_規グラデーションスウォッチ_1"/><linearGradient id="_規グラデーションスウォッチ_1-62" x1="451.13" y1="55.54" x2="462.74" y2="35.41" xlink:href="#_規グラデーションスウォッチ_1"/><linearGradient id="_規グラデーションスウォッチ_1-63" x1="470.49" y1="57.55" x2="484.25" y2="33.71" xlink:href="#_規グラデーションスウォッチ_1"/><linearGradient id="_規グラデーションスウォッチ_1-64" x1="491.14" y1="59.47" x2="496.5" y2="50.18" xlink:href="#_規グラデーションスウォッチ_1"/><linearGradient id="_規グラデーションスウォッチ_1-65" x1="418.56" y1="71.36" x2="422.53" y2="64.47" xlink:href="#_規グラデーションスウォッチ_1"/><linearGradient id="_規グラデーションスウォッチ_1-66" x1="425.69" y1="72.8" x2="430.25" y2="64.9" xlink:href="#_規グラデーションスウォッチ_1"/><linearGradient id="_規グラデーションスウォッチ_1-67" x1="432.49" y1="72.49" x2="436.48" y2="65.57" xlink:href="#_規グラデーションスウォッチ_1"/><linearGradient id="_規グラデーションスウォッチ_1-68" x1="440.79" y1="71.97" x2="443.52" y2="67.23" xlink:href="#_規グラデーションスウォッチ_1"/><linearGradient id="_規グラデーションスウォッチ_1-69" x1="447.16" y1="72.8" x2="451.72" y2="64.9" xlink:href="#_規グラデーションスウォッチ_1"/></defs><g><path class="cls-69" d="M9.17,58.26v-18.71h-.03l-5.78,5.28-1.55-3.83,7.36-6.83h4.75v24.09h-4.75Z"/><path class="cls-62" d="M20.03,54.53c3.01-2.35,5.33-4.33,6.95-5.92,1.62-1.6,2.7-2.92,3.25-3.98,.55-1.06,.83-2.16,.83-3.3,0-2.44-1.31-3.66-3.93-3.66-1.89,0-4,.76-6.34,2.28l-1.22-3.7c1.08-.75,2.36-1.34,3.84-1.76,1.49-.43,2.94-.64,4.37-.64,2.57,0,4.55,.62,5.94,1.85,1.39,1.23,2.08,2.96,2.08,5.18,0,2.07-.65,4.06-1.96,5.97-1.31,1.91-3.87,4.46-7.67,7.62v.07h9.7v3.73h-15.84v-3.73Z"/><path class="cls-67" d="M53.26,33.84l.83,3.73c-2.38,.15-4.28,.71-5.71,1.67-1.43,.96-2.51,2.38-3.23,4.27l.03,.03c1.41-1.03,3.09-1.55,5.05-1.55,2.53,0,4.48,.69,5.86,2.08,1.37,1.39,2.06,3.37,2.06,5.94s-.83,4.67-2.49,6.24c-1.66,1.56-3.84,2.34-6.55,2.34-2.84,0-5.05-.82-6.63-2.46-1.58-1.64-2.38-4.04-2.38-7.21,0-4.51,1.18-8.11,3.53-10.79,2.35-2.68,5.57-4.11,9.64-4.29Zm-4.16,21.22c1.43,0,2.54-.43,3.33-1.29s1.19-2.11,1.19-3.76c0-1.5-.4-2.67-1.2-3.51-.8-.85-1.91-1.27-3.32-1.27s-2.45,.43-3.25,1.29c-.8,.86-1.2,2.02-1.2,3.5,0,1.65,.39,2.9,1.17,3.76,.78,.86,1.88,1.29,3.28,1.29Z"/><path class="cls-63" d="M65.95,50.2v9h-1.45l-.04-.88h-.02c-.47,.66-1.11,1-1.91,1-.74,0-1.35-.28-1.81-.85-.46-.56-.69-1.36-.69-2.39s.22-1.86,.67-2.41c.44-.55,1.05-.83,1.83-.83s1.36,.31,1.84,.92h.02v-3.56h1.56Zm-4.42,5.88c0,.65,.13,1.15,.4,1.49,.27,.35,.61,.52,1.04,.52s.77-.17,1.03-.51c.26-.34,.39-.82,.39-1.45v-.12c0-.61-.13-1.09-.39-1.43-.26-.35-.6-.52-1.03-.52-.46,0-.81,.17-1.06,.5s-.38,.84-.38,1.51Z"/><path class="cls-61" d="M73.87,56.68c0,.88-.29,1.54-.86,1.98-.58,.44-1.48,.66-2.7,.66-.89,0-1.73-.06-2.52-.18v-8.64c.75-.12,1.55-.18,2.4-.18,2.24,0,3.36,.73,3.36,2.2,0,.5-.16,.92-.49,1.28-.33,.36-.76,.59-1.31,.69v.02c.66,.09,1.17,.33,1.55,.73,.38,.4,.57,.88,.57,1.45Zm-4.43-2.71h.44c.74,0,1.28-.1,1.61-.31,.33-.2,.5-.51,.5-.91s-.13-.67-.4-.85c-.27-.18-.71-.28-1.33-.28-.3,0-.57,.02-.83,.07v2.27Zm0,1.25v2.72c.28,.05,.58,.07,.9,.07,.66,0,1.15-.12,1.46-.37s.46-.62,.46-1.12c0-.45-.18-.78-.53-.99s-.94-.32-1.76-.32h-.53Z"/><path class="cls-66" d="M7.05,68.75c0,1.27-.33,2.23-.98,2.88-.65,.65-1.59,.98-2.82,.98-.68,0-1.31-.05-1.9-.15v-7.2c.59-.1,1.23-.15,1.9-.15,1.22,0,2.16,.31,2.81,.94,.66,.63,.98,1.53,.98,2.71Zm-1.05,0c0-.91-.23-1.59-.7-2.05-.47-.46-1.15-.7-2.05-.7-.3,0-.57,.02-.8,.07v5.56c.23,.05,.5,.07,.8,.07,.93,0,1.62-.24,2.07-.72,.45-.48,.68-1.23,.68-2.23Z"/><path class="cls-64" d="M10.18,71.3h.02l1.48-4h1.06l-3,7.4h-1.06l.96-2.2-1.9-5.2h1.1l1.34,4Z"/><path class="cls-68" d="M14.73,67.3l.02,.75h.02c.21-.27,.47-.47,.77-.62,.3-.15,.61-.22,.94-.22,1.13,0,1.7,.77,1.7,2.3v3h-.98v-2.9c0-.61-.08-1.02-.24-1.25s-.43-.33-.83-.33c-.34,0-.65,.17-.93,.5-.28,.34-.42,.73-.42,1.17v2.8h-1v-5.2h.95Z"/><path class="cls-65" d="M19.33,71.1c0-.58,.24-1.04,.73-1.4,.49-.35,1.19-.52,2.11-.52h.5v-.05c0-.42-.08-.71-.25-.88-.17-.17-.47-.25-.9-.25-.63,0-1.22,.15-1.75,.45l-.15-.8c.56-.3,1.19-.45,1.9-.45,.75,0,1.3,.15,1.64,.46s.51,.79,.51,1.45v2c0,.47,.05,.94,.15,1.4h-.95c-.05-.29-.08-.56-.09-.8h-.02c-.19,.28-.45,.5-.78,.66-.33,.16-.7,.24-1.11,.24-.47,0-.85-.13-1.13-.4-.28-.27-.42-.63-.42-1.1Zm3.35-1.18h-.5c-.6,0-1.06,.1-1.38,.31-.32,.21-.48,.48-.48,.82,0,.25,.07,.44,.22,.58,.15,.14,.35,.22,.6,.22,.42,0,.78-.15,1.09-.44s.46-.64,.46-1.06v-.43Z"/><path class="cls-10" d="M26.11,67.3l.02,.7h.02c.38-.53,.82-.8,1.31-.8,.63,0,1.1,.3,1.39,.9h.02c.39-.6,.89-.9,1.49-.9,.55,0,.95,.16,1.21,.47,.26,.31,.39,.82,.39,1.53v3.3h-.98v-3c0-.59-.06-.98-.19-1.19-.13-.21-.35-.31-.68-.31-.27,0-.52,.15-.73,.45s-.32,.65-.32,1.05v3h-.98v-3c0-.59-.06-.98-.19-1.19-.13-.21-.35-.31-.68-.31-.27,0-.52,.15-.73,.45s-.32,.65-.32,1.05v3h-1v-5.2h.95Z"/><path class="cls-5" d="M33.7,66.1v-1.1h1.06v1.1h-1.06Zm0,6.4v-5.2h1.06v5.2h-1.06Z"/><path class="cls-3" d="M40.24,68.37c-.43-.23-.88-.35-1.35-.35-.51,0-.92,.16-1.21,.49-.29,.33-.44,.79-.44,1.39s.16,1.05,.46,1.39c.31,.34,.71,.51,1.19,.51s.92-.12,1.35-.35l.25,.8c-.53,.23-1.08,.35-1.65,.35-.79,0-1.42-.24-1.92-.73-.49-.49-.73-1.14-.73-1.97s.23-1.51,.7-1.99c.47-.48,1.12-.71,1.95-.71,.57,0,1.12,.12,1.65,.35l-.25,.82Z"/><path class="cls-7" d="M46,69.5v3h-1.1v-7.25c.63-.1,1.29-.15,2-.15,.96,0,1.68,.18,2.17,.53,.49,.35,.73,.84,.73,1.47,0,.51-.13,.94-.39,1.3-.26,.36-.61,.61-1.06,.74v.02c.29,.17,.55,.57,.8,1.19l.85,2.15h-1.14l-.83-2.15c-.14-.36-.3-.59-.47-.7s-.49-.16-.96-.16h-.6Zm0-.86h.6c1.41,0,2.12-.48,2.12-1.44,0-.41-.15-.71-.46-.92-.3-.2-.79-.3-1.46-.3-.3,0-.57,.02-.8,.07v2.59Z"/><path class="cls-4" d="M50.9,71.1c0-.58,.24-1.04,.73-1.4,.49-.35,1.19-.52,2.11-.52h.5v-.05c0-.42-.08-.71-.25-.88-.17-.17-.47-.25-.9-.25-.63,0-1.22,.15-1.75,.45l-.15-.8c.56-.3,1.19-.45,1.9-.45,.75,0,1.3,.15,1.64,.46s.51,.79,.51,1.45v2c0,.47,.05,.94,.15,1.4h-.95c-.05-.29-.08-.56-.09-.8h-.02c-.19,.28-.45,.5-.78,.66-.33,.16-.7,.24-1.11,.24-.47,0-.85-.13-1.13-.4-.28-.27-.42-.63-.42-1.1Zm3.35-1.18h-.5c-.6,0-1.06,.1-1.38,.31-.32,.21-.48,.48-.48,.82,0,.25,.07,.44,.22,.58,.15,.14,.35,.22,.6,.22,.42,0,.78-.15,1.09-.44s.46-.64,.46-1.06v-.43Z"/><path class="cls-9" d="M57.68,67.3l.02,.75h.02c.21-.27,.47-.47,.77-.62,.3-.15,.61-.22,.94-.22,1.13,0,1.7,.77,1.7,2.3v3h-.98v-2.9c0-.61-.08-1.02-.24-1.25s-.43-.33-.83-.33c-.34,0-.65,.17-.93,.5-.28,.34-.42,.73-.42,1.17v2.8h-1v-5.2h.95Z"/><path class="cls-6" d="M62.22,69.8c0-.85,.18-1.49,.54-1.93s.86-.67,1.51-.67c.71,0,1.27,.28,1.66,.85h.02l.02-.75h.95v4.7c0,1.87-.85,2.8-2.55,2.8-.59,0-1.14-.1-1.65-.3l.2-.8c.51,.2,.99,.3,1.45,.3,.54,0,.93-.15,1.18-.44,.25-.3,.37-.8,.37-1.51v-.45h-.02c-.37,.53-.92,.8-1.63,.8-.59,0-1.08-.24-1.47-.71-.39-.47-.58-1.1-.58-1.89Zm.98,0c0,.56,.12,1,.37,1.32s.56,.48,.95,.48c.42,0,.76-.16,1.01-.47,.26-.31,.39-.74,.39-1.28v-.1c0-.55-.13-.98-.39-1.29-.26-.31-.6-.46-1.01-.46s-.74,.15-.97,.46c-.23,.3-.35,.75-.35,1.34Z"/><path class="cls-1" d="M69.03,70.3c.02,.47,.18,.84,.48,1.11s.69,.41,1.15,.41c.5,0,1-.13,1.5-.38l.25,.76c-.58,.27-1.2,.4-1.85,.4-.75,0-1.36-.25-1.83-.74s-.71-1.14-.71-1.96,.22-1.5,.67-1.98c.44-.48,1.04-.72,1.78-.72s1.32,.23,1.73,.68c.41,.45,.62,1.11,.62,1.97,0,.1,0,.25-.02,.45h-3.76Zm0-.78h2.81c0-.49-.13-.87-.38-1.14-.24-.27-.58-.4-1.01-.4s-.77,.13-1.02,.4c-.26,.27-.39,.65-.4,1.14Z"/><path class="cls-8" d="M24.05,83.31c0,1.83,.65,3.37,1.95,4.63h-1c-.64-.59-1.13-1.28-1.48-2.08s-.52-1.65-.52-2.55,.17-1.75,.52-2.54,.84-1.49,1.48-2.08h1c-1.3,1.26-1.95,2.8-1.95,4.62Z"/><path class="cls-2" d="M32.94,82.92c0,1.27-.33,2.22-.98,2.88s-1.59,.97-2.82,.97c-.68,0-1.31-.05-1.9-.15v-7.2c.59-.1,1.23-.15,1.9-.15,1.22,0,2.16,.32,2.81,.95,.66,.63,.98,1.53,.98,2.71Zm-1.05,0c0-.91-.23-1.59-.7-2.05-.47-.46-1.15-.7-2.05-.7-.3,0-.57,.02-.8,.07v5.56c.23,.05,.5,.07,.8,.07,.93,0,1.62-.24,2.07-.73,.45-.48,.68-1.22,.68-2.22Z"/><path class="cls-38" d="M33.63,86.67l2.6-7.3h1.2l2.6,7.3h-1.18l-.63-1.94h-2.82l-.63,1.94h-1.14Zm2.04-2.8h2.28l-1.13-3.5h-.02l-1.13,3.5Z"/><path class="cls-39" d="M44.52,80.17c-.81,0-1.46,.26-1.94,.78-.49,.52-.73,1.21-.73,2.07s.25,1.56,.75,2.08,1.14,.78,1.93,.78c.65,0,1.26-.18,1.85-.55l.35,.82c-.67,.42-1.43,.63-2.3,.63-1.11,0-2.01-.34-2.69-1.01-.68-.68-1.01-1.59-1.01-2.74s.33-2.06,1-2.73c.67-.68,1.57-1.02,2.7-1.02,.87,0,1.63,.21,2.3,.63l-.35,.82c-.59-.37-1.2-.55-1.85-.55Z"/><path class="cls-30" d="M47.76,78.69h1c.64,.59,1.13,1.28,1.48,2.08s.52,1.64,.52,2.54-.17,1.75-.52,2.55-.84,1.49-1.48,2.08h-1c1.3-1.26,1.95-2.8,1.95-4.63s-.65-3.36-1.95-4.62Z"/></g><g><path class="cls-40" d="M140.29,58.26v-18.71h-.03l-5.78,5.28-1.55-3.83,7.36-6.83h4.75v24.09h-4.75Z"/><path class="cls-32" d="M151.15,54.53c3.01-2.35,5.33-4.33,6.95-5.92,1.62-1.6,2.7-2.92,3.25-3.98,.55-1.06,.83-2.16,.83-3.3,0-2.44-1.31-3.66-3.93-3.66-1.89,0-4,.76-6.34,2.28l-1.22-3.7c1.08-.75,2.36-1.34,3.84-1.76,1.49-.43,2.94-.64,4.37-.64,2.57,0,4.55,.62,5.94,1.85,1.39,1.23,2.08,2.96,2.08,5.18,0,2.07-.65,4.06-1.96,5.97-1.31,1.91-3.87,4.46-7.67,7.62v.07h9.7v3.73h-15.84v-3.73Z"/><path class="cls-33" d="M172.27,54.53c3.01-2.35,5.33-4.33,6.95-5.92,1.62-1.6,2.7-2.92,3.25-3.98,.55-1.06,.83-2.16,.83-3.3,0-2.44-1.31-3.66-3.93-3.66-1.89,0-4,.76-6.34,2.28l-1.22-3.7c1.08-.75,2.36-1.34,3.84-1.76,1.49-.43,2.94-.64,4.37-.64,2.57,0,4.55,.62,5.94,1.85,1.39,1.23,2.08,2.96,2.08,5.18,0,2.07-.65,4.06-1.96,5.97-1.31,1.91-3.87,4.46-7.67,7.62v.07h9.7v3.73h-15.84v-3.73Z"/><path class="cls-34" d="M197.06,50.2v9h-1.45l-.04-.88h-.02c-.47,.66-1.11,1-1.91,1-.74,0-1.35-.28-1.81-.85-.46-.56-.69-1.36-.69-2.39s.22-1.86,.67-2.41c.44-.55,1.05-.83,1.83-.83s1.36,.31,1.84,.92h.02v-3.56h1.56Zm-4.42,5.88c0,.65,.13,1.15,.4,1.49,.27,.35,.61,.52,1.04,.52s.77-.17,1.03-.51c.26-.34,.39-.82,.39-1.45v-.12c0-.61-.13-1.09-.39-1.43-.26-.35-.6-.52-1.03-.52-.46,0-.81,.17-1.06,.5s-.38,.84-.38,1.51Z"/><path class="cls-35" d="M204.98,56.68c0,.88-.29,1.54-.86,1.98-.58,.44-1.48,.66-2.7,.66-.89,0-1.73-.06-2.52-.18v-8.64c.75-.12,1.55-.18,2.4-.18,2.24,0,3.36,.73,3.36,2.2,0,.5-.16,.92-.49,1.28-.33,.36-.76,.59-1.31,.69v.02c.66,.09,1.17,.33,1.55,.73,.38,.4,.57,.88,.57,1.45Zm-4.43-2.71h.44c.74,0,1.28-.1,1.61-.31,.33-.2,.5-.51,.5-.91s-.13-.67-.4-.85c-.27-.18-.71-.28-1.33-.28-.3,0-.57,.02-.83,.07v2.27Zm0,1.25v2.72c.28,.05,.58,.07,.9,.07,.66,0,1.15-.12,1.46-.37s.46-.62,.46-1.12c0-.45-.18-.78-.53-.99s-.94-.32-1.76-.32h-.53Z"/><path class="cls-36" d="M138.17,68.75c0,1.27-.33,2.23-.98,2.88-.65,.65-1.59,.98-2.82,.98-.68,0-1.31-.05-1.9-.15v-7.2c.59-.1,1.23-.15,1.9-.15,1.22,0,2.16,.31,2.81,.94,.66,.63,.98,1.53,.98,2.71Zm-1.05,0c0-.91-.23-1.59-.7-2.05-.47-.46-1.15-.7-2.05-.7-.3,0-.57,.02-.8,.07v5.56c.23,.05,.5,.07,.8,.07,.93,0,1.62-.24,2.07-.72,.45-.48,.68-1.23,.68-2.23Z"/><path class="cls-37" d="M141.3,71.3h.02l1.48-4h1.06l-3,7.4h-1.06l.96-2.2-1.9-5.2h1.1l1.34,4Z"/><path class="cls-29" d="M145.85,67.3l.02,.75h.02c.21-.27,.47-.47,.77-.62,.3-.15,.61-.22,.94-.22,1.13,0,1.7,.77,1.7,2.3v3h-.98v-2.9c0-.61-.08-1.02-.24-1.25s-.43-.33-.83-.33c-.34,0-.65,.17-.93,.5-.28,.34-.42,.73-.42,1.17v2.8h-1v-5.2h.95Z"/><path class="cls-28" d="M150.44,71.1c0-.58,.24-1.04,.73-1.4,.49-.35,1.19-.52,2.11-.52h.5v-.05c0-.42-.08-.71-.25-.88-.17-.17-.47-.25-.9-.25-.63,0-1.22,.15-1.75,.45l-.15-.8c.56-.3,1.19-.45,1.9-.45,.75,0,1.3,.15,1.64,.46s.51,.79,.51,1.45v2c0,.47,.05,.94,.15,1.4h-.95c-.05-.29-.08-.56-.09-.8h-.02c-.19,.28-.45,.5-.78,.66-.33,.16-.7,.24-1.11,.24-.47,0-.85-.13-1.13-.4-.28-.27-.42-.63-.42-1.1Zm3.35-1.18h-.5c-.6,0-1.06,.1-1.38,.31-.32,.21-.48,.48-.48,.82,0,.25,.07,.44,.22,.58,.15,.14,.35,.22,.6,.22,.42,0,.78-.15,1.09-.44s.46-.64,.46-1.06v-.43Z"/><path class="cls-20" d="M157.23,67.3l.02,.7h.02c.38-.53,.82-.8,1.31-.8,.63,0,1.1,.3,1.39,.9h.02c.39-.6,.89-.9,1.49-.9,.55,0,.95,.16,1.21,.47,.26,.31,.39,.82,.39,1.53v3.3h-.98v-3c0-.59-.06-.98-.19-1.19-.13-.21-.35-.31-.68-.31-.27,0-.52,.15-.73,.45s-.32,.65-.32,1.05v3h-.98v-3c0-.59-.06-.98-.19-1.19-.13-.21-.35-.31-.68-.31-.27,0-.52,.15-.73,.45s-.32,.65-.32,1.05v3h-1v-5.2h.95Z"/><path class="cls-21" d="M164.82,66.1v-1.1h1.06v1.1h-1.06Zm0,6.4v-5.2h1.06v5.2h-1.06Z"/><path class="cls-23" d="M171.36,68.37c-.43-.23-.88-.35-1.35-.35-.51,0-.92,.16-1.21,.49-.29,.33-.44,.79-.44,1.39s.16,1.05,.46,1.39c.31,.34,.71,.51,1.19,.51s.92-.12,1.35-.35l.25,.8c-.53,.23-1.08,.35-1.65,.35-.79,0-1.42-.24-1.92-.73-.49-.49-.73-1.14-.73-1.97s.23-1.51,.7-1.99c.47-.48,1.12-.71,1.95-.71,.57,0,1.12,.12,1.65,.35l-.25,.82Z"/><path class="cls-22" d="M177.12,69.5v3h-1.1v-7.25c.63-.1,1.29-.15,2-.15,.96,0,1.68,.18,2.17,.53,.49,.35,.73,.84,.73,1.47,0,.51-.13,.94-.39,1.3-.26,.36-.61,.61-1.06,.74v.02c.29,.17,.55,.57,.8,1.19l.85,2.15h-1.14l-.83-2.15c-.14-.36-.3-.59-.47-.7s-.49-.16-.96-.16h-.6Zm0-.86h.6c1.41,0,2.12-.48,2.12-1.44,0-.41-.15-.71-.46-.92-.3-.2-.79-.3-1.46-.3-.3,0-.57,.02-.8,.07v2.59Z"/><path class="cls-25" d="M182.01,71.1c0-.58,.24-1.04,.73-1.4,.49-.35,1.19-.52,2.11-.52h.5v-.05c0-.42-.08-.71-.25-.88-.17-.17-.47-.25-.9-.25-.63,0-1.22,.15-1.75,.45l-.15-.8c.56-.3,1.19-.45,1.9-.45,.75,0,1.3,.15,1.64,.46s.51,.79,.51,1.45v2c0,.47,.05,.94,.15,1.4h-.95c-.05-.29-.08-.56-.09-.8h-.02c-.19,.28-.45,.5-.78,.66-.33,.16-.7,.24-1.11,.24-.47,0-.85-.13-1.13-.4-.28-.27-.42-.63-.42-1.1Zm3.35-1.18h-.5c-.6,0-1.06,.1-1.38,.31-.32,.21-.48,.48-.48,.82,0,.25,.07,.44,.22,.58,.15,.14,.35,.22,.6,.22,.42,0,.78-.15,1.09-.44s.46-.64,.46-1.06v-.43Z"/><path class="cls-24" d="M188.8,67.3l.02,.75h.02c.21-.27,.47-.47,.77-.62,.3-.15,.61-.22,.94-.22,1.13,0,1.7,.77,1.7,2.3v3h-.98v-2.9c0-.61-.08-1.02-.24-1.25s-.43-.33-.83-.33c-.34,0-.65,.17-.93,.5-.28,.34-.42,.73-.42,1.17v2.8h-1v-5.2h.95Z"/><path class="cls-27" d="M193.34,69.8c0-.85,.18-1.49,.54-1.93s.86-.67,1.51-.67c.71,0,1.27,.28,1.66,.85h.02l.02-.75h.95v4.7c0,1.87-.85,2.8-2.55,2.8-.59,0-1.14-.1-1.65-.3l.2-.8c.51,.2,.99,.3,1.45,.3,.54,0,.93-.15,1.18-.44,.25-.3,.37-.8,.37-1.51v-.45h-.02c-.37,.53-.92,.8-1.63,.8-.59,0-1.08-.24-1.47-.71-.39-.47-.58-1.1-.58-1.89Zm.98,0c0,.56,.12,1,.37,1.32s.56,.48,.95,.48c.42,0,.76-.16,1.01-.47,.26-.31,.39-.74,.39-1.28v-.1c0-.55-.13-.98-.39-1.29-.26-.31-.6-.46-1.01-.46s-.74,.15-.97,.46c-.23,.3-.35,.75-.35,1.34Z"/><path class="cls-26" d="M200.15,70.3c.02,.47,.18,.84,.48,1.11s.69,.41,1.15,.41c.5,0,1-.13,1.5-.38l.25,.76c-.58,.27-1.2,.4-1.85,.4-.75,0-1.36-.25-1.83-.74s-.71-1.14-.71-1.96,.22-1.5,.67-1.98c.44-.48,1.04-.72,1.78-.72s1.32,.23,1.73,.68c.41,.45,.62,1.11,.62,1.97,0,.1,0,.25-.02,.45h-3.76Zm0-.78h2.81c0-.49-.13-.87-.38-1.14-.24-.27-.58-.4-1.01-.4s-.77,.13-1.02,.4c-.26,.27-.39,.65-.4,1.14Z"/><path class="cls-52" d="M155.17,83.31c0,1.83,.65,3.37,1.95,4.63h-1c-.64-.59-1.13-1.28-1.48-2.08s-.52-1.65-.52-2.55,.17-1.75,.52-2.54,.84-1.49,1.48-2.08h1c-1.3,1.26-1.95,2.8-1.95,4.62Z"/><path class="cls-56" d="M157.86,86.67l2.6-7.3h1.2l2.6,7.3h-1.18l-.63-1.94h-2.82l-.63,1.94h-1.14Zm2.04-2.8h2.28l-1.13-3.5h-.02l-1.13,3.5Z"/><path class="cls-51" d="M171.1,82.92c0,1.27-.33,2.22-.98,2.88s-1.59,.97-2.82,.97c-.68,0-1.31-.05-1.9-.15v-7.2c.59-.1,1.23-.15,1.9-.15,1.22,0,2.16,.32,2.81,.95,.66,.63,.98,1.53,.98,2.71Zm-1.05,0c0-.91-.23-1.59-.7-2.05-.47-.46-1.15-.7-2.05-.7-.3,0-.57,.02-.8,.07v5.56c.23,.05,.5,.07,.8,.07,.93,0,1.62-.24,2.07-.73,.45-.48,.68-1.22,.68-2.22Z"/><path class="cls-54" d="M175.64,80.17c-.81,0-1.46,.26-1.94,.78-.49,.52-.73,1.21-.73,2.07s.25,1.56,.75,2.08,1.14,.78,1.93,.78c.65,0,1.26-.18,1.85-.55l.35,.82c-.67,.42-1.43,.63-2.3,.63-1.11,0-2.01-.34-2.69-1.01-.68-.68-1.01-1.59-1.01-2.74s.33-2.06,1-2.73c.67-.68,1.57-1.02,2.7-1.02,.87,0,1.63,.21,2.3,.63l-.35,.82c-.59-.37-1.2-.55-1.85-.55Z"/><path class="cls-55" d="M178.88,78.69h1c.64,.59,1.13,1.28,1.48,2.08s.52,1.64,.52,2.54-.17,1.75-.52,2.55-.84,1.49-1.48,2.08h-1c1.3-1.26,1.95-2.8,1.95-4.63s-.65-3.36-1.95-4.62Z"/></g><g><path class="cls-59" d="M282.28,37.9h-9.83l-.26,5.58h.07c1.1-.55,2.3-.83,3.6-.83,2.38,0,4.22,.65,5.53,1.95,1.31,1.3,1.96,3.13,1.96,5.51,0,5.65-3.22,8.48-9.67,8.48-2.35,0-4.55-.47-6.6-1.42l.99-3.73c1.98,.95,3.81,1.42,5.48,1.42,3.5,0,5.25-1.58,5.25-4.75,0-2.62-1.27-3.93-3.79-3.93-1.32,0-2.46,.45-3.43,1.35h-3.96l.66-13.36h14.03v3.73Z"/><path class="cls-53" d="M289.97,35.51c1.5-1.11,3.57-1.67,6.24-1.67s4.74,.56,6.24,1.67c1.5,1.11,2.24,2.57,2.24,4.37,0,2.31-1.38,4.09-4.12,5.35v.07c3.26,1.23,4.88,3.36,4.88,6.37,0,2.11-.81,3.79-2.44,5.05-1.63,1.25-3.89,1.88-6.8,1.88s-5.17-.63-6.8-1.88c-1.63-1.25-2.44-2.94-2.44-5.05,0-1.23,.4-2.36,1.21-3.38,.8-1.02,2-1.87,3.58-2.52v-.07c-1.28-.64-2.27-1.46-2.97-2.47s-1.06-2.12-1.06-3.33c0-1.8,.75-3.26,2.24-4.37Zm5.87,11.73c-2.97,.9-4.45,2.3-4.45,4.19,0,1.14,.44,2.06,1.32,2.75,.88,.69,2.05,1.04,3.5,1.04s2.6-.35,3.45-1.04c.85-.69,1.27-1.61,1.27-2.75,0-1.01-.37-1.84-1.11-2.49-.74-.65-2.06-1.22-3.98-1.7Zm.46-3.3c2.68-.79,4.03-1.99,4.03-3.6,0-.95-.36-1.71-1.09-2.28s-1.74-.86-3.04-.86-2.27,.29-2.99,.86-1.07,1.33-1.07,2.28c0,1.65,1.39,2.85,4.16,3.6Z"/><path class="cls-57" d="M313.15,50.2v9h-1.45l-.04-.88h-.02c-.47,.66-1.11,1-1.91,1-.74,0-1.35-.28-1.81-.85-.46-.56-.69-1.36-.69-2.39s.22-1.86,.67-2.41c.44-.55,1.05-.83,1.83-.83s1.36,.31,1.84,.92h.02v-3.56h1.56Zm-4.42,5.88c0,.65,.13,1.15,.4,1.49,.27,.35,.61,.52,1.04,.52s.77-.17,1.03-.51c.26-.34,.39-.82,.39-1.45v-.12c0-.61-.13-1.09-.39-1.43-.26-.35-.6-.52-1.03-.52-.46,0-.81,.17-1.06,.5s-.38,.84-.38,1.51Z"/><path class="cls-58" d="M321.07,56.68c0,.88-.29,1.54-.86,1.98-.58,.44-1.48,.66-2.7,.66-.89,0-1.73-.06-2.52-.18v-8.64c.75-.12,1.55-.18,2.4-.18,2.24,0,3.36,.73,3.36,2.2,0,.5-.16,.92-.49,1.28-.33,.36-.76,.59-1.31,.69v.02c.66,.09,1.17,.33,1.55,.73,.38,.4,.57,.88,.57,1.45Zm-4.43-2.71h.44c.74,0,1.28-.1,1.61-.31s.5-.51,.5-.91-.13-.67-.4-.85c-.27-.18-.71-.28-1.33-.28-.3,0-.57,.02-.83,.07v2.27Zm0,1.25v2.72c.28,.05,.58,.07,.9,.07,.66,0,1.15-.12,1.46-.37,.31-.24,.46-.62,.46-1.12,0-.45-.18-.78-.53-.99-.35-.21-.94-.32-1.76-.32h-.53Z"/><path class="cls-60" d="M271.63,69.04h-2.3v-.86h3.35v3.87c-.74,.37-1.56,.55-2.45,.55-1.2,0-2.16-.34-2.88-1.02-.72-.68-1.07-1.59-1.07-2.73s.34-2.06,1.03-2.74c.69-.68,1.63-1.01,2.82-1.01,.85,0,1.61,.2,2.27,.61l-.35,.8c-.59-.35-1.19-.53-1.82-.53-.89,0-1.58,.26-2.08,.78-.5,.52-.75,1.22-.75,2.09s.26,1.58,.79,2.09c.53,.52,1.24,.78,2.14,.78,.48,0,.91-.08,1.3-.25v-2.43Z"/><path class="cls-15" d="M273.87,71.1c0-.58,.24-1.04,.73-1.4,.49-.35,1.2-.52,2.12-.52h.5v-.05c0-.42-.08-.71-.25-.88-.17-.17-.47-.25-.9-.25-.63,0-1.22,.15-1.75,.45l-.15-.8c.56-.3,1.19-.45,1.9-.45,.75,0,1.3,.15,1.64,.46s.51,.79,.51,1.45v2c0,.47,.05,.94,.15,1.4h-.95c-.05-.29-.08-.56-.09-.8h-.02c-.19,.28-.45,.5-.78,.66-.33,.16-.7,.24-1.11,.24-.47,0-.85-.13-1.13-.4-.28-.27-.42-.63-.42-1.1Zm3.35-1.18h-.5c-.6,0-1.06,.1-1.38,.31-.32,.21-.49,.48-.49,.82,0,.25,.08,.44,.22,.58,.15,.14,.35,.22,.6,.22,.42,0,.78-.15,1.09-.44s.46-.64,.46-1.06v-.43Z"/><path class="cls-11" d="M280.06,66.1v-1.1h1.06v1.1h-1.06Zm0,6.4v-5.2h1.06v5.2h-1.06Z"/><path class="cls-19" d="M283.85,67.3l.02,.75h.02c.21-.27,.47-.47,.77-.62,.3-.15,.61-.22,.94-.22,1.13,0,1.7,.77,1.7,2.3v3h-.98v-2.9c0-.61-.08-1.02-.24-1.25-.16-.22-.43-.33-.83-.33-.34,0-.65,.17-.93,.5s-.42,.73-.42,1.17v2.8h-1v-5.2h.95Z"/><path class="cls-18" d="M292.86,69.5v3h-1.1v-7.25c.63-.1,1.29-.15,2-.15,.96,0,1.68,.18,2.17,.53,.49,.35,.73,.84,.73,1.47,0,.51-.13,.94-.39,1.3-.26,.36-.61,.61-1.06,.74v.02c.29,.17,.55,.57,.8,1.19l.85,2.15h-1.14l-.83-2.15c-.14-.36-.29-.59-.46-.7s-.49-.16-.96-.16h-.6Zm0-.86h.6c1.41,0,2.12-.48,2.12-1.44,0-.41-.15-.71-.46-.92-.3-.2-.79-.3-1.46-.3-.3,0-.57,.02-.8,.07v2.59Z"/><path class="cls-17" d="M297.75,71.1c0-.58,.24-1.04,.73-1.4,.49-.35,1.2-.52,2.12-.52h.5v-.05c0-.42-.08-.71-.25-.88-.17-.17-.47-.25-.9-.25-.63,0-1.22,.15-1.75,.45l-.15-.8c.56-.3,1.19-.45,1.9-.45,.75,0,1.3,.15,1.64,.46s.51,.79,.51,1.45v2c0,.47,.05,.94,.15,1.4h-.95c-.05-.29-.08-.56-.09-.8h-.02c-.19,.28-.45,.5-.78,.66-.33,.16-.7,.24-1.11,.24-.47,0-.85-.13-1.13-.4-.28-.27-.42-.63-.42-1.1Zm3.35-1.18h-.5c-.6,0-1.06,.1-1.38,.31-.32,.21-.49,.48-.49,.82,0,.25,.08,.44,.22,.58,.15,.14,.35,.22,.6,.22,.42,0,.78-.15,1.09-.44s.46-.64,.46-1.06v-.43Z"/><path class="cls-16" d="M304.54,67.3l.02,.75h.02c.21-.27,.47-.47,.77-.62,.3-.15,.61-.22,.94-.22,1.13,0,1.7,.77,1.7,2.3v3h-.98v-2.9c0-.61-.08-1.02-.24-1.25-.16-.22-.43-.33-.83-.33-.34,0-.65,.17-.93,.5-.28,.34-.42,.73-.42,1.17v2.8h-1v-5.2h.95Z"/><path class="cls-14" d="M309.08,69.8c0-.85,.18-1.49,.54-1.93,.36-.44,.86-.67,1.51-.67,.71,0,1.27,.28,1.66,.85h.02l.02-.75h.95v4.7c0,1.87-.85,2.8-2.55,2.8-.59,0-1.14-.1-1.65-.3l.2-.8c.51,.2,.99,.3,1.45,.3,.54,0,.93-.15,1.18-.44,.25-.3,.37-.8,.37-1.51v-.45h-.02c-.37,.53-.92,.8-1.63,.8-.59,0-1.08-.24-1.47-.71-.39-.47-.58-1.1-.58-1.89Zm.98,0c0,.56,.12,1,.37,1.32,.25,.32,.56,.48,.95,.48,.42,0,.76-.16,1.01-.47,.26-.31,.38-.74,.38-1.28v-.1c0-.55-.13-.98-.39-1.29s-.6-.46-1.01-.46-.74,.15-.97,.46c-.23,.3-.35,.75-.35,1.34Z"/><path class="cls-13" d="M315.89,70.3c.02,.47,.18,.84,.48,1.11,.3,.27,.69,.41,1.15,.41,.5,0,1-.13,1.5-.38l.25,.76c-.58,.27-1.2,.4-1.85,.4-.75,0-1.36-.25-1.83-.74s-.71-1.14-.71-1.96,.22-1.5,.67-1.98c.44-.48,1.04-.72,1.79-.72s1.32,.23,1.73,.68c.41,.45,.62,1.11,.62,1.97,0,.1,0,.25-.02,.45h-3.76Zm0-.78h2.81c0-.49-.13-.87-.38-1.14s-.58-.4-1-.4-.77,.13-1.03,.4c-.26,.27-.39,.65-.4,1.14Z"/></g><g><path class="cls-31" d="M375.27,36.78c1.53-1.96,3.85-2.94,6.95-2.94s5.42,.98,6.95,2.94c1.53,1.96,2.29,5.1,2.29,9.44s-.77,7.48-2.29,9.44c-1.53,1.96-3.84,2.94-6.95,2.94s-5.42-.98-6.95-2.94c-1.53-1.96-2.29-5.1-2.29-9.44s.76-7.48,2.29-9.44Zm3.52,16.24c.75,1.32,1.89,1.98,3.43,1.98s2.68-.66,3.43-1.98,1.12-3.59,1.12-6.8-.37-5.48-1.12-6.8c-.75-1.32-1.89-1.98-3.43-1.98s-2.68,.66-3.43,1.98c-.75,1.32-1.12,3.59-1.12,6.8s.38,5.48,1.12,6.8Z"/><path class="cls-12" d="M395.71,58.26v-5.61h5.28v5.61h-5.28Z"/><path class="cls-41" d="M407.54,36.78c1.53-1.96,3.84-2.94,6.95-2.94s5.42,.98,6.95,2.94c1.53,1.96,2.29,5.1,2.29,9.44s-.76,7.48-2.29,9.44c-1.53,1.96-3.84,2.94-6.95,2.94s-5.42-.98-6.95-2.94c-1.53-1.96-2.29-5.1-2.29-9.44s.76-7.48,2.29-9.44Zm3.51,16.24c.75,1.32,1.89,1.98,3.43,1.98s2.68-.66,3.43-1.98c.75-1.32,1.12-3.59,1.12-6.8s-.38-5.48-1.12-6.8c-.75-1.32-1.89-1.98-3.43-1.98s-2.68,.66-3.43,1.98c-.75,1.32-1.12,3.59-1.12,6.8s.37,5.48,1.12,6.8Z"/><path class="cls-48" d="M428.66,36.78c1.53-1.96,3.84-2.94,6.95-2.94s5.42,.98,6.95,2.94c1.53,1.96,2.29,5.1,2.29,9.44s-.76,7.48-2.29,9.44c-1.53,1.96-3.84,2.94-6.95,2.94s-5.42-.98-6.95-2.94c-1.53-1.96-2.29-5.1-2.29-9.44s.76-7.48,2.29-9.44Zm3.51,16.24c.75,1.32,1.89,1.98,3.43,1.98s2.68-.66,3.43-1.98,1.12-3.59,1.12-6.8-.37-5.48-1.12-6.8c-.75-1.32-1.89-1.98-3.43-1.98s-2.69,.66-3.43,1.98c-.75,1.32-1.12,3.59-1.12,6.8s.37,5.48,1.12,6.8Z"/><path class="cls-49" d="M455.84,58.26v-18.71h-.03l-5.78,5.28-1.55-3.83,7.36-6.83h4.75v24.09h-4.75Z"/><path class="cls-44" d="M485.04,37.9h-9.83l-.26,5.58h.07c1.1-.55,2.3-.83,3.6-.83,2.38,0,4.22,.65,5.53,1.95,1.31,1.3,1.96,3.13,1.96,5.51,0,5.65-3.22,8.48-9.67,8.48-2.35,0-4.55-.47-6.6-1.42l.99-3.73c1.98,.95,3.81,1.42,5.48,1.42,3.5,0,5.25-1.58,5.25-4.75,0-2.62-1.27-3.93-3.79-3.93-1.32,0-2.46,.45-3.43,1.35h-3.96l.66-13.36h14.03v3.73Z"/><path class="cls-45" d="M489.39,50.94c.38-.41,.92-.62,1.62-.62s1.24,.21,1.62,.62c.39,.41,.58,1,.58,1.76s-.19,1.35-.58,1.76c-.39,.42-.93,.62-1.62,.62s-1.24-.21-1.62-.62c-.38-.42-.58-1-.58-1.76s.19-1.35,.58-1.76Zm1.62,3.04c.51,0,.77-.43,.77-1.28s-.26-1.27-.77-1.27-.76,.42-.76,1.27,.25,1.28,.76,1.28Zm4.46-3.54h1.48l-4.8,8.76h-1.48l4.8-8.76Zm-.48,4.74c.38-.42,.92-.62,1.62-.62s1.24,.21,1.62,.62,.58,1,.58,1.76-.19,1.35-.58,1.76-.92,.62-1.62,.62-1.24-.21-1.62-.62-.58-1-.58-1.76,.19-1.35,.58-1.76Zm1.62,3.04c.5,0,.76-.42,.76-1.27s-.25-1.28-.76-1.28-.76,.43-.76,1.28,.25,1.27,.76,1.27Z"/><path class="cls-46" d="M418.38,65.2h5.4v.92h-2.15v6.38h-1.1v-6.38h-2.15v-.92Z"/><path class="cls-47" d="M426.27,65.2v2.98h3.4v-2.98h1.1v7.3h-1.1v-3.46h-3.4v3.46h-1.1v-7.3h1.1Z"/><path class="cls-42" d="M438.11,68.75c0,1.27-.33,2.23-.98,2.88-.65,.65-1.59,.98-2.82,.98-.68,0-1.31-.05-1.9-.15v-7.2c.59-.1,1.23-.15,1.9-.15,1.22,0,2.16,.31,2.81,.94s.99,1.53,.99,2.71Zm-1.05,0c0-.91-.23-1.59-.7-2.05-.47-.46-1.15-.7-2.05-.7-.3,0-.57,.02-.8,.07v5.56c.23,.05,.5,.07,.8,.07,.93,0,1.62-.24,2.07-.72,.45-.48,.68-1.23,.68-2.23Z"/><path class="cls-43" d="M442.6,66.7v2.48h2.45v.84h-2.45v2.48h-.9v-2.48h-2.45v-.84h2.45v-2.48h.9Z"/><path class="cls-50" d="M446.64,72.5v-7.3h1.08l3.42,5.45h.02v-5.45h1.08v7.3h-1.08l-3.42-5.45h-.02v5.45h-1.08Z"/></g></svg>