<?xml version="1.0" encoding="UTF-8"?>
<svg xmlns="http://www.w3.org/2000/svg" width="500" height="100" viewBox="0 0 500 100">
  <defs>
    <style>
      .cls-1 {
        fill: #50bc82;
      }
    </style>
  </defs>
  <g id="iD44_mk2" data-name="iD44 mk2">
    <g>
      <path class="cls-1" d="M11.52,71.97c-.45-.35-.98-.74-1.6-1.19l.58-.78c.49,.34,.96,.68,1.41,1.02,.23-.7,.37-1.49,.41-2.38h-1.74c-.07,.2-.18,.49-.34,.88-.39,.91-.84,1.71-1.35,2.4l-.66-.76c.9-1.37,1.53-2.88,1.9-4.53l.97,.12c-.05,.29-.13,.61-.23,.97h2.45c0,.32,0,.63-.03,.94,.43,.49,.89,.96,1.36,1.39v-3.31h1.07v4.22c.65,.51,1.35,.98,2.08,1.39l-.43,.88c-.55-.31-1.1-.66-1.65-1.07v3.58h-1.07v-4.42c-.5-.43-1-.9-1.49-1.42-.19,1.15-.51,2.13-.98,2.94-.75,1.32-1.83,2.25-3.22,2.8l-.41-.87c1.09-.43,1.97-1.18,2.65-2.25,.15-.24,.25-.42,.32-.55Z"/>
      <path class="cls-1" d="M18.27,71.06v-.9h1.15c-.13-.55-.29-1.16-.49-1.82h-.56v-.88h1.96v-.92h1.07v.92h2.05v.88h-.54c-.12,.6-.29,1.21-.5,1.82h1.14v.9h-5.28Zm1.56,4.23v.4h-1.06v-3.9h4.33v3.9h-1.03v-.4h-2.24Zm2.24-.85v-1.78h-2.24v1.78h2.24Zm-.64-4.28c.21-.57,.38-1.17,.51-1.82h-2.01c.19,.65,.34,1.25,.47,1.82h1.03Zm4.91,.32c.38,.31,.68,.69,.89,1.14,.21,.45,.32,.9,.32,1.37,0,.58-.13,1-.38,1.27-.25,.25-.65,.38-1.2,.38h-.62l-.18-.92h.28c.41,0,.69-.05,.84-.16,.14-.1,.21-.3,.21-.6,0-.8-.44-1.61-1.32-2.43,.49-.83,.9-1.73,1.23-2.69h-1.51v7.85h-1.03v-8.7h3.6v.85c-.29,.91-.66,1.79-1.13,2.64Z"/>
      <path class="cls-1" d="M30.39,67.68l1.1,.07c-.23,2.61-.97,5.03-2.23,7.26l-1.01-.47c1.19-2.12,1.9-4.41,2.14-6.86Zm4.25-.11c.91,2.17,1.7,4.59,2.35,7.26l-1.12,.22c-.59-2.51-1.34-4.89-2.25-7.16l1.02-.32Z"/>
      <path class="cls-1" d="M37.93,71.76v-1.05h8.2v1.05h-8.2Z"/>
      <path class="cls-1" d="M48.35,67.24h1.1v2.86c1.81,.43,3.65,1,5.52,1.69l-.34,1c-1.75-.65-3.48-1.19-5.18-1.61v4.26h-1.1v-8.2Zm3.08,.62l.9-.45c.31,.54,.64,1.13,.97,1.78l-.89,.43c-.27-.53-.6-1.12-.98-1.76Zm1.54-.41l.9-.46c.36,.59,.69,1.19,1,1.8l-.9,.44c-.31-.59-.64-1.18-1-1.78Z"/>
      <path class="cls-1" d="M56.6,68.34h3.2v-1.55h1.05v1.55h3.35v1.75c0,1.57-.49,2.8-1.46,3.67-.98,.88-2.4,1.37-4.29,1.48l-.13-.95c3.22-.19,4.83-1.59,4.83-4.2v-.83h-5.53v2.33h-1.02v-3.25Z"/>
      <path class="cls-1" d="M66.35,69.24h5.8v.89h-2.38v3.82h2.62v.89h-6.28v-.89h2.62v-3.82h-2.38v-.89Z"/>
      <path class="cls-1" d="M74.14,68.56v-.92h8v.92c-.19,.68-.53,1.31-1.02,1.9-.49,.58-1.06,1.05-1.72,1.4l-.57-.84c1.12-.61,1.85-1.43,2.18-2.46h-6.87Zm2.77,.88h1.05c0,1.16-.09,2.11-.27,2.85-.18,.74-.47,1.33-.87,1.79s-.94,.85-1.65,1.16l-.5-.87c.57-.25,1.02-.57,1.33-.96,.32-.38,.55-.89,.69-1.52,.14-.63,.22-1.45,.22-2.46Z"/>
      <path class="cls-1" d="M85.72,66.68l.97,.11c-.1,.65-.22,1.3-.36,1.95h1.49c.16,0,.34,.02,.54,.05s.33,.07,.41,.1c.08,.03,.16,.1,.26,.22,.1,.12,.16,.22,.18,.31,.02,.09,.05,.26,.08,.5,.03,.24,.04,.46,.04,.66v.9c0,1.26-.15,2.2-.46,2.82s-.7,.93-1.19,.93c-.59,0-1.28-.17-2.07-.51l.32-.91c.7,.28,1.22,.42,1.55,.42,.09,0,.19-.06,.28-.17,.09-.11,.18-.28,.26-.51s.14-.53,.19-.92c.05-.38,.07-.82,.07-1.3v-.57c0-.11,0-.25-.02-.41-.01-.16-.02-.26-.03-.31s-.03-.11-.08-.19c-.05-.08-.08-.12-.11-.13-.03,0-.09-.03-.19-.05s-.18-.04-.25-.04h-1.5c-.47,1.94-1.1,3.83-1.89,5.67l-.92-.35c.74-1.74,1.33-3.51,1.78-5.32h-1.65v-.9h1.87c.17-.77,.31-1.46,.41-2.06Zm3.92,1.56l.94-.32c.69,1.63,1.26,3.31,1.71,5.06l-.97,.23c-.45-1.75-1.01-3.41-1.68-4.97Z"/>
      <path class="cls-1" d="M94.07,69.08l1.02,.09c-.11,.85-.22,1.55-.31,2.12h.02c.43-.32,.93-.58,1.51-.77,.58-.19,1.13-.28,1.66-.28,1.89,0,2.84,.77,2.84,2.3,0,.89-.37,1.57-1.1,2.04-.73,.47-1.81,.71-3.24,.71-.65,0-1.38-.04-2.19-.13l.06-.92c.97,.1,1.68,.15,2.13,.15,1.04,0,1.83-.16,2.37-.48,.54-.32,.8-.78,.8-1.37,0-.93-.61-1.4-1.83-1.4-.47,0-1,.12-1.6,.36-.6,.24-1.17,.55-1.71,.96l-.93-.22c.19-1.03,.35-2.08,.5-3.15Zm.83-1.79c1.55,.2,3.08,.3,4.61,.3v.9c-1.57,0-3.15-.1-4.73-.3l.12-.9Z"/>
      <path class="cls-1" d="M107.47,74.19c.77-.09,1.36-.39,1.77-.9,.42-.51,.62-1.19,.62-2.04,0-.77-.25-1.41-.74-1.93-.49-.52-1.13-.8-1.9-.86-.15,1.28-.33,2.36-.54,3.23-.21,.87-.45,1.54-.71,1.99-.26,.45-.52,.77-.79,.95-.26,.18-.56,.27-.88,.27-.51,0-.98-.3-1.41-.9-.43-.6-.64-1.33-.64-2.2,0-1.27,.43-2.31,1.3-3.11,.87-.8,2-1.19,3.4-1.19,1.13,0,2.06,.35,2.79,1.06,.74,.71,1.1,1.6,1.1,2.69s-.29,2.04-.86,2.73c-.58,.69-1.35,1.08-2.33,1.17l-.2-.95Zm-1.28-5.69c-.89,.14-1.6,.5-2.13,1.09-.53,.59-.79,1.32-.79,2.2,0,.57,.12,1.06,.35,1.47,.24,.42,.47,.62,.69,.62,.11,0,.22-.04,.33-.13s.24-.26,.38-.51c.14-.25,.28-.57,.41-.96s.26-.91,.4-1.56,.25-1.4,.35-2.23Z"/>
      <path class="cls-1" d="M14.9,80.79h7.2v.95h-3.05v5h3.35v.95h-7.8v-.95h3.35v-5h-3.05v-.95Z"/>
      <path class="cls-1" d="M23.91,80.74h7.55v.2c0,2.26-.53,3.97-1.58,5.13-1.05,1.16-2.69,1.85-4.91,2.07l-.19-.97c1.84-.19,3.2-.72,4.08-1.57,.88-.85,1.37-2.14,1.48-3.86h-6.43v-1Z"/>
      <path class="cls-1" d="M33.58,82.24h5.8v.89h-2.38v3.82h2.62v.89h-6.28v-.89h2.62v-3.82h-2.38v-.89Z"/>
      <path class="cls-1" d="M47.58,81.94h-3.63c-.39,1.09-1.06,2.08-1.99,2.96l-.74-.65c.59-.57,1.07-1.22,1.44-1.96s.6-1.51,.69-2.32l1.02,.07c-.03,.31-.08,.63-.15,.94h4.48v.2c0,2.27-.53,3.96-1.58,5.06-1.06,1.1-2.75,1.75-5.06,1.94l-.15-.95c1.95-.19,3.36-.68,4.23-1.49,.87-.8,1.36-2.08,1.45-3.82Z"/>
      <path class="cls-1" d="M51.15,80.14h1.1v2.86c1.81,.43,3.65,1,5.52,1.69l-.34,1c-1.75-.65-3.48-1.19-5.18-1.61v4.26h-1.1v-8.2Z"/>
      <path class="cls-1" d="M63,84.99v-1.5h1.5v1.5h-1.5Z"/>
      <path class="cls-1" d="M71.15,80.14h1.1v2.86c1.81,.43,3.65,1,5.52,1.69l-.34,1c-1.75-.65-3.48-1.19-5.18-1.61v4.26h-1.1v-8.2Z"/>
      <path class="cls-1" d="M79,83.06h7.8v.2c0,3.09-2.07,4.77-6.22,5.03l-.16-.95c1.51-.09,2.71-.4,3.62-.92,.91-.52,1.45-1.32,1.62-2.41h-6.67v-.96Zm.75-1.62v-.95h6.4v.95h-6.4Z"/>
      <path class="cls-1" d="M88.68,82.52l.95-.21c.24,.82,.48,1.71,.72,2.66l-.97,.21c-.21-.88-.45-1.77-.7-2.66Zm5.52-.45l1,.05c-.04,2.04-.45,3.51-1.22,4.42s-2.07,1.47-3.9,1.68l-.2-.92c.83-.11,1.5-.28,2.02-.49,.52-.21,.96-.53,1.31-.94s.59-.92,.74-1.52c.15-.6,.23-1.37,.25-2.29Zm-3.35,.18l.97-.21c.22,.77,.46,1.68,.72,2.75l-.97,.21c-.21-.87-.45-1.79-.72-2.75Z"/>
      <path class="cls-1" d="M103.34,81.94h-3.63c-.39,1.09-1.06,2.08-1.99,2.96l-.74-.65c.59-.57,1.07-1.22,1.44-1.96s.6-1.51,.69-2.32l1.02,.07c-.03,.31-.08,.63-.15,.94h4.48v.2c0,2.27-.53,3.96-1.58,5.06-1.06,1.1-2.75,1.75-5.06,1.94l-.15-.95c1.95-.19,3.36-.68,4.23-1.49,.87-.8,1.36-2.08,1.45-3.82Z"/>
    </g>
    <g>
      <path class="cls-1" d="M156.18,71.97c-.45-.35-.98-.74-1.6-1.19l.58-.78c.49,.34,.96,.68,1.41,1.02,.23-.7,.37-1.49,.41-2.38h-1.74c-.07,.2-.18,.49-.34,.88-.39,.91-.84,1.71-1.35,2.4l-.66-.76c.9-1.37,1.53-2.88,1.9-4.53l.97,.12c-.05,.29-.13,.61-.23,.97h2.45c0,.32,0,.63-.03,.94,.43,.49,.89,.96,1.36,1.39v-3.31h1.07v4.22c.65,.51,1.35,.98,2.08,1.39l-.43,.88c-.55-.31-1.1-.66-1.65-1.07v3.58h-1.07v-4.42c-.5-.43-1-.9-1.49-1.42-.19,1.15-.51,2.13-.98,2.94-.75,1.32-1.83,2.25-3.22,2.8l-.41-.87c1.09-.43,1.97-1.18,2.65-2.25,.15-.24,.25-.42,.32-.55Z"/>
      <path class="cls-1" d="M162.93,71.06v-.9h1.15c-.13-.55-.29-1.16-.49-1.82h-.56v-.88h1.96v-.92h1.07v.92h2.05v.88h-.54c-.12,.6-.29,1.21-.5,1.82h1.14v.9h-5.28Zm1.56,4.23v.4h-1.06v-3.9h4.33v3.9h-1.03v-.4h-2.24Zm2.24-.85v-1.78h-2.24v1.78h2.24Zm-.64-4.28c.21-.57,.38-1.17,.51-1.82h-2.01c.19,.65,.34,1.25,.47,1.82h1.03Zm4.91,.32c.38,.31,.68,.69,.89,1.14,.21,.45,.32,.9,.32,1.37,0,.58-.13,1-.38,1.27-.25,.25-.65,.38-1.2,.38h-.62l-.18-.92h.28c.41,0,.69-.05,.84-.16,.14-.1,.21-.3,.21-.6,0-.8-.44-1.61-1.32-2.43,.49-.83,.9-1.73,1.23-2.69h-1.51v7.85h-1.03v-8.7h3.6v.85c-.29,.91-.66,1.79-1.13,2.64Z"/>
      <path class="cls-1" d="M175.05,67.68l1.1,.07c-.23,2.61-.97,5.03-2.23,7.26l-1.01-.47c1.19-2.12,1.9-4.41,2.14-6.86Zm4.25-.11c.91,2.17,1.7,4.59,2.35,7.26l-1.12,.22c-.59-2.51-1.34-4.89-2.25-7.16l1.02-.32Z"/>
      <path class="cls-1" d="M182.59,71.76v-1.05h8.2v1.05h-8.2Z"/>
      <path class="cls-1" d="M193.01,67.24h1.1v2.86c1.81,.43,3.65,1,5.52,1.69l-.34,1c-1.75-.65-3.48-1.19-5.18-1.61v4.26h-1.1v-8.2Zm3.08,.62l.9-.45c.31,.54,.64,1.13,.97,1.78l-.89,.43c-.27-.53-.6-1.12-.98-1.76Zm1.54-.41l.9-.46c.36,.59,.69,1.19,1,1.8l-.9,.44c-.31-.59-.64-1.18-1-1.78Z"/>
      <path class="cls-1" d="M201.26,68.34h3.2v-1.55h1.05v1.55h3.35v1.75c0,1.57-.49,2.8-1.46,3.67-.98,.88-2.4,1.37-4.29,1.48l-.13-.95c3.22-.19,4.83-1.59,4.83-4.2v-.83h-5.53v2.33h-1.02v-3.25Z"/>
      <path class="cls-1" d="M211.01,69.24h5.8v.89h-2.38v3.82h2.62v.89h-6.28v-.89h2.62v-3.82h-2.38v-.89Z"/>
      <path class="cls-1" d="M218.8,68.56v-.92h8v.92c-.19,.68-.53,1.31-1.02,1.9-.49,.58-1.06,1.05-1.72,1.4l-.57-.84c1.12-.61,1.85-1.43,2.18-2.46h-6.87Zm2.77,.88h1.05c0,1.16-.09,2.11-.27,2.85-.18,.74-.47,1.33-.87,1.79s-.94,.85-1.65,1.16l-.5-.87c.57-.25,1.02-.57,1.33-.96,.32-.38,.55-.89,.69-1.52,.14-.63,.22-1.45,.22-2.46Z"/>
      <path class="cls-1" d="M232.81,74.19c.77-.09,1.36-.39,1.77-.9,.42-.51,.62-1.19,.62-2.04,0-.77-.25-1.41-.74-1.93-.49-.52-1.13-.8-1.9-.86-.15,1.28-.33,2.36-.54,3.23-.21,.87-.45,1.54-.71,1.99-.26,.45-.52,.77-.79,.95-.26,.18-.56,.27-.88,.27-.51,0-.98-.3-1.41-.9-.43-.6-.64-1.33-.64-2.2,0-1.27,.43-2.31,1.3-3.11,.87-.8,2-1.19,3.4-1.19,1.13,0,2.06,.35,2.79,1.06,.74,.71,1.1,1.6,1.1,2.69s-.29,2.04-.86,2.73c-.58,.69-1.35,1.08-2.33,1.17l-.2-.95Zm-1.28-5.69c-.89,.14-1.6,.5-2.13,1.09-.53,.59-.79,1.32-.79,2.2,0,.57,.12,1.06,.35,1.47,.24,.42,.47,.62,.69,.62,.11,0,.22-.04,.33-.13s.24-.26,.38-.51c.14-.25,.28-.57,.41-.96s.26-.91,.4-1.56,.25-1.4,.35-2.23Z"/>
      <path class="cls-1" d="M150.27,80.79h7.2v.95h-3.05v5h3.35v.95h-7.8v-.95h3.35v-5h-3.05v-.95Z"/>
      <path class="cls-1" d="M159.28,80.74h7.55v.2c0,2.26-.53,3.97-1.58,5.13-1.05,1.16-2.69,1.85-4.91,2.07l-.19-.97c1.84-.19,3.2-.72,4.08-1.57,.88-.85,1.37-2.14,1.48-3.86h-6.43v-1Z"/>
      <path class="cls-1" d="M168.95,82.24h5.8v.89h-2.38v3.82h2.62v.89h-6.28v-.89h2.62v-3.82h-2.38v-.89Z"/>
      <path class="cls-1" d="M182.95,81.94h-3.63c-.39,1.09-1.06,2.08-1.99,2.96l-.74-.65c.59-.57,1.07-1.22,1.44-1.96s.6-1.51,.69-2.32l1.02,.07c-.03,.31-.08,.63-.15,.94h4.48v.2c0,2.27-.53,3.96-1.58,5.06-1.06,1.1-2.75,1.75-5.06,1.94l-.15-.95c1.95-.19,3.36-.68,4.23-1.49,.87-.8,1.36-2.08,1.45-3.82Z"/>
      <path class="cls-1" d="M186.52,80.14h1.1v2.86c1.81,.43,3.65,1,5.52,1.69l-.34,1c-1.75-.65-3.48-1.19-5.18-1.61v4.26h-1.1v-8.2Z"/>
      <path class="cls-1" d="M198.38,84.99v-1.5h1.5v1.5h-1.5Z"/>
      <path class="cls-1" d="M205.38,86.35c2.51,.09,5.02,.35,7.53,.8l-.11,1.06c-2.54-.45-5.03-.71-7.47-.8l.05-1.06Zm.45-5.97c2.33,.09,4.59,.29,6.76,.6l-.12,1.04c-2.29-.33-4.52-.53-6.69-.6l.05-1.04Zm.43,2.85c1.95,.08,3.87,.29,5.78,.62l-.14,1.06c-1.93-.33-3.84-.54-5.72-.62l.08-1.06Z"/>
      <path class="cls-1" d="M214.48,82.52l.95-.21c.24,.82,.48,1.71,.72,2.66l-.97,.21c-.21-.88-.45-1.77-.7-2.66Zm5.52-.45l1,.05c-.04,2.04-.45,3.51-1.22,4.42s-2.07,1.47-3.9,1.68l-.2-.92c.83-.11,1.5-.28,2.02-.49,.52-.21,.96-.53,1.31-.94s.59-.92,.74-1.52c.15-.6,.23-1.37,.25-2.29Zm-3.35,.18l.97-.21c.22,.77,.46,1.68,.72,2.75l-.97,.21c-.21-.87-.45-1.79-.72-2.75Z"/>
      <path class="cls-1" d="M229.15,81.94h-3.63c-.39,1.09-1.06,2.08-1.99,2.96l-.74-.65c.59-.57,1.07-1.22,1.44-1.96s.6-1.51,.69-2.32l1.02,.07c-.03,.31-.08,.63-.15,.94h4.48v.2c0,2.27-.53,3.96-1.58,5.06-1.06,1.1-2.75,1.75-5.06,1.94l-.15-.95c1.95-.19,3.36-.68,4.23-1.49,.87-.8,1.36-2.08,1.45-3.82Z"/>
      <path class="cls-1" d="M232.44,81.56v-.97h6.3v.97c-.47,1.09-1.15,2.12-2.05,3.11,1.01,.92,1.97,1.85,2.89,2.79l-.73,.71c-.96-.98-1.92-1.91-2.87-2.79-1.17,1.09-2.48,1.99-3.94,2.7l-.47-.86c1.41-.72,2.63-1.56,3.66-2.54,1.03-.97,1.81-2.01,2.35-3.12h-5.14Z"/>
    </g>
    <g>
      <path class="cls-1" d="M286.36,71.97c-.45-.35-.98-.74-1.6-1.19l.58-.78c.49,.34,.96,.68,1.41,1.02,.23-.7,.37-1.49,.41-2.38h-1.74c-.07,.2-.18,.49-.34,.88-.39,.91-.84,1.71-1.35,2.4l-.66-.76c.9-1.37,1.53-2.88,1.9-4.53l.97,.12c-.05,.29-.13,.61-.23,.97h2.45c0,.32,0,.63-.03,.94,.43,.49,.89,.96,1.36,1.39v-3.31h1.07v4.22c.65,.51,1.35,.98,2.08,1.39l-.43,.88c-.55-.31-1.1-.66-1.65-1.07v3.58h-1.07v-4.42c-.5-.43-1-.9-1.49-1.42-.19,1.15-.51,2.13-.98,2.94-.75,1.32-1.83,2.25-3.22,2.8l-.41-.87c1.09-.43,1.97-1.18,2.65-2.25,.15-.24,.25-.42,.32-.55Z"/>
      <path class="cls-1" d="M293.11,71.06v-.9h1.15c-.13-.55-.29-1.16-.49-1.82h-.56v-.88h1.96v-.92h1.07v.92h2.05v.88h-.54c-.12,.6-.29,1.21-.5,1.82h1.14v.9h-5.28Zm1.56,4.23v.4h-1.06v-3.9h4.33v3.9h-1.03v-.4h-2.24Zm2.24-.85v-1.78h-2.24v1.78h2.24Zm-.64-4.28c.21-.57,.38-1.17,.51-1.82h-2.01c.19,.65,.34,1.25,.47,1.82h1.03Zm4.91,.32c.38,.31,.68,.69,.89,1.14,.21,.45,.32,.9,.32,1.37,0,.58-.13,1-.38,1.27-.25,.25-.65,.38-1.2,.38h-.62l-.18-.92h.28c.41,0,.69-.05,.84-.16,.14-.1,.21-.3,.21-.6,0-.8-.44-1.61-1.32-2.43,.49-.83,.9-1.73,1.23-2.69h-1.51v7.85h-1.03v-8.7h3.6v.85c-.29,.91-.66,1.79-1.13,2.64Z"/>
      <path class="cls-1" d="M303.47,68.62v-.98h7.98v.98c-.27,.89-.74,1.71-1.43,2.47s-1.54,1.41-2.57,1.95c.13,.19,.54,.79,1.21,1.8l-.93,.58c-1.09-1.63-2.1-3.08-3.05-4.35l.9-.61c.6,.81,1.01,1.37,1.24,1.69,.82-.41,1.55-.93,2.19-1.57s1.07-1.29,1.3-1.96h-6.84Z"/>
      <path class="cls-1" d="M312.31,70.97c1.42-.2,2.81-.63,4.16-1.29,1.35-.66,2.46-1.44,3.33-2.35l.65,.74c-.77,.8-1.75,1.53-2.94,2.18v5.07h-1.12v-4.52c-1.3,.57-2.61,.95-3.92,1.14l-.16-.97Z"/>
      <path class="cls-1" d="M327.36,68.94h-3.63c-.39,1.09-1.06,2.08-1.99,2.96l-.74-.65c.59-.57,1.07-1.22,1.44-1.96s.6-1.51,.69-2.32l1.02,.07c-.03,.31-.08,.63-.15,.94h4.48v.2c0,2.27-.53,3.96-1.58,5.06-1.06,1.1-2.75,1.75-5.06,1.94l-.15-.95c1.95-.19,3.36-.68,4.23-1.49,.87-.8,1.36-2.08,1.45-3.82Z"/>
      <path class="cls-1" d="M336.62,68.84h-6.43v-1h6.15v-.1c0-.39,.14-.72,.41-.99s.6-.41,.99-.41,.72,.14,.99,.41,.41,.6,.41,.99-.14,.72-.41,.99c-.27,.27-.6,.41-.99,.41h-.04c-.16,1.89-.77,3.33-1.82,4.32-1.05,.98-2.6,1.58-4.63,1.79l-.19-.97c1.84-.19,3.2-.72,4.08-1.57s1.37-2.14,1.48-3.86Zm1.58-.64c.13-.13,.19-.28,.19-.46s-.06-.33-.19-.46-.28-.19-.46-.19-.33,.06-.46,.19c-.13,.13-.19,.28-.19,.46s.06,.33,.19,.46,.28,.19,.46,.19,.33-.06,.46-.19Z"/>
      <path class="cls-1" d="M340.6,71.79v-4.45h1.1v4.45h-1.1Zm6.24-4.45v2.65c0,1.7-.4,2.97-1.2,3.82s-2.08,1.37-3.84,1.58l-.23-.99c1.55-.21,2.63-.63,3.24-1.27s.91-1.68,.91-3.11v-2.68h1.12Z"/>
      <path class="cls-1" d="M306.7,87.19c.77-.09,1.36-.39,1.77-.9,.42-.51,.62-1.19,.62-2.04,0-.77-.25-1.41-.74-1.93-.49-.52-1.13-.8-1.9-.86-.15,1.28-.33,2.36-.54,3.23-.21,.87-.45,1.54-.71,1.99s-.52,.77-.79,.95c-.26,.18-.55,.27-.88,.27-.51,0-.98-.3-1.41-.9-.43-.6-.64-1.33-.64-2.2,0-1.27,.43-2.31,1.3-3.11,.87-.8,2-1.19,3.4-1.19,1.13,0,2.06,.35,2.79,1.06,.74,.71,1.1,1.6,1.1,2.69s-.29,2.04-.86,2.73c-.58,.69-1.36,1.08-2.34,1.17l-.2-.95Zm-1.28-5.69c-.89,.14-1.6,.5-2.13,1.09-.53,.59-.79,1.32-.79,2.2,0,.57,.12,1.06,.35,1.47,.24,.42,.47,.62,.7,.62,.11,0,.22-.04,.33-.13s.24-.26,.38-.51c.14-.25,.28-.57,.41-.96s.26-.91,.39-1.56c.13-.65,.25-1.4,.35-2.23Z"/>
      <path class="cls-1" d="M319.58,79.99v3.17h.65v.88h-2.28c.16,.45,.36,.88,.59,1.31,.34-.33,.67-.72,.99-1.16l.7,.6c-.39,.53-.79,.99-1.2,1.36,.43,.61,.91,1.14,1.43,1.58l-.69,.77c-.53-.49-1.01-1.1-1.44-1.84-.15-.27-.28-.51-.38-.72v1.18c0,.29,0,.49,0,.58-.01,.18-.03,.31-.05,.4-.03,.13-.07,.22-.12,.28-.04,.05-.12,.11-.23,.16-.09,.04-.2,.07-.33,.08-.16,.01-.32,.02-.48,.02-.17,0-.52-.02-1.03-.05l-.04-.85c.47,.03,.76,.05,.89,.05,.17,0,.28-.03,.32-.09,.04-.06,.06-.23,.06-.5v-.72c-.65,.69-1.42,1.34-2.3,1.93l-.55-.67c-1.04,.32-2.01,.58-2.92,.77l-.11-.89c.49-.1,1.02-.23,1.6-.38v-2.82h-1.47v-.88h1.47v-.98h-.87v-.36c-.21,.19-.44,.38-.67,.55l-.21-1.02c.61-.47,1.21-1.1,1.81-1.91h.97c.53,.61,1.07,1.08,1.6,1.41l-.35,.88s-.06-.05-.11-.08c-.05-.03-.08-.06-.11-.07v.6h-1.06v.98h1.18v-.38h3.68v-.74h-3.23v-.83h3.23v-.73h-3.36v-.87h4.43Zm-8.32,4.99l.77-.21c.14,.47,.3,1.1,.47,1.9l-.77,.21c-.18-.81-.34-1.44-.47-1.9Zm1.01-3.26h2.12c-.43-.35-.82-.75-1.16-1.18-.29,.42-.61,.81-.96,1.18Zm4.66,3.56v-1.24h-2.05v.38h-1.23v2.53c.49-.14,.94-.28,1.36-.43l.06,.41c.68-.5,1.3-1.05,1.86-1.65Zm-2.24-.68l.83-.41c.28,.45,.53,.92,.76,1.4l-.79,.49c-.18-.37-.37-.74-.57-1.09-.11,.52-.24,1.04-.39,1.55l-.75-.2c.15-.5,.3-1.05,.43-1.64l.62,.13s-.04-.07-.07-.12-.06-.09-.07-.12Z"/>
      <path class="cls-1" d="M321.12,83.49v-.85h2.46c-.25-.49-.49-.94-.73-1.35h-1.43v-.87h3.7v-.93h1.1v.93h3.7v.87h-1.47c-.2,.49-.42,.94-.67,1.35h2.44v.85h-9.1Zm1.2,.57h6.7v4.63h-1.1v-.4h-4.5v.4h-1.1v-4.63Zm1.1,1.7h4.5v-.82h-4.5v.82Zm0,.83v.85h4.5v-.85h-4.5Zm3.17-3.95c.28-.41,.52-.86,.73-1.35h-3.27c.26,.48,.49,.93,.68,1.35h1.86Z"/>
    </g>
    <g>
      <path class="cls-1" d="M390.39,67.44h1.07v2.92c1.91-.31,3.83-.8,5.76-1.47l.29,.95c-2,.69-4.02,1.19-6.05,1.52v1.4c0,.57,.09,.95,.27,1.13s.56,.27,1.13,.27c1.67,0,3.17-.05,4.5-.14l.03,.97c-1.6,.1-3.13,.15-4.6,.15-.92,0-1.55-.17-1.89-.5-.34-.34-.51-.97-.51-1.89v-5.3Zm4.96-.25l.81-.42c.4,.71,.7,1.25,.89,1.63l-.81,.39c-.31-.58-.6-1.11-.89-1.6Zm1.48-.36l.83-.43c.34,.6,.64,1.15,.91,1.66l-.83,.4c-.28-.53-.58-1.08-.91-1.63Z"/>
      <path class="cls-1" d="M400.76,67.39h1.1v2c0,1.33-.07,2.37-.22,3.12s-.38,1.31-.71,1.7c-.32,.39-.79,.73-1.42,1.04l-.57-.9c.53-.27,.92-.55,1.16-.86s.41-.76,.51-1.36c.1-.6,.15-1.51,.15-2.73v-2Zm2.65,0h1.1v6.69c1.47-.31,2.31-1.49,2.5-3.52l1,.13c-.13,1.45-.57,2.55-1.33,3.32s-1.78,1.15-3.07,1.15h-.2v-7.77Z"/>
      <path class="cls-1" d="M409.87,67.14h1.1v2.86c1.81,.43,3.65,1,5.52,1.69l-.34,1c-1.75-.65-3.48-1.19-5.18-1.61v4.26h-1.1v-8.2Z"/>
      <path class="cls-1" d="M417.88,70.97c1.42-.2,2.8-.63,4.15-1.29,1.35-.66,2.46-1.44,3.34-2.35l.65,.74c-.77,.8-1.75,1.53-2.94,2.18v5.07h-1.12v-4.52c-1.3,.57-2.61,.95-3.92,1.14l-.16-.97Z"/>
      <path class="cls-1" d="M427.62,68.38l.49-.93c1.13,.55,2.15,1.1,3.08,1.65l-.53,.93c-1.11-.65-2.13-1.2-3.04-1.65Zm6.87,0l1,.22c-.68,3.88-3.18,6.01-7.5,6.39l-.15-1.02c1.94-.19,3.45-.73,4.53-1.64,1.08-.91,1.79-2.22,2.12-3.95Z"/>
      <path class="cls-1" d="M440.49,71.99v-1.5h1.5v1.5h-1.5Z"/>
      <path class="cls-1" d="M447.24,68.62v-.98h7.98v.98c-.27,.89-.74,1.71-1.42,2.47s-1.54,1.41-2.58,1.95c.13,.19,.54,.79,1.21,1.8l-.93,.58c-1.09-1.63-2.1-3.08-3.05-4.35l.9-.61c.6,.81,1.01,1.37,1.24,1.69,.82-.41,1.55-.93,2.19-1.57,.64-.64,1.07-1.29,1.3-1.96h-6.84Z"/>
      <path class="cls-1" d="M456.08,70.97c1.42-.2,2.81-.63,4.16-1.29,1.35-.66,2.46-1.44,3.33-2.35l.65,.74c-.77,.8-1.75,1.53-2.94,2.18v5.07h-1.12v-4.52c-1.3,.57-2.61,.95-3.92,1.14l-.16-.97Z"/>
      <path class="cls-1" d="M471.13,68.94h-3.63c-.39,1.09-1.06,2.08-1.99,2.96l-.74-.65c.59-.57,1.07-1.22,1.44-1.96,.37-.74,.6-1.51,.69-2.32l1.02,.07c-.03,.31-.08,.63-.15,.94h4.48v.2c0,2.27-.53,3.96-1.58,5.06-1.06,1.1-2.75,1.75-5.07,1.94l-.15-.95c1.95-.19,3.36-.68,4.23-1.49,.87-.8,1.36-2.08,1.45-3.82Z"/>
      <path class="cls-1" d="M480.39,68.84h-6.43v-1h6.15v-.1c0-.39,.14-.72,.41-.99s.6-.41,.99-.41,.72,.14,.99,.41,.41,.6,.41,.99-.14,.72-.41,.99c-.27,.27-.6,.41-.99,.41h-.04c-.16,1.89-.77,3.33-1.82,4.32-1.05,.98-2.6,1.58-4.63,1.79l-.19-.97c1.84-.19,3.2-.72,4.08-1.57,.88-.85,1.37-2.14,1.48-3.86Zm1.58-.64c.13-.13,.19-.28,.19-.46s-.06-.33-.19-.46c-.13-.13-.28-.19-.46-.19s-.33,.06-.46,.19c-.13,.13-.19,.28-.19,.46s.06,.33,.19,.46,.28,.19,.46,.19,.33-.06,.46-.19Z"/>
      <path class="cls-1" d="M484.37,71.79v-4.45h1.1v4.45h-1.1Zm6.24-4.45v2.65c0,1.7-.4,2.97-1.2,3.82-.8,.85-2.08,1.37-3.84,1.58l-.23-.99c1.55-.21,2.63-.63,3.24-1.27,.61-.64,.91-1.68,.91-3.11v-2.68h1.12Z"/>
      <path class="cls-1" d="M423.22,87.19c.77-.09,1.36-.39,1.78-.9,.42-.51,.62-1.19,.62-2.04,0-.77-.25-1.41-.74-1.93-.49-.52-1.13-.8-1.9-.86-.15,1.28-.33,2.36-.54,3.23-.21,.87-.45,1.54-.71,1.99s-.52,.77-.79,.95c-.26,.18-.55,.27-.88,.27-.51,0-.98-.3-1.41-.9-.43-.6-.64-1.33-.64-2.2,0-1.27,.43-2.31,1.3-3.11,.87-.8,2-1.19,3.4-1.19,1.13,0,2.06,.35,2.79,1.06,.74,.71,1.11,1.6,1.11,2.69s-.29,2.04-.87,2.73c-.58,.69-1.36,1.08-2.33,1.17l-.2-.95Zm-1.28-5.69c-.89,.14-1.6,.5-2.13,1.09-.53,.59-.79,1.32-.79,2.2,0,.57,.12,1.06,.35,1.47,.24,.42,.47,.62,.69,.62,.11,0,.22-.04,.33-.13s.24-.26,.38-.51c.14-.25,.28-.57,.41-.96,.13-.39,.26-.91,.4-1.56s.25-1.4,.35-2.23Z"/>
      <path class="cls-1" d="M429.31,80.78l1.1,.07c-.23,2.61-.97,5.03-2.23,7.26l-1.01-.47c1.19-2.12,1.9-4.41,2.14-6.86Zm3.08-.29l.81-.42c.4,.71,.7,1.25,.89,1.63l-.81,.39c-.31-.58-.6-1.11-.89-1.6Zm.87,2.44l1.05-.31c.59,1.56,1.12,3.33,1.6,5.31l-1.12,.22c-.45-1.91-.96-3.65-1.53-5.22Zm.61-2.8l.83-.43c.34,.6,.64,1.15,.91,1.66l-.83,.4c-.28-.53-.58-1.08-.91-1.63Z"/>
      <path class="cls-1" d="M436.79,83.97c1.42-.2,2.81-.63,4.16-1.29,1.35-.66,2.46-1.44,3.33-2.35l.65,.74c-.77,.8-1.75,1.53-2.94,2.18v5.07h-1.12v-4.52c-1.3,.57-2.61,.95-3.92,1.14l-.16-.97Z"/>
      <path class="cls-1" d="M447.23,80.78l1.1,.07c-.23,2.61-.97,5.03-2.23,7.26l-1.01-.47c1.19-2.12,1.9-4.41,2.14-6.86Zm5.69-.73c.27,.27,.41,.6,.41,.99s-.14,.72-.41,.99-.6,.41-.99,.41-.72-.14-.99-.41-.41-.6-.41-.99,.14-.72,.41-.99,.6-.41,.99-.41,.72,.14,.99,.41Zm-1.66,3.11l1.04-.31c.56,1.5,1.07,3.19,1.53,5.08l-1.12,.22c-.45-1.85-.93-3.52-1.45-4.99Zm1.13-1.66c.13-.13,.19-.28,.19-.46s-.06-.33-.19-.46-.28-.19-.46-.19-.33,.06-.46,.19-.19,.28-.19,.46,.06,.33,.19,.46,.28,.19,.46,.19,.33-.06,.46-.19Z"/>
      <path class="cls-1" d="M456,81.56v-.97h6.3v.97c-.47,1.09-1.15,2.12-2.05,3.11,1.01,.92,1.97,1.85,2.89,2.79l-.73,.71c-.96-.98-1.92-1.91-2.87-2.79-1.17,1.09-2.48,1.99-3.94,2.7l-.47-.86c1.41-.72,2.63-1.56,3.66-2.54,1.03-.97,1.81-2.01,2.35-3.12h-5.14Z"/>
    </g>
    <g>
      <path class="cls-1" d="M437.54,45.24c3.74,0,6.78-3.04,6.78-6.78v-12.56c0-3.74-3.04-6.78-6.78-6.78s-6.78,3.04-6.78,6.78v12.56c0,3.74,3.04,6.78,6.78,6.78Zm0-24.36c2.77,0,5.03,2.26,5.03,5.03v12.56c0,2.77-2.26,5.03-5.03,5.03s-5.03-2.26-5.03-5.03v-12.56c0-2.77,2.26-5.03,5.03-5.03Z"/>
      <path class="cls-1" d="M447.38,33.34s-.1,5.37-.1,5.57c-.01,.74-.12,1.47-.31,2.17-.18,.59-.42,1.18-.72,1.76-.24,.49-.54,.96-.88,1.39-.75,.96-1.65,1.78-2.68,2.42-1.39,.86-2.99,1.35-4.62,1.42h-.15c-.17,0-.33,0-.48,0-.11,0-.22,0-.35,0h-.14c-1.63-.07-3.23-.56-4.62-1.42-1.03-.65-1.93-1.46-2.69-2.43-.34-.43-.64-.9-.89-1.4-.29-.56-.52-1.15-.71-1.73-.2-.71-.31-1.45-.32-2.17,0-.21-.1-5.59-.1-5.59l-1.5,.03s.1,5.34,.1,5.58c.02,.87,.15,1.73,.38,2.58,.21,.68,.48,1.35,.8,1.98,.29,.59,.64,1.14,1.05,1.65,.86,1.1,1.89,2.04,3.07,2.78,1.58,.98,3.4,1.54,5.26,1.63v3.97s.01,.06,.02,.09h-4.29c-.41,0-.75,.34-.75,.75s.34,.75,.75,.75h10.05c.41,0,.75-.34,.75-.75s-.34-.75-.75-.75h-4.29s.02-.06,.02-.09v-3.98c1.84-.1,3.63-.66,5.19-1.63,1.18-.74,2.21-1.68,3.06-2.77,.41-.52,.76-1.07,1.05-1.65,.33-.64,.6-1.31,.82-2.01,.23-.83,.36-1.7,.38-2.58,0-.22,.1-5.56,.1-5.56l-1.5-.03Z"/>
      <path class="cls-1" d="M315.28,31.15c-5.61,0-10.17,4.56-10.17,10.17s4.56,10.17,10.17,10.17,10.17-4.56,10.17-10.17-4.56-10.17-10.17-10.17Zm0,18.58c-4.63,0-8.41-3.77-8.41-8.41s3.77-8.41,8.41-8.41,8.41,3.77,8.41,8.41-3.77,8.41-8.41,8.41Z"/>
      <path class="cls-1" d="M315.38,34c-.41,0-.75,.34-.75,.75v3.01c0,.41,.34,.75,.75,.75s.75-.34,.75-.75v-3.01c0-.41-.34-.75-.75-.75Z"/>
      <path class="cls-1" d="M315.38,26.77c.41,0,.75-.34,.75-.75v-3.01c0-.41-.34-.75-.75-.75s-.75,.34-.75,.75v3.01c0,.41,.34,.75,.75,.75Z"/>
      <path class="cls-1" d="M322.98,28.84c.24,0,.47-.11,.62-.32l1.63-2.32c.24-.34,.16-.81-.18-1.04-.34-.24-.81-.16-1.04,.18l-1.63,2.32c-.24,.34-.16,.81,.18,1.04,.13,.09,.28,.14,.43,.14Z"/>
      <path class="cls-1" d="M331.44,31.56c-.24-.34-.7-.42-1.04-.18l-2.32,1.63c-.34,.24-.42,.71-.18,1.04,.15,.21,.38,.32,.61,.32,.15,0,.3-.04,.43-.14l2.32-1.63c.34-.24,.42-.71,.18-1.04Z"/>
      <path class="cls-1" d="M333.59,40.47h-3.01c-.41,0-.75,.34-.75,.75s.34,.75,.75,.75h3.01c.41,0,.75-.34,.75-.75s-.34-.75-.75-.75Z"/>
      <path class="cls-1" d="M307.41,27.83c.15,.21,.38,.32,.62,.32,.15,0,.3-.04,.43-.14,.34-.24,.42-.71,.18-1.04l-1.63-2.32c-.24-.34-.71-.42-1.04-.18-.34,.24-.42,.71-.18,1.04l1.63,2.32Z"/>
      <path class="cls-1" d="M300.61,30.69c-.34-.24-.81-.16-1.04,.18-.24,.34-.16,.81,.18,1.04l2.32,1.63c.13,.09,.28,.14,.43,.14,.24,0,.47-.11,.61-.32,.24-.34,.16-.81-.18-1.04l-2.32-1.63Z"/>
      <path class="cls-1" d="M300.42,39.78h-3.01c-.41,0-.75,.34-.75,.75s.34,.75,.75,.75h3.01c.41,0,.75-.34,.75-.75s-.34-.75-.75-.75Z"/>
      <path class="cls-1" d="M195.99,27.18h-.26v-3.27c0-.41-.34-.75-.75-.75s-.75,.34-.75,.75v3.27h-.22c-1.55,0-2.81,1.26-2.81,2.81s1.26,2.81,2.81,2.81h.22v17.62c0,.41,.34,.75,.75,.75s.75-.34,.75-.75v-17.62h.26c1.55,0,2.81-1.26,2.81-2.81s-1.26-2.81-2.81-2.81Zm0,3.86h-1.98c-.58,0-1.06-.47-1.06-1.06s.47-1.06,1.06-1.06h1.98c.58,0,1.06,.47,1.06,1.06s-.47,1.06-1.06,1.06Z"/>
      <path class="cls-1" d="M205.26,39.18h-.24v-15.59c0-.41-.34-.75-.75-.75s-.75,.34-.75,.75v15.59h-.24c-1.55,0-2.81,1.26-2.81,2.81s1.26,2.81,2.81,2.81h.24v5.62c0,.41,.34,.75,.75,.75s.75-.34,.75-.75v-5.62h.24c1.55,0,2.81-1.26,2.81-2.81s-1.26-2.81-2.81-2.81Zm0,3.86h-1.98c-.58,0-1.06-.47-1.06-1.06s.47-1.06,1.06-1.06h1.98c.58,0,1.06,.47,1.06,1.06s-.47,1.06-1.06,1.06Z"/>
      <path class="cls-1" d="M185.71,43.18h-.24V23.59c0-.41-.34-.75-.75-.75s-.75,.34-.75,.75v19.59h-.24c-1.55,0-2.81,1.26-2.81,2.81s1.26,2.81,2.81,2.81h.24v1.62c0,.41,.34,.75,.75,.75s.75-.34,.75-.75v-1.62h.24c1.55,0,2.81-1.26,2.81-2.81s-1.26-2.81-2.81-2.81Zm0,3.86h-1.98c-.58,0-1.06-.47-1.06-1.06s.47-1.06,1.06-1.06h1.98c.58,0,1.06,.47,1.06,1.06s-.47,1.06-1.06,1.06Z"/>
    </g>
    <path class="cls-1" d="M85.05,32.05H39.95c-1.82,0-3.3,1.48-3.3,3.3v3.3c0,1.82,1.48,3.3,3.3,3.3h45.1c1.82,0,3.3-1.48,3.3-3.3v-3.3c0-1.82-1.48-3.3-3.3-3.3Zm-44.05,7.95c-.55,0-1-.45-1-1s.45-1,1-1,1,.45,1,1-.45,1-1,1Zm3,0c-.55,0-1-.45-1-1s.45-1,1-1,1,.45,1,1-.45,1-1,1Zm3,0c-.55,0-1-.45-1-1s.45-1,1-1,1,.45,1,1-.45,1-1,1Zm3,0c-.55,0-1-.45-1-1s.45-1,1-1,1,.45,1,1-.45,1-1,1Zm3,0c-.55,0-1-.45-1-1s.45-1,1-1,1,.45,1,1-.45,1-1,1Zm1-3.5h-13c-.55,0-1-.45-1-1s.45-1,1-1h13c.55,0,1,.45,1,1s-.45,1-1,1Zm2,3.5c-.55,0-1-.45-1-1s.45-1,1-1,1,.45,1,1-.45,1-1,1Zm1-4.5c0-.55,.45-1,1-1h13c.55,0,1,.45,1,1s-.45,1-1,1h-13c-.55,0-1-.45-1-1Zm12,4.5c-.55,0-1-.45-1-1s.45-1,1-1,1,.45,1,1-.45,1-1,1Zm3,0c-.55,0-1-.45-1-1s.45-1,1-1,1,.45,1,1-.45,1-1,1Zm3,0c-.55,0-1-.45-1-1s.45-1,1-1,1,.45,1,1-.45,1-1,1Zm6,0c-.55,0-1-.45-1-1s.45-1,1-1,1,.45,1,1-.45,1-1,1Zm3,0c-.55,0-1-.45-1-1s.45-1,1-1,1,.45,1,1-.45,1-1,1Z"/>
  </g>
  <g id="_イヤー_1" data-name="レイヤー 1"/>
  <g id="iD22_表" data-name="iD22 表"/>
</svg>