<?xml version="1.0" encoding="UTF-8"?>
<svg id="iD4_Loop-back_Diagram" data-name="iD4 Loop-back Diagram" xmlns="http://www.w3.org/2000/svg" width="522.11mm" height="423.33mm" xmlns:xlink="http://www.w3.org/1999/xlink" viewBox="0 0 1480 1200">
  <defs>
    <style>
      .cls-1 {
        fill: #0071bc;
      }

      .cls-2 {
        fill: #fff;
      }

      .cls-3 {
        fill: #662d91;
      }

      .cls-4 {
        fill: #93278f;
      }

      .cls-5 {
        fill: #29abe2;
      }

      .cls-6 {
        clip-path: url(#clippath-3);
      }

      .cls-7 {
        clip-path: url(#clippath-1);
      }

      .cls-8 {
        clip-path: url(#clippath-2);
      }

      .cls-9 {
        clip-path: url(#clippath);
      }
    </style>
    <clipPath id="clippath">
      <rect class="cls-2" x="589.5" y="971.3" width="61.9" height="8.5"/>
    </clipPath>
    <clipPath id="clippath-1">
      <rect class="cls-2" x="589.5" y="971.3" width="61.9" height="8.5"/>
    </clipPath>
    <clipPath id="clippath-2">
      <rect class="cls-2" x="759" y="985.3" width="24.3" height="11.7"/>
    </clipPath>
    <clipPath id="clippath-3">
      <rect class="cls-2" x="759" y="985.3" width="24.3" height="11.7"/>
    </clipPath>
  </defs>
  <path class="cls-2" d="M1126.7,1171.2c-10.9,0-23.1-4-28.9-17.9-1.8-4.3-6.1-16.8-6.5-18.1-.6-1.7-5.1-13.6-6.2-18.2-5.4-22.3,13.6-35.7,24.4-39.7l4.8-1.8,16.1,45.8,16.4,45.6-4.7,1.7c-5.1,1.7-10.2,2.6-15.4,2.6Zm-18.4-82.3c-6.4,3.7-16.9,11.9-13.5,25.7,.8,3.5,4.5,13.5,5.9,17.1v.2c0,.1,4.5,13.3,6.3,17.5,3.2,7.5,9.1,11.4,18.1,11.7,2.9,.1,5.8-.1,8.6-.7l-13-36.2-.2-.6-12.2-34.7Z"/>
  <path class="cls-2" d="M1292.7,1170.2c-5,0-10-.8-14.8-2.5l-4.8-1.7,17.1-45.5,16.7-45.4,4.7,1.8c11.3,4.2,30.8,18.1,24,40.2-1.4,4.5-6.2,16.8-6.6,18-.6,1.7-4.8,13.6-6.9,17.9-6.6,13.3-18.7,17.2-29.4,17.2Zm-6.4-10.6c7.3,1.3,20.6,1.7,26.9-11,1.6-3.2,5.2-13.3,6.5-16.9l.1-.2c0-.1,5.1-13.1,6.4-17.4,4.2-13.6-6.8-22-13.4-25.7l-13.3,36.1-.3,.6-12.9,34.5Z"/>
  <path class="cls-2" d="M1263.4,1174.4c-2.6,0-5.3-.4-7.8-1.3h0c-12.5-4.3-19.1-17.9-14.8-30.4l24.9-72.4c4.5-12.4,18.2-18.8,30.6-14.4,12.2,4.4,18.6,17.6,14.6,29.9l-24.9,72.4c-3.3,9.7-12.4,16.2-22.6,16.2Zm25-110.2c-5.9,0-11.2,3.8-13.1,9.4l-24.9,72.4c-2.5,7.3,1.4,15.1,8.6,17.7l-1.6,4.7,1.6-4.7c7.3,2.5,15.1-1.4,17.7-8.6l24.9-72.4c2.5-7.2-1.3-15.1-8.6-17.6h0c-1.6-.6-3.1-.9-4.6-.9h0Z"/>
  <path class="cls-2" d="M1156.6,1174.4c-10.2,0-19.2-6.5-22.6-16.1l-24.9-72.4c-4.3-12.5,2.4-26.1,14.8-30.4h0c12.5-4.3,26.1,2.4,30.4,14.8l24.9,72.4c4.3,12.5-2.4,26.1-14.9,30.4-2.5,.8-5.1,1.3-7.7,1.3h0Zm-29.4-109.4c-7.2,2.5-11.1,10.4-8.6,17.7l24.9,72.3c2.8,7.2,10.8,10.7,18,8,6.8-2.6,10.4-10,8.3-17l-24.9-72.4c-2.6-7.2-10.5-11.1-17.7-8.6h0Z"/>
  <path class="cls-2" d="M1317.8,1088.4c-2.8,0-5-2.2-5-5,0-.3,0-.5,.1-.8,6.6-42.8-2.9-81.8-26.6-109.8-19.5-23.2-48.1-36.8-78.4-37.3h-.3c-25.8,0-53.8,13.7-73,35.9-16.9,19.5-35.4,54.7-27.1,111.3,.5,2.7-1.3,5.3-4.1,5.8-2.7,.5-5.3-1.3-5.8-4.1v-.3c-8.9-60.3,11.1-98.1,29.4-119.3,21-24.3,51.9-39.3,80.6-39.3h.3c33.2,.5,64.6,15.4,85.9,40.8,25.6,30.2,35.9,72,28.9,117.8-.3,2.5-2.4,4.3-4.9,4.3Z"/>
  <g id="Mic">
    <g id="Group_1907" data-name="Group 1907">
      <g id="Rectangle_2407" data-name="Rectangle 2407">
        <path class="cls-2" d="M217.3,925h5.8c22.5,0,40.8,18.3,40.8,40.8v93.3c0,22.5-18.3,40.8-40.8,40.8h-5.8c-22.5,0-40.8-18.3-40.8-40.8v-93.3c0-22.5,18.3-40.8,40.8-40.8Z"/>
        <path class="cls-2" d="M223.1,1100.6h-5.8c-22.9,0-41.4-18.6-41.4-41.4v-93.3c0-22.9,18.6-41.4,41.4-41.4h5.8c22.9,0,41.4,18.6,41.4,41.4v93.3c.1,22.8-18.5,41.3-41.4,41.4Zm-5.8-166.2c-17.4,0-31.4,14.1-31.4,31.4v93.3c0,17.4,14.1,31.4,31.4,31.4h5.8c17.4,0,31.4-14.1,31.4-31.4v-93.3c0-17.4-14.1-31.4-31.4-31.4h-5.8Z"/>
      </g>
      <g id="Group_1905" data-name="Group 1905">
        <path class="cls-2" d="M224,1133.4h-8.1c-2.8,0-5-2.2-5-5s2.2-5,5-5h8.2c11.4-.5,22.4-3.9,32.1-9.9,7.2-4.5,13.5-10.3,18.7-17,2.4-3,4.5-6.3,6.2-9.8,2-3.9,3.7-8,5-12.2,1.4-4.9,2.1-10,2.2-15.2,0-2.2,.6-35.1,.7-38.8,.1-2.8,2.3-5,5.1-4.9s5,2.3,4.9,5.1c-.3,15-.7,37.6-.7,38.7v.1c-.1,6-1,12-2.6,17.8v.1c-1.5,4.7-3.4,9.4-5.6,13.8-2,4.1-4.4,7.9-7.3,11.4-5.9,7.6-13.1,14.2-21.3,19.3-11.2,7-24.1,10.9-37.3,11.4l-.2,.1h0Z"/>
        <path class="cls-2" d="M215.9,1133.4h-.2c-13.2-.5-26-4.5-37.2-11.4-8.2-5.1-15.4-11.7-21.3-19.3-2.8-3.6-5.3-7.4-7.3-11.5-2.3-4.4-4.1-9-5.6-13.7v-.1c-1.6-5.8-2.5-11.8-2.6-17.8v-.1c0-1.1-.4-23.8-.7-38.7-.1-2.8,2.1-5,4.9-5.1h.1c2.7,0,4.9,2.2,5,4.9,.1,3.8,.7,36.7,.7,38.8,.1,5.1,.8,10.2,2.2,15.2,1.3,4.2,3,8.2,4.9,12.1,1.7,3.5,3.8,6.8,6.2,9.8,5.2,6.7,11.6,12.5,18.8,17,9.7,6,20.7,9.4,32,9.9h8.2c2.8,0,5,2.2,5,5s-2.2,5-5,5h-8.1Z"/>
      </g>
      <g id="Group_1906" data-name="Group 1906">
        <path class="cls-2" d="M220.2,1166.2c-2.8,0-5-2.2-5-5v-29.2c0-2.8,2.2-5,5-5s5,2.2,5,5v29.2c0,2.7-2.2,5-5,5h0Z"/>
        <path class="cls-2" d="M255.2,1172h-70c-2.8,0-5-2.2-5-5s2.2-5,5-5h70c2.8,0,5,2.2,5,5s-2.2,5-5,5Z"/>
      </g>
    </g>
  </g>
  <path class="cls-2" d="M1089.2,641.3H305.7c-24.3,0-44-19.8-44-44V72c0-24.3,19.7-44,44-44h783.4c24.3,0,44,19.7,44,44V597.3c.1,24.3-19.6,44-43.9,44ZM305.7,38c-18.8,0-34,15.2-34,34V597.3c0,18.8,15.2,34,34,34h783.4c18.8,0,34-15.3,34-34V72c0-18.8-15.2-34-34-34H305.7Z"/>
  <path class="cls-2" d="M868.7,751.5h-342.5c-2.8,0-5-2.2-5-5s2.2-5,5-5h342.5c2.8,0,5,2.2,5,5s-2.2,5-5,5Z"/>
  <path class="cls-2" d="M782,751.5c-2.8,0-5-2.2-5-5v-109c0-2.8,2.2-5,5-5s5,2.2,5,5v109c0,2.7-2.2,5-5,5Z"/>
  <path class="cls-2" d="M615.6,751.5c-2.8,0-5-2.2-5-5v-109c0-2.8,2.2-5,5-5s5,2.2,5,5v109c0,2.7-2.3,5-5,5Z"/>
  <path class="cls-2" d="M379.5,278.9c-.1-9.8,7.7-17.7,17.5-17.9,5.1-.1,10,2.2,13.2,6.2l-3.8,3c-2.3-2.8-5.8-4.5-9.4-4.5-7,0-12.4,6-12.4,13.1s5.4,13,12.4,13c3.6,0,7.1-1.6,9.4-4.5l3.8,3c-3.2,4-8.1,6.3-13.2,6.2-9.7,.1-17.6-7.8-17.5-17.6h0Z"/>
  <path class="cls-2" d="M413.6,284.3c0-6.8,5.5-12.3,12.3-12.3s12.3,5.5,12.3,12.3-5.5,12.3-12.3,12.3h0c-6.6,.2-12.1-5-12.3-11.6v-.7Zm19.7,0c-.2-4.1-3.6-7.2-7.7-7.1-4.1,.2-7.2,3.6-7.1,7.7,.2,3.9,3.4,7,7.3,7.1,4.1,0,7.4-3.3,7.4-7.4,.1-.1,.1-.2,.1-.3Z"/>
  <path class="cls-2" d="M480.9,282.7v13.3h-5v-13.1c0-3.8-2-6.1-5.1-6.1-3.9,0-5.9,2.7-5.9,7.6v11.6h-5v-13.1c0-3.8-2-6.1-4.9-6.1s-6.1,2-6.1,6.7v12.5h-4.9v-23.3h4.9v3.9c1-2.8,4.1-4.5,7.3-4.5,3.3-.1,6.3,1.9,7.6,4.9,1.5-3.1,4.6-5,8-4.9,5.9,0,9.1,3.9,9.1,10.6Z"/>
  <path class="cls-2" d="M512.5,284.4c0,7.5-5.2,12.2-11.6,12.2-3.3,0-6.5-1.4-8.1-4v14.8h-4.9v-34.7h4.9v3.5c1.5-2.6,5-4.1,8.1-4.1,6.3,0,11.6,4.9,11.6,12.3Zm-5,0c0-4.4-3.2-7.8-7.2-7.8-4.2,.2-7.6,3.7-7.4,8,.1,4,3.4,7.3,7.4,7.4,4,0,7.3-3.3,7.3-7.3-.1-.1-.1-.2-.1-.3h0Z"/>
  <path class="cls-2" d="M534.9,272.7h4.9v23.3h-4.9v-3.5c-1.3,2.9-5.1,4.1-7.5,4.1-5.9,0-9.5-4-9.4-10.6v-13.3h4.9v13.2c0,3.9,2.3,6.1,5.3,6.1s6.8-1.8,6.8-6.6l-.1-12.7h0Z"/>
  <path class="cls-2" d="M559,272.7v4.1h-5v19.2h-4.9v-19.2h-4.2v-4.1h4.2v-8.8h4.9v8.8h5Z"/>
  <path class="cls-2" d="M585.3,286.3h-18.6c.7,3.8,3.5,5.8,7.2,5.8,2.6,.1,5.1-1.2,6.6-3.4l3.9,2c-2.2,3.8-6.3,6.2-10.7,6-6.8,0-12-5-12-12.4-.3-6.5,4.8-11.9,11.2-12.2h.8c6.7,0,11.7,4.8,11.7,12.1,0,.7-.1,1.4-.1,2.1Zm-4.8-3.9c-.3-3.4-3.3-6-6.8-5.8-3.6,0-6.3,1.9-7,5.8h13.8Z"/>
  <path class="cls-2" d="M606.6,272.9l-.8,4.6c-1.1-.5-2.3-.8-3.5-.8-4.2,0-6.2,4.5-6.2,10.9v8.4h-5v-23.3h5v5.2c1.2-4.1,3.5-5.9,6.5-5.9,1.4,0,2.8,.3,4,.9Z"/>
  <path class="cls-2" d="M451.7,356l-3.2-8.7h-14.3l-3.2,8.7h-5.4l13.1-34.5h5.5l13,34.5h-5.5Zm-15.8-13.2h11l-5.5-15-5.5,15Z"/>
  <path class="cls-2" d="M477.4,332.7h4.9v23.3h-4.9v-3.5c-1.4,2.9-5.1,4.1-7.5,4.1-5.9,0-9.5-4-9.4-10.6v-13.3h4.9v13.2c0,3.9,2.3,6.1,5.3,6.1s6.8-1.8,6.8-6.6l-.1-12.7h0Z"/>
  <path class="cls-2" d="M507.8,320h4.9v36h-4.9v-3.5c-1.5,2.6-4.9,4.1-8,4.1-6.4,0-11.6-4.9-11.6-12.3s5.2-12.2,11.6-12.2c3.3,0,6.5,1.4,8.1,4l-.1-16.1Zm0,24.3c0-4.2-3.3-7.6-7.5-7.6h0c-4,0-7.3,3.3-7.3,7.4v.2c-.3,4.1,2.8,7.6,6.9,7.8,4.1,.3,7.6-2.8,7.8-6.9,.1-.3,.1-.6,.1-.9Z"/>
  <path class="cls-2" d="M519.1,324.2c-.1-1.9,1.3-3.4,3.1-3.6,1.9-.1,3.4,1.3,3.6,3.1s-1.3,3.4-3.1,3.6h-.2c-1.9,.1-3.4-1.3-3.4-3.1h0Zm.9,31.8v-23.4h4.9v23.4h-4.9Z"/>
  <path class="cls-2" d="M530.7,344.3c0-6.8,5.5-12.3,12.3-12.3s12.3,5.5,12.3,12.3-5.5,12.3-12.3,12.3c-6.6,.2-12.1-5-12.3-11.6v-.7Zm19.7,0c-.2-4.1-3.6-7.2-7.7-7.1-4.1,.2-7.2,3.6-7.1,7.7,.2,4,3.4,7.1,7.4,7.1s7.4-3.3,7.4-7.4v-.3h0Z"/>
  <path class="cls-2" d="M816.6,278.9c-.1-9.8,7.7-17.7,17.5-17.9,5.1-.1,10,2.2,13.2,6.2l-3.8,3c-2.3-2.8-5.8-4.5-9.4-4.5-7,0-12.4,6-12.4,13.1s5.3,13,12.4,13c3.6,0,7.1-1.6,9.4-4.5l3.8,3c-3.2,4-8.1,6.3-13.2,6.2-9.7,.1-17.6-7.8-17.5-17.6h0Z"/>
  <path class="cls-2" d="M870.4,272.7h4.9v23.3h-4.9v-4c-1.8,2.9-4.9,4.6-8.3,4.5-6.1,0-11.3-5.1-11.3-12.3s5-12.2,11.5-12.2c3.4,0,6.6,1.5,8.1,4.1v-3.4Zm0,11.6c0-4.2-3.3-7.6-7.5-7.6-4.2,.3-7.4,4-7.1,8.2,.3,3.9,3.4,6.9,7.2,7.2,4.1-.2,7.4-3.6,7.4-7.8h0Z"/>
  <path class="cls-2" d="M907.3,284.4c0,7.5-5.2,12.2-11.6,12.2-3.3,0-6.6-1.4-8.1-4v14.8h-4.9v-34.7h4.9v3.5c1.5-2.6,5-4.1,8.1-4.1,6.3,0,11.6,4.9,11.6,12.3Zm-5,0c0-4.4-3.2-7.8-7.3-7.8-4.2,.2-7.6,3.7-7.4,8,.1,4,3.4,7.3,7.4,7.4,4,0,7.3-3.2,7.3-7.2v-.4h0Z"/>
  <path class="cls-2" d="M924.5,272.7v4.1h-5v19.2h-5v-19.2h-4.2v-4.1h4.2v-8.8h5v8.8h5Z"/>
  <path class="cls-2" d="M945.7,272.7h4.9v23.3h-4.9v-3.5c-1.3,2.9-5.1,4.1-7.5,4.1-5.9,0-9.5-4-9.4-10.6v-13.3h4.9v13.2c0,3.9,2.3,6.1,5.3,6.1s6.8-1.8,6.8-6.6l-.1-12.7h0Z"/>
  <path class="cls-2" d="M973.4,272.9l-.8,4.6c-1.1-.5-2.3-.8-3.5-.8-4.2,0-6.2,4.5-6.2,10.9v8.4h-5v-23.3h5v5.2c1.2-4.1,3.5-5.9,6.5-5.9,1.4,0,2.8,.3,4,.9Z"/>
  <path class="cls-2" d="M999,286.3h-18.6c.7,3.8,3.5,5.8,7.2,5.8,2.6,.1,5.1-1.2,6.6-3.4l3.9,2c-2.2,3.8-6.3,6.2-10.7,6-6.8,0-12-5-12-12.4-.3-6.5,4.8-11.9,11.2-12.2h.8c6.7,0,11.7,4.8,11.7,12.1,0,.7,0,1.4-.1,2.1Zm-4.8-3.9c-.3-3.4-3.3-6-6.8-5.8-3.6,0-6.3,1.9-7,5.8h13.8Z"/>
  <path class="cls-2" d="M807.2,346.1h5.1c.1,3,2.8,5.8,7.2,5.8,4.1,0,6.5-2.6,6.5-5.5s-2.8-4.5-5.5-5.2l-4.4-1.1c-7.3-1.9-8.5-6.2-8.5-9,0-6,5.3-10.1,11.5-10.1s11,3.9,11,10.2h-5.1c0-3.2-2.5-5.5-6.1-5.5-3.2,0-6.2,2.1-6.2,5.3,0,1.1,.3,3.4,4.7,4.5l4.3,1.2c5.8,1.5,9.5,4.5,9.5,9.5,0,5.8-4.7,10.4-11.7,10.4-7.4,0-12.3-4.9-12.3-10.5Z"/>
  <path class="cls-2" d="M835.5,344.3c0-6.8,5.5-12.3,12.3-12.3s12.3,5.5,12.3,12.3-5.5,12.3-12.3,12.3h0c-6.6,.2-12.1-5-12.3-11.6v-.7Zm19.7,0c-.2-4.1-3.6-7.2-7.7-7.1-4.1,.2-7.2,3.6-7.1,7.7,.2,3.9,3.4,7,7.3,7.1,4.1,0,7.4-3.4,7.4-7.4,0-.1,0-.2,.1-.3h0Z"/>
  <path class="cls-2" d="M877.4,324.6c-4,0-5.2,2.4-5.1,5.4v2.8h5.3v4.1h-5.3v19.1h-4.9v-19.2h-4.5v-4.1h4.5v-2.2c0-6.4,2.8-10.5,9.1-10.5h2.6v4.6h-1.7Z"/>
  <path class="cls-2" d="M894.1,332.7v4.1h-5v19.2h-4.9v-19.2h-4.2v-4.1h4.2v-8.8h4.9v8.8h5Z"/>
  <path class="cls-2" d="M927.9,332.7h5.3l-8.5,23.3h-4.2l-6-16.8-5.9,16.8h-4.1l-8.8-23.4h5.3l5.6,16,5.5-16h4.6l5.6,16,5.6-15.9Z"/>
  <path class="cls-2" d="M955.2,332.7h4.9v23.3h-4.9v-4c-1.8,2.9-4.9,4.6-8.3,4.5-6.1,0-11.3-5.1-11.3-12.3s5-12.2,11.5-12.2c3.4,0,6.6,1.5,8.1,4.1v-3.4Zm0,11.6c0-4.2-3.3-7.6-7.5-7.6-4.2,.3-7.4,4-7.1,8.2,.3,3.9,3.4,6.9,7.2,7.2,4.1-.2,7.4-3.6,7.4-7.8Z"/>
  <path class="cls-2" d="M983,332.9l-.8,4.6c-1.1-.5-2.3-.8-3.5-.8-4.2,0-6.2,4.5-6.2,10.9v8.4h-5v-23.3h5v5.2c1.2-4.1,3.5-5.9,6.5-5.9,1.4,0,2.7,.3,4,.9Z"/>
  <path class="cls-2" d="M1008.6,346.3h-18.6c.7,3.8,3.5,5.8,7.2,5.8,2.6,.1,5.1-1.2,6.6-3.4l3.9,2c-2.2,3.8-6.3,6.2-10.7,6-6.8,0-12-5-12-12.4-.3-6.5,4.8-11.9,11.2-12.2h.8c6.6,0,11.7,4.8,11.7,12.1,0,.7-.1,1.4-.1,2.1Zm-4.8-3.9c-.3-3.4-3.3-6-6.8-5.8-3.6,0-6.3,1.9-7,5.8h13.8Z"/>
  <g id="Purple_Lines_Arrows" data-name="Purple Lines Arrows">
    <polygon class="cls-3" points="789 932.5 779 932.5 779 831 903 831 903 427.9 913 427.9 913 841 789 841 789 932.5"/>
    <rect class="cls-3" x="835.2" y="1051.2" width="226.6" height="10"/>
    <polygon class="cls-4" points="966.3 1056.2 940.3 1082.2 940.3 1030.1 966.3 1056.2"/>
    <polygon class="cls-4" points="908.1 688.3 934.2 714.3 882.1 714.3 908.1 688.3"/>
    <polygon class="cls-4" points="907.7 526 933.7 552 881.7 552 907.7 526"/>
  </g>
  <g id="Blue_Lines_Arrows" data-name="Blue Lines Arrows">
    <polygon class="cls-1" points="620.6 932.5 610.6 932.5 610.6 841 486.6 841 486.6 427.9 496.6 427.9 496.6 831 620.6 831 620.6 932.5"/>
    <rect class="cls-1" x="337.9" y="1051.2" width="224.9" height="10"/>
    <polygon class="cls-5" points="459.4 1056.2 433.3 1030.1 433.3 1082.2 459.4 1056.2"/>
    <polygon class="cls-5" points="491.2 552 517.2 526 465.2 526 491.2 552"/>
    <polygon class="cls-5" points="491.2 714.3 517.2 688.3 465.2 688.3 491.2 714.3"/>
  </g>
  <path class="cls-2" d="M844.4,1171.9h-289.8v-230.5c0-9,7.3-16.2,16.2-16.2h257.4c9,0,16.2,7.3,16.2,16.2v230.5h0Zm-280.1-9.8h270.3v-220.7c0-3.6-2.9-6.5-6.5-6.5h-257.3c-3.6,0-6.5,2.9-6.5,6.5v220.7Z"/>
  <path class="cls-2" d="M607.5,1036.7c-7.9,0-14.3-6.4-14.3-14.3s6.4-14.3,14.3-14.3,14.3,6.4,14.3,14.3h0c0,7.9-6.4,14.3-14.3,14.3Zm0-25.6c-6.2,0-11.3,5.1-11.3,11.3s5.1,11.3,11.3,11.3,11.3-5.1,11.3-11.3h0c0-6.2-5.1-11.3-11.3-11.3Z"/>
  <path class="cls-2" d="M685.5,1036.7c-7.9,0-14.3-6.4-14.3-14.3s6.4-14.3,14.3-14.3,14.3,6.4,14.3,14.3h0c0,7.9-6.4,14.3-14.3,14.3Zm0-25.6c-6.2,0-11.3,5.1-11.3,11.3s5.1,11.3,11.3,11.3,11.3-5.1,11.3-11.3h0c0-6.2-5.1-11.3-11.3-11.3Z"/>
  <path class="cls-2" d="M607.5,1104.5c-7.9,0-14.3-6.4-14.3-14.3s6.4-14.3,14.3-14.3,14.3,6.4,14.3,14.3-6.4,14.3-14.3,14.3Zm0-25.6c-6.2,0-11.3,5.1-11.3,11.3s5.1,11.3,11.3,11.3,11.3-5.1,11.3-11.3-5.1-11.2-11.3-11.3h0Z"/>
  <path class="cls-2" d="M770.6,1087.6c-17.6,0-31.8-14.3-31.8-31.9s14.3-31.8,31.9-31.8,31.8,14.3,31.8,31.8-14.3,31.9-31.9,31.9Zm0-60.6c-15.9,0-28.8,12.9-28.8,28.9s12.9,28.8,28.9,28.8,28.8-12.9,28.8-28.8-12.9-28.9-28.9-28.9h0Z"/>
  <path class="cls-2" d="M770.6,1095.1c-21.7,0-39.3-17.6-39.3-39.3s17.6-39.3,39.3-39.3,39.3,17.6,39.3,39.3c0,21.7-17.6,39.2-39.3,39.3Zm0-75.6c-20,0-36.3,16.2-36.3,36.3s16.2,36.3,36.3,36.3,36.3-16.2,36.3-36.3c0-20-16.2-36.3-36.3-36.3Z"/>
  <g id="Artwork_5" data-name="Artwork 5">
    <g>
      <rect class="cls-2" x="589.5" y="971.3" width="61.9" height="8.5"/>
      <g class="cls-9">
        <g>
          <rect class="cls-2" x="589.5" y="971.3" width="61.9" height="8.5"/>
          <g class="cls-7">
            <g>
              <path class="cls-2" d="M612.3,971.4h-2.9v8.3h2.9c2.3,.1,4.2-1.6,4.3-3.9s-1.6-4.2-3.9-4.3c-.2-.1-.3-.1-.4-.1m0,7.1h-1.8v-6h1.7c1.6-.1,3,1.1,3.1,2.7v.3c0,1.6-1.3,3-3,3,.1,0,0,0,0,0"/>
              <path class="cls-2" d="M605.6,976.2c.1,1.3-.8,2.4-2.1,2.5s-2.4-.8-2.5-2.1v-5.2h-1.2v4.8c-.1,1.9,1.3,3.6,3.2,3.8s3.6-1.3,3.8-3.2v-5.3h-1.2v4.7Z"/>
              <polygon class="cls-2" points="644.1 971.4 644.1 972.6 647.1 972.6 647.1 979.7 648.3 979.7 648.3 972.6 651.4 972.6 651.4 971.4 644.1 971.4"/>
              <polygon class="cls-2" points="640.1 977 633.9 971.3 633.9 979.7 635 979.7 635 974.1 641.3 979.8 641.3 971.4 640.1 971.4 640.1 977"/>
              <polygon class="cls-2" points="624.2 979.7 630.6 979.7 630.6 978.5 625.4 978.5 625.4 976.1 630.2 976.1 630.2 975 625.4 975 625.4 972.6 630.6 972.6 630.6 971.4 624.2 971.4 624.2 979.7"/>
              <path class="cls-2" d="M589.5,979.7h1.2l.1-.2c.4-.7,1.1-1.2,1.9-1.4,.4-.1,.7-.1,1.1-.1s.7,0,1.1,.1c.8,.2,1.5,.7,1.9,1.4l.1,.2h1.2l-4.3-8.4-4.3,8.4Zm6-2.5c-.6-.2-1.2-.3-1.8-.3s-1.2,.1-1.8,.3l1.8-3.5,1.8,3.5Z"/>
              <rect class="cls-2" x="619.6" y="971.4" width="1.2" height="8.3"/>
            </g>
          </g>
        </g>
      </g>
    </g>
  </g>
  <g id="Artwork_9" data-name="Artwork 9">
    <g>
      <rect class="cls-2" x="759" y="985.3" width="24.3" height="11.7"/>
      <g class="cls-8">
        <g>
          <rect class="cls-2" x="759" y="985.3" width="24.3" height="11.7"/>
          <g class="cls-6">
            <g>
              <path class="cls-2" d="M759,986.3c0-.6,.4-1,1-1s1,.4,1,1-.4,1-1,1-1-.4-1-1m.3,2.3h1.4v8.3h-1.4v-8.3Z"/>
              <path class="cls-2" d="M762.5,996.9v-11.5h3.9c1.3-.1,2.6,.2,3.7,.7,.9,.5,1.7,1.2,2.2,2.1s.8,1.9,.8,3c0,.8-.2,1.5-.5,2.2s-.7,1.3-1.3,1.9-1.3,1-2,1.2c-.4,.2-.8,.3-1.2,.3-.7,.1-1.4,.1-2.1,.1h-3.5Zm3.7-10.1h-2.1v8.6h2.1c.6,0,1.3,0,1.9-.2,.4-.1,.8-.2,1.2-.4,.3-.2,.6-.4,.8-.6,.8-.8,1.3-2,1.2-3.1,0-1.1-.4-2.2-1.2-3-.3-.3-.7-.5-1.1-.7-.4-.2-.7-.3-1.1-.4-.5-.1-1.1-.2-1.7-.2"/>
              <path class="cls-2" d="M783.2,994h-1.3v3h-1.4v-3h-5.5l-.3-.9,6.4-7.8h.8v7.4h1.3v1.3Zm-2.7-1.3v-4.6l-3.8,4.6h3.8Z"/>
            </g>
          </g>
        </g>
      </g>
    </g>
  </g>
  <path class="cls-2" d="M818.8,1134.8h-238.7c-5.9,0-10.8-4.8-10.8-10.8h0v-173.2c0-5.9,4.8-10.8,10.8-10.8h238.7c5.9,0,10.8,4.8,10.8,10.8h0v173.2c0,5.9-4.8,10.8-10.8,10.8h0Zm-238.7-191.8c-4.3,0-7.8,3.5-7.8,7.8v173.2c0,4.3,3.5,7.8,7.8,7.8h238.7c4.3,0,7.8-3.5,7.8-7.8v-173.2c0-4.3-3.5-7.8-7.8-7.8h-238.7Z"/>
  <circle class="cls-2" cx="669.8" cy="1099.2" r="9"/>
  <circle class="cls-2" cx="701.1" cy="1099.2" r="9"/>
  <circle class="cls-2" cx="734.8" cy="970.1" r="2.1"/>
  <circle class="cls-2" cx="750.5" cy="964.6" r="2.1"/>
  <circle class="cls-2" cx="766.2" cy="960.8" r="2.1"/>
  <circle class="cls-2" cx="782" cy="959.7" r="2.1"/>
  <circle class="cls-2" cx="797.8" cy="962.9" r="2.1"/>
  <circle class="cls-2" cx="739" cy="982.6" r="2.1"/>
  <circle class="cls-2" cx="754.7" cy="977" r="2.1"/>
  <circle class="cls-2" cx="770.4" cy="973.2" r="2.1"/>
  <circle class="cls-2" cx="786.2" cy="972.2" r="2.1"/>
  <circle class="cls-2" cx="802" cy="975.4" r="2.1"/>
  <circle class="cls-2" cx="695.9" cy="976.4" r="2.1"/>
  <circle class="cls-2" cx="675.5" cy="976.4" r="2.1"/>
  <path class="cls-2" d="M685.5,996.3h0c.8,0,1.4,.6,1.4,1.4v3.6c0,.8-.6,1.4-1.4,1.4h0c-.8,0-1.4-.6-1.4-1.4v-3.6c0-.8,.6-1.4,1.4-1.4Z"/>
  <path class="cls-2" d="M698.5,999.9h0c.7,.4,.9,1.2,.5,1.9l-1.8,3.2c-.4,.7-1.2,.9-1.9,.5h0c-.7-.4-.9-1.2-.5-1.9l1.8-3.2c.4-.7,1.2-.9,1.9-.5Z"/>
  <path class="cls-2" d="M675.6,1005.4h0c-.7,.4-1.5,.2-1.9-.5l-1.8-3.2c-.4-.7-.2-1.5,.5-1.9h0c.7-.4,1.5-.2,1.9,.5l1.8,3.2c.3,.7,.1,1.5-.5,1.9Z"/>
  <path class="cls-2" d="M668.3,1012.6h0c-.4,.6-1.2,.8-1.9,.4l-3.1-1.9c-.6-.4-.8-1.2-.4-1.9h0c.4-.6,1.2-.8,1.9-.4l3.1,1.9c.6,.4,.8,1.2,.4,1.9Z"/>
  <path class="cls-2" d="M708,1009.4h0c.4,.6,.2,1.5-.4,1.9l-3.1,1.9c-.6,.4-1.5,.2-1.9-.4h0c-.4-.6-.2-1.5,.4-1.9l3.1-1.9c.7-.4,1.5-.3,1.9,.4Z"/>
  <path class="cls-2" d="M705.6,1022.4h0c0-.8,.6-1.4,1.4-1.4h3.6c.8,0,1.4,.6,1.4,1.4h0c0,.8-.6,1.4-1.4,1.4h-3.6c-.8,0-1.4-.6-1.4-1.4Z"/>
  <path class="cls-2" d="M672.7,1045.1h0c-.7-.4-.9-1.2-.5-1.9l1.8-3.2c.4-.7,1.2-.9,1.9-.5h0c.7,.4,.9,1.2,.5,1.9l-1.8,3.2c-.4,.6-1.2,.8-1.9,.5Z"/>
  <path class="cls-2" d="M695.7,1039.6h0c.7-.4,1.5-.2,1.9,.5l1.8,3.2c.4,.7,.2,1.5-.5,1.9h0c-.7,.4-1.5,.2-1.9-.5l-1.8-3.2c-.4-.7-.2-1.6,.5-1.9Z"/>
  <path class="cls-2" d="M702.9,1032.4h0c.4-.6,1.2-.8,1.9-.4l3.1,1.9c.6,.4,.8,1.2,.4,1.9h0c-.4,.6-1.2,.8-1.9,.4l-3.1-1.9c-.6-.4-.8-1.3-.4-1.9Z"/>
  <path class="cls-2" d="M663.2,1035.6h0c-.4-.6-.2-1.5,.4-1.9l3.1-1.9c.6-.4,1.5-.2,1.9,.4h0c.4,.6,.2,1.5-.4,1.9l-3.1,1.9c-.6,.4-1.5,.2-1.9-.4Z"/>
  <path class="cls-2" d="M659.2,1022.4h0c0-.8,.6-1.4,1.4-1.4h3.6c.8,0,1.4,.6,1.4,1.4h0c0,.8-.6,1.4-1.4,1.4h-3.6c-.8,0-1.4-.6-1.4-1.4Z"/>
  <path class="cls-2" d="M608.4,996.6h0c.8,0,1.4,.6,1.4,1.4v3.6c0,.8-.6,1.4-1.4,1.4h0c-.8,0-1.4-.6-1.4-1.4v-3.6c0-.8,.6-1.4,1.4-1.4Z"/>
  <path class="cls-2" d="M621.4,1000.2h0c.7,.4,.9,1.2,.5,1.9l-1.8,3.2c-.4,.7-1.2,.9-1.9,.5h0c-.7-.4-.9-1.2-.5-1.9l1.8-3.2c.4-.7,1.3-.9,1.9-.5Z"/>
  <path class="cls-2" d="M598.5,1005.7h0c-.7,.4-1.5,.2-1.9-.5l-1.8-3.2c-.4-.7-.2-1.5,.5-1.9h0c.7-.4,1.5-.2,1.9,.5l1.8,3.2c.4,.7,.1,1.5-.5,1.9Z"/>
  <path class="cls-2" d="M591.2,1012.8h0c-.4,.6-1.2,.8-1.9,.4l-3.1-1.9c-.6-.4-.8-1.2-.4-1.9h0c.4-.6,1.2-.8,1.9-.4l3.1,1.9c.6,.5,.8,1.3,.4,1.9Z"/>
  <path class="cls-2" d="M630.9,1009.6h0c.4,.6,.2,1.5-.4,1.9l-3.1,1.9c-.6,.4-1.5,.2-1.9-.4h0c-.4-.6-.2-1.5,.4-1.9l3.1-1.9c.7-.4,1.5-.2,1.9,.4Z"/>
  <path class="cls-2" d="M628.6,1022.7h0c0-.8,.6-1.4,1.4-1.4h3.6c.8,0,1.4,.6,1.4,1.4h0c0,.8-.6,1.4-1.4,1.4h-3.6c-.8-.1-1.4-.7-1.4-1.4Z"/>
  <path class="cls-2" d="M595.7,1045.3h0c-.7-.4-.9-1.2-.5-1.9l1.8-3.2c.4-.7,1.2-.9,1.9-.5h0c.7,.4,.9,1.2,.5,1.9l-1.8,3.2c-.4,.7-1.3,.9-1.9,.5Z"/>
  <path class="cls-2" d="M618.6,1039.8h0c.7-.4,1.5-.2,1.9,.5l1.8,3.2c.4,.7,.2,1.5-.5,1.9h0c-.7,.4-1.5,.2-1.9-.5l-1.8-3.2c-.4-.7-.2-1.5,.5-1.9Z"/>
  <path class="cls-2" d="M625.9,1032.7h0c.4-.6,1.2-.8,1.9-.4l3.1,1.9c.6,.4,.8,1.2,.4,1.9h0c-.4,.6-1.2,.8-1.9,.4l-3.1-1.9c-.6-.5-.8-1.3-.4-1.9Z"/>
  <path class="cls-2" d="M586.2,1035.9h0c-.4-.6-.2-1.5,.4-1.9l3.1-1.9c.6-.4,1.5-.2,1.9,.4h0c.4,.6,.2,1.5-.4,1.9l-3.1,1.9c-.7,.4-1.5,.2-1.9-.4Z"/>
  <path class="cls-2" d="M582.2,1022.7h0c0-.8,.6-1.4,1.4-1.4h3.6c.8,0,1.4,.6,1.4,1.4h0c0,.8-.6,1.4-1.4,1.4h-3.7c-.7-.1-1.3-.7-1.3-1.4Z"/>
  <path class="cls-2" d="M608.2,1063.3h0c.8,0,1.4,.6,1.4,1.4v3.6c0,.8-.6,1.4-1.4,1.4h0c-.8,0-1.4-.6-1.4-1.4v-3.6c.1-.7,.7-1.4,1.4-1.4Z"/>
  <path class="cls-2" d="M621.3,1067h0c.7,.4,.9,1.2,.5,1.9l-1.8,3.2c-.4,.7-1.2,.9-1.9,.5h0c-.7-.4-.9-1.2-.5-1.9l1.8-3.2c.4-.7,1.2-.9,1.9-.5Z"/>
  <path class="cls-2" d="M598.3,1072.5h0c-.7,.4-1.5,.2-1.9-.5l-1.8-3.2c-.4-.7-.2-1.5,.5-1.9h0c.7-.4,1.5-.2,1.9,.5l1.8,3.2c.4,.6,.2,1.5-.5,1.9Z"/>
  <path class="cls-2" d="M591.1,1079.6h0c-.4,.6-1.2,.8-1.9,.4l-3.1-1.9c-.6-.4-.8-1.2-.4-1.9h0c.4-.6,1.2-.8,1.9-.4l3.1,1.9c.6,.4,.8,1.3,.4,1.9Z"/>
  <path class="cls-2" d="M630.8,1076.4h0c.4,.6,.2,1.5-.4,1.9l-3.1,1.9c-.6,.4-1.5,.2-1.9-.4h0c-.4-.6-.2-1.5,.4-1.9l3.1-1.9c.6-.4,1.5-.2,1.9,.4Z"/>
  <path class="cls-2" d="M628.4,1089.5h0c0-.8,.6-1.4,1.4-1.4h3.6c.8,0,1.4,.6,1.4,1.4h0c0,.8-.6,1.4-1.4,1.4h-3.6c-.8-.1-1.4-.7-1.4-1.4Z"/>
  <path class="cls-2" d="M595.5,1112.1h0c-.7-.4-.9-1.2-.5-1.9l1.8-3.2c.4-.7,1.2-.9,1.9-.5h0c.7,.4,.9,1.2,.5,1.9l-1.8,3.2c-.4,.7-1.2,.9-1.9,.5Z"/>
  <path class="cls-2" d="M618.4,1106.6h0c.7-.4,1.5-.2,1.9,.5l1.8,3.2c.4,.7,.2,1.5-.5,1.9h0c-.7,.4-1.5,.2-1.9-.5l-1.8-3.2c-.3-.7-.1-1.5,.5-1.9Z"/>
  <path class="cls-2" d="M625.7,1099.4h0c.4-.6,1.2-.8,1.9-.4l3.1,1.9c.6,.4,.8,1.2,.4,1.9h0c-.4,.6-1.2,.8-1.9,.4l-3.1-1.9c-.6-.4-.8-1.2-.4-1.9Z"/>
  <path class="cls-2" d="M586,1102.6h0c-.4-.6-.2-1.5,.4-1.9l3.1-1.9c.6-.4,1.5-.2,1.9,.4h0c.4,.6,.2,1.5-.4,1.9l-3.1,1.9c-.7,.5-1.5,.3-1.9-.4Z"/>
  <path class="cls-2" d="M582,1089.4h0c0-.8,.6-1.4,1.4-1.4h3.6c.8,0,1.4,.6,1.4,1.4h0c0,.8-.6,1.4-1.4,1.4h-3.6c-.8,0-1.4-.6-1.4-1.4Z"/>
  <path class="cls-2" d="M770.6,1006h0c.8,0,1.4,.6,1.4,1.4v3.6c0,.8-.6,1.4-1.4,1.4h0c-.8,0-1.4-.6-1.4-1.4v-3.6c.1-.8,.7-1.4,1.4-1.4Z"/>
  <path class="cls-2" d="M789.7,1010h0c.7,.4,.9,1.2,.5,1.9l-1.8,3.2c-.4,.7-1.2,.9-1.9,.5h0c-.7-.4-.9-1.2-.5-1.9l1.8-3.2c.5-.6,1.3-.9,1.9-.5Z"/>
  <path class="cls-2" d="M752.9,1015.9h0c-.7,.2-1.5-.2-1.7-1l-.9-3.5c-.2-.7,.2-1.5,1-1.7h0c.7-.2,1.5,.2,1.7,1l.9,3.5c.2,.7-.2,1.5-1,1.7Z"/>
  <path class="cls-2" d="M729.8,1039.2h0c-.3,.7-1.1,1.1-1.8,.8l-3.4-1.3c-.7-.3-1.1-1.1-.8-1.8h0c.3-.7,1.1-1.1,1.8-.8l3.4,1.3c.8,.3,1.1,1.1,.8,1.8Z"/>
  <path class="cls-2" d="M806.1,1020.6h0c.5,.5,.5,1.4,0,1.9l-2.6,2.6c-.5,.5-1.4,.5-1.9,0h0c-.5-.5-.5-1.4,0-1.9l2.6-2.6c.5-.6,1.4-.6,1.9,0Z"/>
  <path class="cls-2" d="M814.3,1056.1h0c0-.8,.6-1.4,1.4-1.4h3.6c.8,0,1.4,.6,1.4,1.4h0c0,.8-.6,1.4-1.4,1.4h-3.6c-.8,0-1.4-.6-1.4-1.4Z"/>
  <path class="cls-2" d="M720.5,1056.1h0c0-.8,.6-1.4,1.4-1.4h3.6c.8,0,1.4,.6,1.4,1.4h0c0,.8-.6,1.4-1.4,1.4h-3.6c-.8,0-1.4-.6-1.4-1.4Z"/>
  <path class="cls-2" d="M739.6,1025.1h0c-.5,.5-1.4,.5-1.9,0l-2.6-2.6c-.5-.5-.5-1.4,0-1.9h0c.5-.5,1.4-.5,1.9,0l2.6,2.6c.5,.5,.5,1.3,0,1.9Z"/>
  <path class="cls-2" d="M816.8,1036.9h0c.3,.7-.1,1.5-.8,1.8l-3.4,1.3c-.7,.3-1.5-.1-1.8-.8h0c-.3-.7,.1-1.5,.8-1.8l3.4-1.3c.8-.3,1.6,.1,1.8,.8Z"/>
  <path class="cls-2" d="M769.9,1105.7h0c-.8,0-1.4-.6-1.4-1.4v-3.6c0-.8,.6-1.4,1.4-1.4h0c.8,0,1.4,.6,1.4,1.4v3.6c-.1,.8-.7,1.4-1.4,1.4Z"/>
  <path class="cls-2" d="M750.7,1101.7h0c-.7-.4-.9-1.2-.5-1.9l1.8-3.2c.4-.7,1.2-.9,1.9-.5h0c.7,.4,.9,1.2,.5,1.9l-1.8,3.2c-.4,.6-1.2,.9-1.9,.5Z"/>
  <path class="cls-2" d="M787.6,1095.8h0c.7-.2,1.5,.2,1.7,1l.9,3.5c.2,.7-.2,1.5-1,1.7h0c-.7,.2-1.5-.2-1.7-1l-.9-3.5c-.2-.7,.2-1.5,1-1.7Z"/>
  <path class="cls-2" d="M810.7,1072.5h0c.3-.7,1.1-1.1,1.8-.8l3.4,1.3c.7,.3,1.1,1.1,.8,1.8h0c-.3,.7-1.1,1.1-1.8,.8l-3.4-1.3c-.8-.3-1.1-1.1-.8-1.8Z"/>
  <path class="cls-2" d="M734.4,1091.1h0c-.5-.5-.5-1.4,0-1.9l2.6-2.6c.5-.5,1.4-.5,1.9,0h0c.5,.5,.5,1.4,0,1.9l-2.6,2.6c-.5,.6-1.4,.6-1.9,0Z"/>
  <path class="cls-2" d="M800.9,1086.7h0c.5-.5,1.4-.5,1.9,0l2.6,2.6c.5,.5,.5,1.4,0,1.9h0c-.5,.5-1.4,.5-1.9,0l-2.6-2.6c-.5-.6-.5-1.4,0-1.9Z"/>
  <path class="cls-2" d="M723.6,1074.8h0c-.3-.7,.1-1.5,.8-1.8l3.4-1.3c.7-.3,1.5,.1,1.8,.8h0c.3,.7-.1,1.5-.8,1.8l-3.4,1.3c-.7,.3-1.5-.1-1.8-.8Z"/>
  <path class="cls-2" d="M640.3,434.3H343.4c-8.6,0-15.5-6.9-15.5-15.5V204.5c0-8.6,6.9-15.5,15.5-15.5h296.9c8.6,0,15.5,6.9,15.5,15.5v214.4c0,8.5-6.9,15.4-15.5,15.4ZM343.4,198.9c-3,0-5.5,2.5-5.5,5.5h0v214.4c0,3,2.5,5.5,5.5,5.5h296.9c3,0,5.5-2.5,5.5-5.5V204.5c0-3-2.5-5.5-5.5-5.5H343.4v-.1Z"/>
  <path class="cls-2" d="M1056.6,434.3h-296.9c-8.6,0-15.5-6.9-15.5-15.5V204.5c0-8.6,6.9-15.5,15.5-15.5h296.9c8.6,0,15.5,6.9,15.5,15.5v214.4c0,8.5-6.9,15.4-15.5,15.4Zm-296.9-235.4c-3,0-5.5,2.5-5.5,5.5h0v214.4c0,3,2.5,5.5,5.5,5.5h296.9c3,0,5.5-2.5,5.5-5.5V204.5c0-3-2.5-5.5-5.5-5.5h-296.9v-.1Z"/>
</svg>