<?xml version="1.0" encoding="UTF-8"?>
<svg xmlns="http://www.w3.org/2000/svg" width="910" height="280" viewBox="0 0 910 280">
  <defs>
    <style>
      .cls-1 {
        fill: #dbf0e9;
      }

      .cls-2 {
        fill: #43b489;
      }
    </style>
  </defs>
  <g id="text">
    <g>
      <path class="cls-2" d="M11.84,232.25H5.28l-.18,3.72h.04c.73-.37,1.53-.55,2.4-.55,1.58,0,2.81,.43,3.69,1.3,.87,.87,1.31,2.09,1.31,3.67,0,3.77-2.15,5.65-6.45,5.65-1.57,0-3.04-.32-4.4-.95l.66-2.49c1.32,.63,2.54,.95,3.65,.95,2.33,0,3.5-1.06,3.5-3.17,0-1.75-.84-2.62-2.53-2.62-.88,0-1.64,.3-2.29,.9H2.05l.44-8.91H11.84v2.49Z"/>
      <path class="cls-2" d="M16.41,230.66c1-.74,2.38-1.11,4.16-1.11s3.16,.37,4.16,1.11c1,.74,1.5,1.71,1.5,2.92,0,1.54-.92,2.73-2.75,3.56v.04c2.17,.82,3.26,2.24,3.26,4.25,0,1.41-.54,2.53-1.63,3.37s-2.6,1.25-4.53,1.25-3.45-.42-4.53-1.25-1.63-1.96-1.63-3.37c0-.82,.27-1.57,.8-2.25,.54-.68,1.33-1.24,2.39-1.68v-.04c-.85-.43-1.51-.98-1.98-1.65-.47-.67-.7-1.42-.7-2.22,0-1.2,.5-2.17,1.5-2.92Zm3.92,7.82c-1.98,.6-2.97,1.53-2.97,2.79,0,.76,.29,1.38,.88,1.84,.59,.46,1.36,.69,2.33,.69s1.73-.23,2.3-.69,.85-1.07,.85-1.84c0-.67-.25-1.23-.74-1.66-.49-.43-1.38-.81-2.65-1.13Zm.31-2.2c1.79-.53,2.68-1.33,2.68-2.4,0-.63-.24-1.14-.73-1.52s-1.16-.57-2.02-.57-1.51,.19-1.99,.57-.71,.89-.71,1.52c0,1.1,.92,1.9,2.77,2.4Z"/>
      <path class="cls-2" d="M39.17,229.33v16.5h-2.66l-.07-1.61h-.04c-.87,1.22-2.03,1.83-3.5,1.83-1.36,0-2.47-.52-3.31-1.55-.84-1.03-1.27-2.5-1.27-4.39s.41-3.41,1.22-4.42c.81-1.01,1.93-1.52,3.35-1.52s2.5,.56,3.37,1.69h.04v-6.53h2.86Zm-8.1,10.78c0,1.19,.25,2.1,.74,2.74,.49,.64,1.12,.96,1.9,.96s1.4-.31,1.88-.93c.48-.62,.72-1.51,.72-2.65v-.22c0-1.11-.24-1.99-.72-2.63s-1.1-.96-1.88-.96c-.84,0-1.48,.31-1.95,.92-.46,.62-.69,1.54-.69,2.77Z"/>
      <path class="cls-2" d="M53.31,241.1c0,1.61-.55,2.81-1.65,3.58-1.1,.77-2.88,1.16-5.32,1.16h-4.18v-16.06h3.96c2.33,0,4.01,.32,5.05,.97,1.03,.65,1.55,1.63,1.55,2.95,0,.88-.3,1.63-.89,2.27-.59,.63-1.4,1.04-2.41,1.23v.04c1.22,.18,2.17,.61,2.86,1.3s1.03,1.55,1.03,2.57Zm-8.12-4.86h.81c1.38,0,2.37-.18,2.97-.53,.6-.35,.9-.88,.9-1.58s-.24-1.19-.71-1.5c-.48-.31-1.29-.46-2.45-.46h-1.52v4.07Zm0,2.29v4.91h1.65c1.23,0,2.13-.21,2.68-.63,.56-.42,.84-1.08,.84-1.99,0-.79-.32-1.37-.96-1.74-.64-.37-1.72-.55-3.24-.55h-.97Z"/>
      <path class="cls-2" d="M61.01,227.98l2.86,.55c-.34,1.01-.59,1.75-.77,2.2,1.97-.07,4.57-.23,7.81-.46l.09,2.42c-2.96,.23-5.93,.4-8.91,.48-.22,.5-.54,1.14-.97,1.94l.02,.02c.84-.45,1.67-.68,2.51-.68,.91,0,1.66,.17,2.24,.52,.59,.34,1.05,.92,1.39,1.73,1.58-.45,3.23-.81,4.95-1.06l.31,2.44c-1.64,.25-3.2,.6-4.66,1.06,.12,.98,.18,2.09,.18,3.32h-2.86c0-.89-.02-1.66-.07-2.29-1,.47-1.77,.95-2.32,1.45-.55,.5-.83,.95-.83,1.34,0,.51,.29,.9,.87,1.14,.58,.25,1.58,.37,3,.37s3.16-.17,5.35-.51l.24,2.51c-1.83,.29-3.7,.44-5.59,.44-4.63,0-6.95-1.25-6.95-3.74,0-.97,.49-1.94,1.47-2.92,.98-.98,2.39-1.85,4.22-2.63-.32-.66-.88-.99-1.67-.99-.69,0-1.52,.36-2.49,1.07-.97,.71-1.95,1.74-2.95,3.09l-2.24-1.34c1.66-2.3,2.93-4.37,3.81-6.2-.82,.01-2.08,.02-3.76,.02v-2.42c2.16,0,3.75-.01,4.8-.04,.22-.57,.53-1.52,.92-2.84Z"/>
      <path class="cls-2" d="M74.74,234.1v-2.33h7.04v2.33h-7.04Zm.44-3.23v-2.18h6.38v2.18h-6.38Zm2.35,16.06v.79h-2.35v-6.58h6.47v5.79h-4.11Zm-2.18-9.79v-2.09h6.18v2.09h-6.18Zm0,3.06v-2.09h6.18v2.09h-6.18Zm2.18,4.69h1.96v-1.67h-1.96v1.67Zm5.21-7.66l-1.14-2.33c1.36-.72,2.45-1.64,3.26-2.75,.03-.04,.1-.13,.2-.26,.1-.13,.18-.24,.22-.33h-2.93v-2.29h3.94c.19-.54,.33-1.02,.42-1.43l2.84,.09c-.13,.54-.25,.99-.35,1.34h5.68v2.29h-3.21c.84,1.47,2.02,2.58,3.56,3.34l-1.03,2.33c-1-.46-1.92-1.12-2.77-1.98v.95h-5.85v-1.03c-.84,.81-1.77,1.5-2.82,2.07Zm-.53,2.49v-2.27h12.65v2.27h-8.34c-.09,.56-.16,.98-.22,1.25h7.72c-.03,.54-.1,1.39-.22,2.55-.06,.63-.16,1.22-.31,1.78-.12,.44-.26,.84-.42,1.19-.12,.26-.31,.48-.57,.66-.26,.18-.53,.29-.79,.33-.26,.04-.62,.07-1.08,.07-.89,0-2.08-.04-3.54-.13l-.15-2.38c1.28,.09,2.26,.13,2.95,.13,.22,0,.37-.04,.46-.13,.12-.12,.21-.29,.26-.53,.09-.34,.17-.81,.24-1.41h-5.02c-.22,.88-.46,1.74-.73,2.57l-2.71-.53c.51-1.66,.96-3.47,1.34-5.43h-1.54Zm8.12-5.72c-.6-.79-1.09-1.61-1.47-2.44h-.64c-.34,.66-.73,1.28-1.17,1.87-.04,.06-.12,.15-.22,.28s-.18,.22-.22,.3h3.72Z"/>
      <path class="cls-2" d="M99.61,229.7c3.97,0,8.05-.16,12.23-.48l.44,3.21c-.54,.38-1.15,.77-1.84,1.18s-1.5,.87-2.46,1.41c-.96,.54-1.66,.93-2.1,1.18v.04c.7-.18,1.42-.26,2.16-.26,1.82,0,3.25,.45,4.28,1.35s1.55,2.1,1.55,3.6c0,1.82-.75,3.27-2.24,4.37-1.5,1.09-3.56,1.64-6.18,1.64-1.76,0-3.13-.33-4.1-1-.98-.67-1.46-1.56-1.46-2.67,0-.89,.42-1.65,1.26-2.28,.84-.62,1.93-.94,3.25-.94,1.44,0,2.53,.28,3.28,.85,.75,.57,1.12,1.35,1.12,2.37,0,.25-.02,.51-.07,.77,1.48-.63,2.22-1.62,2.22-2.97,0-1.99-1.5-2.99-4.51-2.99-1.13,0-2.3,.19-3.51,.57-1.21,.38-2.83,1.09-4.85,2.11l-1.03-2.31c4.37-2.26,8.21-4.47,11.53-6.62l-.02-.02c-3.11,.37-6.09,.55-8.93,.55v-2.64Zm6.42,14.87c.12-.44,.18-.81,.18-1.1,0-.88-.61-1.32-1.83-1.32-.6,0-1.06,.1-1.39,.31-.32,.21-.48,.46-.48,.77,0,.89,1,1.34,2.99,1.34h.53Z"/>
      <path class="cls-2" d="M116.32,232.69v-2.55h17.51v2.55c-1.44,3.27-4.19,6.07-8.25,8.4,.73,1.06,1.6,2.38,2.6,3.96l-2.33,1.47c-2.02-3.23-4.16-6.18-6.4-8.87l2.2-1.67c.89,1.06,1.65,2,2.27,2.84,3.3-1.98,5.51-4.03,6.62-6.14h-14.21Z"/>
      <path class="cls-2" d="M135.08,237.69c2.98-.65,5.81-1.7,8.49-3.17s5.01-3.23,6.97-5.3l2.07,1.96c-1.7,1.82-3.78,3.47-6.23,4.95v10.36h-3.01v-8.76c-2.57,1.22-5.13,2.08-7.68,2.6l-.62-2.64Z"/>
      <path class="cls-2" d="M155.53,246.55l-.53-2.55c3.77-.41,6.57-1.43,8.4-3.06s2.93-4.03,3.3-7.22h-6.86c-.88,1.98-2.3,3.93-4.27,5.85l-1.94-1.72c2.61-2.7,4.17-5.74,4.66-9.13l2.79,.15c-.1,.97-.23,1.75-.4,2.35h8.98v2.49c-.45,3.96-1.79,6.95-3.99,8.96s-5.59,3.3-10.15,3.86Z"/>
      <path class="cls-2" d="M176.98,246.77l-.92-2.38c2.46-.76,4.21-1.86,5.22-3.3,1.02-1.44,1.54-3.55,1.55-6.34h-5.5c-.66,1.47-1.64,2.99-2.93,4.58l-2.16-1.47c1.11-1.39,1.98-2.81,2.58-4.25,.61-1.44,1.04-3.07,1.29-4.88l2.73,.15c-.15,1.29-.34,2.39-.59,3.3h12.78v2.57h-5.28c-.01,3.34-.72,5.97-2.12,7.89s-3.62,3.29-6.65,4.12Zm12.54-16.19l-2.07,.99c-.47-.97-1.03-2.03-1.67-3.19l2.07-1.03c.6,1.13,1.16,2.21,1.67,3.23Zm3.39-.26l-2.11,1.01c-.79-1.53-1.36-2.61-1.72-3.26l2.11-1.06c.67,1.23,1.25,2.33,1.72,3.3Z"/>
      <path class="cls-2" d="M192.58,237.69c2.98-.65,5.81-1.7,8.49-3.17s5.01-3.23,6.97-5.3l2.07,1.96c-1.7,1.82-3.78,3.47-6.23,4.95v10.36h-3.01v-8.76c-2.57,1.22-5.13,2.08-7.68,2.6l-.62-2.64Z"/>
      <path class="cls-2" d="M213.33,231.94l1.5-2.31c2.16,1.23,4.22,2.55,6.2,3.96l-1.58,2.31c-2.02-1.44-4.06-2.76-6.12-3.96Zm.4,11.46c4.02-.4,7.14-1.52,9.37-3.37,2.23-1.85,3.78-4.59,4.64-8.23l2.71,.75c-.88,4.15-2.67,7.34-5.36,9.58-2.69,2.24-6.35,3.56-10.99,3.97l-.37-2.71Z"/>
      <path class="cls-2" d="M2.83,261.71H15.07v12.11h-1.39v-1.08H2.83v-1.22H13.68v-8.59H2.83v-1.22Z"/>
      <path class="cls-2" d="M18.62,262.02l.74-1.1c1.64,.97,3.25,2.05,4.82,3.24l-.77,1.1c-1.57-1.18-3.17-2.26-4.79-3.24Zm.2,10.55c3.28-.3,5.92-1.3,7.93-3,2.01-1.7,3.32-4.02,3.93-6.98l1.3,.32c-.64,3.22-2.06,5.77-4.28,7.65-2.22,1.88-5.12,2.98-8.69,3.29l-.18-1.3Z"/>
      <path class="cls-2" d="M33.93,265.67h14.76v1.19h-6.03c-.04,2.17-.5,3.85-1.4,5.05s-2.37,2.09-4.41,2.69l-.41-1.19c1.74-.55,2.98-1.33,3.71-2.32,.73-1,1.1-2.41,1.12-4.23h-7.33v-1.19Zm2.16-3.37v-1.21h9.23v1.21h-9.23Zm9.16-2.93l.99-.52c.49,.8,1,1.7,1.51,2.68l-.99,.5c-.43-.83-.94-1.72-1.51-2.66Zm2.43-.29l1.01-.54c.48,.8,1,1.72,1.55,2.75l-1.01,.5c-.53-1-1.04-1.9-1.55-2.72Z"/>
      <path class="cls-2" d="M52.32,262.02l.74-1.1c1.64,.97,3.25,2.05,4.82,3.24l-.77,1.1c-1.57-1.18-3.17-2.26-4.79-3.24Zm.2,10.55c3.28-.3,5.92-1.3,7.93-3,2.01-1.7,3.32-4.02,3.93-6.98l1.3,.32c-.64,3.22-2.06,5.77-4.28,7.65-2.22,1.88-5.12,2.98-8.69,3.29l-.18-1.3Z"/>
      <path class="cls-2" d="M67.9,263.33h3.33v-3.24h1.33v3.24h5.99v-3.24h1.35v3.24h3.37v1.22h-3.37v.4c0,3.05-.58,5.25-1.75,6.62-1.16,1.36-3.22,2.25-6.16,2.67l-.25-1.19c1.8-.28,3.18-.7,4.14-1.28,.96-.58,1.64-1.39,2.05-2.45,.41-1.06,.61-2.51,.61-4.37v-.4h-5.99v4.05h-1.33v-4.05h-3.33v-1.22Z"/>
      <path class="cls-2" d="M84.68,268.03v-1.37h14.15v1.37h-14.15Z"/>
      <path class="cls-2" d="M100.05,262.52v-1.24h13.93v1.24c-.49,1.36-1.34,2.65-2.56,3.9s-2.72,2.36-4.52,3.34c.85,1.18,1.68,2.41,2.48,3.71l-1.1,.7c-1.69-2.71-3.52-5.19-5.49-7.43l1.03-.83c.73,.83,1.49,1.76,2.29,2.79,3.31-1.86,5.43-3.92,6.35-6.17h-12.42Z"/>
      <path class="cls-2" d="M114.9,267.8c2.46-.55,4.81-1.48,7.04-2.77s4.13-2.84,5.71-4.63l.99,.9c-1.44,1.63-3.15,3.08-5.13,4.34v8.64h-1.4v-7.81c-2.22,1.22-4.52,2.09-6.91,2.59l-.29-1.26Z"/>
      <path class="cls-2" d="M142.28,263.21c-.31,3.3-1.38,5.84-3.21,7.63s-4.52,2.89-8.05,3.29l-.23-1.24c3.17-.34,5.58-1.3,7.23-2.89,1.65-1.59,2.61-3.85,2.89-6.79h-6.57c-.71,1.86-1.88,3.55-3.51,5.08l-.92-.85c2.22-2.15,3.51-4.66,3.87-7.54l1.31,.09c-.07,.7-.2,1.37-.38,2.02h7.58v1.21Z"/>
      <path class="cls-2" d="M144.06,269.54c1.33-1.45,2.53-2.86,3.58-4.23,.79-1.03,1.35-1.68,1.68-1.94s.75-.4,1.25-.4c.47,0,.88,.12,1.22,.37,.35,.25,1.02,.87,2.02,1.88,2.28,2.32,4.45,4.37,6.5,6.17l-.94,1.08c-2.53-2.23-4.84-4.42-6.91-6.57-.58-.6-.98-.99-1.22-1.17s-.47-.27-.7-.27-.45,.1-.66,.29c-.21,.19-.57,.61-1.07,1.26-1.43,1.81-2.67,3.31-3.73,4.48l-1.03-.95Z"/>
      <path class="cls-2" d="M170.72,272.93c1.39-.25,2.51-.88,3.35-1.9s1.26-2.24,1.26-3.68-.47-2.55-1.42-3.44c-.95-.89-2.19-1.35-3.73-1.39-.46,3.52-1.12,6.16-2.01,7.93-.88,1.77-1.91,2.66-3.07,2.66-.78,0-1.5-.46-2.16-1.39-.66-.92-.99-2.04-.99-3.35,0-2.1,.74-3.81,2.22-5.12,1.48-1.31,3.42-1.97,5.82-1.97,1.97,0,3.58,.57,4.83,1.7s1.88,2.59,1.88,4.36-.51,3.26-1.54,4.5c-1.03,1.24-2.38,2-4.08,2.29l-.38-1.21Zm-1.93-10.33c-1.67,.22-3,.84-4,1.86-1,1.03-1.49,2.31-1.49,3.84,0,.98,.2,1.81,.6,2.47,.4,.66,.81,.99,1.23,.99,.2,0,.42-.08,.64-.25s.47-.47,.75-.91c.28-.44,.54-.99,.8-1.66,.26-.67,.52-1.54,.77-2.64,.26-1.09,.49-2.33,.69-3.71Z"/>
      <path class="cls-2" d="M178.73,266.27h7.2v-6.91h1.48v6.91h7.2v1.3h-7.2v7.67h-1.48v-7.67h-7.2v-1.3Z"/>
      <path class="cls-2" d="M197.54,274.01c1.52-.84,2.65-1.9,3.37-3.17,.67-1.18,1.09-2.67,1.24-4.48h-3.15v-.9c-.55,.56-1.18,1.14-1.87,1.73l-.94-.99c2.27-1.84,4.02-3.98,5.26-6.44l1.24,.45c-.89,1.84-2.02,3.49-3.38,4.95h10.33c-1.37-1.46-2.5-3.11-3.38-4.95l1.24-.45c1.24,2.46,2.99,4.61,5.26,6.44l-.94,.99c-.62-.52-1.27-1.11-1.93-1.78v1.01c0,1.27-.02,2.35-.05,3.24-.04,.91-.1,1.67-.18,2.27-.1,.65-.2,1.15-.32,1.51-.13,.37-.31,.67-.54,.88-.24,.23-.48,.37-.72,.41-.28,.06-.61,.09-.99,.09-.68,0-1.61-.04-2.79-.11l-.02-1.24c1.09,.07,1.97,.11,2.65,.11,.41,0,.71-.13,.9-.4,.22-.29,.38-.9,.5-1.84,.12-.91,.18-2.36,.18-4.34v-.65h-5c-.17,2.08-.63,3.79-1.39,5.13-.8,1.44-2.05,2.65-3.73,3.62l-.85-1.1Z"/>
      <path class="cls-2" d="M216.76,262.4c.28-1.01,.51-1.99,.7-2.93l1.3,.16c-.17,.8-.38,1.7-.63,2.68,.82-.07,1.87-.19,3.15-.36l.11,1.21c-1.01,.14-2.2,.27-3.58,.38-.78,2.75-1.84,5.66-3.17,8.73l-1.24-.4c1.28-2.95,2.3-5.7,3.04-8.24-1.18,.05-2.08,.07-2.7,.07v-1.21c.91,0,1.92-.03,3.02-.09Zm7.85,2.56c-.11,.84-.13,2.25-.05,4.23,0,.01,0,.07,0,.19,0,.11,0,.22,0,.32,.98,.58,2.2,1.49,3.65,2.74l-.83,.95c-1.13-.98-2.06-1.72-2.79-2.21-.01,1.2-.29,2.06-.83,2.59-.54,.53-1.4,.79-2.59,.79s-2.06-.27-2.73-.81-1-1.27-1-2.2c0-.86,.34-1.56,1.01-2.09,.67-.53,1.58-.79,2.72-.79,.66,0,1.33,.12,2,.36-.07-1.84-.05-3.2,.05-4.09l1.37,.02Zm-1.37,5.42c-.71-.34-1.42-.5-2.12-.5s-1.26,.15-1.67,.46c-.4,.31-.6,.71-.6,1.21,0,.56,.2,1,.59,1.32s.95,.48,1.67,.48c.8,0,1.36-.16,1.67-.48,.31-.32,.46-.92,.46-1.79v-.7Zm.05-7.34l.38-1.21c1.67,.37,3.37,.94,5.11,1.69l-.45,1.19c-1.67-.73-3.35-1.29-5.04-1.67Z"/>
      <path class="cls-2" d="M239.01,261.96h6.88v3.89h-1.35v-2.88h-5.53v3.76h-1.3v-3.76h-5.53v2.88h-1.35v-3.89h6.88v-.99h-6.26v-1.15h13.82v1.15h-6.26v.99Zm-1.33,10.67h-4.48v1.13h-1.33v-6.55h13.18v3.92l1.35,.13-.07,1.15c-.01,.28-.05,.57-.11,.88-.04,.21-.08,.43-.14,.67-.02,.1-.11,.24-.25,.43-.13,.17-.24,.28-.32,.32-.07,.04-.23,.08-.47,.14-.22,.06-.42,.1-.61,.11-.52,.05-.79,.07-.81,.07-.72,.05-1.48,.07-2.27,.07-.73,0-1.41-.02-2.03-.07-.38-.02-.67-.06-.86-.11-.17-.05-.32-.16-.47-.34-.13-.17-.22-.38-.25-.63-.02-.17-.04-.55-.04-1.13v-.2Zm-4.57-7.99v-.92h3.69v.92h-3.69Zm0,1.75v-.94h3.69v.94h-3.69Zm4.57,3.06v-1.22h-4.48v1.22h4.48Zm0,.94h-4.48v1.28h4.48v-1.28Zm1.37-.94h4.66v-1.22h-4.66v1.22Zm0,.94v1.28h4.66v-1.28h-4.66Zm0,2.25v.59c0,.11,.01,.19,.04,.23,.02,.05,.04,.11,.04,.18,0,.05,.02,.08,.07,.11,.05,.02,.08,.05,.09,.07,.01,.02,.06,.04,.14,.04,.02,0,.06,0,.1,.02,.04,.01,.07,.02,.08,.02,.08,0,.16,0,.23,.02,.6,.04,1.16,.05,1.69,.05,.58,0,1.22-.02,1.93-.05,.1-.01,.21-.02,.35-.04,.14-.01,.23-.02,.26-.02,.13,0,.26-.04,.4-.13,.14-.08,.23-.16,.27-.22,.05-.07,.1-.23,.14-.49,.01-.06,.02-.14,.04-.23,.01-.1,.02-.15,.02-.16h-5.89Zm.88-7.99v-.92h3.69v.92h-3.69Zm0,1.75v-.94h3.69v.94h-3.69Z"/>
      <path class="cls-2" d="M250.77,267.11c-.89-.85-1.94-1.74-3.17-2.66l.79-.95c1.2,.89,2.26,1.78,3.19,2.66l-.81,.95Zm1.17,2.25c-.67,2.08-1.6,3.94-2.77,5.6l-1.06-.74c1.15-1.64,2.06-3.42,2.72-5.33l1.12,.47Zm-3.51-8.8l.79-.94c1.16,.89,2.13,1.69,2.9,2.41l-.81,.97c-.86-.83-1.82-1.64-2.88-2.45Zm4.59-.56h11.09v1.15h-4.09c-.08,.5-.19,1-.32,1.48h3.64v6.66h-3.35v3.71c0,.86-.09,1.4-.27,1.62-.18,.22-.62,.32-1.31,.32-.32,0-.95-.03-1.89-.09l-.05-1.21c.82,.06,1.34,.09,1.58,.09,.3,0,.47-.04,.52-.13,.06-.1,.09-.4,.09-.9v-3.42h-3.26v-6.66h2.9c.11-.4,.22-.89,.34-1.48h-4.32v5.17c0,3.55-.64,6.41-1.91,8.59l-.99-1.06c.55-1.04,.95-2.23,1.21-3.56,.26-1.38,.4-2.98,.4-4.79v-5.49Zm.68,13.68c1.13-1.12,2-2.44,2.61-3.96l1.08,.47c-.65,1.63-1.56,3.05-2.74,4.25l-.95-.76Zm2.99-8.3h5.29v-1.67h-5.29v1.67Zm0,1.03v1.8h5.29v-1.8h-5.29Zm3.89,4.05l.95-.72c1.02,1.26,1.94,2.65,2.75,4.18l-1.03,.65c-.79-1.49-1.69-2.86-2.68-4.1Z"/>
      <path class="cls-2" d="M268.56,264.02v11.16h-1.35v-8.68c-.14,.25-.22,.39-.23,.41-.42,.74-.86,1.41-1.33,2l-.59-1.42c1.68-2.26,2.84-4.97,3.49-8.14l1.28,.25c-.3,1.62-.72,3.09-1.26,4.41Zm.7,10.1c.83-.52,1.64-1.14,2.45-1.87,.78-.7,1.43-1.4,1.94-2.11l1.01,.83c-.5,.71-1.19,1.46-2.07,2.25-.84,.77-1.68,1.4-2.52,1.91l-.81-1.01Zm2.95-11.9v-2.74h1.35v2.74h4.14v-2.74h1.39v2.74h2.2v1.17h-2.2v4.59h2.83v1.21h-12.56v-1.21h2.86v-4.59h-2.21v-1.17h2.21Zm1.35,5.76h4.14v-4.59h-4.14v4.59Zm2.9,3.11l.9-.94c1.61,1.22,3.07,2.62,4.37,4.18l-.94,.92c-1.21-1.49-2.66-2.87-4.34-4.16Z"/>
      <path class="cls-2" d="M287.93,264.48l1.06-.29c.48,1.49,.85,2.93,1.1,4.32l-1.08,.22c-.01-.1-.04-.24-.08-.42-.04-.19-.08-.33-.1-.42l-1.55,.09v7.2h-1.31v-7.11l-2.48,.16-.05-1.13,1.28-.07c.17-.24,.41-.6,.72-1.08-.7-1.22-1.39-2.39-2.07-3.51l.76-1.06c.07,.12,.18,.3,.33,.54s.26,.42,.33,.54c.59-1.09,1.1-2.15,1.53-3.17l1.12,.49c-.58,1.31-1.22,2.59-1.94,3.85,.07,.12,.29,.52,.67,1.21,.8-1.31,1.51-2.56,2.12-3.76l1.06,.56c-.96,1.85-2.02,3.62-3.17,5.31l2.41-.16c-.19-.74-.41-1.51-.65-2.29Zm-4.54,9.54c.38-1.64,.64-3.29,.76-4.95l1.12,.11c-.11,1.73-.37,3.41-.77,5.06l-1.1-.22Zm5.58-5.08c.24,1.56,.41,3.07,.52,4.54l-1.1,.11c-.08-1.39-.25-2.89-.5-4.48l1.08-.16Zm6.32-9.61c.72,1.01,1.43,1.87,2.12,2.59,.74,.77,1.55,1.5,2.43,2.2l-.52,1.3c-1.75-1.37-3.31-3.02-4.68-4.95-1.39,1.94-2.96,3.59-4.7,4.95l-.52-1.3c.82-.66,1.62-1.39,2.41-2.2,.74-.76,1.46-1.62,2.14-2.59h1.31Zm-3.62,14.74v.95h-1.33v-7.36h8.64v7.36h-1.39v-.95h-5.92Zm-.4-8.51v-1.17h6.64v1.17h-6.64Zm6.32,7.38v-4.09h-5.92v4.09h5.92Z"/>
      <path class="cls-2" d="M301.82,269.24l-1.08-.2c.42-1.92,.71-3.91,.88-5.96l1.08,.11c-.17,2.1-.46,4.12-.88,6.05Zm1.37,5.94v-15.77h1.39v15.77h-1.39Zm9.47-1.8h4.7v1.21h-11.61v-1.21h5.53v-4.73h-4.23v-1.17h4.23v-3.89h-2.81c-.32,1.19-.75,2.38-1.28,3.58l-1.17-.47-.63,.13c-.18-1.3-.41-2.6-.7-3.92l1.01-.23c.24,.98,.44,2.03,.61,3.13,.72-1.8,1.27-3.8,1.66-6.01l1.28,.2c-.12,.77-.28,1.57-.47,2.39h2.5v-2.97h1.39v2.97h4.46v1.21h-4.46v3.89h4v1.17h-4v4.73Z"/>
      <path class="cls-2" d="M323.86,260.63l1.17-.49c.91,1.37,1.73,2.78,2.47,4.25l-1.19,.5c-.22-.43-.38-.76-.5-.97-2.38,.29-4.7,.47-6.98,.54l-.07-1.13c.13-.01,.33-.02,.58-.04,.26-.01,.45-.02,.58-.02,.68-1.28,1.31-2.6,1.87-3.96l1.37,.23c-.55,1.28-1.13,2.5-1.75,3.64,1.38-.1,2.65-.21,3.8-.34-.43-.76-.88-1.49-1.35-2.21Zm2.63,12.65c0,.77-.08,1.25-.23,1.44-.14,.18-.49,.27-1.03,.27-.24,0-.93-.03-2.07-.09l-.02-1.17c.78,.06,1.26,.09,1.44,.09,.3,0,.47-.02,.52-.07,.06-.06,.09-.22,.09-.47v-1.46h-4.12v3.22h-1.31v-9.86h6.73v8.1Zm-5.42-5.29h4.12v-1.69h-4.12v1.69Zm0,1.06v1.71h4.12v-1.71h-4.12Zm10.06-3.44c.36,0,.78-.01,1.26-.04,.52-.01,.83-.12,.95-.32,.11-.18,.22-.82,.32-1.91l1.26,.14c-.04,.32-.08,.74-.14,1.26-.05,.41-.1,.7-.14,.86-.06,.22-.14,.41-.25,.58-.07,.11-.19,.21-.36,.31-.19,.11-.37,.17-.52,.18-.18,.01-.43,.03-.76,.05-.67,.02-1.22,.04-1.66,.04-.4,0-.94-.01-1.64-.04-.71-.04-1.16-.12-1.35-.25-.18-.12-.27-.42-.27-.9v-5.9h1.39v2.47c1.6-.47,3.29-1.14,5.09-2.02l.49,1.06c-1.91,.95-3.77,1.66-5.58,2.14v1.73c0,.26,.03,.41,.09,.45,.05,.04,.24,.06,.58,.07,.48,.02,.89,.04,1.24,.04Zm0,8.21c.36,0,.78-.01,1.26-.04,.56-.01,.91-.13,1.03-.34,.13-.24,.24-.92,.32-2.05l1.28,.14c-.04,.37-.08,.82-.14,1.35-.04,.31-.09,.61-.16,.9-.06,.25-.14,.46-.25,.61-.07,.12-.2,.22-.38,.31-.18,.08-.36,.14-.54,.16-.43,.05-.7,.07-.79,.07-.67,.02-1.22,.04-1.66,.04-.4,0-.94-.01-1.64-.04-.71-.04-1.16-.12-1.35-.25-.18-.13-.27-.43-.27-.9v-6.26h1.39v2.2c1.69-.49,3.39-1.16,5.09-2.02l.49,1.08c-1.85,.92-3.71,1.63-5.58,2.12v2.36c0,.23,.03,.37,.09,.43,.05,.04,.24,.07,.58,.09,.48,.02,.89,.04,1.24,.04Z"/>
    </g>
    <g>
      <path class="cls-2" d="M383.87,239.64h-7.68v4.31c0,.48-.01,.95-.04,1.39-.03,.37-.08,.69-.15,.97-.07,.26-.18,.47-.33,.62-.16,.16-.36,.28-.59,.35-.31,.1-.61,.16-.9,.18-.21,.01-.64,.02-1.3,.02-.32,0-1.25-.04-2.79-.11l-.15-2.44c1.44,.07,2.3,.11,2.6,.11,.4,0,.62-.04,.68-.13,.07-.1,.11-.4,.11-.88v-4.38h-8.05v-2.31h8.05v-2.27h-4.36v-1.36c-1.32,.72-2.57,1.33-3.74,1.83l-.99-2.2c3.23-1.51,6.07-3.24,8.54-5.19h3.61c2.46,1.95,5.31,3.68,8.54,5.19l-.99,2.2c-1.17-.5-2.42-1.11-3.74-1.83v1.36h-3.98v2.27h7.68v2.31Zm-19.16,5.21c2.1-1.44,3.67-3.08,4.73-4.93l2.24,1.3c-1.16,2.23-2.94,4.17-5.35,5.83l-1.63-2.2Zm5.79-12.03h8.14c-1.36-.82-2.72-1.77-4.07-2.84-1.35,1.07-2.71,2.02-4.07,2.84Zm6.97,8.84l1.94-1.76c1.82,1.66,3.52,3.51,5.1,5.54l-2.18,1.67c-1.45-1.96-3.07-3.78-4.86-5.46Z"/>
      <path class="cls-2" d="M386.33,231.24h2.05v-3.17h2.71v3.17h2.09v1.69c1.47-1.16,2.7-2.66,3.7-4.51l2.11,1.06c-1.2,2.42-2.81,4.36-4.82,5.81l-.99-1.69v.15c-.54,1.41-1.28,2.74-2.2,4,.04,.04,.11,.12,.2,.22,.09,.1,.15,.18,.2,.22,.51-.66,.98-1.41,1.41-2.24l1.61,.79c-.25,.46-.55,.96-.9,1.52,.97-.7,1.85-1.47,2.64-2.29,.82-.85,1.69-1.94,2.62-3.26h2.49c.87,1.19,1.75,2.23,2.64,3.12,.92,.92,1.92,1.78,2.99,2.55l-.57,2.75c-.25-.18-.61-.44-1.08-.79v7.08h-2.73v-.99h-5.57v.99h-2.66v-6.6c-.06,.04-.15,.11-.27,.2s-.22,.15-.27,.2l-1.17,2c-.51-.72-1.01-1.39-1.5-2v6.38h-2.68v-6.53c-.51,.57-1.11,1.11-1.78,1.61l-.59-2.99c1.92-1.55,3.4-3.54,4.44-5.94h-4.09v-2.51Zm6.18,8.36c.22,.28,.54,.7,.95,1.25l-.24-2.2c-.15,.22-.38,.54-.7,.95Zm9.97,4.69v-3.56h-5.57v3.56h5.57Zm.48-5.87c-1.16-1.14-2.16-2.32-3.01-3.52-.9,1.3-1.86,2.48-2.9,3.52h5.92Zm-2.62-8.65l1.74-1.52c1.7,1.48,3.26,3.16,4.66,5.04l-1.69,1.65c-1.53-2.01-3.09-3.73-4.71-5.17Z"/>
      <path class="cls-2" d="M419.47,243.85c1.58-.37,2.81-1.06,3.67-2.09,.87-1.03,1.3-2.31,1.3-3.85,0-1.38-.41-2.53-1.24-3.44-.83-.92-1.94-1.48-3.33-1.68-.59,4.25-1.47,7.38-2.64,9.38s-2.56,3-4.16,3c-1.11,0-2.13-.59-3.04-1.77-.91-1.18-1.36-2.62-1.36-4.32,0-2.65,.92-4.81,2.75-6.46s4.28-2.47,7.33-2.47c2.54,0,4.61,.72,6.21,2.17,1.61,1.44,2.41,3.31,2.41,5.6s-.62,4.06-1.87,5.54-2.98,2.44-5.19,2.88l-.84-2.49Zm-2.55-11c-1.69,.29-3.01,.99-3.98,2.08-.97,1.09-1.45,2.43-1.45,4.02,0,.97,.18,1.77,.54,2.41,.36,.64,.73,.96,1.11,.96s.78-.29,1.2-.86,.86-1.6,1.33-3.08c.47-1.48,.89-3.32,1.25-5.52Z"/>
      <path class="cls-2" d="M428.99,241.32c1.25-1.66,2.59-3.49,4.03-5.5,1.29-1.83,2.15-2.94,2.57-3.33,.43-.39,1.03-.58,1.83-.58,.44,0,.77,.02,1,.05,.23,.04,.54,.21,.94,.51,.4,.3,.74,.61,1.04,.92,.3,.32,.88,.94,1.75,1.88,2.27,2.48,4.72,5.05,7.35,7.72l-2.16,2.16c-2.58-2.61-5-5.19-7.26-7.74-.92-1.01-1.54-1.67-1.86-1.97-.32-.3-.58-.45-.8-.45-.18,0-.39,.15-.64,.46-.25,.31-.71,.95-1.39,1.91-.81,1.2-2.16,3.07-4.05,5.61l-2.35-1.65Z"/>
      <path class="cls-2" d="M450.77,234.45l2.29-.59c.51,1.73,1,3.53,1.47,5.41l-2.31,.57c-.6-2.35-1.09-4.14-1.45-5.39Zm14.28-.9c-.37,4.09-1.39,7.1-3.07,9.02-1.68,1.92-4.37,3.21-8.08,3.87l-.55-2.2c3.08-.57,5.3-1.66,6.65-3.27,1.36-1.61,2.19-4.12,2.5-7.56l2.55,.13Zm-9.83-.04l2.33-.59c.56,1.92,1.06,3.78,1.5,5.59l-2.35,.59c-.48-1.95-.98-3.81-1.47-5.59Z"/>
      <path class="cls-2" d="M470.21,229.04h2.99v6.03c3.42,.91,6.68,2.05,9.79,3.43l-1.01,2.49c-2.89-1.26-5.82-2.3-8.78-3.12v8.91h-2.99v-17.73Zm11.02,4.16l-2.49,1.19c-.59-1.13-1.27-2.4-2.05-3.81l2.49-1.25c.66,1.2,1.34,2.49,2.05,3.87Zm3.89-.79l-2.53,1.21c-.62-1.22-1.31-2.52-2.09-3.89l2.53-1.28c.94,1.73,1.64,3.05,2.09,3.96Z"/>
      <path class="cls-2" d="M489.29,229.5h2.93v4.11c0,2.88-.15,5.1-.45,6.67s-.81,2.83-1.53,3.77c-.72,.95-1.82,1.84-3.3,2.67l-1.76-2.18c.73-.41,1.31-.79,1.73-1.13s.8-.77,1.15-1.28c.35-.51,.6-1.14,.76-1.89,.15-.75,.27-1.65,.35-2.67,.08-1.03,.12-2.35,.12-3.96v-4.11Zm5.68,16.87v-16.87h2.93v13.6c2.26-1.13,3.76-3.54,4.49-7.22l2.71,.62c-.47,2.61-1.28,4.69-2.42,6.24-1.14,1.55-2.74,2.76-4.77,3.64h-2.93Z"/>
      <path class="cls-2" d="M507.57,239.38v-2.95h17.47v2.95h-17.47Z"/>
      <path class="cls-2" d="M537.99,237.03l2.38-1.21c1.75,3.15,3.37,6.32,4.88,9.5l-2.46,1.12c-.13-.26-.33-.67-.61-1.22-.27-.55-.47-.96-.6-1.24-5.25,.91-10.38,1.5-15.38,1.78l-.15-2.57c.57-.03,1.43-.09,2.57-.18,1.67-4.55,3.06-9.16,4.18-13.84l2.86,.53c-1.04,4.36-2.36,8.7-3.96,13.02,2.95-.29,5.85-.65,8.71-1.08-1.1-2.16-1.91-3.7-2.42-4.62Z"/>
      <path class="cls-2" d="M362.95,272.98c2.29-3.72,3.7-7.63,4.23-11.72l1.35,.11c-.52,4.31-1.96,8.39-4.34,12.26l-1.24-.65Zm9.27-12.42l1.08-.58c.59,.97,1.15,1.96,1.67,2.95l-1.08,.52c-.47-.89-1.03-1.85-1.67-2.9Zm1.51,4.41l1.31-.41c1.07,2.62,2.05,5.56,2.93,8.84l-1.4,.32c-.85-3.23-1.8-6.14-2.84-8.75Zm1.01-5.09l1.1-.59c.71,1.16,1.28,2.17,1.73,3.02l-1.12,.54c-.55-1.02-1.12-2.01-1.71-2.97Z"/>
      <path class="cls-2" d="M379.69,266.41v-1.19h13.39v1.19c-.46,2.33-1.46,4.12-3.02,5.39-1.56,1.27-3.84,2.12-6.84,2.57l-.23-1.19c2.65-.41,4.67-1.15,6.07-2.24,1.39-1.09,2.28-2.59,2.66-4.53h-12.02Zm1.48-4.28v-1.21h10.62v1.21h-10.62Z"/>
      <path class="cls-2" d="M395.71,262.02l.74-1.1c1.64,.97,3.25,2.05,4.82,3.24l-.77,1.1c-1.57-1.18-3.17-2.26-4.79-3.24Zm.2,10.55c3.28-.3,5.92-1.3,7.93-3,2.01-1.7,3.32-4.02,3.93-6.98l1.3,.32c-.64,3.22-2.06,5.77-4.28,7.65-2.22,1.88-5.12,2.98-8.69,3.29l-.18-1.3Z"/>
      <path class="cls-2" d="M412.34,262.4v-1.22h10.44v1.22c-.73,1.92-1.88,3.77-3.44,5.54,1.67,1.62,3.4,3.37,5.2,5.24l-.95,.92c-1.64-1.73-3.35-3.46-5.13-5.2-2.16,2.2-4.6,3.86-7.31,4.99l-.54-1.15c2.4-1.02,4.58-2.48,6.53-4.39,1.96-1.91,3.32-3.89,4.1-5.94h-8.91Z"/>
      <path class="cls-2" d="M429.04,263.82v11.36h-1.35v-8.75s-.06,.11-.1,.2c-.04,.08-.08,.16-.13,.23-.04,.07-.08,.14-.12,.2-.47,.77-.94,1.43-1.4,2l-.59-1.48c1.74-2.29,2.95-5.03,3.64-8.23l1.28,.25c-.29,1.49-.7,2.89-1.22,4.21Zm12.69,1.3h-4.75v8.24h4.28v1.21h-10.69v-1.21h4.99v-8.24h-5.4v-1.22h5.4v-4.32h1.42v4.32h4.75v1.22Z"/>
      <path class="cls-2" d="M443.42,262.47h2.09v-3.06h1.3v3.06h1.87v1.19h-1.69c.3,.73,.6,1.48,.9,2.25,.13,.35,.28,.73,.45,1.14s.29,.72,.36,.91c.07,.19,.12,.32,.14,.4l-.86,.88c-.18-.48-.41-1.09-.68-1.84s-.44-1.19-.49-1.33v9.11h-1.3v-7.88c-.43,1.44-.99,2.8-1.67,4.07l-.77-1.21c1.1-2.05,1.88-4.22,2.32-6.5h-1.96v-1.19Zm16.16,4.3v1.15h-4.68v.09c.34,.73,.8,1.49,1.4,2.29,.8-.67,1.51-1.37,2.11-2.11l.94,.76c-.68,.84-1.44,1.6-2.27,2.29,.88,.97,1.82,1.78,2.84,2.43l-.7,1.08c-1.15-.76-2.18-1.7-3.1-2.83-.47-.58-.88-1.18-1.22-1.8v2.7c0,.43-.02,.83-.07,1.19-.04,.25-.13,.47-.29,.65-.17,.18-.37,.29-.59,.32-.31,.05-.66,.07-1.04,.07-.34,0-1-.03-1.98-.09l-.04-1.17c.88,.06,1.48,.09,1.8,.09,.4,0,.64-.05,.72-.16,.1-.12,.14-.41,.14-.86v-1.8c-1.39,1.22-3.09,2.39-5.09,3.49l-.65-1.06c2.28-1.19,4.19-2.49,5.74-3.91v-1.66h-4.63v-1.15h4.63v-1.67h-4.23v-1.1h4.23v-1.58h-4.63v-1.15h2.68c-.3-.59-.63-1.17-.99-1.75l1.21-.4c.46,.73,.85,1.45,1.19,2.14h2.65c.47-.74,.86-1.46,1.17-2.14l1.21,.34c-.24,.53-.56,1.13-.95,1.8h2.25v1.12h-4.43v1.62h4.19v1.1h-4.19v1.67h4.68Zm-10.66,2.23l.92-.81c.67,.7,1.33,1.42,1.96,2.16l-.92,.83c-.71-.84-1.36-1.57-1.96-2.18Z"/>
      <path class="cls-2" d="M470.32,272.93c1.39-.25,2.51-.88,3.35-1.9s1.26-2.24,1.26-3.68-.47-2.55-1.42-3.44c-.95-.89-2.19-1.35-3.73-1.39-.46,3.52-1.12,6.16-2.01,7.93-.88,1.77-1.91,2.66-3.07,2.66-.78,0-1.5-.46-2.16-1.39-.66-.92-.99-2.04-.99-3.35,0-2.1,.74-3.81,2.22-5.12,1.48-1.31,3.42-1.97,5.82-1.97,1.97,0,3.58,.57,4.83,1.7s1.88,2.59,1.88,4.36-.51,3.26-1.54,4.5c-1.03,1.24-2.38,2-4.08,2.29l-.38-1.21Zm-1.93-10.33c-1.67,.22-3,.84-4,1.86-1,1.03-1.49,2.31-1.49,3.84,0,.98,.2,1.81,.6,2.47,.4,.66,.81,.99,1.23,.99,.2,0,.42-.08,.64-.25s.47-.47,.75-.91c.28-.44,.54-.99,.8-1.66,.26-.67,.52-1.54,.77-2.64,.26-1.09,.49-2.33,.69-3.71Z"/>
      <path class="cls-2" d="M481.47,264.02v11.16h-1.35v-8.62c-.05,.08-.12,.22-.22,.41-.42,.74-.86,1.41-1.33,2l-.54-1.48c1.63-2.26,2.77-4.97,3.42-8.14l1.28,.25c-.3,1.62-.72,3.09-1.26,4.41Zm1.53-.49v-1.17h11.7v1.17h-11.7Zm2.12,10.87v.77h-1.35v-5.27h10.12v5.27h-1.39v-.77h-7.38Zm-1.17-8.37v-1.13h9.76v1.13h-9.76Zm0,2.5v-1.13h9.76v1.13h-9.76Zm.14-7.51v-1.13h9.67v1.13h-9.67Zm8.41,12.26v-2.25h-7.38v2.25h7.38Z"/>
      <path class="cls-2" d="M509.9,269.04c-.07,.72-.16,1.49-.25,2.3-.07,.58-.16,1.1-.27,1.58-.11,.46-.22,.8-.32,1.04-.12,.25-.27,.44-.45,.58-.22,.16-.41,.25-.59,.29-.2,.04-.47,.05-.79,.05-.92,0-2.28-.05-4.07-.16l-.04-1.21c1.62,.11,2.85,.16,3.69,.16,.22,0,.38-.02,.49-.05,.12-.04,.23-.1,.34-.2,.08-.07,.17-.26,.25-.56,.06-.23,.13-.57,.22-1.03,.01-.08,.08-.64,.22-1.67h-8.62c-.3,.79-.64,1.57-1.03,2.32l-1.35-.38c.72-1.43,1.31-2.95,1.78-4.55h-3.2v-1.17h15.7v1.17h-11.05c-.12,.48-.26,.97-.43,1.48h9.79Zm-10.71-3.92h-1.39v-5.2h11.88v5.2h-10.49Zm0-1.04h9.11v-3.01h-9.11v3.01Z"/>
      <path class="cls-2" d="M513.25,274.02c.43-1.72,.71-3.37,.83-4.95l1.13,.11c-.13,1.73-.41,3.41-.83,5.06l-1.13-.22Zm5.13-9.61l1.12-.29c.47,1.34,.85,2.78,1.15,4.32l-1.13,.23c-.02-.08-.05-.21-.09-.39s-.07-.31-.09-.41l-1.84,.11v7.18h-1.33v-7.11l-2.83,.16-.04-1.13,1.64-.09c.22-.29,.44-.6,.67-.94-.64-1.08-1.39-2.29-2.25-3.62l.76-1.1c.16,.24,.39,.61,.7,1.12,.53-.91,1.08-1.97,1.66-3.19l1.1,.49c-.62,1.33-1.31,2.61-2.05,3.83,.08,.16,.22,.39,.41,.69,.19,.31,.33,.54,.41,.69,.82-1.24,1.6-2.54,2.36-3.92l1.04,.56c-1.03,1.92-2.14,3.69-3.31,5.31l2.65-.14c-.22-.8-.45-1.6-.7-2.38Zm1.69,8.32l-1.15,.11c-.08-1.24-.26-2.5-.52-3.78l1.1-.16c.25,1.14,.44,2.42,.58,3.83Zm5.62,.74h3.94v1.19h-9.83v-1.19h4.5v-3.17h-3.55v-1.15h3.55v-2.03h1.39v2.03h3.47v1.15h-3.47v3.17Zm-4.48-11.27l1.08-.74c.78,1.09,1.72,2.08,2.81,2.95,.01-.01,.03-.03,.05-.04,.02-.02,.04-.03,.05-.03,1.03-.88,1.86-1.93,2.48-3.17h-7.34v-1.17h8.77v1.17c-.73,1.61-1.72,2.95-2.97,4.01,1.08,.74,2.25,1.36,3.51,1.85l-.41,1.19c-1.46-.56-2.86-1.31-4.18-2.25-1.09,.72-2.39,1.35-3.91,1.89l-.45-1.15c1.27-.43,2.38-.94,3.33-1.53-1.08-.9-2.02-1.9-2.83-2.99Z"/>
      <path class="cls-2" d="M533.3,273.3c.08-.02,.26-.08,.53-.16,.27-.08,.48-.16,.64-.22v-7.6h-2.84v-5.47h6.23v3.58c1.21-1.24,2.2-2.66,2.97-4.28l1.24,.27c-.22,.5-.42,.94-.61,1.31h5.27v1.12c-.79,1.4-1.78,2.63-2.97,3.67,1.06,.82,2.35,1.55,3.87,2.2l-.25,1.21c-.41-.17-.71-.3-.92-.4v6.5h-1.37v-.95h-4.99v.95h-1.33v-6.53c-.41,.17-.77,.31-1.08,.41l-.14-.68h-1.78v4.23c.47-.17,1.19-.44,2.18-.83l.18,1.15c-2.47,.98-4.73,1.75-6.77,2.3l-.22-1.13,.92-.27v-7.22h1.24v6.84Zm-.36-9.09h3.65v-3.2h-3.65v3.2Zm8.91,1.28c-.73-.68-1.42-1.43-2.05-2.23-.34,.42-.74,.86-1.22,1.31l-.72-.7v1.46h-2.09v1.73h2v.5c1.57-.58,2.93-1.27,4.09-2.07Zm4.16,2.83c-1.21-.6-2.27-1.26-3.17-1.98l-.02-.02s-.02-.02-.04-.02c-1.02,.76-2.22,1.43-3.6,2.02h6.82Zm-.92,4.64v-3.53h-4.99v3.53h4.99Zm-2.3-8.23c.97-.85,1.77-1.81,2.39-2.88h-4.37s-.07,.11-.13,.19c-.06,.08-.1,.13-.13,.17,.71,.97,1.45,1.81,2.23,2.52Z"/>
    </g>
    <g>
      <path class="cls-2" d="M698.53,234.28v13.33h-2.57v-8.73c-.44,.79-.81,1.39-1.1,1.78l-.77-3.54c1.6-2.48,2.7-5.52,3.3-9.13l2.55,.55c-.28,2.05-.75,3.97-1.41,5.74Zm1.63-3.65v-2.09h14.48v2.09h-6.42c-.03,.06-.07,.15-.11,.29-.04,.13-.07,.23-.09,.29h5.43v4.86h1.34v3.41h-1.17c.44,.62,.81,1.17,1.1,1.65l-1.67,1.25c-.41-.67-.97-1.5-1.67-2.46-.06,.15-.11,.26-.15,.33-.15,.26-.27,.43-.37,.48-.1,.06-.37,.12-.79,.2-.47,.07-.86,.11-1.17,.11-.09,0-.33,0-.74,.01-.4,0-.77,.01-1.09,.01h-1.08c-.12,.1-.29,.24-.53,.42h6.95v1.54c-.66,.62-1.44,1.17-2.35,1.65,1.61,.31,3.26,.51,4.95,.62l-.53,2.24c-2.3-.18-4.55-.61-6.73-1.3-.07-.03-.19-.07-.35-.12-.16-.05-.28-.09-.35-.12-2.11,.73-4.56,1.25-7.35,1.54l-.53-2.16c1.66-.12,3.31-.34,4.97-.66-.54-.29-1.06-.62-1.54-.99l.88-.7h-.37c-1.12,.62-2.24,1.1-3.39,1.45l-.77-2c.62-.18,1.22-.37,1.8-.59l-.31-.31c-.48-.44-.73-.67-.75-.68l-.37-.35c.4-.31,.78-.66,1.14-1.06h-1.06v-3.41h1.32v-4.86h4.33s.05-.11,.1-.25c.05-.14,.09-.25,.12-.32h-5.13Zm2.77,9.06c-.53,.73-1.19,1.43-1.98,2.09,.97-.38,1.74-.73,2.31-1.06l-.02-.02-.02-.02c-.09-.07-.15-.13-.18-.18s-.05-.12-.07-.22c-.03-.15-.04-.25-.04-.31v-.29Zm6.29-1.89l-1.01,1.56c-.85-.43-1.78-.83-2.79-1.21l.4-.64h-3.83v.46l.95,.64v-.7h2.35v1.08c0,.25,.07,.4,.22,.44s.66,.07,1.54,.07c1.07,0,1.69-.05,1.85-.15,.18-.12,.29-.48,.33-1.08l1.98,.15,.99-.75v-.15h-3.56c.06,.03,.15,.08,.29,.14,.13,.07,.23,.11,.31,.14Zm-5.61-4.84h6.97v-.62h-6.97v.62Zm0,.95v.59h6.97v-.59h-6.97Zm0,1.54v.62h6.97v-.62h-6.97Zm3.5,8.47c.78-.28,1.46-.58,2.05-.9h-4.2c.73,.37,1.45,.67,2.16,.9Z"/>
      <path class="cls-2" d="M721.6,236.5c0-.22,0-.56-.02-1.02-.01-.46-.02-.81-.02-1.05-1.64,.24-3.22,.35-4.73,.35l-.07-2.49c1.51,0,3.1-.12,4.77-.35-.01-.37-.03-.92-.03-1.66,0-.74-.01-1.3-.01-1.68h2.77c.01,.69,.03,1.63,.05,2.83,.02,1.2,.03,2.04,.03,2.52,1.44-1.26,2.57-2.1,3.39-2.52s1.62-.63,2.4-.63c1.5,0,2.24,1.21,2.24,3.63,0,1.19-.04,2.27-.11,3.26-.07,1-.11,2.02-.11,3.08,0,.79,.02,1.38,.07,1.76s.1,.62,.17,.73c.07,.1,.18,.15,.34,.15,.66,0,1.6-.56,2.82-1.69l1.43,2.02c-.63,.73-1.42,1.34-2.37,1.81-.95,.48-1.83,.72-2.65,.72-1.83,0-2.75-1.42-2.75-4.25,0-1.07,.04-2.1,.11-3.1,.07-1.25,.11-2.33,.11-3.26,0-.75-.03-1.22-.09-1.42-.06-.2-.18-.3-.35-.3-.6,0-2.13,1.16-4.6,3.48,.03,2.27,.06,5.42,.09,9.44h-2.77c0-.51-.02-2.76-.07-6.75-.22,.22-.58,.57-1.07,1.06s-.96,.95-1.41,1.4-.88,.89-1.31,1.33l-1.83-1.85c2.32-2.36,4.17-4.21,5.57-5.54Z"/>
      <path class="cls-2" d="M745.71,231.26c1.89-.15,3.88-.35,5.96-.62l.24,2.49c-2.29,.31-4.55,.54-6.8,.68-1.01,4.3-2.35,8.7-4,13.22l-2.71-.79c1.6-4.3,2.87-8.38,3.81-12.25-.75,.04-1.89,.08-3.43,.11v-2.51c1.33-.03,2.68-.07,4.03-.13,.09-.38,.33-1.56,.73-3.54l2.79,.24c-.25,1.31-.46,2.34-.62,3.1Zm10.14,12.08l.31,2.49c-1.57,.4-3.04,.59-4.4,.59-2.11,0-3.62-.28-4.52-.84-.9-.56-1.35-1.38-1.35-2.46,0-.63,.21-1.31,.62-2.04,.41-.73,1-1.41,1.76-2.06l2.13,1.28c-1.1,1.03-1.65,1.82-1.65,2.38,0,.43,.23,.74,.7,.94,.47,.2,1.24,.3,2.31,.3s2.46-.19,4.09-.57Zm-.35-6.09c-2.71,0-5.38,.24-7.99,.73l-.24-2.49c2.65-.48,5.4-.73,8.23-.73v2.49Z"/>
      <path class="cls-2" d="M762,232.25v3.94h6.45v2.35h-6.45v4.8h6.89v2.49h-9.97v-16.06h9.97v2.49h-6.89Z"/>
      <path class="cls-2" d="M771.88,245.83v-16.06h3.37v16.06h-3.37Z"/>
      <path class="cls-2" d="M778.6,245.83v-16.06h3.01l6.62,10.93h.04v-10.93h3.01v16.06h-3.01l-6.62-10.93h-.04v10.93h-3.01Z"/>
      <path class="cls-2" d="M798.26,233.33v14.28h-2.77v-9.28c-.54,.92-1.06,1.67-1.56,2.24l-.84-3.37c.94-1.31,1.7-2.67,2.29-4.09,.62-1.51,1.11-3.22,1.47-5.13l2.66,.48c-.29,1.78-.71,3.4-1.25,4.86Zm15.25,2.4h-5.21v8.8h4.71v2.44h-13.22v-2.44h5.57v-8.8h-5.94v-2.53h5.94v-4.99h2.95v4.99h5.21v2.53Z"/>
      <path class="cls-2" d="M815.26,231.53h2.22v-3.45h2.6v3.45h1.98v2.38h-1.78c.73,1.6,1.39,3.04,1.96,4.33v-1.43h5.17v-1.23h-4.64v-2.05h4.64v-1.12h-5.06v-2.24h2.64c-.18-.35-.51-.96-1.01-1.83l2.44-.66c.56,.92,1,1.75,1.34,2.49h2.33c.48-.87,.89-1.69,1.23-2.49l2.51,.57c-.32,.7-.64,1.34-.95,1.91h2.11v2.18h-4.8v1.19h4.53v2.05h-4.53v1.23h5.04v2.33h-1.41l1.43,1.45c-.79,.81-1.58,1.52-2.35,2.13,.89,.92,1.82,1.69,2.77,2.31l-1.56,2.22c-1.25-.92-2.37-2.09-3.37-3.5-.13-.19-.32-.48-.55-.86v1.12c0,.7,0,1.17-.02,1.39-.03,.38-.08,.7-.15,.95-.09,.28-.19,.49-.31,.64-.1,.13-.29,.24-.57,.33-.29,.1-.58,.16-.86,.18-.41,.03-.81,.04-1.21,.04-.34,0-1.08-.04-2.22-.11l-.13-2.16c-.9,.66-1.8,1.27-2.71,1.83l-1.41-2.22c1.22-.69,2.32-1.38,3.3-2.07-.66-.88-1.31-1.68-1.96-2.4l1.72-1.28h-1.28l-1.34,1.69c-.21-.56-.53-1.39-.97-2.51v9.28h-2.6v-7.41c-.44,1.31-.93,2.38-1.47,3.23l-1.25-2.75c1.26-2.13,2.13-4.38,2.62-6.78h-2.11v-2.38Zm12.14,10.41v-2.79h-3.34c.57,.65,1.17,1.37,1.8,2.18,.03-.03,.15-.13,.36-.3,.21-.17,.37-.3,.47-.41l.7,1.32Zm-2.49,3.21c.78,.04,1.34,.07,1.69,.07s.57-.04,.66-.13,.13-.37,.13-.86v-1.17c-.76,.72-1.59,1.42-2.49,2.09Zm5.28-6.01c.35,.63,.73,1.23,1.14,1.78,.7-.53,1.39-1.12,2.05-1.78h-3.19Z"/>
      <path class="cls-2" d="M676.07,274.56c.77-2.2,1.22-4.7,1.37-7.51l1.24,.09c-.06,1.02-.15,2.01-.27,2.97,.23,.5,.41,.85,.54,1.04,.28,.42,.61,.8,1.01,1.13v-6.5h-3.67v-1.17h3.51v-2.54h-3.04v-1.15h3.04v-1.82h1.35v1.82h2.65v1.15h-2.65v2.54h2.83v1.17h-2.65v2.7h2.56v1.15h-2.56v3.4l.22,.05c.67,.2,1.37,.34,2.09,.4,.79,.07,1.78,.11,2.95,.11h5.38l-.05,1.19h-5.33c-1.19,0-2.23-.05-3.13-.14-.84-.1-1.6-.24-2.27-.43-.67-.21-1.24-.49-1.71-.86-.44-.36-.85-.8-1.21-1.33-.01-.02-.03-.06-.06-.11s-.06-.08-.08-.11c-.19,1.01-.48,2.09-.86,3.24l-1.19-.49Zm8.15-9.34c.78-.34,1.42-.91,1.93-1.71,.4-.64,.65-1.36,.76-2.18h-2.74v-1.15h7.7c0,1.63-.05,2.78-.14,3.46-.11,.78-.28,1.31-.5,1.58-.24,.29-.6,.43-1.08,.43s-1.22-.03-2.21-.09l-.07-1.1c.82,.06,1.42,.09,1.8,.09,.22,0,.39-.08,.52-.23,.12-.13,.22-.44,.29-.92,.05-.34,.08-1.03,.11-2.07h-2.45c-.11,1.09-.42,2.05-.94,2.86-.62,.96-1.42,1.64-2.39,2.03l-.58-1.01Zm1.53,6.86h-1.26v-5.49h6.97v5.49h-5.71Zm0-1.12h4.39v-3.29h-4.39v3.29Z"/>
      <path class="cls-2" d="M696.74,264.36v10.82h-1.31v-8.73c-.1,.17-.17,.3-.22,.4-.46,.78-.89,1.42-1.31,1.93l-.72-1.22c1.78-2.27,3.02-5.02,3.73-8.24l1.31,.2c-.36,1.79-.85,3.41-1.48,4.86Zm1.6,10.12v-1.19h8.69c-.22-.17-.45-.4-.7-.68-.38-.44-.72-1-1.01-1.66-.3-.7-.57-1.52-.81-2.47-.17-.66-.32-1.48-.45-2.45h-3.91v4.57c1.32-.3,2.65-.68,3.98-1.13l.18,1.21c-2.16,.72-4.4,1.27-6.73,1.64l-.13-1.17c.3-.05,.75-.13,1.35-.25v-10.28c3.56,0,6.75-.38,9.56-1.13l.32,1.17c-1.16,.31-2.37,.56-3.62,.74,.02,1.19,.1,2.32,.22,3.4v.04l.02,.04h3.96v1.17h-3.8c.14,.89,.28,1.58,.4,2.07,.24,.92,.5,1.7,.77,2.34,.28,.64,.56,1.13,.85,1.48,.26,.32,.52,.49,.77,.49,.34,0,.61-1.02,.83-3.06l1.15,.34c-.28,2.76-.86,4.14-1.75,4.14-.36,0-.71-.09-1.04-.27v.92h-9.11Zm5.6-9.61c-.11-1.19-.17-2.29-.18-3.31-1.15,.12-2.35,.19-3.6,.22v3.1h3.78Z"/>
      <path class="cls-2" d="M711.78,266.41l-.54-1.08c3.47-1.28,6.11-2.68,7.94-4.18h-7.45v-1.15h15.05v1.15h-5.85c-.2,.19-.53,.48-.99,.86v4.48h-1.37v-3.47c-1.88,1.28-4.15,2.41-6.79,3.38Zm8.23,7.04h7v1.13h-15.52v-1.13h2.88v-4.16h1.39v4.16h2.84v-5.13h-6.59v-1.13h14.47v1.12h-6.48v1.94h5.6v1.08h-5.6v2.12Zm1.06-11.41c2.22,.97,4.29,2.07,6.21,3.29l-.56,1.08c-2-1.26-4.08-2.38-6.23-3.35l.58-1.03Z"/>
      <path class="cls-2" d="M729.79,260.87c2.53-.1,4.68-.22,6.44-.36l.11,1.17c-.28,1.69-.55,3.24-.81,4.64,1.46,.02,2.89,.22,4.27,.59,.13-1.38,.2-2.99,.2-4.84h1.31c0,2.12-.08,3.87-.23,5.24,1.07,.37,2.07,.83,3.01,1.37l-.59,1.12c-.92-.53-1.79-.94-2.59-1.22-.3,1.69-.78,2.98-1.43,3.85-.65,.88-1.6,1.64-2.83,2.29l-.68-1.03c1.09-.61,1.92-1.31,2.48-2.09,.56-.78,.96-1.93,1.21-3.44-1.46-.42-2.9-.63-4.32-.63h-.04c-.38,1.76-.78,3.12-1.2,4.07-.41,.95-.82,1.57-1.22,1.85s-.9,.43-1.48,.43c-.7,0-1.35-.38-1.97-1.15-.62-.77-.93-1.62-.93-2.56s.5-1.77,1.51-2.49c1.01-.73,2.39-1.16,4.14-1.3,.26-1.31,.53-2.83,.81-4.57-.96,.08-2.68,.18-5.15,.29v-1.22Zm4.09,6.73c-1.27,.14-2.28,.46-3.02,.95-.74,.49-1.11,1.03-1.11,1.62s.19,1.17,.56,1.67c.37,.5,.74,.76,1.1,.76,.43,0,.84-.35,1.23-1.06s.8-2.02,1.23-3.94Z"/>
      <path class="cls-2" d="M749.76,273.97l-1.17,.92c-1.22-1.46-2.4-2.74-3.53-3.83l1.1-.99c1.22,1.2,2.42,2.5,3.6,3.91Z"/>
      <path class="cls-2" d="M759.12,264.36v10.82h-1.31v-8.73c-.1,.17-.17,.3-.22,.4-.46,.78-.89,1.42-1.31,1.93l-.72-1.22c1.78-2.27,3.02-5.02,3.73-8.24l1.31,.2c-.36,1.79-.85,3.41-1.48,4.86Zm1.6,10.12v-1.19h8.69c-.22-.17-.45-.4-.7-.68-.38-.44-.72-1-1.01-1.66-.3-.7-.57-1.52-.81-2.47-.17-.66-.32-1.48-.45-2.45h-3.91v4.57c1.32-.3,2.65-.68,3.98-1.13l.18,1.21c-2.16,.72-4.4,1.27-6.73,1.64l-.13-1.17c.3-.05,.75-.13,1.35-.25v-10.28c3.56,0,6.75-.38,9.56-1.13l.32,1.17c-1.16,.31-2.37,.56-3.62,.74,.02,1.19,.1,2.32,.22,3.4v.04l.02,.04h3.96v1.17h-3.8c.14,.89,.28,1.58,.4,2.07,.24,.92,.5,1.7,.77,2.34s.56,1.13,.85,1.48c.26,.32,.52,.49,.77,.49,.34,0,.61-1.02,.83-3.06l1.15,.34c-.28,2.76-.86,4.14-1.75,4.14-.36,0-.71-.09-1.04-.27v.92h-9.11Zm5.6-9.61c-.11-1.19-.17-2.29-.18-3.31-1.15,.12-2.35,.19-3.6,.22v3.1h3.78Z"/>
      <path class="cls-2" d="M774.59,272.91c5.96-1.67,9.35-5.78,10.15-12.35l1.44,.14c-.88,7.16-4.58,11.66-11.12,13.48l-.47-1.28Z"/>
      <path class="cls-2" d="M788.68,267.8c2.46-.55,4.81-1.48,7.04-2.77,2.23-1.3,4.13-2.84,5.71-4.63l.99,.9c-1.44,1.63-3.15,3.08-5.13,4.34v8.64h-1.4v-7.81c-2.22,1.22-4.52,2.09-6.91,2.59l-.29-1.26Z"/>
      <path class="cls-2" d="M805.76,262.58v-1.22h10.44v1.22c-.7,1.84-1.79,3.62-3.28,5.36,1.9,1.84,3.7,3.64,5.4,5.42l-.95,.92c-2.04-2.12-3.81-3.91-5.31-5.36-2.22,2.33-4.66,4.04-7.31,5.15l-.54-1.15c2.29-.97,4.41-2.43,6.36-4.38s3.31-3.93,4.09-5.95h-8.91Zm9.76-3.2l.99-.52c.49,.8,1,1.7,1.51,2.68l-.99,.5c-.43-.83-.94-1.72-1.51-2.66Zm2.43-.29l1.01-.54c.48,.8,1,1.72,1.55,2.75l-1.01,.5c-.53-1-1.04-1.9-1.55-2.72Z"/>
      <path class="cls-2" d="M823.56,264.02v11.16h-1.35v-8.62c-.05,.08-.12,.22-.22,.41-.42,.74-.86,1.41-1.33,2l-.54-1.48c1.63-2.26,2.77-4.97,3.42-8.14l1.28,.25c-.3,1.62-.72,3.09-1.26,4.41Zm1.53-.49v-1.17h11.7v1.17h-11.7Zm2.12,10.87v.77h-1.35v-5.27h10.12v5.27h-1.39v-.77h-7.38Zm-1.17-8.37v-1.13h9.76v1.13h-9.76Zm0,2.5v-1.13h9.76v1.13h-9.76Zm.14-7.51v-1.13h9.67v1.13h-9.67Zm8.41,12.26v-2.25h-7.38v2.25h7.38Z"/>
      <path class="cls-2" d="M851.99,269.04c-.07,.72-.16,1.49-.25,2.3-.07,.58-.16,1.1-.27,1.58-.11,.46-.22,.8-.32,1.04-.12,.25-.27,.44-.45,.58-.22,.16-.41,.25-.59,.29-.2,.04-.47,.05-.79,.05-.92,0-2.28-.05-4.07-.16l-.04-1.21c1.62,.11,2.85,.16,3.69,.16,.22,0,.38-.02,.49-.05,.12-.04,.23-.1,.34-.2,.08-.07,.17-.26,.25-.56,.06-.23,.13-.57,.22-1.03,.01-.08,.08-.64,.22-1.67h-8.62c-.3,.79-.64,1.57-1.03,2.32l-1.35-.38c.72-1.43,1.31-2.95,1.78-4.55h-3.2v-1.17h15.7v1.17h-11.05c-.12,.48-.26,.97-.43,1.48h9.79Zm-10.71-3.92h-1.39v-5.2h11.88v5.2h-10.49Zm0-1.04h9.11v-3.01h-9.11v3.01Z"/>
    </g>
  </g>
  <g id="_イヤー_2" data-name="レイヤー 2">
    <rect class="cls-1" width="290" height="200" rx="10" ry="10"/>
    <rect class="cls-1" x="310" width="290" height="200" rx="10" ry="10"/>
    <rect class="cls-1" x="620" width="290" height="200" rx="10" ry="10"/>
    <g id="Group_6907" data-name="Group 6907" transform="translate(-154.017 -9537.938)">
      <g id="Group_6860" data-name="Group 6860" transform="translate(157.239 9539.938)">
        <path class="cls-2" d="M320.92,134.73c-.51,0-.92-.9-.92-2v-9.63c0-1.1,.41-2,.92-2s.92,.9,.92,2v9.63c0,1.1-.41,2-.92,2Z"/>
        <path class="cls-2" d="M340.68,134.73c-.51,0-.92-.9-.92-2v-9.63c0-1.1,.41-2,.92-2s.92,.9,.92,2v9.63c0,1.1-.41,2-.92,2Z"/>
        <path class="cls-2" d="M356.49,134.73c-.51,0-.92-.9-.92-2v-8.15c0-1.1,.41-2,.92-2s.92,.9,.92,2v8.15c0,1.1-.41,2-.92,2Z"/>
        <path class="cls-2" d="M372.3,134.73c-.51,0-.92-.9-.92-2v-9.63c0-1.1,.41-2,.92-2s.92,.9,.92,2v9.63c0,1.1-.41,2-.92,2Z"/>
        <path class="cls-2" d="M344.63,134.73c-.51,0-.92-.9-.92-2v-5.93c0-1.1,.41-2,.92-2s.92,.9,.92,2v5.93c0,1.1-.41,2-.92,2Z"/>
        <path class="cls-2" d="M376.25,134.73c-.51,0-.92-.9-.92-2v-5.93c0-1.1,.41-2,.92-2s.92,.9,.92,2v5.93c0,1.1-.41,2-.92,2Z"/>
        <path class="cls-2" d="M399.96,134.73c-.51,0-.92-.9-.92-2v-5.93c0-1.1,.41-2,.92-2s.92,.9,.92,2v5.93c0,1.1-.41,2-.92,2Z"/>
        <path class="cls-2" d="M431.57,134.73c-.51,0-.92-.9-.92-2v-7.41c0-1.1,.41-2,.92-2s.92,.9,.92,2v7.41c0,1.1-.41,2-.92,2Z"/>
        <path class="cls-2" d="M384.15,134.73c-.51,0-.92-.9-.92-2v-3.7c0-1.1,.41-2,.92-2s.92,.9,.92,2v3.7c0,1.1-.41,2-.92,2Z"/>
        <path class="cls-2" d="M392.05,134.73c-.51,0-.92-.9-.92-2v-4.45c0-1.1,.41-2,.92-2s.92,.9,.92,2v4.45c0,1.1-.41,2-.92,2Z"/>
        <path class="cls-2" d="M407.86,134.73c-.51,0-.92-.9-.92-2v-4.45c0-1.1,.41-2,.92-2s.92,.9,.92,2v4.45c0,1.1-.41,2-.92,2Z"/>
        <path class="cls-2" d="M423.67,134.73c-.51,0-.92-.9-.92-2v-2.22c0-1.1,.41-2,.92-2s.92,.9,.92,2v2.22c0,1.1-.41,2-.92,2Z"/>
        <path class="cls-2" d="M443.43,134.73c-.51,0-.92-.9-.92-2v-2.22c0-1.1,.41-2,.92-2s.92,.9,.92,2v2.22c0,1.1-.41,2-.92,2Z"/>
        <path class="cls-2" d="M458.67,134.73c-.51,0-.92-.9-.92-2v-2.96c0-1.1,.41-2,.92-2s.92,.9,.92,2v2.96c0,1.1-.41,2-.92,2Z"/>
        <path class="cls-2" d="M549.56,134.73c-.51,0-.92-.9-.92-2v-2.96c0-1.1,.41-2,.92-2s.92,.9,.92,2v2.96c0,1.1-.41,2-.92,2Z"/>
        <path class="cls-2" d="M415.76,134.73c-.51,0-.92-.9-.92-2v-3.7c0-1.1,.41-2,.92-2s.92,.9,.92,2v3.7c0,1.1-.41,2-.92,2Z"/>
        <path class="cls-2" d="M388.1,134.73c-.51,0-.92-.9-.92-2v-2.22c0-1.1,.41-2,.92-2s.92,.9,.92,2v2.22c0,1.1-.41,2-.92,2Z"/>
        <path class="cls-2" d="M403.91,134.73c-.51,0-.92-.9-.92-2v-2.22c0-1.1,.41-2,.92-2s.92,.9,.92,2v2.22c0,1.1-.41,2-.92,2Z"/>
        <path class="cls-2" d="M419.72,134.73c-.51,0-.92-.9-.92-2v-2.22c0-1.1,.41-2,.92-2s.92,.9,.92,2v2.22c0,1.1-.41,2-.92,2Z"/>
        <path class="cls-2" d="M427.62,134.73c-.51,0-.92-.9-.92-2v-3.7c0-1.1,.41-2,.92-2s.92,.9,.92,2v3.7c0,1.1-.41,2-.92,2Z"/>
        <path class="cls-2" d="M352.54,134.73c-.51,0-.92-.9-.92-2v-5.93c0-1.1,.41-2,.92-2s.92,.9,.92,2v5.93c0,1.1-.41,2-.92,2Z"/>
        <path class="cls-2" d="M380.2,134.73c-.51,0-.92-.9-.92-2v-7.41c0-1.1,.41-2,.92-2s.92,.9,.92,2v7.41c0,1.1-.41,2-.92,2Z"/>
        <path class="cls-2" d="M396.01,134.73c-.51,0-.92-.9-.92-2v-9.63c0-1.1,.41-2,.92-2s.92,.9,.92,2v9.63c0,1.1-.41,2-.92,2Z"/>
        <path class="cls-2" d="M435.52,134.73c-.51,0-.92-.9-.92-2v-9.63c0-1.1,.41-2,.92-2s.92,.9,.92,2v9.63c0,1.1-.41,2-.92,2Z"/>
        <path class="cls-2" d="M447.38,134.73c-.51,0-.92-.9-.92-2v-8.15c0-1.1,.41-2,.92-2s.92,.9,.92,2v8.15c0,1.1-.41,2-.92,2Z"/>
        <path class="cls-2" d="M466.57,134.73c-.51,0-.92-.9-.92-2v-9.63c0-1.1,.41-2,.92-2s.92,.9,.92,2v9.63c0,1.1-.41,2-.92,2Z"/>
        <path class="cls-2" d="M470.52,134.73c-.51,0-.92-.9-.92-2v-36.3c0-1.1,.41-2,.92-2s.92,.9,.92,2v36.3c0,1.1-.41,2-.92,2Z"/>
        <path class="cls-2" d="M474.48,134.73c-.51,0-.92-.9-.92-2v-55.57c0-1.1,.41-2,.92-2s.92,.9,.92,2v55.57c0,1.1-.41,2-.92,2Z"/>
        <path class="cls-2" d="M478.43,134.73c-.51,0-.92-.9-.92-2v-59.27c0-1.1,.41-2,.92-2s.92,.9,.92,2v59.27c0,1.1-.41,2-.92,2Z"/>
        <path class="cls-2" d="M482.38,134.73c-.51,0-.92-.9-.92-2v-14.82c0-1.1,.41-2,.92-2s.92,.9,.92,2v14.82c0,1.1-.41,2-.92,2Z"/>
        <path class="cls-2" d="M486.33,134.73c-.51,0-.92-.9-.92-2v-9.63c0-1.1,.41-2,.92-2s.92,.9,.92,2v9.63c0,1.1-.41,2-.92,2Z"/>
        <path class="cls-2" d="M490.28,134.73c-.51,0-.92-.9-.92-2v-20c0-1.1,.41-2,.92-2s.92,.9,.92,2v20c0,1.1-.41,2-.92,2Z"/>
        <path class="cls-2" d="M494.24,134.73c-.51,0-.92-.9-.92-2v-5.93c0-1.1,.41-2,.92-2s.92,.9,.92,2v5.93c0,1.1-.41,2-.92,2Z"/>
        <path class="cls-2" d="M498.19,134.73c-.51,0-.92-.9-.92-2v-9.63c0-1.1,.41-2,.92-2s.92,.9,.92,2v9.63c0,1.1-.41,2-.92,2Z"/>
        <path class="cls-2" d="M506.09,134.73c-.51,0-.92-.9-.92-2v-5.93c0-1.1,.41-2,.92-2s.92,.9,.92,2v5.93c0,1.1-.41,2-.92,2Z"/>
        <path class="cls-2" d="M510.04,134.73c-.51,0-.92-.9-.92-2v-9.63c0-1.1,.41-2,.92-2s.92,.9,.92,2v9.63c0,1.1-.41,2-.92,2Z"/>
        <path class="cls-2" d="M513.99,134.73c-.51,0-.92-.9-.92-2v-14.08c0-1.1,.41-2,.92-2s.92,.9,.92,2v14.08c0,1.1-.41,2-.92,2Z"/>
        <path class="cls-2" d="M517.95,134.73c-.51,0-.92-.9-.92-2v-20c0-1.1,.41-2,.92-2s.92,.9,.92,2v20c0,1.1-.41,2-.92,2Z"/>
        <path class="cls-2" d="M521.9,134.73c-.51,0-.92-.9-.92-2v-11.11c0-1.1,.41-2,.92-2s.92,.9,.92,2v11.11c0,1.1-.41,2-.92,2Z"/>
        <path class="cls-2" d="M525.85,134.73c-.51,0-.92-.9-.92-2v-29.64c0-1.1,.41-2,.92-2s.92,.9,.92,2v29.64c0,1.1-.41,2-.92,2Z"/>
        <path class="cls-2" d="M529.8,134.73c-.51,0-.92-.9-.92-2v-39.27c0-1.1,.41-2,.92-2s.92,.9,.92,2v39.27c0,1.1-.41,2-.92,2Z"/>
        <path class="cls-2" d="M533.75,134.73c-.51,0-.92-.9-.92-2v-25.19c0-1.1,.41-2,.92-2s.92,.9,.92,2v25.19c0,1.1-.41,2-.92,2Z"/>
        <path class="cls-2" d="M537.7,134.73c-.51,0-.92-.9-.92-2v-16.3c0-1.1,.41-2,.92-2s.92,.9,.92,2v16.3c0,1.1-.41,2-.92,2Z"/>
        <path class="cls-2" d="M541.66,134.73c-.51,0-.92-.9-.92-2v-8.15c0-1.1,.41-2,.92-2s.92,.9,.92,2v8.15c0,1.1-.41,2-.92,2Z"/>
        <path class="cls-2" d="M553.51,134.73c-.51,0-.92-.9-.92-2v-12.6c0-1.1,.41-2,.92-2s.92,.9,.92,2v12.6c0,1.1-.41,2-.92,2Z"/>
        <path class="cls-2" d="M557.46,134.73c-.51,0-.92-.9-.92-2v-4.45c0-1.1,.41-2,.92-2s.92,.9,.92,2v4.45c0,1.1-.41,2-.92,2Z"/>
        <path class="cls-2" d="M561.41,134.73c-.51,0-.92-.9-.92-2v-6.67c0-1.1,.41-2,.92-2s.92,.9,.92,2v6.67c0,1.1-.41,2-.92,2Z"/>
        <path class="cls-2" d="M565.37,134.73c-.51,0-.92-.9-.92-2v-19.26c0-1.1,.41-2,.92-2s.92,.9,.92,2v19.26c0,1.1-.41,2-.92,2Z"/>
        <path class="cls-2" d="M569.32,134.73c-.51,0-.92-.9-.92-2v-46.68c0-1.1,.41-2,.92-2s.92,.9,.92,2v46.68c0,1.1-.41,2-.92,2Z"/>
        <path class="cls-2" d="M573.27,134.73c-.51,0-.92-.9-.92-2v-54.09c0-1.1,.41-2,.92-2s.92,.9,.92,2v54.09c0,1.1-.41,2-.92,2Z"/>
        <path class="cls-2" d="M577.22,134.73c-.51,0-.92-.9-.92-2v-40.75c0-1.1,.41-2,.92-2s.92,.9,.92,2v40.75c0,1.1-.41,2-.92,2Z"/>
        <path class="cls-2" d="M581.17,134.73c-.51,0-.92-.9-.92-2v-8.15c0-1.1,.41-2,.92-2s.92,.9,.92,2v8.15c0,1.1-.41,2-.92,2Z"/>
        <path class="cls-2" d="M585.13,134.73c-.51,0-.92-.9-.92-2v-14.08c0-1.1,.41-2,.92-2s.92,.9,.92,2v14.08c0,1.1-.41,2-.92,2Z"/>
        <path class="cls-2" d="M589.08,134.73c-.51,0-.92-.9-.92-2v-2.22c0-1.1,.41-2,.92-2s.92,.9,.92,2v2.22c0,1.1-.41,2-.92,2Z"/>
        <path class="cls-2" d="M545.61,134.73c-.51,0-.92-.9-.92-2v-4.45c0-1.1,.41-2,.92-2s.92,.9,.92,2v4.45c0,1.1-.41,2-.92,2Z"/>
        <path class="cls-2" d="M502.14,134.73c-.51,0-.92-.9-.92-2v-1.48c0-1.1,.41-2,.92-2s.92,.9,.92,2v1.48c0,1.1-.41,2-.92,2Z"/>
        <path class="cls-2" d="M462.62,134.73c-.51,0-.92-.9-.92-2v-4.45c0-1.1,.41-2,.92-2s.92,.9,.92,2v4.45c0,1.1-.41,2-.92,2Z"/>
        <path class="cls-2" d="M439.48,134.73c-.51,0-.92-.9-.92-2v-5.93c0-1.1,.41-2,.92-2s.92,.9,.92,2v5.93c0,1.1-.41,2-.92,2Z"/>
        <path class="cls-2" d="M455.28,134.73c-.51,0-.92-.9-.92-2v-4.45c0-1.1,.41-2,.92-2s.92,.9,.92,2v4.45c0,1.1-.41,2-.92,2Z"/>
        <path class="cls-2" d="M364.39,134.73c-.51,0-.92-.9-.92-2v-3.7c0-1.1,.41-2,.92-2s.92,.9,.92,2v3.7c0,1.1-.41,2-.92,2Z"/>
        <path class="cls-2" d="M348.59,134.73c-.51,0-.92-.9-.92-2v-2.22c0-1.1,.41-2,.92-2s.92,.9,.92,2v2.22c0,1.1-.41,2-.92,2Z"/>
        <path class="cls-2" d="M368.34,134.73c-.51,0-.92-.9-.92-2v-2.22c0-1.1,.41-2,.92-2s.92,.9,.92,2v2.22c0,1.1-.41,2-.92,2Z"/>
        <path class="cls-2" d="M336.73,134.73c-.51,0-.92-.9-.92-2v-16.3c0-1.1,.41-2,.92-2s.92,.9,.92,2v16.3c0,1.1-.41,2-.92,2Z"/>
        <path class="cls-2" d="M360.44,134.73c-.51,0-.92-.9-.92-2v-11.85c0-1.1,.41-2,.92-2s.92,.9,.92,2v11.85c0,1.1-.41,2-.92,2Z"/>
        <path class="cls-2" d="M451.33,134.73c-.51,0-.92-.9-.92-2v-12.6c0-1.1,.41-2,.92-2s.92,.9,.92,2v12.6c0,1.1-.41,2-.92,2Z"/>
        <path class="cls-2" d="M411.81,134.73c-.51,0-.92-.9-.92-2v-16.3c0-1.1,.41-2,.92-2s.92,.9,.92,2v16.3c0,1.1-.41,2-.92,2Z"/>
        <path class="cls-2" d="M324.87,134.73c-.51,0-.92-.9-.92-2v-28.15c0-1.1,.41-2,.92-2s.92,.9,.92,2v28.15c0,1.1-.41,2-.92,2Z"/>
        <path class="cls-2" d="M332.78,134.73c-.51,0-.92-.9-.92-2v-36.3c0-1.1,.41-2,.92-2s.92,.9,.92,2v36.3c0,1.1-.41,2-.92,2Z"/>
        <path class="cls-2" d="M328.83,134.73c-.51,0-.92-.9-.92-2V66.79c0-1.1,.41-2,.92-2s.92,.9,.92,2v65.94c0,1.1-.41,2-.92,2Z"/>
      </g>
    </g>
    <g>
      <path class="cls-2" d="M659.22,111.4v-7.63h23.98v7.63h-23.98Z"/>
      <path class="cls-2" d="M703.83,75.91h10.3v52.56h-10.3v-41.54h-.14l-14.04,10.8v-11.02l14.18-10.8Z"/>
      <path class="cls-2" d="M740.37,120.19v.14h21.17v8.14h-34.56v-8.14c9.65-7.54,16.07-13.28,19.26-17.24,3.19-3.96,4.79-7.81,4.79-11.56,0-5.33-2.86-7.99-8.57-7.99-4.18,0-8.98,1.37-14.4,4.1v-9.36c4.75-2.06,10.03-3.1,15.84-3.1s9.94,1.34,12.96,4.03c3.02,2.69,4.54,6.46,4.54,11.3,0,4.51-1.43,8.86-4.28,13.03-2.86,4.18-8.44,9.72-16.74,16.63Z"/>
      <path class="cls-2" d="M774.96,78.82c3.26-2.42,7.8-3.64,13.61-3.64s10.34,1.21,13.61,3.64c3.26,2.42,4.9,5.6,4.9,9.54,0,5.04-3,8.93-9,11.66v.14c7.1,2.69,10.66,7.32,10.66,13.9,0,4.61-1.78,8.28-5.33,11.02-3.55,2.74-8.5,4.1-14.83,4.1s-11.28-1.37-14.83-4.1c-3.55-2.74-5.33-6.41-5.33-11.02,0-2.69,.88-5.15,2.63-7.38,1.75-2.23,4.36-4.07,7.81-5.51v-.14c-2.79-1.39-4.94-3.19-6.48-5.4-1.54-2.21-2.3-4.63-2.3-7.27,0-3.94,1.63-7.12,4.9-9.54Zm12.82,25.6c-6.48,1.97-9.72,5.02-9.72,9.14,0,2.5,.96,4.5,2.88,6.01,1.92,1.51,4.46,2.27,7.63,2.27s5.68-.76,7.52-2.27c1.85-1.51,2.77-3.52,2.77-6.01,0-2.21-.8-4.02-2.41-5.44-1.61-1.42-4.5-2.65-8.68-3.71Zm1.01-7.2c5.86-1.73,8.78-4.34,8.78-7.85,0-2.06-.79-3.72-2.38-4.97-1.58-1.25-3.79-1.87-6.62-1.87s-4.96,.62-6.52,1.87c-1.56,1.25-2.34,2.9-2.34,4.97,0,3.6,3.02,6.22,9.07,7.85Z"/>
      <path class="cls-2" d="M827.59,101.47h2.74v27h-2.59l-.04-2.66h-.07c-1.58,2.02-3.6,3.02-6.05,3.02-2.23,0-4.05-.87-5.45-2.61-1.4-1.74-2.11-4.11-2.11-7.11s.68-5.49,2.03-7.18c1.36-1.69,3.2-2.54,5.53-2.54s4.4,.94,5.94,2.81h.07v-10.73Zm-10.8,17.64c0,2.5,.47,4.38,1.42,5.65,.95,1.27,2.27,1.91,3.98,1.91,1.39,0,2.64-.49,3.74-1.46,1.1-.97,1.66-2.08,1.66-3.33v-5.54c0-1.22-.55-2.33-1.64-3.31-1.09-.98-2.35-1.48-3.76-1.48-3.6,0-5.4,2.52-5.4,7.56Z"/>
      <path class="cls-2" d="M852.1,108.38c0,1.44-.48,2.67-1.44,3.69-.96,1.02-2.28,1.71-3.96,2.07v.07c2.14,.31,3.77,1.03,4.9,2.16,1.13,1.13,1.69,2.58,1.69,4.36,0,2.62-.89,4.56-2.66,5.83-1.78,1.27-4.56,1.91-8.35,1.91h-6.01v-26.28h5.65c3.55,0,6.14,.51,7.76,1.53,1.62,1.02,2.43,2.57,2.43,4.66Zm-12.96,4.79h2.41c2.74,0,4.73-.37,5.98-1.12,1.25-.74,1.87-1.85,1.87-3.31,0-1.34-.51-2.38-1.53-3.11-1.02-.73-2.85-1.1-5.49-1.1h-3.24v8.64Zm0,2.3v10.66h3.6c2.66,0,4.62-.46,5.87-1.37,1.25-.91,1.87-2.34,1.87-4.28,0-1.73-.7-2.99-2.09-3.8-1.39-.8-3.67-1.21-6.84-1.21h-2.41Z"/>
      <path class="cls-2" d="M857.57,109.75h2.7v11.27c0,2.16,.32,3.64,.97,4.45,.65,.8,1.68,1.21,3.1,1.21,1.3,0,2.52-.56,3.67-1.67,1.15-1.12,1.73-2.33,1.73-3.65v-11.59h2.77v18.72h-2.59l-.04-2.81h-.07c-1.66,2.11-3.72,3.17-6.19,3.17-2.09,0-3.62-.58-4.59-1.73-.97-1.15-1.46-3.06-1.46-5.72v-11.63Z"/>
    </g>
    <g>
      <path class="cls-2" d="M102.13,94.41c5.18,0,9.2,1.42,12.06,4.25,2.86,2.83,4.28,6.84,4.28,12.02,0,12.34-7.03,18.5-21.1,18.5-4.8,0-9.24-.77-13.32-2.3v-8.86c5.04,2.02,9.38,3.02,13.03,3.02,7.63,0,11.45-3.46,11.45-10.37,0-5.71-2.76-8.57-8.28-8.57-2.88,0-5.38,.98-7.49,2.95h-8.64l1.44-29.16h30.67v8.14h-21.53l-.58,12.17h.14c2.4-1.2,5.01-1.8,7.85-1.8Z"/>
      <path class="cls-2" d="M131.83,78.82c3.26-2.42,7.8-3.64,13.61-3.64s10.34,1.21,13.61,3.64c3.26,2.42,4.9,5.6,4.9,9.54,0,5.04-3,8.93-9,11.66v.14c7.1,2.69,10.66,7.32,10.66,13.9,0,4.61-1.78,8.28-5.33,11.02-3.55,2.74-8.5,4.1-14.83,4.1s-11.28-1.37-14.83-4.1c-3.55-2.74-5.33-6.41-5.33-11.02,0-2.69,.88-5.15,2.63-7.38,1.75-2.23,4.36-4.07,7.81-5.51v-.14c-2.79-1.39-4.94-3.19-6.48-5.4-1.54-2.21-2.3-4.63-2.3-7.27,0-3.94,1.63-7.12,4.9-9.54Zm12.82,25.6c-6.48,1.97-9.72,5.02-9.72,9.14,0,2.5,.96,4.5,2.88,6.01,1.92,1.51,4.46,2.27,7.63,2.27s5.68-.76,7.52-2.27c1.85-1.51,2.77-3.52,2.77-6.01,0-2.21-.8-4.02-2.41-5.44-1.61-1.42-4.5-2.65-8.68-3.71Zm1.01-7.2c5.86-1.73,8.78-4.34,8.78-7.85,0-2.06-.79-3.72-2.38-4.97-1.58-1.25-3.79-1.87-6.62-1.87s-4.96,.62-6.52,1.87c-1.56,1.25-2.34,2.9-2.34,4.97,0,3.6,3.02,6.22,9.07,7.85Z"/>
      <path class="cls-2" d="M184.47,101.47h2.74v27h-2.59l-.04-2.66h-.07c-1.58,2.02-3.6,3.02-6.05,3.02-2.23,0-4.05-.87-5.45-2.61-1.4-1.74-2.11-4.11-2.11-7.11s.68-5.49,2.03-7.18c1.36-1.69,3.2-2.54,5.53-2.54s4.4,.94,5.94,2.81h.07v-10.73Zm-10.8,17.64c0,2.5,.47,4.38,1.42,5.65,.95,1.27,2.27,1.91,3.98,1.91,1.39,0,2.64-.49,3.74-1.46,1.1-.97,1.66-2.08,1.66-3.33v-5.54c0-1.22-.55-2.33-1.64-3.31-1.09-.98-2.35-1.48-3.76-1.48-3.6,0-5.4,2.52-5.4,7.56Z"/>
      <path class="cls-2" d="M208.97,108.38c0,1.44-.48,2.67-1.44,3.69-.96,1.02-2.28,1.71-3.96,2.07v.07c2.14,.31,3.77,1.03,4.9,2.16,1.13,1.13,1.69,2.58,1.69,4.36,0,2.62-.89,4.56-2.66,5.83-1.78,1.27-4.56,1.91-8.35,1.91h-6.01v-26.28h5.65c3.55,0,6.14,.51,7.76,1.53,1.62,1.02,2.43,2.57,2.43,4.66Zm-12.96,4.79h2.41c2.74,0,4.73-.37,5.98-1.12,1.25-.74,1.87-1.85,1.87-3.31,0-1.34-.51-2.38-1.53-3.11-1.02-.73-2.85-1.1-5.49-1.1h-3.24v8.64Zm0,2.3v10.66h3.6c2.66,0,4.62-.46,5.87-1.37,1.25-.91,1.87-2.34,1.87-4.28,0-1.73-.7-2.99-2.09-3.8-1.39-.8-3.67-1.21-6.84-1.21h-2.41Z"/>
    </g>
  </g>
</svg>