<?xml version="1.0" encoding="UTF-8"?>
<svg xmlns="http://www.w3.org/2000/svg" width="1200" height="200" viewBox="0 0 1200 200">
  <defs>
    <style>
      .cls-1 {
        fill: #f9fdfb;
      }

      .cls-2 {
        fill: #fafafa;
      }

      .cls-3 {
        fill: #dbf0e9;
      }

      .cls-4 {
        fill: #43b489;
      }
    </style>
  </defs>
  <g id="circle">
    <circle class="cls-3" cx="600" cy="85" r="75"/>
    <circle class="cls-3" cx="850" cy="85" r="75"/>
    <circle class="cls-3" cx="350" cy="85" r="75"/>
    <circle class="cls-3" cx="1100" cy="85" r="75"/>
    <circle class="cls-3" cx="100" cy="85" r="75"/>
  </g>
  <g id="icon">
    <path class="cls-4" d="M800.62,32.81l3.31-3.51c.58-.62,.56-1.59-.06-2.17-.62-.58-1.59-.55-2.17,.06l-3.19,3.38-3.19-3.38c-.58-.62-1.55-.65-2.17-.06-.62,.58-.64,1.55-.06,2.17l3.31,3.51-3.31,3.51c-.58,.62-.56,1.59,.06,2.17,.3,.28,.68,.42,1.05,.42,.41,0,.81-.16,1.11-.48l3.19-3.38,3.19,3.38c.3,.32,.71,.48,1.11,.48,.38,0,.76-.14,1.05-.42,.62-.58,.64-1.55,.06-2.17l-3.31-3.51Z"/>
    <path id="Path_5015" data-name="Path 5015" class="cls-4" d="M779.83,37.31l4.87-5.33c1.75-1.53,2.84-3.68,3.05-6,.07-3.23-2.49-5.91-5.72-5.98-.17,0-.35,0-.52,.01-1.88,.24-3.61,1.15-4.88,2.55-1.2,1.32,.12,2.9,1.7,2.16,.29-.15,1.41-1.84,3.05-1.84,1.72-.11,3.21,1.2,3.31,2.92,0,.05,0,.1,0,.15-.35,1.95-1.39,3.7-2.95,4.93,0,0-4.62,5.51-5.5,6.43-.72,.61-.81,1.68-.2,2.4,.16,.19,.35,.34,.57,.44h11.37c2.51-.11,2.01-2.96,0-2.84h-8.17Z"/>
    <path class="cls-4" d="M300.62,32.81l3.31-3.51c.58-.62,.56-1.59-.06-2.17-.61-.58-1.59-.56-2.17,.06l-3.19,3.38-3.19-3.38c-.58-.62-1.55-.65-2.17-.06-.62,.58-.64,1.55-.06,2.17l3.31,3.51-3.31,3.51c-.58,.62-.56,1.59,.06,2.17,.3,.28,.68,.42,1.05,.42,.41,0,.81-.16,1.11-.48l3.19-3.38,3.19,3.38c.3,.32,.71,.48,1.11,.48,.38,0,.76-.14,1.05-.42,.62-.58,.64-1.55,.06-2.17l-3.31-3.51Z"/>
    <path id="Path_5015-2" data-name="Path 5015" class="cls-4" d="M279.83,37.31l4.87-5.33c1.75-1.53,2.84-3.68,3.05-6,.07-3.23-2.49-5.91-5.72-5.98-.17,0-.35,0-.52,.01-1.88,.24-3.61,1.15-4.88,2.55-1.2,1.32,.12,2.9,1.7,2.16,.29-.15,1.41-1.84,3.05-1.84,1.72-.11,3.21,1.2,3.31,2.92,0,.05,0,.1,0,.15-.35,1.95-1.39,3.7-2.95,4.93,0,0-4.62,5.51-5.5,6.43-.72,.61-.81,1.68-.2,2.4,.16,.19,.35,.34,.57,.44h11.37c2.51-.11,2.01-2.96,0-2.84h-8.17Z"/>
    <path class="cls-4" d="M390.78,41.25c.28-1.68,.47-2.79-.54-3.58-.94-.74-2.02-.35-3,.06-.15,.03-.3,.07-.45,.14-.65,.32-1.93,.95-3.44,1.69-3.28,1.6-7.36,3.59-8.81,4.37-.9,.45-1.55,1.51-1.34,2.56-.01,.29-.07,.57-.15,.84l-10.35,10.76-23.16,23.16s-.01,.02-.02,.03c-1.1,.89-2.25,.69-2.84,.49-.86-.29-1.33-.82-1.4-.96,.22-1.15,.75-2.19,1.54-3.02,1.23-1.23,1.8-2.44,1.69-3.6-.06-.62-.33-1.51-1.34-2.21l-.23-.13c-1.52-.74-3.26-.75-4.79-.04-2.42,.87-4.83,3.98-6.3,6.65-.54,1.01-1.06,2.08-1.55,3.11-1.2,2.51-2.45,5.12-4.22,6.89-.83,.83-2.36,1.23-4.28,1.74-3.25,.85-7.69,2.02-12,6.33l-.11,.12c-1.86,2.28-2.75,5.15-2.52,8.01,.17,4.88,2.54,9.35,7.68,14.5,3.61,3.61,7.72,6.19,11.56,7.26,1.38,.39,2.71,.58,3.97,.58,3.02,0,5.67-1.09,7.81-3.23,3.71-3.71,4.35-7.41,4.87-10.39,.35-2.02,.63-3.61,1.76-4.74,.82-.82,2.19-1.41,3.78-2.08,2.14-.91,4.56-1.94,6.59-3.97,1.94-1.94,2.41-4.09,1.33-6.04l-.12-.25-.2-.2c-1.5-1.5-3.56-.52-5.38,.35-1.9,.9-3.3,1.49-3.98,.8-.58-.58-1.8-1.8,1.44-5.03,.13-.13,.22-.29,.3-.45l35.83-37.67c1.08-.49,2.24-.74,3.48-.72,.73,0,1.12-.3,1.45-.63l.24-.31c1.67-2.77,3.74-5.26,6.11-7.35,1.09-.88,1.02-2.1,.97-2.76-.01-.16-.03-.39-.01-.46l.12-.61Z"/>
    <path class="cls-4" d="M1131.65,83.23c1.13,0,2.05-.92,2.05-2.05s-.92-2.05-2.05-2.05h-8.63v-4.06h8.63c1.13,0,2.05-.92,2.05-2.05s-.92-2.05-2.05-2.05h-8.63v-3.61c0-2.71-2.2-4.91-4.91-4.91h-3.59v-8.61c0-1.13-.92-2.05-2.05-2.05s-2.05,.92-2.05,2.05v8.61h-4.06v-8.61c0-1.13-.92-2.05-2.05-2.05s-2.05,.92-2.05,2.05v8.61h-4.05v-8.61c0-1.13-.92-2.05-2.05-2.05s-2.05,.92-2.05,2.05v8.61h-4.06v-8.61c0-1.13-.92-2.05-2.05-2.05s-2.05,.92-2.05,2.05v8.61h-3.63c-2.71,0-4.91,2.2-4.91,4.91v3.61h-8.58c-1.13,0-2.05,.92-2.05,2.05s.92,2.05,2.05,2.05h8.58v4.06h-8.58c-1.13,0-2.05,.92-2.05,2.05s.92,2.05,2.05,2.05h8.58v4.05h-8.58c-1.13,0-2.05,.92-2.05,2.05s.92,2.05,2.05,2.05h8.58v4.06h-8.58c-1.13,0-2.05,.92-2.05,2.05s.92,2.05,2.05,2.05h8.58v3.62c0,2.71,2.2,4.91,4.91,4.91h3.63v8.61c0,1.13,.92,2.04,2.05,2.04s2.05-.92,2.05-2.04v-8.61h4.06v8.61c0,1.13,.92,2.04,2.05,2.04s2.05-.92,2.05-2.04v-8.61h4.05v8.61c0,1.13,.92,2.04,2.05,2.04s2.05-.92,2.05-2.04v-8.61h4.06v8.61c0,1.13,.92,2.04,2.05,2.04s2.05-.92,2.05-2.04v-8.61h3.59c2.71,0,4.91-2.2,4.91-4.91v-3.62h8.63c1.13,0,2.05-.92,2.05-2.05s-.92-2.05-2.05-2.05h-8.63v-4.06h8.63c1.13,0,2.05-.92,2.05-2.05s-.92-2.05-2.05-2.05h-8.63v-4.05h8.63Z"/>
    <rect id="Rectangle_2304-2" data-name="Rectangle 2304-2" class="cls-2" x="1085.21" y="70.49" width="30.08" height="30.08" rx="4.91" ry="4.91"/>
    <rect id="Rectangle_2304-3" data-name="Rectangle 2304-3" class="cls-4" x="1090.12" y="75.4" width="20.26" height="20.26" rx="3.27" ry="3.27"/>
    <path class="cls-4" d="M35.94,30.37v-.08c1.93-.78,3.2-2.63,3.24-4.7,0-3.21-2.72-5.58-6.75-5.58s-6.82,2.38-6.82,5.58c.04,2.06,1.3,3.91,3.2,4.7v.06c-2.38,.78-4.02,2.97-4.09,5.47,0,3.49,3.12,6.07,7.7,6.07s7.65-2.58,7.65-6.07c-.07-2.51-1.73-4.69-4.12-5.44Zm-7.25-4.18c-.01-.09-.02-.19-.02-.28,.08-1.84,1.63-3.26,3.47-3.18,.09,0,.17,.01,.26,.02,1.79-.22,3.43,1.06,3.64,2.85,.01,.1,.02,.2,.02,.3-.04,1.8-1.54,3.23-3.34,3.18-.11,0-.22-.01-.33-.02-1.81,.23-3.47-1.06-3.7-2.87Zm3.99,12.83c-.09,0-.17-.01-.26-.02-2.63,0-4.44-1.52-4.44-3.61,0-1.98,1.69-3.49,4.41-3.49s4.41,1.52,4.41,3.49c-.14,2.14-1.98,3.77-4.12,3.63Z"/>
    <path class="cls-4" d="M51.55,34.13l3.31-3.51c.58-.62,.55-1.59-.06-2.17-.62-.58-1.59-.56-2.17,.06l-3.19,3.38-3.19-3.38c-.58-.62-1.55-.65-2.17-.06-.62,.58-.64,1.55-.06,2.17l3.31,3.51-3.31,3.51c-.58,.62-.55,1.59,.06,2.17,.3,.28,.68,.42,1.05,.42,.41,0,.81-.16,1.12-.48l3.19-3.38,3.19,3.38c.3,.32,.71,.48,1.12,.48,.38,0,.76-.14,1.05-.42,.62-.58,.64-1.55,.06-2.17l-3.31-3.51Z"/>
    <circle id="Ellipse_143" data-name="Ellipse 143" class="cls-4" cx="99.52" cy="86.33" r="25.02"/>
    <path class="cls-4" d="M82.21,49.62c-.78-1.11-2.31-1.38-3.42-.6-1.11,.78-1.38,2.31-.6,3.42l3.54,5.05c.48,.68,1.24,1.04,2.01,1.04,.49,0,.98-.14,1.41-.45,1.11-.78,1.38-2.31,.6-3.42l-3.54-5.05Z"/>
    <path class="cls-4" d="M73.14,66.09l-5.05-3.54c-1.11-.78-2.64-.51-3.42,.6-.78,1.11-.51,2.64,.6,3.42l5.05,3.54c.43,.3,.92,.45,1.41,.45,.77,0,1.53-.36,2.01-1.04,.78-1.11,.51-2.64-.6-3.42Z"/>
    <path class="cls-4" d="M67.22,82.16h-6.55c-1.36,0-2.45,1.1-2.45,2.45s1.1,2.45,2.45,2.45h6.55c1.36,0,2.45-1.1,2.45-2.45s-1.1-2.45-2.45-2.45Z"/>
    <path class="cls-4" d="M121.21,50.52c-1.11-.78-2.64-.51-3.42,.6l-3.54,5.05c-.78,1.11-.51,2.64,.6,3.42,.43,.3,.92,.45,1.41,.45,.77,0,1.53-.36,2.01-1.04l3.54-5.05c.78-1.11,.51-2.64-.6-3.42Z"/>
    <path class="cls-4" d="M135.33,64.64c-.78-1.11-2.31-1.38-3.42-.6l-5.05,3.54c-1.11,.78-1.38,2.31-.6,3.42,.48,.68,1.24,1.04,2.01,1.04,.49,0,.98-.14,1.41-.45l5.05-3.54c1.11-.78,1.38-2.31,.6-3.42Z"/>
    <path class="cls-4" d="M139.33,83.66h-6.55c-1.36,0-2.45,1.1-2.45,2.45s1.1,2.45,2.45,2.45h6.55c1.36,0,2.45-1.1,2.45-2.45s-1.1-2.45-2.45-2.45Z"/>
    <path class="cls-4" d="M99.73,44.07c-1.36,0-2.45,1.1-2.45,2.45v6.55c0,1.36,1.1,2.45,2.45,2.45s2.45-1.1,2.45-2.45v-6.55c0-1.36-1.1-2.45-2.45-2.45Z"/>
    <path class="cls-1" d="M99.73,82.45c-1.36,0-2.45-1.1-2.45-2.45v-6.55c0-1.36,1.1-2.45,2.45-2.45s2.45,1.1,2.45,2.45v6.55c0,1.36-1.1,2.45-2.45,2.45Z"/>
    <path class="cls-4" d="M906.23,53.87c-.26-1.52-2.24-2.11-5.28-2.13-.07,0-.15,0-.22,0-.7,0-1.45,.03-2.25,.09-1.1,.08-2.3,.21-3.55,.37-1.05,.14-2.14,.3-3.27,.48-.77,.12-1.55,.25-2.34,.39-.19,.03-.37,.07-.56,.1-.5,.09-.99,.18-1.48,.27-.69,.13-1.37,.27-2.03,.41-3.29,.69-6.16,1.46-8.22,2.34-.34-.61-.91-1.03-1.56-1.19l.12-.3c-.8-.33-4.04-1.19-12.03,1.87-1.71,.66-3.19,1.29-4.02,1.72-3.4,1.7-5.28,3.23-5.75,4.66-.09,.28-.12,.56-.11,.84-.03,.35,0,.72,.14,1.08l2.49,6.76c-1.6-.36-3.26-.55-4.97-.55s-3.29,.18-4.85,.52l2.48-6.74c.06-.17,.1-.35,.13-.52,.37-.6,.5-1.35,.27-2.08-.46-1.45-2.34-2.97-5.74-4.67-.94-.48-2.45-1.12-4.03-1.73-7.99-3.06-11.23-2.21-12.03-1.87l.39,.93c-1.03,0-2,.61-2.38,1.63l-1.7,4.67c-2.86-1.25-7.15-2.25-11.98-3.1-5.62-.99-10.63-1.59-13.73-1.08-.04,0-.08,.02-.13,.03-1.79,.32-2.92,1.02-3.13,2.25-.19,1.12,.49,2.09,1.79,2.95-1.01,.39-1.64,1-1.79,1.89-.54,3.16,5.7,5.11,13.89,6.65,.14,.03,.29,.05,.44,.08v10.9c-2.96,.52-4.89,1.3-5.72,2.33-.43,.53-.6,1.19-.54,1.82,0,.03,0,.05,0,.08v15.73s.01,.09,.01,.13c-.05,.62,.12,1.25,.54,1.77,1.09,1.35,4.01,2.26,8.67,2.72,.32,.03,.69,.06,1.09,.09l-1.36,1.45c-.95,1.01-.9,2.59,.11,3.53,.48,.45,1.1,.68,1.71,.68,.67,0,1.33-.26,1.82-.79l4.31-4.58c.06-.06,.1-.13,.15-.19,6.44-.17,9.64-1.11,11.21-1.9,.97,1.8,2.17,3.46,3.57,4.93l-4.48,4.48c-.98,.98-.98,2.56,0,3.54,.49,.49,1.13,.73,1.77,.73s1.28-.24,1.77-.73l4.77-4.77c3.63,2.44,8.01,3.87,12.71,3.87s8.86-1.36,12.44-3.69l4.5,4.58c.49,.5,1.14,.75,1.78,.75s1.26-.24,1.75-.72c.99-.97,1-2.55,.03-3.54l-4.19-4.27c1.47-1.5,2.74-3.21,3.75-5.07,1.63,.77,4.82,1.64,11.01,1.8,.05,.06,.09,.13,.15,.19l4.31,4.58c.49,.52,1.16,.79,1.82,.79,.61,0,1.23-.22,1.71-.68,1.01-.95,1.05-2.53,.11-3.53l-1.36-1.45c.4-.03,.76-.05,1.08-.09,4.67-.46,7.59-1.37,8.68-2.71,.42-.52,.59-1.16,.54-1.77,0-.04,.01-.09,.01-.13v-15.73c0-.78-.37-1.47-.93-1.93l.18-.19c-.53-.51-1.94-1.45-5.52-2.08v-21.91c7.19-1.39,12.69-3.08,13.05-5.5,.03-.18,.02-.37,0-.56Zm-44.42,8.89c.53-.28,1.74-.82,3.54-1.51,4.01-1.54,6.37-1.87,7.55-1.91l2.53,6.94c-.52,.37-1.36,.91-2.73,1.59-.62,.31-1.88,.88-3.55,1.52-4.4,1.69-6.66,1.99-7.59,2.02l-2.57-6.99c.51-.38,1.37-.93,2.83-1.66Zm-30.59,20.38c-1.73-.88-5.47-1.94-13.4-1.94-1.25,0-2.5,.03-3.6,.08v-9.53c5.47,.79,9.94,.94,12.01-.25,.49,.28,1.02,.57,1.6,.86,.96,.48,2.46,1.13,4.01,1.72,2.24,.86,4.06,1.42,5.56,1.78-2.54,1.96-4.66,4.45-6.19,7.29Zm-1.08-24.49c1.14,.02,3.52,.32,7.66,1.91,1.68,.65,2.97,1.22,3.57,1.53,1.35,.67,2.19,1.2,2.71,1.58l-2.85,7.76c-.93-.03-3.19-.34-7.59-2.02-1.66-.63-2.92-1.2-3.57-1.52-1.36-.68-2.2-1.21-2.72-1.59l2.79-7.64Zm-1.24,41.67s.05-.07,.2-.17c-.02,.01-2.3,1.46-11.17,1.46-2.45,.03-4.33-.1-5.25-.19-2.46-.24-3.92-.58-4.72-.84v-13.34c.81-.26,2.26-.61,4.71-.85,.96-.09,2.83-.19,5.16-.19,8.94,0,11.24,1.46,11.26,1.47-.15-.1-.2-.17-.2-.17l.81-.83c-.76,2.28-1.18,4.71-1.18,7.24s.42,4.95,1.18,7.23l-.8-.82Zm22.44,11.41c-9.82,0-17.81-7.99-17.81-17.81s7.99-17.81,17.81-17.81,17.81,7.99,17.81,17.81-7.99,17.81-17.81,17.81Zm38.39-10.3c-.9,.09-2.72,.19-5.15,.19-8.93,.03-11.22-1.44-11.25-1.46,.15,.1,.2,.17,.2,.17l-.42,.43c.68-2.16,1.04-4.46,1.04-6.84,0-2.15-.3-4.24-.86-6.21,.06-.04,.12-.08,.17-.13,.25-.14,1.61-.79,5.54-1.18,.96-.09,2.83-.19,5.16-.19,5.96,0,8.96,.65,10.31,1.08v13.29c-.81,.26-2.27,.6-4.73,.84Zm-5.57-20.22c-2.13,0-4.23,.08-5.64,.21-3.23,.32-5.6,.87-7.12,1.61-1.52-2.79-3.6-5.22-6.09-7.15,1.52-.36,3.36-.93,5.64-1.8,1.57-.6,3.07-1.25,4.01-1.72,3.4-1.7,5.28-3.23,5.75-4.66,.12-.38,.14-.77,.08-1.14,0-.04-.01-.08-.02-.11-.02-.1-.04-.21-.08-.31-.01-.04-.01-.07-.03-.11l-1.57-4.31c2.47,.01,5.62-.34,9.12-.9v20.49c-1.21-.07-2.54-.11-4.04-.11Z"/>
    <g>
      <path class="cls-4" d="M600.23,100.09c6.75,0,12.3-5.11,13.01-11.67,.05-.47,.08-.94,.08-1.41v-23.96c0-.47-.03-.94-.08-1.39-.7-6.57-6.25-11.69-13.01-11.69-7.23,0-13.09,5.86-13.09,13.09v23.96c0,7.23,5.86,13.09,13.09,13.09Z"/>
      <path class="cls-4" d="M620.06,74.71h-.05c-1.34,0-2.43,1.07-2.46,2.41-.03,1.67-.19,10.05-.19,10.4-.03,1.29-.22,2.58-.55,3.75-.33,1.06-.75,2.1-1.28,3.13-.42,.86-.93,1.66-1.54,2.43-1.32,1.7-2.91,3.14-4.72,4.28-2.44,1.51-5.24,2.37-8.11,2.49h-.22c-.27,0-.52,0-.78,.01-.26,0-.52-.02-.78-.01h-.22c-2.87-.12-5.67-.98-8.1-2.48-1.82-1.15-3.41-2.59-4.75-4.32-.59-.74-1.1-1.55-1.54-2.43-.51-1-.94-2.04-1.24-3.02-.35-1.25-.54-2.54-.57-3.77,0-.41-.16-8.78-.19-10.46-.03-1.34-1.12-2.41-2.46-2.41h-.05c-1.36,.03-2.44,1.15-2.41,2.51,.08,3.97,.19,10.01,.19,10.42,.04,1.7,.29,3.39,.77,5.1,.41,1.33,.95,2.63,1.56,3.84,.57,1.17,1.27,2.28,2.07,3.27,1.67,2.16,3.69,3.99,6.02,5.45,2.82,1.75,6.03,2.82,9.32,3.14v5.52h-6.92c-1.36,0-2.46,1.1-2.46,2.46s1.1,2.46,2.46,2.46h18.77c1.36,0,2.46-1.1,2.46-2.46s-1.1-2.46-2.46-2.46h-6.92v-5.54c3.25-.34,6.4-1.41,9.19-3.14,2.31-1.45,4.33-3.28,5.98-5.42,.81-1.01,1.51-2.12,2.07-3.26,.64-1.25,1.17-2.55,1.6-3.95,.46-1.64,.71-3.33,.75-5.09,0-.35,.12-6.39,.19-10.36,.03-1.36-1.05-2.48-2.41-2.51Z"/>
    </g>
    <g>
      <path class="cls-4" d="M548.1,29.48v-.07c1.76-.71,2.92-2.4,2.96-4.3,0-2.93-2.49-5.1-6.17-5.1s-6.23,2.17-6.23,5.1c.04,1.89,1.19,3.57,2.92,4.3v.05c-2.17,.71-3.67,2.71-3.74,5,0,3.19,2.85,5.55,7.04,5.55s6.99-2.36,6.99-5.55c-.06-2.29-1.58-4.29-3.77-4.97Zm-6.63-3.82c-.01-.08-.02-.17-.02-.25,.07-1.68,1.49-2.98,3.17-2.91,.08,0,.16,0,.23,.02,1.64-.2,3.13,.97,3.33,2.61,.01,.09,.02,.18,.02,.27-.04,1.65-1.4,2.95-3.05,2.91-.1,0-.2,0-.3-.02-1.66,.21-3.17-.97-3.38-2.62Zm3.64,11.72c-.08,0-.16-.01-.24-.02-2.41,0-4.06-1.39-4.06-3.3,0-1.81,1.54-3.19,4.03-3.19s4.03,1.39,4.03,3.19c-.12,1.96-1.81,3.44-3.77,3.32Z"/>
      <path class="cls-4" d="M562.36,32.92l3.03-3.21c.53-.56,.51-1.45-.06-1.98-.56-.53-1.45-.51-1.98,.06l-2.92,3.09-2.92-3.09c-.53-.56-1.42-.59-1.98-.06-.56,.53-.59,1.42-.06,1.98l3.03,3.21-3.03,3.21c-.53,.56-.51,1.45,.06,1.98,.27,.26,.62,.38,.96,.38,.37,0,.74-.15,1.02-.44l2.92-3.09,2.92,3.09c.28,.29,.65,.44,1.02,.44,.35,0,.69-.13,.96-.38,.56-.53,.59-1.42,.06-1.98l-3.03-3.21Z"/>
    </g>
  </g>
  <g id="text">
    <g>
      <path class="cls-4" d="M79.67,157.44c-1.39,1.06-3.31,1.6-5.75,1.6s-4.36-.53-5.75-1.6c-1.39-1.06-2.09-2.49-2.09-4.28,0-1.08,.38-2.09,1.15-3.01,.77-.92,1.83-1.64,3.19-2.14v-.06c-1.16-.49-2.05-1.15-2.69-2-.63-.85-.95-1.81-.95-2.87,0-1.51,.63-2.73,1.9-3.65,1.27-.92,3.01-1.39,5.24-1.39s3.97,.46,5.24,1.39,1.9,2.14,1.9,3.65c0,2.09-1.21,3.62-3.64,4.59v.06c2.89,.95,4.34,2.76,4.34,5.43,0,1.79-.7,3.22-2.09,4.28Zm-9.37-1.78c.88,.64,2.08,.97,3.61,.97s2.72-.32,3.56-.97c.84-.64,1.26-1.53,1.26-2.65,0-1.98-1.65-3.29-4.96-3.92-1.57,.35-2.76,.88-3.57,1.57s-1.22,1.47-1.22,2.35c0,1.12,.44,2,1.32,2.65Zm3.61-15.22c-1.36,0-2.4,.25-3.11,.76-.71,.5-1.06,1.22-1.06,2.16,0,.78,.35,1.47,1.06,2.06,.71,.59,1.75,1.02,3.11,1.3,1.38-.3,2.44-.75,3.18-1.36,.74-.61,1.11-1.27,1.11-2,0-.9-.37-1.6-1.11-2.13-.74-.52-1.8-.78-3.18-.78Z"/>
      <path class="cls-4" d="M100.64,155.93v1.99h10.36v2.35h-23.74v-2.35h10.36v-1.99h-6.66v-1.23c-1.19,.63-2.46,1.19-3.81,1.65l-.95-2.38c2.09-.69,3.85-1.46,5.26-2.32,.35-.21,.71-.45,1.06-.73h-5.6v-2.32h4.17v-8.15h-3.89v-2.35h3.89v-2.38h2.97v2.38h10.14v-2.38h2.97v2.38h3.89v2.35h-3.89v8.15h4.17v2.32h-5.6c.35,.28,.71,.52,1.06,.73,1.42,.86,3.17,1.63,5.26,2.32l-.95,2.38c-1.34-.47-2.61-1.02-3.81-1.65v1.23h-6.66Zm4.96-2.27c-1.21-.82-2.27-1.74-3.16-2.74h-6.58c-1.01,1.1-2.06,2.02-3.16,2.74h4.93v-2.04h3.02v2.04h4.96Zm-11.54-11.79h10.14v-1.43h-10.14v1.43Zm0,1.93v1.43h10.14v-1.43h-10.14Zm0,3.36v1.43h10.14v-1.43h-10.14Z"/>
      <path class="cls-4" d="M128.11,156.79c2.09-.41,3.73-1.34,4.93-2.79,1.19-1.45,1.79-3.22,1.79-5.33,0-1.96-.63-3.58-1.9-4.86-1.27-1.28-2.94-2-5.01-2.17-.73,5.47-1.81,9.53-3.23,12.17-1.43,2.64-3.1,3.96-5.03,3.96-1.33,0-2.53-.73-3.63-2.2-1.09-1.47-1.64-3.25-1.64-5.36,0-3.32,1.16-6.02,3.49-8.09,2.32-2.07,5.39-3.11,9.2-3.11,3.14,0,5.71,.9,7.71,2.69,2.01,1.79,3.01,4.12,3.01,6.97s-.8,5.12-2.39,7.03c-1.6,1.9-3.76,3.11-6.48,3.61l-.81-2.52Zm-3.14-15.04c-2.37,.37-4.25,1.3-5.63,2.79s-2.07,3.33-2.07,5.53c0,1.38,.27,2.53,.8,3.44,.53,.92,1.08,1.37,1.64,1.37,.39,0,.81-.25,1.26-.74,.45-.49,.91-1.24,1.39-2.24,.48-1,.94-2.38,1.4-4.13,.46-1.75,.86-3.76,1.22-6.02Z"/>
      <path class="cls-4" d="M15.89,174.43v5.82h8.68v2.41H15.89v7.17h9.24v2.52H12.81v-20.44h12.32v2.52H15.89Z"/>
      <path class="cls-4" d="M30.74,171.91l5.68,17.36h.06l5.68-17.36h3.19l-7.28,20.44h-3.36l-7.28-20.44h3.3Z"/>
      <path class="cls-4" d="M48.66,174.49c1.83-1.9,4.27-2.86,7.34-2.86s5.51,.95,7.34,2.86c1.83,1.9,2.74,4.45,2.74,7.64s-.91,5.74-2.74,7.64c-1.83,1.9-4.27,2.86-7.34,2.86s-5.51-.95-7.34-2.86-2.74-4.45-2.74-7.64,.91-5.74,2.74-7.64Zm2.3,13.48c1.27,1.43,2.95,2.14,5.04,2.14s3.77-.71,5.04-2.14,1.9-3.37,1.9-5.84-.63-4.41-1.9-5.84c-1.27-1.43-2.95-2.14-5.04-2.14s-3.77,.71-5.04,2.14c-1.27,1.43-1.9,3.37-1.9,5.84s.63,4.41,1.9,5.84Z"/>
      <path class="cls-4" d="M67.99,175.22v-2.6h21.98v2.6c-1.7,4.24-5.28,7.9-10.75,10.98,1.14,1.59,2.33,3.38,3.58,5.38l-2.32,1.48c-2.56-4.09-5.34-7.89-8.34-11.4l2.18-1.71c1.12,1.33,2.19,2.65,3.22,3.98,4.67-2.71,7.72-5.61,9.16-8.71h-18.7Z"/>
      <path class="cls-4" d="M91.36,182.5c3.79-.82,7.41-2.21,10.85-4.16,3.44-1.95,6.41-4.29,8.89-7.01l2.1,1.93c-2.22,2.46-4.86,4.64-7.92,6.52v13.36h-3.02v-11.65c-3.25,1.68-6.66,2.89-10.25,3.64l-.64-2.63Z"/>
      <path class="cls-4" d="M116.79,193.05l-.53-2.58c4.85-.52,8.51-1.92,10.98-4.2,2.46-2.28,3.91-5.57,4.34-9.88h-9.49c-1.12,2.73-2.93,5.28-5.43,7.67l-1.93-1.76c3.36-3.36,5.35-7.25,5.96-11.68l2.8,.2c-.11,1.1-.29,2.12-.53,3.05h11.59v2.52c-.54,5.1-2.23,8.98-5.05,11.65-2.83,2.67-7.06,4.34-12.7,5.01Z"/>
      <path class="cls-4" d="M139.37,175.33v-2.58h16.1v-.28c0-1.08,.38-2.01,1.15-2.77,.77-.76,1.69-1.15,2.77-1.15s2.01,.38,2.77,1.15c.77,.77,1.15,1.69,1.15,2.77s-.38,2.01-1.15,2.77c-.77,.77-1.69,1.15-2.77,1.15h-.11c-.62,4.67-2.32,8.33-5.11,11-2.79,2.67-6.78,4.46-11.97,5.38l-.7-2.58c4.65-.88,8.19-2.54,10.64-4.98s3.86-5.74,4.26-9.88h-17.02Zm21.31-1.57c.35-.35,.53-.78,.53-1.29s-.18-.93-.53-1.29-.78-.53-1.29-.53-.93,.18-1.29,.53c-.35,.35-.53,.78-.53,1.29s.18,.93,.53,1.29c.35,.35,.78,.53,1.29,.53s.93-.18,1.29-.53Z"/>
      <path class="cls-4" d="M167.65,183.25v-11.62h2.94v11.62h-2.94Zm12.82-11.62h3v8.74c0,4.14-.99,7.23-2.98,9.27-1.99,2.03-5.32,3.31-10.01,3.84l-.53-2.55c4.05-.56,6.82-1.59,8.3-3.09,1.48-1.5,2.23-3.99,2.23-7.46v-8.74Z"/>
    </g>
    <g>
      <path class="cls-4" d="M1010.72,159.45l-.48-2.58c4.37-.52,7.66-1.92,9.88-4.2s3.52-5.57,3.91-9.88h-8.54c-1.01,2.73-2.64,5.28-4.89,7.67l-1.74-1.76c3.02-3.36,4.81-7.25,5.37-11.68l2.52,.2c-.1,1.1-.26,2.12-.48,3.05h10.43v2.52c-.49,5.1-2,8.98-4.55,11.65-2.54,2.67-6.35,4.34-11.43,5.01Z"/>
      <path class="cls-4" d="M1030.98,147.78v-2.52h19v2.52c-.69,3.55-2.15,6.27-4.37,8.16-2.23,1.9-5.46,3.16-9.71,3.79l-.48-2.49c3.61-.58,6.38-1.63,8.29-3.15,1.92-1.52,3.14-3.63,3.68-6.31h-16.41Zm2.07-6.8v-2.52h15.12v2.52h-15.12Z"/>
      <path class="cls-4" d="M1053.94,141.45v-2.58h14.99v2.58c-.97,2.86-2.5,5.6-4.56,8.23,2.62,2.73,4.97,5.27,7.06,7.64l-1.84,1.93c-2.4-2.72-4.71-5.25-6.93-7.59-3.06,3.3-6.43,5.76-10.11,7.36l-1.06-2.44c3.29-1.47,6.28-3.62,8.96-6.44s4.53-5.72,5.56-8.71h-12.07Z"/>
      <path class="cls-4" d="M1082.87,158.75c-2.89,.56-5.75,1.02-8.57,1.37l-.2-2.46c1.01-.11,1.73-.21,2.17-.28v-9.21h-1.92v-2.46h22.6v2.46h-11.62v12.99h-2.47v-2.41Zm-3.93-14.14h-2.67v-7.81h18.77v7.81h-16.1Zm3.93,3.56h-4.26v1.51h4.26v-1.51Zm-4.26,5.1h4.26v-1.51h-4.26v1.51Zm4.26,2.97v-.92h-4.26v1.71c.71-.11,2.12-.37,4.26-.78Zm-3.93-16.21h13.46v-1.04h-13.46v1.04Zm0,1.65v1.01h13.46v-1.01h-13.46Zm7.21,10v-2.46h9.63v2.46c-.64,1.87-1.55,3.48-2.72,4.84,1.12,.75,2.46,1.38,4.01,1.9l-.86,2.32c-1.83-.58-3.5-1.41-5.01-2.49-1.29,.99-2.85,1.82-4.66,2.49l-.91-2.32c1.41-.5,2.61-1.11,3.6-1.82-1.03-.99-1.95-2.19-2.77-3.61l1.54-1.32h-1.84Zm4.94,3.3c.96-1.04,1.69-2.15,2.19-3.3h-4.74c.76,1.31,1.6,2.41,2.54,3.3Z"/>
      <path class="cls-4" d="M1111.32,137.95h9.63v2.49h-21.97v-2.49h9.63v-2.24h2.72v2.24Zm9.02,10.86v7.73c0,.52-.02,1.05-.05,1.57-.04,.39-.08,.76-.15,1.09-.07,.32-.17,.55-.3,.7-.12,.13-.32,.26-.6,.39-.22,.09-.5,.16-.83,.2-.4,.04-.81,.06-1.21,.06s-1.45-.05-3.1-.14l-.1-1.93h-7.31v1.09h-2.47v-7.2h11.49v5.6c.27,.02,.55,.03,.86,.03,.59,0,.93-.06,1.03-.17,.1-.11,.15-.49,.15-1.12v-5.52h-15.57v9.41h-2.6v-11.79h20.76Zm-15.27-1.18h-2.65v-6.05h15.07v6.05h-12.42Zm0-2.07h9.78v-1.85h-9.78v1.85Zm1.61,10.78h6.55v-1.79h-6.55v1.79Z"/>
      <path class="cls-4" d="M1125.84,159.65v1.09h-2.65v-11.82h9.75v11.82h-2.6v-1.09h-4.51Zm4.51-2.27v-6.1h-4.51v6.1h4.51Zm-1.23-10.3h-2.72v-10.22h15.07v10.22h-12.35Zm9.63-2.27v-5.54h-9.63v5.54h9.63Zm-1.24,14.84v1.09h-2.59v-11.82h9.75v11.82h-2.65v-1.09h-4.51Zm4.51-2.27v-6.1h-4.51v6.1h4.51Z"/>
      <path class="cls-4" d="M1161.82,140.3h7.84v2.18h-3.1v2.27h.76v11.59h-4.03c2.3,.78,4.36,1.66,6.17,2.63l-1.16,2.21c-2.08-1.16-4.71-2.3-7.89-3.42l.55-1.43h-5.34l.58,1.2c-.86,.62-2.03,1.24-3.53,1.88-1.5,.63-3.03,1.16-4.61,1.57l-.91-2.3c2.55-.69,4.71-1.47,6.48-2.35h-4.36v-9.3c-.3,.45-.63,.87-.98,1.26l-1.31-2.83c.72-.93,1.27-2.07,1.64-3.42,.35-1.29,.53-2.86,.53-4.73,3.29-.07,6.27-.44,8.95-1.09l.6,2.27c-2.17,.5-4.55,.84-7.16,1.01,0,.09,0,.22-.01,.39,0,.17-.02,.3-.04,.39h7.18v2.18h-2.42v2.27h3.53l-1.76-.73c.52-.78,.89-1.68,1.11-2.69,.23-1.08,.35-2.42,.35-4,3.31-.09,6.28-.46,8.92-1.09l.6,2.27c-2.03,.49-4.4,.81-7.11,.98-.03,.37-.06,.64-.08,.81Zm-10.66,2.18c-.13,.6-.24,1.04-.33,1.32-.07,.22-.19,.54-.35,.95h3.25v-2.27h-2.57Zm.83,5.63h12.6v-1.18h-12.6v1.18Zm0,1.85v1.18h12.6v-1.18h-12.6Zm0,3.02v1.18h12.6v-1.18h-12.6Zm9.5-10.5c-.18,.84-.47,1.6-.86,2.27h3.4v-2.27h-2.55Z"/>
      <path class="cls-4" d="M1183.44,156.79c1.88-.41,3.36-1.34,4.44-2.79,1.07-1.45,1.61-3.22,1.61-5.33,0-1.96-.57-3.58-1.71-4.86-1.14-1.28-2.65-2-4.51-2.17-.66,5.47-1.62,9.53-2.91,12.17-1.29,2.64-2.79,3.96-4.52,3.96-1.19,0-2.28-.73-3.26-2.2s-1.47-3.25-1.47-5.36c0-3.32,1.04-6.02,3.14-8.09s4.85-3.11,8.28-3.11c2.82,0,5.14,.9,6.94,2.69,1.81,1.79,2.71,4.12,2.71,6.97s-.72,5.12-2.15,7.03c-1.44,1.9-3.38,3.11-5.83,3.61l-.73-2.52Zm-2.82-15.04c-2.13,.37-3.82,1.3-5.07,2.79s-1.86,3.33-1.86,5.53c0,1.38,.24,2.53,.72,3.44,.48,.92,.97,1.37,1.47,1.37,.35,0,.73-.25,1.13-.74,.4-.49,.82-1.24,1.25-2.24,.43-1,.85-2.38,1.26-4.13s.78-3.76,1.1-6.02Z"/>
      <path class="cls-4" d="M1028.32,173.31h19.32v19.18h-2.94v-1.68h-16.38v-2.6h16.38v-12.32h-16.38v-2.58Z"/>
      <path class="cls-4" d="M1052.76,174.35l1.57-2.35c2.5,1.46,5.07,3.15,7.7,5.07l-1.65,2.3c-2.46-1.79-5-3.46-7.62-5.01Zm.42,15.48c5.1-.49,9.14-1.98,12.12-4.48,2.99-2.5,4.99-6.06,6.02-10.67l2.72,.76c-1.05,5.15-3.29,9.17-6.72,12.04-3.44,2.88-8.03,4.56-13.78,5.07l-.36-2.72Z"/>
      <path class="cls-4" d="M1080.38,172.67l2.86,.17c-.65,7-2.78,13.49-6.38,19.46l-2.69-1.34c3.49-5.69,5.56-11.79,6.22-18.28Zm7.92-.9l2.27-1.18c1.12,1.98,1.95,3.5,2.49,4.56l-2.27,1.09c-.86-1.62-1.69-3.12-2.49-4.48Zm9.49,19.99l-3,.62c-1.25-5.11-2.64-9.71-4.17-13.78l2.77-.84c1.59,4.05,3.05,8.72,4.4,14Zm-5.35-21l2.32-1.2c.95,1.68,1.8,3.23,2.55,4.65l-2.32,1.12c-.78-1.49-1.63-3.01-2.55-4.56Z"/>
      <path class="cls-4" d="M1100.46,183.73v-2.91h22.12v2.91h-22.12Z"/>
      <path class="cls-4" d="M1132.98,180.87l1.32-2.21c2.65,1.49,5.11,3,7.36,4.51,1.08-2.04,1.76-4.5,2.04-7.39h-9.74c-1.12,2.88-2.99,5.54-5.6,8.01l-1.79-1.76c3.4-3.4,5.39-7.29,5.99-11.68l2.63,.2c-.09,1.01-.24,1.93-.45,2.77h11.87v2.46c-.54,5.38-2.23,9.47-5.07,12.29-2.84,2.82-7.06,4.57-12.68,5.26l-.62-2.58c5.51-.62,9.5-2.43,11.98-5.43-2.41-1.6-4.83-3.09-7.25-4.45Z"/>
      <path class="cls-4" d="M1150.82,183.73v-2.91h22.12v2.91h-22.12Z"/>
    </g>
    <g>
      <path class="cls-4" d="M308.01,156.16v.06h9.24v2.52h-13.44v-2.52c4.03-3.02,6.75-5.39,8.15-7.08,1.4-1.7,2.1-3.35,2.1-4.96,0-2.39-1.36-3.58-4.09-3.58-1.79,0-3.66,.62-5.6,1.85l-.84-2.46c2-1.31,4.28-1.96,6.86-1.96,2.18,0,3.87,.52,5.07,1.55,1.19,1.04,1.79,2.48,1.79,4.33s-.63,3.64-1.89,5.39c-1.26,1.75-3.71,4.04-7.35,6.87Z"/>
      <path class="cls-4" d="M340.94,146.25l2.35-1.12c1.53,2.33,3.01,4.79,4.45,7.36l-2.27,1.09c-.45-.78-.79-1.37-1.04-1.76l-8.2,.31v8.46h-3v-8.34l-10.64,.39-.08-2.46,6.47-.25c.17-.11,.69-.46,1.57-1.04-1.79-1.7-3.81-3.5-6.05-5.4l1.82-1.85c1.04,.88,1.75,1.48,2.13,1.82,1.36-.99,2.81-2.11,4.34-3.36-2.41,.13-5.14,.2-8.2,.2l-.14-2.46c8.08,0,14.8-.49,20.16-1.46l.59,2.41c-2.43,.43-5.14,.77-8.15,1.04-1.94,1.75-4.16,3.55-6.66,5.38,.17,.17,.42,.4,.74,.69,.33,.29,.62,.56,.88,.8,.26,.24,.5,.48,.73,.7,3.04-2.18,5.92-4.47,8.62-6.86l1.99,1.85c-3.04,2.61-6.24,5.08-9.6,7.39l9.21-.34c-.9-1.42-1.57-2.47-2.02-3.16Zm-18.34,11.82c2.52-1.46,4.8-3.15,6.83-5.1l1.85,1.74c-1.96,1.94-4.35,3.73-7.17,5.38l-1.51-2.02Zm15.34-3.33l1.6-2.02c2.69,1.75,5.17,3.59,7.45,5.52l-1.65,1.96c-2.31-1.94-4.78-3.76-7.39-5.46Z"/>
      <path class="cls-4" d="M350.32,151.38l2.27,.22c-.17,2.71-.51,5.33-1.04,7.87l-2.27-.42c.48-2.48,.83-5.04,1.04-7.67Zm-.95-9.94l1.48-2.38c.06,.07,.2,.29,.43,.64,.23,.35,.41,.63,.52,.81,.73-1.46,1.4-2.97,2.02-4.54l2.32,1.01c-.9,2.07-1.85,4.05-2.86,5.94,.41,.63,.71,1.12,.9,1.46,1.12-1.88,2.12-3.71,3-5.46l2.18,1.15c-.64,1.25-1.37,2.6-2.21,4.06l1.79-.45c.39,1.27,.77,2.72,1.15,4.34l-.06-1.96c.86-.04,1.51-.07,1.96-.08,.84-1.83,1.57-3.59,2.18-5.29h-4.4v-2.46h5.82v-2.52h3.02v2.52h6.16v2.46h-7.59c-.69,1.94-1.35,3.62-1.99,5.04,1.74-.13,3.54-.33,5.4-.59-.6-1.06-1.14-1.99-1.62-2.77l2.41-1.06c1.47,2.3,2.76,4.61,3.86,6.94l-2.44,1.09c-.43-.86-.76-1.5-.98-1.93-4.27,.62-8.16,.99-11.65,1.12,.21,.93,.34,1.57,.39,1.9l-2.27,.45c-.02-.13-.05-.32-.1-.56-.05-.24-.09-.42-.13-.53l-1.99,.14v11h-2.83v-10.81l-3.64,.25-.11-2.41,2.46-.14c.07-.13,.19-.32,.35-.57,.16-.25,.28-.43,.38-.55-1.19-1.9-2.31-3.66-3.36-5.26Zm8.2,6.05c-.04-.13-.29-1.06-.76-2.8-.24,.41-.85,1.39-1.82,2.94l2.58-.14Zm-.87,4l2.1-.34c.28,1.53,.49,3.42,.64,5.66l-2.21,.22c-.07-1.88-.25-3.73-.53-5.54Zm5.82-2.44h2.8c0,3.16-.43,5.67-1.29,7.56-.86,1.9-2.24,3.41-4.14,4.51l-1.96-2.02c1.62-.93,2.79-2.16,3.5-3.67,.73-1.53,1.09-3.66,1.09-6.38Zm5.07,0h2.83v8.32c0,.43,.04,.7,.11,.81,.06,.09,.29,.14,.7,.14,.62,0,.98-.21,1.09-.62,.13-.5,.22-1.94,.28-4.31l2.6,.28c0,.21,0,.52-.01,.95,0,.43-.02,.72-.04,.87,0,.06,0,.26-.03,.62s-.04,.64-.06,.87c-.02,.19-.04,.42-.07,.69-.03,.27-.04,.44-.04,.52-.02,.22-.09,.52-.22,.9-.13,.41-.21,.63-.25,.67-.13,.17-.27,.32-.42,.45-.19,.17-.35,.26-.5,.28-.06,0-.16,.02-.32,.07-.16,.05-.29,.08-.41,.1-.3,.06-.6,.08-.9,.08h-1.12c-.63,0-1.21-.02-1.74-.06-.37-.02-.69-.12-.95-.31-.24-.17-.39-.36-.45-.59-.06-.24-.08-.62-.08-1.12v-9.6Z"/>
      <path class="cls-4" d="M391.48,156.78c2.09-.41,3.73-1.34,4.93-2.79,1.19-1.45,1.79-3.22,1.79-5.33,0-1.96-.63-3.58-1.9-4.86-1.27-1.28-2.94-2-5.01-2.17-.73,5.47-1.81,9.53-3.23,12.17-1.43,2.64-3.1,3.96-5.03,3.96-1.33,0-2.53-.73-3.63-2.2-1.09-1.47-1.64-3.25-1.64-5.36,0-3.32,1.16-6.02,3.49-8.09,2.32-2.07,5.39-3.11,9.2-3.11,3.14,0,5.71,.9,7.71,2.69,2.01,1.79,3.01,4.12,3.01,6.97s-.8,5.12-2.39,7.03c-1.6,1.9-3.76,3.11-6.48,3.61l-.81-2.52Zm-3.14-15.04c-2.37,.37-4.25,1.3-5.63,2.79s-2.07,3.33-2.07,5.53c0,1.38,.27,2.53,.8,3.44,.53,.92,1.08,1.37,1.64,1.37,.39,0,.81-.25,1.26-.74,.45-.49,.91-1.24,1.39-2.24,.48-1,.94-2.38,1.4-4.13,.46-1.75,.86-3.76,1.22-6.02Z"/>
      <path class="cls-4" d="M261.16,188.92c1.44,.78,2.7,1.18,3.78,1.18,1.55,0,2.71-.44,3.47-1.33,.77-.89,1.15-2.31,1.15-4.27v-12.6h3.22v13.16c0,2.69-.63,4.62-1.88,5.8-1.25,1.18-3.24,1.76-5.96,1.76-1.61,0-3.1-.37-4.48-1.12l.7-2.58Z"/>
      <path class="cls-4" d="M276.75,171.9h12.04v2.52h-8.96v6.1h8.4v2.41h-8.4v9.41h-3.08v-20.44Z"/>
      <path class="cls-4" d="M294.82,174.42v5.82h8.68v2.41h-8.68v7.17h9.24v2.52h-12.32v-20.44h12.32v2.52h-9.24Z"/>
      <path class="cls-4" d="M306.75,171.9h15.12v2.58h-6.02v17.86h-3.08v-17.86h-6.02v-2.58Z"/>
      <path class="cls-4" d="M332.9,180.97c2.15-.9,4.03-1.85,5.66-2.86l1.12,2.07v-8.65h3.95c.11-.34,.31-1.1,.59-2.3l3,.22c-.21,.9-.38,1.59-.53,2.07h5.21v8.51l1.09-1.96c2.17,.88,4.08,1.84,5.74,2.88l-1.37,2.35c-1.68-1.06-3.5-2.02-5.46-2.86v2.41h-4.59v1.51h10.42v2.46h-9.16c2.45,1.83,5.8,3.45,10.05,4.87l-1.09,2.46c-4.24-1.55-7.64-3.35-10.22-5.4v5.74h-3.02v-5.74c-2.58,2.05-5.98,3.85-10.22,5.4l-1.09-2.46c4.26-1.42,7.61-3.04,10.05-4.87h-9.16v-2.46h10.42v-1.51h-4.59v-2.46c-1.7,1.08-3.57,2.05-5.63,2.91l-1.15-2.35Zm4.76-4.26c-1.14-1.1-2.67-2.35-4.59-3.75l1.74-2.07c1.83,1.34,3.37,2.6,4.62,3.78l-1.76,2.04Zm4.9-.7h6.44v-2.13h-6.44v2.13Zm0,2.27v2.24h6.44v-2.24h-6.44Zm11.34-1.62l-1.82-1.99c1.72-1.31,3.25-2.57,4.59-3.78l1.82,1.99c-1.27,1.23-2.8,2.49-4.59,3.78Z"/>
      <path class="cls-4" d="M361.05,182.18v-2.41h8.85c.43-.49,.81-.98,1.15-1.48h-8.48v-7.84h9.88v6.83l1.62,.28v-7.11h9.88v7.84h-9.74c-.24,.52-.52,1.02-.84,1.48h12.1v2.41h-6.16c1.81,1.33,4.01,2.41,6.61,3.25l-.62,2.55c-.73-.26-1.35-.49-1.88-.7v7.06h-2.74v-1.09h-4v1.09h-2.6v-9.46h4.7c-1.27-.8-2.41-1.7-3.42-2.69h-4.03c-.37,.37-.87,.8-1.48,1.29-.49,.39-1.15,.86-1.99,1.4h4.59v9.46h-2.6v-1.09h-4v1.09h-2.74v-7.06c-.52,.21-1.15,.44-1.88,.7l-.62-2.55c2.58-.84,4.78-1.92,6.61-3.25h-6.16Zm4.31-5.96h4.4v-3.56h-4.4v3.56Zm4.48,14.9v-3.98h-4v3.98h4Zm10.84,0v-3.98h-4v3.98h4Zm-3.92-14.9h4.4v-3.56h-4.4v3.56Z"/>
      <path class="cls-4" d="M391.37,170.78h10.44v2.49c0,4.16,.9,7.92,2.69,11.28,1.79,3.36,4.23,5.89,7.31,7.59l-1.54,2.24c-2.13-1.08-4.03-2.7-5.71-4.84-1.72-2.18-3.06-4.7-4.03-7.56-.02-.09-.06-.23-.11-.41-.06-.18-.1-.31-.14-.41-.02,.06-.05,.14-.1,.24-.05,.1-.08,.18-.1,.24-1.16,2.78-2.76,5.31-4.82,7.59-2,2.22-4.24,3.94-6.72,5.15l-1.54-2.24c2.3-1.21,4.34-2.78,6.13-4.7,1.83-1.98,3.23-4.1,4.2-6.36,.97-2.28,1.46-4.52,1.46-6.72v-.95h-7.42v-2.63Z"/>
      <path class="cls-4" d="M422.48,169.49h3.02c0,1.53-.03,2.97-.08,4.31h11.37c0,1.75-.02,3.79-.06,6.1-.02,1.31-.08,2.87-.2,4.7-.08,1.19-.18,2.36-.31,3.5-.11,.95-.28,1.76-.5,2.44-.24,.71-.47,1.25-.67,1.62-.22,.39-.52,.7-.9,.92-.35,.22-.73,.36-1.12,.42-.49,.07-.93,.11-1.34,.11-1.23,0-3.11-.11-5.63-.34l-.03-2.74c2.2,.22,3.85,.34,4.93,.34,.52,0,.93-.15,1.23-.45,.32-.32,.6-.95,.84-1.9,.24-.93,.42-2.41,.53-4.42,.09-1.77,.16-4.34,.2-7.7h-8.51c-.15,1.75-.35,3.31-.59,4.68-.56,3.01-1.45,5.51-2.66,7.5-1.18,1.96-2.9,3.82-5.18,5.57l-2.02-2.21c1.51-1.16,2.72-2.31,3.61-3.47,.93-1.18,1.72-2.63,2.35-4.37,.63-1.74,1.08-3.75,1.34-6.05,.02-.19,.04-.47,.07-.84,.03-.37,.05-.64,.07-.81h-7.28v-2.6h7.42c.06-1.33,.08-2.76,.08-4.31Z"/>
    </g>
    <g>
      <path class="cls-4" d="M808.01,156.18v.06h9.24v2.52h-13.44v-2.52c4.03-3.02,6.75-5.39,8.15-7.08,1.4-1.7,2.1-3.35,2.1-4.96,0-2.39-1.36-3.58-4.09-3.58-1.79,0-3.66,.62-5.6,1.85l-.84-2.46c2-1.31,4.28-1.96,6.86-1.96,2.18,0,3.87,.52,5.07,1.55,1.19,1.04,1.79,2.48,1.79,4.33s-.63,3.64-1.89,5.39c-1.26,1.75-3.71,4.04-7.35,6.87Z"/>
      <path class="cls-4" d="M840.94,146.27l2.35-1.12c1.53,2.33,3.01,4.79,4.45,7.36l-2.27,1.09c-.45-.78-.79-1.37-1.04-1.76l-8.2,.31v8.46h-3v-8.34l-10.64,.39-.08-2.46,6.47-.25c.17-.11,.69-.46,1.57-1.04-1.79-1.7-3.81-3.5-6.05-5.4l1.82-1.85c1.04,.88,1.75,1.48,2.13,1.82,1.36-.99,2.81-2.11,4.34-3.36-2.41,.13-5.14,.2-8.2,.2l-.14-2.46c8.08,0,14.8-.49,20.16-1.46l.59,2.41c-2.43,.43-5.14,.77-8.15,1.04-1.94,1.75-4.16,3.55-6.66,5.38,.17,.17,.42,.4,.74,.69,.33,.29,.62,.56,.88,.8,.26,.24,.5,.48,.73,.7,3.04-2.18,5.92-4.47,8.62-6.86l1.99,1.85c-3.04,2.61-6.24,5.08-9.6,7.39l9.21-.34c-.9-1.42-1.57-2.47-2.02-3.16Zm-18.34,11.82c2.52-1.46,4.8-3.15,6.83-5.1l1.85,1.74c-1.96,1.94-4.35,3.73-7.17,5.38l-1.51-2.02Zm15.34-3.33l1.6-2.02c2.69,1.75,5.17,3.59,7.45,5.52l-1.65,1.96c-2.31-1.94-4.78-3.76-7.39-5.46Z"/>
      <path class="cls-4" d="M850.32,151.39l2.27,.22c-.17,2.71-.51,5.33-1.04,7.87l-2.27-.42c.48-2.48,.83-5.04,1.04-7.67Zm-.95-9.94l1.48-2.38c.06,.07,.2,.29,.43,.64,.23,.35,.41,.63,.52,.81,.73-1.46,1.4-2.97,2.02-4.54l2.32,1.01c-.9,2.07-1.85,4.05-2.86,5.94,.41,.63,.71,1.12,.9,1.46,1.12-1.88,2.12-3.71,3-5.46l2.18,1.15c-.64,1.25-1.37,2.6-2.21,4.06l1.79-.45c.39,1.27,.77,2.72,1.15,4.34l-.06-1.96c.86-.04,1.51-.07,1.96-.08,.84-1.83,1.57-3.59,2.18-5.29h-4.4v-2.46h5.82v-2.52h3.02v2.52h6.16v2.46h-7.59c-.69,1.94-1.35,3.62-1.99,5.04,1.74-.13,3.54-.33,5.4-.59-.6-1.06-1.14-1.99-1.62-2.77l2.41-1.06c1.47,2.3,2.76,4.61,3.86,6.94l-2.44,1.09c-.43-.86-.76-1.5-.98-1.93-4.27,.62-8.16,.99-11.65,1.12,.21,.93,.34,1.57,.39,1.9l-2.27,.45c-.02-.13-.05-.32-.1-.56s-.09-.42-.13-.53l-1.99,.14v11h-2.83v-10.81l-3.64,.25-.11-2.41,2.46-.14c.07-.13,.19-.32,.35-.57,.16-.25,.28-.43,.38-.55-1.2-1.9-2.31-3.66-3.36-5.26Zm8.2,6.05c-.04-.13-.29-1.06-.76-2.8-.24,.41-.85,1.39-1.82,2.94l2.58-.14Zm-.87,4l2.1-.34c.28,1.53,.49,3.42,.64,5.66l-2.21,.22c-.07-1.88-.25-3.73-.53-5.54Zm5.82-2.44h2.8c0,3.16-.43,5.67-1.29,7.56-.86,1.9-2.24,3.41-4.14,4.51l-1.96-2.02c1.62-.93,2.79-2.16,3.5-3.67,.73-1.53,1.09-3.66,1.09-6.38Zm5.07,0h2.83v8.32c0,.43,.04,.7,.11,.81,.06,.09,.29,.14,.7,.14,.62,0,.98-.21,1.09-.62,.13-.5,.22-1.94,.28-4.31l2.6,.28c0,.21,0,.52-.01,.95,0,.43-.02,.72-.04,.87,0,.06,0,.26-.03,.62-.02,.35-.04,.64-.06,.87-.02,.19-.04,.42-.07,.69-.03,.27-.04,.44-.04,.52-.02,.22-.09,.52-.22,.9-.13,.41-.21,.63-.25,.67-.13,.17-.27,.32-.42,.45-.19,.17-.35,.26-.5,.28-.06,0-.16,.02-.32,.07s-.29,.08-.41,.1c-.3,.06-.6,.08-.9,.08h-1.12c-.63,0-1.21-.02-1.74-.06-.37-.02-.69-.12-.95-.31-.24-.17-.39-.36-.45-.59-.06-.24-.08-.62-.08-1.12v-9.6Z"/>
      <path class="cls-4" d="M891.48,156.79c2.09-.41,3.73-1.34,4.93-2.79,1.19-1.45,1.79-3.22,1.79-5.33,0-1.96-.63-3.58-1.9-4.86-1.27-1.28-2.94-2-5.01-2.17-.73,5.47-1.81,9.53-3.23,12.17-1.43,2.64-3.1,3.96-5.03,3.96-1.33,0-2.53-.73-3.63-2.2-1.09-1.47-1.64-3.25-1.64-5.36,0-3.32,1.16-6.02,3.49-8.09,2.32-2.07,5.39-3.11,9.2-3.11,3.14,0,5.71,.9,7.71,2.69s3.01,4.12,3.01,6.97-.8,5.12-2.39,7.03c-1.6,1.9-3.76,3.11-6.48,3.61l-.81-2.52Zm-3.14-15.04c-2.37,.37-4.25,1.3-5.63,2.79-1.38,1.48-2.07,3.33-2.07,5.53,0,1.38,.27,2.53,.8,3.44,.53,.92,1.08,1.37,1.64,1.37,.39,0,.81-.25,1.26-.74,.45-.49,.91-1.24,1.39-2.24,.48-1,.94-2.38,1.4-4.13s.86-3.76,1.22-6.02Z"/>
      <path class="cls-4" d="M776.25,192.35l7.28-20.44h3.36l7.28,20.44h-3.3l-1.76-5.43h-7.9l-1.76,5.43h-3.19Zm5.71-7.84h6.38l-3.16-9.8h-.06l-3.16,9.8Z"/>
      <path class="cls-4" d="M812.63,181.85c0,7-3.64,10.5-10.92,10.5h-5.04v-20.44h5.04c3.6,0,6.32,.85,8.16,2.53,1.84,1.69,2.76,4.16,2.76,7.41Zm-2.94,0c0-4.95-2.57-7.42-7.7-7.42h-2.24v15.4h2.24c2.63,0,4.57-.63,5.82-1.9,1.25-1.27,1.88-3.29,1.88-6.08Z"/>
      <path class="cls-4" d="M813.19,192.35l7.28-20.44h3.36l7.28,20.44h-3.3l-1.76-5.43h-7.9l-1.76,5.43h-3.19Zm5.71-7.84h6.38l-3.16-9.8h-.06l-3.16,9.8Z"/>
      <path class="cls-4" d="M830.17,171.91h15.12v2.58h-6.02v17.86h-3.08v-17.86h-6.02v-2.58Z"/>
      <path class="cls-4" d="M849.9,170.79h10.44v2.49c0,4.16,.9,7.92,2.69,11.28,1.79,3.36,4.23,5.89,7.31,7.59l-1.54,2.24c-2.13-1.08-4.03-2.7-5.71-4.84-1.72-2.18-3.06-4.7-4.03-7.56-.02-.09-.06-.23-.11-.41s-.1-.31-.14-.41c-.02,.06-.05,.14-.1,.24-.05,.1-.08,.18-.1,.24-1.16,2.78-2.76,5.31-4.82,7.59-2,2.22-4.24,3.94-6.72,5.15l-1.54-2.24c2.29-1.21,4.34-2.78,6.13-4.7,1.83-1.98,3.23-4.1,4.2-6.36,.97-2.28,1.46-4.52,1.46-6.72v-.95h-7.42v-2.63Z"/>
      <path class="cls-4" d="M874.68,172.05h2.88v6.72h5.49v-9.07h3.02v9.07h5.49v-6.72h2.88v9.18h-8.37v8.99h6.72v-6.94h2.88v11.12h-2.88v-1.65h-16.46v1.65h-2.88v-11.12h2.88v6.94h6.72v-8.99h-8.37v-9.18Z"/>
      <path class="cls-4" d="M906.98,169.51h3.02c0,1.53-.03,2.97-.08,4.31h11.37c0,1.75-.02,3.79-.06,6.1-.02,1.31-.08,2.87-.2,4.7-.08,1.19-.18,2.36-.31,3.5-.11,.95-.28,1.76-.5,2.44-.24,.71-.47,1.25-.67,1.62-.22,.39-.52,.7-.9,.92-.35,.22-.73,.36-1.12,.42-.49,.07-.93,.11-1.34,.11-1.23,0-3.11-.11-5.63-.34l-.03-2.74c2.2,.22,3.84,.34,4.93,.34,.52,0,.93-.15,1.23-.45,.32-.32,.6-.95,.84-1.9,.24-.93,.42-2.41,.53-4.42,.09-1.77,.16-4.34,.2-7.7h-8.51c-.15,1.75-.35,3.31-.59,4.68-.56,3.01-1.45,5.51-2.66,7.5-1.18,1.96-2.9,3.82-5.18,5.57l-2.02-2.21c1.51-1.16,2.72-2.31,3.61-3.47,.93-1.18,1.72-2.63,2.35-4.37,.63-1.74,1.08-3.75,1.34-6.05,.02-.19,.04-.47,.07-.84,.03-.37,.05-.64,.07-.81h-7.28v-2.6h7.42c.06-1.33,.08-2.76,.08-4.31Z"/>
    </g>
    <g>
      <path class="cls-4" d="M578.56,157.44c-1.39,1.06-3.31,1.6-5.75,1.6s-4.36-.53-5.75-1.6c-1.39-1.06-2.09-2.49-2.09-4.28,0-1.08,.38-2.09,1.15-3.01,.76-.92,1.83-1.64,3.19-2.14v-.06c-1.16-.49-2.05-1.15-2.69-2-.63-.85-.95-1.81-.95-2.87,0-1.51,.63-2.73,1.9-3.65s3.01-1.39,5.24-1.39,3.97,.46,5.24,1.39,1.9,2.14,1.9,3.65c0,2.09-1.21,3.62-3.64,4.59v.06c2.89,.95,4.34,2.76,4.34,5.43,0,1.79-.7,3.22-2.09,4.28Zm-9.37-1.78c.88,.64,2.08,.97,3.61,.97s2.71-.32,3.56-.97c.84-.64,1.26-1.53,1.26-2.65,0-1.98-1.65-3.29-4.96-3.92-1.57,.35-2.76,.88-3.57,1.57-.81,.69-1.22,1.47-1.22,2.35,0,1.12,.44,2,1.32,2.65Zm3.61-15.22c-1.36,0-2.4,.25-3.11,.76-.71,.5-1.06,1.22-1.06,2.16,0,.78,.35,1.47,1.06,2.06,.71,.59,1.75,1.02,3.11,1.3,1.38-.3,2.44-.75,3.18-1.36,.74-.61,1.11-1.27,1.11-2,0-.9-.37-1.6-1.11-2.13-.74-.52-1.8-.78-3.18-.78Z"/>
      <path class="cls-4" d="M596.41,147.19c-1.21-.65-2.47-.98-3.78-.98-1.44,0-2.57,.46-3.39,1.37-.82,.92-1.23,2.21-1.23,3.89s.43,2.94,1.3,3.89,1.97,1.43,3.32,1.43,2.57-.33,3.78-.98l.7,2.24c-1.49,.65-3.03,.98-4.62,.98-2.2,0-3.99-.68-5.36-2.04s-2.06-3.2-2.06-5.52,.65-4.22,1.96-5.56,3.13-2,5.46-2c1.59,0,3.13,.33,4.62,.98l-.7,2.3Z"/>
      <path class="cls-4" d="M602.73,146.15h.06c1.29-1.49,2.86-2.24,4.7-2.24,3.17,0,4.76,2.15,4.76,6.44v8.4h-2.74v-8.12c0-1.7-.22-2.86-.66-3.49-.44-.62-1.22-.94-2.34-.94-1.01,0-1.89,.49-2.65,1.47-.76,.98-1.13,2.06-1.13,3.23v7.84h-2.8v-21h2.8v8.4Z"/>
      <path class="cls-4" d="M629.21,156.79c2.09-.41,3.73-1.34,4.93-2.79,1.19-1.45,1.79-3.22,1.79-5.33,0-1.96-.63-3.58-1.9-4.86-1.27-1.28-2.94-2-5.01-2.17-.73,5.47-1.81,9.53-3.23,12.17-1.43,2.64-3.1,3.96-5.03,3.96-1.33,0-2.53-.73-3.63-2.2-1.09-1.47-1.64-3.25-1.64-5.36,0-3.32,1.16-6.02,3.49-8.09,2.32-2.07,5.39-3.11,9.2-3.11,3.14,0,5.71,.9,7.71,2.69s3.01,4.12,3.01,6.97-.8,5.12-2.39,7.03c-1.6,1.9-3.76,3.11-6.48,3.61l-.81-2.52Zm-3.14-15.04c-2.37,.37-4.25,1.3-5.63,2.79-1.38,1.48-2.07,3.33-2.07,5.53,0,1.38,.27,2.53,.8,3.44,.53,.92,1.08,1.37,1.64,1.37,.39,0,.81-.25,1.26-.74,.45-.49,.91-1.24,1.39-2.24,.48-1,.94-2.38,1.4-4.13s.86-3.76,1.22-6.02Z"/>
      <path class="cls-4" d="M538.27,181.38v-2.52h21.11v2.52c-.77,3.55-2.38,6.27-4.86,8.16-2.47,1.9-6.07,3.16-10.79,3.79l-.53-2.49c4.01-.58,7.08-1.63,9.21-3.15,2.13-1.52,3.49-3.63,4.09-6.31h-18.23Zm2.3-6.8v-2.52h16.8v2.52h-16.8Z"/>
      <path class="cls-4" d="M563.36,182.5c3.79-.82,7.41-2.21,10.85-4.16,3.44-1.95,6.41-4.29,8.89-7.01l2.1,1.93c-2.22,2.46-4.86,4.64-7.92,6.52v13.36h-3.02v-11.65c-3.25,1.68-6.66,2.89-10.25,3.64l-.64-2.63Z"/>
      <path class="cls-4" d="M589.58,174.35l1.57-2.35c2.5,1.46,5.07,3.15,7.7,5.07l-1.65,2.3c-2.46-1.79-5-3.46-7.62-5.01Zm.42,15.48c5.1-.49,9.14-1.98,12.12-4.48,2.99-2.5,4.99-6.06,6.02-10.67l2.72,.76c-1.05,5.15-3.29,9.17-6.72,12.04-3.43,2.88-8.03,4.56-13.78,5.07l-.36-2.72Z"/>
      <path class="cls-4" d="M615.07,172.05h2.88v6.72h5.49v-9.07h3.03v9.07h5.49v-6.72h2.88v9.18h-8.37v8.99h6.72v-6.94h2.88v11.12h-2.88v-1.65h-16.46v1.65h-2.88v-11.12h2.88v6.94h6.72v-8.99h-8.37v-9.18Z"/>
      <path class="cls-4" d="M647.37,169.51h3.02c0,1.53-.03,2.97-.08,4.31h11.37c0,1.75-.02,3.79-.06,6.1-.02,1.31-.08,2.87-.2,4.7-.07,1.19-.18,2.36-.31,3.5-.11,.95-.28,1.76-.5,2.44-.24,.71-.47,1.25-.67,1.62-.22,.39-.52,.7-.9,.92-.35,.22-.73,.36-1.12,.42-.49,.07-.93,.11-1.34,.11-1.23,0-3.11-.11-5.63-.34l-.03-2.74c2.2,.22,3.85,.34,4.93,.34,.52,0,.93-.15,1.23-.45,.32-.32,.6-.95,.84-1.9,.24-.93,.42-2.41,.53-4.42,.09-1.77,.16-4.34,.2-7.7h-8.51c-.15,1.75-.35,3.31-.59,4.68-.56,3.01-1.45,5.51-2.66,7.5-1.18,1.96-2.9,3.82-5.18,5.57l-2.02-2.21c1.51-1.16,2.72-2.31,3.61-3.47,.93-1.18,1.72-2.63,2.35-4.37,.63-1.74,1.08-3.75,1.34-6.05,.02-.19,.04-.47,.07-.84,.03-.37,.05-.64,.07-.81h-7.28v-2.6h7.42c.06-1.33,.08-2.76,.08-4.31Z"/>
    </g>
  </g>
</svg>