<svg xmlns="http://www.w3.org/2000/svg" viewBox="0 0 623.62 297.64"><defs><style>.a{fill:#fff;}.b{fill:#009600;}.c{fill:none;stroke:#000;stroke-miterlimit:10;stroke-width:2.83px;}.d{fill:#c80000;}.e{fill:#0096ff;}</style></defs><title>feature_2</title><rect x="28.35" y="18.43" width="73.95" height="24.65" rx="4.23" ry="4.23"/><path class="a" d="M48.32,34.75a32.56,32.56,0,0,1-4.18.26,2.93,2.93,0,0,1-2-.53,2.84,2.84,0,0,1-.54-2V30.1l-2.08.31-.22-1.55,2.3-.34V26.45h1.69v1.81l5.17-.78L48.65,29a8.93,8.93,0,0,1-1.12,1.82A9.64,9.64,0,0,1,46,32.42l-1.14-1.17a9.43,9.43,0,0,0,1.78-1.92l-3.37.52V32.1c0,.24,0,.42,0,.56a1.48,1.48,0,0,0,.07.38.68.68,0,0,0,.13.25.59.59,0,0,0,.24.13,1.37,1.37,0,0,0,.36.07h.52a25.22,25.22,0,0,0,3.65-.26Z"/><path class="a" d="M51.47,29.08l1.37-.32q.42,1.46.75,2.79l-1.41.33Q51.85,30.47,51.47,29.08Zm7-.44a9.83,9.83,0,0,1-.58,3.6,4.06,4.06,0,0,1-1.72,2,7.74,7.74,0,0,1-3.16.87l-.29-1.37a6.9,6.9,0,0,0,2.56-.71,3,3,0,0,0,1.3-1.56A8.49,8.49,0,0,0,57,28.57Zm-4.8.18,1.41-.32q.44,1.57.75,2.85l-1.41.32Q54,30,53.69,28.82Z"/><path class="a" d="M63,26.56h1.77v2.88a53.57,53.57,0,0,1,5.61,1.7l-.54,1.6q-2.64-.95-5.07-1.56v4.09H63Z"/><path class="a" d="M73,30.73v-2h2v2Zm0,3.93v-2h2v2Z"/><path class="a" d="M78,27.86a3.29,3.29,0,0,1,4.56,0,4.76,4.76,0,0,1,.75,3,4.76,4.76,0,0,1-.75,3,3.29,3.29,0,0,1-4.56,0,4.77,4.77,0,0,1-.75-3A4.77,4.77,0,0,1,78,27.86Zm1.36,5a1,1,0,0,0,1.85,0,4.72,4.72,0,0,0,.3-2,4.72,4.72,0,0,0-.3-2,1,1,0,0,0-1.85,0,4.72,4.72,0,0,0-.3,2A4.72,4.72,0,0,0,79.32,32.85Z"/><path class="a" d="M87.19,27H89v7.62H87.19V29h0l-2,1.46v-2Z"/><rect class="b" x="192.76" y="18.43" width="73.95" height="24.65" rx="4.23" ry="4.23"/><path class="a" d="M206.73,27.57l1.57-.67q.89,1.86,1.7,3.7l-1.62.63Q207.4,29,206.73,27.57Zm8.53-.65a12.57,12.57,0,0,1-.73,4.47,5,5,0,0,1-2.12,2.53A9.74,9.74,0,0,1,208.49,35l-.31-1.55a11.37,11.37,0,0,0,2.1-.44,5.32,5.32,0,0,0,1.5-.76,3.36,3.36,0,0,0,1-1.23,6.66,6.66,0,0,0,.56-1.77,15,15,0,0,0,.21-2.46Z"/><path class="a" d="M218,28.25l.8-1.51q1.52.69,3.26,1.62l-.84,1.51Q219.5,28.93,218,28.25Zm6.92-.49,1.6.35A7.87,7.87,0,0,1,224,32.94a9.62,9.62,0,0,1-5.51,2l-.26-1.64a8.4,8.4,0,0,0,4.58-1.6A6.68,6.68,0,0,0,224.94,27.76Z"/><path class="a" d="M234.57,29.13h-3.09a8.75,8.75,0,0,1-2,2.84l-1.19-1a7.83,7.83,0,0,0,1.47-2.06,7.29,7.29,0,0,0,.73-2.35l1.64.09a9.07,9.07,0,0,1-.16,1h3.22c-.18-.36-.37-.71-.55-1l1-.49q.43.8.79,1.53v.18q0,3.73-1.67,5.47t-5.38,2l-.26-1.51a7.5,7.5,0,0,0,4-1.31A4.74,4.74,0,0,0,234.57,29.13ZM238,27.49,237,28q-.56-1.09-.81-1.54l1-.5Q237.67,26.81,238,27.49Z"/><path class="a" d="M239.81,27.86a3.29,3.29,0,0,1,4.56,0,4.76,4.76,0,0,1,.75,3,4.76,4.76,0,0,1-.75,3,3.29,3.29,0,0,1-4.56,0,4.77,4.77,0,0,1-.75-3A4.77,4.77,0,0,1,239.81,27.86Zm1.36,5a1,1,0,0,0,1.85,0,4.72,4.72,0,0,0,.3-2,4.72,4.72,0,0,0-.3-2,1,1,0,0,0-1.85,0,4.72,4.72,0,0,0-.3,2A4.72,4.72,0,0,0,241.17,32.85Z"/><path class="a" d="M249,27h1.85v7.62H249V29h0l-2,1.46v-2Z"/><rect class="b" x="192.76" y="52.44" width="73.95" height="24.65" rx="4.23" ry="4.23"/><path class="a" d="M206.73,61.58l1.57-.67q.89,1.86,1.7,3.7l-1.62.63Q207.4,63,206.73,61.58Zm8.53-.65a12.57,12.57,0,0,1-.73,4.47,5,5,0,0,1-2.12,2.53A9.74,9.74,0,0,1,208.49,69l-.31-1.55a11.37,11.37,0,0,0,2.1-.44,5.32,5.32,0,0,0,1.5-.76,3.36,3.36,0,0,0,1-1.23,6.66,6.66,0,0,0,.56-1.77,15,15,0,0,0,.21-2.46Z"/><path class="a" d="M218,62.26l.8-1.51q1.52.69,3.26,1.62l-.84,1.51Q219.5,63,218,62.26Zm6.92-.49,1.6.35A7.87,7.87,0,0,1,224,67a9.62,9.62,0,0,1-5.51,2l-.26-1.64a8.4,8.4,0,0,0,4.58-1.6A6.68,6.68,0,0,0,224.94,61.77Z"/><path class="a" d="M234.57,63.15h-3.09a8.75,8.75,0,0,1-2,2.84l-1.19-1a7.83,7.83,0,0,0,1.47-2.06,7.29,7.29,0,0,0,.73-2.35l1.64.09a9.07,9.07,0,0,1-.16,1h3.22c-.18-.36-.37-.71-.55-1l1-.49q.43.8.79,1.53v.18q0,3.73-1.67,5.47t-5.38,2l-.26-1.51a7.5,7.5,0,0,0,4-1.31A4.74,4.74,0,0,0,234.57,63.15ZM238,61.51,237,62q-.56-1.09-.81-1.54l1-.5Q237.67,60.82,238,61.51Z"/><path class="a" d="M239.81,61.87a3.29,3.29,0,0,1,4.56,0,4.76,4.76,0,0,1,.75,3,4.76,4.76,0,0,1-.75,3,3.29,3.29,0,0,1-4.56,0,4.77,4.77,0,0,1-.75-3A4.77,4.77,0,0,1,239.81,61.87Zm1.36,5a1,1,0,0,0,1.85,0,6.82,6.82,0,0,0,0-4,1,1,0,0,0-1.85,0,6.84,6.84,0,0,0,0,4Z"/><path class="a" d="M249.15,67.23v0H252v1.43h-5.22V67.25a19.21,19.21,0,0,0,2.71-2.35,2.38,2.38,0,0,0,.65-1.51q0-1-1.06-1A5.42,5.42,0,0,0,247,63V61.39a6.56,6.56,0,0,1,2.4-.44,2.86,2.86,0,0,1,1.95.6,2.1,2.1,0,0,1,.68,1.66,3.05,3.05,0,0,1-.58,1.76A13.09,13.09,0,0,1,249.15,67.23Z"/><rect class="b" x="192.76" y="86.46" width="73.95" height="24.65" rx="4.23" ry="4.23"/><path class="a" d="M206.73,95.6l1.57-.67q.89,1.86,1.7,3.7l-1.62.63Q207.4,97,206.73,95.6Zm8.53-.65a12.57,12.57,0,0,1-.73,4.47,5,5,0,0,1-2.12,2.53,9.74,9.74,0,0,1-3.91,1.11l-.31-1.55a11.37,11.37,0,0,0,2.1-.44,5.33,5.33,0,0,0,1.5-.76,3.36,3.36,0,0,0,1-1.23,6.66,6.66,0,0,0,.56-1.77,15,15,0,0,0,.21-2.46Z"/><path class="a" d="M218,96.28l.8-1.51q1.52.69,3.26,1.62l-.84,1.51Q219.5,97,218,96.28Zm6.92-.49,1.6.35A7.87,7.87,0,0,1,224,101a9.61,9.61,0,0,1-5.51,2l-.26-1.64a8.4,8.4,0,0,0,4.58-1.6A6.68,6.68,0,0,0,224.94,95.79Z"/><path class="a" d="M234.57,97.16h-3.09a8.75,8.75,0,0,1-2,2.84l-1.19-1a7.83,7.83,0,0,0,1.47-2.06,7.29,7.29,0,0,0,.73-2.35l1.64.09a9.07,9.07,0,0,1-.16,1h3.22c-.18-.36-.37-.71-.55-1l1-.49q.43.8.79,1.53v.18q0,3.73-1.67,5.47t-5.38,2l-.26-1.51a7.49,7.49,0,0,0,4-1.31A4.74,4.74,0,0,0,234.57,97.16ZM238,95.53,237,96q-.56-1.09-.81-1.54l1-.5Q237.67,94.84,238,95.53Z"/><path class="a" d="M239.81,95.89a3.29,3.29,0,0,1,4.56,0,6.39,6.39,0,0,1,0,6,3.29,3.29,0,0,1-4.56,0,6.39,6.39,0,0,1,0-6Zm1.36,5a1,1,0,0,0,1.85,0,6.82,6.82,0,0,0,0-4,1,1,0,0,0-1.85,0,6.84,6.84,0,0,0,0,4Z"/><path class="a" d="M250,98.21a1.94,1.94,0,0,1,1.46.56,2.09,2.09,0,0,1,.55,1.52,2.33,2.33,0,0,1-.74,1.86,3.14,3.14,0,0,1-2.13.65,7,7,0,0,1-2.26-.37V100.9a5.47,5.47,0,0,0,2.12.49,1.42,1.42,0,0,0,.94-.28,1,1,0,0,0,.33-.78.76.76,0,0,0-.4-.72,3.56,3.56,0,0,0-1.5-.21h-.52V98.2l1.93-1.67v0h-3V95.08h5.08v1.43l-2,1.68v0Z"/><rect class="b" x="192.76" y="120.47" width="73.95" height="24.65" rx="4.23" ry="4.23"/><path class="a" d="M206.73,129.61l1.57-.67q.89,1.86,1.7,3.7l-1.62.63Q207.4,131.05,206.73,129.61Zm8.53-.65a12.57,12.57,0,0,1-.73,4.47A5,5,0,0,1,212.4,136a9.74,9.74,0,0,1-3.91,1.11l-.31-1.55a11.37,11.37,0,0,0,2.1-.44,5.32,5.32,0,0,0,1.5-.76,3.36,3.36,0,0,0,1-1.23,6.66,6.66,0,0,0,.56-1.77,15,15,0,0,0,.21-2.46Z"/><path class="a" d="M218,130.29l.8-1.51q1.52.69,3.26,1.62l-.84,1.51Q219.5,131,218,130.29Zm6.92-.49,1.6.35A7.87,7.87,0,0,1,224,135a9.62,9.62,0,0,1-5.51,2l-.26-1.64a8.4,8.4,0,0,0,4.58-1.6A6.69,6.69,0,0,0,224.94,129.8Z"/><path class="a" d="M234.57,131.18h-3.09a8.75,8.75,0,0,1-2,2.84l-1.19-1a7.83,7.83,0,0,0,1.47-2.06,7.3,7.3,0,0,0,.73-2.35l1.64.09a9.05,9.05,0,0,1-.16,1h3.22c-.18-.36-.37-.71-.55-1l1-.49q.43.8.79,1.53v.18q0,3.73-1.67,5.47t-5.38,2l-.26-1.51a7.5,7.5,0,0,0,4-1.31A4.74,4.74,0,0,0,234.57,131.18Zm3.44-1.64-1,.48q-.56-1.09-.81-1.54l1-.5Q237.67,128.85,238,129.54Z"/><path class="a" d="M239.81,129.91a3.29,3.29,0,0,1,4.56,0,6.38,6.38,0,0,1,0,6,3.29,3.29,0,0,1-4.56,0,6.38,6.38,0,0,1,0-6Zm1.36,5a1,1,0,0,0,1.85,0,6.82,6.82,0,0,0,0-4,1,1,0,0,0-1.85,0,6.84,6.84,0,0,0,0,4Z"/><path class="a" d="M251.21,133.86h1.11v1.39h-1.11v1.46h-1.69v-1.46h-3.39v-1.39l3.39-4.77h1.69Zm-1.69,0v-2.62h0l-1.81,2.6v0Z"/><rect class="b" x="192.76" y="154.49" width="73.95" height="24.65" rx="4.23" ry="4.23"/><path class="a" d="M206.73,163.63l1.57-.67q.89,1.86,1.7,3.7l-1.62.63Q207.4,165.07,206.73,163.63Zm8.53-.65a12.57,12.57,0,0,1-.73,4.47A5,5,0,0,1,212.4,170a9.74,9.74,0,0,1-3.91,1.11l-.31-1.55a11.37,11.37,0,0,0,2.1-.44,5.32,5.32,0,0,0,1.5-.76,3.36,3.36,0,0,0,1-1.23,6.66,6.66,0,0,0,.56-1.77,15,15,0,0,0,.21-2.46Z"/><path class="a" d="M218,164.31l.8-1.51q1.52.69,3.26,1.62l-.84,1.51Q219.5,165,218,164.31Zm6.92-.49,1.6.35A7.87,7.87,0,0,1,224,169a9.62,9.62,0,0,1-5.51,2l-.26-1.64a8.4,8.4,0,0,0,4.58-1.6A6.69,6.69,0,0,0,224.94,163.82Z"/><path class="a" d="M234.57,165.2h-3.09a8.75,8.75,0,0,1-2,2.84l-1.19-1a7.83,7.83,0,0,0,1.47-2.06,7.3,7.3,0,0,0,.73-2.35l1.64.09a9.05,9.05,0,0,1-.16,1h3.22c-.18-.36-.37-.71-.55-1l1-.49q.43.8.79,1.53v.18q0,3.73-1.67,5.47t-5.38,2l-.26-1.51a7.5,7.5,0,0,0,4-1.31A4.74,4.74,0,0,0,234.57,165.2Zm3.44-1.64-1,.48q-.56-1.09-.81-1.54l1-.5Q237.67,162.87,238,163.56Z"/><path class="a" d="M239.81,163.92a3.29,3.29,0,0,1,4.56,0,6.38,6.38,0,0,1,0,6,3.29,3.29,0,0,1-4.56,0,6.38,6.38,0,0,1,0-6Zm1.36,5a1,1,0,0,0,1.85,0,6.82,6.82,0,0,0,0-4,1,1,0,0,0-1.85,0,6.84,6.84,0,0,0,0,4Z"/><path class="a" d="M249.67,165.75a2.46,2.46,0,0,1,1.8.62,2.37,2.37,0,0,1,.63,1.77q0,2.69-3.19,2.69a6.59,6.59,0,0,1-2-.29V169a5.86,5.86,0,0,0,1.91.39q1.53,0,1.53-1.28a.92.92,0,0,0-1-1,1.38,1.38,0,0,0-.91.4H246.9l.21-4.38h4.64v1.43h-3l-.07,1.42h0A2.47,2.47,0,0,1,249.67,165.75Z"/><rect class="b" x="192.76" y="188.5" width="73.95" height="24.65" rx="4.23" ry="4.23"/><path class="a" d="M206.73,197.65l1.57-.67q.89,1.86,1.7,3.7l-1.62.63Q207.4,199.09,206.73,197.65Zm8.53-.65a12.57,12.57,0,0,1-.73,4.47A5,5,0,0,1,212.4,204a9.74,9.74,0,0,1-3.91,1.11l-.31-1.55a11.37,11.37,0,0,0,2.1-.44,5.32,5.32,0,0,0,1.5-.76,3.36,3.36,0,0,0,1-1.23,6.66,6.66,0,0,0,.56-1.77,15,15,0,0,0,.21-2.46Z"/><path class="a" d="M218,198.32l.8-1.51q1.52.69,3.26,1.62l-.84,1.51Q219.5,199,218,198.32Zm6.92-.49,1.6.35A7.87,7.87,0,0,1,224,203a9.62,9.62,0,0,1-5.51,2l-.26-1.64a8.4,8.4,0,0,0,4.58-1.6A6.69,6.69,0,0,0,224.94,197.83Z"/><path class="a" d="M234.57,199.21h-3.09a8.75,8.75,0,0,1-2,2.84l-1.19-1a7.83,7.83,0,0,0,1.47-2.06,7.3,7.3,0,0,0,.73-2.35l1.64.09a9.05,9.05,0,0,1-.16,1h3.22c-.18-.36-.37-.71-.55-1l1-.49q.43.8.79,1.53v.18q0,3.73-1.67,5.47t-5.38,2l-.26-1.51a7.5,7.5,0,0,0,4-1.31A4.74,4.74,0,0,0,234.57,199.21Zm3.44-1.64-1,.48q-.56-1.09-.81-1.54l1-.5Q237.67,196.88,238,197.57Z"/><path class="a" d="M239.81,197.94a3.29,3.29,0,0,1,4.56,0,6.38,6.38,0,0,1,0,6,3.29,3.29,0,0,1-4.56,0,6.38,6.38,0,0,1,0-6Zm1.36,5a1,1,0,0,0,1.85,0,6.82,6.82,0,0,0,0-4,1,1,0,0,0-1.85,0,6.84,6.84,0,0,0,0,4Z"/><path class="a" d="M251.52,197.23v1.38a4.28,4.28,0,0,0-1.58-.3,1.6,1.6,0,0,0-1.18.45,2.17,2.17,0,0,0-.56,1.32h0a2.48,2.48,0,0,1,1.55-.46,2.62,2.62,0,0,1,1.9.65,2.47,2.47,0,0,1,.67,1.86,2.58,2.58,0,0,1-.78,2,3.06,3.06,0,0,1-2.15.72,2.76,2.76,0,0,1-2.18-.86,3.78,3.78,0,0,1-.77-2.58,5.15,5.15,0,0,1,.89-3.29,3.06,3.06,0,0,1,2.53-1.1A6.66,6.66,0,0,1,251.52,197.23Zm-2.11,6.33a1.16,1.16,0,0,0,.91-.36,1.51,1.51,0,0,0,.32-1,1.4,1.4,0,0,0-.33-1,1.18,1.18,0,0,0-.9-.35,1.16,1.16,0,0,0-.9.36,1.39,1.39,0,0,0-.33,1,1.47,1.47,0,0,0,.34,1A1.15,1.15,0,0,0,249.41,203.56Z"/><rect class="b" x="192.76" y="256.54" width="73.95" height="24.65" rx="4.23" ry="4.23"/><path class="a" d="M206.73,265.68l1.57-.67q.89,1.86,1.7,3.71l-1.62.63Q207.4,267.12,206.73,265.68Zm8.53-.65a12.56,12.56,0,0,1-.73,4.47A5,5,0,0,1,212.4,272a9.74,9.74,0,0,1-3.91,1.11l-.31-1.55a11.37,11.37,0,0,0,2.1-.44,5.32,5.32,0,0,0,1.5-.76,3.36,3.36,0,0,0,1-1.23,6.65,6.65,0,0,0,.56-1.77,15,15,0,0,0,.21-2.46Z"/><path class="a" d="M218,266.36l.8-1.51q1.52.69,3.26,1.62l-.84,1.51Q219.5,267,218,266.36Zm6.92-.49,1.6.35A7.87,7.87,0,0,1,224,271a9.62,9.62,0,0,1-5.51,2l-.26-1.64a8.4,8.4,0,0,0,4.58-1.6A6.68,6.68,0,0,0,224.94,265.87Z"/><path class="a" d="M234.57,267.24h-3.09a8.75,8.75,0,0,1-2,2.84l-1.19-1a7.82,7.82,0,0,0,1.47-2.06,7.29,7.29,0,0,0,.73-2.35l1.64.09a9.09,9.09,0,0,1-.16,1h3.22c-.18-.36-.37-.71-.55-1l1-.49q.43.8.79,1.53v.18q0,3.73-1.67,5.47t-5.38,2l-.26-1.51a7.5,7.5,0,0,0,4-1.31A4.74,4.74,0,0,0,234.57,267.24ZM238,265.6l-1,.48q-.56-1.09-.81-1.54l1-.5Q237.67,264.92,238,265.6Z"/><path class="a" d="M239.86,271.29a4.8,4.8,0,0,0,1.68.3,1.7,1.7,0,0,0,1.25-.45,1.94,1.94,0,0,0,.49-1.33h0a2.47,2.47,0,0,1-1.55.46,2.56,2.56,0,0,1-1.9-.67,2.64,2.64,0,0,1-.66-1.94,2.43,2.43,0,0,1,.79-1.9,3.1,3.1,0,0,1,2.14-.7,2.79,2.79,0,0,1,2.18.85,3.59,3.59,0,0,1,.77,2.49q0,4.49-3.41,4.49a7.56,7.56,0,0,1-1.74-.21Zm2.21-5a1.19,1.19,0,0,0-.9.34,1.32,1.32,0,0,0-.33.95,1.59,1.59,0,0,0,.32,1.09,1.29,1.29,0,0,0,1.81,0,1.58,1.58,0,0,0,.33-1.08,1.29,1.29,0,0,0-.34-.94A1.19,1.19,0,0,0,242.07,266.33Z"/><path class="a" d="M247.16,271.29a4.8,4.8,0,0,0,1.68.3,1.7,1.7,0,0,0,1.25-.45,1.94,1.94,0,0,0,.49-1.33h0a2.47,2.47,0,0,1-1.55.46,2.56,2.56,0,0,1-1.9-.67,2.64,2.64,0,0,1-.66-1.94,2.43,2.43,0,0,1,.79-1.9,3.1,3.1,0,0,1,2.14-.7,2.79,2.79,0,0,1,2.18.85,3.59,3.59,0,0,1,.77,2.49q0,4.49-3.41,4.49a7.56,7.56,0,0,1-1.74-.21Zm2.21-5a1.19,1.19,0,0,0-.9.34,1.32,1.32,0,0,0-.33.95,1.59,1.59,0,0,0,.32,1.09,1.29,1.29,0,0,0,1.81,0,1.58,1.58,0,0,0,.33-1.08,1.29,1.29,0,0,0-.34-.94A1.19,1.19,0,0,0,249.37,266.33Z"/><line class="c" x1="116.42" y1="30.72" x2="179.13" y2="30.72"/><circle cx="116.58" cy="30.72" r="3.2"/><circle cx="178.97" cy="30.72" r="3.2"/><polyline class="c" points="147.4 30.72 147.4 63.89 179.13 63.89"/><circle cx="178.97" cy="63.89" r="3.2"/><polyline class="c" points="147.4 65.3 147.4 98.47 179.13 98.47"/><circle cx="178.97" cy="98.47" r="3.2"/><polyline class="c" points="147.4 99.32 147.4 132.48 179.13 132.48"/><circle cx="178.97" cy="132.48" r="3.2"/><polyline class="c" points="147.4 133.34 147.4 166.5 179.13 166.5"/><circle cx="178.97" cy="166.5" r="3.2"/><polyline class="c" points="147.4 167.92 147.4 201.08 179.13 201.08"/><circle cx="178.97" cy="201.08" r="3.2"/><polyline class="c" points="147.4 200.52 147.4 267.7 179.13 267.7"/><circle cx="178.97" cy="267.7" r="3.2"/><circle class="b" cx="229.96" cy="223.57" r="2.83"/><circle class="b" cx="229.96" cy="234.91" r="2.83"/><circle class="b" cx="229.96" cy="246.25" r="2.83"/><rect class="d" x="354.33" y="18.43" width="73.95" height="24.65" rx="4.23" ry="4.23"/><path class="a" d="M374.3,34.75a32.56,32.56,0,0,1-4.18.26,2.93,2.93,0,0,1-2-.53,2.84,2.84,0,0,1-.54-2V30.1l-2.08.31-.22-1.55,2.3-.34V26.45h1.69v1.81l5.17-.78.23,1.55a8.93,8.93,0,0,1-1.12,1.82A9.64,9.64,0,0,1,372,32.42l-1.14-1.17a9.43,9.43,0,0,0,1.78-1.92l-3.37.52V32.1c0,.24,0,.42,0,.56a1.48,1.48,0,0,0,.07.38.68.68,0,0,0,.13.25.59.59,0,0,0,.24.13,1.37,1.37,0,0,0,.36.07h.52a25.22,25.22,0,0,0,3.65-.26Z"/><path class="a" d="M377.45,29.08l1.37-.32q.42,1.46.75,2.79l-1.41.33Q377.84,30.47,377.45,29.08Zm7-.44a9.83,9.83,0,0,1-.58,3.6,4.06,4.06,0,0,1-1.72,2,7.74,7.74,0,0,1-3.16.87l-.29-1.37a6.9,6.9,0,0,0,2.56-.71,3,3,0,0,0,1.3-1.56,8.49,8.49,0,0,0,.42-2.93Zm-4.8.18,1.41-.32q.44,1.57.75,2.85l-1.41.32Q380,30,379.68,28.82Z"/><path class="a" d="M389,26.56h1.77v2.88a53.57,53.57,0,0,1,5.61,1.7l-.54,1.6q-2.64-.95-5.07-1.56v4.09H389Z"/><path class="a" d="M399,30.73v-2h2v2Zm0,3.93v-2h2v2Z"/><path class="a" d="M404,27.86a3.29,3.29,0,0,1,4.56,0,4.76,4.76,0,0,1,.75,3,4.76,4.76,0,0,1-.75,3,3.29,3.29,0,0,1-4.56,0,4.77,4.77,0,0,1-.75-3A4.77,4.77,0,0,1,404,27.86Zm1.36,5a1,1,0,0,0,1.85,0,4.72,4.72,0,0,0,.3-2,4.72,4.72,0,0,0-.3-2,1,1,0,0,0-1.85,0,4.72,4.72,0,0,0-.3,2A4.72,4.72,0,0,0,405.31,32.85Z"/><path class="a" d="M413.3,33.21v0h2.88v1.43H411V33.23a19.21,19.21,0,0,0,2.71-2.35,2.38,2.38,0,0,0,.65-1.51q0-1-1.06-1a5.42,5.42,0,0,0-2.14.58V27.38a6.56,6.56,0,0,1,2.4-.44,2.86,2.86,0,0,1,1.95.6,2.1,2.1,0,0,1,.68,1.66,3.05,3.05,0,0,1-.58,1.76A13.09,13.09,0,0,1,413.3,33.21Z"/><rect class="b" x="518.74" y="18.43" width="73.95" height="24.65" rx="4.23" ry="4.23"/><path class="a" d="M532.71,27.57l1.57-.67q.89,1.86,1.7,3.7l-1.62.63Q533.39,29,532.71,27.57Zm8.53-.65a12.57,12.57,0,0,1-.73,4.47,5,5,0,0,1-2.12,2.53A9.74,9.74,0,0,1,534.47,35l-.31-1.55a11.37,11.37,0,0,0,2.1-.44,5.32,5.32,0,0,0,1.5-.76,3.36,3.36,0,0,0,1-1.23,6.66,6.66,0,0,0,.56-1.77,15,15,0,0,0,.21-2.46Z"/><path class="a" d="M544,28.25l.8-1.51q1.52.69,3.26,1.62l-.84,1.51Q545.48,28.93,544,28.25Zm6.92-.49,1.6.35A7.87,7.87,0,0,1,550,32.94a9.62,9.62,0,0,1-5.51,2l-.26-1.64a8.4,8.4,0,0,0,4.58-1.6A6.68,6.68,0,0,0,550.93,27.76Z"/><path class="a" d="M560.55,29.13h-3.09a8.75,8.75,0,0,1-2,2.84l-1.19-1a7.83,7.83,0,0,0,1.47-2.06,7.29,7.29,0,0,0,.73-2.35l1.64.09a9.07,9.07,0,0,1-.16,1h3.22c-.18-.36-.37-.71-.55-1l1-.49q.43.8.79,1.53v.18q0,3.73-1.67,5.47t-5.38,2l-.26-1.51a7.5,7.5,0,0,0,4-1.31A4.74,4.74,0,0,0,560.55,29.13ZM564,27.49,563,28q-.56-1.09-.81-1.54l1-.5Q563.66,26.81,564,27.49Z"/><path class="a" d="M565.79,27.86a3.29,3.29,0,0,1,4.56,0,4.76,4.76,0,0,1,.75,3,4.76,4.76,0,0,1-.75,3,3.29,3.29,0,0,1-4.56,0,4.77,4.77,0,0,1-.75-3A4.77,4.77,0,0,1,565.79,27.86Zm1.36,5a1,1,0,0,0,1.85,0,4.72,4.72,0,0,0,.3-2,4.72,4.72,0,0,0-.3-2,1,1,0,0,0-1.85,0,4.72,4.72,0,0,0-.3,2A4.72,4.72,0,0,0,567.15,32.85Z"/><path class="a" d="M575,27h1.85v7.62H575V29h0l-2,1.46v-2Z"/><rect class="e" x="518.74" y="52.44" width="73.95" height="24.65" rx="4.23" ry="4.23"/><path class="a" d="M532.71,61.58l1.57-.67q.89,1.86,1.7,3.7l-1.62.63Q533.39,63,532.71,61.58Zm8.53-.65a12.57,12.57,0,0,1-.73,4.47,5,5,0,0,1-2.12,2.53A9.74,9.74,0,0,1,534.47,69l-.31-1.55a11.37,11.37,0,0,0,2.1-.44,5.32,5.32,0,0,0,1.5-.76,3.36,3.36,0,0,0,1-1.23,6.66,6.66,0,0,0,.56-1.77,15,15,0,0,0,.21-2.46Z"/><path class="a" d="M544,62.26l.8-1.51q1.52.69,3.26,1.62l-.84,1.51Q545.48,63,544,62.26Zm6.92-.49,1.6.35A7.87,7.87,0,0,1,550,67a9.62,9.62,0,0,1-5.51,2l-.26-1.64a8.4,8.4,0,0,0,4.58-1.6A6.68,6.68,0,0,0,550.93,61.77Z"/><path class="a" d="M560.55,63.15h-3.09a8.75,8.75,0,0,1-2,2.84l-1.19-1a7.83,7.83,0,0,0,1.47-2.06,7.29,7.29,0,0,0,.73-2.35l1.64.09a9.07,9.07,0,0,1-.16,1h3.22c-.18-.36-.37-.71-.55-1l1-.49q.43.8.79,1.53v.18q0,3.73-1.67,5.47t-5.38,2l-.26-1.51a7.5,7.5,0,0,0,4-1.31A4.74,4.74,0,0,0,560.55,63.15ZM564,61.51,563,62q-.56-1.09-.81-1.54l1-.5Q563.66,60.82,564,61.51Z"/><path class="a" d="M567.83,67.23v0h2.88v1.43H565.5V67.25a19.21,19.21,0,0,0,2.71-2.35,2.38,2.38,0,0,0,.65-1.51q0-1-1.06-1a5.42,5.42,0,0,0-2.14.58V61.39a6.56,6.56,0,0,1,2.4-.44,2.86,2.86,0,0,1,1.95.6,2.1,2.1,0,0,1,.68,1.66A3.05,3.05,0,0,1,570.1,65,13.09,13.09,0,0,1,567.83,67.23Z"/><path class="a" d="M576,64.19a1.94,1.94,0,0,1,1.46.56,2.09,2.09,0,0,1,.55,1.52,2.33,2.33,0,0,1-.74,1.86,3.14,3.14,0,0,1-2.13.65,7,7,0,0,1-2.26-.37V66.88a5.48,5.48,0,0,0,2.12.49,1.42,1.42,0,0,0,.94-.28,1,1,0,0,0,.33-.78.76.76,0,0,0-.4-.72,3.56,3.56,0,0,0-1.5-.21h-.52V64.18l1.93-1.67v0h-3V61.06h5.08v1.43l-2,1.68v0Z"/><rect class="b" x="518.74" y="86.46" width="73.95" height="24.65" rx="4.23" ry="4.23"/><path class="a" d="M532.71,95.6l1.57-.67q.89,1.86,1.7,3.7l-1.62.63Q533.39,97,532.71,95.6Zm8.53-.65a12.57,12.57,0,0,1-.73,4.47,5,5,0,0,1-2.12,2.53,9.74,9.74,0,0,1-3.91,1.11l-.31-1.55a11.37,11.37,0,0,0,2.1-.44,5.33,5.33,0,0,0,1.5-.76,3.36,3.36,0,0,0,1-1.23,6.66,6.66,0,0,0,.56-1.77,15,15,0,0,0,.21-2.46Z"/><path class="a" d="M544,96.28l.8-1.51q1.52.69,3.26,1.62l-.84,1.51Q545.48,97,544,96.28Zm6.92-.49,1.6.35A7.87,7.87,0,0,1,550,101a9.61,9.61,0,0,1-5.51,2l-.26-1.64a8.4,8.4,0,0,0,4.58-1.6A6.68,6.68,0,0,0,550.93,95.79Z"/><path class="a" d="M560.55,97.16h-3.09a8.75,8.75,0,0,1-2,2.84l-1.19-1a7.83,7.83,0,0,0,1.47-2.06,7.29,7.29,0,0,0,.73-2.35l1.64.09a9.07,9.07,0,0,1-.16,1h3.22c-.18-.36-.37-.71-.55-1l1-.49q.43.8.79,1.53v.18q0,3.73-1.67,5.47t-5.38,2l-.26-1.51a7.49,7.49,0,0,0,4-1.31A4.74,4.74,0,0,0,560.55,97.16ZM564,95.53,563,96q-.56-1.09-.81-1.54l1-.5Q563.66,94.84,564,95.53Z"/><path class="a" d="M565.79,95.89a3.29,3.29,0,0,1,4.56,0,6.39,6.39,0,0,1,0,6,3.29,3.29,0,0,1-4.56,0,6.39,6.39,0,0,1,0-6Zm1.36,5a1,1,0,0,0,1.85,0,6.82,6.82,0,0,0,0-4,1,1,0,0,0-1.85,0,6.84,6.84,0,0,0,0,4Z"/><path class="a" d="M576,98.21a1.94,1.94,0,0,1,1.46.56,2.09,2.09,0,0,1,.55,1.52,2.33,2.33,0,0,1-.74,1.86,3.14,3.14,0,0,1-2.13.65,7,7,0,0,1-2.26-.37V100.9a5.47,5.47,0,0,0,2.12.49,1.42,1.42,0,0,0,.94-.28,1,1,0,0,0,.33-.78.76.76,0,0,0-.4-.72,3.56,3.56,0,0,0-1.5-.21h-.52V98.2l1.93-1.67v0h-3V95.08h5.08v1.43l-2,1.68v0Z"/><rect class="e" x="518.74" y="120.47" width="73.95" height="24.65" rx="4.23" ry="4.23"/><path class="a" d="M532.71,129.61l1.57-.67q.89,1.86,1.7,3.7l-1.62.63Q533.39,131.05,532.71,129.61Zm8.53-.65a12.57,12.57,0,0,1-.73,4.47,5,5,0,0,1-2.12,2.53,9.74,9.74,0,0,1-3.91,1.11l-.31-1.55a11.37,11.37,0,0,0,2.1-.44,5.32,5.32,0,0,0,1.5-.76,3.36,3.36,0,0,0,1-1.23,6.66,6.66,0,0,0,.56-1.77,15,15,0,0,0,.21-2.46Z"/><path class="a" d="M544,130.29l.8-1.51q1.52.69,3.26,1.62l-.84,1.51Q545.48,131,544,130.29Zm6.92-.49,1.6.35A7.87,7.87,0,0,1,550,135a9.62,9.62,0,0,1-5.51,2l-.26-1.64a8.4,8.4,0,0,0,4.58-1.6A6.69,6.69,0,0,0,550.93,129.8Z"/><path class="a" d="M560.55,131.18h-3.09a8.75,8.75,0,0,1-2,2.84l-1.19-1a7.83,7.83,0,0,0,1.47-2.06,7.3,7.3,0,0,0,.73-2.35l1.64.09a9.05,9.05,0,0,1-.16,1h3.22c-.18-.36-.37-.71-.55-1l1-.49q.43.8.79,1.53v.18q0,3.73-1.67,5.47t-5.38,2l-.26-1.51a7.5,7.5,0,0,0,4-1.31A4.74,4.74,0,0,0,560.55,131.18Zm3.44-1.64-1,.48q-.56-1.09-.81-1.54l1-.5Q563.66,128.85,564,129.54Z"/><path class="a" d="M568.35,131.73a2.46,2.46,0,0,1,1.8.62,2.37,2.37,0,0,1,.63,1.77q0,2.69-3.19,2.69a6.59,6.59,0,0,1-2-.29V135a5.86,5.86,0,0,0,1.91.39q1.53,0,1.53-1.28a.92.92,0,0,0-1-1,1.38,1.38,0,0,0-.91.4h-1.51l.21-4.38h4.64v1.43h-3l-.07,1.42h0A2.47,2.47,0,0,1,568.35,131.73Z"/><path class="a" d="M573.32,129.54a4.13,4.13,0,0,1,4.11,0,1.68,1.68,0,0,1,.74,1.4q0,1-1.29,1.65v0a2.11,2.11,0,0,1,1.52,2,1.89,1.89,0,0,1-.8,1.6,4.47,4.47,0,0,1-4.46,0,1.89,1.89,0,0,1-.8-1.6q0-1.15,1.45-1.82v0a2.06,2.06,0,0,1-1.22-1.85A1.68,1.68,0,0,1,573.32,129.54Zm1.88,3.81a2.37,2.37,0,0,0-.88.53,1,1,0,0,0-.25.66.91.91,0,0,0,.37.74,1.45,1.45,0,0,0,.94.29,1.43,1.43,0,0,0,.93-.29.91.91,0,0,0,.36-.74.83.83,0,0,0-.29-.67A3.62,3.62,0,0,0,575.2,133.35Zm.25-1.21a2.17,2.17,0,0,0,.81-.46.8.8,0,0,0,.24-.57.78.78,0,0,0-.3-.63,1.28,1.28,0,0,0-.82-.25,1.24,1.24,0,0,0-.81.25.8.8,0,0,0,0,1.22A2.38,2.38,0,0,0,575.45,132.14Z"/><rect class="e" x="518.74" y="154.49" width="73.95" height="24.65" rx="4.23" ry="4.23"/><path class="a" d="M532.71,163.63l1.57-.67q.89,1.86,1.7,3.7l-1.62.63Q533.39,165.07,532.71,163.63Zm8.53-.65a12.57,12.57,0,0,1-.73,4.47,5,5,0,0,1-2.12,2.53,9.74,9.74,0,0,1-3.91,1.11l-.31-1.55a11.37,11.37,0,0,0,2.1-.44,5.32,5.32,0,0,0,1.5-.76,3.36,3.36,0,0,0,1-1.23,6.66,6.66,0,0,0,.56-1.77,15,15,0,0,0,.21-2.46Z"/><path class="a" d="M544,164.31l.8-1.51q1.52.69,3.26,1.62l-.84,1.51Q545.48,165,544,164.31Zm6.92-.49,1.6.35A7.87,7.87,0,0,1,550,169a9.62,9.62,0,0,1-5.51,2l-.26-1.64a8.4,8.4,0,0,0,4.58-1.6A6.69,6.69,0,0,0,550.93,163.82Z"/><path class="a" d="M560.55,165.2h-3.09a8.75,8.75,0,0,1-2,2.84l-1.19-1a7.83,7.83,0,0,0,1.47-2.06,7.3,7.3,0,0,0,.73-2.35l1.64.09a9.05,9.05,0,0,1-.16,1h3.22c-.18-.36-.37-.71-.55-1l1-.49q.43.8.79,1.53v.18q0,3.73-1.67,5.47t-5.38,2l-.26-1.51a7.5,7.5,0,0,0,4-1.31A4.74,4.74,0,0,0,560.55,165.2Zm3.44-1.64-1,.48q-.56-1.09-.81-1.54l1-.5Q563.66,162.87,564,163.56Z"/><path class="a" d="M567.71,163.11h1.85v7.62h-1.85v-5.67h0l-2,1.46v-2Z"/><path class="a" d="M575.65,165.75a2.46,2.46,0,0,1,1.8.62,2.37,2.37,0,0,1,.63,1.77q0,2.69-3.19,2.69a6.59,6.59,0,0,1-2-.29V169a5.86,5.86,0,0,0,1.91.39q1.53,0,1.53-1.28a.92.92,0,0,0-1-1,1.38,1.38,0,0,0-.91.4h-1.51l.21-4.38h4.64v1.43h-3l-.07,1.42h0A2.47,2.47,0,0,1,575.65,165.75Z"/><rect class="b" x="518.74" y="188.5" width="73.95" height="24.65" rx="4.23" ry="4.23"/><path class="a" d="M532.71,197.65l1.57-.67q.89,1.86,1.7,3.7l-1.62.63Q533.39,199.09,532.71,197.65Zm8.53-.65a12.57,12.57,0,0,1-.73,4.47,5,5,0,0,1-2.12,2.53,9.74,9.74,0,0,1-3.91,1.11l-.31-1.55a11.37,11.37,0,0,0,2.1-.44,5.32,5.32,0,0,0,1.5-.76,3.36,3.36,0,0,0,1-1.23,6.66,6.66,0,0,0,.56-1.77,15,15,0,0,0,.21-2.46Z"/><path class="a" d="M544,198.32l.8-1.51q1.52.69,3.26,1.62l-.84,1.51Q545.48,199,544,198.32Zm6.92-.49,1.6.35A7.87,7.87,0,0,1,550,203a9.62,9.62,0,0,1-5.51,2l-.26-1.64a8.4,8.4,0,0,0,4.58-1.6A6.69,6.69,0,0,0,550.93,197.83Z"/><path class="a" d="M560.55,199.21h-3.09a8.75,8.75,0,0,1-2,2.84l-1.19-1a7.83,7.83,0,0,0,1.47-2.06,7.3,7.3,0,0,0,.73-2.35l1.64.09a9.05,9.05,0,0,1-.16,1h3.22c-.18-.36-.37-.71-.55-1l1-.49q.43.8.79,1.53v.18q0,3.73-1.67,5.47t-5.38,2l-.26-1.51a7.5,7.5,0,0,0,4-1.31A4.74,4.74,0,0,0,560.55,199.21Zm3.44-1.64-1,.48q-.56-1.09-.81-1.54l1-.5Q563.66,196.88,564,197.57Z"/><path class="a" d="M565.79,197.94a3.29,3.29,0,0,1,4.56,0,6.38,6.38,0,0,1,0,6,3.29,3.29,0,0,1-4.56,0,6.38,6.38,0,0,1,0-6Zm1.36,5a1,1,0,0,0,1.85,0,6.82,6.82,0,0,0,0-4,1,1,0,0,0-1.85,0,6.84,6.84,0,0,0,0,4Z"/><path class="a" d="M577.51,197.23v1.38a4.28,4.28,0,0,0-1.58-.3,1.6,1.6,0,0,0-1.18.45,2.17,2.17,0,0,0-.56,1.32h0a2.48,2.48,0,0,1,1.55-.46,2.62,2.62,0,0,1,1.9.65,2.47,2.47,0,0,1,.67,1.86,2.58,2.58,0,0,1-.78,2,3.06,3.06,0,0,1-2.15.72,2.76,2.76,0,0,1-2.18-.86,3.78,3.78,0,0,1-.77-2.58,5.15,5.15,0,0,1,.89-3.29,3.06,3.06,0,0,1,2.53-1.1A6.66,6.66,0,0,1,577.51,197.23Zm-2.11,6.33a1.16,1.16,0,0,0,.91-.36,1.51,1.51,0,0,0,.32-1,1.4,1.4,0,0,0-.33-1,1.18,1.18,0,0,0-.9-.35,1.16,1.16,0,0,0-.9.36,1.39,1.39,0,0,0-.33,1,1.47,1.47,0,0,0,.34,1A1.15,1.15,0,0,0,575.4,203.56Z"/><rect class="b" x="518.74" y="256.54" width="73.95" height="24.65" rx="4.23" ry="4.23"/><path class="a" d="M532.71,265.68l1.57-.67q.89,1.86,1.7,3.71l-1.62.63Q533.39,267.12,532.71,265.68Zm8.53-.65a12.56,12.56,0,0,1-.73,4.47,5,5,0,0,1-2.12,2.53,9.74,9.74,0,0,1-3.91,1.11l-.31-1.55a11.37,11.37,0,0,0,2.1-.44,5.32,5.32,0,0,0,1.5-.76,3.36,3.36,0,0,0,1-1.23,6.65,6.65,0,0,0,.56-1.77,15,15,0,0,0,.21-2.46Z"/><path class="a" d="M544,266.36l.8-1.51q1.52.69,3.26,1.62l-.84,1.51Q545.48,267,544,266.36Zm6.92-.49,1.6.35A7.87,7.87,0,0,1,550,271a9.62,9.62,0,0,1-5.51,2l-.26-1.64a8.4,8.4,0,0,0,4.58-1.6A6.68,6.68,0,0,0,550.93,265.87Z"/><path class="a" d="M560.55,267.24h-3.09a8.75,8.75,0,0,1-2,2.84l-1.19-1a7.82,7.82,0,0,0,1.47-2.06,7.29,7.29,0,0,0,.73-2.35l1.64.09a9.09,9.09,0,0,1-.16,1h3.22c-.18-.36-.37-.71-.55-1l1-.49q.43.8.79,1.53v.18q0,3.73-1.67,5.47t-5.38,2l-.26-1.51a7.5,7.5,0,0,0,4-1.31A4.74,4.74,0,0,0,560.55,267.24ZM564,265.6l-1,.48q-.56-1.09-.81-1.54l1-.5Q563.66,264.92,564,265.6Z"/><path class="a" d="M565.84,271.29a4.8,4.8,0,0,0,1.68.3,1.7,1.7,0,0,0,1.25-.45,1.94,1.94,0,0,0,.49-1.33h0a2.47,2.47,0,0,1-1.55.46,2.56,2.56,0,0,1-1.9-.67,2.64,2.64,0,0,1-.66-1.94,2.43,2.43,0,0,1,.79-1.9,3.1,3.1,0,0,1,2.14-.7,2.79,2.79,0,0,1,2.18.85,3.59,3.59,0,0,1,.77,2.49q0,4.49-3.41,4.49a7.56,7.56,0,0,1-1.74-.21Zm2.21-5a1.19,1.19,0,0,0-.9.34,1.32,1.32,0,0,0-.33.95,1.59,1.59,0,0,0,.32,1.09,1.29,1.29,0,0,0,1.81,0,1.58,1.58,0,0,0,.33-1.08,1.29,1.29,0,0,0-.34-.94A1.19,1.19,0,0,0,568.05,266.33Z"/><path class="a" d="M573.15,271.29a4.8,4.8,0,0,0,1.68.3,1.7,1.7,0,0,0,1.25-.45,1.94,1.94,0,0,0,.49-1.33h0a2.47,2.47,0,0,1-1.55.46,2.56,2.56,0,0,1-1.9-.67,2.64,2.64,0,0,1-.66-1.94,2.43,2.43,0,0,1,.79-1.9,3.1,3.1,0,0,1,2.14-.7,2.79,2.79,0,0,1,2.18.85,3.59,3.59,0,0,1,.77,2.49q0,4.49-3.41,4.49a7.56,7.56,0,0,1-1.74-.21Zm2.21-5a1.19,1.19,0,0,0-.9.34,1.32,1.32,0,0,0-.33.95,1.59,1.59,0,0,0,.32,1.09,1.29,1.29,0,0,0,1.81,0,1.58,1.58,0,0,0,.33-1.08,1.29,1.29,0,0,0-.34-.94A1.19,1.19,0,0,0,575.36,266.33Z"/><line class="c" x1="442.41" y1="30.72" x2="505.11" y2="30.72"/><circle cx="442.57" cy="30.72" r="3.2"/><circle cx="504.95" cy="30.72" r="3.2"/><polyline class="c" points="473.39 30.72 473.39 63.89 505.11 63.89"/><circle cx="504.95" cy="63.89" r="3.2"/><polyline class="c" points="473.39 65.3 473.39 98.47 505.11 98.47"/><circle cx="504.95" cy="98.47" r="3.2"/><polyline class="c" points="473.39 99.32 473.39 132.48 505.11 132.48"/><circle cx="504.95" cy="132.48" r="3.2"/><polyline class="c" points="473.39 133.34 473.39 166.5 505.11 166.5"/><circle cx="504.95" cy="166.5" r="3.2"/><polyline class="c" points="473.39 167.92 473.39 201.08 505.11 201.08"/><circle cx="504.95" cy="201.08" r="3.2"/><polyline class="c" points="473.39 200.52 473.39 267.7 505.11 267.7"/><circle cx="504.95" cy="267.7" r="3.2"/><circle class="b" cx="555.95" cy="223.57" r="2.83"/><circle class="b" cx="555.95" cy="234.91" r="2.83"/><circle class="b" cx="555.95" cy="246.25" r="2.83"/></svg>