<svg id="レイヤー_1" data-name="レイヤー 1" xmlns="http://www.w3.org/2000/svg" width="500" height="50" viewBox="0 0 500 50">
  <defs>
    <style>
      .cls-1 {
        fill: #b19773;
      }

      .cls-2 {
        fill: #ccc;
      }
    </style>
  </defs>
  <polygon class="cls-1" points="305.85 14.58 275.46 14.58 275.46 20.03 303.93 20.03 303.93 28.53 275.46 28.53 275.46 42.48 266.96 42.48 266.96 6.08 305.85 6.08 305.85 14.58"/>
  <rect class="cls-1" x="308.47" y="34.05" width="10.2" height="8.43"/>
  <rect class="cls-1" x="322.21" y="6.08" width="8.5" height="36.41"/>
  <rect class="cls-1" x="334.25" y="34.05" width="10.2" height="8.43"/>
  <path class="cls-1" d="M390.77,42.48H379.15L361,22.08h21.89q2.32,0,2.33-3.75t-2.33-3.75H356.49v27.9H348V6.08h35.34a9.09,9.09,0,0,1,7.72,3.82,13.59,13.59,0,0,1,2.62,8.43,13.57,13.57,0,0,1-2.62,8.43,9.09,9.09,0,0,1-7.72,3.82h-3.26Z"/>
  <rect class="cls-1" x="393.48" y="34.05" width="10.2" height="8.43"/>
  <polygon class="cls-1" points="446.11 14.57 415.72 14.57 415.72 20.03 444.13 23.52 444.13 25.33 415.72 28.53 415.72 33.98 446.04 33.98 446.04 42.48 407.22 42.48 407.22 6.08 446.11 6.08 446.11 14.57"/>
  <rect class="cls-1" x="449.65" y="34.05" width="10.2" height="8.43"/>
  <polygon class="cls-1" points="442.62 23.52 461.02 23.52 464.41 6.69 465.55 1 466.2 6.77 469.23 33.92 472.3 10.34 473.17 3.71 474.1 10.34 476.97 30.78 479.45 16.2 480.41 10.56 481.24 16.22 482.87 27.26 483.94 20.54 484.23 18.7 485.5 20.06 488.72 23.52 499.44 23.52 499.44 25.34 488.32 25.34 487.93 25.34 487.66 25.05 485.44 22.66 483.73 33.39 482.8 39.24 481.94 33.38 480.28 22.14 477.79 36.84 476.81 42.6 475.99 36.81 473.23 17.2 470.05 41.58 469.09 49 468.25 41.56 465.04 12.74 462.65 24.61 462.5 25.34 461.76 25.34 442.62 25.33 442.62 23.52"/>
  <path class="cls-2" d="M41,42.55H12.88a11.8,11.8,0,0,1-8.41-3.27A10.9,10.9,0,0,1,1,31.05V17.71A10.88,10.88,0,0,1,4.47,9.48,11.81,11.81,0,0,1,12.88,6.2H41v8.49H12.88q-3.39,0-3.39,3V31c0,2,1.13,3,3.39,3H41Z"/>
  <path class="cls-2" d="M85.31,31.05a10.92,10.92,0,0,1-3.43,8.23,11.7,11.7,0,0,1-8.38,3.27H45.42V25.73h8.49v8.34H73.56c2.18,0,3.26-1,3.26-3V17.72c0-2-1.08-3-3.26-3H45.42V6.2H73.5a11.7,11.7,0,0,1,8.38,3.28,10.92,10.92,0,0,1,3.43,8.23Z"/>
  <polygon class="cls-2" points="172.88 42.55 172.88 20.42 157.75 41.99 142.61 20.42 142.61 42.55 134.12 42.55 134.12 6.2 143.03 6.2 157.75 27.21 172.53 6.2 181.37 6.2 181.37 42.55 172.88 42.55"/>
  <path class="cls-2" d="M129.73,42.55H101.58a11.8,11.8,0,0,1-8.41-3.27,10.9,10.9,0,0,1-3.47-8.23V17.71a10.88,10.88,0,0,1,3.47-8.23,11.81,11.81,0,0,1,8.41-3.28h28.15v8.49H101.58q-3.39,0-3.39,3V31c0,2,1.13,3,3.39,3h28.15Z"/>
  <path class="cls-2" d="M223,16.38a4.46,4.46,0,0,1-1.4,3.37,4.8,4.8,0,0,1-3.43,1.34h-11.5V14.2h3.47v3.42h8.05c.89,0,1.34-.42,1.34-1.24V10.92c0-.83-.45-1.24-1.34-1.24H206.67V6.2h11.5a4.8,4.8,0,0,1,3.43,1.34,4.48,4.48,0,0,1,1.4,3.37Z"/>
  <rect class="cls-2" x="186.78" y="6.2" width="3.48" height="14.89"/>
  <rect class="cls-2" x="199.7" y="6.2" width="3.48" height="14.89"/>
  <rect class="cls-2" x="187.68" y="11.91" width="14.89" height="3.48"/>
  <path class="cls-2" d="M252.16,26.29H247v5h-3.28v-5h-5.2V23.05h5.17V18H247v5.05h5.2Z"/>
</svg>
