<svg id="レイヤー_1" data-name="レイヤー 1" xmlns="http://www.w3.org/2000/svg" viewBox="0 0 720 100"><defs><style>.cls-1,.cls-2{fill:#50bc82;}.cls-1{opacity:0.08;}</style></defs><rect class="cls-1" y="13.5" width="720" height="72" rx="36"/><path class="cls-2" d="M55.83,34.3v5.38h5.31V41.5H55.83v5.38H53.88V41.5H48.56V39.68h5.32V34.3Z"/><path class="cls-2" d="M68.44,48.27V32.94h-.06l-4.8,4.34-1-2.3,5.88-5.37h2.81V48.27Z"/><path class="cls-2" d="M87.31,47.07a8,8,0,0,1-5.08,1.46,8,8,0,0,1-5.07-1.46,4.75,4.75,0,0,1-1.83-3.91,4.3,4.3,0,0,1,1-2.75,6.57,6.57,0,0,1,2.81-1.95v-.05a5.68,5.68,0,0,1-2.37-1.83A4.44,4.44,0,0,1,76,34a4,4,0,0,1,1.66-3.34,7.46,7.46,0,0,1,4.6-1.26,7.44,7.44,0,0,1,4.6,1.26A4,4,0,0,1,88.5,34c0,1.91-1.07,3.3-3.2,4.19v.05c2.56.87,3.83,2.52,3.83,5A4.76,4.76,0,0,1,87.31,47.07Zm-5.2-7.62A6.92,6.92,0,0,0,79,40.9,2.85,2.85,0,0,0,78,43a2.9,2.9,0,0,0,1.14,2.42,5,5,0,0,0,3.1.88,4.78,4.78,0,0,0,3.06-.88A3,3,0,0,0,86.37,43Q86.37,40.35,82.11,39.45Zm.12-2.17a6.16,6.16,0,0,0,2.71-1.23,2.39,2.39,0,0,0,1-1.84,2.32,2.32,0,0,0-1-1.94,4.4,4.4,0,0,0-2.71-.71,4.24,4.24,0,0,0-2.64.7,2.32,2.32,0,0,0-.91,2,2.42,2.42,0,0,0,.91,1.88A5.74,5.74,0,0,0,82.23,37.28Z"/><path class="cls-2" d="M95.23,42v7H94.1l0-.68h0a1.82,1.82,0,0,1-2.88.12,2.86,2.86,0,0,1-.53-1.86,2.92,2.92,0,0,1,.51-1.86,1.73,1.73,0,0,1,1.42-.64,1.69,1.69,0,0,1,1.42.71h0V42Zm-3.42,4.55a1.84,1.84,0,0,0,.31,1.16,1,1,0,0,0,1.6,0,1.82,1.82,0,0,0,.3-1.12v-.09a1.83,1.83,0,0,0-.3-1.11,1,1,0,0,0-.8-.41,1,1,0,0,0-.82.39A2,2,0,0,0,91.81,46.58Z"/><path class="cls-2" d="M101.36,47.05a1.79,1.79,0,0,1-.67,1.53,3.44,3.44,0,0,1-2.09.51A12.09,12.09,0,0,1,96.65,49V42.26a12.12,12.12,0,0,1,1.86-.14c1.73,0,2.6.57,2.6,1.71a1.4,1.4,0,0,1-.38,1,1.75,1.75,0,0,1-1,.54v0a2,2,0,0,1,1.2.56A1.58,1.58,0,0,1,101.36,47.05ZM97.93,45h.35a2.48,2.48,0,0,0,1.25-.24.78.78,0,0,0,.38-.7.73.73,0,0,0-.31-.66,1.91,1.91,0,0,0-1-.21,4.26,4.26,0,0,0-.64,0Zm0,1V48a5.12,5.12,0,0,0,.7,0,1.83,1.83,0,0,0,1.13-.28,1,1,0,0,0,.36-.87.85.85,0,0,0-.41-.77,2.89,2.89,0,0,0-1.37-.24Z"/><path class="cls-2" d="M103.45,44.17v2.88a1.54,1.54,0,0,0,.17.85.72.72,0,0,0,.59.23,1,1,0,0,0,.75-.42,1.45,1.45,0,0,0,.34-1V44.17h1.21V49h-1.13l0-.68h0a2.11,2.11,0,0,1-.69.57,1.79,1.79,0,0,1-.84.2,1.44,1.44,0,0,1-1.17-.45,2.36,2.36,0,0,1-.37-1.47v-3Z"/><path class="cls-2" d="M47.62,59.29V53.64h.82L50.31,57h0l1.87-3.33H53v5.65h-.85V55.11h0L50.7,57.75h-.77l-1.47-2.64h0v4.18Z"/><path class="cls-2" d="M54,58.21a1.26,1.26,0,0,1,.57-1.08,2.82,2.82,0,0,1,1.64-.41h.39v0a1,1,0,0,0-.2-.68,1,1,0,0,0-.69-.19,2.73,2.73,0,0,0-1.36.35l-.12-.62a3.14,3.14,0,0,1,1.48-.35,1.93,1.93,0,0,1,1.27.35,1.45,1.45,0,0,1,.39,1.12v1.55a4.83,4.83,0,0,0,.12,1.08h-.74a4.9,4.9,0,0,1-.07-.62h0a1.56,1.56,0,0,1-.61.52,2,2,0,0,1-.86.18,1.19,1.19,0,0,1-.87-.31A1.1,1.1,0,0,1,54,58.21Zm2.6-.91h-.39a2,2,0,0,0-1.07.24.73.73,0,0,0-.38.63.61.61,0,0,0,.17.45.62.62,0,0,0,.47.17,1.17,1.17,0,0,0,.84-.34,1.08,1.08,0,0,0,.36-.82Z"/><path class="cls-2" d="M60.18,57.75h0l-.92,1.54h-.88l1.36-2-1.32-2h.9l.89,1.47h0l.89-1.47H62l-1.32,2,1.36,2H61.1Z"/><path class="cls-2" d="M65.5,59.29V53.64h.93v5.65Z"/><path class="cls-2" d="M68.55,55.27l0,.58h0a1.88,1.88,0,0,1,.6-.49,1.7,1.7,0,0,1,.73-.17c.88,0,1.31.59,1.31,1.78v2.32h-.75V57.05a1.74,1.74,0,0,0-.19-1,.73.73,0,0,0-.64-.26.93.93,0,0,0-.72.4,1.36,1.36,0,0,0-.33.91v2.16h-.77v-4Z"/><path class="cls-2" d="M73.07,55.85a1.42,1.42,0,0,1,1.24-.66,1.46,1.46,0,0,1,1.2.53,3,3,0,0,1,0,3.11,1.58,1.58,0,0,1-2.41,0h0V61H72.3V55.27H73v.58Zm2.11,1.43a1.77,1.77,0,0,0-.28-1.1.9.9,0,0,0-.78-.37.93.93,0,0,0-.75.38,1.68,1.68,0,0,0-.29,1.05v.08a1.64,1.64,0,0,0,.29,1,.95.95,0,0,0,1.52,0A1.77,1.77,0,0,0,75.18,57.28Z"/><path class="cls-2" d="M79.38,59.29l0-.58h0a1.6,1.6,0,0,1-1.33.66,1.14,1.14,0,0,1-.93-.37,1.88,1.88,0,0,1-.3-1.18V55.27h.75v2.48a1.21,1.21,0,0,0,.18.76.7.7,0,0,0,.57.21,1,1,0,0,0,.73-.38,1.4,1.4,0,0,0,.32-.9V55.27h.77v4Z"/><path class="cls-2" d="M82.68,55.42h1.45V56H82.68V57.9a1.2,1.2,0,0,0,.13.68.57.57,0,0,0,.47.17,1.59,1.59,0,0,0,.7-.14l.12.61a2.92,2.92,0,0,1-.93.15,1.32,1.32,0,0,1-1-.3,1.41,1.41,0,0,1-.3-1V56H81v-.62h.85V54h.79Z"/><path class="cls-2" d="M88.52,53.64v4.94h2.59v.71H87.63V53.64Z"/><path class="cls-2" d="M92.63,57.59a1.17,1.17,0,0,0,.37.86,1.3,1.3,0,0,0,.89.32,2.48,2.48,0,0,0,1.16-.3l.2.59a3.36,3.36,0,0,1-1.44.31,1.91,1.91,0,0,1-1.42-.57,2.07,2.07,0,0,1-.55-1.52,2.18,2.18,0,0,1,.51-1.53,1.82,1.82,0,0,1,1.39-.56,1.73,1.73,0,0,1,1.34.53,2.18,2.18,0,0,1,.48,1.52c0,.08,0,.2,0,.35Zm0-.6H94.8a1.27,1.27,0,0,0-.29-.89,1,1,0,0,0-.77-.31,1.06,1.06,0,0,0-.8.32A1.27,1.27,0,0,0,92.63,57Z"/><path class="cls-2" d="M97,55.27l1.07,3.56h0l1.07-3.56H100l-1.39,4H97.52l-1.39-4Z"/><path class="cls-2" d="M101.32,57.59a1.21,1.21,0,0,0,.38.86,1.3,1.3,0,0,0,.89.32,2.54,2.54,0,0,0,1.16-.3l.19.59a3.32,3.32,0,0,1-1.43.31,1.89,1.89,0,0,1-1.42-.57,2.07,2.07,0,0,1-.55-1.52,2.18,2.18,0,0,1,.51-1.53,1.79,1.79,0,0,1,1.38-.56,1.72,1.72,0,0,1,1.34.53,2.18,2.18,0,0,1,.48,1.52c0,.08,0,.2,0,.35Zm0-.6h2.18a1.27,1.27,0,0,0-.29-.89,1.14,1.14,0,0,0-1.57,0A1.32,1.32,0,0,0,101.32,57Z"/><path class="cls-2" d="M105.41,59.29v-5.8h.82v5.8Z"/><path class="cls-2" d="M58.52,67.67A4.8,4.8,0,0,0,60,71.25h-.78a4.75,4.75,0,0,1-1.15-1.61,5.08,5.08,0,0,1,0-4,4.81,4.81,0,0,1,1.15-1.6H60A4.77,4.77,0,0,0,58.52,67.67Z"/><path class="cls-2" d="M64.79,68.64q0,1.71-2.25,1.71A9.34,9.34,0,0,1,61,70.23V64.66a8.49,8.49,0,0,1,1.47-.12c1.39,0,2.09.46,2.09,1.39a1.21,1.21,0,0,1-.32.82,1.39,1.39,0,0,1-.84.45v0a1.81,1.81,0,0,1,1,.48A1.28,1.28,0,0,1,64.79,68.64Zm-2.94-1.72h.31a2.64,2.64,0,0,0,1.22-.21.73.73,0,0,0,.38-.66.72.72,0,0,0-.3-.63,1.88,1.88,0,0,0-1-.2,3.7,3.7,0,0,0-.62,0Zm0,.67v2a3.54,3.54,0,0,0,.69.06,1.63,1.63,0,0,0,1.07-.28,1,1,0,0,0,.34-.82.77.77,0,0,0-.41-.74,2.88,2.88,0,0,0-1.38-.24Z"/><path class="cls-2" d="M65.44,69.19A1.26,1.26,0,0,1,66,68.11a2.72,2.72,0,0,1,1.64-.41H68v0a.94.94,0,0,0-.19-.68,1,1,0,0,0-.7-.19,2.71,2.71,0,0,0-1.35.34l-.12-.62a3.12,3.12,0,0,1,1.47-.34,1.84,1.84,0,0,1,1.27.35,1.39,1.39,0,0,1,.4,1.12v1.55a5.65,5.65,0,0,0,.11,1.08h-.73a3.68,3.68,0,0,1-.07-.62h0a1.37,1.37,0,0,1-.6.51,1.84,1.84,0,0,1-.86.19,1.21,1.21,0,0,1-.87-.31A1.11,1.11,0,0,1,65.44,69.19ZM68,68.27h-.38a2,2,0,0,0-1.08.24.72.72,0,0,0-.37.64.61.61,0,0,0,.17.45.65.65,0,0,0,.46.17,1.22,1.22,0,0,0,.85-.34A1.07,1.07,0,0,0,68,68.6Z"/><path class="cls-2" d="M70.23,70.27V64.46h.82v5.81Z"/><path class="cls-2" d="M72.24,69.19a1.26,1.26,0,0,1,.57-1.08,2.72,2.72,0,0,1,1.64-.41h.38v0a.94.94,0,0,0-.19-.68,1,1,0,0,0-.7-.19,2.71,2.71,0,0,0-1.35.34l-.12-.62a3.09,3.09,0,0,1,1.47-.34,1.84,1.84,0,0,1,1.27.35,1.39,1.39,0,0,1,.4,1.12v1.55a5.65,5.65,0,0,0,.11,1.08H75a3.68,3.68,0,0,1-.07-.62h0a1.37,1.37,0,0,1-.6.51,1.84,1.84,0,0,1-.86.19,1.26,1.26,0,0,1-.88-.31A1.15,1.15,0,0,1,72.24,69.19Zm2.59-.92h-.38a2,2,0,0,0-1.08.24.72.72,0,0,0-.37.64.61.61,0,0,0,.17.45.65.65,0,0,0,.46.17,1.22,1.22,0,0,0,.85-.34,1.11,1.11,0,0,0,.35-.83Z"/><path class="cls-2" d="M77.5,66.24v.58h0a1.84,1.84,0,0,1,.59-.48,1.59,1.59,0,0,1,.73-.17c.88,0,1.32.59,1.32,1.78v2.32h-.76V68a1.79,1.79,0,0,0-.18-1,.75.75,0,0,0-.65-.26.94.94,0,0,0-.72.39,1.37,1.37,0,0,0-.32.91v2.17h-.78v-4Z"/><path class="cls-2" d="M84.11,67.07a2.19,2.19,0,0,0-1-.27,1.19,1.19,0,0,0-.93.38,1.54,1.54,0,0,0-.34,1.08,1.52,1.52,0,0,0,.36,1.07,1.16,1.16,0,0,0,.91.4,2.19,2.19,0,0,0,1-.27l.19.62a3.15,3.15,0,0,1-1.27.27A2,2,0,0,1,81,68.26a2.07,2.07,0,0,1,.55-1.54A2,2,0,0,1,83,66.17a3.15,3.15,0,0,1,1.27.27Z"/><path class="cls-2" d="M85.86,68.57a1.19,1.19,0,0,0,.38.86,1.26,1.26,0,0,0,.88.31,2.59,2.59,0,0,0,1.16-.29l.2.59a3.5,3.5,0,0,1-1.43.31,1.91,1.91,0,0,1-1.43-.57,2.13,2.13,0,0,1-.55-1.52,2.16,2.16,0,0,1,.52-1.54A1.78,1.78,0,0,1,87,66.17a1.73,1.73,0,0,1,1.34.52,2.19,2.19,0,0,1,.48,1.53c0,.07,0,.19,0,.35Zm0-.61H88a1.36,1.36,0,0,0-.29-.88,1,1,0,0,0-.78-.31,1.05,1.05,0,0,0-.8.31A1.32,1.32,0,0,0,85.86,68Z"/><path class="cls-2" d="M93.08,64.46v5.81h-.74v-.58h0a1.41,1.41,0,0,1-1.25.66,1.46,1.46,0,0,1-1.18-.54,2.42,2.42,0,0,1-.44-1.55,2.4,2.4,0,0,1,.43-1.56,1.56,1.56,0,0,1,2.42.09h0V64.46Zm-2.88,3.8a1.74,1.74,0,0,0,.29,1.09.95.95,0,0,0,1.52,0,1.69,1.69,0,0,0,.29-1.06v-.07a1.64,1.64,0,0,0-.29-1,.9.9,0,0,0-.75-.38.92.92,0,0,0-.78.36A1.82,1.82,0,0,0,90.2,68.26Z"/><path class="cls-2" d="M94,64.09h.77a4.67,4.67,0,0,1,1.15,1.6,5.08,5.08,0,0,1,0,4,4.62,4.62,0,0,1-1.15,1.61H94a5,5,0,0,0,0-7.16Z"/><path class="cls-2" d="M359.22,29.48a6.43,6.43,0,0,1,4.44,1.42,5.08,5.08,0,0,1,1.57,4,8.63,8.63,0,0,1-1.62,4.93,35.74,35.74,0,0,1-6.3,6.26v.05h7.92v2.3H353.47v-2.3a45.37,45.37,0,0,0,7-6.47,7.47,7.47,0,0,0,1.82-4.52q0-3.27-3.48-3.27A8.87,8.87,0,0,0,354,33.52l-.76-2.25A10.42,10.42,0,0,1,359.22,29.48Z"/><path class="cls-2" d="M370.28,31.76a7,7,0,0,1,10.34,0c1.16,1.51,1.73,3.95,1.73,7.31s-.57,5.79-1.73,7.31a7,7,0,0,1-10.34,0c-1.16-1.52-1.73-4-1.73-7.31S369.12,33.27,370.28,31.76Zm2.09,13a3.68,3.68,0,0,0,6.16,0q1-1.68,1-5.66t-1-5.66a3.66,3.66,0,0,0-6.16,0q-1,1.67-1,5.66T372.37,44.73Z"/><path class="cls-2" d="M388.29,46.05h-2.75v3.07h-1.31V42.34h1.31v2.71h2.75V42.34h1.31v6.78h-1.31Z"/><path class="cls-2" d="M392.48,48.22H395v.9h-4v-.9l2.48-3v0H391v-.9h4v.9l-2.48,3Z"/><path class="cls-2" d="M399.06,40.54V39.15h3.25v1.39Z"/><path class="cls-2" d="M413.69,29.48a6.39,6.39,0,0,1,4.43,1.42,5,5,0,0,1,1.57,4,8.63,8.63,0,0,1-1.62,4.93,35,35,0,0,1-6.3,6.26v.05h7.92v2.3H407.94v-2.3a45.86,45.86,0,0,0,7-6.47,7.45,7.45,0,0,0,1.81-4.52q0-3.27-3.47-3.27a8.84,8.84,0,0,0-4.86,1.69l-.77-2.25A10.48,10.48,0,0,1,413.69,29.48Z"/><path class="cls-2" d="M429.79,29.48a6.41,6.41,0,0,1,4.43,1.42,5,5,0,0,1,1.57,4,8.63,8.63,0,0,1-1.62,4.93,35,35,0,0,1-6.3,6.26v.05h7.92v2.3H424v-2.3a45.86,45.86,0,0,0,7-6.47,7.45,7.45,0,0,0,1.81-4.52q0-3.27-3.47-3.27a8.84,8.84,0,0,0-4.86,1.69l-.77-2.25A10.48,10.48,0,0,1,429.79,29.48Z"/><path class="cls-2" d="M439.88,47h0v2.13h-1.21v-7h1.21v4h0l1.84-1.89h1.44l-2.29,2.3,2.34,2.53h-1.44Z"/><path class="cls-2" d="M448.36,46.05H445.6v3.07h-1.3V42.34h1.3v2.71h2.76V42.34h1.31v6.78h-1.31Z"/><path class="cls-2" d="M452.55,48.22H455v.9h-4v-.9l2.48-3v0H451v-.9h4v.9l-2.48,3Z"/><path class="cls-2" d="M375.78,54.37a1.11,1.11,0,0,0-.73.21.72.72,0,0,0-.25.58c0,.43.31.74.94.93a3.31,3.31,0,0,1,1.44.71,1.5,1.5,0,0,1,.42,1.11,1.42,1.42,0,0,1-.49,1.17,2.12,2.12,0,0,1-1.41.42A3.34,3.34,0,0,1,374,59l.23-.7a2.69,2.69,0,0,0,1.51.47,1.19,1.19,0,0,0,.78-.23.84.84,0,0,0,.27-.66.89.89,0,0,0-.22-.64,1.9,1.9,0,0,0-.79-.41,3.26,3.26,0,0,1-1.35-.69,1.34,1.34,0,0,1-.43-1,1.32,1.32,0,0,1,.48-1.07,2,2,0,0,1,1.34-.4,3.86,3.86,0,0,1,1.66.35l-.19.65A3.44,3.44,0,0,0,375.78,54.37Z"/><path class="cls-2" d="M379.37,56a1.42,1.42,0,0,1,1.24-.66,1.48,1.48,0,0,1,1.2.53,2.5,2.5,0,0,1,.43,1.56,2.38,2.38,0,0,1-.45,1.56,1.44,1.44,0,0,1-1.18.54,1.48,1.48,0,0,1-1.22-.58h0v2.2h-.77V55.39h.73l0,.58Zm2.11,1.43a1.79,1.79,0,0,0-.28-1.1,1,1,0,0,0-.78-.37.89.89,0,0,0-.75.39,1.64,1.64,0,0,0-.3,1v.07a1.69,1.69,0,0,0,.3,1.06.9.9,0,0,0,.75.38.93.93,0,0,0,.77-.38A1.82,1.82,0,0,0,381.48,57.4Z"/><path class="cls-2" d="M383.64,57.71a1.16,1.16,0,0,0,.38.86,1.23,1.23,0,0,0,.88.32,2.59,2.59,0,0,0,1.16-.29l.2.59a3.5,3.5,0,0,1-1.43.31,1.91,1.91,0,0,1-1.43-.57,2.1,2.1,0,0,1-.55-1.53,2.13,2.13,0,0,1,.52-1.53,1.79,1.79,0,0,1,1.38-.56,1.73,1.73,0,0,1,1.34.53,2.19,2.19,0,0,1,.48,1.53c0,.07,0,.19,0,.34Zm0-.6h2.18a1.34,1.34,0,0,0-.29-.88,1,1,0,0,0-.78-.31,1.05,1.05,0,0,0-.8.31A1.27,1.27,0,0,0,383.64,57.11Z"/><path class="cls-2" d="M387.26,58.33a1.26,1.26,0,0,1,.57-1.08,2.78,2.78,0,0,1,1.63-.4h.39v0a.89.89,0,0,0-.2-.68,1,1,0,0,0-.69-.2,2.72,2.72,0,0,0-1.35.35l-.12-.62a3.07,3.07,0,0,1,1.47-.35,1.85,1.85,0,0,1,1.27.36,1.42,1.42,0,0,1,.39,1.12v1.54a5,5,0,0,0,.12,1.09H390a2.94,2.94,0,0,1-.07-.62h0a1.37,1.37,0,0,1-.6.51,2,2,0,0,1-.86.19,1.26,1.26,0,0,1-.88-.31A1.15,1.15,0,0,1,387.26,58.33Zm2.59-.91h-.39a2,2,0,0,0-1.07.24.72.72,0,0,0-.37.63.58.58,0,0,0,.17.46.65.65,0,0,0,.46.17,1.18,1.18,0,0,0,.84-.34,1.1,1.1,0,0,0,.36-.83Z"/><path class="cls-2" d="M392.61,57.56h0v1.86h-.77V53.61h.77V57h0l1.76-1.63h1l-2.09,1.9,2.13,2.13h-1Z"/><path class="cls-2" d="M396.78,57.71a1.16,1.16,0,0,0,.38.86,1.23,1.23,0,0,0,.88.32,2.66,2.66,0,0,0,1.17-.29l.19.59a3.5,3.5,0,0,1-1.43.31,1.91,1.91,0,0,1-1.43-.57,2.46,2.46,0,0,1,0-3.06,1.79,1.79,0,0,1,1.38-.56,1.73,1.73,0,0,1,1.34.53,2.19,2.19,0,0,1,.48,1.53c0,.07,0,.19,0,.34Zm0-.6H399a1.29,1.29,0,0,0-.29-.88,1,1,0,0,0-.78-.31,1.05,1.05,0,0,0-.8.31A1.32,1.32,0,0,0,396.78,57.11Z"/><path class="cls-2" d="M403.22,55.31V56a1.93,1.93,0,0,0-1.34.46,1.61,1.61,0,0,0-.5,1.22v1.78h-.79v-4h.75l0,.78h0A2.32,2.32,0,0,1,403.22,55.31Z"/><path class="cls-2" d="M407,54.48a3,3,0,0,1,4.06,0,2.89,2.89,0,0,1,.76,2.11,2.93,2.93,0,0,1-.76,2.12,3,3,0,0,1-4.06,0,3,3,0,0,1-.76-2.12A2.93,2.93,0,0,1,407,54.48Zm.64,3.73a1.78,1.78,0,0,0,1.39.59,1.81,1.81,0,0,0,1.4-.59,2.37,2.37,0,0,0,.52-1.62A2.33,2.33,0,0,0,410.4,55a1.79,1.79,0,0,0-1.4-.6,1.75,1.75,0,0,0-1.39.6,2.33,2.33,0,0,0-.53,1.61A2.38,2.38,0,0,0,407.61,58.21Z"/><path class="cls-2" d="M415.19,59.42l0-.58h0a1.6,1.6,0,0,1-1.33.66,1.15,1.15,0,0,1-.93-.38,1.84,1.84,0,0,1-.31-1.17V55.39h.76v2.48a1.19,1.19,0,0,0,.18.76.7.7,0,0,0,.57.21.9.9,0,0,0,.72-.38,1.32,1.32,0,0,0,.33-.9V55.39h.77v4Z"/><path class="cls-2" d="M418.49,55.55h1.45v.62h-1.45V58a1.18,1.18,0,0,0,.13.68.54.54,0,0,0,.47.18,1.75,1.75,0,0,0,.7-.14l.11.6a2.84,2.84,0,0,1-.93.16,1.31,1.31,0,0,1-1-.31,1.4,1.4,0,0,1-.3-1v-2h-.85v-.62h.85V54.07h.79Z"/><path class="cls-2" d="M421.83,56a1.41,1.41,0,0,1,1.24-.66,1.48,1.48,0,0,1,1.2.53,2.5,2.5,0,0,1,.43,1.56,2.38,2.38,0,0,1-.45,1.56,1.44,1.44,0,0,1-1.18.54,1.48,1.48,0,0,1-1.22-.58h0v2.2h-.77V55.39h.73l0,.58Zm2.11,1.43a1.79,1.79,0,0,0-.28-1.1,1,1,0,0,0-.78-.37.89.89,0,0,0-.75.39,1.64,1.64,0,0,0-.3,1v.07a1.69,1.69,0,0,0,.3,1.06.9.9,0,0,0,.75.38.93.93,0,0,0,.77-.38A1.82,1.82,0,0,0,423.94,57.4Z"/><path class="cls-2" d="M428.14,59.42l0-.58h0a1.62,1.62,0,0,1-1.33.66,1.15,1.15,0,0,1-.93-.38,1.84,1.84,0,0,1-.31-1.17V55.39h.76v2.48a1.19,1.19,0,0,0,.18.76.68.68,0,0,0,.57.21.9.9,0,0,0,.72-.38,1.32,1.32,0,0,0,.33-.9V55.39h.77v4Z"/><path class="cls-2" d="M431.44,55.55h1.45v.62h-1.45V58a1.18,1.18,0,0,0,.13.68.53.53,0,0,0,.47.18,1.75,1.75,0,0,0,.7-.14l.11.6a2.84,2.84,0,0,1-.93.16,1.35,1.35,0,0,1-1-.31,1.45,1.45,0,0,1-.29-1v-2h-.86v-.62h.86V54.07h.79Z"/><path class="cls-2" d="M366.25,64.52h3.33v.7H367.1v1.69h2.33v.66H367.1v2.6h-.85Z"/><path class="cls-2" d="M373.29,66.07v.65a1.89,1.89,0,0,0-1.35.46,1.58,1.58,0,0,0-.49,1.21v1.78h-.79v-4h.75v.77h0A2.28,2.28,0,0,1,373.29,66.07Z"/><path class="cls-2" d="M374.77,68.47a1.17,1.17,0,0,0,.37.86,1.3,1.3,0,0,0,.89.32,2.48,2.48,0,0,0,1.16-.3l.2.59a3.36,3.36,0,0,1-1.44.31,1.91,1.91,0,0,1-1.42-.57,2.09,2.09,0,0,1-.55-1.52,2.18,2.18,0,0,1,.51-1.53,1.79,1.79,0,0,1,1.39-.56,1.73,1.73,0,0,1,1.34.53,2.18,2.18,0,0,1,.48,1.52c0,.08,0,.2,0,.35Zm0-.6H377a1.32,1.32,0,0,0-.3-.89,1,1,0,0,0-.77-.31,1.06,1.06,0,0,0-.8.32A1.27,1.27,0,0,0,374.77,67.87Z"/><path class="cls-2" d="M381.22,66.73h0v-.58H382v5.73h-.78V69.67h0a1.58,1.58,0,0,1-2.41,0,3,3,0,0,1,0-3.11,1.55,1.55,0,0,1,2.44.13Zm-2.11,1.43a1.71,1.71,0,0,0,.29,1.09.95.95,0,0,0,1.52,0,1.7,1.7,0,0,0,.29-1v-.08a1.74,1.74,0,0,0-.29-1.05,1,1,0,0,0-1.54,0A1.84,1.84,0,0,0,379.11,68.16Z"/><path class="cls-2" d="M385.66,70.17l0-.58h0a1.61,1.61,0,0,1-1.33.66,1.14,1.14,0,0,1-.93-.37,1.87,1.87,0,0,1-.31-1.18V66.15h.76v2.47a1.22,1.22,0,0,0,.18.77.68.68,0,0,0,.57.21.93.93,0,0,0,.72-.38,1.35,1.35,0,0,0,.33-.9V66.15h.77v4Z"/><path class="cls-2" d="M388,68.47a1.17,1.17,0,0,0,.37.86,1.3,1.3,0,0,0,.89.32,2.51,2.51,0,0,0,1.16-.3l.19.59a3.28,3.28,0,0,1-1.43.31,1.89,1.89,0,0,1-1.42-.57,2.09,2.09,0,0,1-.55-1.52,2.18,2.18,0,0,1,.51-1.53,1.77,1.77,0,0,1,1.38-.56,1.72,1.72,0,0,1,1.34.53,2.18,2.18,0,0,1,.48,1.52c0,.08,0,.2,0,.35Zm0-.6h2.17a1.27,1.27,0,0,0-.29-.89,1.14,1.14,0,0,0-1.57,0A1.27,1.27,0,0,0,388,67.87Z"/><path class="cls-2" d="M392.57,66.15l0,.58h0a1.88,1.88,0,0,1,.6-.49,1.66,1.66,0,0,1,.73-.17c.88,0,1.31.59,1.31,1.78v2.32h-.75V67.93a1.84,1.84,0,0,0-.19-1,.73.73,0,0,0-.64-.26.9.9,0,0,0-.72.4,1.36,1.36,0,0,0-.33.91v2.16h-.77v-4Z"/><path class="cls-2" d="M399.19,67a2.12,2.12,0,0,0-1.05-.28,1.21,1.21,0,0,0-.94.38,1.62,1.62,0,0,0-.34,1.08,1.57,1.57,0,0,0,.36,1.08,1.2,1.2,0,0,0,.92.39,2.22,2.22,0,0,0,1.05-.27l.19.62a3.16,3.16,0,0,1-1.28.27,2,2,0,0,1-1.48-.56,2.07,2.07,0,0,1-.57-1.53,2.11,2.11,0,0,1,.54-1.54,2,2,0,0,1,1.51-.55,3.16,3.16,0,0,1,1.28.27Z"/><path class="cls-2" d="M402,69.24h0l1.15-3.09H404l-2.32,5.73h-.83l.75-1.71-1.47-4H401Z"/><path class="cls-2" d="M408,67.85v2.32h-.85V64.56a9.56,9.56,0,0,1,1.55-.12,2.89,2.89,0,0,1,1.68.41A1.34,1.34,0,0,1,411,66a1.64,1.64,0,0,1-.31,1,1.47,1.47,0,0,1-.82.57v0a1.84,1.84,0,0,1,.62.92l.66,1.66h-.88l-.65-1.66a1,1,0,0,0-.35-.54,1.64,1.64,0,0,0-.75-.12Zm0-.67h.47c1.09,0,1.64-.37,1.64-1.11a.8.8,0,0,0-.35-.71,2.1,2.1,0,0,0-1.14-.24,2.9,2.9,0,0,0-.62.06Z"/><path class="cls-2" d="M412.51,68.47a1.17,1.17,0,0,0,.38.86,1.27,1.27,0,0,0,.88.32,2.54,2.54,0,0,0,1.17-.3l.19.59a3.35,3.35,0,0,1-1.43.31,1.88,1.88,0,0,1-1.42-.57,2.09,2.09,0,0,1-.56-1.52,2.13,2.13,0,0,1,.52-1.53,1.75,1.75,0,0,1,1.38-.56,1.73,1.73,0,0,1,1.34.53,2.18,2.18,0,0,1,.48,1.52c0,.08,0,.2,0,.35Zm0-.6h2.18a1.32,1.32,0,0,0-.29-.89,1.14,1.14,0,0,0-1.57,0A1.27,1.27,0,0,0,412.51,67.87Z"/><path class="cls-2" d="M417.72,66.69c-.52,0-.78.17-.78.5a.45.45,0,0,0,.18.38,1.5,1.5,0,0,0,.63.2,2.34,2.34,0,0,1,1.17.44,1.12,1.12,0,0,1,.34.88,1,1,0,0,1-.4.85,1.82,1.82,0,0,1-1.14.31,3.08,3.08,0,0,1-1.55-.39l.15-.62a2.64,2.64,0,0,0,1.4.39q.75,0,.75-.54a.49.49,0,0,0-.17-.41,1.46,1.46,0,0,0-.62-.21,2.38,2.38,0,0,1-1.16-.44,1.06,1.06,0,0,1-.35-.84,1,1,0,0,1,.4-.81,1.83,1.83,0,0,1,1.15-.31,3.05,3.05,0,0,1,1.39.31L419,67A2.56,2.56,0,0,0,417.72,66.69Z"/><path class="cls-2" d="M421,66.73a1.43,1.43,0,0,1,1.25-.66,1.48,1.48,0,0,1,1.2.53,2.46,2.46,0,0,1,.43,1.56,2.35,2.35,0,0,1-.45,1.55,1.46,1.46,0,0,1-1.18.54,1.43,1.43,0,0,1-1.22-.58h0v2.21h-.77V66.15H421l0,.58Zm2.12,1.43a1.83,1.83,0,0,0-.28-1.1,1,1,0,0,0-1.54,0,1.74,1.74,0,0,0-.29,1.05v.08a1.7,1.7,0,0,0,.29,1,.93.93,0,0,0,.75.38.94.94,0,0,0,.78-.38A1.77,1.77,0,0,0,423.11,68.16Z"/><path class="cls-2" d="M425,66.63a1.84,1.84,0,0,1,1.4-.56,1.87,1.87,0,0,1,1.41.56,2.47,2.47,0,0,1,0,3.06,1.87,1.87,0,0,1-1.41.56,1.84,1.84,0,0,1-1.4-.56,2.47,2.47,0,0,1,0-3.06Zm.57,2.61a1,1,0,0,0,.83.39,1,1,0,0,0,.84-.39,2,2,0,0,0,0-2.16,1,1,0,0,0-.84-.39,1,1,0,0,0-.83.39,2,2,0,0,0,0,2.16Z"/><path class="cls-2" d="M429.93,66.15v.58h0a1.69,1.69,0,0,1,.6-.49,1.65,1.65,0,0,1,.72-.17c.88,0,1.32.59,1.32,1.78v2.32h-.76V67.93a1.86,1.86,0,0,0-.18-1,.75.75,0,0,0-.65-.26.93.93,0,0,0-.72.4A1.4,1.4,0,0,0,430,68v2.16h-.78v-4Z"/><path class="cls-2" d="M435.07,66.69c-.52,0-.77.17-.77.5a.45.45,0,0,0,.18.38,1.4,1.4,0,0,0,.63.2,2.3,2.3,0,0,1,1.16.44,1.13,1.13,0,0,1,.35.88,1,1,0,0,1-.41.85,1.82,1.82,0,0,1-1.14.31,3.1,3.1,0,0,1-1.55-.39l.16-.62a2.58,2.58,0,0,0,1.39.39c.51,0,.76-.18.76-.54a.52.52,0,0,0-.17-.41,1.52,1.52,0,0,0-.63-.21,2.34,2.34,0,0,1-1.15-.44,1,1,0,0,1-.36-.84,1,1,0,0,1,.4-.81,1.85,1.85,0,0,1,1.15-.31,3,3,0,0,1,1.39.31l-.15.62A2.54,2.54,0,0,0,435.07,66.69Z"/><path class="cls-2" d="M438.1,68.47a1.17,1.17,0,0,0,.37.86,1.3,1.3,0,0,0,.89.32,2.48,2.48,0,0,0,1.16-.3l.2.59a3.36,3.36,0,0,1-1.44.31,1.91,1.91,0,0,1-1.42-.57,2.09,2.09,0,0,1-.55-1.52,2.18,2.18,0,0,1,.51-1.53,1.79,1.79,0,0,1,1.39-.56,1.73,1.73,0,0,1,1.34.53,2.18,2.18,0,0,1,.48,1.52c0,.08,0,.2,0,.35Zm0-.6h2.18A1.32,1.32,0,0,0,440,67a1,1,0,0,0-.77-.31,1.06,1.06,0,0,0-.8.32A1.27,1.27,0,0,0,438.1,67.87Z"/><path class="cls-2" d="M156.14,48.27V32.94h0l-4.81,4.34-1-2.3,5.88-5.37H159V48.27Z"/><path class="cls-2" d="M169.81,29.36a6.53,6.53,0,0,1,5,1.89,7.84,7.84,0,0,1,1.76,5.52c0,3.54-.89,6.34-2.67,8.38a10.21,10.21,0,0,1-7.37,3.38l-.51-2.3a9.59,9.59,0,0,0,4.74-1.54,7.54,7.54,0,0,0,2.64-3.81l0-.05a6.39,6.39,0,0,1-4.19,1.43,6,6,0,0,1-4.5-1.66A6.43,6.43,0,0,1,163,35.88a6.27,6.27,0,0,1,1.85-4.75A6.81,6.81,0,0,1,169.81,29.36Zm0,2.3a3.82,3.82,0,0,0-2.94,1.09,4.39,4.39,0,0,0-1,3.13A4.36,4.36,0,0,0,166.91,39a3.81,3.81,0,0,0,2.9,1.1A3.77,3.77,0,0,0,172.65,39a4.42,4.42,0,0,0,1.07-3.13,4.41,4.41,0,0,0-1-3.12A3.77,3.77,0,0,0,169.81,31.66Z"/><path class="cls-2" d="M185.91,29.36a6.36,6.36,0,0,1,4.43,1.42,5,5,0,0,1,1.57,3.95,8.66,8.66,0,0,1-1.62,4.93,35.38,35.38,0,0,1-6.3,6.26v0h7.92v2.3H180.16V46a45.28,45.28,0,0,0,7-6.48A7.43,7.43,0,0,0,189,35q0-3.27-3.48-3.27a8.76,8.76,0,0,0-4.85,1.69l-.77-2.25A10.48,10.48,0,0,1,185.91,29.36Z"/><path class="cls-2" d="M196,46.86h0V49h-1.21V42H196v4h0l1.84-1.88h1.44L197,46.46,199.33,49h-1.44Z"/><path class="cls-2" d="M204.48,45.92h-2.76V49h-1.3V42.22h1.3v2.71h2.76V42.22h1.31V49h-1.31Z"/><path class="cls-2" d="M208.67,48.1h2.48V49h-4v-.9l2.48-3v0h-2.48v-.9h4v.9l-2.48,3Z"/><path class="cls-2" d="M146,56.39a3.05,3.05,0,0,1-.75,2.23,3,3,0,0,1-2.19.75,8.41,8.41,0,0,1-1.47-.12V53.68a8.58,8.58,0,0,1,1.47-.12,3.05,3.05,0,0,1,2.18.73A2.77,2.77,0,0,1,146,56.39Zm-.81,0a1.9,1.9,0,0,0-2.13-2.13,3.8,3.8,0,0,0-.62.05v4.31a2.94,2.94,0,0,0,.62.05,2.09,2.09,0,0,0,1.61-.56A2.44,2.44,0,0,0,145.19,56.39Z"/><path class="cls-2" d="M147.12,54.34v-.85h.82v.85Zm0,4.95v-4h.82v4Z"/><path class="cls-2" d="M149.09,57.2a2.36,2.36,0,0,1,.41-1.49,1.41,1.41,0,0,1,1.17-.52,1.48,1.48,0,0,1,1.29.66h0l0-.58h.74v3.64c0,1.44-.66,2.17-2,2.17a3.43,3.43,0,0,1-1.28-.24l.16-.62a2.94,2.94,0,0,0,1.12.24,1.11,1.11,0,0,0,.91-.35A1.78,1.78,0,0,0,152,59V58.6h0a1.46,1.46,0,0,1-1.27.62,1.42,1.42,0,0,1-1.13-.55A2.26,2.26,0,0,1,149.09,57.2Zm.75,0a1.66,1.66,0,0,0,.29,1,.91.91,0,0,0,.74.37,1,1,0,0,0,.78-.36,1.51,1.51,0,0,0,.3-1v-.08a1.48,1.48,0,0,0-.3-1,1,1,0,0,0-.78-.36.9.9,0,0,0-.75.35A1.7,1.7,0,0,0,149.84,57.2Z"/><path class="cls-2" d="M154.11,54.34v-.85h.82v.85Zm0,4.95v-4h.82v4Z"/><path class="cls-2" d="M157.76,55.42h1.45V56h-1.45V57.9a1.2,1.2,0,0,0,.13.68.58.58,0,0,0,.47.17,1.59,1.59,0,0,0,.7-.14l.12.61a2.92,2.92,0,0,1-.93.15,1.34,1.34,0,0,1-1-.3,1.41,1.41,0,0,1-.3-1V56h-.85v-.62H157V54h.79Z"/><path class="cls-2" d="M160.14,58.21a1.26,1.26,0,0,1,.57-1.08,2.76,2.76,0,0,1,1.63-.41h.39v0a.91.91,0,0,0-.2-.68,1,1,0,0,0-.69-.19,2.78,2.78,0,0,0-1.36.35l-.11-.62a3.07,3.07,0,0,1,1.47-.35,1.91,1.91,0,0,1,1.27.35,1.45,1.45,0,0,1,.39,1.12v1.55a4.83,4.83,0,0,0,.12,1.08h-.73a2.81,2.81,0,0,1-.07-.62h0a1.46,1.46,0,0,1-.6.52,2,2,0,0,1-.86.18,1.21,1.21,0,0,1-.88-.31A1.09,1.09,0,0,1,160.14,58.21Zm2.59-.91h-.39a2,2,0,0,0-1.07.24.72.72,0,0,0-.37.63.57.57,0,0,0,.17.45.61.61,0,0,0,.46.17,1.14,1.14,0,0,0,.84-.34,1.08,1.08,0,0,0,.36-.82Z"/><path class="cls-2" d="M164.93,59.29v-5.8h.82v5.8Z"/><path class="cls-2" d="M171.13,54.25a1.13,1.13,0,0,0-.73.21.7.7,0,0,0-.25.58c0,.42.31.73.94.92a3.31,3.31,0,0,1,1.44.72,1.49,1.49,0,0,1,.42,1.1,1.44,1.44,0,0,1-.49,1.18,2.17,2.17,0,0,1-1.41.41,3.33,3.33,0,0,1-1.74-.46l.23-.7a2.68,2.68,0,0,0,1.51.46,1.14,1.14,0,0,0,.78-.23.81.81,0,0,0,.27-.66.86.86,0,0,0-.22-.63,1.73,1.73,0,0,0-.79-.41,3.26,3.26,0,0,1-1.35-.69,1.39,1.39,0,0,1-.43-1A1.29,1.29,0,0,1,169.8,54a2,2,0,0,1,1.33-.41,4.06,4.06,0,0,1,1.67.35l-.2.66A3.29,3.29,0,0,0,171.13,54.25Z"/><path class="cls-2" d="M173.76,58.21a1.26,1.26,0,0,1,.57-1.08,2.78,2.78,0,0,1,1.63-.41h.39v0a.91.91,0,0,0-.2-.68,1,1,0,0,0-.69-.19,2.72,2.72,0,0,0-1.35.35l-.12-.62a3.07,3.07,0,0,1,1.47-.35,1.91,1.91,0,0,1,1.27.35,1.45,1.45,0,0,1,.4,1.12v1.55a5.49,5.49,0,0,0,.11,1.08h-.73a3.57,3.57,0,0,1-.07-.62h0a1.46,1.46,0,0,1-.6.52,2,2,0,0,1-.86.18,1.21,1.21,0,0,1-.88-.31A1.13,1.13,0,0,1,173.76,58.21Zm2.59-.91H176a2,2,0,0,0-1.07.24.72.72,0,0,0-.37.63.57.57,0,0,0,.17.45.61.61,0,0,0,.46.17,1.18,1.18,0,0,0,.85-.34,1.1,1.1,0,0,0,.35-.82Z"/><path class="cls-2" d="M179,55.27v.54h0a1.25,1.25,0,0,1,1-.62,1.13,1.13,0,0,1,1.08.7h0a1.35,1.35,0,0,1,1.16-.7,1.14,1.14,0,0,1,.93.36,1.89,1.89,0,0,1,.31,1.19v2.55h-.76V57a1.93,1.93,0,0,0-.15-.92.57.57,0,0,0-.53-.24.68.68,0,0,0-.56.34,1.35,1.35,0,0,0-.25.82v2.32h-.76V57a1.93,1.93,0,0,0-.15-.92.55.55,0,0,0-.52-.24.71.71,0,0,0-.57.34,1.42,1.42,0,0,0-.25.82v2.32h-.77v-4Z"/><path class="cls-2" d="M185.39,55.85a1.42,1.42,0,0,1,1.25-.66,1.44,1.44,0,0,1,1.19.53,3,3,0,0,1,0,3.11,1.58,1.58,0,0,1-2.41,0h0V61h-.78V55.27h.74v.58Zm2.11,1.43a1.77,1.77,0,0,0-.28-1.1.9.9,0,0,0-.78-.37.93.93,0,0,0-.75.38,1.68,1.68,0,0,0-.29,1.05v.08a1.64,1.64,0,0,0,.29,1,.95.95,0,0,0,1.52,0A1.71,1.71,0,0,0,187.5,57.28Z"/><path class="cls-2" d="M189.42,59.29v-5.8h.82v5.8Z"/><path class="cls-2" d="M192.13,57.59a1.17,1.17,0,0,0,.38.86,1.28,1.28,0,0,0,.89.32,2.54,2.54,0,0,0,1.16-.3l.19.59a3.35,3.35,0,0,1-1.43.31,1.89,1.89,0,0,1-1.42-.57,2.08,2.08,0,0,1-.56-1.52,2.18,2.18,0,0,1,.52-1.53,1.79,1.79,0,0,1,1.38-.56,1.73,1.73,0,0,1,1.34.53,2.18,2.18,0,0,1,.48,1.52c0,.08,0,.2,0,.35Zm0-.6h2.18a1.32,1.32,0,0,0-.29-.89,1.14,1.14,0,0,0-1.57,0A1.27,1.27,0,0,0,192.13,57Z"/><path class="cls-2" d="M199.17,57v2.32h-.85V53.68a9.56,9.56,0,0,1,1.55-.12,2.89,2.89,0,0,1,1.68.41,1.34,1.34,0,0,1,.57,1.14,1.71,1.71,0,0,1-.31,1,1.47,1.47,0,0,1-.82.57v0a1.84,1.84,0,0,1,.62.92l.66,1.66h-.88l-.65-1.66a1,1,0,0,0-.36-.54,1.57,1.57,0,0,0-.74-.12Zm0-.67h.47c1.09,0,1.64-.37,1.64-1.11a.82.82,0,0,0-.35-.71,2.11,2.11,0,0,0-1.14-.23,2.94,2.94,0,0,0-.62,0Z"/><path class="cls-2" d="M203,58.21a1.26,1.26,0,0,1,.57-1.08,2.79,2.79,0,0,1,1.64-.41h.38v0a1,1,0,0,0-.19-.68,1,1,0,0,0-.7-.19,2.72,2.72,0,0,0-1.35.35l-.12-.62a3.1,3.1,0,0,1,1.47-.35,1.89,1.89,0,0,1,1.27.35,1.42,1.42,0,0,1,.4,1.12v1.55a5.49,5.49,0,0,0,.11,1.08h-.73a3.57,3.57,0,0,1-.07-.62h0a1.46,1.46,0,0,1-.6.52,2,2,0,0,1-.86.18,1.21,1.21,0,0,1-.88-.31A1.13,1.13,0,0,1,203,58.21Zm2.59-.91h-.38a2,2,0,0,0-1.08.24.72.72,0,0,0-.37.63.59.59,0,0,0,.63.62,1.18,1.18,0,0,0,.85-.34,1.1,1.1,0,0,0,.35-.82Z"/><path class="cls-2" d="M208.93,55.42h1.46V56h-1.46V57.9a1.2,1.2,0,0,0,.13.68.58.58,0,0,0,.47.17,1.59,1.59,0,0,0,.7-.14l.12.61a2.92,2.92,0,0,1-.93.15,1.34,1.34,0,0,1-1-.3,1.41,1.41,0,0,1-.3-1V56h-.85v-.62h.85V54h.79Z"/><path class="cls-2" d="M212,57.59a1.14,1.14,0,0,0,.38.86,1.27,1.27,0,0,0,.88.32,2.48,2.48,0,0,0,1.16-.3l.2.59a3.36,3.36,0,0,1-1.44.31,1.91,1.91,0,0,1-1.42-.57,2.07,2.07,0,0,1-.55-1.52,2.18,2.18,0,0,1,.51-1.53,1.82,1.82,0,0,1,1.39-.56,1.73,1.73,0,0,1,1.34.53,2.18,2.18,0,0,1,.48,1.52c0,.08,0,.2,0,.35Zm0-.6h2.18a1.32,1.32,0,0,0-.3-.89,1,1,0,0,0-.77-.31,1.06,1.06,0,0,0-.8.32A1.27,1.27,0,0,0,212,57Z"/><path class="cls-2" d="M217.22,55.81c-.51,0-.77.17-.77.5a.45.45,0,0,0,.18.38,1.4,1.4,0,0,0,.63.2,2.3,2.3,0,0,1,1.16.44,1.1,1.1,0,0,1,.35.88,1,1,0,0,1-.4.85,1.87,1.87,0,0,1-1.15.31,3.1,3.1,0,0,1-1.55-.39l.16-.62a2.61,2.61,0,0,0,1.39.39c.51,0,.76-.18.76-.54a.52.52,0,0,0-.17-.41,1.52,1.52,0,0,0-.63-.21,2.34,2.34,0,0,1-1.15-.44,1,1,0,0,1-.36-.84,1,1,0,0,1,.41-.81,1.82,1.82,0,0,1,1.14-.31,3.09,3.09,0,0,1,1.4.31l-.16.62A2.51,2.51,0,0,0,217.22,55.81Z"/><path class="cls-2" d="M262.65,48.27V32.94h0l-4.8,4.34-1-2.3,5.87-5.37h2.82V48.27Z"/><path class="cls-2" d="M276.2,48.27V32.94h-.05l-4.81,4.34-1-2.3,5.88-5.37H279V48.27Z"/><path class="cls-2" d="M284.12,29.61h11.5v2.3l-5.49,5.34v.06h.51a5.4,5.4,0,0,1,3.86,1.31,5,5,0,0,1,1.38,3.77,5.84,5.84,0,0,1-1.78,4.53,7.19,7.19,0,0,1-5,1.61,9.77,9.77,0,0,1-5-1.28l.77-2.3a8.92,8.92,0,0,0,4.21,1.28,4.08,4.08,0,0,0,2.93-1,3.76,3.76,0,0,0,1-2.84A2.59,2.59,0,0,0,292,40.08a6.63,6.63,0,0,0-3.61-.75h-1.79V37.18L292,32v-.05h-7.92Z"/><path class="cls-2" d="M303,42v7h-1.12l0-.68h0a1.82,1.82,0,0,1-2.88.12,2.92,2.92,0,0,1-.53-1.86,2.86,2.86,0,0,1,.52-1.86,1.82,1.82,0,0,1,2.83.07h0V42Zm-3.42,4.55a1.91,1.91,0,0,0,.31,1.16,1,1,0,0,0,.81.41,1,1,0,0,0,.79-.4,1.82,1.82,0,0,0,.3-1.12v-.09a1.83,1.83,0,0,0-.3-1.11.94.94,0,0,0-.79-.41,1,1,0,0,0-.83.39A2,2,0,0,0,299.57,46.58Z"/><path class="cls-2" d="M309.12,47.05a1.81,1.81,0,0,1-.66,1.53,3.49,3.49,0,0,1-2.1.51,12.26,12.26,0,0,1-1.95-.14V42.26a12.22,12.22,0,0,1,1.86-.14c1.74,0,2.6.57,2.6,1.71a1.36,1.36,0,0,1-.38,1,1.75,1.75,0,0,1-1,.54v0a1.94,1.94,0,0,1,1.2.56A1.54,1.54,0,0,1,309.12,47.05ZM305.7,45H306a2.46,2.46,0,0,0,1.25-.24.76.76,0,0,0,.38-.7.73.73,0,0,0-.31-.66,1.87,1.87,0,0,0-1-.21,4.16,4.16,0,0,0-.64,0Zm0,1V48a4.86,4.86,0,0,0,.69,0,1.81,1.81,0,0,0,1.13-.28,1,1,0,0,0,.36-.87.85.85,0,0,0-.41-.77,2.86,2.86,0,0,0-1.37-.24Z"/><path class="cls-2" d="M259,56.39a3.05,3.05,0,0,1-.75,2.23,3,3,0,0,1-2.19.75,8.49,8.49,0,0,1-1.47-.12V53.68a8.58,8.58,0,0,1,1.47-.12,3.05,3.05,0,0,1,2.18.73A2.77,2.77,0,0,1,259,56.39Zm-.81,0a1.9,1.9,0,0,0-2.13-2.13,3.8,3.8,0,0,0-.62.05v4.31a2.94,2.94,0,0,0,.62.05,2.07,2.07,0,0,0,1.61-.56A2.44,2.44,0,0,0,258.23,56.39Z"/><path class="cls-2" d="M261.47,58.36h0l1.15-3.09h.82L261.13,61h-.82l.74-1.71-1.47-4h.85Z"/><path class="cls-2" d="M265,55.27l0,.58h0a1.88,1.88,0,0,1,.6-.49,1.66,1.66,0,0,1,.73-.17c.88,0,1.31.59,1.31,1.78v2.32h-.75V57.05a1.84,1.84,0,0,0-.19-1,.73.73,0,0,0-.64-.26.93.93,0,0,0-.72.4,1.36,1.36,0,0,0-.33.91v2.16h-.77v-4Z"/><path class="cls-2" d="M268.55,58.21a1.26,1.26,0,0,1,.57-1.08,2.78,2.78,0,0,1,1.63-.41h.39v0a.91.91,0,0,0-.2-.68,1,1,0,0,0-.69-.19,2.72,2.72,0,0,0-1.35.35l-.12-.62a3.07,3.07,0,0,1,1.47-.35,1.91,1.91,0,0,1,1.27.35,1.45,1.45,0,0,1,.4,1.12v1.55a4.83,4.83,0,0,0,.11,1.08h-.73a2.81,2.81,0,0,1-.07-.62h0a1.46,1.46,0,0,1-.6.52,2,2,0,0,1-.86.18,1.21,1.21,0,0,1-.88-.31A1.13,1.13,0,0,1,268.55,58.21Zm2.59-.91h-.39a2,2,0,0,0-1.07.24.72.72,0,0,0-.37.63.57.57,0,0,0,.17.45.61.61,0,0,0,.46.17,1.14,1.14,0,0,0,.84-.34,1.08,1.08,0,0,0,.36-.82Z"/><path class="cls-2" d="M273.8,55.27l0,.54h0a1.25,1.25,0,0,1,1-.62,1.13,1.13,0,0,1,1.08.7h0a1.35,1.35,0,0,1,1.16-.7,1.14,1.14,0,0,1,.93.36,1.89,1.89,0,0,1,.3,1.19v2.55h-.75V57a1.93,1.93,0,0,0-.15-.92.57.57,0,0,0-.53-.24.68.68,0,0,0-.56.34,1.35,1.35,0,0,0-.25.82v2.32h-.76V57a1.93,1.93,0,0,0-.15-.92.56.56,0,0,0-.52-.24.71.71,0,0,0-.57.34,1.42,1.42,0,0,0-.25.82v2.32h-.77v-4Z"/><path class="cls-2" d="M279.68,54.34v-.85h.82v.85Zm0,4.95v-4h.82v4Z"/><path class="cls-2" d="M284.75,56.1a2.23,2.23,0,0,0-1.05-.28,1.21,1.21,0,0,0-.94.38,1.62,1.62,0,0,0-.34,1.08,1.57,1.57,0,0,0,.36,1.08,1.2,1.2,0,0,0,.92.39,2.22,2.22,0,0,0,1.05-.27l.19.62a3.16,3.16,0,0,1-1.28.27,2,2,0,0,1-1.48-.56,2.07,2.07,0,0,1-.57-1.53,2.11,2.11,0,0,1,.54-1.54,2,2,0,0,1,1.51-.55,3.16,3.16,0,0,1,1.28.27Z"/><path class="cls-2" d="M289.21,57v2.32h-.85V53.68a9.43,9.43,0,0,1,1.54-.12,2.85,2.85,0,0,1,1.68.41,1.34,1.34,0,0,1,.57,1.14,1.7,1.7,0,0,1-.3,1,1.5,1.5,0,0,1-.82.57v0a1.84,1.84,0,0,1,.62.92l.65,1.66h-.88l-.64-1.66a1.09,1.09,0,0,0-.36-.54,1.59,1.59,0,0,0-.75-.12Zm0-.67h.46c1.1,0,1.64-.37,1.64-1.11a.79.79,0,0,0-.35-.71,2.05,2.05,0,0,0-1.13-.23,2.88,2.88,0,0,0-.62,0Z"/><path class="cls-2" d="M293,58.21a1.26,1.26,0,0,1,.57-1.08,2.82,2.82,0,0,1,1.64-.41h.39v0a1,1,0,0,0-.2-.68,1,1,0,0,0-.69-.19,2.75,2.75,0,0,0-1.36.35l-.11-.62a3.07,3.07,0,0,1,1.47-.35,1.93,1.93,0,0,1,1.27.35,1.45,1.45,0,0,1,.39,1.12v1.55a4.83,4.83,0,0,0,.12,1.08h-.74a4.9,4.9,0,0,1-.07-.62h0a1.6,1.6,0,0,1-.6.52,2.05,2.05,0,0,1-.87.18,1.2,1.2,0,0,1-.87-.31A1.1,1.1,0,0,1,293,58.21Zm2.6-.91h-.39a2,2,0,0,0-1.07.24.73.73,0,0,0-.38.63.58.58,0,0,0,.18.45.6.6,0,0,0,.46.17,1.17,1.17,0,0,0,.84-.34,1.08,1.08,0,0,0,.36-.82Z"/><path class="cls-2" d="M298.25,55.27l0,.58h0a1.88,1.88,0,0,1,.6-.49,1.66,1.66,0,0,1,.73-.17c.88,0,1.31.59,1.31,1.78v2.32h-.75V57.05a1.84,1.84,0,0,0-.19-1,.73.73,0,0,0-.64-.26.93.93,0,0,0-.72.4,1.36,1.36,0,0,0-.33.91v2.16h-.77v-4Z"/><path class="cls-2" d="M301.77,57.2a2.3,2.3,0,0,1,.42-1.49,1.39,1.39,0,0,1,1.17-.52,1.46,1.46,0,0,1,1.28.66h0v-.58h.74v3.64c0,1.44-.66,2.17-2,2.17a3.34,3.34,0,0,1-1.27-.24l.15-.62a3,3,0,0,0,1.12.24,1.13,1.13,0,0,0,.92-.35,1.85,1.85,0,0,0,.28-1.16V58.6h0a1.45,1.45,0,0,1-1.26.62,1.43,1.43,0,0,1-1.14-.55A2.26,2.26,0,0,1,301.77,57.2Zm.76,0a1.66,1.66,0,0,0,.28,1,.91.91,0,0,0,.74.37,1,1,0,0,0,.78-.36,1.51,1.51,0,0,0,.3-1v-.08a1.48,1.48,0,0,0-.3-1,1,1,0,0,0-.78-.36.9.9,0,0,0-.75.35A1.7,1.7,0,0,0,302.53,57.2Z"/><path class="cls-2" d="M307,57.59a1.17,1.17,0,0,0,.38.86,1.27,1.27,0,0,0,.88.32,2.48,2.48,0,0,0,1.16-.3l.2.59a3.35,3.35,0,0,1-1.43.31,1.91,1.91,0,0,1-1.43-.57,2.44,2.44,0,0,1,0-3,1.79,1.79,0,0,1,1.38-.56,1.73,1.73,0,0,1,1.34.53,2.18,2.18,0,0,1,.48,1.52c0,.08,0,.2,0,.35Zm0-.6h2.18a1.32,1.32,0,0,0-.29-.89,1,1,0,0,0-.78-.31,1.06,1.06,0,0,0-.8.32A1.32,1.32,0,0,0,307,57Z"/><path class="cls-2" d="M272.21,67.88a4.8,4.8,0,0,0,1.51,3.59H273a4.62,4.62,0,0,1-1.15-1.61,5.08,5.08,0,0,1,0-4,4.67,4.67,0,0,1,1.15-1.6h.77A4.75,4.75,0,0,0,272.21,67.88Z"/><path class="cls-2" d="M279.09,67.37a3,3,0,0,1-.76,2.22,2.92,2.92,0,0,1-2.18.76,8.41,8.41,0,0,1-1.47-.12V64.66a8.58,8.58,0,0,1,1.47-.12,3,3,0,0,1,2.18.73A2.77,2.77,0,0,1,279.09,67.37Zm-.81,0a2.17,2.17,0,0,0-.54-1.6,2.19,2.19,0,0,0-1.59-.53,2.94,2.94,0,0,0-.62.05V69.6a3.8,3.8,0,0,0,.62.05,2.13,2.13,0,0,0,1.61-.56A2.46,2.46,0,0,0,278.28,67.37Z"/><path class="cls-2" d="M279.63,70.27l2-5.65h.93l2,5.65h-.91l-.49-1.5H281l-.49,1.5Zm1.58-2.17H283l-.87-2.71h0Z"/><path class="cls-2" d="M288.06,65.24a2,2,0,0,0-1.5.6,2.24,2.24,0,0,0-.57,1.6,2.21,2.21,0,0,0,.58,1.61,2,2,0,0,0,1.49.6,2.66,2.66,0,0,0,1.44-.43l.27.64a3.34,3.34,0,0,1-1.79.49,2.8,2.8,0,0,1-2.07-.79,2.84,2.84,0,0,1-.79-2.12,2.88,2.88,0,0,1,.77-2.11,2.8,2.8,0,0,1,2.09-.79,3.25,3.25,0,0,1,1.79.49l-.27.63A2.73,2.73,0,0,0,288.06,65.24Z"/><path class="cls-2" d="M290.57,64.31h.78a4.78,4.78,0,0,1,1.14,1.6,5.08,5.08,0,0,1,0,4,4.72,4.72,0,0,1-1.14,1.61h-.78a5,5,0,0,0,0-7.16Z"/><path class="cls-2" d="M496.28,38.29a4.56,4.56,0,0,1,6.52,0,7.23,7.23,0,0,1,1.08,4.43,7.21,7.21,0,0,1-1.08,4.43,4.54,4.54,0,0,1-6.52,0,7.21,7.21,0,0,1-1.07-4.43A7.23,7.23,0,0,1,496.28,38.29Zm1.65,7.62a1.86,1.86,0,0,0,3.22,0,6.94,6.94,0,0,0,.53-3.19,7,7,0,0,0-.53-3.19,1.86,1.86,0,0,0-3.22,0,7,7,0,0,0-.53,3.19A6.94,6.94,0,0,0,497.93,45.91Z"/><path class="cls-2" d="M505.88,48.38V45.74h2.47v2.64Z"/><path class="cls-2" d="M511.43,38.29a4.56,4.56,0,0,1,6.52,0A7.23,7.23,0,0,1,519,42.72,7.21,7.21,0,0,1,518,47.15a4.54,4.54,0,0,1-6.52,0,7.21,7.21,0,0,1-1.08-4.43A7.23,7.23,0,0,1,511.43,38.29Zm1.65,7.62a1.86,1.86,0,0,0,3.22,0,6.94,6.94,0,0,0,.53-3.19,7,7,0,0,0-.53-3.19,1.86,1.86,0,0,0-3.22,0,7,7,0,0,0-.53,3.19A6.94,6.94,0,0,0,513.08,45.91Z"/><path class="cls-2" d="M521.34,38.29a4.56,4.56,0,0,1,6.52,0,7.23,7.23,0,0,1,1.08,4.43,7.21,7.21,0,0,1-1.08,4.43,4.54,4.54,0,0,1-6.52,0,7.21,7.21,0,0,1-1.08-4.43A7.23,7.23,0,0,1,521.34,38.29ZM523,45.91a1.86,1.86,0,0,0,3.22,0,6.94,6.94,0,0,0,.53-3.19,7,7,0,0,0-.53-3.19,1.86,1.86,0,0,0-3.22,0,7,7,0,0,0-.53,3.19A6.94,6.94,0,0,0,523,45.91Z"/><path class="cls-2" d="M535.8,48.27V32.94h0L531,37.28l-1-2.3,5.87-5.37h2.81V48.27Z"/><path class="cls-2" d="M555,31.91h-7.8L546.92,37H547a6.27,6.27,0,0,1,3.14-.77,5.5,5.5,0,0,1,4.14,1.51A5.78,5.78,0,0,1,555.74,42a6.25,6.25,0,0,1-1.82,4.87,7.69,7.69,0,0,1-5.34,1.65,10.55,10.55,0,0,1-4.86-1.15l.64-2.3a9.56,9.56,0,0,0,4.22,1.15c2.9,0,4.34-1.41,4.34-4.22,0-2.37-1.1-3.55-3.32-3.55a4.23,4.23,0,0,0-3.06,1.12h-2.43l.51-10H555Z"/><path class="cls-2" d="M558.41,42.6a1.89,1.89,0,0,1,2.52,0,2.3,2.3,0,0,1,0,2.73,1.89,1.89,0,0,1-2.52,0,2.34,2.34,0,0,1,0-2.73ZM559.67,45c.4,0,.59-.33.59-1s-.19-1-.59-1-.59.33-.59,1S559.28,45,559.67,45Zm3.46-2.74h1.14L560.55,49h-1.14Zm-.38,3.67A1.65,1.65,0,0,1,564,45.4a1.61,1.61,0,0,1,1.25.49,2.3,2.3,0,0,1,0,2.73,1.64,1.64,0,0,1-1.25.47,1.67,1.67,0,0,1-1.26-.47,2.34,2.34,0,0,1,0-2.73ZM564,48.24c.39,0,.58-.33.58-1s-.19-1-.58-1-.59.33-.59,1S563.62,48.24,564,48.24Z"/><path class="cls-2" d="M502.6,54.25a1.13,1.13,0,0,0-.73.21.7.7,0,0,0-.25.58c0,.42.31.73.94.92a3.31,3.31,0,0,1,1.44.72,1.49,1.49,0,0,1,.42,1.1,1.44,1.44,0,0,1-.49,1.18,2.17,2.17,0,0,1-1.41.41,3.33,3.33,0,0,1-1.74-.46l.23-.7a2.68,2.68,0,0,0,1.51.46,1.14,1.14,0,0,0,.78-.23.81.81,0,0,0,.27-.66.86.86,0,0,0-.22-.63,1.73,1.73,0,0,0-.79-.41,3.26,3.26,0,0,1-1.35-.69,1.39,1.39,0,0,1-.43-1,1.29,1.29,0,0,1,.49-1.07,2,2,0,0,1,1.33-.41,4.06,4.06,0,0,1,1.67.35l-.2.66A3.29,3.29,0,0,0,502.6,54.25Z"/><path class="cls-2" d="M506.19,55.85a1.42,1.42,0,0,1,1.24-.66,1.46,1.46,0,0,1,1.2.53,3,3,0,0,1,0,3.11,1.48,1.48,0,0,1-1.19.54,1.46,1.46,0,0,1-1.22-.58h0V61h-.78V55.27h.74v.58Zm2.11,1.43a1.77,1.77,0,0,0-.28-1.1.9.9,0,0,0-.78-.37.93.93,0,0,0-.75.38,1.68,1.68,0,0,0-.29,1.05v.08a1.64,1.64,0,0,0,.29,1,.95.95,0,0,0,1.52,0A1.71,1.71,0,0,0,508.3,57.28Z"/><path class="cls-2" d="M510.46,57.59a1.17,1.17,0,0,0,.38.86,1.27,1.27,0,0,0,.88.32,2.54,2.54,0,0,0,1.17-.3l.19.59a3.35,3.35,0,0,1-1.43.31,1.88,1.88,0,0,1-1.42-.57,2.08,2.08,0,0,1-.56-1.52,2.13,2.13,0,0,1,.52-1.53,1.79,1.79,0,0,1,1.38-.56,1.73,1.73,0,0,1,1.34.53,2.18,2.18,0,0,1,.48,1.52c0,.08,0,.2,0,.35Zm0-.6h2.18a1.32,1.32,0,0,0-.29-.89,1.14,1.14,0,0,0-1.57,0A1.27,1.27,0,0,0,510.46,57Z"/><path class="cls-2" d="M514.08,58.21a1.26,1.26,0,0,1,.57-1.08,2.79,2.79,0,0,1,1.64-.41h.38v0a1,1,0,0,0-.19-.68,1,1,0,0,0-.7-.19,2.72,2.72,0,0,0-1.35.35l-.12-.62a3.13,3.13,0,0,1,1.47-.35,1.89,1.89,0,0,1,1.27.35,1.42,1.42,0,0,1,.4,1.12v1.55a5.49,5.49,0,0,0,.11,1.08h-.73a3.57,3.57,0,0,1-.07-.62h0a1.46,1.46,0,0,1-.6.52,2,2,0,0,1-.86.18,1.21,1.21,0,0,1-.88-.31A1.13,1.13,0,0,1,514.08,58.21Zm2.59-.91h-.38a2,2,0,0,0-1.08.24.72.72,0,0,0-.37.63.59.59,0,0,0,.63.62,1.18,1.18,0,0,0,.85-.34,1.1,1.1,0,0,0,.35-.82Z"/><path class="cls-2" d="M519.43,57.44h0v1.85h-.78v-5.8h.78v3.4h0l1.77-1.62h1l-2.09,1.89,2.13,2.13h-1Z"/><path class="cls-2" d="M523.6,57.59a1.17,1.17,0,0,0,.38.86,1.28,1.28,0,0,0,.89.32,2.54,2.54,0,0,0,1.16-.3l.19.59a3.35,3.35,0,0,1-1.43.31,1.89,1.89,0,0,1-1.42-.57,2.08,2.08,0,0,1-.56-1.52,2.18,2.18,0,0,1,.52-1.53,1.79,1.79,0,0,1,1.38-.56,1.73,1.73,0,0,1,1.34.53,2.18,2.18,0,0,1,.48,1.52c0,.08,0,.2,0,.35Zm0-.6h2.18a1.32,1.32,0,0,0-.29-.89,1.14,1.14,0,0,0-1.57,0A1.27,1.27,0,0,0,523.6,57Z"/><path class="cls-2" d="M530.05,55.19v.65a1.89,1.89,0,0,0-1.35.46,1.58,1.58,0,0,0-.5,1.21v1.78h-.79v-4h.76V56h0A2.28,2.28,0,0,1,530.05,55.19Z"/><path class="cls-2" d="M533.79,54.35a2.73,2.73,0,0,1,2-.79,2.7,2.7,0,0,1,2,.79,3.32,3.32,0,0,1,0,4.23,2.66,2.66,0,0,1-2,.79,2.69,2.69,0,0,1-2-.79,3.36,3.36,0,0,1,0-4.23Zm.64,3.73a1.94,1.94,0,0,0,2.79,0,2.33,2.33,0,0,0,.52-1.61,2.37,2.37,0,0,0-.52-1.62,1.94,1.94,0,0,0-2.79,0,2.38,2.38,0,0,0-.53,1.62A2.33,2.33,0,0,0,534.43,58.08Z"/><path class="cls-2" d="M542,59.29v-.58h0a1.59,1.59,0,0,1-1.32.66,1.12,1.12,0,0,1-.93-.37,1.81,1.81,0,0,1-.31-1.18V55.27h.75v2.48a1.21,1.21,0,0,0,.18.76.72.72,0,0,0,.58.21,1,1,0,0,0,.72-.38,1.4,1.4,0,0,0,.32-.9V55.27h.78v4Z"/><path class="cls-2" d="M545.31,55.42h1.46V56h-1.46V57.9a1.2,1.2,0,0,0,.13.68.58.58,0,0,0,.47.17,1.59,1.59,0,0,0,.7-.14l.12.61a2.92,2.92,0,0,1-.93.15,1.34,1.34,0,0,1-1-.3,1.41,1.41,0,0,1-.3-1V56h-.85v-.62h.85V54h.79Z"/><path class="cls-2" d="M548.65,55.85a1.42,1.42,0,0,1,1.24-.66,1.46,1.46,0,0,1,1.2.53,3,3,0,0,1,0,3.11,1.48,1.48,0,0,1-1.19.54,1.46,1.46,0,0,1-1.22-.58h0V61h-.78V55.27h.74v.58Zm2.11,1.43a1.77,1.77,0,0,0-.28-1.1.9.9,0,0,0-.78-.37.93.93,0,0,0-.75.38,1.68,1.68,0,0,0-.29,1.05v.08a1.64,1.64,0,0,0,.29,1,.95.95,0,0,0,1.52,0A1.71,1.71,0,0,0,550.76,57.28Z"/><path class="cls-2" d="M555,59.29l0-.58h0a1.6,1.6,0,0,1-1.33.66,1.14,1.14,0,0,1-.93-.37,1.87,1.87,0,0,1-.31-1.18V55.27h.76v2.48a1.21,1.21,0,0,0,.18.76.71.71,0,0,0,.58.21.93.93,0,0,0,.71-.38,1.35,1.35,0,0,0,.33-.9V55.27h.77v4Z"/><path class="cls-2" d="M558.26,55.42h1.45V56h-1.45V57.9a1.2,1.2,0,0,0,.13.68.57.57,0,0,0,.47.17,1.59,1.59,0,0,0,.7-.14l.11.61a2.82,2.82,0,0,1-.92.15,1.32,1.32,0,0,1-1-.3,1.41,1.41,0,0,1-.3-1V56h-.85v-.62h.85V54h.79Z"/><path class="cls-2" d="M517.1,64.62h4.18v.71h-1.66v4.94h-.86V65.33H517.1Z"/><path class="cls-2" d="M523.21,64.62v2.3h2.63v-2.3h.85v5.65h-.85V67.59h-2.63v2.68h-.85V64.62Z"/><path class="cls-2" d="M532.38,67.37a3,3,0,0,1-.76,2.22,3,3,0,0,1-2.19.76,8.58,8.58,0,0,1-1.47-.12V64.66a8.58,8.58,0,0,1,1.47-.12,3,3,0,0,1,2.18.73A2.78,2.78,0,0,1,532.38,67.37Zm-.82,0a2.17,2.17,0,0,0-.54-1.6,2.19,2.19,0,0,0-1.59-.53,2.84,2.84,0,0,0-.61.05V69.6a3.67,3.67,0,0,0,.61.05,2.11,2.11,0,0,0,1.61-.56A2.46,2.46,0,0,0,531.56,67.37Z"/><path class="cls-2" d="M535.85,65.78V67.7h1.9v.65h-1.9v1.92h-.69V68.35h-1.9V67.7h1.9V65.78Z"/><path class="cls-2" d="M539,70.27V64.62h.84l2.65,4.22h0V64.62h.84v5.65h-.84l-2.65-4.22h0v4.22Z"/><path class="cls-2" d="M603.09,38.29a4.56,4.56,0,0,1,6.52,0,7.23,7.23,0,0,1,1.08,4.43,7.21,7.21,0,0,1-1.08,4.43,4.54,4.54,0,0,1-6.52,0A7.21,7.21,0,0,1,602,42.72,7.23,7.23,0,0,1,603.09,38.29Zm1.65,7.62a1.86,1.86,0,0,0,3.22,0,6.94,6.94,0,0,0,.53-3.19,7,7,0,0,0-.53-3.19,1.86,1.86,0,0,0-3.22,0,7,7,0,0,0-.53,3.19A6.94,6.94,0,0,0,604.74,45.91Z"/><path class="cls-2" d="M612.69,48.38V45.74h2.47v2.64Z"/><path class="cls-2" d="M618.24,38.29a4.56,4.56,0,0,1,6.52,0,7.23,7.23,0,0,1,1.08,4.43,7.21,7.21,0,0,1-1.08,4.43,4.54,4.54,0,0,1-6.52,0,7.21,7.21,0,0,1-1.08-4.43A7.23,7.23,0,0,1,618.24,38.29Zm1.65,7.62a1.86,1.86,0,0,0,3.22,0,6.94,6.94,0,0,0,.53-3.19,7,7,0,0,0-.53-3.19,1.86,1.86,0,0,0-3.22,0,7,7,0,0,0-.53,3.19A6.94,6.94,0,0,0,619.89,45.91Z"/><path class="cls-2" d="M628.15,38.29a4.56,4.56,0,0,1,6.52,0,7.23,7.23,0,0,1,1.08,4.43,7.21,7.21,0,0,1-1.08,4.43,4.54,4.54,0,0,1-6.52,0,7.21,7.21,0,0,1-1.08-4.43A7.23,7.23,0,0,1,628.15,38.29Zm1.65,7.62a1.86,1.86,0,0,0,3.22,0,6.94,6.94,0,0,0,.53-3.19,7,7,0,0,0-.53-3.19,1.86,1.86,0,0,0-3.22,0,7,7,0,0,0-.53,3.19A6.94,6.94,0,0,0,629.8,45.91Z"/><path class="cls-2" d="M638.06,38.29a4.56,4.56,0,0,1,6.52,0,7.23,7.23,0,0,1,1.08,4.43,7.21,7.21,0,0,1-1.08,4.43,4.54,4.54,0,0,1-6.52,0A7.28,7.28,0,0,1,637,42.72,7.3,7.3,0,0,1,638.06,38.29Zm1.65,7.62a1.86,1.86,0,0,0,3.22,0,6.81,6.81,0,0,0,.53-3.19,6.83,6.83,0,0,0-.53-3.19,1.86,1.86,0,0,0-3.22,0,7,7,0,0,0-.52,3.19A7,7,0,0,0,639.71,45.91Z"/><path class="cls-2" d="M654.2,29.36a6.5,6.5,0,0,1,5,1.89A7.79,7.79,0,0,1,661,36.77c0,3.54-.89,6.34-2.67,8.38a10.21,10.21,0,0,1-7.37,3.38l-.51-2.3a9.59,9.59,0,0,0,4.74-1.54,7.48,7.48,0,0,0,2.64-3.81l0-.05a6.39,6.39,0,0,1-4.19,1.43,6,6,0,0,1-4.5-1.66,6.43,6.43,0,0,1-1.63-4.72,6.3,6.3,0,0,1,1.85-4.75A6.84,6.84,0,0,1,654.2,29.36Zm0,2.3a3.82,3.82,0,0,0-2.94,1.09,4.39,4.39,0,0,0-1,3.13A4.36,4.36,0,0,0,651.3,39a3.81,3.81,0,0,0,2.9,1.1A3.75,3.75,0,0,0,657,39a4.42,4.42,0,0,0,1.07-3.13,4.41,4.41,0,0,0-1-3.12A3.75,3.75,0,0,0,654.2,31.66Z"/><path class="cls-2" d="M663.14,42.6a1.88,1.88,0,0,1,2.51,0,2.26,2.26,0,0,1,0,2.73,1.88,1.88,0,0,1-2.51,0,2.34,2.34,0,0,1,0-2.73ZM664.4,45c.39,0,.59-.33.59-1s-.2-1-.59-1-.59.33-.59,1S664,45,664.4,45Zm3.45-2.74H669L665.28,49h-1.15Zm-.37,3.67a1.85,1.85,0,0,1,2.51,0,2.3,2.3,0,0,1,0,2.73,1.91,1.91,0,0,1-2.51,0,2.3,2.3,0,0,1,0-2.73Zm1.26,2.35c.38,0,.58-.33.58-1s-.2-1-.58-1-.59.33-.59,1S668.34,48.24,668.74,48.24Z"/><path class="cls-2" d="M602.09,53.64V56h2.63V53.64h.85v5.65h-.85V56.61h-2.63v2.68h-.86V53.64Z"/><path class="cls-2" d="M607.28,57.59a1.17,1.17,0,0,0,.38.86,1.27,1.27,0,0,0,.88.32,2.54,2.54,0,0,0,1.17-.3l.19.59a3.35,3.35,0,0,1-1.43.31A1.91,1.91,0,0,1,607,58.8a2.44,2.44,0,0,1,0-3,1.79,1.79,0,0,1,1.38-.56,1.73,1.73,0,0,1,1.34.53,2.18,2.18,0,0,1,.48,1.52c0,.08,0,.2,0,.35Zm0-.6h2.18a1.32,1.32,0,0,0-.29-.89,1,1,0,0,0-.78-.31,1.06,1.06,0,0,0-.8.32A1.32,1.32,0,0,0,607.28,57Z"/><path class="cls-2" d="M610.9,58.21a1.26,1.26,0,0,1,.57-1.08,2.79,2.79,0,0,1,1.64-.41h.38v0a.91.91,0,0,0-.2-.68,1,1,0,0,0-.69-.19,2.72,2.72,0,0,0-1.35.35l-.12-.62a3.07,3.07,0,0,1,1.47-.35,1.89,1.89,0,0,1,1.27.35,1.45,1.45,0,0,1,.4,1.12v1.55a5.49,5.49,0,0,0,.11,1.08h-.73a3.57,3.57,0,0,1-.07-.62h0a1.46,1.46,0,0,1-.6.52,2,2,0,0,1-.86.18,1.21,1.21,0,0,1-.88-.31A1.13,1.13,0,0,1,610.9,58.21Zm2.59-.91h-.38a2,2,0,0,0-1.08.24.72.72,0,0,0-.37.63.57.57,0,0,0,.17.45.61.61,0,0,0,.46.17,1.18,1.18,0,0,0,.85-.34,1.1,1.1,0,0,0,.35-.82Z"/><path class="cls-2" d="M618.83,53.49v5.8h-.74v-.58h0a1.41,1.41,0,0,1-1.25.66,1.46,1.46,0,0,1-1.18-.54,3,3,0,0,1,0-3.11,1.56,1.56,0,0,1,2.42.09h0V53.49ZM616,57.28a1.71,1.71,0,0,0,.29,1.09.95.95,0,0,0,1.52,0,1.64,1.64,0,0,0,.29-1v-.08a1.68,1.68,0,0,0-.29-1.05.93.93,0,0,0-.75-.38.9.9,0,0,0-.78.37A1.77,1.77,0,0,0,616,57.28Z"/><path class="cls-2" d="M620.75,55.85a1.42,1.42,0,0,1,1.25-.66,1.44,1.44,0,0,1,1.19.53,3,3,0,0,1,0,3.11,1.58,1.58,0,0,1-2.41,0h0V61H620V55.27h.74v.58Zm2.11,1.43a1.77,1.77,0,0,0-.28-1.1.9.9,0,0,0-.78-.37.93.93,0,0,0-.75.38,1.68,1.68,0,0,0-.29,1.05v.08a1.64,1.64,0,0,0,.29,1,.95.95,0,0,0,1.52,0A1.71,1.71,0,0,0,622.86,57.28Z"/><path class="cls-2" d="M625.32,55.81h0a1.67,1.67,0,0,1,1.3-.62c.88,0,1.32.59,1.32,1.78v2.32h-.76V57.05a1.86,1.86,0,0,0-.18-1,.75.75,0,0,0-.65-.26.91.91,0,0,0-.73.41,1.43,1.43,0,0,0-.31.9v2.16h-.78v-5.8h.78Z"/><path class="cls-2" d="M629.29,55.75a1.84,1.84,0,0,1,1.4-.56,1.87,1.87,0,0,1,1.41.56,2.47,2.47,0,0,1,0,3.06,1.87,1.87,0,0,1-1.41.56,1.84,1.84,0,0,1-1.4-.56,2.47,2.47,0,0,1,0-3.06Zm.57,2.61a1,1,0,0,0,.83.39,1,1,0,0,0,.84-.39,1.64,1.64,0,0,0,.31-1.08,1.65,1.65,0,0,0-.31-1.08,1,1,0,0,0-.84-.39,1,1,0,0,0-.83.39,1.65,1.65,0,0,0-.31,1.08A1.64,1.64,0,0,0,629.86,58.36Z"/><path class="cls-2" d="M634.21,55.27v.58h0a1.69,1.69,0,0,1,.6-.49,1.65,1.65,0,0,1,.72-.17c.88,0,1.32.59,1.32,1.78v2.32h-.76V57.05a1.86,1.86,0,0,0-.18-1,.75.75,0,0,0-.65-.26,1,1,0,0,0-.72.4,1.4,1.4,0,0,0-.32.91v2.16h-.78v-4Z"/><path class="cls-2" d="M638.47,57.59a1.21,1.21,0,0,0,.38.86,1.28,1.28,0,0,0,.89.32,2.54,2.54,0,0,0,1.16-.3l.19.59a3.32,3.32,0,0,1-1.43.31,1.89,1.89,0,0,1-1.42-.57,2.08,2.08,0,0,1-.56-1.52,2.18,2.18,0,0,1,.52-1.53,1.79,1.79,0,0,1,1.38-.56,1.72,1.72,0,0,1,1.34.53,2.18,2.18,0,0,1,.48,1.52c0,.08,0,.2,0,.35Zm0-.6h2.18a1.27,1.27,0,0,0-.29-.89,1.14,1.14,0,0,0-1.57,0A1.32,1.32,0,0,0,638.47,57Z"/><path class="cls-2" d="M645.07,54.35a3,3,0,0,1,4.06,0,3.32,3.32,0,0,1,0,4.23,3,3,0,0,1-4.06,0,3.32,3.32,0,0,1,0-4.23Zm.64,3.73a1.74,1.74,0,0,0,1.39.59,1.78,1.78,0,0,0,1.4-.59,2.33,2.33,0,0,0,.52-1.61,2.37,2.37,0,0,0-.52-1.62,1.81,1.81,0,0,0-1.4-.59,1.78,1.78,0,0,0-1.39.59,2.38,2.38,0,0,0-.53,1.62A2.33,2.33,0,0,0,645.71,58.08Z"/><path class="cls-2" d="M653.29,59.29l0-.58h0a1.6,1.6,0,0,1-1.33.66A1.14,1.14,0,0,1,651,59a1.87,1.87,0,0,1-.31-1.18V55.27h.76v2.48a1.21,1.21,0,0,0,.18.76.71.71,0,0,0,.58.21.93.93,0,0,0,.71-.38,1.35,1.35,0,0,0,.33-.9V55.27H654v4Z"/><path class="cls-2" d="M656.59,55.42H658V56h-1.45V57.9a1.2,1.2,0,0,0,.13.68.57.57,0,0,0,.47.17,1.59,1.59,0,0,0,.7-.14l.11.61a2.82,2.82,0,0,1-.92.15,1.32,1.32,0,0,1-1-.3,1.41,1.41,0,0,1-.3-1V56H655v-.62h.85V54h.79Z"/><path class="cls-2" d="M659.93,55.85a1.42,1.42,0,0,1,1.24-.66,1.48,1.48,0,0,1,1.2.53,2.4,2.4,0,0,1,.43,1.56,2.35,2.35,0,0,1-.45,1.55,1.57,1.57,0,0,1-2.4,0h0V61h-.77V55.27h.73l0,.58ZM662,57.28a1.77,1.77,0,0,0-.28-1.1,1,1,0,0,0-1.53,0,1.68,1.68,0,0,0-.3,1.05v.08a1.64,1.64,0,0,0,.3,1,.9.9,0,0,0,.75.38.93.93,0,0,0,.77-.38A1.77,1.77,0,0,0,662,57.28Z"/><path class="cls-2" d="M666.24,59.29l0-.58h0a1.61,1.61,0,0,1-1.33.66A1.14,1.14,0,0,1,664,59a1.87,1.87,0,0,1-.31-1.18V55.27h.76v2.48a1.21,1.21,0,0,0,.18.76.68.68,0,0,0,.57.21.93.93,0,0,0,.72-.38,1.35,1.35,0,0,0,.33-.9V55.27H667v4Z"/><path class="cls-2" d="M669.54,55.42H671V56h-1.45V57.9a1.2,1.2,0,0,0,.13.68.56.56,0,0,0,.47.17,1.59,1.59,0,0,0,.7-.14l.11.61a2.83,2.83,0,0,1-.93.15,1.35,1.35,0,0,1-1-.3,1.46,1.46,0,0,1-.29-1V56h-.86v-.62h.86V54h.79Z"/><path class="cls-2" d="M622.87,64.62h4.18v.71h-1.67v4.94h-.85V65.33h-1.66Z"/><path class="cls-2" d="M629,64.62v2.3h2.63v-2.3h.85v5.65h-.85V67.59H629v2.68h-.86V64.62Z"/><path class="cls-2" d="M638.14,67.37a3,3,0,0,1-.75,2.22,3,3,0,0,1-2.19.76,8.49,8.49,0,0,1-1.47-.12V64.66a8.58,8.58,0,0,1,1.47-.12,3,3,0,0,1,2.18.73A2.77,2.77,0,0,1,638.14,67.37Zm-.81,0a2.17,2.17,0,0,0-.54-1.6,2.19,2.19,0,0,0-1.59-.53,2.94,2.94,0,0,0-.62.05V69.6a3.8,3.8,0,0,0,.62.05,2.13,2.13,0,0,0,1.61-.56A2.46,2.46,0,0,0,637.33,67.37Z"/><path class="cls-2" d="M641.62,65.78V67.7h1.9v.65h-1.9v1.92h-.7V68.35H639V67.7h1.89V65.78Z"/><path class="cls-2" d="M644.75,70.27V64.62h.84l2.65,4.22h0V64.62h.84v5.65h-.84l-2.65-4.22h0v4.22Z"/></svg>